<?xml version="1.0" encoding="UTF-8" standalone="no"?>
<svg width="24px" height="24px" viewBox="0 0 24 24" version="1.1" xmlns="http://www.w3.org/2000/svg" xmlns:xlink="http://www.w3.org/1999/xlink">
    <!-- Generator: Sketch 47.1 (45422) - http://www.bohemiancoding.com/sketch -->
    <title>svg-CP</title>
    <desc>Created with Sketch.</desc>
    <defs></defs>
    <g id="Page-1" stroke="none" stroke-width="1" fill="none" fill-rule="evenodd">
        <g id="Verticals-Frontpage-Desktop" transform="translate(-1024.000000, -38.000000)" fill-rule="nonzero" fill="#244C5B">
            <path d="M1045.59337,48.2916942 L1043.18381,47.8400066 C1043.03737,47.3527465 1042.84544,46.8853408 1042.608,46.4456486 L1044.00203,44.407677 C1044.13109,44.2190602 1044.10461,43.9353077 1043.94287,43.7739907 L1042.22412,42.0549305 C1042.06238,41.8931999 1041.77902,41.867141 1041.59039,41.9957809 L1039.55188,43.3905526 C1039.09934,43.1465089 1038.61743,42.9508604 1038.11525,42.8031932 L1037.66601,40.4066016 C1037.6234,40.1819987 1037.40458,40 1037.17583,40 L1034.74475,40 C1034.516,40 1034.29717,40.1819987 1034.25457,40.4066016 L1033.80078,42.8267704 C1033.31887,42.9740238 1032.85681,43.1659497 1032.42164,43.402548 L1030.40878,42.0255625 C1030.22015,41.8965089 1029.93638,41.9229815 1029.77505,42.0847121 L1028.05589,43.8037723 C1027.89414,43.965503 1027.86808,44.2488418 1027.99673,44.4374586 L1029.38249,46.4626075 C1029.14919,46.8977498 1028.96014,47.3593647 1028.81536,47.8404203 L1026.40621,48.2916942 C1026.18201,48.3342985 1026,48.5531105 1026,48.7818498 L1026,51.212773 C1026,51.4415122 1026.18201,51.6603243 1026.40621,51.7029285 L1028.81371,52.1542025 C1028.96056,52.6455989 1029.15415,53.117141 1029.39324,53.5601423 L1028.02321,55.562955 C1027.89414,55.7515718 1027.92062,56.0353243 1028.08236,56.1966413 L1029.80111,57.9157015 C1029.96285,58.0774322 1030.24621,58.1034911 1030.43484,57.9748511 L1032.43695,56.6044838 C1032.86757,56.8373594 1033.32466,57.0268034 1033.80161,57.1732296 L1034.25539,59.593812 C1034.298,59.8180013 1034.51683,60 1034.74558,60 L1037.17665,60 C1037.40541,60 1037.62423,59.8180013 1037.66684,59.593812 L1038.11607,57.1963931 C1038.61288,57.0499669 1039.08983,56.8568001 1039.53823,56.6168928 L1041.56599,58.0042191 C1041.75462,58.1332727 1042.03839,58.1068001 1042.19971,57.9450695 L1043.91847,56.2268365 C1044.08021,56.0651059 1044.10627,55.781767 1043.97762,55.5931502 L1042.59807,53.5771013 C1042.84171,53.1287227 1043.03779,52.6518034 1043.1867,52.1542025 L1045.59379,51.7029285 C1045.81799,51.6603243 1046,51.4415122 1046,51.212773 L1046,48.7818498 C1046,48.5531105 1045.81758,48.3342985 1045.59337,48.2916942 Z M1043.98141,53.4737667 L1044.96898,54.9169825 C1045.42255,55.5819765 1045.33671,56.5056825 1044.76687,57.0754931 L1043.0493,58.7925368 C1042.47968,59.3635807 1041.55397,59.4499698 1040.8884,58.9946074 L1039.43111,57.9975779 C1039.34374,58.0348358 1039.25557,58.0707289 1039.16665,58.1052493 L1038.84574,59.8178602 C1038.69557,60.608027 1037.98199,61.2 1037.17665,61.2 L1034.74558,61.2 C1033.94024,61.2 1033.22666,60.608027 1033.07594,59.8149229 L1032.74948,58.0735238 C1032.67966,58.0455645 1032.61033,58.016754 1032.5415,57.987095 L1031.11095,58.9662514 C1030.44597,59.4197485 1029.52232,59.3339295 1028.95251,58.7641539 L1027.23494,57.0462815 C1026.66383,56.4766632 1026.57743,55.5508948 1027.03277,54.8854377 L1028.01107,53.4552942 C1027.97554,53.3726696 1027.94125,53.2893498 1027.9082,53.2053674 L1026.18219,52.8818324 C1025.39202,52.7316805 1024.8,52.0181331 1024.8,51.212773 L1024.8,48.7818498 C1024.8,47.9764897 1025.39202,47.2629422 1026.18528,47.1122085 L1027.91116,46.7889219 C1027.94029,46.7151776 1027.97039,46.6419557 1028.00143,46.5692745 L1027.00537,45.1136264 C1026.55181,44.4486324 1026.63764,43.5249263 1027.20738,42.9552179 L1028.92546,41.2372448 C1029.49508,40.6662009 1030.4208,40.5798118 1031.08632,41.0351393 L1032.52469,42.0191186 C1032.59883,41.9870205 1032.67354,41.9559196 1032.7488,41.9258204 L1033.07559,40.1829517 C1033.22557,39.392348 1033.93909,38.8 1034.74475,38.8 L1037.17583,38.8 C1037.98148,38.8 1038.69501,39.392348 1038.84547,40.1855158 L1039.16572,41.8940124 C1039.26019,41.9306726 1039.3538,41.9688892 1039.4465,42.008654 L1040.91428,41.0043806 C1041.57926,40.5508835 1042.50291,40.6367026 1043.07272,41.2064781 L1044.79029,42.9243505 C1045.3614,43.4939688 1045.44781,44.4197372 1044.99248,45.085175 L1043.99015,46.5505124 C1044.02399,46.6292552 1044.05671,46.7086448 1044.0883,46.7886567 L1045.81447,47.1122383 C1046.60732,47.2628954 1047.2,47.9762353 1047.2,48.7818498 L1047.2,51.212773 C1047.2,52.0181331 1046.60798,52.7316805 1045.81491,52.8823799 L1044.0922,53.2053487 C1044.0567,53.2956236 1044.01977,53.3851072 1043.98141,53.4737667 Z M1035.99974,53 C1034.34323,53 1033,51.6568496 1033,49.9995538 C1033,48.3434479 1034.34323,47 1035.99974,47 C1037.65684,47 1039.00037,48.3434479 1039.00037,49.9995538 C1039.00037,51.6568496 1037.65654,53 1035.99974,53 Z M1035.99974,54 C1038.20899,54 1040.00037,52.2089735 1040.00037,49.9995538 C1040.00037,47.7909652 1038.20893,46 1035.99974,46 C1033.79105,46 1032,47.7910618 1032,49.9995538 C1032,52.2089642 1033.79078,54 1035.99974,54 Z" id="svg-CP"></path>
        </g>
    </g>
</svg>