<?xml version="1.0" encoding="UTF-8" standalone="no"?>
<svg width="30px" height="24px" viewBox="0 0 30 24" version="1.1" xmlns="http://www.w3.org/2000/svg" xmlns:xlink="http://www.w3.org/1999/xlink">
    <!-- Generator: Sketch 47.1 (45422) - http://www.bohemiancoding.com/sketch -->
    <title>svg-webmail</title>
    <desc>Created with Sketch.</desc>
    <defs></defs>
    <g id="Page-1" stroke="none" stroke-width="1" fill="none" fill-rule="evenodd">
        <g id="Verticals-Frontpage-Desktop" transform="translate(-1173.000000, -38.000000)" fill-rule="nonzero" fill="#244C5B">
            <path d="M1177,38.8 L1199,38.8 C1200.76731,38.8 1202.2,40.2326888 1202.2,42 L1202.2,58 C1202.2,59.7673112 1200.76731,61.2 1199,61.2 L1177,61.2 C1175.23269,61.2 1173.8,59.7673112 1173.8,58 L1173.8,42 C1173.8,40.2326888 1175.23269,38.8 1177,38.8 Z M1177,40 C1175.89543,40 1175,40.8954305 1175,42 L1175,58 C1175,59.1045695 1175.89543,60 1177,60 L1199,60 C1200.10457,60 1201,59.1045695 1201,58 L1201,42 C1201,40.8954305 1200.10457,40 1199,40 L1177,40 Z M1191.94732,50.6544249 L1189.74624,52.8028475 C1188.77505,53.7507969 1187.22495,53.7507969 1186.25376,52.8028475 L1184.05268,50.6544249 L1180.35355,54.3535534 C1180.15829,54.5488155 1179.84171,54.5488155 1179.64645,54.3535534 C1179.45118,54.1582912 1179.45118,53.8417088 1179.64645,53.6464466 L1183.33701,49.955879 L1179.65075,46.3578076 C1179.45314,46.1649236 1179.44931,45.8483643 1179.64219,45.6507526 C1179.83508,45.4531409 1180.15164,45.4493084 1180.34925,45.6421924 L1186.95226,52.0872323 C1187.53497,52.656002 1188.46503,52.656002 1189.04774,52.0872323 L1195.65075,45.6421924 C1195.84836,45.4493084 1196.16492,45.4531409 1196.35781,45.6507526 C1196.55069,45.8483643 1196.54686,46.1649236 1196.34925,46.3578076 L1192.66299,49.955879 L1196.35355,53.6464466 C1196.54882,53.8417088 1196.54882,54.1582912 1196.35355,54.3535534 C1196.15829,54.5488155 1195.84171,54.5488155 1195.64645,54.3535534 L1191.94732,50.6544249 Z" id="svg-webmail"></path>
        </g>
    </g>
</svg>