<?xml version="1.0" encoding="UTF-8" standalone="no"?>
<!-- Generator: Adobe Illustrator 17.0.2, SVG Export Plug-In . SVG Version: 6.00 Build 0)  -->

<svg
   xmlns:dc="http://purl.org/dc/elements/1.1/"
   xmlns:cc="http://creativecommons.org/ns#"
   xmlns:rdf="http://www.w3.org/1999/02/22-rdf-syntax-ns#"
   xmlns:svg="http://www.w3.org/2000/svg"
   xmlns="http://www.w3.org/2000/svg"
   xmlns:sodipodi="http://sodipodi.sourceforge.net/DTD/sodipodi-0.dtd"
   xmlns:inkscape="http://www.inkscape.org/namespaces/inkscape"
   version="1.1"
   id="Layer_1"
   x="0px"
   y="0px"
   xml:space="preserve"
   inkscape:version="0.48.3.1 r9886"
   sodipodi:docname="logo.svg"><metadata
   id="metadata36"><rdf:RDF><cc:Work
       rdf:about=""><dc:format>image/svg+xml</dc:format><dc:type
         rdf:resource="http://purl.org/dc/dcmitype/StillImage" /></cc:Work></rdf:RDF></metadata><defs
   id="defs34" /><sodipodi:namedview
   pagecolor="#ffffff"
   bordercolor="#666666"
   borderopacity="1"
   objecttolerance="10"
   gridtolerance="10"
   guidetolerance="10"
   inkscape:pageopacity="0"
   inkscape:pageshadow="2"
   inkscape:window-width="640"
   inkscape:window-height="480"
   id="namedview32"
   showgrid="false"
   inkscape:zoom="1.309417"
   inkscape:cx="111.5"
   inkscape:cy="29.5"
   inkscape:window-x="65"
   inkscape:window-y="24"
   inkscape:window-maximized="0"
   inkscape:current-layer="Layer_1" />

<path
   fill="#282827"
   d="M126.711,17.859c-2.913,0-5.547,1.127-7.447,3.01c-1.907,1.879-3.078,4.515-3.078,7.516  c0,2.961,1.11,5.593,3.041,7.467c1.926,1.88,4.672,2.992,7.892,2.992c3.888,0.009,6.667-1.334,8.499-3.533l0.228-0.273l-2.774-2.707  l-0.271,0.301c-1.238,1.396-2.845,2.381-5.741,2.39c-1.801,0-3.25-0.509-4.321-1.431c-0.974-0.843-1.625-2.033-1.929-3.53h16.061  l0.006-0.383l0.006-0.304c0-3.3-0.96-6.176-2.717-8.239C132.408,19.08,129.836,17.859,126.711,17.859z M122.802,23.055  c1.001-0.871,2.319-1.368,3.91-1.368c1.731,0.007,3.005,0.546,3.927,1.442c0.826,0.802,1.35,1.901,1.622,3.167h-11.32  C121.267,24.951,121.9,23.839,122.802,23.055z"
   id="path4" />
<path
   fill="#282827"
   d="M159.968,32.689c-1.177,1.283-2.865,2.273-5.394,2.273c-1.766,0-3.2-0.706-4.215-1.874  c-1.014-1.175-1.605-2.819-1.605-4.702c0-1.916,0.594-3.575,1.605-4.758c1.015-1.172,2.449-1.881,4.215-1.881  c2.127,0,3.768,0.776,4.925,2.042l0.256,0.284l2.984-2.693l-0.266-0.285c-1.877-2.067-4.421-3.237-7.899-3.237  c-2.915,0-5.505,1.127-7.363,3.013c-1.857,1.876-2.983,4.512-2.983,7.512c0,2.97,1.126,5.593,2.983,7.467  c1.858,1.863,4.448,2.992,7.363,2.992c3.718,0.009,6.489-1.272,8.379-3.533l0.243-0.299l-2.972-2.605L159.968,32.689z"
   id="path6" />
<path
   fill="#282827"
   d="M173.844,17.859c-2.969,0-5.632,1.127-7.552,3.01c-1.917,1.879-3.089,4.515-3.089,7.516  c0,2.978,1.177,5.598,3.089,7.467c1.92,1.875,4.583,2.992,7.552,2.992c2.94,0,5.587-1.117,7.497-2.992  c1.911-1.869,3.084-4.488,3.084-7.467c0-3.001-1.171-5.637-3.079-7.516C179.431,18.986,176.784,17.859,173.844,17.859z   M169.435,23.582c1.072-1.182,2.581-1.896,4.409-1.896c1.829,0,3.336,0.714,4.41,1.896c1.072,1.187,1.699,2.871,1.699,4.803  c-0.017,3.817-2.469,6.627-6.109,6.636c-3.64-0.009-6.097-2.819-6.111-6.636C167.734,26.453,168.362,24.769,169.435,23.582z"
   id="path8" />
<path
   fill="#282827"
   d="M81.11,17.859c-2.968,0-5.629,1.127-7.546,3.01c-1.92,1.879-3.089,4.515-3.089,7.516  c0,2.978,1.17,5.598,3.089,7.467c1.916,1.875,4.577,2.992,7.546,2.992c2.939,0,5.59-1.117,7.498-2.992  c1.914-1.869,3.087-4.488,3.087-7.467c0-3.001-1.172-5.637-3.087-7.516C86.7,18.986,84.049,17.859,81.11,17.859z M76.702,23.582  c1.073-1.182,2.583-1.896,4.408-1.896c1.835,0,3.341,0.714,4.414,1.896c1.066,1.187,1.698,2.871,1.698,4.803  c-0.018,3.817-2.471,6.627-6.112,6.636c-3.637-0.009-6.092-2.819-6.112-6.636C74.998,26.453,75.633,24.769,76.702,23.582z"
   id="path10" />
<path
   fill="#282827"
   d="M111.382,20.869c-1.91-1.883-4.562-3.01-7.501-3.01c-2.969,0-5.63,1.127-7.549,3.01  c-1.919,1.879-3.089,4.515-3.089,7.516v10.459h4.528V28.385c0-1.932,0.63-3.616,1.701-4.803c1.07-1.182,2.582-1.896,4.409-1.896  c1.832,0,3.338,0.714,4.414,1.896c1.064,1.187,1.696,2.871,1.696,4.803v10.459h4.473V28.385  C114.464,25.384,113.293,22.748,111.382,20.869z"
   id="path12" />
<path
   fill="#282827"
   d="M217.378,20.592c-1.915-1.883-4.013-2.733-6.982-2.733c-2.97,0-5.065,0.85-6.983,2.733  c-0.141,0.135-0.271,0.281-0.404,0.43c-0.127-0.149-0.256-0.295-0.398-0.43c-1.916-1.883-4.015-2.733-6.984-2.733  c-2.968,0-5.067,0.85-6.985,2.733c-1.918,1.881-2.662,4.792-2.662,7.793v10.459h4.525V28.385c0-2.953,0.23-3.691,1.231-4.947  c0.687-0.858,2.065-1.751,3.891-1.751s3.205,0.893,3.891,1.751c1.004,1.256,1.231,1.994,1.231,4.947v10.459h4.525V28.385  c0-2.953,0.23-3.691,1.231-4.947c0.689-0.858,2.065-1.751,3.891-1.751c1.827,0,3.208,0.893,3.894,1.751  c1,1.256,1.23,1.994,1.23,4.947v10.459h4.525V28.385C220.045,25.384,219.302,22.473,217.378,20.592z"
   id="path14" />
<path
   fill="#282827"
   d="M140.648,34.185c-1.294,0-2.337,1.044-2.337,2.329c0,1.286,1.044,2.329,2.337,2.329  c1.286,0,2.328-1.044,2.328-2.329S141.935,34.185,140.648,34.185z"
   id="path16" />
<path
   fill="#282827"
   d="M1.621,29.438c0-3.047,0.586-6.045,1.742-8.905c1.721-4.26,4.598-7.841,8.326-10.368  c3.303-2.236,7.122-3.526,11.047-3.716l0.991-0.017c1.769,0,3.55,0.228,5.304,0.68c9.407,2.451,16.294,11.193,16.741,21.271  l0.024,1.061c0,3.2-0.64,6.288-1.828,9.115c1.942-2.349,3.132-5.276,3.373-8.387c0.006-0.131,0.017-0.886,0.017-0.886l-0.018-1.002  c-0.032-0.619-0.089-1.278-0.175-2.008C45.821,14.948,37.494,5.973,26.916,4.447c-1.068-0.158-2.145-0.232-3.199-0.232l-1.04,0.027  C17.77,4.478,13.123,6.287,9.242,9.469c-2.343,1.926-4.305,4.266-5.831,6.944C1.177,20.336,0,24.836,0,29.41l0.025,1.202  c0.216,5,1.813,9.756,4.608,13.775h0.002c0.549,0.787,1.155,1.527,1.78,2.244C3.537,41.77,1.894,36.244,1.644,30.488L1.621,29.438z"
   id="path20" />
<path
   fill="#282827"
   d="M34.373,0c-0.454,0-0.903,0.021-1.352,0.046c-0.184,0.012-0.372,0.023-0.555,0.038  c-1.057,0.077-2.102,0.213-3.12,0.409C41.612,2.881,51.043,13.81,52.03,27.134c0.091,0.756,0.155,1.521,0.155,2.304  c0,0.785-0.064,1.555-0.155,2.309c-1.092,9.284-8.646,16.455-17.657,16.455c-1.064,0-2.108-0.103-3.115-0.291  c-0.535-0.098-1.055-0.227-1.568-0.375c-0.128-0.028-0.248-0.068-0.373-0.104c-0.449-0.137-0.892-0.302-1.327-0.479  c-0.275-0.11-0.548-0.221-0.818-0.346c-0.621-0.28-1.226-0.597-1.809-0.944c-3.095-1.889-5.592-4.71-7.149-8.106  c-1.126-2.455-1.777-5.203-1.777-8.117c0-2.904,0.651-5.654,1.777-8.116c1.557-3.399,4.054-6.228,7.147-8.119  c0.427-0.258,0.872-0.493,1.325-0.716c0.099-0.05,0.196-0.103,0.296-0.146c0.666-0.319,1.356-0.597,2.062-0.825l0.272-0.094  c-1.59-0.5-3.269-0.773-4.998-0.773H24.13c-3.222,0.033-6.23,0.969-8.823,2.554c-3.1,1.891-5.592,4.72-7.147,8.119  c-1.124,2.462-1.776,5.212-1.776,8.116c0,5.995,1.711,11.582,4.654,16.245c1.399,2.214,3.076,4.21,4.977,5.945  c0.706,0.649,1.434,1.25,2.195,1.82c1.681,1.25,3.505,2.304,5.441,3.143c0.703,0.301,1.419,0.58,2.149,0.824  c1.066,0.36,2.153,0.66,3.269,0.879l0.277,0.065c0.215,0.04,0.442,0.068,0.662,0.105l0.328,0.06  c1.318,0.202,2.659,0.321,4.036,0.321c15.376,0,27.812-13.245,27.812-29.409C62.186,13.286,49.75,0,34.373,0z M34.373,55.963  c-1.165,0-2.344-0.094-3.572-0.284l-0.561-0.094l-0.334-0.054c-0.075-0.019-0.204-0.045-0.204-0.045l-0.066-0.012  c-0.961-0.198-1.943-0.455-2.92-0.785c-2.449-0.826-4.727-2.017-6.787-3.551c-0.658-0.486-1.321-1.034-1.969-1.628  c-1.724-1.576-3.23-3.379-4.485-5.365C10.722,39.78,9.267,34.7,9.267,29.438c0-2.394,0.506-4.725,1.515-6.916  c1.316-2.888,3.403-5.256,6.025-6.861c0.814-0.494,1.671-0.881,2.554-1.208c-1.527,1.662-2.797,3.566-3.767,5.667  c-1.351,2.954-2.034,6.092-2.034,9.317c0,3.234,0.687,6.368,2.034,9.315c1.803,3.931,4.665,7.167,8.279,9.366  c0.415,0.252,0.854,0.491,1.303,0.723c0.264,0.133,0.524,0.267,0.796,0.39c0.162,0.077,0.331,0.139,0.495,0.207  c0.658,0.281,1.327,0.541,2.021,0.751l0.412,0.12c0.607,0.17,1.224,0.318,1.826,0.428c1.207,0.23,2.438,0.345,3.648,0.345  c10.422,0,19.245-8.163,20.519-18.988c0.117-0.996,0.172-1.835,0.172-2.657c0-0.787-0.052-1.595-0.159-2.54  C54.267,18.34,50.43,10.67,44.619,5.257c8.646,4.175,14.684,13.431,14.684,24.181C59.303,44.063,48.119,55.963,34.373,55.963z"
   id="path22" />
<linearGradient
   id="SVGID_1_"
   gradientUnits="userSpaceOnUse"
   x1="0.767"
   y1="4.39"
   x2="50.803"
   y2="4.39"
   gradientTransform="matrix(1 0 0 -1 8.5 35)">
	<stop
   offset="0"
   style="stop-color:#FFFFFF"
   id="stop25" />
	<stop
   offset="0.6485"
   style="stop-color:#A3CD39"
   id="stop27" />
</linearGradient>
<path
   fill="url(#SVGID_1_)"
   d="M34.373,55.963c-1.165,0-2.344-0.094-3.572-0.284l-0.561-0.094l-0.334-0.054  c-0.075-0.019-0.204-0.045-0.204-0.045l-0.066-0.012c-0.961-0.198-1.943-0.455-2.92-0.785c-2.449-0.826-4.727-2.017-6.787-3.551  c-0.658-0.486-1.321-1.034-1.969-1.628c-1.724-1.576-3.23-3.379-4.485-5.365C10.722,39.78,9.267,34.7,9.267,29.438  c0-2.394,0.506-4.725,1.515-6.916c1.316-2.888,3.403-5.256,6.025-6.861c0.814-0.494,1.671-0.881,2.554-1.208  c-1.527,1.662-2.797,3.566-3.767,5.667c-1.351,2.954-2.034,6.092-2.034,9.317c0,3.234,0.687,6.368,2.034,9.315  c1.803,3.931,4.665,7.167,8.279,9.366c0.415,0.252,0.854,0.491,1.303,0.723c0.264,0.133,0.524,0.267,0.796,0.39  c0.162,0.077,0.331,0.139,0.495,0.207c0.658,0.281,1.327,0.541,2.021,0.751l0.412,0.12c0.607,0.17,1.224,0.318,1.826,0.428  c1.207,0.23,2.438,0.345,3.648,0.345c10.422,0,19.245-8.163,20.519-18.988c0.117-0.996,0.172-1.835,0.172-2.657  c0-0.787-0.052-1.595-0.159-2.54C54.267,18.34,50.43,10.67,44.619,5.257c8.646,4.175,14.684,13.431,14.684,24.181  C59.303,44.063,48.119,55.963,34.373,55.963z"
   id="path29" />
<g
   id="Layer_1_xA0_Image_1_">
</g>
</svg>