<?xml version="1.0" encoding="UTF-8" standalone="no"?>
<svg width="57px" height="47px" viewBox="0 0 57 47" version="1.1" xmlns="http://www.w3.org/2000/svg" xmlns:xlink="http://www.w3.org/1999/xlink">
    <!-- Generator: Sketch 46.2 (44496) - http://www.bohemiancoding.com/sketch -->
    <title>247</title>
    <desc>Created with Sketch.</desc>
    <defs></defs>
    <g id="Page-1" stroke="none" stroke-width="1" fill="none" fill-rule="evenodd">
        <g id="247" fill-rule="nonzero">
            <path d="M0,14.873 C0,6.676 6.675,0 14.873,0 L27.58,0 C35.778,0 42.453,6.676 42.453,14.873 C42.453,23.072 35.719,29.747 27.521,29.747 L18.386,29.747 L12.238,35.895 C11.945,36.188 11.535,36.364 11.126,36.364 C10.247,36.364 9.545,35.661 9.545,34.783 L9.545,28.751 C3.806,26.585 0,21.08 0,14.873 L0,14.873 Z M56.8,29.923 C56.8,34.666 53.872,38.882 49.539,40.639 L49.539,45.089 C49.539,45.674 49.187,46.143 48.66,46.377 C48.485,46.435 48.309,46.494 48.133,46.494 C47.782,46.494 47.431,46.377 47.138,46.084 L42.512,41.458 L35.661,41.458 C31.269,41.458 27.346,39.057 25.355,35.134 C25.12,34.724 25.296,34.197 25.765,33.963 C26.174,33.729 26.701,33.905 26.936,34.373 C28.634,37.711 31.972,39.76 35.661,39.76 L42.863,39.76 C43.097,39.76 43.332,39.877 43.508,39.994 L47.782,44.269 L47.782,40.053 C47.782,39.702 48.016,39.35 48.367,39.233 C52.349,37.886 55.043,34.197 55.043,29.981 C55.043,25.297 51.705,21.256 47.079,20.378 C46.611,20.261 46.259,19.851 46.377,19.382 C46.494,18.914 46.904,18.562 47.372,18.68 C52.876,19.617 56.8,24.36 56.8,29.923 L56.8,29.923 Z" id="Fill-1" fill="#FFFFFF"></path>
            <path d="M14.6627681,19.6304923 L8.0259757,19.6304923 L8.0259757,18.2342982 L10.4092466,15.8250517 C11.1149234,15.1020576 11.5759875,14.600948 11.7924528,14.3217078 C12.0089181,14.0424676 12.1647708,13.7837954 12.2600155,13.5456836 C12.3552602,13.3075718 12.4028819,13.0608051 12.4028819,12.8053761 C12.4028819,12.4243972 12.2978978,12.1408319 12.0879265,11.9546717 C11.8779551,11.7685116 11.5976368,11.6754329 11.246963,11.6754329 C10.878972,11.6754329 10.5218097,11.7598531 10.1754652,11.928696 C9.8291208,12.097539 9.4676292,12.3378118 9.0909796,12.6495218 L8,11.3572305 C8.467565,10.9589344 8.8550321,10.6775338 9.1624128,10.5130202 C9.4697935,10.3485065 9.8053096,10.2218763 10.1689713,10.1331255 C10.532633,10.0443747 10.9395816,10 11.3898294,10 C11.9829443,10 12.5067824,10.108231 12.9613595,10.3246963 C13.4159366,10.5411616 13.7687697,10.8442084 14.0198695,11.233846 C14.2709692,11.6234835 14.3965172,12.0693953 14.3965172,12.5715947 C14.3965172,13.0088546 14.3196731,13.4190502 14.1659828,13.8021937 C14.0122924,14.1853373 13.7741842,14.5782159 13.4516509,14.9808413 C13.1291176,15.3834667 12.5609048,15.9570911 11.7469953,16.7017317 L10.5261372,17.8511566 L10.5261372,17.9420716 L14.6627681,17.9420716 L14.6627681,19.6304923 Z M21.9364849,17.6628327 L20.7935539,17.6628327 L20.7935539,19.6304923 L18.8323882,19.6304923 L18.8323882,17.6628327 L14.7801783,17.6628327 L14.7801783,16.2666386 L18.9427849,10.1363724 L20.7935539,10.1363724 L20.7935539,16.1042905 L21.9364849,16.1042905 L21.9364849,17.6628327 Z M18.8323882,16.1042905 L18.8323882,14.4937968 C18.8323882,14.2253799 18.8432113,13.8357482 18.8648578,13.3248901 C18.8865044,12.8140321 18.9038213,12.5174791 18.9168092,12.4352223 L18.8648578,12.4352223 C18.7046735,12.7902253 18.5120223,13.1365646 18.2868984,13.4742504 L16.5465262,16.1042905 L18.8323882,16.1042905 Z M27.0412303,10.1363724 L23.5020406,19.6304923 L21.7032231,19.6304923 L25.2424128,10.1363724 L27.0412303,10.1363724 Z M29.3782644,19.6304923 L32.9434298,11.8377811 L28.2613091,11.8377811 L28.2613091,10.1493603 L35.0734376,10.1493603 L35.0734376,11.409182 L31.4822965,19.6304923 L29.3782644,19.6304923 Z" id="24/7" fill="#73A43F"></path>
        </g>
    </g>
</svg>