<?xml version="1.0" encoding="UTF-8"?>
<svg width="37px" height="28px" viewBox="0 0 37 28" version="1.1" xmlns="http://www.w3.org/2000/svg" xmlns:xlink="http://www.w3.org/1999/xlink">
    <!-- Generator: Sketch 43.2 (39069) - http://www.bohemiancoding.com/sketch -->
    <title>Email-Icon</title>
    <desc>Created with Sketch.</desc>
    <defs>
        <polygon id="path-1" points="6.98113208e-05 27.54129 36.6195981 27.54129 36.6195981 -7.00000001e-05 6.98113208e-05 -7.00000001e-05"></polygon>
    </defs>
    <g id="Main" stroke="none" stroke-width="1" fill="none" fill-rule="evenodd">
        <g id="Home-Desktop" transform="translate(-1122.000000, -2333.000000)">
            <g id="Pkg-Email" transform="translate(983.000000, 2291.000000)">
                <g id="Email-Icon" transform="translate(139.000000, 42.000000)">
                    <mask id="mask-2" fill="white">
                        <use xlink:href="#path-1"></use>
                    </mask>
                    <g id="Clip-2"></g>
                    <path d="M12.4599943,13.43643 C11.8882396,14.00343 11.3472019,14.53823 10.8152396,15.07933 L4.98739057,20.90613 C4.63554151,21.25683 4.47357925,21.65443 4.62088113,22.13743 C4.88546604,23.01383 5.90820189,23.22453 6.5958434,22.54063 C9.0169,20.12213 11.4351642,17.69733 13.851334,15.26623 C13.9399943,15.16053 14.0209755,15.04853 14.0928811,14.93023 C14.2932396,15.11363 14.425183,15.22843 14.5564283,15.34673 L17.4689566,18.00043 C18.0225604,18.50233 18.6005981,18.49673 19.1569943,17.99343 C20.1643717,17.07923 21.1717491,16.16363 22.1777302,15.24663 C22.2698811,15.16053 22.3711075,15.07583 22.4842019,14.97083 C23.3952396,15.88643 24.285334,16.78313 25.1761264,17.67843 L30.0280132,22.54343 C30.3575226,22.87453 30.7345038,23.02993 31.1931642,22.90673 C32.0818623,22.66523 32.3380698,21.62713 31.6643906,20.94673 C30.0433717,19.30943 28.4160698,17.67843 26.7859755,16.05163 C25.9182208,15.18363 25.0455792,14.31703 24.1645604,13.43223 C24.2797491,13.32303 24.3725981,13.23273 24.4689377,13.14523 L28.0118623,9.91823 L31.6371642,6.61353 C31.9862208,6.29573 32.1244472,5.90513 32.0092585,5.45013 C31.9192019,5.03993 31.6022585,4.71863 31.1938623,4.62413 C30.7365981,4.50163 30.3659,4.66963 30.0238245,4.98253 C26.2198057,8.45663 22.4109,11.92933 18.5957113,15.39853 C18.5042585,15.48393 18.4058245,15.56583 18.3039,15.65473 L12.852334,10.68753 C10.7552019,8.78073 8.65597547,6.87113 6.55535283,4.95873 C6.22374906,4.65633 5.85444717,4.51073 5.41044717,4.63533 C5.00554151,4.73333 4.69208868,5.05393 4.60273019,5.46133 C4.4924283,5.92053 4.63833396,6.30623 4.98739057,6.62263 C6.48833396,7.98693 7.98788113,9.35333 9.48603208,10.72113 L12.4599943,13.43643 Z M6.98113208e-05,23.52483 L6.98113208e-05,4.01793 C0.0279943396,3.94163 0.0531264151,3.86323 0.0712773585,3.78413 C0.448956604,1.62393 2.32408868,0.00833 4.51476792,0.00623 C13.7117113,-0.00217 22.9086547,-0.00217 32.1049,0.00623 C34.189466,0.00623 35.9954849,1.47483 36.4862585,3.50623 C36.5281453,3.67843 36.5777113,3.84783 36.6195981,4.01863 L36.6195981,23.52483 C36.5937679,23.57663 36.5728245,23.63053 36.5581642,23.68653 C36.2174849,25.59123 34.8973528,27.05703 33.0208245,27.40983 C32.1425981,27.57643 31.2196925,27.53443 30.3177302,27.53513 C21.7539755,27.54353 13.1881264,27.54353 4.62227736,27.53513 C2.51676792,27.53513 0.74844717,26.19953 0.17599434,24.20663 C0.111069811,23.98613 0.0587113208,23.75513 6.98113208e-05,23.52483 L6.98113208e-05,23.52483 Z" id="Fill-1" fill="#FFFFFF" mask="url(#mask-2)"></path>
                </g>
            </g>
        </g>
    </g>
</svg>