<?xml version="1.0" encoding="UTF-8" standalone="no"?>
<svg width="456px" height="290px" viewBox="0 0 456 290" version="1.1" xmlns="http://www.w3.org/2000/svg" xmlns:xlink="http://www.w3.org/1999/xlink">
    <!-- Generator: Sketch 45.1 (43504) - http://www.bohemiancoding.com/sketch -->
    <title>Personal-email</title>
    <desc>Created with Sketch.</desc>
    <defs>
        <polygon id="path-1" points="408.539902 234.565392 444.41037 234.565392 444.41037 262.396454 408.539902 262.396454"></polygon>
        <polygon id="path-3" points="307.135717 119.326038 382.591447 119.326038 382.591447 177.870384 307.135717 177.870384"></polygon>
    </defs>
    <g id="Frontpage" stroke="none" stroke-width="1" fill="none" fill-rule="evenodd">
        <g id="Verticals-Frontpage-Desktop" transform="translate(-170.000000, -3148.000000)">
            <g id="Personal-email" transform="translate(170.000000, 3148.164416)">
                <g id="Multiple-emails" transform="translate(62.000000, 0.000000)">
                    <path d="M367.400553,219.251154 L0,219.251154 L0,6.54321546 C0,2.92917945 2.91283922,0 6.50671456,0 L360.893839,0 C364.487714,0 367.400553,2.92917945 367.400553,6.54321546 L367.400553,219.251154 Z" id="Shape" fill="#454957" fill-rule="nonzero"></path>
                    <path d="M11.4884179,12.4975025 C11.4884179,11.9402005 11.9375451,11.4884179 12.4917813,11.4884179 L354.908772,11.4884179 C355.462914,11.4884179 355.912135,11.9360053 355.912135,12.4975025 L355.912135,206.725298 C355.912135,207.2826 355.463008,207.734382 354.908772,207.734382 L12.4917813,207.734382 C11.937639,207.734382 11.4884179,207.286795 11.4884179,206.725298 L11.4884179,12.4975025 Z" id="Rectangle-5" fill="#929EBC"></path>
                    <g id="Group-40" transform="translate(17.232627, 20.104731)">
                        <g id="mac">
                            <g id="Group-22" fill-rule="nonzero">
                                <ellipse id="Oval-Copy" fill="#C1272D" cx="5.18151369" cy="5.21058057" rx="5.18151369" ry="5.21058057"></ellipse>
                                <ellipse id="Oval-Copy-2" fill="#F7931E" cx="19.5420361" cy="5.21058057" rx="5.18151369" ry="5.21058057"></ellipse>
                                <ellipse id="Oval-Copy-3" fill="#D9E021" cx="33.9025584" cy="5.21058057" rx="5.18151369" ry="5.21058057"></ellipse>
                            </g>
                            <polygon id="Rectangle-path-Copy" fill="#FFFFFF" fill-rule="nonzero" points="68.9305074 1 267.127337 1 267.127337 10.2662836 68.9305074 10.2662836"></polygon>
                            <rect id="Rectangle-path-Copy-2" fill="#FFFFFF" fill-rule="nonzero" x="272.849925" y="1" width="59.564634" height="9.26628362"></rect>
                            <path d="M0,40.1047313 L333.164119,41.044809 L333.164119,180.893557 L333.164119,180.893557 C333.164119,181.445842 332.716404,181.893557 332.164119,181.893557 L1,181.893557 L1,181.893557 C0.44771525,181.893557 -1.72179423e-15,181.445842 -3.99680289e-15,180.893557 L0,40.1047313 Z" id="Rectangle-5-Copy" fill="#FFFFFF"></path>
                            <polygon id="XMLID_9_-Copy-9" fill="#9B9B9B" fill-rule="nonzero" opacity="0.899999976" points="227.152044 61.4420895 292.607774 61.4420895 292.607774 70.1334029 227.152044 70.1334029"></polygon>
                            <rect id="XMLID_9_-Copy-10" fill="#9B9B9B" fill-rule="nonzero" opacity="0.899999976" x="227.152044" y="75.6747163" width="75.4557292" height="3.42980587"></rect>
                            <polygon id="XMLID_9_-Copy-11" fill="#9B9B9B" fill-rule="nonzero" opacity="0.899999976" points="227.152044 84.2910297 287.586851 84.2910297 287.586851 87.7208356 227.152044 87.7208356"></polygon>
                            <rect id="Rectangle-33-Copy" fill="#F8FBF3" x="0" y="40.2094626" width="57.1924632" height="141.571751"></rect>
                        </g>
                        <polygon id="Rectangle-33" fill="#67A51D" points="0 20 333.164119 20 333.164119 41.1047313 0 40.1047313"></polygon>
                        <rect id="Rectangle-35" fill="#6990FF" x="9" y="49" width="40.2094626" height="8.61631342"></rect>
                        <polygon id="Rectangle-35-Copy" fill="#9B9B9B" points="9 63 49.2094626 63 49.2094626 66.7442089 9 66.7442089"></polygon>
                        <polygon id="Rectangle-35-Copy-2" fill="#9B9B9B" points="9 72 40.5931492 72 40.5931492 75.7442089 9 75.7442089"></polygon>
                        <rect id="Rectangle-36" fill="#F0F0F0" x="195" y="43" width="2.87210447" height="136.733119"></rect>
                        <polygon id="Rectangle-37" fill="#D8D8D8" points="69 49 183.884179 49 183.884179 53.6163134 69 53.6163134"></polygon>
                        <polygon id="Rectangle-37-Copy" fill="#D8D8D8" points="69 61 160.907343 61 160.907343 65.6163134 69 65.6163134"></polygon>
                        <polygon id="Rectangle-37-Copy-4" fill="#E4EFD2" points="59 72.4189253 193.13997 72.4189253 193.13997 89.0352387 59 89.0352387"></polygon>
                        <polygon id="Rectangle-37-Copy-5" fill="#919191" points="69 78.4189253 160.907343 78.4189253 160.907343 83.0352387 69 83.0352387"></polygon>
                        <polygon id="Rectangle-37-Copy-2" fill="#D8D8D8" points="69 95.0352387 178.13997 95.0352387 178.13997 99.6515521 69 99.6515521"></polygon>
                        <polygon id="Rectangle-37-Copy-3" fill="#D8D8D8" points="69 106.418925 138.13997 106.418925 138.13997 111.035239 69 111.035239"></polygon>
                    </g>
                    <g id="Logo-one.com-[Converted]-Copy" transform="translate(24.000000, 47.000000)" fill="#FFFFFF">
                        <g id="Layer_1">
                            <path d="M16.0276268,0.791485778 C15.2189319,0.791485778 14.4882371,1.10391108 13.9608274,1.62583086 C13.431397,2.14653969 13.1064641,2.87755031 13.1064641,3.70906984 C13.1064641,4.52969081 13.4144228,5.25908682 13.9503196,5.77898836 C14.4850039,6.30010084 15.2472221,6.60848963 16.1407875,6.60848963 C17.2198556,6.61091154 17.990965,6.238746 18.4993799,5.62923411 L18.5628307,5.55334786 L17.7929338,4.80296203 L17.7177627,4.88651764 C17.373835,5.27361823 16.9280627,5.54648581 16.1246217,5.54890771 C15.6246939,5.54890771 15.2225692,5.40763012 14.9255224,5.15211951 C14.6551491,4.91840601 14.4744961,4.58862375 14.3900298,4.17367128 L18.847349,4.17367128 L18.8489656,4.06751127 L18.8505822,3.98314836 C18.8505822,3.06847688 18.5842504,2.27126762 18.0964469,1.69929521 C17.6086435,1.12974469 16.8949228,0.791485778 16.0276268,0.791485778 Z M14.9424965,2.2317099 C15.2205485,1.99032704 15.5858959,1.8526823 16.0276268,1.8526823 C16.5077515,1.85470056 16.8613787,2.00405115 17.1172027,2.25229606 C17.3463531,2.4743037 17.4922496,2.77905964 17.5674206,3.13023537 L14.4259987,3.13023537 C14.5165273,2.75685888 14.6923305,2.44887373 14.9424965,2.2317099 Z" id="Shape"></path>
                            <path d="M25.2574987,4.90185635 C24.9305451,5.25747222 24.4621406,5.5319544 23.7605443,5.5319544 C23.2703159,5.5319544 22.8726369,5.33658767 22.5905434,5.01245652 C22.3092582,4.68671076 22.1447711,4.23139327 22.1447711,3.70906984 C22.1447711,3.17826975 22.3096624,2.71851211 22.5905434,2.39034445 C22.8722327,2.06540599 23.2703159,1.86882831 23.7605443,1.86882831 C24.3510006,1.86882831 24.8064725,2.0839739 25.1273639,2.43474597 L25.1984935,2.51345777 L26.0265873,1.76710845 L25.9526287,1.68839665 C25.4316854,1.11521328 24.7260475,0.791082128 23.7605443,0.791082128 C22.9514452,0.791082128 22.2328748,1.10350743 21.7167811,1.62623451 C21.2014958,2.14613604 20.8886873,2.87674301 20.8886873,3.70866619 C20.8886873,4.53211271 21.2010916,5.25868317 21.7167811,5.77858471 C22.2324706,6.29485338 22.9514452,6.60808598 23.7605443,6.60808598 C24.7927315,6.61050789 25.561416,6.25529566 26.0859967,5.62883046 L26.153489,5.54608216 L25.3286283,4.82395185 L25.2574987,4.90185635 Z" id="Shape"></path>
                            <path d="M29.1081958,0.791485778 C28.2845475,0.791485778 27.5453656,1.10391108 27.012702,1.62583086 C26.4808467,2.14653969 26.1555097,2.87755031 26.1555097,3.70906984 C26.1555097,4.53493826 26.4824633,5.26070143 27.012702,5.77898836 C27.5453656,6.29848624 28.2845475,6.60848963 29.1081958,6.60848963 C29.9245694,6.60848963 30.6589015,6.29848624 31.1887361,5.77898836 C31.7189748,5.26110508 32.0443119,4.53493826 32.0443119,3.70906984 C32.0443119,2.87755031 31.719379,2.14653969 31.1899486,1.62583086 C30.6589015,1.10391108 29.9245694,0.791485778 29.1081958,0.791485778 Z M27.8848477,2.37783129 C28.1822987,2.05047093 28.6009933,1.85227865 29.1081958,1.85227865 C29.6158024,1.85227865 30.0340928,2.05006728 30.3319479,2.37783129 C30.6293989,2.70680625 30.8035856,3.17342595 30.8035856,3.70906984 C30.7987358,4.76703716 30.1185592,5.54608216 29.1081958,5.54850406 C28.0982365,5.54608216 27.4164433,4.76703716 27.4124018,3.70906984 C27.4124018,3.17342595 27.5869926,2.70680625 27.8848477,2.37783129 Z" id="Shape"></path>
                            <path d="M3.3718146,0.791485778 C2.54776219,0.791485778 1.80938861,1.10391108 1.2775333,1.62583086 C0.744869708,2.14653969 0.420340978,2.87755031 0.420340978,3.70906984 C0.420340978,4.53493826 0.745273854,5.26070143 1.2775333,5.77898836 C1.80938861,6.29848624 2.54776219,6.60848963 3.3718146,6.60848963 C4.18737995,6.60848963 4.92332867,6.29848624 5.4527591,5.77898836 C5.98421026,5.26110508 6.30954728,4.53493826 6.30954728,3.70906984 C6.30954728,2.87755031 5.98421026,2.14653969 5.4527591,1.62583086 C4.92332867,1.10391108 4.18737995,0.791485778 3.3718146,0.791485778 Z M2.14846657,2.37783129 C2.44632171,2.05047093 2.86542045,1.85227865 3.3718146,1.85227865 C3.88103776,1.85227865 4.29892407,2.05006728 4.59677921,2.37783129 C4.89261362,2.70680625 5.06801271,3.17342595 5.06801271,3.70906984 C5.06316296,4.76703716 4.38217802,5.54608216 3.3718146,5.54850406 C2.36225947,5.54608216 1.68087038,4.76703716 1.67561649,3.70906984 C1.67561649,3.17342595 1.85182387,2.70680625 2.14846657,2.37783129 Z" id="Shape"></path>
                            <path d="M11.7731885,1.62583086 C11.2429498,1.10391108 10.5070011,0.791485778 9.69143572,0.791485778 C8.86738331,0.791485778 8.12900972,1.10391108 7.59634613,1.62583086 C7.06408668,2.14653969 6.7391538,2.87755031 6.7391538,3.70906984 L6.7391538,6.60808598 L7.99564175,6.60808598 L7.99564175,3.70906984 C7.99564175,3.17342595 8.1706367,2.70680625 8.46768354,2.37783129 C8.76473039,2.05047093 9.18423328,1.85227865 9.69143572,1.85227865 C10.1998506,1.85227865 10.6177369,2.05006728 10.9164003,2.37783129 C11.2114264,2.70680625 11.3872297,3.17342595 11.3872297,3.70906984 L11.3872297,6.60808598 L12.6283601,6.60808598 L12.6283601,3.70906984 C12.6283601,2.87714666 12.3038314,2.14653969 11.7731885,1.62583086 Z" id="Shape"></path>
                            <path d="M41.1905257,1.54873366 C40.6590745,1.02681388 40.0767011,0.791485778 39.2526487,0.791485778 C38.4285962,0.791485778 37.8466269,1.02681388 37.3147716,1.54873366 C37.2755695,1.58627313 37.2391964,1.62663816 37.2028233,1.66781049 C37.1676627,1.62663816 37.1316938,1.58627313 37.0924917,1.54873366 C36.5610405,1.02681388 35.9782629,0.791485778 35.1542105,0.791485778 C34.3305622,0.791485778 33.7481887,1.02681388 33.2155251,1.54873366 C32.6832657,2.07024979 32.4767474,2.87714666 32.4767474,3.70906984 L32.4767474,6.60808598 L33.7324271,6.60808598 L33.7324271,3.70906984 C33.7324271,2.89046712 33.796282,2.68581643 34.0743341,2.33786991 C34.2650907,2.10011991 34.6474122,1.85227865 35.1542105,1.85227865 C35.6610088,1.85227865 36.0437344,2.09971626 36.2340869,2.33786991 C36.5125431,2.68581643 36.5759939,2.89046712 36.5759939,3.70906984 L36.5759939,6.60808598 L37.8316735,6.60808598 L37.8316735,3.70906984 C37.8316735,2.89046712 37.8955285,2.68581643 38.1731764,2.33786991 C38.3643371,2.10011991 38.7462545,1.85227865 39.2530528,1.85227865 C39.7602552,1.85227865 40.143385,2.09971626 40.3337375,2.33786991 C40.6109812,2.68581643 40.6752403,2.89046712 40.6752403,3.70906984 L40.6752403,6.60808598 L41.93092,6.60808598 L41.93092,3.70906984 C41.9305159,2.87714666 41.7244017,2.07024979 41.1905257,1.54873366 Z" id="Shape"></path>
                            <ellipse id="Oval" cx="19.8948938" cy="5.96224557" rx="1" ry="1"></ellipse>
                        </g>
                    </g>
                    <path d="M0,219.2228 L367.400553,219.2228 L367.400553,239.942982 C367.400553,243.557018 364.487714,246.486198 360.893839,246.486198 L6.50671456,246.486198 C2.91283922,246.486198 0,243.557018 0,239.942982 L0,219.2228 Z" id="Shape" fill="#E9EBEF" fill-rule="nonzero"></path>
                    <ellipse id="Oval" fill="#454957" fill-rule="nonzero" cx="183.700819" cy="232.854499" rx="5.75952684" ry="5.79183621"></ellipse>
                    <polygon id="Shape" fill="#E9EBEF" fill-rule="nonzero" points="145.557374 246.615972 138.30564 285.701869 129.603994 285.701869 129.603994 289.202489 237.796559 289.202489 237.796559 286.285306 231.126092 286.285306 221.296616 246.615972"></polygon>
                    <polygon id="Shape" fill="#D7D9DD" fill-rule="nonzero" points="145.557374 246.615972 144.069505 254.637954 223.32671 254.811349 221.296616 246.615972"></polygon>
                </g>
                <g id="Mobile" transform="translate(23.000000, 174.000000)">
                    <path d="M424.880731,14 L380.971577,14 C375.10187,14 373,16.1102885 373,22.0024459 L373,107.009842 C373,112.902935 375.100934,115.013223 380.971577,115.013223 L424.880731,115.013223 C430.750439,115.013223 432.852308,112.902935 432.852308,107.009842 L432.852308,22.0024459 C432.852308,16.1102885 430.750439,14 424.880731,14 L424.880731,14 Z" id="Fill-1" fill="#393939"></path>
                    <polygon id="Path" fill="#FFFFFF" points="376 96.4432182 430.25387 96.4432182 430.25387 30 376 30"></polygon>
                    <g id="Group-17" transform="translate(385.000000, 49.327148)" fill-rule="nonzero" fill="#9B9B9B" opacity="0.899999976">
                        <polygon id="XMLID_9_-Copy-9" points="0.182866701 0.259950009 32.0533342 0.259950009 32.0533342 3.44089522 0.182866701 3.44089522"></polygon>
                        <rect id="XMLID_9_-Copy-10" x="0.182866701" y="6.07514852" width="35.8704675" height="1.6304758"></rect>
                    </g>
                    <polygon id="Rectangle-33" fill="#67A51D" points="376 30 430.25387 29.9433594 430.25387 43 376 42.3354678"></polygon>
                    <polygon id="Rectangle-33" fill="#67A51D" points="0 -4.26325641e-14 136.435719 -1.89326617e-29 136.435719 18.1047313 0 17.1047313"></polygon>
                    <g id="Logo-one.com-[Converted]-Copy" transform="translate(7.000000, 5.000000)" fill="#FFFFFF">
                        <g id="Layer_1">
                            <path d="M16.0276268,0.791485778 C15.2189319,0.791485778 14.4882371,1.10391108 13.9608274,1.62583086 C13.431397,2.14653969 13.1064641,2.87755031 13.1064641,3.70906984 C13.1064641,4.52969081 13.4144228,5.25908682 13.9503196,5.77898836 C14.4850039,6.30010084 15.2472221,6.60848963 16.1407875,6.60848963 C17.2198556,6.61091154 17.990965,6.238746 18.4993799,5.62923411 L18.5628307,5.55334786 L17.7929338,4.80296203 L17.7177627,4.88651764 C17.373835,5.27361823 16.9280627,5.54648581 16.1246217,5.54890771 C15.6246939,5.54890771 15.2225692,5.40763012 14.9255224,5.15211951 C14.6551491,4.91840601 14.4744961,4.58862375 14.3900298,4.17367128 L18.847349,4.17367128 L18.8489656,4.06751127 L18.8505822,3.98314836 C18.8505822,3.06847688 18.5842504,2.27126762 18.0964469,1.69929521 C17.6086435,1.12974469 16.8949228,0.791485778 16.0276268,0.791485778 Z M14.9424965,2.2317099 C15.2205485,1.99032704 15.5858959,1.8526823 16.0276268,1.8526823 C16.5077515,1.85470056 16.8613787,2.00405115 17.1172027,2.25229606 C17.3463531,2.4743037 17.4922496,2.77905964 17.5674206,3.13023537 L14.4259987,3.13023537 C14.5165273,2.75685888 14.6923305,2.44887373 14.9424965,2.2317099 Z" id="Shape"></path>
                            <path d="M25.2574987,4.90185635 C24.9305451,5.25747222 24.4621406,5.5319544 23.7605443,5.5319544 C23.2703159,5.5319544 22.8726369,5.33658767 22.5905434,5.01245652 C22.3092582,4.68671076 22.1447711,4.23139327 22.1447711,3.70906984 C22.1447711,3.17826975 22.3096624,2.71851211 22.5905434,2.39034445 C22.8722327,2.06540599 23.2703159,1.86882831 23.7605443,1.86882831 C24.3510006,1.86882831 24.8064725,2.0839739 25.1273639,2.43474597 L25.1984935,2.51345777 L26.0265873,1.76710845 L25.9526287,1.68839665 C25.4316854,1.11521328 24.7260475,0.791082128 23.7605443,0.791082128 C22.9514452,0.791082128 22.2328748,1.10350743 21.7167811,1.62623451 C21.2014958,2.14613604 20.8886873,2.87674301 20.8886873,3.70866619 C20.8886873,4.53211271 21.2010916,5.25868317 21.7167811,5.77858471 C22.2324706,6.29485338 22.9514452,6.60808598 23.7605443,6.60808598 C24.7927315,6.61050789 25.561416,6.25529566 26.0859967,5.62883046 L26.153489,5.54608216 L25.3286283,4.82395185 L25.2574987,4.90185635 Z" id="Shape"></path>
                            <path d="M29.1081958,0.791485778 C28.2845475,0.791485778 27.5453656,1.10391108 27.012702,1.62583086 C26.4808467,2.14653969 26.1555097,2.87755031 26.1555097,3.70906984 C26.1555097,4.53493826 26.4824633,5.26070143 27.012702,5.77898836 C27.5453656,6.29848624 28.2845475,6.60848963 29.1081958,6.60848963 C29.9245694,6.60848963 30.6589015,6.29848624 31.1887361,5.77898836 C31.7189748,5.26110508 32.0443119,4.53493826 32.0443119,3.70906984 C32.0443119,2.87755031 31.719379,2.14653969 31.1899486,1.62583086 C30.6589015,1.10391108 29.9245694,0.791485778 29.1081958,0.791485778 Z M27.8848477,2.37783129 C28.1822987,2.05047093 28.6009933,1.85227865 29.1081958,1.85227865 C29.6158024,1.85227865 30.0340928,2.05006728 30.3319479,2.37783129 C30.6293989,2.70680625 30.8035856,3.17342595 30.8035856,3.70906984 C30.7987358,4.76703716 30.1185592,5.54608216 29.1081958,5.54850406 C28.0982365,5.54608216 27.4164433,4.76703716 27.4124018,3.70906984 C27.4124018,3.17342595 27.5869926,2.70680625 27.8848477,2.37783129 Z" id="Shape"></path>
                            <path d="M3.3718146,0.791485778 C2.54776219,0.791485778 1.80938861,1.10391108 1.2775333,1.62583086 C0.744869708,2.14653969 0.420340978,2.87755031 0.420340978,3.70906984 C0.420340978,4.53493826 0.745273854,5.26070143 1.2775333,5.77898836 C1.80938861,6.29848624 2.54776219,6.60848963 3.3718146,6.60848963 C4.18737995,6.60848963 4.92332867,6.29848624 5.4527591,5.77898836 C5.98421026,5.26110508 6.30954728,4.53493826 6.30954728,3.70906984 C6.30954728,2.87755031 5.98421026,2.14653969 5.4527591,1.62583086 C4.92332867,1.10391108 4.18737995,0.791485778 3.3718146,0.791485778 Z M2.14846657,2.37783129 C2.44632171,2.05047093 2.86542045,1.85227865 3.3718146,1.85227865 C3.88103776,1.85227865 4.29892407,2.05006728 4.59677921,2.37783129 C4.89261362,2.70680625 5.06801271,3.17342595 5.06801271,3.70906984 C5.06316296,4.76703716 4.38217802,5.54608216 3.3718146,5.54850406 C2.36225947,5.54608216 1.68087038,4.76703716 1.67561649,3.70906984 C1.67561649,3.17342595 1.85182387,2.70680625 2.14846657,2.37783129 Z" id="Shape"></path>
                            <path d="M11.7731885,1.62583086 C11.2429498,1.10391108 10.5070011,0.791485778 9.69143572,0.791485778 C8.86738331,0.791485778 8.12900972,1.10391108 7.59634613,1.62583086 C7.06408668,2.14653969 6.7391538,2.87755031 6.7391538,3.70906984 L6.7391538,6.60808598 L7.99564175,6.60808598 L7.99564175,3.70906984 C7.99564175,3.17342595 8.1706367,2.70680625 8.46768354,2.37783129 C8.76473039,2.05047093 9.18423328,1.85227865 9.69143572,1.85227865 C10.1998506,1.85227865 10.6177369,2.05006728 10.9164003,2.37783129 C11.2114264,2.70680625 11.3872297,3.17342595 11.3872297,3.70906984 L11.3872297,6.60808598 L12.6283601,6.60808598 L12.6283601,3.70906984 C12.6283601,2.87714666 12.3038314,2.14653969 11.7731885,1.62583086 Z" id="Shape"></path>
                            <path d="M41.1905257,1.54873366 C40.6590745,1.02681388 40.0767011,0.791485778 39.2526487,0.791485778 C38.4285962,0.791485778 37.8466269,1.02681388 37.3147716,1.54873366 C37.2755695,1.58627313 37.2391964,1.62663816 37.2028233,1.66781049 C37.1676627,1.62663816 37.1316938,1.58627313 37.0924917,1.54873366 C36.5610405,1.02681388 35.9782629,0.791485778 35.1542105,0.791485778 C34.3305622,0.791485778 33.7481887,1.02681388 33.2155251,1.54873366 C32.6832657,2.07024979 32.4767474,2.87714666 32.4767474,3.70906984 L32.4767474,6.60808598 L33.7324271,6.60808598 L33.7324271,3.70906984 C33.7324271,2.89046712 33.796282,2.68581643 34.0743341,2.33786991 C34.2650907,2.10011991 34.6474122,1.85227865 35.1542105,1.85227865 C35.6610088,1.85227865 36.0437344,2.09971626 36.2340869,2.33786991 C36.5125431,2.68581643 36.5759939,2.89046712 36.5759939,3.70906984 L36.5759939,6.60808598 L37.8316735,6.60808598 L37.8316735,3.70906984 C37.8316735,2.89046712 37.8955285,2.68581643 38.1731764,2.33786991 C38.3643371,2.10011991 38.7462545,1.85227865 39.2530528,1.85227865 C39.7602552,1.85227865 40.143385,2.09971626 40.3337375,2.33786991 C40.6109812,2.68581643 40.6752403,2.89046712 40.6752403,3.70906984 L40.6752403,6.60808598 L41.93092,6.60808598 L41.93092,3.70906984 C41.9305159,2.87714666 41.7244017,2.07024979 41.1905257,1.54873366 Z" id="Shape"></path>
                            <ellipse id="Oval" cx="19.8948938" cy="5.96224557" rx="1" ry="1"></ellipse>
                        </g>
                    </g>
                    <path d="M412.287285,102.851002 L393.579054,102.851002 C392.545424,102.851002 391.708231,103.688195 391.708231,104.721825 L391.708231,106.592648 C391.708231,107.626278 392.545424,108.463471 393.579054,108.463471 L412.287285,108.463471 C413.320915,108.463471 414.158108,107.626278 414.158108,106.592648 L414.158108,104.721825 C414.158108,103.688195 413.320915,102.851002 412.287285,102.851002" id="Fill-3" fill="#FFFFFF"></path>
                    <path d="M414.16952,21.4701967 L391.668195,21.4701967 C391.352026,21.4701967 391.094788,21.7264994 391.094788,22.043604 L391.094788,22.7386147 C391.094788,23.0547839 391.351091,23.312022 391.668195,23.312022 L414.170456,23.312022 C414.486625,23.312022 414.743863,23.0557193 414.743863,22.7386147 L414.743863,22.043604 C414.742928,21.7264994 414.486625,21.4701967 414.16952,21.4701967" id="Fill-4" fill="#FFFFFF"></path>
                </g>
                <g id="Group-15" transform="translate(0.000000, 170.000000)">
                    <g id="Tablet">
                        <rect id="Rectangle-5" fill="#FFFFFF" x="6.20162357" y="1.5461348" width="167.443836" height="116.733178"></rect>
                        <path d="M166.916698,0 L11.3807545,0 C3.0000354,0 0,3.00568605 0,11.401198 L0,107.64577 C0,116.040509 3.0000354,119.046195 11.3807545,119.046195 L166.916698,119.046195 C175.297417,119.046195 178.296678,116.040509 178.296678,107.64577 L178.296678,11.401198 C178.295902,3.00568605 175.296642,0 166.916698,0 L166.916698,0 Z" id="Fill-1" fill="#2C4A58"></path>
                        <polygon id="Path" fill="#FFFFFF" points="23 116.094773 159.435719 116.094773 159.435719 4 23 4"></polygon>
                        <g id="Group-16" transform="translate(23.000000, 21.000000)">
                            <g id="mac-copy" fill="#F8FBF3">
                                <rect id="Rectangle-33-Copy" x="0" y="0.14030847" width="39.7945606" height="94.8317868"></rect>
                            </g>
                            <rect id="Rectangle-35-Copy-3" fill="#6990FF" x="5.56640625" y="6.26220703" width="27.9777755" height="5.99523761"></rect>
                            <polygon id="Rectangle-35-Copy-4" fill="#9B9B9B" points="5.56640625 16.003418 33.5441818 16.003418 33.5441818 18.6086415 5.56640625 18.6086415"></polygon>
                            <polygon id="Rectangle-35-Copy-5" fill="#9B9B9B" points="5.56640625 22.265625 27.5489442 22.265625 27.5489442 24.8708485 5.56640625 24.8708485"></polygon>
                            <polygon id="Rectangle-37-Copy-6" fill="#D8D8D8" points="47.3144531 6.26220703 127.250955 6.26220703 127.250955 9.1700423 47.3144531 9.1700423"></polygon>
                            <polygon id="Rectangle-37-Copy-7" fill="#D8D8D8" points="48.0102539 14.6118164 111.959455 14.6118164 111.959455 17.5196517 48.0102539 17.5196517"></polygon>
                            <g id="Group-12-Copy" transform="translate(41.052246, 22.265625)">
                                <polygon id="Rectangle-37-Copy-4" fill="#E4EFD2" points="0 0.291488527 93.3346959 0.291488527 93.3346959 11.1573316 0 11.1573316"></polygon>
                                <polygon id="Rectangle-37-Copy-5" fill="#919191" points="6.95800781 3.77049243 70.907209 3.77049243 70.907209 6.6783277 6.95800781 6.6783277"></polygon>
                                <g id="Group-10" transform="translate(6.958008, 15.332136)" fill="#D8D8D8">
                                    <polygon id="Rectangle-37-Copy-2" points="0 0 75.9396764 0 75.9396764 2.90783527 6.39488462e-14 2.90783527"></polygon>
                                    <polygon id="Rectangle-37-Copy-3" points="0 7.92077801 48.1076451 7.92077801 48.1076451 10.8286133 6.39488462e-14 10.8286133"></polygon>
                                </g>
                            </g>
                        </g>
                        <polygon id="Rectangle-33" fill="#67A51D" points="23 4 159.435719 4 159.435719 22.1047313 23 21.1047313"></polygon>
                        <g id="Logo-one.com-[Converted]-Copy" transform="translate(30.000000, 9.000000)" fill="#FFFFFF">
                            <g id="Layer_1">
                                <path d="M16.0276268,0.791485778 C15.2189319,0.791485778 14.4882371,1.10391108 13.9608274,1.62583086 C13.431397,2.14653969 13.1064641,2.87755031 13.1064641,3.70906984 C13.1064641,4.52969081 13.4144228,5.25908682 13.9503196,5.77898836 C14.4850039,6.30010084 15.2472221,6.60848963 16.1407875,6.60848963 C17.2198556,6.61091154 17.990965,6.238746 18.4993799,5.62923411 L18.5628307,5.55334786 L17.7929338,4.80296203 L17.7177627,4.88651764 C17.373835,5.27361823 16.9280627,5.54648581 16.1246217,5.54890771 C15.6246939,5.54890771 15.2225692,5.40763012 14.9255224,5.15211951 C14.6551491,4.91840601 14.4744961,4.58862375 14.3900298,4.17367128 L18.847349,4.17367128 L18.8489656,4.06751127 L18.8505822,3.98314836 C18.8505822,3.06847688 18.5842504,2.27126762 18.0964469,1.69929521 C17.6086435,1.12974469 16.8949228,0.791485778 16.0276268,0.791485778 Z M14.9424965,2.2317099 C15.2205485,1.99032704 15.5858959,1.8526823 16.0276268,1.8526823 C16.5077515,1.85470056 16.8613787,2.00405115 17.1172027,2.25229606 C17.3463531,2.4743037 17.4922496,2.77905964 17.5674206,3.13023537 L14.4259987,3.13023537 C14.5165273,2.75685888 14.6923305,2.44887373 14.9424965,2.2317099 Z" id="Shape"></path>
                                <path d="M25.2574987,4.90185635 C24.9305451,5.25747222 24.4621406,5.5319544 23.7605443,5.5319544 C23.2703159,5.5319544 22.8726369,5.33658767 22.5905434,5.01245652 C22.3092582,4.68671076 22.1447711,4.23139327 22.1447711,3.70906984 C22.1447711,3.17826975 22.3096624,2.71851211 22.5905434,2.39034445 C22.8722327,2.06540599 23.2703159,1.86882831 23.7605443,1.86882831 C24.3510006,1.86882831 24.8064725,2.0839739 25.1273639,2.43474597 L25.1984935,2.51345777 L26.0265873,1.76710845 L25.9526287,1.68839665 C25.4316854,1.11521328 24.7260475,0.791082128 23.7605443,0.791082128 C22.9514452,0.791082128 22.2328748,1.10350743 21.7167811,1.62623451 C21.2014958,2.14613604 20.8886873,2.87674301 20.8886873,3.70866619 C20.8886873,4.53211271 21.2010916,5.25868317 21.7167811,5.77858471 C22.2324706,6.29485338 22.9514452,6.60808598 23.7605443,6.60808598 C24.7927315,6.61050789 25.561416,6.25529566 26.0859967,5.62883046 L26.153489,5.54608216 L25.3286283,4.82395185 L25.2574987,4.90185635 Z" id="Shape"></path>
                                <path d="M29.1081958,0.791485778 C28.2845475,0.791485778 27.5453656,1.10391108 27.012702,1.62583086 C26.4808467,2.14653969 26.1555097,2.87755031 26.1555097,3.70906984 C26.1555097,4.53493826 26.4824633,5.26070143 27.012702,5.77898836 C27.5453656,6.29848624 28.2845475,6.60848963 29.1081958,6.60848963 C29.9245694,6.60848963 30.6589015,6.29848624 31.1887361,5.77898836 C31.7189748,5.26110508 32.0443119,4.53493826 32.0443119,3.70906984 C32.0443119,2.87755031 31.719379,2.14653969 31.1899486,1.62583086 C30.6589015,1.10391108 29.9245694,0.791485778 29.1081958,0.791485778 Z M27.8848477,2.37783129 C28.1822987,2.05047093 28.6009933,1.85227865 29.1081958,1.85227865 C29.6158024,1.85227865 30.0340928,2.05006728 30.3319479,2.37783129 C30.6293989,2.70680625 30.8035856,3.17342595 30.8035856,3.70906984 C30.7987358,4.76703716 30.1185592,5.54608216 29.1081958,5.54850406 C28.0982365,5.54608216 27.4164433,4.76703716 27.4124018,3.70906984 C27.4124018,3.17342595 27.5869926,2.70680625 27.8848477,2.37783129 Z" id="Shape"></path>
                                <path d="M3.3718146,0.791485778 C2.54776219,0.791485778 1.80938861,1.10391108 1.2775333,1.62583086 C0.744869708,2.14653969 0.420340978,2.87755031 0.420340978,3.70906984 C0.420340978,4.53493826 0.745273854,5.26070143 1.2775333,5.77898836 C1.80938861,6.29848624 2.54776219,6.60848963 3.3718146,6.60848963 C4.18737995,6.60848963 4.92332867,6.29848624 5.4527591,5.77898836 C5.98421026,5.26110508 6.30954728,4.53493826 6.30954728,3.70906984 C6.30954728,2.87755031 5.98421026,2.14653969 5.4527591,1.62583086 C4.92332867,1.10391108 4.18737995,0.791485778 3.3718146,0.791485778 Z M2.14846657,2.37783129 C2.44632171,2.05047093 2.86542045,1.85227865 3.3718146,1.85227865 C3.88103776,1.85227865 4.29892407,2.05006728 4.59677921,2.37783129 C4.89261362,2.70680625 5.06801271,3.17342595 5.06801271,3.70906984 C5.06316296,4.76703716 4.38217802,5.54608216 3.3718146,5.54850406 C2.36225947,5.54608216 1.68087038,4.76703716 1.67561649,3.70906984 C1.67561649,3.17342595 1.85182387,2.70680625 2.14846657,2.37783129 Z" id="Shape"></path>
                                <path d="M11.7731885,1.62583086 C11.2429498,1.10391108 10.5070011,0.791485778 9.69143572,0.791485778 C8.86738331,0.791485778 8.12900972,1.10391108 7.59634613,1.62583086 C7.06408668,2.14653969 6.7391538,2.87755031 6.7391538,3.70906984 L6.7391538,6.60808598 L7.99564175,6.60808598 L7.99564175,3.70906984 C7.99564175,3.17342595 8.1706367,2.70680625 8.46768354,2.37783129 C8.76473039,2.05047093 9.18423328,1.85227865 9.69143572,1.85227865 C10.1998506,1.85227865 10.6177369,2.05006728 10.9164003,2.37783129 C11.2114264,2.70680625 11.3872297,3.17342595 11.3872297,3.70906984 L11.3872297,6.60808598 L12.6283601,6.60808598 L12.6283601,3.70906984 C12.6283601,2.87714666 12.3038314,2.14653969 11.7731885,1.62583086 Z" id="Shape"></path>
                                <path d="M41.1905257,1.54873366 C40.6590745,1.02681388 40.0767011,0.791485778 39.2526487,0.791485778 C38.4285962,0.791485778 37.8466269,1.02681388 37.3147716,1.54873366 C37.2755695,1.58627313 37.2391964,1.62663816 37.2028233,1.66781049 C37.1676627,1.62663816 37.1316938,1.58627313 37.0924917,1.54873366 C36.5610405,1.02681388 35.9782629,0.791485778 35.1542105,0.791485778 C34.3305622,0.791485778 33.7481887,1.02681388 33.2155251,1.54873366 C32.6832657,2.07024979 32.4767474,2.87714666 32.4767474,3.70906984 L32.4767474,6.60808598 L33.7324271,6.60808598 L33.7324271,3.70906984 C33.7324271,2.89046712 33.796282,2.68581643 34.0743341,2.33786991 C34.2650907,2.10011991 34.6474122,1.85227865 35.1542105,1.85227865 C35.6610088,1.85227865 36.0437344,2.09971626 36.2340869,2.33786991 C36.5125431,2.68581643 36.5759939,2.89046712 36.5759939,3.70906984 L36.5759939,6.60808598 L37.8316735,6.60808598 L37.8316735,3.70906984 C37.8316735,2.89046712 37.8955285,2.68581643 38.1731764,2.33786991 C38.3643371,2.10011991 38.7462545,1.85227865 39.2530528,1.85227865 C39.7602552,1.85227865 40.143385,2.09971626 40.3337375,2.33786991 C40.6109812,2.68581643 40.6752403,2.89046712 40.6752403,3.70906984 L40.6752403,6.60808598 L41.93092,6.60808598 L41.93092,3.70906984 C41.9305159,2.87714666 41.7244017,2.07024979 41.1905257,1.54873366 Z" id="Shape"></path>
                                <ellipse id="Oval" cx="19.8948938" cy="5.96224557" rx="1" ry="1"></ellipse>
                            </g>
                        </g>
                        <path d="M11.9551023,54.8562443 C15.1458376,54.8562443 17.7326899,57.4189627 17.7326899,60.5815815 C17.7326899,63.7434271 15.1458376,66.3069186 11.9551023,66.3069186 C8.76436699,66.3069186 6.17751476,63.7434271 6.17751476,60.5815815 C6.17751476,57.4189627 8.76436699,54.8562443 11.9551023,54.8562443" id="Fill-3" fill="#FFFFFF"></path>
                        <path d="M166.993366,44.3470114 L166.294908,44.3470114 C166.060022,44.3470114 165.869322,44.537186 165.869322,44.7714255 L165.869322,74.3134231 C165.869322,74.5476625 166.060022,74.7378371 166.294908,74.7378371 L166.993366,74.7378371 C167.228252,74.7378371 167.418952,74.5476625 167.418952,74.3134231 L167.418952,44.7714255 C167.419728,44.537186 167.229028,44.3470114 166.993366,44.3470114" id="Fill-4" fill="#FFFFFF"></path>
                    </g>
                    <path d="M125.515944,70.7921305 C125.515944,71.4445045 124.991926,71.9730948 124.345764,71.9730948 C123.699348,71.9730948 123.175585,71.4445045 123.175585,70.7921305 C123.175585,70.1400138 123.699348,69.6111662 124.345764,69.6111662 C124.991926,69.6111662 125.515944,70.1400138 125.515944,70.7921305" id="Fill-6-Copy" fill="#FFFFFF"></path>
                    <path d="M125.002329,68.7234346 L120.36343,68.7234346 C120.087014,68.7234346 119.845022,68.5366009 119.772858,68.2674162 L118.620784,63.9676665 L117.967482,63.9676665 C117.629612,63.9676665 117.355745,63.691276 117.355745,63.3502916 C117.355745,63.0095645 117.629612,62.733174 117.967482,62.733174 L119.088957,62.733174 C119.365374,62.733174 119.607365,62.9202651 119.679529,63.1891925 L119.887097,63.9645783 L126.225803,63.9645783 C126.42419,63.9645783 126.609827,64.061598 126.724831,64.2247559 C126.839579,64.3879137 126.868394,64.5971366 126.803115,64.7860292 L125.579641,68.3101357 C125.493707,68.5577033 125.26217,68.7234346 125.002329,68.7234346 L125.002329,68.7234346 Z" id="Fill-8-Copy" fill="#FFFFFF"></path>
                    <path d="M121.81241,70.7921305 C121.81241,71.4445045 121.288392,71.9730948 120.64223,71.9730948 C119.995814,71.9730948 119.472051,71.4445045 119.472051,70.7921305 C119.472051,70.1400138 119.995814,69.6111662 120.64223,69.6111662 C121.288392,69.6111662 121.81241,70.1400138 121.81241,70.7921305" id="Fill-10-Copy" fill="#FFFFFF"></path>
                    <g id="Logo-one.com-[Converted]-Copy" transform="translate(404.048210, 37.605864)" fill="#FFFFFF">
                        <g id="Layer_1">
                            <path d="M11.5586892,0.570798052 C10.9754805,0.570798052 10.4485232,0.796110694 10.0681696,1.17250507 C9.68635878,1.54802614 9.45202601,2.07521115 9.45202601,2.67488045 C9.45202601,3.26669002 9.67411751,3.79271062 10.0605917,4.16764948 C10.4461915,4.54346166 10.9958826,4.76586328 11.6402977,4.76586328 C12.4184923,4.76760989 12.9745954,4.49921421 13.3412504,4.05965079 L13.3870095,4.00492369 L12.8317807,3.4637658 L12.7775694,3.52402384 C12.5295381,3.80319027 12.2080592,3.99997496 11.6286393,4.00172157 C11.268105,4.00172157 10.9781036,3.89983601 10.7638815,3.71556869 C10.5688956,3.54702086 10.4386136,3.30919085 10.3776987,3.0099384 L13.5921964,3.0099384 L13.5933622,2.93337868 L13.594528,2.87253844 C13.594528,2.21290221 13.4024568,1.63797654 13.0506662,1.22548556 C12.6988755,0.814741197 12.1841595,0.570798052 11.5586892,0.570798052 Z M10.7761227,1.60944858 C10.9766463,1.43536982 11.2401249,1.33610417 11.5586892,1.33610417 C11.9049421,1.33755968 12.1599685,1.44526727 12.3444618,1.62429476 C12.5097189,1.78440064 12.6149354,2.00418236 12.6691468,2.25744075 L10.4036386,2.25744075 C10.4689253,1.98817177 10.5957098,1.76606124 10.7761227,1.60944858 Z" id="Shape"></path>
                            <path d="M18.2150222,3.5350857 C17.9792322,3.79154621 17.6414316,3.9894953 17.1354593,3.9894953 C16.78192,3.9894953 16.4951247,3.84860213 16.2916865,3.61484754 C16.0888313,3.37992854 15.9702076,3.05156593 15.9702076,2.67488045 C15.9702076,2.29208184 16.0891227,1.96051711 16.2916865,1.72385151 C16.4948332,1.48951472 16.78192,1.34774824 17.1354593,1.34774824 C17.5612805,1.34774824 17.8897544,1.50290539 18.1211726,1.75587269 L18.1724693,1.8126375 L18.7696681,1.27439063 L18.7163312,1.21762582 C18.3406409,0.804261539 17.8317541,0.57050695 17.1354593,0.57050695 C16.5519591,0.57050695 16.0337456,0.795819592 15.6615529,1.17279617 C15.2899431,1.54773504 15.0643541,2.07462894 15.0643541,2.67458935 C15.0643541,3.26843663 15.2896516,3.79241952 15.6615529,4.16735838 C16.0334541,4.53967734 16.5519591,4.76557218 17.1354593,4.76557218 C17.8798448,4.76731879 18.4341992,4.51114938 18.8125125,4.05935969 L18.8611861,3.99968386 L18.266319,3.47890309 L18.2150222,3.5350857 Z" id="Shape"></path>
                            <path d="M20.9920404,0.570798052 C20.3980477,0.570798052 19.8649698,0.796110694 19.4808272,1.17250507 C19.0972676,1.54802614 18.8626434,2.07521115 18.8626434,2.67488045 C18.8626434,3.27047434 19.0984335,3.79387502 19.4808272,4.16764948 C19.8649698,4.54229725 20.3980477,4.76586328 20.9920404,4.76586328 C21.5807869,4.76586328 22.1103673,4.54229725 22.4924696,4.16764948 C22.8748634,3.79416612 23.1094876,3.27047434 23.1094876,2.67488045 C23.1094876,2.07521115 22.8751548,1.54802614 22.493344,1.17250507 C22.1103673,0.796110694 21.5807869,0.570798052 20.9920404,0.570798052 Z M20.109795,1.71482736 C20.3243086,1.47874396 20.6262598,1.33581307 20.9920404,1.33581307 C21.3581125,1.33581307 21.6597722,1.47845286 21.8745773,1.71482736 C22.0890908,1.95207517 22.2147095,2.28858862 22.2147095,2.67488045 C22.211212,3.43785776 21.7206871,3.99968386 20.9920404,4.00143047 C20.2636852,3.99968386 19.7719944,3.43785776 19.7690799,2.67488045 C19.7690799,2.28858862 19.89499,1.95207517 20.109795,1.71482736 Z" id="Shape"></path>
                            <path d="M2.43166113,0.570798052 C1.83737691,0.570798052 1.30488193,0.796110694 0.921322329,1.17250507 C0.537179808,1.54802614 0.3031385,2.07521115 0.3031385,2.67488045 C0.3031385,3.27047434 0.537471267,3.79387502 0.921322329,4.16764948 C1.30488193,4.54229725 1.83737691,4.76586328 2.43166113,4.76586328 C3.01982472,4.76586328 3.55057095,4.54229725 3.9323818,4.16764948 C4.31564995,3.79416612 4.55027417,3.27047434 4.55027417,2.67488045 C4.55027417,2.07521115 4.31564995,1.54802614 3.9323818,1.17250507 C3.55057095,0.796110694 3.01982472,0.570798052 2.43166113,0.570798052 Z M1.54941575,1.71482736 C1.76422079,1.47874396 2.06646343,1.33581307 2.43166113,1.33581307 C2.79889905,1.33581307 3.10026731,1.47845286 3.31507235,1.71482736 C3.52842009,1.95207517 3.65491315,2.28858862 3.65491315,2.67488045 C3.65141565,3.43785776 3.1603078,3.99968386 2.43166113,4.00143047 C1.70359739,3.99968386 1.21219808,3.43785776 1.20840911,2.67488045 C1.20840911,2.28858862 1.33548509,1.95207517 1.54941575,1.71482736 Z" id="Shape"></path>
                            <path d="M8.49050387,1.17250507 C8.1081101,0.796110694 7.57736387,0.570798052 6.98920029,0.570798052 C6.39491607,0.570798052 5.86242109,0.796110694 5.47827856,1.17250507 C5.0944275,1.54802614 4.86009473,2.07521115 4.86009473,2.67488045 L4.86009473,4.76557218 L5.76623973,4.76557218 L5.76623973,2.67488045 C5.76623973,2.28858862 5.89244133,1.95207517 6.10666345,1.71482736 C6.32088557,1.47874396 6.62341966,1.33581307 6.98920029,1.33581307 C7.35585529,1.33581307 7.65722355,1.47845286 7.8726115,1.71482736 C8.08537633,1.95207517 8.21216085,2.28858862 8.21216085,2.67488045 L8.21216085,4.76557218 L9.10723041,4.76557218 L9.10723041,2.67488045 C9.10723041,2.07492005 8.8731891,1.54802614 8.49050387,1.17250507 Z" id="Shape"></path>
                            <path d="M29.7054887,1.11690466 C29.3222205,0.740510287 28.9022286,0.570798052 28.3079444,0.570798052 C27.7136602,0.570798052 27.2939597,0.740510287 26.9104001,1.11690466 C26.8821286,1.14397711 26.8558973,1.17308727 26.829666,1.20277964 C26.8043091,1.17308727 26.7783693,1.14397711 26.7500978,1.11690466 C26.3668297,0.740510287 25.9465463,0.570798052 25.352262,0.570798052 C24.7582693,0.570798052 24.3382774,0.740510287 23.9541348,1.11690466 C23.5702838,1.49300794 23.4213484,2.07492005 23.4213484,2.67488045 L23.4213484,4.76557218 L24.3269105,4.76557218 L24.3269105,2.67488045 C24.3269105,2.0845264 24.3729609,1.93693788 24.5734845,1.6860083 C24.711053,1.51454946 24.9867729,1.33581307 25.352262,1.33581307 C25.7177512,1.33581307 25.9937626,1.51425835 26.1310396,1.6860083 C26.3318546,1.93693788 26.3776136,2.0845264 26.3776136,2.67488045 L26.3776136,4.76557218 L27.2831757,4.76557218 L27.2831757,2.67488045 C27.2831757,2.0845264 27.3292262,1.93693788 27.5294583,1.6860083 C27.6673182,1.51454946 27.9427467,1.33581307 28.3082358,1.33581307 C28.6740165,1.33581307 28.9503193,1.51425835 29.0875963,1.6860083 C29.2875369,1.93693788 29.3338789,2.0845264 29.3338789,2.67488045 L29.3338789,4.76557218 L30.239441,4.76557218 L30.239441,2.67488045 C30.2391495,2.07492005 30.0905056,1.49300794 29.7054887,1.11690466 Z" id="Shape"></path>
                            <ellipse id="Oval" cx="14.3476572" cy="4.29980961" rx="1" ry="1"></ellipse>
                        </g>
                    </g>
                </g>
                <mask id="mask-2" fill="white">
                    <use xlink:href="#path-1"></use>
                </mask>
                <use id="img" fill="#B0DDFE" fill-rule="nonzero" xlink:href="#path-1"></use>
                <path d="M431.094817,262.922979 L444.863425,262.849714 L444.863425,260.41851 C444.863425,260.41851 443.379909,257.940696 442.005961,256.387588 C440.983327,255.232329 439.456332,254.90606 438.124125,256.324332 L431.094817,262.922979 Z" id="Shape-Copy-4" fill="#568621" fill-rule="nonzero" mask="url(#mask-2)"></path>
                <path d="M417.507519,262.616673 L442.236402,262.689939 L433.503574,251.941349 C431.560916,249.57673 428.381706,249.57673 426.439048,251.941349 L417.507519,262.616673 Z" id="Shape-Copy-2" fill="#69A328" fill-rule="nonzero" mask="url(#mask-2)"></path>
                <ellipse id="Mask" fill="#FFBA00" fill-rule="nonzero" mask="url(#mask-2)" transform="translate(415.486894, 241.488343) rotate(-270.000000) translate(-415.486894, -241.488343) " cx="415.486894" cy="241.488343" rx="3.66199997" ry="3.65110116"></ellipse>
                <mask id="mask-4" fill="white">
                    <use xlink:href="#path-3"></use>
                </mask>
                <use id="img" fill="#B0DDFE" fill-rule="nonzero" xlink:href="#path-3"></use>
                <path d="M354.581365,178.977964 L383.544475,178.823845 L383.544475,173.709658 C383.544475,173.709658 380.423809,168.497424 377.533626,165.230368 C375.382452,162.80021 372.170324,162.113883 369.367944,165.097304 L354.581365,178.977964 Z" id="Shape-Copy-4" fill="#568621" fill-rule="nonzero" mask="url(#mask-4)"></path>
                <path d="M325.99965,178.33363 L378.018372,178.487749 L359.648332,155.87743 C355.561833,150.90331 348.874168,150.90331 344.787669,155.87743 L325.99965,178.33363 Z" id="Shape-Copy-2" fill="#69A328" fill-rule="nonzero" mask="url(#mask-4)"></path>
                <ellipse id="Mask" fill="#FFBA00" fill-rule="nonzero" mask="url(#mask-4)" transform="translate(321.749140, 133.888892) rotate(-270.000000) translate(-321.749140, -133.888892) " cx="321.74914" cy="133.888892" rx="7.7032416" ry="7.68031529"></ellipse>
            </g>
        </g>
    </g>
</svg>