<?xml version="1.0" encoding="UTF-8" standalone="no"?>
<svg width="538px" height="136px" viewBox="0 0 538 136" version="1.1" xmlns="http://www.w3.org/2000/svg" xmlns:xlink="http://www.w3.org/1999/xlink">
    <!-- Generator: Sketch 47.1 (45422) - http://www.bohemiancoding.com/sketch -->
    <title>top-tab-mob-svg</title>
    <desc>Created with Sketch.</desc>
    <defs>
        <rect id="path-1" x="0" y="0" width="768" height="251.672302"></rect>
        <polygon id="path-3" points="5.46601875e-21 0.38441626 5.46601875e-21 10.7960964 13.1952917 10.7960964 13.1952917 0.38441626 0 0.38441626"></polygon>
        <polygon id="path-5" points="18.4422559 0.73130163 18.4422559 25.2656698 0.616193818 25.2656698 0.616193818 0.73130163"></polygon>
        <polygon id="path-7" points="40.1869596 0.462256594 0.000278674224 0.462256594 0.000278674224 50.1009578 40.1869596 50.1009578"></polygon>
        <polygon id="path-9" points="0 54.0169296 0 0.269107649 39.6375661 0.269107649 39.6375661 54.0169296"></polygon>
        <polygon id="path-11" points="39.854007 0.920483625 39.854007 54.6683137 0.217393233 54.6683137 0.217393233 0.920483625 39.854007 0.920483625"></polygon>
        <polygon id="path-13" points="0.0845024707 0.318085826 67.6316879 0.318085826 67.6316879 67.8650528 0.0845024707 67.8650528"></polygon>
    </defs>
    <g id="Page-1" stroke="none" stroke-width="1" fill="none" fill-rule="evenodd">
        <g id="Verticals-Frontpage-Tablet" transform="translate(-137.000000, -148.000000)">
            <g id="top-tab-mob-svg" transform="translate(0.000000, 148.000000)">
                <mask id="mask-2" fill="white">
                    <use xlink:href="#path-1"></use>
                </mask>
                <g id="Mask"></g>
                <g id="laptop" mask="url(#mask-2)">
                    <g transform="translate(539.434632, -48.804941) scale(-1, 1) translate(-539.434632, 48.804941) translate(367.434632, -213.804941)">
                        <path d="M339.980003,254.158942 L111.33586,329.126365 C108.366266,330.099968 105.169764,328.480768 104.196553,325.509977 L57.3752302,182.595485 C56.4020195,179.624694 58.0205678,176.426903 60.9901615,175.4533 L289.634305,100.485877 C292.603898,99.5122745 295.800401,101.131475 296.773612,104.102265 L343.593894,247.015717 C344.568145,249.987548 342.949597,253.185339 339.980003,254.158942 Z" id="Shape" fill="#808285" fill-rule="nonzero" opacity="0.25"></path>
                        <g id="Group" stroke-width="1" fill="none" fill-rule="evenodd">
                            <path d="M336.546693,251.897617 L108.275684,327.491811 C105.310679,328.473608 102.111348,326.864379 101.130303,323.897101 L53.9370482,181.164463 C52.9560034,178.197185 54.5640004,174.995402 57.5290053,174.013605 L285.800015,98.41941 C288.76502,97.4376131 291.964351,99.0468429 292.945395,102.014121 L340.139692,244.746758 C341.120737,247.715078 339.511698,250.91582 336.546693,251.897617 Z" id="Shape" fill="#E6E7E8" fill-rule="nonzero"></path>
                            <rect id="Rectangle-path" fill="#BCBEC0" fill-rule="nonzero" transform="translate(212.832159, 260.653901) rotate(-18.311748) translate(-212.832159, -260.653901) " x="183.186102" y="239.217123" width="59.2921143" height="42.873557"></rect>
                            <path d="M306.364464,200.78581 L102.036364,268.450588 C100.418994,268.986303 98.6745668,268.108731 98.1392621,266.490121 L71.9770254,187.365835 C71.4417206,185.747225 72.3186206,184.00146 73.9359907,183.465745 L278.264091,115.800968 C279.881461,115.265253 281.625888,116.142825 282.161193,117.761435 L308.323429,196.885721 C308.858734,198.504331 307.981834,200.250095 306.364464,200.78581 Z" id="Shape" fill="#BCBEC0" fill-rule="nonzero"></path>
                            <path d="M105.853274,215.661806 L89.1984237,221.177378 C88.3902594,221.445236 87.5175252,221.00645 87.2498729,220.196624 L84.2827851,211.221832 C84.0151327,210.413048 84.4535827,209.539645 85.2627884,209.271788 L101.917639,203.756215 C102.725803,203.488358 103.598537,203.927144 103.866189,204.73697 L106.833277,213.711761 C107.10093,214.520545 106.66248,215.393948 105.853274,215.661806 Z" id="Shape" fill="#414042" fill-rule="nonzero"></path>
                            <path d="M110.631441,230.11048 L93.976591,235.626052 C93.1684267,235.89391 92.2956926,235.455124 92.0280402,234.645298 L89.0609524,225.670506 C88.7933001,224.861722 89.23175,223.988319 90.0409558,223.720462 L106.695806,218.204889 C107.50397,217.937032 108.376704,218.375818 108.644357,219.185644 L111.611445,228.160435 C111.878055,228.969219 111.439606,229.842622 110.631441,230.11048 Z" id="Shape" fill="#414042" fill-rule="nonzero"></path>
                            <path d="M125.882418,225.059749 L116.914502,228.029112 C116.106338,228.296969 115.233604,227.858183 114.965951,227.048357 L111.998864,218.073566 C111.731211,217.264782 112.169661,216.391379 112.978867,216.123521 L121.946783,213.154159 C122.754947,212.886301 123.627681,213.325087 123.895334,214.134914 L126.862422,223.109705 C127.130074,223.919531 126.691624,224.791892 125.882418,225.059749 Z" id="Shape" fill="#414042" fill-rule="nonzero"></path>
                            <path d="M141.133395,220.009019 L132.165479,222.978382 C131.357315,223.246239 130.484581,222.807453 130.216928,221.997627 L127.249841,213.022836 C126.982188,212.214052 127.420638,211.340649 128.229844,211.072791 L137.19776,208.103429 C138.005924,207.835571 138.878659,208.274357 139.146311,209.084183 L142.113399,218.058974 C142.381051,218.868801 141.942601,219.741162 141.133395,220.009019 Z" id="Shape" fill="#414042" fill-rule="nonzero"></path>
                            <path d="M156.385414,214.958289 L147.417498,217.927651 C146.609333,218.195509 145.736599,217.756723 145.468947,216.946897 L142.501859,207.972105 C142.234207,207.163321 142.672657,206.289918 143.481863,206.022061 L152.449779,203.052698 C153.257943,202.784841 154.130677,203.223627 154.398329,204.033453 L157.365417,213.008244 C157.632028,213.81807 157.193578,214.690431 156.385414,214.958289 Z" id="Shape" fill="#414042" fill-rule="nonzero"></path>
                            <path d="M115.429396,244.620646 L98.7745459,250.136219 C97.9663816,250.404076 97.0936475,249.96529 96.8259951,249.155464 L93.8589073,240.180673 C93.591255,239.371889 94.0297049,238.498486 94.8389107,238.230628 L111.493761,232.715056 C112.301925,232.447198 113.174659,232.885984 113.442312,233.69581 L116.409399,242.670602 C116.67601,243.479385 116.23756,244.352789 115.429396,244.620646 Z" id="Shape" fill="#414042" fill-rule="nonzero"></path>
                            <path d="M130.680373,239.569916 L121.712457,242.539278 C120.904293,242.807136 120.031559,242.36835 119.763906,241.558524 L116.796818,232.583732 C116.529166,231.773906 116.967616,230.901545 117.776822,230.633688 L126.744738,227.664325 C127.552902,227.396468 128.425636,227.835254 128.693289,228.64508 L131.660377,237.619871 C131.926987,238.428655 131.488537,239.302058 130.680373,239.569916 Z" id="Shape" fill="#414042" fill-rule="nonzero"></path>
                            <path d="M145.93135,234.519186 L136.963434,237.488548 C136.15527,237.756406 135.282536,237.31762 135.014883,236.507793 L132.047796,227.533002 C131.780143,226.724218 132.218593,225.850815 133.027799,225.582958 L141.995715,222.613595 C142.803879,222.345738 143.676613,222.784524 143.944266,223.59435 L146.911354,232.569141 C147.179006,233.378967 146.740556,234.251328 145.93135,234.519186 Z" id="Shape" fill="#414042" fill-rule="nonzero"></path>
                            <path d="M161.183369,229.468455 L152.215453,232.437818 C151.407288,232.705675 150.534554,232.266889 150.266902,231.457063 L147.299814,222.482272 C147.032162,221.673488 147.470612,220.800085 148.279817,220.532227 L157.247734,217.562865 C158.055898,217.295007 158.928632,217.733793 159.196284,218.543619 L162.163372,227.518411 C162.429983,228.328237 161.991533,229.200598 161.183369,229.468455 Z" id="Shape" fill="#414042" fill-rule="nonzero"></path>
                            <path d="M176.434346,224.417725 L167.46643,227.387088 C166.658265,227.654945 165.785531,227.216159 165.517879,226.406333 L162.550791,217.431542 C162.283139,216.622758 162.721589,215.749355 163.530795,215.481497 L172.498711,212.512135 C173.306875,212.244277 174.179609,212.683063 174.447261,213.492889 L177.414349,222.46768 C177.682002,223.277507 177.243552,224.149868 176.434346,224.417725 Z" id="Shape" fill="#414042" fill-rule="nonzero"></path>
                            <path d="M191.685323,219.366995 L182.717407,222.336357 C181.909243,222.604215 181.036508,222.165429 180.768856,221.355603 L177.801768,212.380811 C177.534116,211.572027 177.972566,210.698624 178.781772,210.430767 L187.749688,207.461404 C188.558893,207.193547 189.430586,207.632333 189.698239,208.442159 L192.665326,217.41695 C192.932979,218.226776 192.494529,219.10018 191.685323,219.366995 Z" id="Shape" fill="#414042" fill-rule="nonzero"></path>
                            <path d="M206.937341,214.317307 L197.969425,217.286669 C197.161261,217.554527 196.288527,217.115741 196.020875,216.305915 L193.053787,207.331123 C192.786134,206.522339 193.224584,205.648936 194.03379,205.381079 L203.001706,202.411716 C203.809871,202.143859 204.682605,202.582645 204.950257,203.392471 L207.917345,212.367262 C208.183956,213.176046 207.745506,214.049449 206.937341,214.317307 Z" id="Shape" fill="#414042" fill-rule="nonzero"></path>
                            <path d="M112.507091,261.371644 L103.539174,264.341007 C102.729969,264.608864 101.858276,264.170078 101.590624,263.360252 L98.6235359,254.385461 C98.3558835,253.576677 98.7943335,252.703274 99.6035392,252.435416 L108.571455,249.466054 C109.37962,249.198196 110.252354,249.636982 110.520006,250.446809 L113.487094,259.4216 C113.753705,260.230384 113.315255,261.103787 112.507091,261.371644 Z" id="Shape" fill="#414042" fill-rule="nonzero"></path>
                            <path d="M127.758068,256.320914 L118.790152,259.290277 C117.981987,259.558134 117.109253,259.119348 116.841601,258.309522 L113.874513,249.334731 C113.606861,248.524905 114.045311,247.652544 114.854516,247.384686 L123.822432,244.415324 C124.630597,244.147466 125.503331,244.586252 125.770983,245.396078 L128.738071,254.370869 C129.005723,255.179653 128.567273,256.053057 127.758068,256.320914 Z" id="Shape" fill="#414042" fill-rule="nonzero"></path>
                            <path d="M143.010086,251.270184 L134.04217,254.239546 C133.232964,254.507404 132.361272,254.068618 132.093619,253.258792 L129.126531,244.284 C128.858879,243.474174 129.297329,242.601813 130.106535,242.333956 L139.074451,239.364593 C139.882615,239.096736 140.755349,239.535522 141.023002,240.345348 L143.99009,249.320139 C144.2567,250.128923 143.818251,251.002326 143.010086,251.270184 Z" id="Shape" fill="#414042" fill-rule="nonzero"></path>
                            <path d="M158.261063,246.219454 L149.293147,249.188816 C148.484983,249.456674 147.612249,249.017887 147.344596,248.208061 L144.377509,239.23327 C144.109856,238.423444 144.548306,237.551083 145.357512,237.283225 L154.325428,234.313863 C155.133592,234.046005 156.006327,234.484792 156.273979,235.294618 L159.241067,244.269409 C159.507678,245.078193 159.069228,245.951596 158.261063,246.219454 Z" id="Shape" fill="#414042" fill-rule="nonzero"></path>
                            <path d="M226.892543,223.491167 L164.118172,244.279831 C163.310007,244.547689 162.437273,244.108903 162.169621,243.299077 L159.202533,234.324285 C158.934881,233.515502 159.373331,232.642098 160.182536,232.374241 L222.956908,211.585577 C223.765072,211.317719 224.637806,211.756505 224.905459,212.566331 L227.872546,221.541123 C228.139157,222.350949 227.700707,223.22331 226.892543,223.491167 Z" id="Shape" fill="#414042" fill-rule="nonzero"></path>
                            <path d="M242.127898,218.445648 L233.159982,221.415011 C232.351818,221.682868 231.479084,221.244082 231.211431,220.434256 L228.244344,211.459465 C227.976691,210.649639 228.415141,209.777278 229.224347,209.50942 L238.192263,206.540058 C239.000427,206.2722 239.873162,206.710986 240.140814,207.520812 L243.107902,216.495604 C243.374513,217.30543 242.936063,218.177791 242.127898,218.445648 Z" id="Shape" fill="#414042" fill-rule="nonzero"></path>
                            <path d="M257.378875,213.394918 L248.410959,216.36428 C247.602795,216.632138 246.730061,216.193352 246.462409,215.383526 L243.495321,206.408734 C243.227668,205.599951 243.666118,204.726547 244.475324,204.45869 L253.44324,201.489327 C254.251405,201.22147 255.124139,201.660256 255.391791,202.470082 L258.358879,211.444873 C258.626531,212.254699 258.18704,213.128103 257.378875,213.394918 Z" id="Shape" fill="#414042" fill-rule="nonzero"></path>
                            <path d="M188.216421,270.454004 L247.508535,270.454004 L247.508535,275.279228 L247.508535,275.279228 C247.508535,278.592936 244.822244,281.279228 241.508535,281.279228 L194.216421,281.279228 L194.216421,281.279228 C190.902712,281.279228 188.216421,278.592936 188.216421,275.279228 L188.216421,270.454004 Z" id="Rectangle-path" fill="#B3B5B8" fill-rule="nonzero" transform="translate(217.862478, 275.866616) rotate(-18.311748) translate(-217.862478, -275.866616) "></path>
                        </g>
                    </g>
                </g>
                <g id="usb" mask="url(#mask-2)">
                    <g transform="translate(651.165150, 23.885566)">
                        <g id="Group-6" opacity="0.25" stroke-width="1" fill="none" transform="translate(0.000000, 0.969261)">
                            <path d="M22.2868729,34.7044004 L16.0886359,15.7983254 L13.938935,16.5025239 L12.1005979,10.8931355 L5.16750993,13.1662526 L4.90696457,13.2517566 L6.74530167,18.8603384 L4.5964074,19.5653435 L5.02392766,20.868877 L10.7946445,38.4714185 C11.2592703,39.8894952 12.7854369,40.6614516 14.2027069,40.1968258 L20.5614657,38.1124629 C21.9795423,37.6478371 22.7514987,36.1216704 22.2868729,34.7044004" id="Fill-1" fill="#808285"></path>
                            <g id="Group-5">
                                <mask id="mask-4" fill="white">
                                    <use xlink:href="#path-3"></use>
                                </mask>
                                <g id="Clip-4"></g>
                                <path d="M11.6279863,2.24488467 C11.1633605,0.827614684 9.63719388,0.0548516555 8.21911726,0.519477443 L1.86035843,2.60384035 C0.443088447,3.06846614 -0.329674582,4.59463279 0.134951205,6.01190277 L1.70306324,10.7960964 L13.1952917,7.02827168 L11.6279863,2.24488467 Z" id="Fill-3" fill="#808285" mask="url(#mask-4)"></path>
                            </g>
                        </g>
                        <g id="Group-9" stroke-width="1" fill="none" transform="translate(4.839852, 14.682175)">
                            <mask id="mask-6" fill="white">
                                <use xlink:href="#path-5"></use>
                            </mask>
                            <g id="Clip-8"></g>
                            <path d="M16.5820588,23.0454391 L10.2224933,25.1306086 C8.80441669,25.5952344 7.27905668,24.8224714 6.81443089,23.4052014 L0.616193818,4.49831974 L12.1092289,0.73130163 L18.307466,19.6373767 C18.7720918,21.0554533 17.9993288,22.5808133 16.5820588,23.0454391" id="Fill-7" fill="#6087C7" mask="url(#mask-6)"></path>
                        </g>
                        <polygon id="Fill-10" fill="#E6E7E8" points="12.9600749 10.5094159 5.76724825 12.8672304 7.60558536 18.4758122 14.7992186 16.1179976"></polygon>
                        <polygon id="Fill-12" fill="#F5F6F7" points="5.76724825 12.8674724 6.02779362 12.7819684 7.86693736 18.3905501 7.60558536 18.4760542"></polygon>
                        <polygon id="Fill-14" fill="#F5F6F7" points="12.7000942 10.5944359 12.9598329 10.5097385 14.7997833 16.1183203 14.5384313 16.2038243"></polygon>
                        <polygon id="Fill-16" fill="#CC372E" points="17.3761172 16.7171713 5.88388869 20.4841894 5.45636843 19.180656 16.9494035 15.4136379"></polygon>
                        <path d="M2.72023879,2.22004009 L9.07980426,0.135677183 C10.4970742,-0.329755247 12.0224343,0.443007782 12.48706,1.86027776 L14.0559787,6.64366478 L2.56375025,10.4114895 L0.994831569,5.62810251 C0.530205782,4.21083253 1.30216217,2.68466588 2.72023879,2.22004009" id="Fill-18" fill="#6087C7"></path>
                        <polygon id="Fill-20" fill="#ACAEB0" points="8.30454064 15.5177753 8.03592886 14.6966138 9.3257494 14.2739334 9.59516783 15.0950949"></polygon>
                        <polygon id="Fill-22" fill="#ACAEB0" points="11.1947389 14.5705356 10.9253205 13.7493741 12.2159477 13.3266937 12.4845594 14.1478552"></polygon>
                    </g>
                </g>
                <g id="postit" mask="url(#mask-2)">
                    <g transform="translate(391.336801, -25.050715)">
                        <g id="Group-3" opacity="0.200000003" stroke-width="1" fill="none">
                            <mask id="mask-8" fill="white">
                                <use xlink:href="#path-7"></use>
                            </mask>
                            <g id="Clip-2"></g>
                            <polygon id="Fill-1" fill="#808285" mask="url(#mask-8)" points="0.000278674224 10.1644459 1.44566898 15.495049 5.48458741 50.1009578 40.1869596 39.8150396 35.9910547 5.79238707 34.5456644 0.461783939"></polygon>
                        </g>
                        <polygon id="Fill-4" fill="#FAF15B" points="34.6150281 0 0 9.69612968 9.55333822 44.8275956 44.1683663 35.1324106"></polygon>
                    </g>
                </g>
                <g id="mouse" mask="url(#mask-2)">
                    <g transform="translate(629.609883, 78.647594)">
                        <g id="Group-3" opacity="0.300000012" stroke-width="1" fill="none" transform="translate(0.000000, 2.937758)">
                            <mask id="mask-10" fill="white">
                                <use xlink:href="#path-9"></use>
                            </mask>
                            <g id="Clip-2"></g>
                            <path d="M11.003572,1.13059713 L11.003572,1.13059713 C2.53156912,4.00122 -2.00972538,13.1976307 0.860897482,21.6696336 L8.09340093,43.0131391 C10.9649884,51.4861066 20.1604345,56.0264365 28.633402,53.1558136 C37.1063695,50.2851907 41.647664,41.08878 38.7760766,32.6167771 L31.5435731,11.2732717 C28.6719857,2.80030418 19.4765395,-1.74099033 11.003572,1.13059713" id="Fill-1" fill="#808285" mask="url(#mask-10)"></path>
                        </g>
                        <g id="Group-6" stroke-width="1" fill="none" transform="translate(0.964591, 0.043985)">
                            <mask id="mask-12" fill="white">
                                <use xlink:href="#path-11"></use>
                            </mask>
                            <g id="Clip-5"></g>
                            <path d="M38.9927237,33.2677796 L31.7602203,11.9242741 C28.8895974,3.45130666 19.6931867,-1.08902326 11.2211838,1.78159961 C2.74821627,4.65318706 -1.79211365,13.8486332 1.07850922,22.3216007 L8.31004807,43.6651061 C11.1816355,52.137109 20.3780463,56.6784035 28.8500492,53.8068161 C37.3239813,50.9361932 41.8643112,41.7407471 38.9927237,33.2677796" id="Fill-4" fill="#E6E7E8" mask="url(#mask-12)"></path>
                        </g>
                        <path d="M12.1725599,1.79211365 C3.69959239,4.66273652 -0.84073753,13.8591473 2.02892074,22.3311502 L9.26142419,43.6746556 C12.1330116,52.1476231 21.3284578,56.6889176 29.8014253,53.8173301 L12.1725599,1.79211365 Z" id="Fill-7" fill="#D9DCDE"></path>
                        <path d="M17.8593062,18.5697275 L17.8593062,18.5697275 C16.9506615,18.877432 15.9638849,18.3903136 15.6561803,17.4816688 L12.8530788,9.20933627 C12.5444097,8.30069153 13.0315282,7.31391492 13.9411375,7.00621039 C14.8497822,6.69754127 15.8355943,7.18465973 16.1442634,8.09426906 L18.9473649,16.3666016 C19.2550694,17.2752464 18.767951,18.262023 17.8593062,18.5697275" id="Fill-9" fill="#BCBEC0"></path>
                    </g>
                </g>
                <g id="coffee" mask="url(#mask-2)">
                    <g transform="translate(137.916775, -34.371912)">
                        <path d="M9.72632961,17.8823764 C22.6947691,4.91393694 43.7196236,4.91393694 56.6871944,17.8823764 C69.6556339,30.8508159 69.6556339,51.8756704 56.6871944,64.8432413 C43.7196236,77.8116807 22.6947691,77.8116807 9.72632961,64.8432413 C-3.24210987,51.8756704 -3.24210987,30.8508159 9.72632961,17.8823764" id="Fill-1" fill="#808285" opacity="0.25"></path>
                        <g id="Group-5" stroke-width="1" fill="none" transform="translate(4.078023, 0.000000)">
                            <mask id="mask-14" fill="white">
                                <use xlink:href="#path-13"></use>
                            </mask>
                            <g id="Clip-4"></g>
                            <path d="M9.97705904,10.2095938 C23.1662606,-2.9796078 44.5505415,-2.9796078 57.739743,10.2095938 C70.9298185,23.3996692 70.9298185,44.7830762 57.739743,57.9731516 C44.5505415,71.1623532 23.1662606,71.1623532 9.97705904,57.9731516 C-3.21301638,44.7830762 -3.21301638,23.3996692 9.97705904,10.2095938" id="Fill-3" fill="#FFFFFF" mask="url(#mask-14)"></path>
                        </g>
                        <path d="M14.7983415,10.7209073 C27.5394368,-2.02010305 48.1952836,-2.02010305 60.936379,10.7209073 C73.6766036,23.461047 73.6766036,44.1176266 60.936379,56.8577663 C48.1952836,69.5987766 27.5394368,69.5987766 14.7983415,56.8577663 C2.05811679,44.1176266 2.05811679,23.461047 14.7983415,10.7209073" id="Fill-6" fill="#EDE1DE"></path>
                        <path d="M18.6969376,19.8075423 L5.82574772,40.002042 C7.01253333,46.1821504 9.99645144,52.0848235 14.7801104,56.8690588 C23.11804,65.2103787 34.8502635,68.0838768 45.5287256,65.4912927 L56.5097529,48.577312 L18.6969376,19.8075423 Z" id="Fill-8" fill="#E3D0CC"></path>
                        <path d="M21.474888,17.3968963 C30.688913,8.1828291 45.6281658,8.1828291 54.8430563,17.3968963 C64.0562157,26.6109635 64.0562157,41.5502848 54.8430563,50.7643521 C45.6281658,59.9784193 30.688913,59.9784193 21.474888,50.7643521 C12.2608631,41.5502848 12.2608631,26.6109635 21.474888,17.3968963" id="Fill-10" fill="#FFFFFF"></path>
                        <path d="M23.6201875,18.9595894 C31.8099047,10.7689969 45.0897464,10.7689969 53.2803389,18.9595894 C61.4700561,27.1493065 61.4700561,40.4282729 53.2803389,48.6197407 C45.0897464,56.8094579 31.8099047,56.8094579 23.6201875,48.6197407 C15.429595,40.4282729 15.429595,27.1493065 23.6201875,18.9595894" id="Fill-12" fill="#EDE1DE"></path>
                        <path d="M19.2249675,33.789774 C19.2249675,23.1711674 27.8324442,14.5643693 38.4490607,14.5643693 C49.0674258,14.5643693 57.6749025,23.1711674 57.6749025,33.789774 C57.6749025,44.4075062 49.0674258,53.0143043 38.4490607,53.0143043 C27.8324442,53.0143043 19.2249675,44.4075062 19.2249675,33.789774" id="Fill-14" fill="#3B2820"></path>
                        <path d="M25.0079489,22.1378414 C24.3474077,22.1378414 23.6929266,22.1675807 23.0453712,22.2218113 C20.6473385,25.4389114 19.2249675,29.4423553 19.2249675,33.7816792 C19.2249675,44.4030075 27.7479393,53.0143043 38.2611916,53.0143043 C41.7785948,53.0143043 45.0726433,52.0495242 47.8992053,50.3683751 C48.1961458,48.8674116 48.3537061,47.3139669 48.3537061,45.72466 C48.3537061,32.6979416 37.9019196,22.1378414 25.0079489,22.1378414" id="Fill-16" fill="#4F352C"></path>
                        <path d="M57.0923277,33.5697908 C57.0923277,23.0722083 48.5500745,14.5643693 38.0130382,14.5643693 C32.4130684,14.5643693 27.3762193,16.9672742 23.8855657,20.7954992 C27.0360909,18.5066891 30.9163303,17.1557034 35.1132707,17.1557034 C45.6503071,17.1557034 54.1925603,25.6644067 54.1925603,36.1619892 C54.1925603,41.080165 52.3175162,45.5618418 49.2398755,48.9362809 C53.9990689,45.4805925 57.0923277,39.8856274 57.0923277,33.5697908" id="Fill-18" fill="#594A42"></path>
                        <path d="M56.5111402,56.2929716 L51.26658,51.0480738 L55.1266987,47.1885566 L60.3704091,52.4326044 C61.4369985,53.4992625 61.4369985,55.2271635 60.3704091,56.2929716 C59.3046696,57.3587797 57.5768797,57.3587797 56.5111402,56.2929716" id="Fill-20" fill="#FFFFFF"></path>
                    </g>
                </g>
                <g id="ipad" mask="url(#mask-2)">
                    <g transform="translate(215.981795, -52.431730)">
                        <path d="M2.9814816,37.1247318 C0.738013989,37.8301069 -0.508596132,40.2229974 0.197600966,42.4672746 L22.1887508,112.367247 C22.8938714,114.611525 25.2858988,115.858585 27.5293664,115.152133 L137.418371,80.5553722 C139.662916,79.8499972 140.908449,77.4571066 140.203329,75.2128294 L118.212179,5.31285658 C117.505982,3.0685794 115.113954,1.82151943 112.870487,2.52797136 L2.9814816,37.1247318 Z" id="Fill-1" fill="#808285" opacity="0.25"></path>
                        <path d="M23.9360657,110.036299 L1.94491586,40.1378154 C1.23979528,37.8924746 2.48532888,35.5006751 4.72987301,34.7942273 L114.618878,0.197671105 C116.862346,-0.508776659 119.253297,0.738275949 119.959494,2.98253988 L141.950644,72.8821 C142.656841,75.126364 141.41023,77.5192404 139.166763,78.2256881 L29.2777578,112.822244 C27.0332137,113.527615 24.6422628,112.281639 23.9360657,110.036299" id="Fill-3" fill="#F5F6F7"></path>
                        <polygon id="Fill-5" fill="#414042" points="38.3529702 106.028609 15.7295189 34.4750613 109.038447 5.24317295 131.661899 76.7967202"></polygon>
                        <path d="M19.370041,68.3640488 C21.6711001,67.6394464 24.1236563,68.9180943 24.8482992,71.2190248 C25.5718827,73.5210147 24.2942228,75.9734338 21.9931636,76.6969768 C19.6921045,77.4215793 17.2384889,76.1439908 16.5149054,73.8420009 C15.7902625,71.5410703 17.0689818,69.0886513 19.370041,68.3640488" id="Fill-9" fill="#E6E7E8"></path>
                        <polygon id="Fill-11" fill="#FFFFFF" opacity="0.100000001" points="87.4766303 11.9033212 64.083225 97.8725618 131.079324 76.7547307 108.607298 5.24317295"></polygon>
                    </g>
                </g>
            </g>
        </g>
    </g>
</svg>