<?xml version="1.0" encoding="UTF-8" standalone="no"?>
<svg width="929px" height="261px" viewBox="0 0 929 261" version="1.1" xmlns="http://www.w3.org/2000/svg" xmlns:xlink="http://www.w3.org/1999/xlink">
    <!-- Generator: Sketch 47.1 (45422) - http://www.bohemiancoding.com/sketch -->
    <title>top-svg</title>
    <desc>Created with Sketch.</desc>
    <defs>
        <rect id="path-1" x="0" y="0" width="1440" height="432"></rect>
        <polygon id="path-3" points="9.3825188e-21 0.659857375 9.3825188e-21 18.5316923 22.6499538 18.5316923 22.6499538 0.659857375 0 0.659857375"></polygon>
        <polygon id="path-5" points="31.6564615 1.25529231 31.6564615 43.3689734 1.05770769 43.3689734 1.05770769 1.25529231"></polygon>
        <polygon id="path-7" points="68.9816339 0.793471698 0.000478349282 0.793471698 0.000478349282 85.9991887 68.9816339 85.9991887"></polygon>
        <polygon id="path-9" points="61.8305472 0.79927193 0.000638326586 0.79927193 0.000638326586 26.7919547 61.8305472 26.7919547 61.8305472 0.79927193"></polygon>
        <polygon id="path-11" points="0 92.7210242 0 0.461928086 68.0385899 0.461928086 68.0385899 92.7210242"></polygon>
        <polygon id="path-13" points="68.4101148 1.58002658 68.4101148 93.8391367 0.373159366 93.8391367 0.373159366 1.58002658 68.4101148 1.58002658"></polygon>
        <polygon id="path-15" points="0.14505 0.546 116.091 0.546 116.091 116.491575 0.14505 116.491575"></polygon>
    </defs>
    <g id="Page-1" stroke="none" stroke-width="1" fill="none" fill-rule="evenodd">
        <g id="Verticals-Frontpage-Desktop" transform="translate(-330.000000, -148.000000)">
            <g id="top-svg" transform="translate(0.000000, 148.000000)">
                <mask id="mask-2" fill="white">
                    <use xlink:href="#path-1"></use>
                </mask>
                <g id="Mask"></g>
                <g id="laptop" mask="url(#mask-2)">
                    <g transform="translate(1014.500000, -36.500000) scale(-1, 1) translate(-1014.500000, 36.500000) translate(720.000000, -319.000000)">
                        <path d="M581.581747,435.268363 L189.109992,563.951283 C184.012631,565.62249 178.525777,562.843103 176.855244,557.743688 L96.4856072,312.42841 C94.8150737,307.328995 97.5933407,301.83993 102.690701,300.168723 L495.162456,171.485803 C500.259817,169.814596 505.746671,172.593983 507.417204,177.693398 L587.785054,423.006889 C589.457374,428.108091 586.679107,433.597156 581.581747,435.268363 Z" id="Shape" fill="#808285" fill-rule="nonzero" opacity="0.25"></path>
                        <g id="Group" stroke-width="1" fill="none" fill-rule="evenodd">
                            <path d="M577.688409,432.386757 L185.857145,562.145542 C180.767661,563.830814 175.275952,561.068543 173.591971,555.975157 L92.5839065,310.972036 C90.8999255,305.878651 93.6600811,300.382732 98.749565,298.69746 L490.580829,168.938675 C495.670313,167.253403 501.162022,170.015674 502.846002,175.10906 L583.855855,420.112181 C585.539836,425.207356 582.777893,430.701485 577.688409,432.386757 Z" id="Shape" fill="#E6E7E8" fill-rule="nonzero"></path>
                            <path d="M322.442215,410.620463 L408.218188,410.620463 L408.218188,410.620463 C412.636466,410.620463 416.218188,414.202185 416.218188,418.620463 L416.218188,473.213689 L416.218188,473.213689 C416.218188,479.288821 411.293321,484.213689 405.218188,484.213689 L325.442215,484.213689 L325.442215,484.213689 C319.367083,484.213689 314.442215,479.288821 314.442215,473.213689 L314.442215,418.620463 L314.442215,418.620463 C314.442215,414.202185 318.023937,410.620463 322.442215,410.620463 Z" id="Rectangle-path" fill="#BCBEC0" fill-rule="nonzero" transform="translate(365.330202, 447.417076) rotate(-18.311748) translate(-365.330202, -447.417076) "></path>
                            <path d="M525.880073,344.652429 L175.14724,460.800228 C172.370996,461.719792 169.376656,460.213424 168.457796,457.435051 L123.549849,321.616801 C122.630989,318.838428 124.136204,315.841792 126.912448,314.922228 L477.645281,198.774429 C480.421526,197.854865 483.415865,199.361233 484.334726,202.139606 L529.242672,337.957856 C530.161532,340.736229 528.656318,343.732865 525.880073,344.652429 Z" id="Shape" fill="#BCBEC0" fill-rule="nonzero"></path>
                            <path d="M150.654435,325.742318 L136.279816,330.502943 C134.892587,330.962725 133.394524,330.209541 132.935094,328.81946 L131.30653,323.894244 C130.8471,322.505952 131.599707,321.00674 132.988724,320.546957 L147.363342,315.786332 C148.750571,315.32655 150.248635,316.079734 150.708065,317.469815 L152.336628,322.395031 C152.79427,323.783323 152.041663,325.282536 150.654435,325.742318 Z" id="Shape" fill="#414042" fill-rule="nonzero"></path>
                            <path d="M174.541222,317.831201 L160.166603,322.591825 C158.777587,323.051608 157.281311,322.298424 156.821881,320.908343 L155.193317,315.983126 C154.733887,314.594834 155.486495,313.095622 156.875511,312.63584 L171.25013,307.875215 C172.639146,307.415433 174.135422,308.168617 174.594852,309.558698 L176.223415,314.483914 C176.681058,315.873995 175.92845,317.371418 174.541222,317.831201 Z" id="Shape" fill="#414042" fill-rule="nonzero"></path>
                            <path d="M160.407938,350.067841 L145.01435,355.164805 C143.627121,355.624587 142.129058,354.871403 141.669627,353.481322 L136.576568,338.075933 C136.117138,336.687641 136.869745,335.188428 138.258762,334.728646 L153.65235,329.631682 C155.039578,329.1719 156.537642,329.925084 156.997072,331.315165 L162.090131,346.720555 C162.549561,348.110636 161.796954,349.608059 160.407938,350.067841 Z" id="Shape" fill="#414042" fill-rule="nonzero"></path>
                            <path d="M186.5883,341.399962 L171.194712,346.496925 C169.807483,346.956708 168.30942,346.203523 167.84999,344.813442 L162.75693,329.408053 C162.2975,328.019761 163.050108,326.520549 164.439124,326.060766 L179.832712,320.963803 C181.21994,320.50402 182.718004,321.257205 183.177434,322.647286 L188.270493,338.052675 C188.728136,339.440967 187.975529,340.940179 186.5883,341.399962 Z" id="Shape" fill="#414042" fill-rule="nonzero"></path>
                            <path d="M212.766875,332.730293 L197.373286,337.827257 C195.986058,338.287039 194.487994,337.533855 194.028564,336.143774 L188.935505,320.738384 C188.476075,319.350092 189.228682,317.85088 190.617698,317.391098 L206.011286,312.294134 C207.398515,311.834352 208.896579,312.587536 209.356009,313.977617 L214.449068,329.383006 C214.908498,330.771298 214.154103,332.270511 212.766875,332.730293 Z" id="Shape" fill="#414042" fill-rule="nonzero"></path>
                            <path d="M238.945449,324.060624 L223.551861,329.157588 C222.164632,329.61737 220.666569,328.864186 220.207139,327.474105 L215.114079,312.068715 C214.654649,310.680423 215.407257,309.181211 216.796273,308.721429 L232.189861,303.624465 C233.577089,303.164683 235.075153,303.917867 235.534583,305.307948 L240.627642,320.713338 C241.087072,322.10163 240.334465,323.600842 238.945449,324.060624 Z" id="Shape" fill="#414042" fill-rule="nonzero"></path>
                            <path d="M265.125811,315.390955 L249.732223,320.487919 C248.343207,320.947701 246.846931,320.194517 246.387501,318.804436 L241.294442,303.399047 C240.835012,302.008966 241.587619,300.511542 242.976635,300.05176 L258.370223,294.954796 C259.757452,294.495014 261.255515,295.248198 261.714945,296.638279 L266.808005,312.043669 C267.265647,313.431961 266.51304,314.931173 265.125811,315.390955 Z" id="Shape" fill="#414042" fill-rule="nonzero"></path>
                            <path d="M181.699035,370.187341 L153.110687,379.654919 C151.723459,380.114702 150.225395,379.361518 149.765965,377.971437 L144.672906,362.566047 C144.213476,361.177755 144.966083,359.678543 146.355099,359.218761 L174.943447,349.751182 C176.330675,349.2914 177.828739,350.044584 178.288169,351.434665 L183.381228,366.840054 C183.840658,368.228346 183.088051,369.727558 181.699035,370.187341 Z" id="Shape" fill="#414042" fill-rule="nonzero"></path>
                            <path d="M207.879397,361.517672 L192.485809,366.614636 C191.096793,367.074418 189.600517,366.321234 189.141087,364.931153 L184.048027,349.525763 C183.588597,348.135682 184.341204,346.638259 185.730221,346.178477 L201.123809,341.081513 C202.511037,340.621731 204.009101,341.374915 204.468531,342.764996 L209.56159,358.170386 C210.019233,359.558677 209.266625,361.05789 207.879397,361.517672 Z" id="Shape" fill="#414042" fill-rule="nonzero"></path>
                            <path d="M234.057971,352.848003 L218.664383,357.944967 C217.277155,358.404749 215.779091,357.651565 215.319661,356.261484 L210.226602,340.856095 C209.767172,339.467803 210.519779,337.96859 211.908795,337.508808 L227.302383,332.411844 C228.689612,331.952062 230.187675,332.705246 230.647106,334.095327 L235.740165,349.500717 C236.199595,350.889009 235.4452,352.388221 234.057971,352.848003 Z" id="Shape" fill="#414042" fill-rule="nonzero"></path>
                            <path d="M260.236546,344.178335 L244.842958,349.275298 C243.455729,349.735081 241.957666,348.981896 241.498236,347.591815 L236.405176,332.186426 C235.945746,330.798134 236.698353,329.298922 238.08737,328.839139 L253.480958,323.742176 C254.868186,323.282393 256.36625,324.035578 256.82568,325.425659 L261.918739,340.831048 C262.378169,342.21934 261.625562,343.718552 260.236546,344.178335 Z" id="Shape" fill="#414042" fill-rule="nonzero"></path>
                            <path d="M286.416908,335.508666 L271.02332,340.60563 C269.636091,341.065412 268.138028,340.312228 267.678598,338.922147 L262.585538,323.516757 C262.126108,322.128465 262.878716,320.629253 264.267732,320.169471 L279.66132,315.072507 C281.048548,314.612725 282.546612,315.365909 283.006042,316.75599 L288.099101,332.161379 C288.556744,333.549671 287.804137,335.048884 286.416908,335.508666 Z" id="Shape" fill="#414042" fill-rule="nonzero"></path>
                            <path d="M312.595483,326.838997 L297.201894,331.935961 C295.814666,332.395743 294.316602,331.642559 293.857172,330.252478 L288.764113,314.847088 C288.304683,313.457007 289.05729,311.959584 290.446306,311.499802 L305.839894,306.402838 C307.227123,305.943056 308.725187,306.69624 309.184617,308.086321 L314.277676,323.491711 C314.737106,324.881792 313.984499,326.379215 312.595483,326.838997 Z" id="Shape" fill="#414042" fill-rule="nonzero"></path>
                            <path d="M338.775845,318.169328 L323.382257,323.266292 C321.995028,323.726074 320.496964,322.97289 320.037534,321.582809 L314.944475,306.17742 C314.485045,304.787339 315.237652,303.289915 316.626668,302.830133 L332.020257,297.733169 C333.409273,297.273387 334.905549,298.026571 335.364979,299.416652 L340.458038,314.822042 C340.91568,316.212123 340.163073,317.709546 338.775845,318.169328 Z" id="Shape" fill="#414042" fill-rule="nonzero"></path>
                            <path d="M189.900844,394.988748 L161.312497,404.456326 C159.925268,404.916109 158.427204,404.162924 157.967774,402.772843 L152.874715,387.367454 C152.415285,385.979162 153.167892,384.47995 154.556909,384.020167 L183.145256,374.552589 C184.532485,374.092806 186.030548,374.845991 186.489978,376.236072 L191.583038,391.641461 C192.04068,393.029753 191.288073,394.528965 189.900844,394.988748 Z" id="Shape" fill="#414042" fill-rule="nonzero"></path>
                            <path d="M216.079419,386.319079 L200.685831,391.416043 C199.298602,391.875825 197.800538,391.122641 197.341108,389.73256 L192.248049,374.32717 C191.788619,372.938878 192.541226,371.439666 193.930243,370.979884 L209.323831,365.88292 C210.711059,365.423138 212.209123,366.176322 212.668553,367.566403 L217.761612,382.971792 C218.221042,384.361873 217.468435,385.859297 216.079419,386.319079 Z" id="Shape" fill="#414042" fill-rule="nonzero"></path>
                            <path d="M242.257993,377.64941 L226.864405,382.746374 C225.477177,383.206156 223.979113,382.452972 223.519683,381.062891 L218.426624,365.657501 C217.967194,364.269209 218.719801,362.769997 220.108817,362.310215 L235.502405,357.213251 C236.889634,356.753469 238.387697,357.506653 238.847127,358.896734 L243.940187,374.302124 C244.399617,375.692205 243.64701,377.189628 242.257993,377.64941 Z" id="Shape" fill="#414042" fill-rule="nonzero"></path>
                            <path d="M268.438356,368.979741 L253.044767,374.076705 C251.657539,374.536487 250.159475,373.783303 249.700045,372.393222 L244.606986,356.987833 C244.147556,355.599541 244.900163,354.100328 246.289179,353.640546 L261.682767,348.543582 C263.069996,348.0838 264.56806,348.836984 265.02749,350.227065 L270.120549,365.632455 C270.578191,367.022536 269.825584,368.519959 268.438356,368.979741 Z" id="Shape" fill="#414042" fill-rule="nonzero"></path>
                            <path d="M294.61693,360.310073 L279.223342,365.407036 C277.836113,365.866819 276.33805,365.113634 275.87862,363.723553 L270.78556,348.318164 C270.32613,346.929872 271.078738,345.43066 272.467754,344.970877 L287.861342,339.873914 C289.24857,339.414131 290.746634,340.167316 291.206064,341.557397 L296.299123,356.962786 C296.758553,358.352867 296.005946,359.852079 294.61693,360.310073 Z" id="Shape" fill="#414042" fill-rule="nonzero"></path>
                            <path d="M320.797292,351.642193 L305.403704,356.739157 C304.016476,357.198939 302.518412,356.445755 302.058982,355.055674 L296.965923,339.650284 C296.506493,338.261992 297.2591,336.76278 298.648116,336.302998 L314.041704,331.206034 C315.428933,330.746252 316.926996,331.499436 317.386426,332.889517 L322.479486,348.294906 C322.937128,349.683198 322.184521,351.182411 320.797292,351.642193 Z" id="Shape" fill="#414042" fill-rule="nonzero"></path>
                            <path d="M346.975867,342.972524 L331.582279,348.069488 C330.19505,348.52927 328.696986,347.776086 328.237556,346.386005 L323.144497,330.980616 C322.685067,329.592324 323.437674,328.093111 324.82669,327.633329 L340.220279,322.536365 C341.607507,322.076583 343.105571,322.829767 343.565001,324.219848 L348.65806,339.625238 C349.11749,341.01353 348.363095,342.512742 346.975867,342.972524 Z" id="Shape" fill="#414042" fill-rule="nonzero"></path>
                            <path d="M373.154441,334.302855 L357.760853,339.399819 C356.371837,339.859601 354.875561,339.106417 354.416131,337.716336 L349.323072,322.310947 C348.863642,320.922655 349.616249,319.423443 351.005265,318.96366 L366.398853,313.866697 C367.786082,313.406914 369.284145,314.160099 369.743575,315.55018 L374.836635,330.955569 C375.296065,332.343861 374.543457,333.843073 373.154441,334.302855 Z" id="Shape" fill="#414042" fill-rule="nonzero"></path>
                            <path d="M399.334803,325.633187 L383.941215,330.73015 C382.553987,331.189933 381.055923,330.436749 380.596493,329.046668 L375.503434,313.641278 C375.044004,312.252986 375.796611,310.753774 377.185627,310.293992 L392.579215,305.197028 C393.966444,304.737246 395.464507,305.49043 395.923937,306.880511 L401.016997,322.2859 C401.474639,323.674192 400.722032,325.173404 399.334803,325.633187 Z" id="Shape" fill="#414042" fill-rule="nonzero"></path>
                            <path d="M425.513378,316.963518 L410.11979,322.060482 C408.732561,322.520264 407.234498,321.76708 406.775067,320.376999 L401.682008,304.971609 C401.222578,303.583317 401.975185,302.084105 403.364202,301.624323 L418.75779,296.527359 C420.146806,296.067577 421.643082,296.820761 422.102512,298.210842 L427.195571,313.616232 C427.655001,315.004524 426.902394,316.503736 425.513378,316.963518 Z" id="Shape" fill="#414042" fill-rule="nonzero"></path>
                            <path d="M198.13662,419.895708 L169.548272,429.363286 C168.161043,429.823069 166.66298,429.069884 166.20355,427.679803 L161.11049,412.274414 C160.65106,410.886122 161.403668,409.38691 162.792684,408.927127 L191.381031,399.459549 C192.76826,398.999766 194.266324,399.752951 194.725754,401.143032 L199.818813,416.548421 C200.276455,417.936713 199.523848,419.435925 198.13662,419.895708 Z" id="Shape" fill="#414042" fill-rule="nonzero"></path>
                            <path d="M224.315194,411.226039 L208.921606,416.323003 C207.534377,416.782785 206.036314,416.029601 205.576884,414.63952 L200.483825,399.23413 C200.024394,397.844049 200.777002,396.346626 202.166018,395.886844 L217.559606,390.78988 C218.946834,390.330098 220.444898,391.083282 220.904328,392.473363 L225.997387,407.878752 C226.45503,409.267044 225.702423,410.766257 224.315194,411.226039 Z" id="Shape" fill="#414042" fill-rule="nonzero"></path>
                            <path d="M250.493769,402.55637 L235.10018,407.653334 C233.712952,408.113116 232.214888,407.359932 231.755458,405.969851 L226.662399,390.564461 C226.202969,389.176169 226.955576,387.676957 228.344592,387.217175 L243.73818,382.120211 C245.125409,381.660429 246.623473,382.413613 247.082903,383.803694 L252.175962,399.209084 C252.635392,400.599165 251.882785,402.096588 250.493769,402.55637 Z" id="Shape" fill="#414042" fill-rule="nonzero"></path>
                            <path d="M276.674131,393.886701 L261.280543,398.983665 C259.893314,399.443447 258.39525,398.690263 257.93582,397.300182 L252.842761,381.894793 C252.383331,380.506501 253.135938,379.007288 254.524954,378.547506 L269.918543,373.450542 C271.305771,372.99076 272.803835,373.743944 273.263265,375.134025 L278.356324,390.539415 C278.813966,391.929496 278.061359,393.426919 276.674131,393.886701 Z" id="Shape" fill="#414042" fill-rule="nonzero"></path>
                            <path d="M302.852705,385.217033 L287.459117,390.313996 C286.071889,390.773779 284.573825,390.020594 284.114395,388.630513 L279.021336,373.225124 C278.561906,371.836832 279.314513,370.33762 280.703529,369.877837 L296.097117,364.780874 C297.484346,364.321091 298.982409,365.074276 299.441839,366.464357 L304.534899,381.869746 C304.994329,383.259827 304.241721,384.75725 302.852705,385.217033 Z" id="Shape" fill="#414042" fill-rule="nonzero"></path>
                            <path d="M329.03128,376.547364 L313.637692,381.644328 C312.250463,382.10411 310.752399,381.350926 310.292969,379.960845 L305.19991,364.555455 C304.74048,363.167163 305.493087,361.667951 306.882103,361.208169 L322.275692,356.111205 C323.664708,355.651423 325.160984,356.404607 325.620414,357.794688 L330.713473,373.200077 C331.172903,374.590158 330.420296,376.089371 329.03128,376.547364 Z" id="Shape" fill="#414042" fill-rule="nonzero"></path>
                            <path d="M355.211642,367.879484 L339.818054,372.976448 C338.430825,373.43623 336.932762,372.683046 336.473332,371.292965 L331.380272,355.887575 C330.920842,354.499284 331.67345,353.000071 333.062466,352.540289 L348.456054,347.443325 C349.843282,346.983543 351.341346,347.736727 351.800776,349.126808 L356.893835,364.532198 C357.351478,365.92049 356.59887,367.419702 355.211642,367.879484 Z" id="Shape" fill="#414042" fill-rule="nonzero"></path>
                            <path d="M381.390216,359.209815 L365.996628,364.306779 C364.6094,364.766561 363.111336,364.013377 362.651906,362.623296 L357.558847,347.217907 C357.099417,345.829615 357.852024,344.330403 359.24104,343.87062 L374.634628,338.773657 C376.021857,338.313874 377.519921,339.067058 377.979351,340.45714 L383.07241,355.862529 C383.53184,357.250821 382.779233,358.750033 381.390216,359.209815 Z" id="Shape" fill="#414042" fill-rule="nonzero"></path>
                            <path d="M407.570579,350.540147 L392.17699,355.63711 C390.789762,356.096893 389.291698,355.343709 388.832268,353.953628 L383.739209,338.548238 C383.279779,337.159946 384.032386,335.660734 385.421402,335.200952 L400.81499,330.103988 C402.202219,329.644206 403.700283,330.39739 404.159713,331.787471 L409.252772,347.19286 C409.710414,348.581152 408.957807,350.080364 407.570579,350.540147 Z" id="Shape" fill="#414042" fill-rule="nonzero"></path>
                            <path d="M193.12043,448.649095 L177.726842,453.746059 C176.337826,454.205841 174.84155,453.452657 174.38212,452.062576 L169.28906,436.657186 C168.82963,435.268894 169.582238,433.769682 170.971254,433.3099 L186.364842,428.212936 C187.75207,427.753154 189.250134,428.506338 189.709564,429.896419 L194.802623,445.301809 C195.260266,446.690101 194.507659,448.189313 193.12043,448.649095 Z" id="Shape" fill="#414042" fill-rule="nonzero"></path>
                            <path d="M219.299005,439.979426 L203.905416,445.07639 C202.518188,445.536172 201.020124,444.782988 200.560694,443.392907 L195.467635,427.987518 C195.008205,426.597437 195.760812,425.100013 197.149828,424.640231 L212.543416,419.543267 C213.930645,419.083485 215.428709,419.836669 215.888139,421.22675 L220.981198,436.63214 C221.440628,438.020432 220.688021,439.519644 219.299005,439.979426 Z" id="Shape" fill="#414042" fill-rule="nonzero"></path>
                            <path d="M245.479367,431.309758 L230.085779,436.406721 C228.696762,436.866504 227.200486,436.113319 226.741056,434.723238 L221.647997,419.317849 C221.188567,417.927768 221.941174,416.430345 223.33019,415.970562 L238.723779,410.873599 C240.111007,410.413816 241.609071,411.167001 242.068501,412.557082 L247.16156,427.962471 C247.619202,429.350763 246.866595,430.849975 245.479367,431.309758 Z" id="Shape" fill="#414042" fill-rule="nonzero"></path>
                            <path d="M271.657941,422.640089 L256.264353,427.737053 C254.877125,428.196835 253.379061,427.443651 252.919631,426.05357 L247.826572,410.64818 C247.367142,409.258099 248.119749,407.760676 249.508765,407.300894 L264.902353,402.20393 C266.289582,401.744148 267.787645,402.497332 268.247075,403.887413 L273.340135,419.292802 C273.797777,420.681094 273.04517,422.180307 271.657941,422.640089 Z" id="Shape" fill="#414042" fill-rule="nonzero"></path>
                            <path d="M389.465102,383.62658 L281.711772,419.310693 C280.324544,419.770475 278.82648,419.017291 278.36705,417.62721 L273.273991,402.22182 C272.814561,400.833528 273.567168,399.334316 274.956184,398.874534 L382.709514,363.190421 C384.096742,362.730638 385.594806,363.483823 386.054236,364.873904 L391.147295,380.279293 C391.604937,381.669374 390.85233,383.166797 389.465102,383.62658 Z" id="Shape" fill="#414042" fill-rule="nonzero"></path>
                            <path d="M415.616861,374.965856 L400.223273,380.06282 C398.836045,380.522602 397.337981,379.769418 396.878551,378.379337 L391.785492,362.973947 C391.326062,361.583866 392.078669,360.086443 393.467685,359.626661 L408.861273,354.529697 C410.248502,354.069915 411.746565,354.823099 412.205995,356.21318 L417.299055,371.61857 C417.756697,373.008651 417.00409,374.506074 415.616861,374.965856 Z" id="Shape" fill="#414042" fill-rule="nonzero"></path>
                            <path d="M441.795436,366.296187 L426.401848,371.393151 C425.014619,371.852933 423.516555,371.099749 423.057125,369.709668 L417.964066,354.304279 C417.504636,352.915987 418.257243,351.416774 419.64626,350.956992 L435.039848,345.860028 C436.427076,345.400246 437.92514,346.15343 438.38457,347.543511 L443.477629,362.948901 C443.937059,364.338982 443.182664,365.838194 441.795436,366.296187 Z" id="Shape" fill="#414042" fill-rule="nonzero"></path>
                            <path d="M467.97401,357.628308 L452.580422,362.725271 C451.193194,363.185054 449.69513,362.431869 449.2357,361.041788 L444.142641,345.636399 C443.683211,344.248107 444.435818,342.748895 445.824834,342.289112 L461.218422,337.192149 C462.605651,336.732366 464.103714,337.485551 464.563144,338.875632 L469.656204,354.281021 C470.115634,355.669313 469.363026,357.168525 467.97401,357.628308 Z" id="Shape" fill="#414042" fill-rule="nonzero"></path>
                            <path d="M494.154373,348.958639 L478.760784,354.055603 C477.371768,354.515385 475.875492,353.762201 475.416062,352.37212 L470.323003,336.96673 C469.863573,335.578438 470.61618,334.079226 472.005196,333.619444 L487.398784,328.52248 C488.786013,328.062698 490.284077,328.815882 490.743507,330.205963 L495.836566,345.611352 C496.294208,346.999644 495.541601,348.498857 494.154373,348.958639 Z" id="Shape" fill="#414042" fill-rule="nonzero"></path>
                            <path d="M520.36155,340.280025 L504.967962,345.376989 C503.580733,345.836771 502.082669,345.083587 501.623239,343.693506 L496.53018,328.288116 C496.07075,326.899824 496.823357,325.400612 498.212373,324.94083 L513.605962,319.843866 C514.994978,319.384084 516.491254,320.137268 516.950684,321.527349 L522.043743,336.932738 C522.501385,338.32103 521.748778,339.820243 520.36155,340.280025 Z" id="Shape" fill="#414042" fill-rule="nonzero"></path>
                            <path d="M459.824043,333.234801 L418.25188,347.001433 C416.864652,347.461216 415.366588,346.708031 414.907158,345.31795 L409.814099,329.912561 C409.354669,328.524269 410.107276,327.025057 411.496292,326.565275 L453.068455,312.798642 C454.455683,312.33886 455.953747,313.092044 456.413177,314.482125 L461.506236,329.887514 C461.963879,331.277596 461.211272,332.775019 459.824043,333.234801 Z" id="Shape" fill="#414042" fill-rule="nonzero"></path>
                            <path d="M512.286664,315.861472 L496.893076,320.958436 C495.505848,321.418218 494.007784,320.665034 493.548354,319.274953 L488.455295,303.869563 C487.995865,302.481271 488.748472,300.982059 490.137488,300.522277 L505.531076,295.425313 C506.918305,294.965531 508.416368,295.718715 508.875798,297.108796 L513.968858,312.514185 C514.428288,313.902477 513.67568,315.40169 512.286664,315.861472 Z" id="Shape" fill="#414042" fill-rule="nonzero"></path>
                            <path d="M486.10809,324.531141 L470.714502,329.628104 C469.327273,330.087887 467.829209,329.334702 467.369779,327.944621 L462.27672,312.539232 C461.81729,311.15094 462.569897,309.651728 463.958913,309.191945 L479.352502,304.094982 C480.73973,303.635199 482.237794,304.388384 482.697224,305.778465 L487.790283,321.183854 C488.247925,322.572146 487.495318,324.071358 486.10809,324.531141 Z" id="Shape" fill="#414042" fill-rule="nonzero"></path>
                            <path d="M323.076847,464.239127 L424.85282,464.239127 L424.85282,471.820817 L424.85282,471.820817 C424.85282,477.89595 419.927952,482.820817 413.85282,482.820817 L334.076847,482.820817 L334.076847,482.820817 C328.001715,482.820817 323.076847,477.89595 323.076847,471.820817 L323.076847,464.239127 Z" id="Rectangle-path" fill="#B3B5B8" fill-rule="nonzero" transform="translate(373.964834, 473.529972) rotate(-18.311748) translate(-373.964834, -473.529972) "></path>
                        </g>
                    </g>
                </g>
                <g id="usb" mask="url(#mask-2)">
                    <g transform="translate(1204.000000, 77.000000)">
                        <g id="Group-6" opacity="0.25" stroke-width="1" fill="none" transform="translate(0.000000, 1.663754)">
                            <path d="M38.2558154,59.5707231 L27.6164308,27.1181077 L23.9264308,28.3268769 L20.7708923,18.6982615 L8.87012308,22.6001077 L8.42289231,22.7468769 L11.5784308,32.3741077 L7.88981538,33.5842615 L8.62366154,35.8218 L18.5292,66.0368769 C19.3267385,68.4710308 21.9464308,69.7961077 24.3792,68.9985692 L35.2941231,65.4207231 C37.7282769,64.6231846 39.0533538,62.0034923 38.2558154,59.5707231" id="Fill-1" fill="#808285"></path>
                            <g id="Group-5">
                                <mask id="mask-4" fill="white">
                                    <use xlink:href="#path-3"></use>
                                </mask>
                                <g id="Clip-4"></g>
                                <path d="M19.9596462,3.85338462 C19.1621077,1.42061538 16.5424154,0.0941538462 14.1082615,0.891692308 L3.19333846,4.46953846 C0.760569231,5.26707692 -0.565892308,7.88676923 0.231646154,10.3195385 L2.92333846,18.5316923 L22.6499538,12.0641538 L19.9596462,3.85338462 Z" id="Fill-3" fill="#808285" mask="url(#mask-4)"></path>
                            </g>
                        </g>
                        <g id="Group-9" stroke-width="1" fill="none" transform="translate(8.307692, 25.202215)">
                            <mask id="mask-6" fill="white">
                                <use xlink:href="#path-5"></use>
                            </mask>
                            <g id="Clip-8"></g>
                            <path d="M28.4634,39.5579077 L17.5470923,43.1371385 C15.1129385,43.9346769 12.4946308,42.6082154 11.6970923,40.1754462 L1.05770769,7.72144615 L20.7857077,1.25529231 L31.4250923,33.7079077 C32.2226308,36.1420615 30.8961692,38.7603692 28.4634,39.5579077" id="Fill-7" fill="#6087C7" mask="url(#mask-6)"></path>
                        </g>
                        <polygon id="Fill-10" fill="#E6E7E8" points="22.2462 18.0396 9.89958462 22.0868308 13.0551231 31.7140615 25.4031231 27.6668308"></polygon>
                        <polygon id="Fill-12" fill="#F5F6F7" points="9.89958462 22.0872462 10.3468154 21.9404769 13.5037385 31.5677077 13.0551231 31.7144769"></polygon>
                        <polygon id="Fill-14" fill="#F5F6F7" points="21.7999385 18.1855385 22.2457846 18.0401538 25.4040923 27.6673846 24.9554769 27.8141538"></polygon>
                        <polygon id="Fill-16" fill="#CC372E" points="29.8264154 28.6953231 10.0998 35.1614769 9.36595385 32.9239385 29.0939538 26.4577846"></polygon>
                        <path d="M4.66933846,3.81073846 L15.5856462,0.232892308 C18.0184154,-0.566030769 20.6367231,0.760430769 21.4342615,3.1932 L24.1273385,11.4039692 L4.40072308,17.8715077 L1.70764615,9.66073846 C0.910107692,7.22796923 2.23518462,4.60827692 4.66933846,3.81073846" id="Fill-18" fill="#6087C7"></path>
                        <polygon id="Fill-20" fill="#ACAEB0" points="14.2548923 26.6365385 13.7938154 25.227 16.0078154 24.5014615 16.4702769 25.911"></polygon>
                        <polygon id="Fill-22" fill="#ACAEB0" points="19.2159692 25.0105846 18.7535077 23.6010462 20.9688923 22.8755077 21.4299692 24.2850462"></polygon>
                    </g>
                </g>
                <g id="postit" mask="url(#mask-2)">
                    <g transform="translate(762.000000, 77.000000)">
                        <g id="Group-3" opacity="0.200000003" stroke-width="1" fill="none">
                            <mask id="mask-8" fill="white">
                                <use xlink:href="#path-7"></use>
                            </mask>
                            <g id="Clip-2"></g>
                            <polygon id="Fill-1" fill="#808285" mask="url(#mask-8)" points="0.000478349282 17.4474528 2.48151663 26.5975283 9.41439222 85.9991887 68.9816339 68.3432264 61.7792882 9.94273585 59.2982499 0.792660377"></polygon>
                        </g>
                        <polygon id="Fill-4" fill="#FAF15B" points="59.4173138 0 0 16.6435797 16.3984756 76.9473684 75.8157895 60.3054102"></polygon>
                        <g id="Group-28" stroke-width="1" fill="none">
                            <path d="M10.1770003,33.3477825 C10.4530766,33.8675544 10.9605462,33.8806304 11.0068249,33.2431743 C11.014804,33.1075105 11.0259747,32.9718468 11.0355496,32.8345485 C11.2126852,33.2023117 11.3914167,33.5700749 11.5685523,33.937838 C11.8653742,34.5458731 12.3760354,34.5262591 12.431889,33.8937064 C12.4765719,33.391914 12.5212547,32.8917561 12.5659376,32.3915982 C12.7143485,32.8933906 12.8739302,33.3902795 13.1005361,33.8642854 C13.3893789,34.4690515 13.9159983,34.4608789 13.962277,33.8217883 C13.9941933,33.4049901 14.0181306,32.9865573 14.0420678,32.5681246 C14.3995307,33.3347064 14.814443,34.0032181 15.2485051,33.9852386 C15.6602257,33.9672591 15.8517237,33.3298029 15.9426852,32.5795661 C16.1613121,33.1402006 16.3831306,33.6975661 16.6049491,34.2532971 C16.8171926,34.779607 17.3517912,34.8891187 17.4411569,34.3873263 C17.4842439,34.1437854 17.5145644,33.9018789 17.5369059,33.658338 C17.7714909,33.7613117 17.9709679,33.5733439 18.0268215,33.1957737 C18.0842709,32.790417 18.2135321,32.4896684 18.4146049,32.2902591 C18.831113,31.7427006 18.0172466,30.5298994 17.6039302,31.0725544 C17.5033937,31.2049491 17.4220071,31.3455164 17.3517912,31.4942561 C17.0613526,31.0545749 16.6368654,31.1036099 16.5873951,31.6609754 C16.3639808,31.0856304 16.1421623,30.5086509 15.9235354,29.9300368 C15.6825671,29.2909462 15.0745611,29.3595953 15.0617945,29.9741684 C15.0458364,30.6475836 15.0617945,31.5089667 14.8958296,32.1235398 C14.5814538,31.5432912 14.1745206,30.4301947 14.0101515,30.0738731 C13.7404585,29.485452 13.1691562,29.4593 13.1484106,30.1180047 C13.1372399,30.4252912 13.1228775,30.7309433 13.110111,31.0365953 C12.9744666,30.5789345 12.8292473,30.1245427 12.6361535,29.6897649 C12.3505024,29.0539433 11.8270746,29.1242269 11.7728168,29.7338965 C11.7121758,30.4171187 11.6515348,31.1003409 11.5908937,31.7835632 C11.4041832,31.399455 11.2174727,31.0153468 11.032358,30.6312386 C10.7514943,30.0509901 10.2504079,30.0362795 10.1785962,30.6247006 C9.93443623,30.3452006 9.57378171,30.3975047 9.49877834,30.7669023 C9.38547537,31.3291713 9.2721724,31.8881713 9.15727362,32.4504404 C9.15089035,32.4863994 9.14450709,32.5223585 9.136528,32.5583175 C9.12376147,32.5158205 9.11259076,32.4733234 9.09982422,32.4324608 C8.80619399,31.4435865 7.91413259,31.6903965 8.21095445,32.6841743 C8.40085661,33.3216304 8.55245918,34.0440807 8.83970614,34.6259637 C8.99609615,34.9430573 9.21312719,35.1195836 9.42058333,35.075452 C9.82751653,34.9871889 10.0365685,34.1862825 10.1770003,33.3477825" id="Fill-5" fill="#0D7E81"></path>
                            <path d="M20.8895567,33.0045368 C21.0475425,33.102607 21.2613819,33.0715515 21.3379811,32.8770456 C21.5438414,32.3605427 21.6124615,31.6544374 21.6555486,30.9417942 C22.1885513,31.8407708 22.8316653,32.7920515 23.3327517,32.5877386 C23.6327652,32.4651509 23.7077686,31.9355719 23.8051134,31.5285807 C23.9184163,31.0562094 24.0269318,30.5773 24.1370432,30.1032942 C24.1450223,30.0706041 24.156193,30.0330105 24.1705553,29.992148 C24.2902416,30.3468351 24.4354609,30.6557561 24.7673907,30.7505573 C25.112087,30.846993 25.2972018,30.5086509 25.4280587,30.0983906 C25.651473,30.2651099 25.8844622,30.2798205 26.1094723,30.0575281 C26.5706633,29.5998673 25.9323367,28.1647737 25.4679541,28.6257035 C25.4918914,28.607724 25.5142328,28.5897444 25.5397659,28.5733994 C25.278052,28.051993 24.8455857,27.9473848 24.703558,28.4393702 C24.6907915,28.4867708 24.6764291,28.5358058 24.6620668,28.5832064 C24.5711053,28.3625485 24.4354609,28.1500632 24.3253495,27.9980544 C24.1849177,27.801914 23.9902281,27.6564433 23.8386255,27.7218234 C23.2960479,27.9571918 23.2242362,29.1323994 23.0471005,29.8940778 C23.0040135,30.0755076 22.8540067,30.4481743 22.8268779,30.7113292 C22.6034636,30.1392532 21.7991721,29.192876 21.5310749,28.7809813 C21.2182949,28.3037064 20.8097659,28.4687912 20.7634872,28.9983702 C20.7204001,29.478914 20.729975,30.2798205 20.6709298,30.9205456 C20.4267699,30.3746216 20.1203731,29.6423643 20.043774,29.4870865 C19.6081161,28.5930135 18.8596781,29.2402766 19.2985277,30.1425222 C19.7054609,30.9810222 20.2528259,32.6089871 20.8895567,33.0045368" id="Fill-7" fill="#0D7E81"></path>
                            <path d="M27.9334906,29.5392272 C27.973386,29.2989553 28.0116856,29.0570488 28.0499852,28.8151424 C28.3180823,29.4264465 28.6436289,29.9331424 29.0569453,30.0802477 C29.2356768,30.1423588 29.3697254,29.9576599 29.4351538,29.7566161 C29.4479204,29.7222915 29.4543036,29.6830635 29.4654744,29.6454699 C29.5420735,29.691236 29.6282476,29.717388 29.7239966,29.704312 C29.9059197,29.6781599 30.0383725,29.4950956 30.1389089,29.2499202 C30.3511525,29.5114406 30.6256329,29.6078763 30.7580857,29.2956863 C30.8314933,29.1158909 30.8969217,28.9344611 30.9575628,28.7513968 C31.2575762,29.6062418 31.6325931,30.4414728 32.0746343,30.523198 C32.5422085,30.6081921 32.6954069,30.0361161 32.6985985,29.3872184 C32.9698873,29.1469465 32.9044588,28.2218178 32.4320972,27.8998208 C32.3523063,27.8458822 32.2725155,27.7919436 32.1927247,27.738005 C31.9246275,27.5549406 31.7490877,27.75435 31.6916383,28.0698091 C31.4777989,27.451967 31.2671511,26.7491307 31.172998,26.5023208 C30.9128799,25.807657 30.3671107,25.9907213 30.3112571,26.5448178 C30.2905115,26.7556687 30.260191,26.9403675 30.2266788,27.1201629 C29.9761356,26.7736482 29.5995229,26.7573032 29.5053698,27.182274 C29.4766451,27.3130342 29.4479204,27.4421599 29.4191957,27.5712857 C29.3968543,27.6023412 29.3777045,27.6317623 29.3633421,27.6611833 C29.0872659,27.3375518 28.7744858,27.3947594 28.6787368,27.8328061 C28.4984096,27.3113997 28.2749953,26.6772126 28.2638246,26.646157 C28.0068981,25.8697681 27.4244251,25.774967 27.3302719,26.4876102 C27.2744184,26.9044085 27.2153731,27.3146687 27.1515405,27.7232944 C27.0318543,27.5369611 26.912168,27.3473588 26.7956734,27.1463149 C26.3089494,26.3094494 25.7552011,27.3146687 26.2387335,28.1482652 C26.5419386,28.6664026 26.8499312,29.1306015 27.1930317,29.5784553 C27.4387874,29.9037213 27.8521039,30.016502 27.9334906,29.5392272" id="Fill-9" fill="#0D7E81"></path>
                            <path d="M55.4566967,22.6300199 C55.6769194,22.5368532 55.8652257,22.4780111 55.9833161,22.3472509 C56.1460894,22.3619614 56.2992878,22.2998503 56.4285489,22.139669 C56.6008971,21.9271836 56.5897264,21.5953795 56.6918586,21.317514 C56.8099491,21.0036895 56.5881306,20.9170608 56.9168688,21.0167655 C57.1530496,21.0886836 57.2296488,21.4155842 57.3924221,21.6950842 C58.4137446,23.4554439 58.7743991,21.7228708 59.0935624,20.3842129 C59.227611,20.7078444 59.3776177,21.0004205 59.5563492,21.1851193 C60.0334983,21.6803737 60.644696,21.4989439 61.1042912,21.5071164 C61.7091056,21.5185579 61.5447365,19.9527041 60.9367304,19.9412626 C60.7117203,19.9379936 60.1483971,20.0834643 59.9393451,19.8644409 C59.7366765,19.6503211 59.4941123,18.756248 59.3696387,18.4211749 C59.1909072,17.9455345 58.7472702,17.8278503 58.5908802,18.1416749 C58.3786366,18.5682801 58.2094801,19.0210374 58.0754315,19.5440784 C58.0179821,19.7631018 57.966916,20.3024877 57.8823377,20.6604439 C57.4546589,20.0115462 57.2184781,19.1403561 56.5370644,19.0733415 C56.201943,19.0406515 55.3577561,19.9935667 55.8077763,20.745438 C55.5029754,20.2371076 55.1024254,20.4577655 55.0465719,20.9350404 C55.0066765,20.9350404 54.9683769,20.9366749 54.9396522,20.9432129 C54.6859173,20.998786 54.4114369,21.7898854 54.1178067,21.5250959 C53.9183296,21.3453006 53.6598074,21.3093415 53.5465044,21.5561515 C53.4443721,21.8683415 53.2863863,22.0759234 53.0709511,22.1772626 C52.9943519,21.9827567 52.924136,21.7800784 52.8507284,21.580669 C52.671997,21.1033942 52.22836,20.9873444 52.07197,21.301169 C51.880472,21.6852772 51.6682284,22.0072743 51.4304518,22.2884088 C51.4176852,22.2508152 51.4049187,22.2115871 51.3921522,22.1739936 C51.2277831,21.6460491 50.741059,21.2390579 50.5431778,21.6918152 C50.3373175,22.162552 50.1011366,22.5107012 49.802719,22.7558766 C49.7995273,22.6349234 49.7915482,22.5123357 49.7723984,22.3832099 C49.6511164,21.5299994 48.8292709,21.1295462 48.7989504,22.0138123 C48.7925671,22.2034146 48.7925671,22.3799409 48.8005462,22.5531982 C48.7159679,23.0386456 48.297864,23.3083386 48.0600874,23.4554439 C47.6754956,23.6957158 47.4792102,23.7512889 47.2781373,22.8997129 C47.0930226,22.1118825 46.3812885,22.0317918 46.3445847,22.7411661 C46.31586,23.3067041 46.2727729,23.9098357 46.1099997,24.3707655 C45.7876447,23.8526281 45.5083769,22.7722216 45.4014572,22.3407129 C45.1572972,21.3338591 44.2668316,21.587207 44.5141832,22.5924263 C44.7822804,23.6957158 45.4429484,25.8254731 46.2727729,26.1082421 C46.7706677,26.2782304 47.0275941,25.6293327 47.1664302,24.8676544 C47.4824018,25.194555 47.8590145,25.2942596 48.289885,25.1308094 C48.6154315,25.0065871 48.9744902,24.7679497 49.2617372,24.4148971 C49.3941899,24.5734439 49.55058,24.6633415 49.6862244,24.6143064 C50.1697567,24.4410491 50.5719025,24.1386661 50.907024,23.6859088 C51.0793721,24.115783 51.3905563,24.365862 51.6315246,24.1648181 C51.9522837,23.8951251 52.2299558,23.5747626 52.4820948,23.2004614 C52.6336974,23.511017 52.8188121,23.7463854 53.0916967,23.823207 C53.5417169,23.9506982 53.9279045,23.540438 54.1944059,23.0827772 C54.7274086,23.3148766 54.9971016,22.8228912 55.4566967,22.6300199" id="Fill-11" fill="#0D7E81"></path>
                            <path d="M16.1362578,39.0101909 C15.9224184,39.0919161 15.5936802,38.6555038 15.3335621,38.7290564 C15.3303704,38.7306909 15.3271788,38.7306909 15.3223914,38.7323254 C15.1835553,38.3760038 15.0654649,37.9902611 14.9393954,37.6339395 C14.7367267,37.0684015 14.2005324,37.0422494 14.1031876,37.5015447 C13.9499892,38.220726 13.8462611,39.2488284 13.6372092,40.0072377 C13.4153907,39.5479424 13.1281437,38.8663547 13.0467571,38.7045389 C12.7706808,38.1569804 12.1977827,38.0556412 12.1834204,38.7486705 C12.1802287,38.9987494 12.1738455,39.2488284 12.169058,39.4989073 C11.8052119,38.5999307 11.4158327,37.7238371 10.9658124,36.8886061 C10.6099453,36.2299015 10.0546012,36.3197991 10.1072632,37.1305126 L10.2508866,39.3567056 C10.3147193,40.3047173 11.1876309,40.4992231 11.221143,39.6672611 C11.5817976,40.5270096 11.9137274,41.4112757 12.239274,42.3086178 C12.473859,42.955881 13.0898441,42.8725213 13.1026107,42.2644863 C13.1105897,41.8771091 13.116973,41.4897319 13.1265479,41.1023547 C13.3308124,41.4701178 13.5542267,41.7741354 13.7967908,41.9048956 C13.969139,41.9980623 14.1526579,41.9686412 14.2452152,41.7790389 C14.5005459,41.272343 14.647361,40.5547962 14.7750263,39.8323459 C14.9250331,40.1053079 15.1053603,40.3145243 15.3383495,40.3913459 C15.5043144,40.4452845 15.638363,40.3243313 15.7963489,40.3651939 C16.1027456,40.4452845 16.2639231,40.6773839 16.5559575,40.5646032 C17.1113016,40.3521178 16.6963893,38.7960711 16.1362578,39.0101909" id="Fill-13" fill="#0D7E81"></path>
                            <path d="M22.235947,37.3398924 C21.9008256,37.2581673 21.7364565,37.1682696 21.7715644,37.679869 C21.7109234,36.7956029 20.8332244,36.4785094 20.7981164,37.3104713 C20.7438586,38.5330795 20.193302,38.7259509 19.4464599,38.1653164 C19.2294288,38.0035006 19.0395267,37.7893807 18.8113249,37.7011175 C18.3836461,37.5376673 17.9192635,38.2731936 17.5442466,37.7305386 C17.2937034,37.3725825 16.9330489,37.3447959 16.8165543,37.7289041 C16.4941994,37.0227988 15.7856569,37.3104713 16.0138586,38.2241585 C16.1798235,38.8910357 16.3362136,39.8946205 16.8612372,40.1218164 C17.2506164,40.2901702 17.4389227,39.892986 17.5618006,39.4287871 C17.7947898,39.6412725 18.0373539,39.7654947 18.279918,39.6952111 C18.4219457,39.6543485 18.514503,39.4353251 18.6421684,39.3944626 C19.0762304,39.2604333 19.3363485,39.7197287 19.7512608,39.9305795 C20.6385348,40.3817023 21.3359065,39.8701029 21.6295368,38.8354626 C21.8848674,38.8746906 22.1609437,38.8469041 22.4019119,38.9057462 C23.0322594,39.0626585 22.8615071,37.4951702 22.235947,37.3398924" id="Fill-15" fill="#0D7E81"></path>
                            <path d="M42.5966501,25.9158611 C42.2663161,25.3372471 41.8833202,24.3745249 41.3997878,24.3189518 C41.224248,24.2993377 41.0391333,24.5575892 40.8891265,24.8207442 C40.9002972,24.6899839 40.9130638,24.5641272 40.9274261,24.4480775 C41.0343458,23.5262178 40.0688769,22.9933699 39.9491906,23.8792705 C39.8263128,24.7815161 39.4911913,25.4745453 39.0810665,26.0188348 C38.7619032,26.4421711 38.3900779,26.3571769 38.2209214,25.8112529 C38.1953883,25.6102091 38.163472,25.4075307 38.1267682,25.2048523 C37.946441,24.186557 37.1245955,24.0410863 37.1597034,25.0332295 C37.1692783,25.304557 37.1948114,25.584057 37.2394943,25.8586535 C37.2347068,25.863557 37.2299194,25.8684605 37.2267277,25.8749985 C37.1214038,25.8210599 37.0112925,25.8145219 36.9075644,25.8913436 C36.7096832,26.0335453 36.3969032,26.2983348 36.14636,26.2166096 C35.798472,26.1021944 35.8192176,25.8684605 35.5830368,25.7246243 C35.3819639,25.6020365 35.2399362,25.5170424 35.059609,25.6363611 C34.9351353,25.7180863 34.885665,25.8749985 34.833003,26.0498904 C34.5824599,25.6428991 34.1707392,25.584057 34.0670111,26.0417178 C34.0606279,26.0662354 33.9999868,26.3244868 33.9409416,26.5811038 C33.8372136,26.432364 33.7318897,26.2852588 33.6281616,26.1381535 C33.0967547,25.3797442 32.5366231,26.3767909 33.0712217,27.1401038 C33.4254929,27.6402617 33.9058337,28.5899079 34.363833,28.5245278 C34.5633101,28.4951067 34.6861879,28.2858904 34.772362,28.0145629 C34.833003,28.083212 34.8984315,28.1420541 34.9702433,28.1763787 C35.3213229,28.3480015 35.5973991,27.9361067 35.6516569,27.4555629 L35.6516569,27.4522939 C35.780918,27.5552675 35.9165624,27.6337237 36.0218863,27.6811243 C36.6171258,27.9573553 37.0926791,27.6517032 37.5474868,27.3231681 C37.5714241,27.3068231 37.5889781,27.2839401 37.6081279,27.2626915 C37.6145111,27.2659605 37.6208944,27.270864 37.6272777,27.274133 C37.6432358,27.2806711 37.6623856,27.2872091 37.6799396,27.2937471 C37.9608033,27.8314985 38.3533742,28.1780132 38.859248,28.1175365 C39.4576791,28.0439839 39.9507864,27.4294108 40.3098451,26.6383114 C40.3736778,26.718402 40.4454895,26.7886857 40.5300678,26.8426243 C40.7933775,27.0126126 41.0487082,26.8998319 41.2513769,26.7461886 C41.4093627,26.6268699 41.5450071,26.432364 41.6519268,26.2264167 C41.6519268,26.2247822 41.6535226,26.2215132 41.6551184,26.2215132 C41.7859754,26.4536126 41.9120449,26.695519 42.0397102,26.9178114 C42.5216468,27.7595804 43.0753951,26.7543611 42.5966501,25.9158611" id="Fill-17" fill="#0D7E81"></path>
                            <path d="M45.4455017,31.6820605 C44.9396279,31.7850342 44.3348134,31.8651249 43.7938316,31.2701658 C43.591163,31.0478734 43.5065847,30.7569319 43.2576373,30.6457857 C42.9400698,30.5035839 42.1549281,31.5643763 42.0559875,31.3322769 C41.8182109,30.7667389 41.3522325,30.7438558 41.2213755,31.1982477 C41.1639261,31.394388 41.0059403,32.1201073 40.8495503,32.2819231 C40.8383796,32.2508675 40.7665678,32.1805839 40.6500732,31.9909816 C40.3356974,31.4793822 39.9415307,31.7098471 39.8824855,32.2083705 C39.8282277,32.6529553 39.7947156,33.1334991 39.5425766,32.8065985 C39.539385,32.8033295 39.2712878,31.9713675 39.295225,32.0351132 C38.947337,31.0723909 38.2036866,31.7343646 38.5483829,32.6921833 C38.8755253,33.597698 39.043086,35.0769231 39.8808897,35.0785576 C40.3053769,35.0785576 40.5463451,34.4950401 40.6915644,33.8510459 C40.8479545,33.9867096 41.0234943,34.0275722 41.2532918,33.913157 C41.5325597,33.7742243 41.7272493,33.3966541 41.8804477,32.9765868 C42.0192837,33.1253266 42.1708863,33.2266658 42.3416387,33.2479143 C42.7916589,33.3051219 42.9608155,32.5794026 43.2672122,32.2949991 C43.495414,32.6431482 43.6629747,32.8997652 44.0571414,33.0828295 C44.6842972,33.3770401 45.2923033,33.3525225 45.8652014,33.2364728 C46.4476744,33.1171541 46.0279747,31.5627418 45.4455017,31.6820605" id="Fill-19" fill="#0D7E81"></path>
                            <path d="M33.462835,35.6694304 C32.7479092,35.7920181 32.5276866,36.9819363 31.6834997,35.4291585 C31.4265732,34.9567871 31.1106016,34.8538135 30.9191036,35.154562 C30.6749437,34.8292959 30.3557804,34.8243924 30.2137527,35.2248456 C30.2121569,35.2281146 29.8163944,36.3150591 29.7828823,36.1238222 C29.6264922,35.2281146 28.9131623,34.9290006 28.8094342,35.7544246 L28.8094342,35.7544246 C28.7456016,35.6056848 28.5987864,35.3670474 28.5221872,35.2755152 C28.3466474,35.0564918 28.132808,34.891407 27.9429059,34.9404421 C27.7115125,34.9992842 27.6253384,35.3572404 27.524802,35.6351058 C27.2343634,36.4458193 27.6173593,36.574945 27.081165,35.989793 C26.8880712,35.7789421 26.6215698,35.8001906 26.5098627,36.0208485 C26.3438978,36.3477491 26.2417655,36.7825269 26.1587831,37.2369187 C25.628972,36.1434363 25.0528823,35.1071614 24.4273222,34.1166526 C23.9198526,33.3124772 23.3629126,34.312793 23.8703823,35.1186029 C24.6842487,36.4049567 25.394387,37.7697667 26.037501,39.2555298 C26.2609153,39.7736673 26.7731724,39.896255 26.8737088,39.3895591 C26.9630746,38.9351673 27.0237156,38.2993456 27.1402102,37.7877462 C27.2822379,37.9708105 27.4322446,38.0901292 27.681192,38.0410942 C28.1024875,37.959369 28.1918532,37.3693135 28.34186,36.8528105 C28.455163,37.107793 28.576445,37.4118105 28.6849605,37.5425708 C28.8509254,37.7436146 29.045615,37.9037959 29.2307298,37.8907199 C29.3887156,37.8792784 29.4940395,37.7664977 29.5690428,37.6014129 C29.68075,37.7011175 29.8020321,37.7795737 29.9344848,37.8171673 C30.4068465,37.952831 30.6510064,37.5736263 30.8345253,37.0832754 C30.9637864,37.1731731 31.0994308,37.1895181 31.2191171,37.0881789 C31.289333,37.0293368 31.349974,36.9639567 31.4058276,36.8969421 C31.7026495,37.3644099 32.0329835,37.7550561 32.4271501,37.9086994 C33.1245219,38.1800269 33.3016576,37.3235474 33.8809389,37.2238427 C34.4697952,37.124138 34.0484997,35.5697257 33.462835,35.6694304" id="Fill-21" fill="#0D7E81"></path>
                            <path d="M35.4871282,34.1753313 C35.4998947,34.1017787 35.2653097,34.2014833 35.2254143,34.2309044 C35.1105155,34.3158985 35.062641,34.4172377 35.0131707,34.6052056 C34.9557213,34.8324015 35.0275331,35.4077465 34.8982719,35.5270652 C34.7307112,35.6774395 34.5870877,35.1772816 34.4658057,34.9795067 C34.1801545,34.5055009 33.9998273,34.4041617 33.6567267,34.2701325 C33.3854379,34.1655243 33.6567267,34.3191675 33.4428873,34.0772611 C33.280114,33.8958313 33.1668111,33.7536295 32.984888,33.6620974 C32.3529447,33.3384658 32.2635789,34.8078839 32.8971181,35.129881 C33.0662746,35.2165096 33.254581,35.6251354 33.4396957,35.7542611 C33.5801275,35.8523313 33.7077928,35.8605038 33.8338623,35.8506968 C34.0780223,36.1857699 34.2583495,36.6597757 34.5424049,36.9376412 C34.7833731,37.1713751 35.0578536,37.3086734 35.2908428,37.2383898 C35.7600128,37.092919 35.8509744,36.3639307 35.9291694,35.679074 C36.1541795,35.6202319 36.3297193,35.5711968 36.4111059,35.0971909 C36.5611127,34.2243664 35.6387308,33.2959687 35.4871282,34.1753313" id="Fill-23" fill="#0D7E81"></path>
                            <g id="Group-27">
                                <mask id="mask-10" fill="white">
                                    <use xlink:href="#path-9"></use>
                                </mask>
                                <g id="Clip-26"></g>
                                <polygon id="Fill-25" fill="#FBF484" mask="url(#mask-10)" points="61.8305472 10.0154167 2.48372874 26.7919547 0.000638326586 17.5749927 59.3474568 0.798454678"></polygon>
                            </g>
                        </g>
                    </g>
                </g>
                <g id="mouse" mask="url(#mask-2)">
                    <g transform="translate(1188.000000, 163.000000)">
                        <g id="Group-3" opacity="0.300000012" stroke-width="1" fill="none" transform="translate(0.000000, 5.042715)">
                            <mask id="mask-12" fill="white">
                                <use xlink:href="#path-11"></use>
                            </mask>
                            <g id="Clip-2"></g>
                            <path d="M18.8878279,1.94069016 L18.8878279,1.94069016 C4.34548361,6.86816557 -3.44972951,22.6539689 1.4777459,37.1963131 L13.8924672,73.8328213 C18.8215984,88.3768213 34.6057459,96.1703787 49.1497459,91.2429033 C63.6937459,86.3154279 71.488959,70.5296246 66.5598279,55.9872803 L54.1451066,19.3507721 C49.2159754,4.80677213 33.4318279,-2.98844098 18.8878279,1.94069016" id="Fill-1" fill="#808285" mask="url(#mask-12)"></path>
                        </g>
                        <g id="Group-6" stroke-width="1" fill="none" transform="translate(1.655738, 0.075502)">
                            <mask id="mask-14" fill="white">
                                <use xlink:href="#path-13"></use>
                            </mask>
                            <g id="Clip-5"></g>
                            <path d="M66.9317066,57.1047377 L54.5169852,20.4682295 C49.5895098,5.92422951 33.8037066,-1.86932787 19.2613623,3.05814754 C4.7173623,7.98727869 -3.07619508,23.7714262 1.85128033,38.3154262 L14.2643459,74.9519344 C19.193477,89.4942787 34.9792803,97.2894918 49.5216246,92.3603607 C64.0672803,87.4328852 71.8608377,71.6487377 66.9317066,57.1047377" id="Fill-4" fill="#E6E7E8" mask="url(#mask-14)"></path>
                        </g>
                        <path d="M20.8944164,3.07619508 C6.35041639,8.00367049 -1.44314098,23.7894738 3.48267869,38.331818 L15.8974,74.9683262 C20.8265311,89.5123262 36.6106787,97.3075393 51.1546787,92.3784082 L20.8944164,3.07619508 Z" id="Fill-7" fill="#D9DCDE"></path>
                        <path d="M30.655818,31.8752689 L30.655818,31.8752689 C29.0961131,32.4034492 27.4022934,31.5673016 26.8741131,30.0075967 L22.0625393,15.8079902 C21.5327033,14.2482852 22.3688508,12.5544656 23.9302115,12.0262852 C25.4899164,11.4964492 27.1820803,12.3325967 27.7119164,13.8939574 L32.5234902,28.0935639 C33.0516705,29.6532689 32.215523,31.3470885 30.655818,31.8752689" id="Fill-9" fill="#BCBEC0"></path>
                    </g>
                </g>
                <g id="coffee" mask="url(#mask-2)">
                    <g transform="translate(330.000000, -50.000000)">
                        <path d="M16.6954185,27.6954185 C38.9559764,5.43486051 75.0455146,5.43486051 97.3045815,27.6954185 C119.565139,49.9559764 119.565139,86.0455146 97.3045815,108.304582 C75.0455146,130.565139 38.9559764,130.565139 16.6954185,108.304582 C-5.56513949,86.0455146 -5.56513949,49.9559764 16.6954185,27.6954185" id="Fill-1" fill="#808285" opacity="0.25"></path>
                        <g id="Group-5" stroke-width="1" fill="none" transform="translate(4.000000, 0.000000)">
                            <mask id="mask-16" fill="white">
                                <use xlink:href="#path-15"></use>
                            </mask>
                            <g id="Clip-4"></g>
                            <path d="M17.1258,17.52495 C39.7653,-5.11455 76.4718,-5.11455 99.1113,17.52495 C121.7523,40.16595 121.7523,76.87095 99.1113,99.51195 C76.4718,122.15145 39.7653,122.15145 17.1258,99.51195 C-5.5152,76.87095 -5.5152,40.16595 17.1258,17.52495" id="Fill-3" fill="#FFFFFF" mask="url(#mask-16)"></path>
                        </g>
                        <path d="M22.4016174,18.4026289 C44.2719351,-3.46754295 79.7280649,-3.46754295 101.598383,18.4026289 C123.467206,40.2713061 123.467206,75.7286939 101.598383,97.5973711 C79.7280649,119.467543 44.2719351,119.467543 22.4016174,97.5973711 C0.532794214,75.7286939 0.532794214,40.2713061 22.4016174,18.4026289" id="Fill-6" fill="#EDE1DE"></path>
                        <path d="M29.0936272,34 L7,68.6642195 C9.03713869,79.2724858 14.1590874,89.4045296 22.3703234,97.6167549 C36.6825285,111.934779 56.8210996,116.86719 75.1508706,112.416973 L94,83.3838235 L29.0936272,34 Z" id="Fill-8" fill="#E3D0CC"></path>
                        <path d="M33.8620288,29.8620832 C49.6780672,14.0459723 75.3215614,14.0459723 91.1390854,29.8620832 C106.953638,45.6781941 106.953638,71.3218059 91.1390854,87.1379168 C75.3215614,102.954028 49.6780672,102.954028 33.8620288,87.1379168 C18.0459904,71.3218059 18.0459904,45.6781941 33.8620288,29.8620832" id="Fill-10" fill="#FFFFFF"></path>
                        <path d="M37.5444737,32.5444737 C51.6022695,18.4851754 74.3973549,18.4851754 88.4566532,32.5444737 C102.514449,46.6022695 102.514449,69.3958524 88.4566532,83.4566532 C74.3973549,97.5144489 51.6022695,97.5144489 37.5444737,83.4566532 C23.4851754,69.3958524 23.4851754,46.6022695 37.5444737,32.5444737" id="Fill-12" fill="#EDE1DE"></path>
                        <path d="M30,58.0007504 C30,39.7737226 44.7748874,25 62.9984992,25 C81.2251126,25 96,39.7737226 96,58.0007504 C96,76.2262774 81.2251126,91 62.9984992,91 C44.7748874,91 30,76.2262774 30,58.0007504" id="Fill-14" fill="#3B2820"></path>
                        <path d="M39.9265908,38 C38.7927601,38 37.6693316,38.0510482 36.5577912,38.144136 C32.4415252,43.6663456 30,50.5383286 30,57.9868555 C30,76.2185552 44.6298333,91 62.6760187,91 C68.713704,91 74.3679971,89.3439377 79.2198413,86.4582153 C79.729545,83.8817847 80,81.2152691 80,78.4871955 C80,56.1266006 62.0593218,38 39.9265908,38" id="Fill-16" fill="#4F352C"></path>
                        <path d="M95,57.6231454 C95,39.6038576 80.3370698,25 62.2500588,25 C52.6376107,25 43.9917692,29.1246291 38,35.6958457 C43.4079329,31.7670623 50.068433,29.4480712 57.2725562,29.4480712 C75.3595673,29.4480712 90.0224975,44.0534125 90.0224975,62.0727003 C90.0224975,70.5148368 86.8039508,78.2077151 81.5211257,84 C89.6903661,78.0682493 95,68.4643917 95,57.6231454" id="Fill-18" fill="#594A42"></path>
                        <path d="M94.0023813,96.627891 L85,87.6249303 L91.6259627,81 L100.626885,90.0015018 C102.457705,91.8324394 102.457705,94.7984124 100.626885,96.627891 C98.7975243,98.4573697 95.8317422,98.4573697 94.0023813,96.627891" id="Fill-20" fill="#FFFFFF"></path>
                    </g>
                </g>
                <g id="ipad" mask="url(#mask-2)">
                    <g transform="translate(480.000000, -93.000000)">
                        <path d="M5.1177664,63.7252651 C1.26681419,64.936054 -0.873014342,69.0434933 0.339185587,72.8958352 L38.087387,192.880387 C39.2977391,196.732729 43.4036968,198.873329 47.254649,197.660692 L235.881089,138.274735 C239.733889,137.063946 241.871869,132.956507 240.661517,129.104165 L202.913316,9.11961319 C201.701116,5.26727133 197.595158,3.12667062 193.744206,4.33930799 L5.1177664,63.7252651 Z" id="Fill-1" fill="#808285" opacity="0.25"></path>
                        <path d="M41.0866842,188.879272 L3.3384828,68.8972769 C2.12813073,65.0431093 4.2661114,60.9375427 8.11891148,59.7249125 L196.745351,0.339305982 C200.596303,-0.87332422 204.700413,1.26726385 205.912613,5.11958297 L243.660814,125.103426 C244.873014,128.955745 242.733186,133.06316 238.882234,134.275791 L50.2557941,193.661397 C46.402994,194.872179 42.2988842,192.733439 41.0866842,188.879272" id="Fill-3" fill="#F5F6F7"></path>
                        <polygon id="Fill-5" fill="#414042" points="65.8335582 182 27 59.1770584 187.166442 9 226 131.822942"></polygon>
                        <path d="M33.2490212,117.348111 C37.1988303,116.104318 41.4086867,118.299139 42.6525493,122.248728 C43.8945933,126.200135 41.7014673,130.409756 37.7516581,131.65173 C33.801849,132.895523 29.5901741,130.70252 28.3481301,126.751113 C27.1042675,122.801525 29.2992121,118.591904 33.2490212,117.348111" id="Fill-9" fill="#E6E7E8"></path>
                        <polygon id="Fill-11" fill="#FFFFFF" opacity="0.100000001" points="150.155198 20.4322634 110 168 225 131.750866 186.426367 9"></polygon>
                    </g>
                </g>
            </g>
        </g>
    </g>
</svg>