<?xml version="1.0" encoding="UTF-8"?>
<svg width="36px" height="39px" viewBox="0 0 36 39" version="1.1" xmlns="http://www.w3.org/2000/svg" xmlns:xlink="http://www.w3.org/1999/xlink">
    <!-- Generator: Sketch 43.2 (39069) - http://www.bohemiancoding.com/sketch -->
    <title>Webshop-Icon</title>
    <desc>Created with Sketch.</desc>
    <defs>
        <polygon id="path-1" points="35.8885677 0.0001 0 0.0001 0 38.8387 35.8885677 38.8387 35.8885677 0.0001"></polygon>
    </defs>
    <g id="Main" stroke="none" stroke-width="1" fill="none" fill-rule="evenodd">
        <g id="Home" transform="translate(-703.000000, -2782.000000)">
            <g id="Pkg-Webshop" transform="translate(564.000000, 2748.000000)">
                <g id="Webshop-Icon" transform="translate(139.000000, 34.000000)">
                    <mask id="mask-2" fill="white">
                        <use xlink:href="#path-1"></use>
                    </mask>
                    <g id="Clip-2"></g>
                    <path d="M11.9626968,35.0807 L11.9626968,37.5857 L10.4683742,37.5857 L10.4683742,38.8387 L11.9626968,38.8387 L13.4582129,38.8387 L22.4313097,38.8387 L23.9256323,38.8387 L25.4211484,38.8387 L25.4211484,37.5857 L23.9256323,37.5857 L23.9256323,35.0807 L22.4313097,35.0807 L22.4313097,37.5857 L13.4582129,37.5857 L13.4582129,35.0807 L11.9626968,35.0807 Z M-0.000238709677,33.8277 L35.8885677,33.8277 L35.8885677,31.3217 L-0.000238709677,31.3217 L-0.000238709677,33.8277 Z M-0.000238709677,13.7817 L-0.000238709677,27.8767 L-0.000238709677,28.5027 L-0.000238709677,30.0687 L35.8885677,30.0687 L35.8885677,27.8767 L35.8885677,13.7817 L28.4121806,13.7817 L28.4121806,25.6837 C28.4121806,26.0117 28.0553097,26.3097 27.6638258,26.3097 L26.730471,26.3097 L12.1966323,26.3097 L9.2056,26.3097 C8.2436,26.3097 7.47734194,25.6247 7.47734194,24.8227 L7.47734194,21.8467 L7.47734194,15.3867 L7.47734194,13.7817 L-0.000238709677,13.7817 Z M23.178471,10.0227 C22.7583419,10.0227 22.4313097,10.2907 22.4313097,10.6497 C22.4313097,11.0087 22.7583419,11.2757 23.178471,11.2757 C23.5986,11.2757 23.9256323,11.0087 23.9256323,10.6497 C23.9256323,10.2907 23.5986,10.0227 23.178471,10.0227 L23.178471,10.0227 Z M15.7008903,10.0227 C15.2819548,10.0227 14.953729,10.2907 14.953729,10.6497 C14.953729,11.0087 15.2819548,11.2757 15.7008903,11.2757 C16.1210194,11.2757 16.4492452,11.0087 16.4492452,10.6497 C16.4492452,10.2907 16.1210194,10.0227 15.7008903,10.0227 L15.7008903,10.0227 Z M8.97285806,9.9057 L8.97285806,12.0197 L8.97285806,15.3867 L8.97285806,21.8467 L8.97285806,24.8227 C8.97285806,24.9677 9.06356774,25.0577 9.2056,25.0577 L10.5149226,25.0577 C10.4982129,24.9777 10.4683742,24.9047 10.4683742,24.8227 L10.4683742,21.1817 L10.4683742,21.1427 L10.4683742,14.8387 L10.4683742,14.6827 L10.4683742,12.0197 L10.4683742,9.9057 C9.99572903,10.0487 9.44430968,10.0487 8.97285806,9.9057 L8.97285806,9.9057 Z M12.1500839,7.5177 C12.1345677,7.5197 12.1560516,7.5367 12.1035355,7.5957 C12.0331161,7.6747 11.9626968,7.8427 11.9626968,8.0267 L11.9626968,12.0197 L11.9626968,14.6827 L11.9626968,21.1427 L11.9626968,24.8227 C11.9626968,24.9677 12.0546,25.0577 12.1966323,25.0577 L26.730471,25.0577 L26.9166645,25.0577 L26.9166645,7.7517 C26.9166645,7.5797 26.7877613,7.5177 26.730471,7.5177 L23.9256323,7.5177 L23.9256323,8.5357 L23.9256323,8.8487 C24.8028903,9.1057 25.4211484,9.8307 25.4211484,10.6497 C25.4211484,11.6817 24.4102129,12.5287 23.178471,12.5287 C21.9455355,12.5287 20.9357935,11.6817 20.9357935,10.6497 C20.9357935,9.8307 21.5540516,9.1057 22.4313097,8.8487 L22.4313097,8.5357 L22.4313097,7.5177 L16.4492452,7.5177 L16.4492452,8.5357 L16.4492452,8.8487 C17.3265032,9.1057 17.9447613,9.8307 17.9447613,10.6497 C17.9447613,11.6817 16.9338258,12.5287 15.7008903,12.5287 C14.4691484,12.5287 13.4582129,11.6817 13.4582129,10.6497 C13.4582129,9.8307 14.076471,9.1057 14.953729,8.8487 L14.953729,8.5357 L14.953729,7.5177 L12.1966323,7.5177 C12.1942452,7.5177 12.1548581,7.5167 12.1500839,7.5177 L12.1500839,7.5177 Z M9.2056,7.5177 C9.19843871,7.5177 9.18292258,7.5167 9.11250323,7.5957 C9.04208387,7.6747 8.97285806,7.8427 8.97285806,8.0267 C8.97524516,8.3117 9.1662129,8.5717 9.3929871,8.6917 C9.62095484,8.8137 9.81908387,8.8137 10.0470516,8.6917 C10.2738258,8.5717 10.4659871,8.3127 10.4683742,8.0267 L10.4683742,7.7517 C10.4683742,7.6697 10.4982129,7.5977 10.5149226,7.5177 L9.2056,7.5177 Z M16.729729,-0.0003 C14.1063097,-0.0003 11.9626968,1.7947 11.9626968,3.9937 L11.9626968,6.2647 L13.4582129,6.2647 L13.4582129,3.9937 C13.4582129,2.4677 14.9095677,1.2527 16.729729,1.2527 C17.2071484,1.2527 17.6320516,1.3377 18.0378581,1.4877 C16.2642452,1.9907 14.953729,3.3577 14.953729,5.0117 L14.953729,6.2647 L16.4492452,6.2647 L16.4492452,5.0117 C16.4492452,3.6097 17.7705032,2.5057 19.4402774,2.5057 C19.774471,2.9357 20.0000516,3.4347 20.0000516,3.9937 L20.0000516,6.2647 L21.4955677,6.2647 L21.4955677,3.9937 C21.4955677,3.6877 21.3869548,3.3787 21.3093742,3.0927 C21.9801484,3.5507 22.4313097,4.2177 22.4313097,5.0117 L22.4313097,6.2647 L23.9256323,6.2647 L23.9256323,5.0117 C23.9256323,3.1707 22.3215032,1.6527 20.2339871,1.3307 C19.3626968,0.5247 18.1261806,-0.0003 16.729729,-0.0003 L16.729729,-0.0003 Z" id="Fill-1" fill="#FFFFFF" mask="url(#mask-2)"></path>
                </g>
            </g>
        </g>
    </g>
</svg>