<?xml version="1.0" encoding="UTF-8" standalone="no"?>
<svg width="16px" height="14px" viewBox="0 0 16 14" version="1.1" xmlns="http://www.w3.org/2000/svg" xmlns:xlink="http://www.w3.org/1999/xlink">
    <!-- Generator: Sketch 48.2 (47327) - http://www.bohemiancoding.com/sketch -->
    <title>1-product</title>
    <desc>Created with Sketch.</desc>
    <defs></defs>
    <g id="1.-Product-1-3" stroke="none" stroke-width="1" fill="none" fill-rule="evenodd" transform="translate(-238.000000, -196.000000)">
        <g id="Steps-1" transform="translate(170.000000, 178.000000)" fill="#4E4E4E" fill-rule="nonzero">
            <g id="Group" transform="translate(68.000000, 15.000000)">
                <g id="1-product" transform="translate(0.000000, 3.000000)">
                    <path d="M4.16699939,12.0143734 C4.06778767,11.8918252 4.01818182,11.7506705 4.01818182,11.5909091 C4.01818182,11.5127841 4.04608586,11.4009233 4.10189394,11.2553267 C4.15770202,11.1097301 4.2135101,10.9818892 4.26931818,10.871804 C4.32512626,10.7617188 4.40011837,10.6196733 4.49429451,10.4456676 C4.58847064,10.2716619 4.64253472,10.1669034 4.65648674,10.131392 L2.80435606,1.36363636 L0.66969697,1.36363636 C0.488320707,1.36363636 0.33136048,1.29616477 0.198816288,1.16122159 C0.066272096,1.02627841 0,0.866477273 0,0.681818182 C0,0.497159091 0.066272096,0.337357955 0.198816288,0.202414773 C0.33136048,0.0674715909 0.488320707,0 0.66969697,0 L3.34848485,0 C3.46010101,0 3.55950915,0.0230823864 3.64670928,0.0692471591 C3.73390941,0.115411932 3.80192551,0.170454545 3.85075758,0.234375 C3.89958965,0.298295455 3.94493371,0.385298295 3.98678977,0.495383523 C4.02864583,0.60546875 4.05654987,0.697798295 4.07050189,0.772372159 C4.08445391,0.846946023 4.10363794,0.951704545 4.12805398,1.08664773 C4.15247001,1.22159091 4.16816604,1.31392045 4.17514205,1.36363636 L15.330303,1.36363636 C15.5116793,1.36363636 15.6686395,1.43110795 15.8011837,1.56605114 C15.9337279,1.70099432 16,1.86079545 16,2.04545455 L16,7.5 C16,7.67045455 15.9424479,7.82137784 15.8273437,7.95276989 C15.7122396,8.08416193 15.5709754,8.16051136 15.4035511,8.18181818 L5.89124053,9.48153409 C5.98192866,9.90767045 6.02727273,10.15625 6.02727273,10.2272727 C6.02727273,10.3409091 5.94356061,10.5681818 5.77613636,10.9090909 L14.4030303,10.9090909 C14.5844066,10.9090909 14.7413668,10.9765625 14.873911,11.1115057 C15.0064552,11.2464489 15.0727273,11.40625 15.0727273,11.5909091 C15.0727273,11.7506705 15.0231214,11.8918252 14.9239097,12.0143734 C15.0231214,12.2030968 15.0727273,12.4104269 15.0727273,12.6363636 C15.0727273,13.0056818 14.9401831,13.3252841 14.6750947,13.5951705 C14.4100063,13.8650568 14.0960859,14 13.7333333,14 C13.3705808,14 13.0566604,13.8650568 12.791572,13.5951705 C12.5264836,13.3252841 12.3939394,13.0056818 12.3939394,12.6363636 C12.3939394,12.5092632 12.4096377,12.3880511 12.4410343,12.2727273 L6.64987474,12.2727273 C6.68127138,12.3880511 6.6969697,12.5092632 6.6969697,12.6363636 C6.6969697,13.0056818 6.56442551,13.3252841 6.29933712,13.5951705 C6.03424874,13.8650568 5.72032828,14 5.35757576,14 C4.99482323,14 4.68090278,13.8650568 4.41581439,13.5951705 C4.15072601,13.3252841 4.01818182,13.0056818 4.01818182,12.6363636 C4.01818182,12.4104269 4.06778767,12.2030968 4.16699939,12.0143734 Z" id="Shape"></path>
                </g>
            </g>
        </g>
    </g>
</svg>