<?xml version="1.0" encoding="UTF-8" standalone="no"?>
<svg width="13px" height="15px" viewBox="0 0 13 15" version="1.1" xmlns="http://www.w3.org/2000/svg" xmlns:xlink="http://www.w3.org/1999/xlink">
    <!-- Generator: Sketch 48.2 (47327) - http://www.bohemiancoding.com/sketch -->
    <title>3-checkout</title>
    <desc>Created with Sketch.</desc>
    <defs></defs>
    <g id="Symbols" stroke="none" stroke-width="1" fill="none" fill-rule="evenodd">
        <g id="3-checkout" fill="#4E4E4E">
            <path d="M2.27500537,4.06251075 L2.27500537,6.2499742 L1.30002862,6.2499742 C0.58178096,6.2499742 0,6.8093515 0,7.4999828 L0,13.7500602 C0,14.4406571 0.58178096,15 1.30002862,15 L11.6998998,15 C12.4181117,15 13,14.4406571 13,13.7500602 L13,7.4999828 C13,6.8093515 12.4181117,6.2499742 11.6998998,6.2499742 L10.7249946,6.2499742 L10.7249946,4.06251075 C10.7249946,1.81881032 8.83334801,0 6.5,0 C4.16665199,0 2.27500537,1.81877593 2.27500537,4.06251075 Z M3.90001431,6.2499742 L3.90001431,4.06251075 C3.90001431,2.68128255 5.06346891,1.56245916 6.49996423,1.56245916 C7.93645954,1.56245916 9.09998569,2.68128255 9.09998569,4.06251075 L9.09998569,6.2499742 L3.90001431,6.2499742 Z M5.19997138,9.68751505 C5.19997138,8.99691815 5.78171657,8.43754084 6.49996423,8.43754084 C7.21821189,8.43754084 7.7999213,8.99691815 7.7999213,9.68751505 C7.7999213,10.1281928 7.56261591,10.5157292 7.20522698,10.7375814 C7.20522698,10.7375814 7.33221434,11.4752317 7.47501252,12.3438263 C7.47501252,12.6031011 7.25727391,12.8124678 6.98748837,12.8124678 L6.01244008,12.8124678 C5.74269032,12.8124678 5.52498748,12.6031011 5.52498748,12.3438263 L5.79477302,10.7375814 C5.43734832,10.5157292 5.19997138,10.1281584 5.19997138,9.68751505 Z" id="Shape"></path>
        </g>
    </g>
</svg>