<?xml version="1.0" encoding="UTF-8" standalone="no"?>
<svg width="46px" height="38px" viewBox="0 0 46 38" version="1.1" xmlns="http://www.w3.org/2000/svg" xmlns:xlink="http://www.w3.org/1999/xlink">
    <!-- Generator: Sketch 48.2 (47327) - http://www.bohemiancoding.com/sketch -->
    <title>Webshop-icon</title>
    <desc>Created with Sketch.</desc>
    <defs></defs>
    <g id="1.-Product-1-3" stroke="none" stroke-width="1" fill="none" fill-rule="evenodd" transform="translate(-200.000000, -1064.000000)">
        <g id="Extra-Features" transform="translate(170.000000, 740.000000)">
            <g id="Webshop-icon" transform="translate(30.000000, 324.000000)">
                <path d="M39.084475,11.9067014 L36.5764295,19.0350849 C36.4002705,19.5358521 35.9256341,19.8710849 35.392975,19.8710849 L25.8835205,19.8710849 C25.3168841,19.8710849 24.8208159,19.4931671 24.6728841,18.9481534 L22.3112023,10.2513589 L20.971975,10.2513589 C20.2793614,10.2513589 19.7179523,9.69229041 19.7179523,9.00308493 C19.7179523,8.3133589 20.2793614,7.75376986 20.971975,7.75376986 L23.2709295,7.75376986 C23.8375659,7.75376986 24.3336341,8.13220822 24.4815659,8.67670137 L24.9070659,10.2456329 L37.9010205,10.2456329 C38.3077023,10.2456329 38.6882477,10.4413589 38.9239977,10.7713863 C39.159225,11.1014137 39.2182932,11.5251397 39.084475,11.9067014 M34.3454295,26.4435233 C33.0203159,26.4435233 31.9461114,25.3743178 31.9461114,24.0547288 C31.9461114,22.7356603 33.0203159,21.6659342 34.3454295,21.6659342 C35.6700205,21.6659342 36.7437023,22.7356603 36.7437023,24.0547288 C36.7437023,25.3743178 35.6700205,26.4435233 34.3454295,26.4435233 M27.1349295,26.4435233 C25.8098159,26.4435233 24.7356114,25.3743178 24.7356114,24.0547288 C24.7356114,22.7356603 25.8098159,21.6659342 27.1349295,21.6659342 C28.4595205,21.6659342 29.533725,22.7356603 29.533725,24.0547288 C29.533725,25.3743178 28.4595205,26.4435233 27.1349295,26.4435233 M29.435975,0.000208219178 C20.5271341,0.000208219178 13.3046114,7.19209863 13.3046114,16.0643178 C13.3046114,16.4333863 13.3213386,16.7982904 13.3464295,17.1616329 L17.2036341,17.0996877 C17.3416341,17.0970849 17.4780659,17.1038521 17.6124068,17.1168658 C19.3478614,17.2808384 20.7289068,18.6566466 20.8940886,20.3843452 C20.9071568,20.518126 20.9134295,20.653989 20.9113386,20.7914137 L20.8287477,25.8787288 C20.8135886,26.8219616 20.4304295,27.7225096 19.7602932,28.3893315 L19.4628614,28.6855233 C22.208225,30.8400712 25.669725,32.1289479 29.435975,32.1289479 C38.3453386,32.1289479 45.5678614,24.936537 45.5678614,16.0643178 C45.5678614,7.19209863 38.3453386,0.000208219178 29.435975,0.000208219178" id="Fill-1" fill="#416BB0"></path>
                <path d="M16.7633932,19.7016986 C17.6112568,19.7016986 18.2981205,20.3856986 18.2981205,21.2300274 C18.2981205,22.0743562 17.6112568,22.7583562 16.7633932,22.7583562 C15.9155295,22.7583562 15.2286659,22.0743562 15.2286659,21.2300274 C15.2286659,20.3856986 15.9155295,19.7016986 16.7633932,19.7016986" id="Fill-3" fill="#416BB0"></path>
                <polygon id="Fill-5" fill="#416BB0" points="26.8432477 17.3734959 34.5032932 17.3734959 36.1326341 12.7427014 25.5855659 12.7427014"></polygon>
                <path d="M7.68126818,30.7719836 C8.0477,30.9885315 8.38015455,31.0624493 8.67758636,30.9947781 C8.96560909,30.923463 9.24160909,30.7574082 9.50506364,30.4950521 C9.71781364,30.283189 9.85372273,30.0452986 9.91331364,29.7829425 C9.96349545,29.5159014 9.86626818,29.202011 9.62215455,28.839189 L7.68126818,30.7719836 Z" id="Fill-7" fill="#68AB6A"></path>
                <path d="M10.9406295,25.384 C10.7801523,25.4563562 10.6175841,25.5745205 10.4524023,25.7390137 C10.2433114,25.9472329 10.119425,26.1736712 10.0823114,26.4162466 C10.0368341,26.6624658 10.102175,26.9544932 10.2778114,27.2912877 L12.1287886,25.4480274 C11.9196977,25.2871781 11.6698341,25.2174247 11.3791977,25.2382466 C11.2411977,25.2564658 11.0958795,25.3048767 10.9406295,25.384" id="Fill-9" fill="#68AB6A"></path>
                <path d="M13.1688591,27.3426658 C13.1265182,26.7872411 12.92945,26.3052137 12.5781773,25.8955425 L10.6195182,27.8460356 C11.4820182,29.2478712 11.4104045,30.4347205 10.4036318,31.4071041 C9.88247273,31.9135973 9.30276818,32.1868849 8.66556364,32.225926 C8.01581364,32.2764192 7.39376818,32.0838164 6.80099545,31.6481178 L5.80885909,32.6366384 L5.35983636,32.1894877 L6.35197273,31.2009671 C6.00331364,30.8428301 5.74822273,30.423789 5.58565455,29.945926 C5.4257,29.4586932 5.34310909,28.9620904 5.33892727,28.4576795 L6.64522273,28.3978164 C6.62013182,28.7309671 6.65254091,29.0563096 6.74506364,29.3738438 C6.81876818,29.6924192 6.98081364,30.0094329 7.23224545,30.3248849 L9.28447273,28.2806932 C8.47058636,26.9205014 8.55160909,25.7784192 9.52754091,24.8544466 C10.6482682,23.7743096 11.8082,23.6800904 13.0089045,24.571789 L13.6560409,23.9273507 L14.1050636,24.3750219 L13.45845,25.0189397 C14.0287455,25.5988301 14.3429045,26.3208301 14.4009273,27.1828575 L13.1688591,27.3426658 Z M16.7636545,19.7015425 C17.6109955,19.7015425 18.2983818,20.386063 18.2983818,21.2298712 C18.2983818,22.0736795 17.6109955,22.7576795 16.7636545,22.7576795 C15.9157909,22.7576795 15.2289273,22.0736795 15.2289273,21.2298712 C15.2289273,20.386063 15.9157909,19.7015425 16.7636545,19.7015425 L16.7636545,19.7015425 Z M20.8289045,25.8783644 L20.9114955,20.7915699 C20.9135864,20.6536247 20.9067909,20.5182822 20.8942455,20.3845014 C20.7290636,18.6562822 19.3474955,17.2809945 17.6125636,17.1165014 C17.4782227,17.1040082 17.3417909,17.0967205 17.2032682,17.0993233 L13.3460636,17.1612685 L12.0957,17.1810493 C11.1479955,17.1966658 10.2436773,17.5782274 9.57406364,18.2450493 L3.62124545,24.1730493 L1.04054091,26.7429945 C-0.346777273,28.1250493 -0.346777273,30.3654877 1.04054091,31.7475425 L6.20195,36.8869123 C7.58979091,38.2689671 9.83960909,38.2689671 11.22745,36.8869123 L13.8081545,34.3169671 L19.4630182,28.6856795 L19.76045,28.3894877 C20.4305864,27.7221452 20.8137455,26.8221178 20.8289045,25.8783644 L20.8289045,25.8783644 Z" id="Fill-11" fill="#68AB6A"></path>
                <path d="M10.2780727,27.2913397 C10.1019136,26.9545452 10.0365727,26.6625178 10.0825727,26.4162986 C10.1191636,26.1737233 10.2435727,25.9472849 10.4526636,25.7390658 C10.6173227,25.5745726 10.7804136,25.4564082 10.9408909,25.3840521 C11.0956182,25.3049288 11.2414591,25.2565178 11.3789364,25.2382986 C11.6695727,25.2174767 11.9199591,25.2872301 12.12905,25.4480795 L10.2780727,27.2913397 Z M9.91320909,29.7826822 C9.85361818,30.0450384 9.71823182,30.2829288 9.50495909,30.4947918 C9.24202727,30.7571479 8.96550455,30.9237233 8.67748182,30.9945178 C8.38005,31.062189 8.04759545,30.9887918 7.68116364,30.7722438 L9.62205,28.8394493 C9.86616364,29.2022712 9.96339091,29.5156411 9.91320909,29.7826822 L9.91320909,29.7826822 Z M14.1049591,24.3747096 L13.6559364,23.9275589 L13.0093227,24.5714767 C11.8086182,23.6802986 10.6481636,23.7739973 9.52743636,24.8541342 C8.55150455,25.7786274 8.47048182,26.9207096 9.28489091,28.2803808 L7.23214091,30.3245726 C6.98070909,30.0096411 6.81866364,29.6921068 6.74495909,29.3740521 C6.65243636,29.0565178 6.62002727,28.7311753 6.64511818,28.3980247 L5.33882273,28.4573671 C5.34352727,28.9622986 5.42559545,29.4589014 5.58555,29.9461342 C5.74811818,30.4239973 6.00320909,30.8425178 6.35186818,31.2011753 L5.35973182,32.1891753 L5.80875455,32.6368466 L6.80141364,31.648326 C7.39366364,32.0840247 8.01570909,32.2761068 8.66545909,32.2256137 C9.30318636,32.1865726 9.88236818,31.9138055 10.4035273,31.4067918 C11.4103,30.4349288 11.4824364,29.2480795 10.6194136,27.8457233 L12.5780727,25.8952301 C12.9293455,26.3049014 13.1264136,26.7869288 13.1687545,27.342874 L14.4013455,27.1830658 C14.3428,26.3210384 14.0286409,25.5990384 13.4583455,25.0191479 L14.1049591,24.3747096 Z" id="Fill-13" fill="#FFFFFF"></path>
            </g>
        </g>
    </g>
</svg>