<?xml version="1.0" encoding="UTF-8" standalone="no"?>
<svg width="45px" height="30px" viewBox="0 0 45 30" version="1.1" xmlns="http://www.w3.org/2000/svg" xmlns:xlink="http://www.w3.org/1999/xlink">
    <!-- Generator: Sketch 48.2 (47327) - http://www.bohemiancoding.com/sketch -->
    <title>Backup-restore-icon</title>
    <desc>Created with Sketch.</desc>
    <defs></defs>
    <g id="1.-Product-1-3" stroke="none" stroke-width="1" fill="none" fill-rule="evenodd" transform="translate(-200.000000, -860.000000)">
        <g id="Extra-Features" transform="translate(170.000000, 740.000000)">
            <g id="Backup-restore-Sub-page" transform="translate(30.000000, 120.000000)">
                <g>
                    <path d="M31.9101169,3.44090078 C29.3290283,1.43491855 26.241676,0.374666057 22.981815,0.374666057 C20.0151784,0.374666057 17.1560392,1.26761751 14.7136725,2.95693006 C12.4487375,4.52336498 10.6808944,6.67022515 9.57975225,9.1853106 C7.07453243,9.3757743 4.74472115,10.4749483 2.97984545,12.3089425 C1.10895582,14.2531803 0.0785570483,16.8116024 0.0785570483,19.5130081 C0.0785570483,22.2271159 1.11725081,24.7943004 3.00331419,26.7417307 C4.88580331,28.6854929 7.4012064,29.795535 10.0859486,29.8672645 C10.1035501,29.8675363 34.2116038,29.8614229 35.25866,29.8604041 C37.7534268,29.7407869 40.0528905,28.6821646 41.7650291,26.8787368 C43.4828999,25.0692638 44.4289325,22.6968901 44.4289325,20.1987182 C44.4289325,15.6696352 41.3176394,11.7701558 36.9726194,10.7701534 C36.0850562,7.8875898 34.2989372,5.29744644 31.9101169,3.44090078 Z" id="Fill-1-Copy" fill="#75AE76" fill-rule="nonzero"></path>
                    <path d="M24.0170431,12.6223604 C24.0170431,12.209256 23.6809526,11.8743687 23.2707249,11.8743687 L22.7280487,11.8743687 C22.3158685,11.8743687 21.9817305,12.209899 21.9817305,12.6224542 L21.9817305,17.5078702 L22.010697,17.5369504 L24.8249059,20.3621962 C25.1175511,20.655989 25.5924413,20.6555688 25.8825191,20.3643533 L26.2662532,19.9791143 C26.5577116,19.6865128 26.5572248,19.2116264 26.2651274,18.9183872 L24.0170431,16.6615155 L24.0170431,12.6223604 Z" id="Shape" fill="#FFFFFF" fill-rule="nonzero"></path>
                    <path d="M30.1707434,9.19953698 C28.7438,7.7669973 26.9657002,6.81514581 25.031411,6.42444005 C24.3744528,6.29173936 23.6995253,6.22351288 23.0141036,6.22351288 C20.3106918,6.22351288 17.7690398,7.28042807 15.8574639,9.19953698 C13.9532554,11.1112135 12.9015832,13.6505664 12.8934611,16.3527826 L9.96216232,16.3527826 L14.1216279,20.5285609 L18.2810575,16.3527826 L15.3505495,16.3527826 C15.360756,13.8116256 16.6045922,11.5575539 18.5104179,10.1630421 C19.7755656,9.23738445 21.3322115,8.69020155 23.0141036,8.69020155 C24.6828422,8.69020155 26.2284551,9.2287614 27.4882838,10.1413222 C29.4188713,11.5397667 30.6780532,13.8170015 30.6780532,16.3842079 C30.6780532,17.0105133 30.602582,17.6193201 30.4612713,18.2025826 C29.6895611,21.3875074 26.9385305,23.8033961 23.5953392,24.0562417 C23.4034269,24.0707457 23.2096457,24.0782142 23.0141036,24.0782142 C21.9116142,24.0782142 20.8481541,23.8486398 19.8534446,23.3959132 C19.3422535,23.1631999 18.8549615,22.8725789 18.4051536,22.5320959 L16.9259554,24.5017163 C17.5197335,24.9511596 18.1633226,25.3349741 18.8388251,25.6424804 C19.4359814,25.9142679 20.0516821,26.1245757 20.681902,26.2739452 C21.4402072,26.4536575 22.2196083,26.5449028 23.0141036,26.5449028 C25.7175155,26.5449028 28.2591316,25.4879876 30.1707434,23.5689148 C32.0823912,21.6498781 33.1351416,19.0983303 33.1351416,16.3842439 C33.1351416,13.6702658 32.0823912,11.1186458 30.1707434,9.19953698 Z" id="Shape" fill="#FFFFFF" fill-rule="nonzero"></path>
                </g>
            </g>
        </g>
    </g>
</svg>