<?xml version="1.0" encoding="UTF-8" standalone="no"?>
<svg width="11px" height="13px" viewBox="0 0 11 13" version="1.1" xmlns="http://www.w3.org/2000/svg" xmlns:xlink="http://www.w3.org/1999/xlink">
    <!-- Generator: Sketch 48.2 (47327) - http://www.bohemiancoding.com/sketch -->
    <title>Lock-icon</title>
    <desc>Created with Sketch.</desc>
    <defs></defs>
    <g id="3.-Checkout" stroke="none" stroke-width="1" fill="none" fill-rule="evenodd" transform="translate(-386.000000, -721.000000)">
        <g id="Terms" transform="translate(170.000000, 258.000000)" fill="#FFFFFF">
            <g id="Billing" transform="translate(30.000000, 311.000000)">
                <g id="Group-3-Copy-6" transform="translate(117.000000, 133.000000)">
                    <g id="Lock-icon" transform="translate(69.000000, 19.000000)">
                        <path d="M1.92500454,3.52084265 L1.92500454,5.41664431 L1.10002421,5.41664431 C0.492276197,5.41664431 0,5.90143797 0,6.4999851 L0,11.9167188 C0,12.5152361 0.492276197,13 1.10002421,13 L9.89991525,13 C10.507633,13 11,12.5152361 11,11.9167188 L11,6.4999851 C11,5.90143797 10.507633,5.41664431 9.89991525,5.41664431 L9.07499546,5.41664431 L9.07499546,3.52084265 C9.07499546,1.57630228 7.47437139,0 5.5,0 C3.52562861,0 1.92500454,1.57627247 1.92500454,3.52084265 Z M3.30001211,5.41664431 L3.30001211,3.52084265 C3.30001211,2.32377821 4.2844737,1.35413127 5.49996973,1.35413127 C6.71546577,1.35413127 7.69998789,2.32377821 7.69998789,3.52084265 L7.69998789,5.41664431 L3.30001211,5.41664431 Z M4.39997579,8.39584638 C4.39997579,7.79732906 4.89222171,7.3125354 5.49996973,7.3125354 C6.10771775,7.3125354 6.59993341,7.79732906 6.59993341,8.39584638 C6.59993341,8.77776708 6.39913654,9.11363193 6.09673052,9.30590391 C6.09673052,9.30590391 6.20418136,9.94520077 6.32501059,10.6979828 C6.32501059,10.9226876 6.14077023,11.1041387 5.91249016,11.1041387 L5.0874493,11.1041387 C4.8591995,11.1041387 4.67498941,10.9226876 4.67498941,10.6979828 L4.90326948,9.30590391 C4.60083319,9.11363193 4.39997579,8.77773727 4.39997579,8.39584638 Z" id="Shape"></path>
                    </g>
                </g>
            </g>
        </g>
    </g>
</svg>