<?xml version="1.0" encoding="UTF-8" standalone="no"?>
<svg width="14px" height="14px" viewBox="0 0 14 14" version="1.1" xmlns="http://www.w3.org/2000/svg" xmlns:xlink="http://www.w3.org/1999/xlink">
    <!-- Generator: Sketch 48.2 (47327) - http://www.bohemiancoding.com/sketch -->
    <title>Checkmark-small</title>
    <desc>Created with Sketch.</desc>
    <defs>
        <path d="M2,0 L12,-2.22044605e-16 C13.1045695,5.56104062e-16 14,0.8954305 14,2 L14,12 C14,13.1045695 13.1045695,14 12,14 L2,14 C0.8954305,14 8.94280938e-16,13.1045695 -2.22044605e-16,12 L-2.22044605e-16,2 C-3.57315355e-16,0.8954305 0.8954305,-1.91384796e-17 2,-2.22044605e-16 Z" id="path-1"></path>
    </defs>
    <g id="1.-Product-2-3" stroke="none" stroke-width="1" fill="none" fill-rule="evenodd" transform="translate(-202.000000, -521.000000)">
        <g id="Basket" transform="translate(170.000000, 258.000000)">
            <g id="Checkmark-small" transform="translate(32.000000, 263.000000)">
                <g id="Rectangle-10-Copy-3">
                    <use fill="#FFFFFF" fill-rule="evenodd" xlink:href="#path-1"></use>
                    <path stroke="#D6D6D6" stroke-width="1" d="M2,0.5 C1.17157288,0.5 0.5,1.17157288 0.5,2 L0.5,12 C0.5,12.8284271 1.17157288,13.5 2,13.5 L12,13.5 C12.8284271,13.5 13.5,12.8284271 13.5,12 L13.5,2 C13.5,1.17157288 12.8284271,0.5 12,0.5 L2,0.5 Z"></path>
                </g>
                <polygon id="Shape" fill="#77A240" fill-rule="nonzero" points="9 4 6.33333333 7.88235294 5 6.47058824 4 7.53682353 6.33866667 10 10 4.71823529"></polygon>
            </g>
        </g>
    </g>
</svg>