<?xml version="1.0" encoding="UTF-8" standalone="no"?>
<svg width="14px" height="14px" viewBox="0 0 14 14" version="1.1" xmlns="http://www.w3.org/2000/svg" xmlns:xlink="http://www.w3.org/1999/xlink">
    <!-- Generator: Sketch 48.2 (47327) - http://www.bohemiancoding.com/sketch -->
    <title>? copy</title>
    <desc>Created with Sketch.</desc>
    <defs></defs>
    <g id="1.-Product-1-3" stroke="none" stroke-width="1" fill="none" fill-rule="evenodd" transform="translate(-202.000000, -431.000000)">
        <g id="Basket" transform="translate(170.000000, 258.000000)">
            <g id="?-grey" transform="translate(30.000000, 171.000000)">
                <path d="M9,2 L9,2 C12.8659932,2 16,5.13400675 16,9 L16,9 C16,12.8659932 12.8659932,16 9,16 L9,16 C5.13400675,16 2,12.8659932 2,9 L2,9 C2,5.13400675 5.13400675,2 9,2 Z" id="Rectangle" fill="#A1A1A1"></path>
                <path d="M7.97943831,10.0495485 L7.97943831,9.61825457 C7.97943831,9.29060332 8.04630491,9.01394276 8.18004012,8.7882646 C8.31377533,8.56258644 8.55115176,8.3427625 8.89217653,8.12878617 C9.16299032,7.95827378 9.35773929,7.8044806 9.47642929,7.66740202 C9.59511928,7.53032343 9.65446339,7.37318692 9.65446339,7.19598777 C9.65446339,7.05556581 9.59094012,6.94440009 9.46389168,6.86248727 C9.33684323,6.78057446 9.1713484,6.73961867 8.96740221,6.73961867 C8.46255181,6.73961867 7.87245406,6.91848682 7.19709127,7.2762285 L6.5,5.91213622 C7.33250165,5.43737624 8.20176745,5.19999981 9.10782347,5.19999981 C9.85339724,5.19999981 10.43848,5.36382298 10.8630893,5.69147423 C11.2876985,6.01912549 11.5,6.46546004 11.5,7.03049128 C11.5,7.43504028 11.4055509,7.7852541 11.2166499,8.08114324 C11.027749,8.37703238 10.7260134,8.65703627 10.3114343,8.9211633 C9.96037939,9.14851315 9.74055544,9.31484382 9.65195587,9.42016029 C9.56335629,9.52547677 9.51905717,9.65001581 9.51905717,9.79378115 L9.51905717,10.0495485 L7.97943831,10.0495485 Z M7.76379137,11.8048143 C7.76379137,11.4972233 7.85322545,11.2598469 8.03209629,11.0926778 C8.21096713,10.9255088 8.47425436,10.8419256 8.8219659,10.8419256 C9.15630391,10.8419256 9.41290449,10.9263447 9.59177533,11.0951854 C9.77064616,11.2640261 9.86008024,11.5005667 9.86008024,11.8048143 C9.86008024,12.1090618 9.76730283,12.3447666 9.58174524,12.5119356 C9.39618764,12.6791046 9.14293039,12.7626879 8.8219659,12.7626879 C8.49097126,12.7626879 8.23186319,12.6799405 8.0446339,12.5144431 C7.85740461,12.3489458 7.76379137,12.1124052 7.76379137,11.8048143 Z" id="?" fill="#FFFFFF"></path>
            </g>
        </g>
    </g>
</svg>