<?xml version="1.0" encoding="UTF-8" standalone="no"?>
<svg width="50px" height="50px" viewBox="0 0 50 50" version="1.1" xmlns="http://www.w3.org/2000/svg" xmlns:xlink="http://www.w3.org/1999/xlink">
    <!-- Generator: sketchtool 48.2 (47327) - http://www.bohemiancoding.com/sketch -->
    <title>34E19465-5D95-4F25-B8AF-B555301709D0</title>
    <desc>Created with sketchtool.</desc>
    <defs></defs>
    <g id="Search-domain-2-4" stroke="none" stroke-width="1" fill="none" fill-rule="evenodd" transform="translate(-200.000000, -288.000000)">
        <g id="Domain-occupied" transform="translate(170.000000, 258.000000)" fill="#FF9999" fill-rule="nonzero">
            <g id="Occupied-icon" transform="translate(30.000000, 30.000000)">
                <path d="M16.5334694,39.3590871 C19.0147746,40.8252942 21.9091308,41.6666667 25,41.6666667 C34.2047458,41.6666667 41.6666667,34.2047458 41.6666667,25 C41.6666667,21.9091308 40.8252942,19.0147746 39.3590871,16.5334694 L16.5334694,39.3590871 Z M10.6409129,33.4665306 L33.4665306,10.6409129 C30.9852254,9.17470581 28.0908692,8.33333333 25,8.33333333 C15.7952542,8.33333333 8.33333333,15.7952542 8.33333333,25 C8.33333333,28.0908692 9.17470581,30.9852254 10.6409129,33.4665306 Z M25,50 C11.1928813,50 0,38.8071187 0,25 C0,11.1928813 11.1928813,0 25,0 C38.8071187,0 50,11.1928813 50,25 C50,38.8071187 38.8071187,50 25,50 Z" id="Oval-7"></path>
            </g>
        </g>
    </g>
</svg>