<?xml version="1.0" encoding="UTF-8" standalone="no"?>
<svg width="14px" height="14px" viewBox="0 0 14 14" version="1.1" xmlns="http://www.w3.org/2000/svg" xmlns:xlink="http://www.w3.org/1999/xlink">
    <!-- Generator: Sketch 48.2 (47327) - http://www.bohemiancoding.com/sketch -->
    <title>?-red</title>
    <desc>Created with Sketch.</desc>
    <defs></defs>
    <g id="Symbols" stroke="none" stroke-width="1" fill="none" fill-rule="evenodd">
        <g id="?-red">
            <path d="M7,0 L7,0 C10.8659932,-7.10171439e-16 14,3.13400675 14,7 L14,7 C14,10.8659932 10.8659932,14 7,14 L7,14 C3.13400675,14 -3.07926605e-15,10.8659932 -3.55271368e-15,7 L0,7 C-4.73447626e-16,3.13400675 3.13400675,7.10171439e-16 7,0 Z" id="Rectangle" fill="#FF7F7F"></path>
            <path d="M5.97943831,8.04956085 L5.97943831,7.61826697 C5.97943831,7.29061572 6.04630491,7.01395516 6.18004012,6.788277 C6.31377533,6.56259884 6.55115176,6.3427749 6.89217653,6.12879857 C7.16299032,5.95828618 7.35773929,5.804493 7.47642929,5.66741441 C7.59511928,5.53033583 7.65446339,5.37319932 7.65446339,5.19600017 C7.65446339,5.05557821 7.59094012,4.94441248 7.46389168,4.86249967 C7.33684323,4.78058686 7.1713484,4.73963106 6.96740221,4.73963106 C6.46255181,4.73963106 5.87245406,4.91849922 5.19709127,5.27624089 L4.5,3.91214862 C5.33250165,3.43738864 6.20176745,3.20001221 7.10782347,3.20001221 C7.85339724,3.20001221 8.43847999,3.36383538 8.86308927,3.69148663 C9.28769855,4.01913788 9.5,4.46547244 9.5,5.03050368 C9.5,5.43505268 9.40555093,5.78526649 9.21664995,6.08115564 C9.02774897,6.37704478 8.72601344,6.65704867 8.3114343,6.9211757 C7.96037939,7.14852555 7.74055544,7.31485621 7.65195587,7.42017269 C7.56335629,7.52548916 7.51905717,7.65002821 7.51905717,7.79379355 L7.51905717,8.04956085 L5.97943831,8.04956085 Z M5.76379137,9.80482665 C5.76379137,9.49723568 5.85322545,9.25985925 6.03209629,9.09269024 C6.21096713,8.92552123 6.47425436,8.84193798 6.8219659,8.84193798 C7.15630391,8.84193798 7.41290449,8.92635707 7.59177533,9.09519776 C7.77064616,9.26403846 7.86008024,9.50057906 7.86008024,9.80482665 C7.86008024,10.1090742 7.76730283,10.344779 7.58174524,10.511948 C7.39618764,10.679117 7.14293039,10.7627003 6.8219659,10.7627003 C6.49097126,10.7627003 6.23186319,10.6799529 6.0446339,10.5144555 C5.85740461,10.3489582 5.76379137,10.1124176 5.76379137,9.80482665 Z" id="?" fill="#FFFFFF"></path>
        </g>
    </g>
</svg>