<?xml version="1.0" encoding="UTF-8" standalone="no"?>
<svg width="19px" height="14px" viewBox="0 0 19 14" version="1.1" xmlns="http://www.w3.org/2000/svg" xmlns:xlink="http://www.w3.org/1999/xlink">
    <!-- Generator: Sketch 48.2 (47327) - http://www.bohemiancoding.com/sketch -->
    <title>Full-list-icon</title>
    <desc>Created with Sketch.</desc>
    <defs></defs>
    <g id="Search-domain-4-4" stroke="none" stroke-width="1" fill="none" fill-rule="evenodd" transform="translate(-690.000000, -901.000000)">
        <g id="Suggestions" transform="translate(170.000000, 873.000000)" fill="#4E4E4E" fill-rule="nonzero">
            <g id="Full-list-icon" transform="translate(520.000000, 28.000000)">
                <path d="M2.32253,3.30106 L2.15747,3.30106 C1.2915,3.30106 0.58947,2.59903 0.58947,1.73306 L0.58947,1.568 C0.58947,0.70203 1.2915,0 2.15747,0 L2.32253,0 C3.1885,0 3.89053,0.70203 3.89053,1.568 L3.89053,1.73306 C3.8906,2.5991 3.18857,3.30106 2.32253,3.30106 Z" id="Shape"></path>
                <path d="M2.32253,8.65053 L2.15747,8.65053 C1.2915,8.65053 0.58947,7.9485 0.58947,7.08253 L0.58947,6.91747 C0.58947,6.0515 1.2915,5.34947 2.15747,5.34947 L2.32253,5.34947 C3.1885,5.34947 3.89053,6.0515 3.89053,6.91747 L3.89053,7.08253 C3.8906,7.9485 3.18857,8.65053 2.32253,8.65053 Z" id="Shape"></path>
                <path d="M2.32253,14 L2.15747,14 C1.2915,14 0.58947,13.29797 0.58947,12.432 L0.58947,12.26694 C0.58947,11.40097 1.2915,10.69894 2.15747,10.69894 L2.32253,10.69894 C3.1885,10.69894 3.89053,11.40097 3.89053,12.26694 L3.89053,12.432 C3.8906,13.29797 3.18857,14 2.32253,14 Z" id="Shape"></path>
                <path d="M17.79253,2.93265 L6.58231,2.93265 C5.90961,2.93265 5.36431,2.38735 5.36431,1.71465 L5.36431,1.58641 C5.36431,0.91371 5.90961,0.36841 6.58231,0.36841 L17.79253,0.36841 C18.46523,0.36841 19.01053,0.91371 19.01053,1.58641 L19.01053,1.71465 C19.01053,2.38735 18.46523,2.93265 17.79253,2.93265 Z" id="Shape"></path>
                <path d="M17.79253,8.28212 L6.58231,8.28212 C5.90961,8.28212 5.36431,7.73682 5.36431,7.06412 L5.36431,6.93588 C5.36431,6.26318 5.90961,5.71788 6.58231,5.71788 L17.79253,5.71788 C18.46523,5.71788 19.01053,6.26318 19.01053,6.93588 L19.01053,7.06412 C19.01053,7.73682 18.46523,8.28212 17.79253,8.28212 Z" id="Shape"></path>
                <path d="M17.79253,13.63159 L6.58231,13.63159 C5.90961,13.63159 5.36431,13.08629 5.36431,12.41359 L5.36431,12.28535 C5.36431,11.61265 5.90961,11.06735 6.58231,11.06735 L17.79253,11.06735 C18.46523,11.06735 19.01053,11.61265 19.01053,12.28535 L19.01053,12.41359 C19.01053,13.08622 18.46523,13.63159 17.79253,13.63159 Z" id="Shape"></path>
            </g>
        </g>
    </g>
</svg>