<?xml version="1.0" encoding="UTF-8" standalone="no"?>
<svg width="17px" height="20px" viewBox="0 0 17 20" version="1.1" xmlns="http://www.w3.org/2000/svg" xmlns:xlink="http://www.w3.org/1999/xlink">
    <!-- Generator: Sketch 48.2 (47327) - http://www.bohemiancoding.com/sketch -->
    <title>Country-icon</title>
    <desc>Created with Sketch.</desc>
    <defs></defs>
    <g id="Search-domain-4-4" stroke="none" stroke-width="1" fill="none" fill-rule="evenodd" transform="translate(-545.000000, -898.000000)">
        <g id="Suggestions" transform="translate(170.000000, 873.000000)" fill="#4E4E4E" fill-rule="nonzero">
            <g id="Country-icon" transform="translate(375.000000, 25.000000)">
                <path d="M16.25068,1.61977702 C15.7965527,1.42887679 15.2743949,1.53477692 14.9271443,1.88707736 C13.3923201,3.4425793 10.894521,3.4437793 9.35851366,1.88707736 C6.87530666,-0.629025786 2.83785226,-0.629025786 0.355828399,1.88707736 C0.127581587,2.11737765 0,2.43147804 0,2.75777845 L0,18.7683985 C0,19.4481993 0.542764016,20 1.21429276,20 C1.8858215,20 2.42858551,19.4481993 2.42858551,18.7683985 L2.42858551,13.1609915 C3.9718889,11.9330899 6.21836994,12.03899 7.64148634,13.4811919 C10.1246933,15.997295 14.1633309,15.997295 16.6441716,13.4811919 C16.8724184,13.2496916 17,12.9367912 17,12.6104908 L17,2.75777845 C16.9999014,2.25897782 16.7036242,1.81067726 16.25068,1.61977702 Z" id="path12"></path>
            </g>
        </g>
    </g>
</svg>