<?xml version="1.0" encoding="UTF-8" standalone="no"?>
<svg width="18px" height="17px" viewBox="0 0 18 17" version="1.1" xmlns="http://www.w3.org/2000/svg" xmlns:xlink="http://www.w3.org/1999/xlink">
    <!-- Generator: Sketch 48.2 (47327) - http://www.bohemiancoding.com/sketch -->
    <title>Suggestions-icon</title>
    <desc>Created with Sketch.</desc>
    <defs></defs>
    <g id="Search-domain-4-4" stroke="none" stroke-width="1" fill="none" fill-rule="evenodd" transform="translate(-199.000000, -899.000000)">
        <g id="Suggestions" transform="translate(170.000000, 873.000000)" fill="#76A13F" fill-rule="nonzero">
            <g id="Suggestions-icon" transform="translate(30.000000, 26.000000)">
                <path d="M8.82000733,15 C4.6778717,15 1.32000733,11.6421356 1.32000733,7.5 C1.32000733,3.35786438 4.6778717,0 8.82000733,0 C12.9621429,0 16.3200073,3.35786438 16.3200073,7.5 C16.3200073,11.6421356 12.9621429,15 8.82000733,15 Z M8.82000733,13 C11.8575734,13 14.3200073,10.5375661 14.3200073,7.5 C14.3200073,4.46243388 11.8575734,2 8.82000733,2 C5.7824412,2 3.32000733,4.46243388 3.32000733,7.5 C3.32000733,10.5375661 5.7824412,13 8.82000733,13 Z" id="Oval-6" transform="translate(8.820007, 7.500000) scale(-1, 1) translate(-8.820007, -7.500000) "></path>
                <path d="M0.293437743,13.2076509 L3.11344507,16.02332 C3.50426986,16.4135436 4.13743465,16.4130562 4.52765821,16.0222314 C4.91788177,15.6314066 4.91739438,14.9982418 4.52656959,14.6080182 L1.70656226,11.7923491 C1.31573747,11.4021256 0.682572678,11.4026129 0.292349118,11.7934377 C-0.0978744429,12.1842625 -0.0973870489,12.8174273 0.293437743,13.2076509 Z" id="Path-2" stroke="#76A13F" stroke-width="0.5" transform="translate(2.410004, 13.907835) scale(-1, 1) translate(-2.410004, -13.907835) "></path>
            </g>
        </g>
    </g>
</svg>