<?xml version="1.0" encoding="UTF-8" standalone="no"?>
<svg width="20px" height="20px" viewBox="0 0 20 20" version="1.1" xmlns="http://www.w3.org/2000/svg" xmlns:xlink="http://www.w3.org/1999/xlink">
    <!-- Generator: Sketch 48.2 (47327) - http://www.bohemiancoding.com/sketch -->
    <title>Categorised-icon</title>
    <desc>Created with Sketch.</desc>
    <defs></defs>
    <g id="Search-domain-4-4" stroke="none" stroke-width="1" fill="none" fill-rule="evenodd" transform="translate(-371.000000, -898.000000)">
        <g id="Suggestions" transform="translate(170.000000, 873.000000)" fill="#4E4E4E" fill-rule="nonzero">
            <g id="Categorised-icon" transform="translate(201.000000, 25.000000)">
                <path d="M10.8149884,0.462603152 L0.458775567,10.8188677 C-0.152925189,11.4305716 -0.152925189,12.4223777 0.458775567,13.0339816 L5.63878197,18.2140139 L6.96598361,19.5412221 C7.57768437,20.152926 8.5694856,20.152926 9.18118635,19.5412221 L19.5373992,9.18505755 C19.8308995,8.89155572 19.9958997,8.49355324 19.9961997,8.07845065 L19.9999997,1.56731004 C20.0004997,0.701504642 19.2984989,-0.000499736188 18.4326978,2.66929863e-07 L11.9215897,0.00390029125 C11.5064892,0.0041002925 11.1084887,0.169101322 10.8149884,0.462603152 Z M14.585993,7.26154555 C13.5555918,7.26154555 12.7201907,6.42624035 12.7201907,5.39573392 C12.7201907,4.36522749 13.5554918,3.52992228 14.585993,3.52992228 C15.6164943,3.52992228 16.4517953,4.36522749 16.4517953,5.39573392 C16.4517953,6.42624035 15.6164943,7.26154555 14.585993,7.26154555 Z" id="Shape"></path>
            </g>
        </g>
    </g>
</svg>