<?xml version="1.0" encoding="UTF-8" standalone="no"?>
<svg width="60px" height="40px" viewBox="0 0 60 40" version="1.1" xmlns="http://www.w3.org/2000/svg" xmlns:xlink="http://www.w3.org/1999/xlink">
    <!-- Generator: Sketch 45.1 (43504) - http://www.bohemiancoding.com/sketch -->
    <title>Backup-restore-Sub-page</title>
    <desc>Created with Sketch.</desc>
    <defs></defs>
    <g id="Page-1" stroke="none" stroke-width="1" fill="none" fill-rule="evenodd">
        <g id="Backup-restore-Sub-page">
            <path d="M42.5468225,4.58786771 C39.1053711,1.91322473 34.9889013,0.499554743 30.64242,0.499554743 C26.6869045,0.499554743 22.874719,1.69015668 19.61823,3.94257341 C16.5983166,6.03115331 14.2411925,8.89363353 12.773003,12.2470808 C9.4327099,12.5010324 6.32629487,13.9665977 3.97312727,16.4119234 C1.47860776,19.0042404 0.104742731,22.4154699 0.104742731,26.0173442 C0.104742731,29.6361546 1.48966774,33.0590672 4.00441892,35.6556409 C6.51440441,38.2473239 9.8682752,39.72738 13.4479314,39.8230194 C13.4714001,39.8233817 45.6154717,39.8152306 47.0115466,39.8138721 C50.3379024,39.6543825 53.403854,38.2428861 55.6867054,35.8383158 C57.9771998,33.425685 59.2385767,30.2625202 59.2385767,26.9316243 C59.2385767,20.892847 55.0901859,15.6935411 49.2968258,14.3602046 C48.1134082,10.5167864 45.7319162,7.06326192 42.5468225,4.58786771 Z" id="Fill-1-Copy" fill="#75AE76"></path>
            <path d="M32.0227241,16.8298139 C32.0227241,16.279008 31.5746035,15.8324916 31.0276332,15.8324916 L30.3040649,15.8324916 C29.7544913,15.8324916 29.308974,16.2798654 29.308974,16.829939 L29.308974,23.343827 L29.347596,23.3826005 L33.0998745,27.1495949 C33.4900681,27.5413187 34.123255,27.5407584 34.5100254,27.1524711 L35.0216709,26.6388191 C35.4102821,26.2486837 35.4096331,25.6155019 35.0201699,25.2245163 L32.0227241,22.215354 L32.0227241,16.8298139 Z" id="Shape" fill="#FFFFFF" fill-rule="nonzero"></path>
            <path d="M40.2276579,12.2660493 C38.3250666,10.3559964 35.9542669,9.08686108 33.3752147,8.56592007 C32.4992704,8.38898581 31.599367,8.29801717 30.6854715,8.29801717 C27.0809224,8.29801717 23.6920531,9.70723742 21.1432852,12.2660493 C18.6043405,14.8149513 17.2021109,18.2007552 17.1912814,21.8037101 L13.2828831,21.8037101 L18.8288372,27.3714145 L24.3747433,21.8037101 L20.4673993,21.8037101 C20.481008,18.4155008 22.1394562,15.4100719 24.6805572,13.5507228 C26.3674208,12.3165126 28.4429487,11.5869354 30.6854715,11.5869354 C32.9104563,11.5869354 34.9712734,12.3050152 36.6510451,13.5217629 C39.2251617,15.3863556 40.9040709,18.4226686 40.9040709,21.8456105 C40.9040709,22.6806844 40.8034427,23.4924268 40.6150284,24.2701101 C39.5860814,28.5166765 35.9180407,31.7378614 31.4604522,32.0749889 C31.2045692,32.0943276 30.9461943,32.1042856 30.6854715,32.1042856 C29.2154856,32.1042856 27.7975388,31.7981864 26.4712595,31.194551 C25.7896713,30.8842666 25.1399487,30.4967719 24.5402048,30.0427946 L22.5679405,32.668955 C23.3596447,33.2682128 24.2177634,33.7799655 25.1184335,34.1899739 C25.9146419,34.5523572 26.7355761,34.8327676 27.5758693,35.0319269 C28.5869429,35.2715434 29.6261444,35.3932038 30.6854715,35.3932038 C34.2900206,35.3932038 37.6788421,33.9839835 40.2276579,31.4252198 C42.7765216,28.8665041 44.1801888,25.4644404 44.1801888,21.8456586 C44.1801888,18.2270211 42.7765216,14.8248611 40.2276579,12.2660493 Z" id="Shape" fill="#FFFFFF" fill-rule="nonzero"></path>
        </g>
    </g>
</svg>