<?xml version="1.0" encoding="utf-8"?>
<!-- Generator: Adobe Illustrator 19.2.1, SVG Export Plug-In . SVG Version: 6.00 Build 0)  -->
<!DOCTYPE svg PUBLIC "-//W3C//DTD SVG 1.1//EN" "http://www.w3.org/Graphics/SVG/1.1/DTD/svg11.dtd">
<svg version="1.1" id="Layer_1" xmlns="http://www.w3.org/2000/svg" xmlns:xlink="http://www.w3.org/1999/xlink" x="0px" y="0px"
	 viewBox="0 0 70 73" style="enable-background:new 0 0 70 73;" xml:space="preserve">
<style type="text/css">
	.st0{fill:#00D583;}
	.st1{fill:#FFFFFF;}
	.st2{fill:#3F3E3E;}
</style>
<path class="st0" d="M35.4228516,2.8457031c-17.991869,0-32.5771484,14.5852795-32.5771484,32.5771484S17.4309826,68,35.4228516,68
	S68,53.4147186,68,35.4228516S53.4147186,2.8457031,35.4228516,2.8457031z M35.4228516,60.4050331
	c-13.7973175,0-24.9822922-11.1847534-24.9822922-24.9821815c0-13.7973175,11.1849737-24.9821815,24.9822922-24.9821815
	c13.7972603,0,24.9822922,11.184864,24.9822922,24.9821815C60.4051437,49.2201118,49.2201118,60.4050331,35.4228516,60.4050331z"/>
<path class="st0" d="M35.422905,17.6570606c-9.8118668,0-17.7658997,7.9540329-17.7658997,17.7657909
	c0,9.8118134,7.9540329,17.7657928,17.7658997,17.7657928c9.8117599,0,17.7657928-7.9539795,17.7657928-17.7657928
	C53.1886978,25.6110935,45.2346649,17.6570606,35.422905,17.6570606z M36.1623688,30.2243462
	c-3.2742043,0-5.9381886,2.6636543-5.9381886,5.9381905c0,1.7069855-1.3837433,3.0903969-3.0904007,3.0903969
	c-1.7067108,0-3.0904541-1.3834114-3.0904541-3.0903969c0-6.6824493,5.4365978-12.1190472,12.1190434-12.1190472
	c1.7067108,0,3.0904541,1.3834133,3.0904541,3.0904007S37.8690796,30.2243462,36.1623688,30.2243462z"/>
<path class="st1" d="M35.4228516,10.44067c-13.7973175,0-24.9822922,11.184864-24.9822922,24.9821815
	c0,13.7974281,11.1849737,24.9821815,24.9822922,24.9821815c13.7972603,0,24.9822922-11.1849213,24.9822922-24.9821815
	C60.4051437,21.6255341,49.2201118,10.44067,35.4228516,10.44067z M35.422905,53.1886444
	c-9.8118668,0-17.7658997-7.9539795-17.7658997-17.7657928c0-9.811758,7.9540329-17.7657909,17.7658997-17.7657909
	c9.8117599,0,17.7657928,7.9540329,17.7657928,17.7657909C53.1886978,45.2346649,45.2346649,53.1886444,35.422905,53.1886444z"/>
<path class="st1" d="M36.1623688,24.0434895c-6.6824455,0-12.1190434,5.4365978-12.1190434,12.1190472
	c0,1.7069855,1.3837433,3.0903969,3.0904541,3.0903969c1.7066574,0,3.0904007-1.3834114,3.0904007-3.0903969
	c0-3.2745361,2.6639843-5.9381905,5.9381886-5.9381905c1.7067108,0,3.0904541-1.3834686,3.0904541-3.090456
	S37.8690796,24.0434895,36.1623688,24.0434895z"/>
<path class="st2" d="M64.6414948,71H38.3585052C36.5036545,71,35,69.4963455,35,67.6414948v-8.2829895
	C35,57.5036545,36.5036545,56,38.3585052,56h26.2829895C66.4963455,56,68,58.1451492,68,60v7.6414948
	C68,69.4963455,66.4963455,71,64.6414948,71z"/>
<g>
	<path class="st1" d="M39.1757812,59.8613281h2.4902344c0.9707031,0,1.6914062,0.1445312,2.1611328,0.4316406
		c0.4697266,0.2890625,0.7060547,0.7373047,0.7060547,1.3457031c0,0.4003906-0.1035156,0.7421875-0.3085938,1.0253906
		S43.75,63.1298828,43.4140625,63.2109375v0.0488281c0.4433594,0.1171875,0.7636719,0.3125,0.9628906,0.5859375
		c0.1982422,0.2734375,0.296875,0.6279297,0.296875,1.0644531c0,0.6474609-0.2421875,1.1582031-0.7294922,1.53125
		C43.4570312,66.8134766,42.7949219,67,41.9550781,67h-2.7792969V59.8613281z M41.1054688,62.6005859h0.5800781
		c0.2773438,0,0.4912109-0.0566406,0.6425781-0.1708984s0.2265625-0.2832031,0.2265625-0.5078125
		c0-0.4003906-0.3027344-0.6005859-0.9082031-0.6005859h-0.5410156V62.6005859z M41.1054688,64.0117188v1.4990234h0.6777344
		c0.6025391,0,0.9042969-0.2539062,0.9042969-0.7617188c0-0.2373047-0.0810547-0.4199219-0.2421875-0.546875
		s-0.3945312-0.1904297-0.7011719-0.1904297H41.1054688z"/>
	<path class="st1" d="M50.1523438,67h-4.2382812v-7.1386719h4.2382812v1.5478516H47.84375v1.1230469h2.1386719v1.5478516H47.84375
		v1.3476562h2.3085938V67z"/>
	<path class="st1" d="M54.7519531,67h-1.9277344v-5.5615234h-1.7441406v-1.5771484h5.4101562v1.5771484h-1.7382812V67z"/>
	<path class="st1" d="M61.890625,67l-0.3515625-1.3378906h-2.3183594L58.859375,67h-2.1191406l2.328125-7.1679688h2.5742188L64,67
		H61.890625z M61.1386719,64.0800781l-0.3066406-1.171875c-0.0722656-0.2607422-0.1591797-0.5976562-0.2617188-1.0107422
		s-0.1699219-0.7099609-0.203125-0.8886719c-0.0292969,0.1660156-0.0859375,0.4394531-0.1728516,0.8203125
		s-0.2773438,1.1308594-0.5732422,2.2509766H61.1386719z"/>
</g>
</svg>
