<?xml version="1.0" encoding="UTF-8" standalone="no"?>
<svg width="156px" height="91px" viewBox="0 0 156 91" version="1.1" xmlns="http://www.w3.org/2000/svg" xmlns:xlink="http://www.w3.org/1999/xlink">
    <!-- Generator: Sketch 46.2 (44496) - http://www.bohemiancoding.com/sketch -->
    <title>WSB-premium</title>
    <desc>Created with Sketch.</desc>
    <defs></defs>
    <g id="Page-1" stroke="none" stroke-width="1" fill="none" fill-rule="evenodd">
        <g id="WSB-premium" transform="translate(-1.000000, -10.000000)">
            <g id="1489406356_browser" transform="translate(19.397376, 12.000000)" fill-rule="nonzero">
                <path d="M117.18482,81.708432 L4.04085586,81.708432 C1.81838514,81.708432 0,79.8926891 0,77.6734477 L0,4.0349843 C0,1.81574293 1.81838514,0 4.04085586,0 L117.18482,0 C119.407291,0 121.225676,1.81574293 121.225676,4.0349843 L121.225676,77.6734477 C121.225676,79.8926891 119.407291,81.708432 117.18482,81.708432 Z" id="bg" fill="#FFFFFF"></path>
                <g id="text" transform="translate(10.102140, 24.209906)" fill="#E6E6E6">
                    <rect id="XMLID_2_" x="15.3445779" y="0" width="29.7865336" height="4.0349843"></rect>
                    <rect id="XMLID_7_" x="15.3445779" y="8.06996859" width="29.7865336" height="4.0349843"></rect>
                    <rect id="XMLID_8_" x="0" y="16.1399372" width="45.1311116" height="4.0349843"></rect>
                    <rect id="XMLID_9_" x="0" y="24.2099058" width="45.1311116" height="4.0349843"></rect>
                    <rect id="XMLID_9_-Copy" x="0" y="32.2798744" width="45.1311116" height="4.0349843"></rect>
                    <rect id="XMLID_9_-Copy-2" x="10.1021397" y="40.349843" width="24.9268323" height="4.0349843"></rect>
                </g>
                <g id="text-copy" transform="translate(65.663908, 24.209906)" fill="#B4DCEE">
                    <polygon id="XMLID_2_" points="-3.03164901e-12 0 45.1311116 0 45.1311116 36.4444732 33.1219958 44.3848273 -3.03164901e-12 44.3848273"></polygon>
                </g>
                <g id="1489922949_image-copy" transform="translate(86.878401, 32.279874)" fill="#FFBA00">
                    <g id="Layer_1">
                        <ellipse id="Oval" cx="7.75844325" cy="8.30053912" rx="7.75844325" ry="7.7241128"></ellipse>
                    </g>
                </g>
                <path d="M67.6843357,68.535612 L102.03161,68.535612 L102.03161,65.5329914 C102.03161,65.5329914 100.352437,62.4728061 98.7972815,60.5546651 C97.6397736,59.1278806 95.9113859,58.7249271 94.403476,60.4765414 L91.6947501,63.1933939 L85.7900819,55.3512193 C83.5912106,52.4308341 79.9926997,52.4308341 77.7938284,55.3512193 L67.6843357,68.535612 Z" id="Shape" fill="#69A328"></path>
                <rect id="img" fill="#E6E6E6" x="10.1021397" y="24.2099058" width="12.1225676" height="12.1049529"></rect>
                <path d="M117.18482,0 L4.04085586,0 C1.81838514,0 0,1.81574293 0,4.0349843 L0,8.1708432 L0,9.07871467 L0,13.113699 L121.225676,13.113699 L121.225676,9.07871467 L121.225676,8.1708432 L121.225676,4.0349843 C121.225676,1.81574293 119.407291,0 117.18482,0 Z" id="header" fill="#E6E6E6"></path>
                <ellipse id="red" fill="#FF5F58" cx="7.07149776" cy="6.8594733" rx="2.02042793" ry="2.01749215"></ellipse>
                <ellipse id="orange" fill="#FFBD2D" cx="13.1327815" cy="6.8594733" rx="2.02042793" ry="2.01749215"></ellipse>
                <ellipse id="green" fill="#28CE42" cx="19.1940653" cy="6.8594733" rx="2.02042793" ry="2.01749215"></ellipse>
            </g>
            <g id="1489407687_brush-pencil" transform="translate(30.305935, 71.769655) rotate(-180.000000) translate(-30.305935, -71.769655) translate(0.805935, 42.769655)" fill-rule="nonzero">
                <path d="M49.5121283,55.8539675 L57.5238694,47.8607645 C58.8514501,46.5362557 58.4628899,44.001075 56.6573185,42.1996815 L51.2051406,36.7616575 L50.1150134,35.6740527 L21.0346752,6.65946418 L8.03949541,2.21982139 L1.54190553,1.59872116e-13 L3.7668752,6.48255533 L8.21681455,19.447666 L37.2971528,48.4607162 L38.38728,49.548321 L43.8394579,54.986345 C45.6434874,56.7908152 48.1845477,57.1784763 49.5121283,55.8539675 Z" id="Shape" fill="#231F20" opacity="0.049999997"></path>
                <path d="M36.0343321,49.7695138 C34.2272189,47.9665819 33.8402006,45.4329397 35.1677812,44.1084308 L43.1795223,36.1152278 C44.507103,34.790719 47.0481633,35.1783801 48.8537347,36.9797736 L55.3960398,43.5069408 C57.2016112,45.3098726 57.5901714,47.8435149 56.2625907,49.1680237 L48.2508496,57.1612268 C46.923269,58.4857356 44.3822086,58.0980745 42.5766373,56.2966809 L36.0343321,49.7695138 Z" id="Shape" fill="#FF6A00"></path>
                <rect id="Rectangle-path" fill="#FFCF4F" transform="translate(33.253977, 24.616226) rotate(-45.000000) translate(-33.253977, -24.616226) " x="30.9881687" y="3.33275753" width="4.53161688" height="42.566936"></rect>
                <rect id="Rectangle-path" fill="#F5B200" transform="translate(27.357989, 28.323417) rotate(-45.000000) translate(-27.357989, -28.323417) " x="22.825601" y="5.50162648" width="9.06477565" height="45.643582"></rect>
                <rect id="Rectangle-path" fill="#FFCF4F" transform="translate(23.640823, 34.210290) rotate(-45.000000) translate(-23.640823, -34.210290) " x="21.3750146" y="12.9268224" width="4.53161688" height="42.566936"></rect>
                <g id="Group" transform="translate(0.000000, 1.059183)">
                    <polygon id="Shape" fill="#4F5D73" points="0.280626806 0.249614216 2.50559648 6.73216955 6.77821669 2.46943561"></polygon>
                    <polygon id="Shape" fill="#F5CF87" points="19.7733965 6.90907839 6.77821669 2.46943561 2.50559648 6.73216955 6.95399392 19.6972802 8.55603376 18.0989473 12.3398699 18.6758239 11.1834408 11.1272005 18.7495712 12.2809539 18.1713566 8.50741133"></polygon>
                </g>
            </g>
            <g id="Group-3" transform="translate(98.194065, 44.279874)" fill-rule="nonzero">
                <path d="M57.8680348,3.50251247 C54.9138842,0.551303146 37.9393625,12.7240874 27.4951489,23.1579025 C22.3570971,28.2908387 19.7651471,32.0420655 18.8008072,34.8864022 C15.5792089,34.5734183 12.0718238,35.7581769 9.76260415,38.0650974 C8.28323645,39.5429922 7.47325208,41.1811958 6.8680562,42.9537535 C5.7050409,46.3599346 4.58481723,50.6256764 0,53.6639105 C3.41721711,57.0777253 16.7865441,58.0380516 23.271004,51.5600479 C23.9571983,50.8745368 24.5409983,50.0836798 25.0193476,49.2256459 C26.1502692,47.196594 26.6515425,44.801122 26.4329996,42.5384773 C29.2816993,41.5812045 33.0427777,38.9903084 38.1930558,33.8451582 C48.6372694,23.4113431 60.8221853,6.4537218 57.8680348,3.50251247 Z" id="Shape" fill="#231F20" opacity="0.049999997"></path>
                <path d="M27.494787,20.1044008 C17.0505734,30.5382159 17.0918367,35.2818307 20.0459873,38.23304 C23.0001378,41.1842493 27.7484802,41.2254716 38.1926939,30.7916565 C48.6369075,20.3578415 60.8218234,3.40022017 57.8676728,0.449010842 C54.9135223,-2.50219848 37.9390006,9.67058576 27.494787,20.1044008 Z" id="Shape" fill="#E56D6D"></path>
                <g id="Group" transform="translate(0.000000, 33.006125)">
                    <path d="M0,18.8881351 C3.41721711,22.3034766 16.7865441,23.2622761 23.271004,16.7842724 C23.9571983,16.0987613 24.5409983,15.3079044 25.0193476,14.4498704 C14.8762036,14.1475738 9.51502402,10.7734545 6.8680562,8.17797809 C5.7050409,11.5841592 4.58481723,15.8499009 0,18.8881351 Z" id="Shape" fill="#7A6FA0"></path>
                    <path d="M24.0809883,2.48014405 C20.3504754,-1.24665469 13.4931171,-0.435950005 9.76260415,3.28932198 C8.28323645,4.76721677 7.47325208,6.4054204 6.8680562,8.17797809 C9.51502402,10.7734545 14.7080937,18.7766822 25.0193476,14.4498704 C27.1436462,10.6436807 27.125307,5.52143167 24.0809883,2.48014405 Z" id="Shape" fill="#4F5D73"></path>
                </g>
                <path d="M6.88060718,41.1879332 C7.79119039,41.0525563 12.2598013,40.1996911 15.1879712,44.5097086 C18.1176694,48.8197262 24.9889889,47.5204919 24.9889889,47.5204919 L16.3081949,52.0274296 L8.34895217,46.2379905 L6.88060718,41.1879332 Z" id="Shape" fill="#7A6FA0"></path>
            </g>
            <path d="M96.8223848,20.1497044 L141.046789,18.9519574 L141.046789,18.9519574 C141.797919,18.9316143 142.497073,19.3340006 142.85682,19.993692 L148.535239,30.4065522 L148.535239,30.4065522 C149.06407,31.3763007 148.706635,32.591139 147.736887,33.1199695 C147.447508,33.2777759 147.123612,33.3616155 146.79401,33.3640309 L79.4094216,33.8578343 L79.4094216,33.8578343 C78.3048818,33.8659285 77.4029137,32.9770837 77.3948195,31.8725439 C77.3896258,31.1638128 77.7599149,30.5052648 78.3681722,30.1414657 L93.4188216,21.1396603 L93.4188216,21.1396603 C94.4496224,20.5231376 95.6217211,20.1822225 96.8223848,20.1497044 Z" id="Rectangle-13-Copy" fill="#000000" fill-rule="nonzero" opacity="0.05" transform="translate(113.087249, 26.404555) rotate(30.000000) translate(-113.087249, -26.404555) "></path>
            <path d="M97.8223848,18.1497044 L142.046789,16.9519574 L142.046789,16.9519574 C142.797919,16.9316143 143.497073,17.3340006 143.85682,17.993692 L149.535239,28.4065522 L149.535239,28.4065522 C150.06407,29.3763007 149.706635,30.591139 148.736887,31.1199695 C148.447508,31.2777759 148.123612,31.3616155 147.79401,31.3640309 L80.4094216,31.8578343 L80.4094216,31.8578343 C79.3048818,31.8659285 78.4029137,30.9770837 78.3948195,29.8725439 C78.3896258,29.1638128 78.7599149,28.5052648 79.3681722,28.1414657 L94.4188216,19.1396603 L94.4188216,19.1396603 C95.4496224,18.5231376 96.6217211,18.1822225 97.8223848,18.1497044 Z" id="Rectangle-13-Copy" fill="#22B2D6" fill-rule="nonzero" transform="translate(114.087249, 24.404555) rotate(30.000000) translate(-114.087249, -24.404555) "></path>
            <g id="Premium" transform="translate(118.159909, 27.125644) rotate(30.000000) translate(-118.159909, -27.125644) translate(95.659909, 22.625644)" fill="#FFFFFF">
                <path d="M2.13742097,4.39890633 L2.63546785,4.39890633 C3.10096497,4.39890633 3.44926878,4.30694761 3.68038972,4.12302742 C3.91151067,3.93910723 4.02706941,3.67136902 4.02706941,3.31980476 C4.02706941,2.96498528 3.93022793,2.70294363 3.73654207,2.53367195 C3.5428562,2.36440027 3.23931106,2.2797657 2.82589754,2.2797657 L2.13742097,2.2797657 L2.13742097,4.39890633 Z M5.55538972,3.26609383 C5.55538972,4.03432683 5.31532051,4.62188606 4.83517488,5.02878914 C4.35502925,5.43569221 3.67225613,5.6391407 2.78683504,5.6391407 L2.13742097,5.6391407 L2.13742097,8.1782032 L0.6237491,8.1782032 L0.6237491,1.03953133 L2.90402254,1.03953133 C3.76991228,1.03953133 4.42827159,1.22589014 4.87912019,1.59861336 C5.3299688,1.97133657 5.55538972,2.52715784 5.55538972,3.26609383 Z M9.83273347,2.61667976 C10.0345574,2.61667976 10.202199,2.63132805 10.3356632,2.66062508 L10.2233585,4.05710945 C10.1029152,4.0245572 9.95643225,4.00828133 9.78390535,4.00828133 C9.30864256,4.00828133 8.93836631,4.13035042 8.67306551,4.37449226 C8.4077647,4.61863411 8.27511629,4.96042757 8.27511629,5.39988289 L8.27511629,8.1782032 L6.78585847,8.1782032 L6.78585847,2.71921883 L7.91378816,2.71921883 L8.13351472,3.63718758 L8.20675691,3.63718758 C8.37602859,3.33119646 8.60470469,3.0846169 8.89279207,2.89744148 C9.18087945,2.71026607 9.49419012,2.61667976 9.83273347,2.61667976 Z M13.387421,3.67625008 C13.0716642,3.67625008 12.8242708,3.77634673 12.6452335,3.97654304 C12.4661961,4.17673936 12.3636581,4.46075344 12.3376163,4.82859383 L14.42746,4.82859383 C14.4209496,4.46075344 14.3249219,4.17673936 14.1393741,3.97654304 C13.9538263,3.77634673 13.7031778,3.67625008 13.387421,3.67625008 Z M13.5973819,8.27585945 C12.7184713,8.27585945 12.0316292,8.03334885 11.536835,7.54832039 C11.0420409,7.06329192 10.7946475,6.37644983 10.7946475,5.48777351 C10.7946475,4.5730554 11.0233236,3.86586846 11.4806827,3.36619148 C11.9380418,2.8665145 12.5703596,2.61667976 13.3776553,2.61667976 C14.1491436,2.61667976 14.7497235,2.83640413 15.1794132,3.27585945 C15.6091028,3.71531477 15.8239444,4.32240506 15.8239444,5.09714851 L15.8239444,5.81980476 L12.3034366,5.81980476 C12.3197127,6.24298396 12.445037,6.5733843 12.6794132,6.8110157 C12.9137893,7.0486471 13.2425621,7.16746101 13.6657413,7.16746101 C13.994519,7.16746101 14.3053883,7.13328167 14.5983585,7.06492195 C14.8913287,6.99656223 15.1973152,6.88751384 15.5163272,6.73777351 L15.5163272,7.89011726 C15.2559093,8.02032625 14.9775917,8.11716773 14.6813663,8.18064461 C14.3851408,8.24412149 14.0238163,8.27585945 13.5973819,8.27585945 Z M21.9225772,8.1782032 L20.4333194,8.1782032 L20.4333194,4.98972664 C20.4333194,4.59584446 20.3674021,4.30043726 20.2355655,4.10349617 C20.1037289,3.90655508 19.8962115,3.80808601 19.6130069,3.80808601 C19.2321456,3.80808601 18.9554557,3.94805857 18.7829288,4.22800789 C18.6104019,4.5079572 18.5241397,4.96856458 18.5241397,5.60984383 L18.5241397,8.1782032 L17.0348819,8.1782032 L17.0348819,2.71921883 L18.1725772,2.71921883 L18.3727725,3.41746101 L18.4557803,3.41746101 C18.6022655,3.16680872 18.8138519,2.97068438 19.090546,2.82908211 C19.3672401,2.68747984 19.6846197,2.61667976 20.0426944,2.61667976 C20.8597558,2.61667976 21.4131357,2.88360418 21.7028507,3.41746101 L21.8346866,3.41746101 C21.9811717,3.16355349 22.1968271,2.96661536 22.4816593,2.8266407 C22.7664914,2.68666604 23.08794,2.61667976 23.4460147,2.61667976 C24.0645074,2.61667976 24.5324389,2.77536958 24.8498233,3.09275398 C25.1672077,3.41013838 25.3258975,3.9187596 25.3258975,4.61863289 L25.3258975,8.1782032 L23.8317569,8.1782032 L23.8317569,4.98972664 C23.8317569,4.59584446 23.7658396,4.30043726 23.634003,4.10349617 C23.5021664,3.90655508 23.294649,3.80808601 23.0114444,3.80808601 C22.6468593,3.80808601 22.3742383,3.93829304 22.1935733,4.19871101 C22.0129084,4.45912898 21.9225772,4.87253631 21.9225772,5.43894539 L21.9225772,8.1782032 Z M26.7907413,1.30808601 C26.7907413,0.823057546 27.0609209,0.58054695 27.6012882,0.58054695 C28.1416554,0.58054695 28.411835,0.823057546 28.411835,1.30808601 C28.411835,1.53920696 28.3442901,1.71905542 28.2091983,1.84763679 C28.0741065,1.97621817 27.8714718,2.04050789 27.6012882,2.04050789 C27.0609209,2.04050789 26.7907413,1.7963697 26.7907413,1.30808601 Z M28.3434757,8.1782032 L26.8542178,8.1782032 L26.8542178,2.71921883 L28.3434757,2.71921883 L28.3434757,8.1782032 Z M33.7731632,8.1782032 L33.5729678,7.47996101 L33.4948428,7.47996101 C33.3353368,7.73386853 33.1091021,7.92999287 32.8161319,8.06833992 C32.5231617,8.20668696 32.1895062,8.27585945 31.8151553,8.27585945 C31.1738761,8.27585945 30.6904825,8.10414893 30.36496,7.76072273 C30.0394376,7.41729653 29.8766788,6.92332361 29.8766788,6.27878914 L29.8766788,2.71921883 L31.3659366,2.71921883 L31.3659366,5.90769539 C31.3659366,6.30157757 31.4359229,6.59698477 31.5758975,6.79392586 C31.7158722,6.99086695 31.9388517,7.08933601 32.2448428,7.08933601 C32.6615116,7.08933601 32.9626154,6.95017725 33.1481632,6.67185554 C33.333711,6.39353384 33.4264835,5.93211267 33.4264835,5.2875782 L33.4264835,2.71921883 L34.9157413,2.71921883 L34.9157413,8.1782032 L33.7731632,8.1782032 Z M41.3659366,8.1782032 L39.8766788,8.1782032 L39.8766788,4.98972664 C39.8766788,4.59584446 39.8107615,4.30043726 39.6789249,4.10349617 C39.5470883,3.90655508 39.3395708,3.80808601 39.0563663,3.80808601 C38.675505,3.80808601 38.3988151,3.94805857 38.2262882,4.22800789 C38.0537613,4.5079572 37.9674991,4.96856458 37.9674991,5.60984383 L37.9674991,8.1782032 L36.4782413,8.1782032 L36.4782413,2.71921883 L37.6159366,2.71921883 L37.8161319,3.41746101 L37.8991397,3.41746101 C38.0456248,3.16680872 38.2572113,2.97068438 38.5339053,2.82908211 C38.8105994,2.68747984 39.1279791,2.61667976 39.4860538,2.61667976 C40.3031152,2.61667976 40.856495,2.88360418 41.14621,3.41746101 L41.278046,3.41746101 C41.4245311,3.16355349 41.6401865,2.96661536 41.9250186,2.8266407 C42.2098508,2.68666604 42.5312994,2.61667976 42.8893741,2.61667976 C43.5078668,2.61667976 43.9757983,2.77536958 44.2931827,3.09275398 C44.6105671,3.41013838 44.7692569,3.9187596 44.7692569,4.61863289 L44.7692569,8.1782032 L43.2751163,8.1782032 L43.2751163,4.98972664 C43.2751163,4.59584446 43.209199,4.30043726 43.0773624,4.10349617 C42.9455258,3.90655508 42.7380083,3.80808601 42.4548038,3.80808601 C42.0902186,3.80808601 41.8175977,3.93829304 41.6369327,4.19871101 C41.4562677,4.45912898 41.3659366,4.87253631 41.3659366,5.43894539 L41.3659366,8.1782032 Z"></path>
            </g>
        </g>
    </g>
</svg>