<?xml version="1.0" encoding="UTF-8" standalone="no"?>
<svg width="40px" height="40px" viewBox="0 0 40 40" version="1.1" xmlns="http://www.w3.org/2000/svg" xmlns:xlink="http://www.w3.org/1999/xlink">
    <!-- Generator: Sketch 47.1 (45422) - http://www.bohemiancoding.com/sketch -->
    <title>Step-1-icon@3x</title>
    <desc>Created with Sketch.</desc>
    <defs></defs>
    <g id="Page-1" stroke="none" stroke-width="1" fill="none" fill-rule="evenodd">
        <g id="Cloud-Server---Create-a-user" transform="translate(-170.000000, -448.000000)">
            <g id="Step-1-icon" transform="translate(170.000000, 448.000000)">
                <circle id="Oval-4" fill="#73A43F" cx="20" cy="20" r="20"></circle>
                <path d="M26.0036364,20.8845455 C25.5390909,20.2309091 24.9645455,19.66 24.3072727,19.1981818 C24.0572727,19.4963636 23.7745455,19.7672727 23.4663636,20.0036364 C22.5254545,20.7254545 21.4009091,21.1063636 20.2136364,21.1063636 C19.0263636,21.1063636 17.9018182,20.7254545 16.9609091,20.0045455 C16.6709091,19.7818182 16.4054545,19.5272727 16.1654545,19.25 C15.5381818,19.7027273 14.9881818,20.2563636 14.54,20.8872727 C14.1318182,21.4618182 13.8081818,22.1018182 13.5863636,22.7863636 C13.6954545,23.0827273 13.8227273,23.3709091 13.9690909,23.6472727 C14.4518182,24.5627273 15.1272727,25.3609091 15.9436364,25.9863636 C17.1427273,26.9072727 18.6436364,27.4545455 20.2727273,27.4545455 C21.9018182,27.4545455 23.4027273,26.9072727 24.6027273,25.9872727 C25.4181818,25.3618182 26.0945455,24.5636364 26.5772727,23.6481818 C26.7227273,23.3718182 26.8509091,23.0836364 26.96,22.7872727 C26.7372727,22.1 26.4127273,21.46 26.0036364,20.8845455 Z" id="Shape" fill="#FFFFFF" fill-rule="nonzero"></path>
                <path d="M17.9290909,18.7418182 C18.5627273,19.2281818 19.3545455,19.5163636 20.2136364,19.5163636 C21.0727273,19.5163636 21.8654545,19.2272727 22.4981818,18.7418182 C22.6281818,18.6427273 22.75,18.5336364 22.8654545,18.4190909 C23.5481818,17.7390909 23.9718182,16.7981818 23.9718182,15.7581818 C23.9718182,15.1236364 23.8136364,14.5263636 23.5363636,14.0018182 C22.9063636,12.8118182 21.6554545,12 20.2136364,12 C18.7381818,12 17.4618182,12.8509091 16.8472727,14.0881818 C16.5972727,14.5918182 16.4554545,15.1581818 16.4554545,15.7581818 C16.4554545,16.8154545 16.8927273,17.77 17.5954545,18.4536364 C17.7009091,18.5554545 17.8118182,18.6527273 17.9290909,18.7418182 Z" id="Shape" fill="#FFFFFF" fill-rule="nonzero"></path>
            </g>
        </g>
    </g>
</svg>