<?xml version="1.0" encoding="UTF-8" standalone="no"?>
<svg width="11px" height="11px" viewBox="0 0 11 11" version="1.1" xmlns="http://www.w3.org/2000/svg" xmlns:xlink="http://www.w3.org/1999/xlink">
    <!-- Generator: Sketch 48 (47235) - http://www.bohemiancoding.com/sketch -->
    <g transform="translate(-1340.000000, -974.000000)">
        <path d="M1345.5,978.085786 L1349.29289,974.292893 C1349.68342,973.902369 1350.31658,973.902369 1350.70711,974.292893 C1351.09763,974.683418 1351.09763,975.316582 1350.70711,975.707107 L1346.91421,979.5 L1350.70711,983.292893 C1351.09763,983.683418 1351.09763,984.316582 1350.70711,984.707107 C1350.31658,985.097631 1349.68342,985.097631 1349.29289,984.707107 L1345.5,980.914214 L1341.70711,984.707107 C1341.31658,985.097631 1340.68342,985.097631 1340.29289,984.707107 C1339.90237,984.316582 1339.90237,983.683418 1340.29289,983.292893 L1344.08579,979.5 L1340.29289,975.707107 C1339.90237,975.316582 1339.90237,974.683418 1340.29289,974.292893 C1340.68342,973.902369 1341.31658,973.902369 1341.70711,974.292893 L1345.5,978.085786 Z" id="close-icon" fill="#FFFFFF"></path>
    </g>
</svg>