<?xml version="1.0" encoding="UTF-8" standalone="no"?>
<svg width="50px" height="50px" viewBox="0 0 50 50" version="1.1" xmlns="http://www.w3.org/2000/svg" xmlns:xlink="http://www.w3.org/1999/xlink">
    <!-- Generator: Sketch 46.2 (44496) - http://www.bohemiancoding.com/sketch -->
    <title>phone-support-ikon-big</title>
    <desc>Created with Sketch.</desc>
    <defs></defs>
    <g id="Page-1" stroke="none" stroke-width="1" fill="none" fill-rule="evenodd">
        <g id="CP-Phone-chat-support-activate" transform="translate(-60.000000, -357.000000)">
            <g id="phone-support-ikon-big" transform="translate(60.000000, 357.000000)">
                <circle id="Oval" fill="#3D71C7" cx="25" cy="25" r="25"></circle>
                <path d="M17.3289263,29.1713483 C16.4573754,29.1713483 15.3040448,29.7546816 13.8034045,30.9606742 C12.6435209,31.8913858 12.0340905,32.7762172 12.0013254,33.5889513 C11.9554543,34.7621723 13.1087849,35.8632959 14.1310552,36.8333333 C14.3407517,37.0299625 14.5373421,37.2200375 14.7273795,37.4101124 C15.1074544,37.7902622 15.828286,38 16.7588141,38 C18.4953629,38 20.7954711,37.3052434 23.2266395,36.0337079 C26.0640948,34.5524345 28.9867394,32.3567416 31.6734754,29.6694757 C35.1465731,26.1956929 37.793991,22.335206 39.124253,18.8089888 C40.4086439,15.3941948 40.0809931,13.3951311 39.4060326,12.7265918 C39.2159952,12.5365169 39.0259578,12.3398876 38.8293673,12.1301498 C37.8791802,11.1338951 36.8044858,10 35.6577083,10 C34.8254754,10 33.9211594,10.6095506 32.9578662,11.8024345 C31.6341573,13.4475655 31.057492,14.6863296 31.1819993,15.590824 C31.2934005,16.3904494 31.942149,17.0262172 32.7678288,17.8389513 C32.87923,17.9438202 32.9840783,18.0552434 33.0954795,18.1666667 C33.9604775,19.0318352 33.7966521,20.4016854 32.5974504,22.2434457 C31.7979826,23.4756554 30.5004857,24.9897004 28.7377248,26.752809 C25.3956873,30.0955056 23.1021322,31.6554307 21.5294087,31.6554307 C20.9855085,31.6554307 20.5136914,31.4653558 20.1532756,31.1114232 C20.0418744,31 19.9304731,30.8885768 19.8256249,30.7837079 C18.8295667,29.7481273 18.2135833,29.1713483 17.3289263,29.1713483 Z" id="Shape" fill="#FFFFFF" fill-rule="nonzero"></path>
                <path d="M10.7405507,42 C10.6631353,42 10.58572,41.9867593 10.5083046,41.9668983 C10.1212279,41.847732 9.91009512,41.4505112 10.0367748,41.0863921 C11.2050427,37.782839 14.7872619,36.1409929 14.9350549,36.0681691 C15.3080561,35.9026604 15.7514349,36.0483081 15.9273789,36.3991865 C16.1033228,36.7434445 15.9484921,37.1605264 15.5825287,37.3326554 L15.5825287,37.3326554 C15.5543777,37.3458961 12.4155372,38.7957521 11.4513643,41.5299554 C11.3387602,41.8146303 11.050212,42 10.7405507,42 Z" id="Shape" fill="#FFFFFF" fill-rule="nonzero"></path>
            </g>
        </g>
    </g>
</svg>