<?xml version="1.0" encoding="UTF-8" standalone="no"?>
<svg width="23px" height="23px" viewBox="0 0 23 23" version="1.1" xmlns="http://www.w3.org/2000/svg" xmlns:xlink="http://www.w3.org/1999/xlink">
    <!-- Generator: Sketch 46.2 (44496) - http://www.bohemiancoding.com/sketch -->
    <title>phone-support-icon</title>
    <desc>Created with Sketch.</desc>
    <defs></defs>
    <g id="Page-1" stroke="none" stroke-width="1" fill="none" fill-rule="evenodd">
        <g id="CP-Phone-chat-support-activate" transform="translate(-1040.000000, -263.000000)">
            <g id="Group-8" transform="translate(1010.000000, 252.000000)">
                <g id="phone-support-icon" transform="translate(30.000000, 11.000000)">
                    <circle id="Oval" fill="#FFFFFF" cx="11.5" cy="11.5" r="11.5"></circle>
                    <path d="M7.97130611,13.4188202 C7.57039268,13.4188202 7.03986061,13.6871536 6.34956605,14.2419101 C5.8160196,14.6700375 5.53568163,15.0770599 5.5206097,15.4509176 C5.49950899,15.9905993 6.03004106,16.4971161 6.50028539,16.9433333 C6.59674576,17.0337828 6.68717736,17.1212172 6.77459458,17.2086517 C6.94942901,17.3835206 7.28101155,17.48 7.70905447,17.48 C8.50786695,17.48 9.56591669,17.160412 10.6842542,16.5755056 C11.9894836,15.8941199 13.3339001,14.8841011 14.5697987,13.6479588 C16.1674236,12.0500187 17.3852359,10.2741948 17.9971564,8.65213483 C18.5879762,7.08132959 18.4372568,6.1617603 18.126775,5.85423221 C18.0393578,5.76679775 17.9519406,5.67634831 17.861509,5.57986891 C17.4244229,5.12159176 16.9300635,4.6 16.4025458,4.6 C16.0197187,4.6 15.6037333,4.88039326 15.1606185,5.42911985 C14.5517123,6.18588015 14.2864463,6.75571161 14.3437197,7.17177903 C14.3949642,7.53960674 14.6933885,7.83205993 15.0732012,8.2059176 C15.1244458,8.2541573 15.172676,8.30541199 15.2239206,8.35666667 C15.6218196,8.75464419 15.54646,9.38477528 14.9948272,10.231985 C14.627072,10.7988015 14.0302234,11.4952622 13.2193534,12.3062921 C11.6820162,13.8439326 10.6269808,14.5614981 9.90352801,14.5614981 C9.65333391,14.5614981 9.43629806,14.4740637 9.27050679,14.3112547 C9.21926222,14.26 9.16801764,14.2087453 9.11978746,14.1605056 C8.66160067,13.6841386 8.37824832,13.4188202 7.97130611,13.4188202 Z" id="Shape" fill="#F78F00" fill-rule="nonzero"></path>
                    <path d="M4.9406533,19.32 C4.90504224,19.32 4.86943118,19.3139093 4.83382012,19.3047732 C4.65576483,19.2499567 4.55864376,19.0672352 4.6169164,18.8997404 C5.15431966,17.3801059 6.8021405,16.6248567 6.87012525,16.5913578 C7.0417058,16.5152238 7.24566005,16.5822217 7.32659428,16.7436258 C7.4075285,16.9019845 7.33630639,17.0938421 7.1679632,17.1730215 L7.1679632,17.1730215 C7.15501372,17.1791122 5.71114713,17.8460459 5.26762757,19.1037795 C5.21582967,19.2347299 5.08309754,19.32 4.9406533,19.32 Z" id="Shape" fill="#F78F00" fill-rule="nonzero"></path>
                </g>
            </g>
        </g>
    </g>
</svg>