<?xml version="1.0" encoding="utf-8"?>
<!-- Generator: Adobe Illustrator 17.0.2, SVG Export Plug-In . SVG Version: 6.00 Build 0)  -->
<!DOCTYPE svg PUBLIC "-//W3C//DTD SVG 1.1//EN" "http://www.w3.org/Graphics/SVG/1.1/DTD/svg11.dtd">
<svg version="1.1" xmlns="http://www.w3.org/2000/svg" xmlns:xlink="http://www.w3.org/1999/xlink" x="0px" y="0px" width="34px"
	 height="34px" viewBox="0 0 34 34" enable-background="new 0 0 34 34" xml:space="preserve">
<g id="Rectangle_1_1_" enable-background="new    ">
	<g id="Rectangle_1">
		<g>
			<rect fill-rule="evenodd" clip-rule="evenodd" fill="#29A7DE" width="34" height="34"/>
		</g>
	</g>
</g>
<g id="Shape_1_1_" enable-background="new    ">
	<g id="Shape_1">
		<g>
			<path fill-rule="evenodd" clip-rule="evenodd" fill="#FFFFFF" d="M28,10.162c0,0-1.561,0.609-2.533,0.682
				c0,0,1.368-0.994,1.933-2.512c0,0-1.652,0.971-2.9,1.091c0,0-1.175-1.422-3.344-1.422c-2.169,0-4.992,1.985-4.311,5.57
				c0,0-5.21,0.165-9.337-4.713c0,0-2.058,3.308,1.411,6.076c0,0-1.141-0.05-2.088-0.604c0,0-0.194,3.37,3.673,4.557
				c0,0-1.268,0.252-2.049,0.078c0,0,0.893,2.989,4.214,3.155c0,0-2.544,2.236-6.67,1.908c0,0,8.63,5.778,16.529-2.278
				c3.538-4.096,3.209-9.231,3.209-9.231S27.489,10.936,28,10.162z"/>
		</g>
	</g>
</g>
</svg>
