<?xml version="1.0" encoding="utf-8"?>
<!-- Generator: Adobe Illustrator 18.1.1, SVG Export Plug-In . SVG Version: 6.00 Build 0)  -->
<!DOCTYPE svg PUBLIC "-//W3C//DTD SVG 1.0//EN" "http://www.w3.org/TR/2001/REC-SVG-20010904/DTD/svg10.dtd">
<svg version="1.0" id="Layer_1" xmlns="http://www.w3.org/2000/svg" xmlns:xlink="http://www.w3.org/1999/xlink" x="0px" y="0px"
	 viewBox="0 0 94 12" enable-background="new 0 0 94 12" xml:space="preserve">
<g>
	<path fill="none" d="M27.895,3.639c0.084-0.217,0.126-0.454,0.126-0.709c0-0.413-0.092-0.762-0.277-1.047
		c-0.185-0.284-0.494-0.49-0.928-0.615c-0.136-0.038-0.289-0.065-0.46-0.082c-0.172-0.016-0.395-0.024-0.672-0.024h-1.182v3.552
		h1.369c0.369,0,0.687-0.046,0.958-0.135c0.269-0.09,0.493-0.215,0.671-0.375C27.679,4.044,27.81,3.856,27.895,3.639z"/>
	<path fill="none" d="M61.956,1.488c-0.236-0.141-0.48-0.231-0.732-0.269c-0.253-0.037-0.5-0.057-0.738-0.057h-1.295v4.227h1.263
		c0.423,0,0.775-0.054,1.054-0.163c0.28-0.109,0.515-0.258,0.704-0.451c0.19-0.193,0.335-0.423,0.433-0.692
		c0.097-0.269,0.146-0.561,0.146-0.877c0-0.429-0.08-0.787-0.241-1.074C62.391,1.845,62.193,1.629,61.956,1.488z"/>
	<path fill="none" d="M5.11,9.162c0,0,0.756-6.319,4.974-8.942C5.866,2.843,5.11,9.162,5.11,9.162z"/>
	<path fill="none" d="M83.066,2.342c-0.24-0.367-0.561-0.655-0.962-0.861c-0.401-0.205-0.898-0.309-1.49-0.309
		c-0.591,0-1.088,0.111-1.489,0.333c-0.401,0.223-0.727,0.517-0.978,0.888c-0.252,0.371-0.431,0.803-0.539,1.297
		c-0.109,0.495-0.162,1.015-0.162,1.559c0,0.603,0.05,1.158,0.151,1.667c0.1,0.506,0.27,0.944,0.506,1.311
		c0.238,0.368,0.557,0.655,0.955,0.857c0.398,0.204,0.899,0.306,1.503,0.306c0.596,0,1.098-0.111,1.505-0.334
		c0.406-0.222,0.734-0.521,0.982-0.9c0.248-0.379,0.425-0.816,0.53-1.312c0.105-0.497,0.16-1.024,0.16-1.579
		c0-0.582-0.052-1.123-0.155-1.623C83.478,3.143,83.306,2.71,83.066,2.342z"/>
	<path fill="#221F1F" d="M21.067,0.144c-0.025-0.048-0.055-0.084-0.089-0.106c-0.036-0.021-0.075-0.032-0.119-0.032h-7.332
		c-0.043,0-0.082,0.012-0.118,0.032c-0.035,0.022-0.063,0.059-0.085,0.106c-0.022,0.048-0.04,0.112-0.054,0.192
		c-0.013,0.078-0.019,0.169-0.019,0.273c0,0.102,0.006,0.193,0.019,0.268c0.014,0.077,0.032,0.138,0.054,0.184
		c0.022,0.045,0.05,0.079,0.085,0.102c0.036,0.022,0.075,0.032,0.118,0.032h2.966v9.139c0,0.045,0.011,0.082,0.032,0.115
		c0.022,0.032,0.059,0.059,0.113,0.077c0.055,0.019,0.128,0.036,0.221,0.05c0.092,0.012,0.204,0.02,0.334,0.02
		c0.135,0,0.248-0.009,0.338-0.02c0.089-0.014,0.161-0.031,0.216-0.05c0.054-0.018,0.092-0.045,0.114-0.077
		c0.022-0.033,0.033-0.07,0.033-0.115V1.195h2.965c0.044,0,0.083-0.011,0.119-0.032c0.034-0.022,0.064-0.056,0.089-0.102
		c0.025-0.046,0.042-0.107,0.054-0.184c0.011-0.075,0.016-0.166,0.016-0.268c0-0.104-0.005-0.195-0.016-0.273
		C21.109,0.256,21.092,0.193,21.067,0.144z"/>
	<path fill="#221F1F" d="M29.951,9.74l-0.945-2.32c-0.109-0.267-0.218-0.507-0.325-0.716c-0.11-0.213-0.226-0.4-0.347-0.564
		c-0.123-0.162-0.254-0.302-0.395-0.42c-0.142-0.116-0.298-0.212-0.473-0.288c0.31-0.109,0.59-0.241,0.84-0.399
		c0.25-0.158,0.464-0.343,0.644-0.558c0.179-0.215,0.316-0.462,0.41-0.741c0.095-0.28,0.143-0.596,0.143-0.95
		c0-0.363-0.052-0.697-0.159-0.997c-0.105-0.301-0.265-0.569-0.476-0.802c-0.212-0.235-0.475-0.427-0.787-0.579
		c-0.313-0.152-0.672-0.263-1.079-0.333c-0.141-0.016-0.3-0.033-0.477-0.046c-0.176-0.013-0.398-0.021-0.664-0.021h-2.239
		c-0.125,0-0.243,0.043-0.354,0.126c-0.112,0.085-0.167,0.232-0.167,0.445v9.758c0,0.045,0.011,0.082,0.031,0.115
		c0.023,0.032,0.06,0.059,0.114,0.077c0.055,0.019,0.127,0.036,0.217,0.05c0.089,0.012,0.202,0.02,0.337,0.02
		c0.136,0,0.249-0.009,0.339-0.02c0.089-0.014,0.158-0.031,0.211-0.05c0.052-0.018,0.089-0.045,0.114-0.077
		c0.025-0.033,0.037-0.07,0.037-0.115V5.846h0.938c0.32,0,0.594,0.048,0.822,0.143c0.228,0.094,0.426,0.228,0.594,0.398
		c0.169,0.172,0.314,0.375,0.437,0.611c0.121,0.236,0.24,0.496,0.354,0.778l0.968,2.484c0.022,0.067,0.048,0.121,0.078,0.163
		c0.029,0.045,0.072,0.079,0.126,0.102c0.055,0.024,0.126,0.042,0.216,0.053c0.089,0.011,0.205,0.017,0.346,0.017
		c0.162,0,0.293-0.006,0.391-0.017c0.098-0.012,0.173-0.027,0.228-0.05c0.055-0.02,0.089-0.048,0.105-0.08
		c0.019-0.033,0.026-0.07,0.026-0.115c0-0.043-0.012-0.104-0.033-0.183C30.076,10.073,30.027,9.936,29.951,9.74z M26.828,4.58
		c-0.27,0.089-0.588,0.135-0.958,0.135h-1.369V1.163h1.182c0.277,0,0.501,0.008,0.672,0.024c0.171,0.017,0.324,0.044,0.46,0.082
		c0.434,0.125,0.744,0.33,0.928,0.615c0.185,0.285,0.277,0.634,0.277,1.047c0,0.255-0.042,0.492-0.126,0.709
		c-0.085,0.217-0.216,0.405-0.396,0.566C27.321,4.365,27.097,4.49,26.828,4.58z"/>
	<path fill="#221F1F" d="M39.371,0.074c-0.051-0.019-0.12-0.035-0.209-0.048c-0.088-0.014-0.196-0.021-0.324-0.021
		c-0.133,0-0.245,0.007-0.333,0.021c-0.088,0.013-0.159,0.029-0.213,0.048c-0.053,0.019-0.09,0.044-0.112,0.075
		c-0.022,0.034-0.032,0.07-0.032,0.113v6.343c0,0.466-0.057,0.872-0.173,1.218c-0.115,0.348-0.279,0.64-0.496,0.875
		c-0.217,0.236-0.481,0.412-0.795,0.528c-0.312,0.12-0.669,0.178-1.069,0.178c-0.391,0-0.743-0.061-1.055-0.181
		c-0.313-0.119-0.581-0.3-0.802-0.538c-0.221-0.238-0.391-0.535-0.509-0.894c-0.117-0.357-0.176-0.777-0.176-1.259v-6.27
		c0-0.043-0.011-0.079-0.032-0.113c-0.022-0.032-0.059-0.057-0.109-0.075c-0.051-0.019-0.122-0.035-0.212-0.048
		c-0.091-0.014-0.2-0.021-0.329-0.021c-0.14,0-0.252,0.007-0.337,0.021c-0.086,0.013-0.155,0.029-0.209,0.048
		c-0.052,0.019-0.09,0.044-0.112,0.075c-0.022,0.034-0.032,0.07-0.032,0.113v6.44c0,0.635,0.091,1.196,0.272,1.683
		c0.182,0.484,0.44,0.89,0.777,1.213c0.337,0.324,0.741,0.569,1.211,0.734c0.471,0.166,0.992,0.249,1.564,0.249
		c0.625,0,1.185-0.088,1.675-0.266c0.492-0.176,0.909-0.435,1.251-0.777c0.343-0.342,0.607-0.76,0.791-1.255
		c0.185-0.494,0.276-1.057,0.276-1.688V0.263c0-0.043-0.011-0.079-0.035-0.113C39.46,0.118,39.423,0.093,39.371,0.074z"/>
	<path fill="#221F1F" d="M46.688,5.715c-0.222-0.22-0.471-0.409-0.752-0.572c-0.282-0.161-0.567-0.309-0.858-0.444
		c-0.291-0.136-0.577-0.271-0.858-0.403c-0.28-0.131-0.53-0.278-0.751-0.436c-0.219-0.158-0.396-0.341-0.528-0.548
		c-0.132-0.208-0.199-0.453-0.199-0.739c0-0.195,0.035-0.382,0.103-0.558c0.069-0.174,0.172-0.325,0.31-0.453
		c0.137-0.125,0.313-0.228,0.524-0.306c0.212-0.076,0.461-0.116,0.747-0.116c0.307,0,0.584,0.039,0.831,0.116
		c0.245,0.078,0.459,0.162,0.639,0.254c0.181,0.094,0.333,0.176,0.457,0.25c0.126,0.075,0.215,0.112,0.275,0.112
		c0.037,0,0.07-0.013,0.099-0.036c0.029-0.023,0.052-0.062,0.067-0.111c0.016-0.05,0.029-0.113,0.036-0.188
		c0.008-0.074,0.013-0.159,0.013-0.255c0-0.1-0.004-0.182-0.009-0.245c-0.005-0.064-0.013-0.119-0.024-0.164
		c-0.01-0.044-0.023-0.082-0.04-0.111c-0.015-0.029-0.048-0.068-0.099-0.118c-0.049-0.051-0.156-0.118-0.313-0.2
		c-0.16-0.081-0.341-0.156-0.545-0.222c-0.204-0.066-0.422-0.119-0.651-0.159c-0.232-0.039-0.46-0.059-0.688-0.059
		c-0.444,0-0.86,0.059-1.243,0.179c-0.384,0.119-0.715,0.293-0.993,0.52c-0.279,0.228-0.496,0.51-0.651,0.847
		c-0.157,0.336-0.236,0.718-0.236,1.148c0,0.418,0.068,0.777,0.202,1.076c0.135,0.299,0.312,0.56,0.53,0.783
		c0.217,0.223,0.463,0.416,0.738,0.58c0.275,0.165,0.559,0.315,0.851,0.449c0.291,0.135,0.576,0.268,0.854,0.398
		c0.279,0.129,0.526,0.273,0.744,0.429c0.218,0.157,0.392,0.338,0.525,0.545c0.131,0.206,0.197,0.455,0.197,0.747
		c0,0.27-0.048,0.511-0.142,0.723c-0.095,0.211-0.233,0.39-0.409,0.536c-0.178,0.145-0.39,0.257-0.637,0.337
		c-0.246,0.081-0.519,0.119-0.815,0.119c-0.392,0-0.737-0.047-1.037-0.14c-0.299-0.091-0.554-0.19-0.766-0.297
		c-0.212-0.104-0.386-0.203-0.521-0.294c-0.135-0.089-0.24-0.135-0.314-0.135c-0.042,0-0.079,0.009-0.112,0.028
		c-0.031,0.019-0.058,0.052-0.079,0.099c-0.022,0.048-0.038,0.11-0.048,0.187c-0.011,0.077-0.016,0.173-0.016,0.289
		c0,0.164,0.015,0.296,0.044,0.394c0.028,0.097,0.074,0.179,0.136,0.242c0.06,0.064,0.168,0.14,0.324,0.23
		c0.156,0.09,0.35,0.177,0.581,0.262c0.231,0.085,0.493,0.156,0.788,0.214c0.293,0.06,0.612,0.089,0.957,0.089
		c0.494,0,0.952-0.067,1.379-0.199c0.426-0.132,0.797-0.33,1.113-0.593c0.314-0.262,0.561-0.58,0.738-0.956
		c0.177-0.376,0.267-0.805,0.267-1.289c0-0.407-0.068-0.76-0.204-1.059C47.084,6.195,46.907,5.936,46.688,5.715z"/>
	<path fill="#221F1F" d="M56.056,0.144c-0.023-0.048-0.055-0.084-0.09-0.106c-0.035-0.021-0.075-0.032-0.118-0.032H48.53
		c-0.043,0-0.082,0.012-0.118,0.032c-0.035,0.022-0.064,0.059-0.085,0.106c-0.021,0.048-0.039,0.112-0.053,0.192
		c-0.013,0.077-0.021,0.169-0.021,0.272c0,0.103,0.008,0.192,0.021,0.267c0.014,0.076,0.032,0.138,0.053,0.184
		c0.022,0.046,0.05,0.08,0.085,0.102c0.036,0.022,0.075,0.032,0.118,0.032h2.96v9.124c0,0.043,0.011,0.082,0.032,0.113
		c0.022,0.033,0.06,0.059,0.115,0.078c0.054,0.018,0.126,0.035,0.22,0.048c0.091,0.014,0.202,0.021,0.333,0.021
		c0.135,0,0.247-0.007,0.337-0.021c0.09-0.013,0.161-0.029,0.215-0.048c0.054-0.019,0.092-0.045,0.113-0.078
		c0.022-0.032,0.033-0.07,0.033-0.113V1.192h2.96c0.043,0,0.083-0.01,0.118-0.032c0.035-0.022,0.066-0.055,0.09-0.102
		c0.024-0.045,0.041-0.108,0.053-0.184c0.011-0.075,0.016-0.164,0.016-0.267c0-0.102-0.005-0.195-0.016-0.272
		C56.097,0.256,56.08,0.192,56.056,0.144z"/>
	<path fill="#919395" d="M63.622,1.138c-0.206-0.25-0.457-0.46-0.753-0.631c-0.296-0.171-0.587-0.288-0.873-0.35
		c-0.283-0.062-0.531-0.103-0.74-0.122c-0.21-0.02-0.428-0.029-0.657-0.029h-2.256c-0.142,0-0.269,0.046-0.383,0.139
		c-0.114,0.093-0.171,0.248-0.171,0.465v9.725c0,0.045,0.01,0.082,0.032,0.115c0.021,0.032,0.059,0.059,0.114,0.077
		c0.054,0.019,0.125,0.036,0.217,0.05c0.088,0.012,0.202,0.02,0.337,0.02c0.136,0,0.249-0.009,0.337-0.02
		c0.09-0.014,0.162-0.031,0.213-0.05c0.052-0.018,0.089-0.045,0.114-0.077c0.024-0.033,0.037-0.07,0.037-0.115V6.538h1.197
		c0.653,0,1.213-0.081,1.682-0.244c0.47-0.162,0.867-0.393,1.189-0.693c0.324-0.297,0.571-0.659,0.745-1.082
		c0.175-0.424,0.262-0.899,0.262-1.426c0-0.396-0.056-0.758-0.168-1.087C63.988,1.677,63.829,1.388,63.622,1.138z M62.645,4.083
		c-0.098,0.269-0.243,0.499-0.433,0.692c-0.189,0.193-0.425,0.342-0.704,0.451c-0.279,0.109-0.631,0.163-1.054,0.163h-1.263V1.163
		h1.295c0.239,0,0.485,0.02,0.738,0.057c0.252,0.038,0.496,0.128,0.732,0.269c0.236,0.141,0.435,0.356,0.594,0.645
		c0.161,0.287,0.241,0.645,0.241,1.074C62.791,3.522,62.742,3.815,62.645,4.083z"/>
	<path fill="#919395" d="M67.435,0.076c-0.054-0.019-0.125-0.037-0.215-0.049c-0.088-0.013-0.201-0.021-0.336-0.021
		c-0.124,0-0.23,0.008-0.32,0.021c-0.088,0.013-0.162,0.03-0.218,0.049c-0.058,0.018-0.098,0.044-0.122,0.076
		c-0.023,0.032-0.036,0.07-0.036,0.114v10.062c0,0.043,0.011,0.081,0.032,0.113c0.022,0.032,0.06,0.058,0.114,0.076
		c0.053,0.019,0.126,0.035,0.219,0.049c0.092,0.013,0.203,0.019,0.332,0.019c0.135,0,0.248-0.006,0.336-0.019
		c0.09-0.014,0.161-0.03,0.215-0.049c0.055-0.018,0.092-0.045,0.114-0.076c0.022-0.032,0.032-0.07,0.032-0.113V0.265
		c0-0.044-0.011-0.082-0.032-0.114C67.527,0.119,67.489,0.093,67.435,0.076z"/>
	<path fill="#919395" d="M75.566,9.524c-0.024-0.046-0.053-0.082-0.088-0.106c-0.035-0.025-0.077-0.037-0.127-0.037h-3.779V0.266
		c0-0.043-0.011-0.082-0.033-0.114c-0.021-0.032-0.059-0.059-0.114-0.077c-0.055-0.019-0.126-0.036-0.216-0.049
		c-0.09-0.013-0.202-0.021-0.337-0.021c-0.132,0-0.243,0.008-0.335,0.021c-0.093,0.013-0.166,0.03-0.221,0.049
		c-0.053,0.018-0.091,0.045-0.113,0.077c-0.022,0.032-0.032,0.071-0.032,0.114v9.758c0,0.212,0.056,0.36,0.166,0.444
		c0.112,0.085,0.229,0.127,0.353,0.127h4.66c0.05,0,0.092-0.013,0.127-0.038c0.036-0.023,0.065-0.062,0.088-0.113
		c0.026-0.051,0.043-0.115,0.054-0.188c0.011-0.073,0.015-0.165,0.015-0.272c0-0.11-0.005-0.202-0.015-0.277
		C75.609,9.631,75.592,9.571,75.566,9.524z"/>
	<path fill="#919395" d="M84.073,1.342c-0.373-0.435-0.84-0.767-1.4-0.995c-0.561-0.227-1.219-0.341-1.975-0.341
		c-0.783,0-1.466,0.126-2.054,0.377c-0.588,0.251-1.076,0.607-1.468,1.07c-0.392,0.463-0.686,1.025-0.881,1.685
		c-0.195,0.663-0.294,1.397-0.294,2.206c0,0.845,0.091,1.593,0.271,2.244c0.179,0.65,0.454,1.195,0.821,1.633
		c0.367,0.44,0.834,0.774,1.397,1.005c0.563,0.229,1.231,0.344,2.003,0.344c0.781,0,1.467-0.125,2.054-0.377
		c0.586-0.251,1.074-0.611,1.462-1.078c0.389-0.469,0.681-1.035,0.877-1.701c0.196-0.667,0.294-1.416,0.294-2.244
		c0-0.831-0.092-1.568-0.275-2.21C84.722,2.318,84.445,1.778,84.073,1.342z M83.577,6.844c-0.105,0.496-0.283,0.933-0.53,1.312
		c-0.248,0.378-0.576,0.677-0.982,0.9c-0.407,0.223-0.909,0.334-1.505,0.334c-0.604,0-1.104-0.102-1.503-0.306
		c-0.398-0.203-0.717-0.489-0.955-0.857c-0.237-0.367-0.406-0.805-0.506-1.311c-0.101-0.509-0.151-1.064-0.151-1.667
		c0-0.544,0.054-1.064,0.162-1.559c0.108-0.494,0.287-0.926,0.539-1.297c0.251-0.37,0.577-0.665,0.978-0.888
		c0.402-0.222,0.898-0.333,1.489-0.333c0.591,0,1.088,0.104,1.49,0.309c0.401,0.206,0.722,0.494,0.962,0.861
		c0.24,0.368,0.412,0.802,0.516,1.3c0.102,0.5,0.155,1.041,0.155,1.623C83.737,5.82,83.682,6.347,83.577,6.844z"/>
	<path fill="#919395" d="M93.344,0.336c-0.01-0.08-0.028-0.143-0.053-0.192c-0.024-0.048-0.054-0.084-0.089-0.106
		c-0.036-0.021-0.074-0.032-0.118-0.032h-7.333c-0.042,0-0.081,0.012-0.116,0.032c-0.036,0.022-0.065,0.059-0.087,0.106
		c-0.02,0.048-0.039,0.112-0.053,0.192c-0.014,0.078-0.02,0.169-0.02,0.273c0,0.102,0.006,0.193,0.02,0.268
		c0.014,0.077,0.032,0.138,0.053,0.184c0.022,0.045,0.051,0.079,0.087,0.102c0.035,0.022,0.075,0.032,0.116,0.032h2.967v9.139
		c0,0.045,0.011,0.082,0.033,0.115c0.021,0.032,0.059,0.059,0.114,0.077c0.054,0.019,0.128,0.036,0.22,0.05
		c0.092,0.012,0.204,0.02,0.333,0.02c0.136,0,0.25-0.009,0.338-0.02c0.09-0.014,0.162-0.031,0.216-0.05
		c0.054-0.018,0.092-0.045,0.113-0.077c0.023-0.033,0.035-0.07,0.035-0.115V1.195h2.964c0.043,0,0.082-0.011,0.118-0.032
		c0.035-0.022,0.065-0.056,0.089-0.102c0.025-0.046,0.043-0.107,0.053-0.184c0.012-0.075,0.017-0.166,0.017-0.268
		C93.361,0.505,93.355,0.414,93.344,0.336z"/>
	<polygon fill="#F9A11E" points="10.118,0.196 10.119,0.196 10.131,0.188 	"/>
	<path fill="#F9A11E" d="M5.11,9.162c0,0,0.755-6.319,4.974-8.942c0.012-0.007,0.022-0.017,0.034-0.024
		c0.005-0.002,0.008-0.006,0.012-0.008H0.01v4.477C0.01,4.664,3.39,6.278,5.11,9.162z M0.068,0.256h9.958
		c0,0-1.636,0.576-3.396,3.821c0,0-3.85,0.392-6.552-0.784L0.068,0.256z"/>
	<linearGradient id="SVGID_1_" gradientUnits="userSpaceOnUse" x1="2.2771" y1="10.3347" x2="2.2771" y2="4.5474">
		<stop  offset="0" style="stop-color:#E17A26"/>
		<stop  offset="0.4725" style="stop-color:#F9A11E"/>
	</linearGradient>
	<path fill="url(#SVGID_1_)" d="M0.01,8.355c-0.003,0-0.006-0.001-0.01-0.001v1.981h4.554C4.554,10.335,2.823,8.494,0.01,8.355
		L0.01,8.355z"/>
	<linearGradient id="SVGID_2_" gradientUnits="userSpaceOnUse" x1="7.9537" y1="10.331" x2="7.9537" y2="4.5474">
		<stop  offset="0" style="stop-color:#E17A26"/>
		<stop  offset="0.4725" style="stop-color:#F9A11E"/>
	</linearGradient>
	<path fill="url(#SVGID_2_)" d="M5.777,10.331h4.354V4.547C7.667,5.215,5.777,10.331,5.777,10.331z"/>
	<path fill="#F9A11E" d="M6.629,4.077c1.761-3.245,3.396-3.821,3.396-3.821H0.068l0.009,3.037C2.778,4.469,6.629,4.077,6.629,4.077z
		"/>
	<linearGradient id="SVGID_3_" gradientUnits="userSpaceOnUse" x1="5.0465" y1="4.1396" x2="5.0465" y2="0.2556">
		<stop  offset="0" style="stop-color:#FFFFFF"/>
		<stop  offset="1" style="stop-color:#F9A11E"/>
	</linearGradient>
	<path opacity="0.5" fill="url(#SVGID_3_)" d="M6.629,4.077c1.761-3.245,3.396-3.821,3.396-3.821H0.068l0.009,3.037
		C2.778,4.469,6.629,4.077,6.629,4.077z"/>
	<line fill="none" x1="10.118" y1="0.196" x2="10.131" y2="0.188"/>
	<linearGradient id="SVGID_4_" gradientUnits="userSpaceOnUse" x1="5.0703" y1="0.2364" x2="5.0703" y2="10.2947">
		<stop  offset="0" style="stop-color:#484849"/>
		<stop  offset="1" style="stop-color:#000000"/>
	</linearGradient>
	<path fill="url(#SVGID_4_)" d="M5.11,9.162c-1.72-2.885-5.1-4.498-5.1-4.498v3.69c2.813,0.138,4.544,1.98,4.544,1.98l1.222-0.004
		c0,0,1.89-5.116,4.354-5.784V0.196h-0.012c-0.012,0.007-0.022,0.017-0.034,0.024C5.866,2.843,5.11,9.162,5.11,9.162z"/>
	<path fill="#F9A11E" d="M10.084,0.22c0.012-0.007,0.022-0.017,0.034-0.024h0C10.106,0.204,10.096,0.213,10.084,0.22z"/>
	<linearGradient id="SVGID_5_" gradientUnits="userSpaceOnUse" x1="10.1014" y1="0.2364" x2="10.1014" y2="10.2947">
		<stop  offset="0" style="stop-color:#484849"/>
		<stop  offset="1" style="stop-color:#000000"/>
	</linearGradient>
	<path fill="url(#SVGID_5_)" d="M10.084,0.22c0.012-0.007,0.022-0.017,0.034-0.024h0C10.106,0.204,10.096,0.213,10.084,0.22z"/>
	<linearGradient id="SVGID_6_" gradientUnits="userSpaceOnUse" x1="2.2821" y1="10.3347" x2="2.2821" y2="4.5474">
		<stop  offset="0" style="stop-color:#E17A26"/>
		<stop  offset="0.4725" style="stop-color:#F9A11E"/>
	</linearGradient>
	<path fill="url(#SVGID_6_)" d="M0.01,8.355c2.813,0.139,4.544,1.98,4.544,1.98S2.823,8.493,0.01,8.355L0.01,8.355z"/>
	<linearGradient id="SVGID_7_" gradientUnits="userSpaceOnUse" x1="2.2821" y1="0.2364" x2="2.2821" y2="10.2947">
		<stop  offset="0" style="stop-color:#484849"/>
		<stop  offset="1" style="stop-color:#000000"/>
	</linearGradient>
	<path fill="url(#SVGID_7_)" d="M0.01,8.355c2.813,0.139,4.544,1.98,4.544,1.98S2.823,8.493,0.01,8.355L0.01,8.355z"/>
</g>
</svg>
