<?xml version="1.0" encoding="UTF-8" standalone="no"?>
<svg width="507px" height="183px" viewBox="0 0 507 183" version="1.1" xmlns="http://www.w3.org/2000/svg" xmlns:xlink="http://www.w3.org/1999/xlink">
    <!-- Generator: Sketch 46.1 (44463) - http://www.bohemiancoding.com/sketch -->
    <title>Call-us-phone-bg</title>
    <desc>Created with Sketch.</desc>
    <defs></defs>
    <g id="Web-design" stroke="none" stroke-width="1" fill="none" fill-rule="evenodd" opacity="0.049999997">
        <g id="Verticals-Webdesign-Desktop" transform="translate(-467.000000, -528.000000)" fill="#010101">
            <g id="Group-11" transform="translate(0.000000, 528.000000)">
                <g id="if_10_111023">
                    <g id="Call-us-phone-bg" transform="translate(467.000000, -250.000000)">
                        <path d="M260.022815,510.002029 C306.212992,556.66599 381.032992,556.66599 427.223169,510.002029 C455.967085,481.052928 466.880299,440.969558 459.795391,403.506678 C471.964864,397.26099 482.880558,389.989349 492.012933,383.178825 C493.027366,382.381557 497.538988,379.212476 498.661313,378.305239 C503.730996,374.102709 507,367.748302 507,360.585381 C507,353.777356 504.072034,347.646635 499.343389,343.554072 L406.385131,266.353971 C402.555585,263.177392 397.593794,261.242954 392.194233,261.242954 C386.095235,261.242954 380.574141,263.626012 376.522611,267.491141 C374.940195,269.08068 360.977482,283.492748 360.977482,283.492748 C351.282084,293.262414 335.626583,293.262414 325.931185,283.492748 L231.061875,187.789265 C221.371437,178.024598 221.371437,162.131709 231.061875,152.365793 L246.499111,136.809057 C250.558083,132.721493 252.924266,127.04439 252.924266,120.918667 C252.924266,114.787946 250.558083,109.333278 246.723576,105.246964 L167.065798,8.28634582 C162.896455,3.291545 156.584153,0 149.598456,0 C142.166309,0 135.629542,3.63644493 131.460199,9.19608187 L130.107208,11.0080561 C112.755199,34.6262036 90.1102805,72.0965821 90.1102805,107.29387 C90.1102805,204.251989 304.640497,420.079369 399.959977,420.079369 C401.765618,420.079369 403.571258,419.969401 405.261566,419.969401 C406.949394,437.800478 400.973169,456.182644 387.459387,469.932405 C363.233293,494.335325 324.017652,494.335325 299.790318,469.932405 L144.191455,308.8179 C111.181464,275.548803 57.7712043,275.548803 24.7612135,308.8179 C-8.25373784,342.07825 -8.25373784,395.900134 24.7612135,429.160484 L75.8015694,479.91076 C86.841277,490.930063 104.643457,490.930063 115.688125,479.91076 C126.6187,468.785238 126.6187,450.846692 115.688125,439.726169 L64.5336763,389.082113 C53.6018607,377.961589 53.6018607,360.021794 64.5336763,348.897522 C75.573384,337.878219 93.3780439,337.878219 104.418992,348.897522 L260.022815,510.002029 Z" id="Shape"></path>
                    </g>
                </g>
            </g>
        </g>
    </g>
</svg>