<?xml version="1.0" encoding="UTF-8" standalone="no"?>
<svg width="424px" height="242px" viewBox="0 0 424 242" version="1.1" xmlns="http://www.w3.org/2000/svg" xmlns:xlink="http://www.w3.org/1999/xlink">
    <!-- Generator: Sketch 46.1 (44463) - http://www.bohemiancoding.com/sketch -->
    <title>Top-img-SVG-Webdesign</title>
    <desc>Created with Sketch.</desc>
    <defs>
        <polygon id="path-1" points="0 0 81.0869035 0 81.0869035 63.9593012 0 63.9593012"></polygon>
    </defs>
    <g id="Web-design" stroke="none" stroke-width="1" fill="none" fill-rule="evenodd">
        <g id="Verticals-Webdesign-Desktop" transform="translate(-864.000000, -217.000000)">
            <g id="Top-img-SVG-Webdesign" transform="translate(864.000000, 217.000000)">
                <path d="M360.506395,179.362566 C354.048256,186.690597 345.872443,192.469763 336.611541,196.077026 C330.512581,216.83424 311.364785,232 288.654435,232 C275.880328,232 264.260078,227.165273 255.422748,219.276877 C245.636493,225.855496 233.858831,229.701572 221.18422,229.701572 C207.222099,229.701572 194.385621,224.988754 184.06476,217.136039 C171.091661,225.100256 155.837577,229.701572 139.503886,229.701572 C113.181978,229.701572 89.6533845,217.766397 73.9968611,199.023653 C69.9605877,199.854714 65.7787827,200.302209 61.4915416,200.302209 C27.5307112,200.302209 0,172.740399 0,138.738233 C0,104.740527 27.5307112,77.1802039 61.4915416,77.1802039 C68.7978202,77.1802039 75.7729402,78.5212014 82.2758252,80.8612569 C94.9801368,69.3601963 111.165326,61.6516908 129.053828,59.4617913 C141.856151,24.7519593 175.19476,0 214.314536,0 C247.799644,0 277.045361,18.1372541 292.799292,45.1332382 C297.143884,44.8141782 301.627091,45.5148297 305.89803,47.3735029 C313.227899,50.5633025 318.459259,56.5409618 320.954845,63.5175899 C329.655538,50.0205959 347.058424,44.3899341 362.256096,51.0058116 C375.753987,56.8784275 383.375606,70.6120082 382.158633,84.5116511 C386.369751,85.1244492 390.570616,86.2428208 394.658712,88.021505 C419.374487,98.7789701 430.690795,127.538814 419.931539,152.267731 C409.863523,175.406522 384.035822,186.810518 360.506395,179.362566 Z" id="Combined-Shape" fill="#40A274"></path>
                <g id="imac" transform="translate(94.000000, 20.000000)" fill-rule="nonzero">
                    <path d="M251.929393,6.54050848 C251.934374,3.6609793 249.583162,1.32129652 246.674591,1.31147298 L5.43059821,1.31147298 C2.52202767,1.32129652 0.170815987,3.6609793 0.175796373,6.54050848 L0.175796373,168.988023 L251.938391,168.988023 L251.929393,6.54050848 Z" id="Shape" fill="#003D54"></path>
                    <path d="M0.175796373,168.988023 L0.175796373,179.97167 C0.170815987,182.851199 2.52202767,185.190882 5.43059821,185.200706 L246.683589,185.200706 C249.59216,185.190882 251.943372,182.851199 251.938391,179.97167 L251.938391,168.988023 L0.175796373,168.988023 Z" id="Shape" fill="#EDEDED"></path>
                    <path d="M11,11 L240.161153,11 L240.161153,11 C241.265723,11 242.161153,11.8954305 242.161153,13 L242.161153,158.075101 L242.161153,158.075101 C242.161153,159.17967 241.265723,160.075101 240.161153,160.075101 L11,160.075101 L11,160.075101 C9.8954305,160.075101 9,159.17967 9,158.075101 L9,13 L9,13 C9,11.8954305 9.8954305,11 11,11 Z" id="Rectangle-path" fill="#FFFFFF"></path>
                    <path d="M179.576891,217.465725 C176.364623,215.069455 171.748676,212.610829 169.148268,209.501913 C162.642752,201.716263 163.461565,185.565937 163.461565,185.565937 L96.8767473,185.565937 C96.8767473,185.565937 97.7045585,201.716263 91.1900439,209.501913 C88.5896369,212.610829 83.9916853,215.069455 80.7614218,217.465725 C80.3316371,217.793784 80.0373394,218.265657 79.9336105,218.793027 L180.404702,218.793027 C180.300973,218.265657 180.006675,217.793784 179.576891,217.465725 Z" id="Shape" fill="#D2DEDE"></path>
                    <path d="M79.9696023,218.810844 C79.8785993,219.196783 79.8941388,219.599851 80.0145921,219.9778 C80.323829,220.888245 81.1858728,221.501426 82.1561038,221.50108 L178.2182,221.50108 C178.895344,221.509267 179.539018,221.210131 179.965259,220.689164 C180.391499,220.168197 180.553405,219.482726 180.404702,218.82866 L79.9696023,218.810844 Z" id="Shape" fill="#FFFFFF"></path>
                    <path d="M71.2145986,111.842772 L71.2145986,110.845068" id="Shape" fill="#227792"></path>
                    <path d="M100.835845,0.108883902 L100.835845,0.607735669" id="Shape" fill="#C28800"></path>
                    <rect id="Rectangle-path" fill="#003D54" x="97.0387104" y="185.18289" width="66.3868629" height="3.23362842"></rect>
                </g>
                <g id="Checkmark" transform="translate(51.000000, 156.000000)" fill-rule="nonzero">
                    <path d="M38.5,0 C17.2375,0 0,17.236625 0,38.5 C0,59.763375 17.2375,77 38.5,77 C59.7625,77 77,59.763375 77,38.5 C77,17.236625 59.7625,0 38.5,0 Z" id="Shape" fill="#66D7A2"></path>
                    <path d="M56.6336672,25.4066302 C54.8128619,23.5311233 51.8601732,23.5311233 50.0393679,25.4066302 L33.5542025,42.3991309 L26.9599032,35.6023709 C25.139098,33.7256626 22.1875749,33.7256626 20.365604,35.6023709 C18.5447987,37.4790793 18.5447987,40.5224226 20.365604,42.4003324 L30.2553044,52.5924687 C32.0761096,54.4691771 35.029964,54.4691771 36.8507693,52.5924687 L56.6325015,32.2033902 C58.4544725,30.3266818 58.4568038,27.28454 56.6336672,25.4066302 Z" id="Shape" fill="#FFFFFF"></path>
                </g>
                <g id="Group-19" transform="translate(125.000000, 90.000000)">
                    <mask id="mask-2" fill="white">
                        <use xlink:href="#path-1"></use>
                    </mask>
                    <use id="img" fill="#B0DDFE" fill-rule="nonzero" xlink:href="#path-1"></use>
                    <path d="M50.9864621,65.1693245 L82.1110557,65.0009504 L82.1110557,59.4137359 C82.1110557,59.4137359 78.757498,53.7194061 75.6516238,50.1501688 C73.3399099,47.4952378 69.888065,46.7454301 66.8765466,50.004798 L50.9864621,65.1693245 Z" id="Shape-Copy-4" fill="#568621" fill-rule="nonzero" mask="url(#mask-2)"></path>
                    <path d="M20.2717259,64.4653943 L76.1725458,64.6337684 L56.4315705,39.932148 C52.0401004,34.4979555 44.8533436,34.4979555 40.4618734,39.932148 L20.2717259,64.4653943 Z" id="Shape-Copy-2" fill="#69A328" fill-rule="nonzero" mask="url(#mask-2)"></path>
                </g>
                <ellipse id="Mask" fill="#FFBA00" fill-rule="nonzero" transform="translate(140.704006, 105.909819) rotate(-270.000000) translate(-140.704006, -105.909819) " cx="140.704006" cy="105.909819" rx="8.27812568" ry="8.39069242"></ellipse>
                <rect id="XMLID_9_-Copy-3" fill="#E6E6E6" fill-rule="nonzero" opacity="0.899999976" x="221" y="136" width="81" height="5"></rect>
                <polygon id="XMLID_9_-Copy-5" fill="#E6E6E6" fill-rule="nonzero" opacity="0.899999976" points="221 146 287 146 287 151 221 151"></polygon>
                <rect id="Rectangle-32" fill="#E8E8E8" x="125" y="58" width="189" height="21"></rect>
                <rect id="Rectangle-path" fill="#003D54" fill-rule="nonzero" x="287.560444" y="22" width="1" height="19.3128882"></rect>
                <rect id="Rectangle-path" fill="#003D54" fill-rule="nonzero" x="283.575611" y="22" width="1" height="19.3128882"></rect>
                <ellipse id="Oval" fill="#FFBD35" fill-rule="nonzero" cx="285.904698" cy="41.3497918" rx="4.21851113" ry="4.21931252"></ellipse>
                <path d="M234.729115,99.3622637 C234.238583,99.2957631 233.835722,98.9416023 233.706838,98.4635671 C233.577954,97.9855318 233.748171,97.4768036 234.138769,97.1726496 L285.400444,67.6497632 C285.938738,67.487681 286.518396,67.7112823 286.808477,68.1929074 C287.098557,68.6745325 287.025218,69.2915805 286.630331,69.6917628 L235.368656,99.2146493 C235.172781,99.3208905 234.951729,99.3719123 234.729115,99.3622637 L234.729115,99.3622637 Z" id="Shape" fill="#003D54" fill-rule="nonzero"></path>
                <path d="M286.039985,74.0340874 C278.937584,74.1550819 272.931405,68.8036033 272.234132,61.7331342 C271.536859,54.6626651 276.381964,48.240652 283.371131,46.9714415 L283.371131,42.9858518 C283.371131,41.5116046 284.566018,40.3164913 286.039985,40.3164913 C287.513952,40.3164913 288.708839,41.5116046 288.708839,42.9858518 L288.708839,49.431682 C288.708839,50.9059294 287.513952,52.101043 286.039985,52.101043 C282.5335,52.1012302 279.405256,54.3049403 278.223969,57.6070822 C277.042682,60.9092241 278.063121,64.5976216 280.773568,66.8226594 C283.484016,69.0476973 287.299907,69.3294995 290.307692,67.5267512 C291.565647,66.832686 293.147194,67.2591485 293.885863,68.4916017 C294.624532,69.7240549 294.255231,71.3201986 293.050339,72.1027986 C290.931825,73.3703321 288.508612,74.0379054 286.039985,74.0340874 L286.039985,74.0340874 Z" id="Shape" fill="#FFBD35" fill-rule="nonzero"></path>
                <path d="M331.471997,91.5263976 C331.297974,91.5255914 331.126104,91.4878566 330.967744,91.4156868 L284.613317,68.670763 C284.022971,68.3878353 284.256649,68.3878353 284.539523,67.8096788 C284.839105,67.2493816 285.516029,67.0094811 286.101479,67.2561247 L331.976251,89.2875787 C332.398477,89.5704913 332.603239,90.0840164 332.49155,90.5799027 C332.37986,91.0757889 331.974725,91.4518935 331.471997,91.5263976 L331.471997,91.5263976 Z" id="Shape" fill="#003D54" fill-rule="nonzero"></path>
                <rect id="Rectangle-path" fill="#003D54" fill-rule="nonzero" transform="translate(287.306849, 106.280210) rotate(-5.180000) translate(-287.306849, -106.280210) " x="220.997512" y="92.2322361" width="132.618675" height="28.0959469"></rect>
                <path d="M228,101.33809 L228,109.4764 L229.866045,109.4764 L229.866045,101.33809 L228,101.33809 Z M231.451573,109.4764 L233.305422,109.4764 L233.305422,106.07135 C233.305422,105.902305 233.329814,105.721186 233.3786,105.612514 C233.500564,105.274424 233.805473,104.924259 234.317721,104.924259 C234.988521,104.924259 235.256841,105.443469 235.256841,106.204171 L235.256841,109.4764 L237.11069,109.4764 L237.11069,105.974753 C237.11069,104.236004 236.195962,103.439078 234.976325,103.439078 C233.988419,103.439078 233.3786,104.006586 233.134673,104.3809 L233.098083,104.3809 L233.012709,103.571899 L231.402788,103.571899 C231.42718,104.091109 231.451573,104.71899 231.451573,105.455543 L231.451573,109.4764 Z M242.684432,103.571899 L244.294353,103.571899 C244.26996,103.946213 244.245567,104.441273 244.245567,105.322722 L244.245567,108.6191 C244.245567,109.754116 244.013836,110.683864 243.343036,111.275521 C242.684432,111.830955 241.794097,112 240.915958,112 C240.13539,112 239.306037,111.84303 238.769396,111.541164 L239.135287,110.15258 C239.513375,110.369923 240.171979,110.599341 240.867172,110.599341 C241.745311,110.599341 242.416112,110.12843 242.416112,109.041712 L242.416112,108.655324 L242.391719,108.655324 C242.038024,109.150384 241.464795,109.428101 240.781798,109.428101 C239.306037,109.428101 238.257149,108.244786 238.257149,106.542261 C238.257149,104.646542 239.501179,103.439078 240.964743,103.439078 C241.7819,103.439078 242.294148,103.789243 242.599057,104.272228 L242.62345,104.272228 L242.684432,103.571899 Z M242.391719,106.844127 L242.391719,105.974753 C242.391719,105.854007 242.379522,105.73326 242.35513,105.636663 C242.22097,105.153677 241.867275,104.827662 241.355027,104.827662 C240.684227,104.827662 240.13539,105.431394 240.13539,106.506037 C240.13539,107.387486 240.574459,108.075741 241.355027,108.075741 C241.830686,108.075741 242.208773,107.7618 242.330737,107.327113 C242.379522,107.194292 242.391719,107.001098 242.391719,106.844127 Z M251.002357,107.109769 L247.1605,107.109769 C247.221482,107.870472 247.977657,108.232711 248.843599,108.232711 C249.477811,108.232711 249.990058,108.148189 250.49011,107.991218 L250.734037,109.234907 C250.124219,109.4764 249.38024,109.597146 248.575279,109.597146 C246.550682,109.597146 245.392026,108.43798 245.392026,106.59056 C245.392026,105.093304 246.331147,103.439078 248.40453,103.439078 C250.331557,103.439078 251.063339,104.924259 251.063339,106.385291 C251.063339,106.699232 251.02675,106.976948 251.002357,107.109769 Z M247.148304,105.854007 L249.343651,105.854007 C249.343651,105.407245 249.148509,104.658617 248.294763,104.658617 C247.514195,104.658617 247.197089,105.358946 247.148304,105.854007 Z M252.173209,109.4764 L254.027057,109.4764 L254.027057,106.07135 C254.027057,105.902305 254.05145,105.721186 254.100236,105.612514 C254.222199,105.274424 254.527109,104.924259 255.039356,104.924259 C255.710157,104.924259 255.978477,105.443469 255.978477,106.204171 L255.978477,109.4764 L257.832326,109.4764 L257.832326,105.974753 C257.832326,104.236004 256.917598,103.439078 255.69796,103.439078 C254.710054,103.439078 254.100236,104.006586 253.856308,104.3809 L253.819719,104.3809 L253.734345,103.571899 L252.124423,103.571899 C252.148816,104.091109 252.173209,104.71899 252.173209,105.455543 L252.173209,109.4764 Z M261.78395,111.867179 L261.78395,105.552141 C261.78395,104.779363 261.759557,104.115258 261.735164,103.571899 L263.345086,103.571899 L263.43046,104.392975 L263.454853,104.392975 C263.893922,103.765093 264.576919,103.439078 265.442862,103.439078 C266.747873,103.439078 267.918725,104.56202 267.918725,106.445664 C267.918725,108.594951 266.540535,109.609221 265.21113,109.609221 C264.491545,109.609221 263.930511,109.319429 263.662191,108.933041 L263.637799,108.933041 L263.637799,111.867179 L261.78395,111.867179 Z M263.637799,106.131723 L263.637799,106.940724 C263.637799,107.08562 263.649995,107.218441 263.674388,107.327113 C263.796351,107.822173 264.223224,108.196487 264.759865,108.196487 C265.564825,108.196487 266.040484,107.532382 266.040484,106.530187 C266.040484,105.588364 265.613611,104.87596 264.784257,104.87596 C264.259813,104.87596 263.796351,105.262349 263.674388,105.805708 C263.649995,105.902305 263.637799,106.023052 263.637799,106.131723 Z M269.07738,109.4764 L270.931229,109.4764 L270.931229,106.481888 C270.931229,106.336992 270.943425,106.192097 270.967818,106.07135 C271.089782,105.503842 271.553244,105.141603 272.236241,105.141603 C272.443579,105.141603 272.602132,105.165752 272.736292,105.189901 L272.736292,103.463227 C272.602132,103.439078 272.516757,103.439078 272.346008,103.439078 C271.772779,103.439078 271.040996,103.801317 270.736087,104.658617 L270.687301,104.658617 L270.62632,103.571899 L269.028595,103.571899 C269.052988,104.079034 269.07738,104.646542 269.07738,105.515917 L269.07738,109.4764 Z M276.456185,103.439078 C278.285641,103.439078 279.505278,104.682766 279.505278,106.457739 C279.505278,108.6191 277.956339,109.609221 276.358614,109.609221 C274.614533,109.609221 273.272932,108.474204 273.272932,106.566411 C273.272932,104.658617 274.541355,103.439078 276.456185,103.439078 Z M276.4074,104.743139 C275.517065,104.743139 275.187763,105.648738 275.187763,106.518112 C275.187763,107.532382 275.614636,108.293085 276.4074,108.293085 C277.126986,108.293085 277.590448,107.580681 277.590448,106.518112 C277.590448,105.636663 277.248949,104.743139 276.4074,104.743139 Z M284.774111,103.571899 L286.384032,103.571899 C286.359639,103.946213 286.335246,104.441273 286.335246,105.322722 L286.335246,108.6191 C286.335246,109.754116 286.103515,110.683864 285.432715,111.275521 C284.774111,111.830955 283.883776,112 283.005637,112 C282.225069,112 281.395716,111.84303 280.859076,111.541164 L281.224967,110.15258 C281.603054,110.369923 282.261658,110.599341 282.956851,110.599341 C283.83499,110.599341 284.505791,110.12843 284.505791,109.041712 L284.505791,108.655324 L284.481398,108.655324 C284.127703,109.150384 283.554474,109.428101 282.871477,109.428101 C281.395716,109.428101 280.346828,108.244786 280.346828,106.542261 C280.346828,104.646542 281.590858,103.439078 283.054422,103.439078 C283.871579,103.439078 284.383827,103.789243 284.688736,104.272228 L284.713129,104.272228 L284.774111,103.571899 Z M284.481398,106.844127 L284.481398,105.974753 C284.481398,105.854007 284.469202,105.73326 284.444809,105.636663 C284.310649,105.153677 283.956954,104.827662 283.444706,104.827662 C282.773906,104.827662 282.225069,105.431394 282.225069,106.506037 C282.225069,107.387486 282.664139,108.075741 283.444706,108.075741 C283.920365,108.075741 284.298452,107.7618 284.420416,107.327113 C284.469202,107.194292 284.481398,107.001098 284.481398,106.844127 Z M287.823204,109.4764 L289.677052,109.4764 L289.677052,106.481888 C289.677052,106.336992 289.689249,106.192097 289.713641,106.07135 C289.835605,105.503842 290.299067,105.141603 290.982064,105.141603 C291.189402,105.141603 291.347955,105.165752 291.482115,105.189901 L291.482115,103.463227 C291.347955,103.439078 291.262581,103.439078 291.091832,103.439078 C290.518602,103.439078 289.78682,103.801317 289.48191,104.658617 L289.433125,104.658617 L289.372143,103.571899 L287.774418,103.571899 C287.798811,104.079034 287.823204,104.646542 287.823204,105.515917 L287.823204,109.4764 Z M297.385159,109.4764 L295.714256,109.4764 L295.604489,108.884742 L295.5679,108.884742 C295.177616,109.355653 294.567797,109.609221 293.860408,109.609221 C292.652967,109.609221 291.933381,108.739846 291.933381,107.798024 C291.933381,106.264544 293.323768,105.527991 295.43374,105.540066 L295.43374,105.455543 C295.43374,105.141603 295.262991,104.694841 294.348263,104.694841 C293.738444,104.694841 293.092036,104.90011 292.701753,105.141603 L292.360254,103.958288 C292.774931,103.728869 293.592088,103.439078 294.677565,103.439078 C296.665573,103.439078 297.299785,104.598244 297.299785,105.986828 L297.299785,108.039517 C297.299785,108.607025 297.324178,109.150384 297.385159,109.4764 Z M295.494722,107.327113 L295.494722,106.687157 C294.519012,106.675082 293.762837,106.904501 293.762837,107.616905 C293.762837,108.087816 294.079943,108.317234 294.494619,108.317234 C294.958081,108.317234 295.336169,108.015368 295.458133,107.641054 C295.482525,107.544457 295.494722,107.435785 295.494722,107.327113 Z M298.763349,109.4764 L300.568412,109.4764 L300.568412,106.035126 C300.568412,105.890231 300.580609,105.721186 300.641591,105.57629 C300.751358,105.274424 301.031875,104.912184 301.507533,104.912184 C302.092959,104.912184 302.361279,105.419319 302.361279,106.167947 L302.361279,109.4764 L304.166342,109.4764 L304.166342,106.023052 C304.166342,105.878156 304.190735,105.684962 304.23952,105.552141 C304.361484,105.201976 304.666393,104.912184 305.093266,104.912184 C305.690889,104.912184 305.971405,105.407245 305.971405,106.264544 L305.971405,109.4764 L307.776468,109.4764 L307.776468,105.998902 C307.776468,104.236004 306.910526,103.439078 305.764067,103.439078 C305.324997,103.439078 304.959106,103.535675 304.629804,103.728869 C304.349288,103.897914 304.080968,104.139407 303.861433,104.441273 L303.83704,104.441273 C303.580916,103.825467 302.971098,103.439078 302.202726,103.439078 C301.178231,103.439078 300.653787,103.994512 300.397663,104.368825 L300.361074,104.368825 L300.275699,103.571899 L298.714564,103.571899 C298.738957,104.091109 298.763349,104.71899 298.763349,105.455543 L298.763349,109.4764 Z M309.252229,109.4764 L311.057292,109.4764 L311.057292,106.035126 C311.057292,105.890231 311.069489,105.721186 311.13047,105.57629 C311.240238,105.274424 311.520754,104.912184 311.996413,104.912184 C312.581839,104.912184 312.850159,105.419319 312.850159,106.167947 L312.850159,109.4764 L314.655222,109.4764 L314.655222,106.023052 C314.655222,105.878156 314.679615,105.684962 314.7284,105.552141 C314.850364,105.201976 315.155273,104.912184 315.582146,104.912184 C316.179768,104.912184 316.460285,105.407245 316.460285,106.264544 L316.460285,109.4764 L318.265348,109.4764 L318.265348,105.998902 C318.265348,104.236004 317.399406,103.439078 316.252947,103.439078 C315.813877,103.439078 315.447986,103.535675 315.118684,103.728869 C314.838167,103.897914 314.569847,104.139407 314.350313,104.441273 L314.32592,104.441273 C314.069796,103.825467 313.459977,103.439078 312.691606,103.439078 C311.667111,103.439078 311.142667,103.994512 310.886543,104.368825 L310.849954,104.368825 L310.764579,103.571899 L309.203444,103.571899 C309.227836,104.091109 309.252229,104.71899 309.252229,105.455543 L309.252229,109.4764 Z M325.009942,107.109769 L321.168084,107.109769 C321.229066,107.870472 321.985241,108.232711 322.851184,108.232711 C323.485395,108.232711 323.997643,108.148189 324.497694,107.991218 L324.741621,109.234907 C324.131803,109.4764 323.387824,109.597146 322.582864,109.597146 C320.558266,109.597146 319.399611,108.43798 319.399611,106.59056 C319.399611,105.093304 320.338731,103.439078 322.412114,103.439078 C324.339141,103.439078 325.070923,104.924259 325.070923,106.385291 C325.070923,106.699232 325.034334,106.976948 325.009942,107.109769 Z M321.155888,105.854007 L323.351235,105.854007 C323.351235,105.407245 323.156093,104.658617 322.302347,104.658617 C321.521779,104.658617 321.204674,105.358946 321.155888,105.854007 Z M326.180793,109.4764 L328.034642,109.4764 L328.034642,106.481888 C328.034642,106.336992 328.046838,106.192097 328.071231,106.07135 C328.193195,105.503842 328.656657,105.141603 329.339654,105.141603 C329.546992,105.141603 329.705545,105.165752 329.839705,105.189901 L329.839705,103.463227 C329.705545,103.439078 329.62017,103.439078 329.449421,103.439078 C328.876191,103.439078 328.144409,103.801317 327.8395,104.658617 L327.790714,104.658617 L327.729732,103.571899 L326.132008,103.571899 C326.156401,104.079034 326.180793,104.646542 326.180793,105.515917 L326.180793,109.4764 Z M332.669263,109.4764 L332.669263,103.571899 L330.815415,103.571899 L330.815415,109.4764 L332.669263,109.4764 Z M331.742339,101 C331.144717,101 330.754433,101.398463 330.766629,101.929748 C330.754433,102.436883 331.144717,102.84742 331.730142,102.84742 C332.339961,102.84742 332.730245,102.436883 332.730245,101.929748 C332.718049,101.398463 332.339961,101 331.742339,101 Z M334.15722,109.4764 L336.011069,109.4764 L336.011069,106.07135 C336.011069,105.902305 336.035462,105.721186 336.084247,105.612514 C336.206211,105.274424 336.51112,104.924259 337.023368,104.924259 C337.694168,104.924259 337.962488,105.443469 337.962488,106.204171 L337.962488,109.4764 L339.816337,109.4764 L339.816337,105.974753 C339.816337,104.236004 338.901609,103.439078 337.681972,103.439078 C336.694066,103.439078 336.084247,104.006586 335.84032,104.3809 L335.803731,104.3809 L335.718356,103.571899 L334.108435,103.571899 C334.132828,104.091109 334.15722,104.71899 334.15722,105.455543 L334.15722,109.4764 Z M345.390079,103.571899 L347,103.571899 C346.975607,103.946213 346.951215,104.441273 346.951215,105.322722 L346.951215,108.6191 C346.951215,109.754116 346.719483,110.683864 346.048683,111.275521 C345.390079,111.830955 344.499744,112 343.621605,112 C342.841037,112 342.011684,111.84303 341.475044,111.541164 L341.840935,110.15258 C342.219022,110.369923 342.877626,110.599341 343.57282,110.599341 C344.450958,110.599341 345.121759,110.12843 345.121759,109.041712 L345.121759,108.655324 L345.097366,108.655324 C344.743671,109.150384 344.170442,109.428101 343.487445,109.428101 C342.011684,109.428101 340.962796,108.244786 340.962796,106.542261 C340.962796,104.646542 342.206826,103.439078 343.67039,103.439078 C344.487547,103.439078 344.999795,103.789243 345.304704,104.272228 L345.329097,104.272228 L345.390079,103.571899 Z M345.097366,106.844127 L345.097366,105.974753 C345.097366,105.854007 345.08517,105.73326 345.060777,105.636663 C344.926617,105.153677 344.572922,104.827662 344.060674,104.827662 C343.389874,104.827662 342.841037,105.431394 342.841037,106.506037 C342.841037,107.387486 343.280107,108.075741 344.060674,108.075741 C344.536333,108.075741 344.91442,107.7618 345.036384,107.327113 C345.08517,107.194292 345.097366,107.001098 345.097366,106.844127 Z" id="Ingen-programmering!" fill="#FFFFFF" transform="translate(287.500000, 106.500000) rotate(-5.200000) translate(-287.500000, -106.500000) "></path>
            </g>
        </g>
    </g>
</svg>