<?xml version="1.0" encoding="UTF-8" standalone="no"?>
<svg width="605px" height="273px" viewBox="0 0 605 273" version="1.1" xmlns="http://www.w3.org/2000/svg" xmlns:xlink="http://www.w3.org/1999/xlink">
    <!-- Generator: Sketch 45.2 (43514) - http://www.bohemiancoding.com/sketch -->
    <title>Webshop-full-width-img</title>
    <desc>Created with Sketch.</desc>
    <defs>
        <polygon id="path-1" points="0 0 100.467501 0 100.467501 77.9503984 0 77.9503984"></polygon>
        <ellipse id="path-3" cx="19.4574236" cy="19.3900914" rx="10.2566822" ry="10.2261564"></ellipse>
        <polygon id="path-5" points="0 0 53.1549759 0 53.1549759 41.2417099 0 41.2417099"></polygon>
        <ellipse id="path-7" cx="10.294462" cy="10.2588382" rx="5.42656768" ry="5.41041718"></ellipse>
        <polygon id="path-9" points="0 0 22.9195543 0 22.9195543 17.7827493 0 17.7827493"></polygon>
        <ellipse id="path-11" cx="3.48691348" cy="3.46650718" rx="3.10848682" ry="3.09923537"></ellipse>
    </defs>
    <g id="Webshop" stroke="none" stroke-width="1" fill="none" fill-rule="evenodd">
        <g id="Verticals-Webshop-Desktop" transform="translate(-445.000000, -1779.000000)">
            <g id="Webshop-full-width-img" transform="translate(445.000000, 1779.000000)">
                <g id="Group-10-Copy">
                    <g id="Laptop" transform="translate(53.000000, 0.000000)">
                        <path d="M408.461487,0 L41.4359257,0 C35.0769979,0 29.9228802,5.14008649 29.9228802,11.4812414 L29.9228802,249.726823 L419.973597,249.726823 L419.973597,11.4821768 C419.974532,5.14008649 414.820414,0 408.461487,0 L408.461487,0 Z" id="Fill-1" fill="#1F1F1F"></path>
                        <polygon id="az" fill="#FFFFFF" points="49 230.403011 401.650156 230.403011 401.650156 19 49 19"></polygon>
                        <polygon id="Fill-3" fill="#E8EBF0" points="0 271.254384 448.997546 271.254384 448.997546 249.739919 0 249.739919"></polygon>
                        <polygon id="Fill-4" fill="#D0D3D8" points="147.795026 262.83568 300.267109 262.83568 300.267109 258.18762 147.795026 258.18762"></polygon>
                        <path d="M225.229517,7.14766677 C226.391298,7.14766677 227.334193,8.11581773 227.334193,9.31033829 C227.334193,10.5048588 226.391298,11.4730098 225.229517,11.4730098 C224.0668,11.4730098 223.124841,10.5048588 223.124841,9.31033829 C223.124841,8.11581773 224.0668,7.14766677 225.229517,7.14766677" id="Fill-5" fill="#E8EBF0"></path>
                    </g>
                    <g id="Mobile" transform="translate(0.000000, 171.000000)">
                        <path d="M51.8807311,0 L7.97157727,0 C2.10186976,0 0,2.11028847 0,8.00244585 L0,93.0098417 C0,98.9029345 2.10093435,101.013223 7.97157727,101.013223 L51.8807311,101.013223 C57.7504386,101.013223 59.8523083,98.9029345 59.8523083,93.0098417 L59.8523083,8.00244585 C59.8523083,2.11028847 57.7504386,0 51.8807311,0 L51.8807311,0 Z" id="Fill-1" fill="#393939"></path>
                        <polygon id="Path" fill="#FFFFFF" points="3 82.4432182 57.2538702 82.4432182 57.2538702 16 3 16"></polygon>
                        <path d="M39.2872853,88.851002 L20.5790542,88.851002 C19.5454244,88.851002 18.7082311,89.6881953 18.7082311,90.7218251 L18.7082311,92.5926482 C18.7082311,93.6262779 19.5454244,94.4634713 20.5790542,94.4634713 L39.2872853,94.4634713 C40.3209151,94.4634713 41.1581084,93.6262779 41.1581084,92.5926482 L41.1581084,90.7218251 C41.1581084,89.6881953 40.3209151,88.851002 39.2872853,88.851002" id="Fill-3" fill="#FFFFFF"></path>
                        <path d="M41.1695204,7.47019668 L18.6681955,7.47019668 C18.3520264,7.47019668 18.0947882,7.72649944 18.0947882,8.04360396 L18.0947882,8.73861475 C18.0947882,9.05478385 18.351091,9.31202203 18.6681955,9.31202203 L41.1704559,9.31202203 C41.486625,9.31202203 41.7438631,9.05571926 41.7438631,8.73861475 L41.7438631,8.04360396 C41.7429277,7.72649944 41.486625,7.47019668 41.1695204,7.47019668" id="Fill-4" fill="#FFFFFF"></path>
                    </g>
                    <g id="Tablet" transform="translate(426.000000, 153.000000)">
                        <rect id="Rectangle-5" fill="#FFFFFF" x="6.20162357" y="1.5461348" width="167.443836" height="116.733178"></rect>
                        <path d="M166.916698,0 L11.3807545,0 C3.0000354,0 0,3.00568605 0,11.401198 L0,107.64577 C0,116.040509 3.0000354,119.046195 11.3807545,119.046195 L166.916698,119.046195 C175.297417,119.046195 178.296678,116.040509 178.296678,107.64577 L178.296678,11.401198 C178.295902,3.00568605 175.296642,0 166.916698,0 L166.916698,0 Z" id="Fill-1" fill="#2C4A58"></path>
                        <polygon id="Path" fill="#FFFFFF" points="23 116.094773 159.435719 116.094773 159.435719 4 23 4"></polygon>
                        <path d="M11.9551023,54.8562443 C15.1458376,54.8562443 17.7326899,57.4189627 17.7326899,60.5815815 C17.7326899,63.7434271 15.1458376,66.3069186 11.9551023,66.3069186 C8.76436699,66.3069186 6.17751476,63.7434271 6.17751476,60.5815815 C6.17751476,57.4189627 8.76436699,54.8562443 11.9551023,54.8562443" id="Fill-3" fill="#FFFFFF"></path>
                        <path d="M166.993366,44.3470114 L166.294908,44.3470114 C166.060022,44.3470114 165.869322,44.537186 165.869322,44.7714255 L165.869322,74.3134231 C165.869322,74.5476625 166.060022,74.7378371 166.294908,74.7378371 L166.993366,74.7378371 C167.228252,74.7378371 167.418952,74.5476625 167.418952,74.3134231 L167.418952,44.7714255 C167.419728,44.537186 167.229028,44.3470114 166.993366,44.3470114" id="Fill-4" fill="#FFFFFF"></path>
                    </g>
                </g>
                <g id="Group-14" transform="translate(162.000000, 78.000000)">
                    <g id="Group-19">
                        <g id="icon">
                            <mask id="mask-2" fill="white">
                                <use xlink:href="#path-1"></use>
                            </mask>
                            <use id="img" fill="#B0DDFE" fill-rule="nonzero" xlink:href="#path-1"></use>
                            <g id="Group-22" mask="url(#mask-2)" fill-rule="nonzero">
                                <g transform="translate(25.116875, 43.700114)">
                                    <path d="M38.0558717,35.7250004 L76.619561,35.5197944 L76.619561,28.7103768 C76.619561,28.7103768 72.4644687,21.7704124 68.616259,17.4204044 C65.7520218,14.1847072 61.4751508,13.2708792 57.7438486,17.2432337 L38.0558717,35.7250004 Z" id="Shape-Copy-4" fill="#568621"></path>
                                    <path d="M0,34.8670854 L69.2616866,35.0722914 L44.8024167,4.96719155 C39.3613404,-1.65573052 30.4568753,-1.65573052 25.0157989,4.96719155 L0,34.8670854 Z" id="Shape-Copy-2" fill="#69A328"></path>
                                </g>
                            </g>
                        </g>
                    </g>
                    <polygon id="Rectangle-31" fill="#F78F00" points="118 49 232.665807 49 232.665807 78 118 78"></polygon>
                    <mask id="mask-4" fill="white">
                        <use xlink:href="#path-3"></use>
                    </mask>
                    <use id="Mask" fill="#FFBA00" fill-rule="nonzero" transform="translate(19.457424, 19.390091) rotate(-270.000000) translate(-19.457424, -19.390091) " xlink:href="#path-3"></use>
                </g>
                <rect id="Rectangle" fill="#D8D8D8" opacity="0.200000003" x="161" y="169" width="46" height="46"></rect>
                <rect id="Rectangle-Copy-4" fill="#D8D8D8" opacity="0.200000003" x="286" y="169" width="46" height="46"></rect>
                <rect id="Rectangle-Copy-3" fill="#D8D8D8" opacity="0.200000003" x="224" y="169" width="46" height="46"></rect>
                <rect id="Rectangle-Copy-5" fill="#D8D8D8" opacity="0.200000003" x="349" y="169" width="46" height="46"></rect>
                <polygon id="XMLID_9_-Copy-6" fill="#E6E6E6" fill-rule="nonzero" opacity="0.899999976" points="280 78 380.467501 78 380.467501 93.5667046 280 93.5667046"></polygon>
                <rect id="XMLID_9_-Copy-3" fill="#E6E6E6" fill-rule="nonzero" opacity="0.899999976" x="280" y="101" width="100.467501" height="4.56670461"></rect>
                <polygon id="XMLID_9_-Copy-5" fill="#E6E6E6" fill-rule="nonzero" opacity="0.899999976" points="280 112 360.467501 112 360.467501 116.566705 280 116.566705"></polygon>
                <path d="M343.423481,148.232125 C343.423481,149.465168 342.433041,150.464249 341.21174,150.464249 C339.989957,150.464249 339,149.465168 339,148.232125 C339,146.999568 339.989957,146 341.21174,146 C342.433041,146 343.423481,146.999568 343.423481,148.232125" id="Fill-6" fill="#FFFFFF"></path>
                <path d="M342.452704,144.322111 L333.684785,144.322111 C333.162334,144.322111 332.704949,143.968979 332.568552,143.460196 L330.391032,135.333297 L329.156236,135.333297 C328.517631,135.333297 328,134.810896 328,134.166406 C328,133.522402 328.517631,133 329.156236,133 L331.275921,133 C331.798371,133 332.255757,133.353618 332.392153,133.861914 L332.784473,135.327461 L344.765175,135.327461 C345.140145,135.327461 345.491016,135.510836 345.708382,135.819219 C345.925267,136.127601 345.979729,136.523051 345.856345,136.880074 L343.543874,143.54094 C343.381452,144.008864 342.943827,144.322111 342.452704,144.322111 L342.452704,144.322111 Z" id="Fill-8" fill="#FFFFFF"></path>
                <path d="M337.423481,148.232125 C337.423481,149.465168 336.433041,150.464249 335.21174,150.464249 C333.989957,150.464249 333,149.465168 333,148.232125 C333,146.999568 333.989957,146 335.21174,146 C336.433041,146 337.423481,146.999568 337.423481,148.232125" id="Fill-10" fill="#FFFFFF"></path>
                <rect id="Rectangle-32" fill="#E8E8E8" x="162" y="39" width="232.650156" height="27"></rect>
                <g id="Group-25" transform="translate(455.000000, 166.000000)">
                    <g id="Group-14-Copy" transform="translate(0.529076, 20.633976)">
                        <g id="Group-19">
                            <g id="icon">
                                <mask id="mask-6" fill="white">
                                    <use xlink:href="#path-5"></use>
                                </mask>
                                <use id="img" fill="#B0DDFE" fill-rule="nonzero" xlink:href="#path-5"></use>
                                <g id="Group-22" mask="url(#mask-6)" fill-rule="nonzero">
                                    <g transform="translate(13.288744, 23.120695)">
                                        <path d="M20.1344606,18.9012517 L40.5375953,18.7926821 L40.5375953,15.1899805 C40.5375953,15.1899805 38.3392344,11.5182097 36.3032378,9.21672346 C34.7878377,7.50479268 32.5250465,7.0213079 30.5509029,9.12298661 L20.1344606,18.9012517 Z" id="Shape-Copy-4" fill="#568621"></path>
                                        <path d="M0,18.4473492 L36.6447182,18.5559188 L23.7038977,2.62802343 C20.8251531,-0.876007809 16.1140115,-0.876007809 13.2352668,2.62802343 L0,18.4473492 Z" id="Shape-Copy-2" fill="#69A328"></path>
                                    </g>
                                </g>
                            </g>
                        </g>
                        <polygon id="Rectangle-31" fill="#F78F00" points="62.4310057 25.9247397 123.097969 25.9247397 123.097969 41.2679529 62.4310057 41.2679529"></polygon>
                        <mask id="mask-8" fill="white">
                            <use xlink:href="#path-7"></use>
                        </mask>
                        <use id="Mask" fill="#FFBA00" fill-rule="nonzero" transform="translate(10.294462, 10.258838) rotate(-270.000000) translate(-10.294462, -10.258838) " xlink:href="#path-7"></use>
                    </g>
                    <rect id="Rectangle-Copy-6" fill="#D8D8D8" opacity="0.200000003" x="0" y="68.7799215" width="24.3375107" height="24.3375107"></rect>
                    <rect id="Rectangle-Copy-7" fill="#D8D8D8" opacity="0.200000003" x="66.1345399" y="68.7799215" width="24.3375107" height="24.3375107"></rect>
                    <rect id="Rectangle-Copy-8" fill="#D8D8D8" opacity="0.200000003" x="32.8027318" y="68.7799215" width="24.3375107" height="24.3375107"></rect>
                    <rect id="Rectangle-Copy-9" fill="#D8D8D8" opacity="0.200000003" x="99.4663481" y="68.7799215" width="24.3375107" height="24.3375107"></rect>
                    <polygon id="XMLID_9_-Copy-7" fill="#E6E6E6" fill-rule="nonzero" opacity="0.899999976" points="62.960082 20.6339765 116.115058 20.6339765 116.115058 28.8699512 62.960082 28.8699512"></polygon>
                    <rect id="XMLID_9_-Copy-4" fill="#E6E6E6" fill-rule="nonzero" opacity="0.899999976" x="62.960082" y="32.8027318" width="53.1549759" height="2.41613527"></rect>
                    <polygon id="XMLID_9_-Copy-8" fill="#E6E6E6" fill-rule="nonzero" opacity="0.899999976" points="62.960082 38.6225713 105.533531 38.6225713 105.533531 41.0387066 62.960082 41.0387066"></polygon>
                    <path d="M96.5159438,57.7921305 C96.5159438,58.4445045 95.9919257,58.9730948 95.3457643,58.9730948 C94.6993479,58.9730948 94.1755849,58.4445045 94.1755849,57.7921305 C94.1755849,57.1400138 94.6993479,56.6111662 95.3457643,56.6111662 C95.9919257,56.6111662 96.5159438,57.1400138 96.5159438,57.7921305" id="Fill-6-Copy" fill="#FFFFFF"></path>
                    <path d="M96.0023288,55.7234346 L91.3634304,55.7234346 C91.0870141,55.7234346 90.8450223,55.5366009 90.7728582,55.2674162 L89.6207835,50.9676665 L88.9674822,50.9676665 C88.6296117,50.9676665 88.3557453,50.691276 88.3557453,50.3502916 C88.3557453,50.0095645 88.6296117,49.733174 88.9674822,49.733174 L90.0889573,49.733174 C90.3653737,49.733174 90.6073654,49.9202651 90.6795295,50.1891925 L90.8870967,50.9645783 L97.2258026,50.9645783 C97.4241899,50.9645783 97.6098275,51.061598 97.7248309,51.2247559 C97.8395794,51.3879137 97.868394,51.5971366 97.8031149,51.7860292 L96.5796411,55.3101357 C96.4937073,55.5577033 96.2621704,55.7234346 96.0023288,55.7234346 L96.0023288,55.7234346 Z" id="Fill-8-Copy" fill="#FFFFFF"></path>
                    <path d="M92.8124095,57.7921305 C92.8124095,58.4445045 92.2883915,58.9730948 91.6422301,58.9730948 C90.9958137,58.9730948 90.4720506,58.4445045 90.4720506,57.7921305 C90.4720506,57.1400138 90.9958137,56.6111662 91.6422301,56.6111662 C92.2883915,56.6111662 92.8124095,57.1400138 92.8124095,57.7921305" id="Fill-10-Copy" fill="#FFFFFF"></path>
                    <rect id="Rectangle-32-Copy" fill="#E8E8E8" x="0.529076319" y="0" width="123.089688" height="14.2850606"></rect>
                </g>
                <g id="Group-25-Copy" transform="translate(5.000000, 190.000000)">
                    <g id="Group-29" transform="translate(0.000000, 49.000000)" fill="#D8D8D8" opacity="0.200000003">
                        <rect id="Rectangle-Copy-6" x="0" y="0" width="9.66099538" height="8.23597478"></rect>
                        <rect id="Rectangle-Copy-10" x="26.6666667" y="0" width="9.66099538" height="8.23597478"></rect>
                        <rect id="Rectangle-Copy-8" x="13.3333333" y="0" width="9.66099538" height="8.23597478"></rect>
                        <rect id="Rectangle-Copy-11" x="40" y="0" width="9.66099538" height="8.23597478"></rect>
                    </g>
                    <g id="Group-27" transform="translate(0.000000, 11.000000)">
                        <g id="Group-14-Copy" transform="translate(0.214937, 0.257553)">
                            <g id="Group-19">
                                <g id="icon">
                                    <mask id="mask-10" fill="white">
                                        <use xlink:href="#path-9"></use>
                                    </mask>
                                    <use id="img" fill="#B0DDFE" fill-rule="nonzero" xlink:href="#path-9"></use>
                                    <g id="Group-22" mask="url(#mask-10)" fill-rule="nonzero">
                                        <g transform="translate(5.729889, 9.969265)">
                                            <path d="M8.68164934,8.14990991 L17.4791466,8.10309647 L17.4791466,6.5496706 C17.4791466,6.5496706 16.5312494,4.96646319 15.653361,3.97410007 C14.9999454,3.23594358 14.0242669,3.02747287 13.1730485,3.93368228 L8.68164934,8.14990991 Z" id="Shape-Copy-4" fill="#568621"></path>
                                            <path d="M0,7.9541946 L15.8006018,8.00100803 L10.2207321,1.13316062 C8.97946464,-0.377720207 6.9480976,-0.377720207 5.70683011,1.13316062 L0,7.9541946 Z" id="Shape-Copy-2" fill="#69A328"></path>
                                        </g>
                                    </g>
                                </g>
                            </g>
                            <polygon id="Rectangle-31" fill="#F78F00" points="-3.55271368e-15 21 49.452688 21 49.452688 34.6901277 -8.56203997e-13 34.6901277"></polygon>
                            <g id="Group-31" transform="translate(3.000000, 3.000000)">
                                <mask id="mask-12" fill="white">
                                    <use xlink:href="#path-11"></use>
                                </mask>
                                <use id="Mask" fill="#FFBA00" fill-rule="nonzero" transform="translate(3.486913, 3.466507) rotate(-270.000000) translate(-3.486913, -3.466507) " xlink:href="#path-11"></use>
                            </g>
                        </g>
                        <polygon id="XMLID_9_-Copy-7" fill="#E6E6E6" fill-rule="nonzero" opacity="0.899999976" points="26.9052734 0.257552936 48.970459 0.257552936 48.970459 4.91506204 26.9052734 4.91506204"></polygon>
                        <rect id="XMLID_9_-Copy-4" fill="#E6E6E6" fill-rule="nonzero" opacity="0.899999976" x="26.9052734" y="7.13908066" width="22.0651855" height="1.36634367"></rect>
                        <polygon id="XMLID_9_-Copy-8" fill="#E6E6E6" fill-rule="nonzero" opacity="0.899999976" points="26.9052734 10.4302461 44.5779569 10.4302461 44.5779569 11.7965898 26.9052734 11.7965898"></polygon>
                        <g id="Group-28" transform="translate(21.000000, 24.000000)" fill="#FFFFFF">
                            <path d="M7.28375941,6.59822077 C7.28375941,7.11974738 6.86484429,7.54231765 6.34828424,7.54231765 C5.83152033,7.54231765 5.41280906,7.11974738 5.41280906,6.59822077 C5.41280906,6.07689989 5.83152033,5.65412388 6.34828424,5.65412388 C6.86484429,5.65412388 7.28375941,6.07689989 7.28375941,6.59822077" id="Fill-6-Copy"></path>
                            <path d="M6.8731608,4.9444457 L3.16469176,4.9444457 C2.94371658,4.9444457 2.75026137,4.79508542 2.69257136,4.5798914 L1.77156965,1.14254759 L1.24930175,1.14254759 C0.979198322,1.14254759 0.76026166,0.921593119 0.76026166,0.649000316 C0.76026166,0.376613243 0.979198322,0.155658774 1.24930175,0.155658774 L2.14584126,0.155658774 C2.36681644,0.155658774 2.56027165,0.305224788 2.61796166,0.520213074 L2.78389689,1.14007882 L7.85124097,1.14007882 C8.00983755,1.14007882 8.15824154,1.21763919 8.25017863,1.34807227 C8.34191187,1.47850536 8.36494711,1.64576419 8.31276109,1.79677031 L7.33468092,4.61404265 C7.26598291,4.81195531 7.08088562,4.9444457 6.8731608,4.9444457 L6.8731608,4.9444457 Z" id="Fill-8-Copy"></path>
                            <path d="M4.32304743,6.59822077 C4.32304743,7.11974738 3.90413231,7.54231765 3.38757226,7.54231765 C2.87080835,7.54231765 2.45209708,7.11974738 2.45209708,6.59822077 C2.45209708,6.07689989 2.87080835,5.65412388 3.38757226,5.65412388 C3.90413231,5.65412388 4.32304743,6.07689989 4.32304743,6.59822077" id="Fill-10-Copy"></path>
                        </g>
                    </g>
                    <rect id="Rectangle-32-Copy" fill="#E8E8E8" x="0" y="0" width="50.2167969" height="8.23597478"></rect>
                </g>
            </g>
        </g>
    </g>
</svg>