<?xml version="1.0" ?><svg height="120px" version="1.1" viewBox="0 0 180 120" width="180px" xmlns="http://www.w3.org/2000/svg" xmlns:sketch="http://www.bohemiancoding.com/sketch/ns" xmlns:xlink="http://www.w3.org/1999/xlink"><title/><defs/><g fill="none" fill-rule="evenodd" id="Page-1" stroke="none" stroke-width="1"><g id="rectangle_brazil" transform="translate(-16.000000, 0.000000)"><rect fill="#57BB63" height="120" id="Rectangle-3" width="180" x="16" y="0"/><path d="M106,12 L28,60.5 L106,109 L184,60.5 L106,12 L106,12 Z" fill="#E5B731" id="Rectangle-87"/><path d="M106,95 C125.329967,95 141,79.3299672 141,60 C141,40.6700328 125.329967,25 106,25 C86.6700328,25 71,40.6700328 71,60 C71,79.3299672 86.6700328,95 106,95 Z" fill="#346DA6" id="Oval-15-copy-2"/><path d="M132.24796,74.3619337 L132.139877,73.731763 L132.85317,73.0364753 L131.867424,72.8932374 L131.426585,72 L130.985746,72.8932372 L130,73.0364745 L130.713292,73.7317628 L130.544907,74.7135255 L131.426585,74.25 L132.122609,74.6159218 L131.985746,74.8932372 L131,75.0364745 L131.713292,75.7317628 L131.544907,76.7135255 L132.426585,76.25 L133.308263,76.7135256 L133.139877,75.731763 L133.85317,75.0364753 L132.867424,74.8932374 L132.426585,74 L132.24796,74.3619337 L132.24796,74.3619337 Z M117.426585,49.25 L116.544907,49.7135255 L116.713292,48.7317628 L116,48.0364745 L116.985746,47.8932372 L117.426585,47 L117.867424,47.8932374 L118.85317,48.0364753 L118.139877,48.731763 L118.308263,49.7135256 L117.426585,49.25 Z M115.426585,59.25 L114.544907,59.7135255 L114.713292,58.7317628 L114,58.0364745 L114.985746,57.8932372 L115.426585,57 L115.867424,57.8932374 L116.85317,58.0364753 L116.139877,58.731763 L116.308263,59.7135256 L115.426585,59.25 Z M106.426585,66.25 L105.544907,66.7135255 L105.713292,65.7317628 L105,65.0364745 L105.985746,64.8932372 L106.426585,64 L106.867424,64.8932374 L107.85317,65.0364753 L107.139877,65.731763 L107.308263,66.7135256 L106.426585,66.25 Z M109.426585,69.25 L108.544907,69.7135255 L108.713292,68.7317628 L108,68.0364745 L108.985746,67.8932372 L109.426585,67 L109.867424,67.8932374 L110.85317,68.0364753 L110.139877,68.731763 L110.308263,69.7135256 L109.426585,69.25 Z M105.426585,77.25 L104.544907,77.7135255 L104.713292,76.7317628 L104,76.0364745 L104.985746,75.8932372 L105.426585,75 L105.867424,75.8932374 L106.85317,76.0364753 L106.139877,76.731763 L106.308263,77.7135256 L105.426585,77.25 Z M134.926585,72.5 L134.3388,72.809017 L134.451056,72.1545085 L133.975528,71.690983 L134.632692,71.5954914 L134.926585,71 L135.220478,71.5954916 L135.877642,71.6909835 L135.402113,72.1545086 L135.51437,72.809017 L134.926585,72.5 Z M126.926585,80.5 L126.3388,80.809017 L126.451057,80.1545085 L125.975528,79.690983 L126.632692,79.5954914 L126.926585,79 L127.220478,79.5954916 L127.877642,79.6909835 L127.402113,80.1545086 L127.51437,80.809017 L126.926585,80.5 Z M123.426585,80.25 L122.544907,80.7135255 L122.713292,79.7317628 L122,79.0364745 L122.985746,78.8932372 L123.426585,78 L123.867424,78.8932374 L124.85317,79.0364753 L124.139877,79.731763 L124.308263,80.7135256 L123.426585,80.25 Z M130.426585,79.25 L131.308263,79.7135255 L131.139877,78.7317628 L131.85317,78.0364745 L130.867424,77.8932372 L130.426585,77 L129.985746,77.8932374 L129,78.0364753 L129.713293,78.731763 L129.544907,79.7135256 L130.426585,79.25 Z M123.426585,88.25 L124.308263,88.7135255 L124.139877,87.7317628 L124.85317,87.0364745 L123.867424,86.8932372 L123.426585,86 L122.985746,86.8932374 L122,87.0364753 L122.713292,87.731763 L122.544907,88.7135256 L123.426585,88.25 Z M123.426585,84.25 L124.308263,84.7135255 L124.139877,83.7317628 L124.85317,83.0364745 L123.867424,82.8932372 L123.426585,82 L122.985746,82.8932374 L122,83.0364753 L122.713292,83.731763 L122.544907,84.7135256 L123.426585,84.25 Z M76.4265848,54.25 L75.544907,54.7135255 L75.7132924,53.7317628 L75,53.0364745 L75.985746,52.8932371 L76.4265848,52 L76.8674239,52.8932374 L77.8531698,53.0364753 L77.1398771,53.731763 L77.3082626,54.7135256 L76.4265848,54.25 Z M85.9265848,63.5 L85.3387996,63.809017 L85.4510565,63.1545085 L84.9755283,62.690983 L85.6326923,62.5954914 L85.9265848,62 L86.2204775,62.5954916 L86.8776415,62.6909835 L86.402113,63.1545086 L86.51437,63.809017 L85.9265848,63.5 Z M80.4265848,69.25 L79.544907,69.7135255 L79.7132924,68.7317628 L79,68.0364745 L79.985746,67.8932372 L80.4265848,67 L80.8674239,67.8932374 L81.8531698,68.0364753 L81.1398771,68.731763 L81.3082626,69.7135256 L80.4265848,69.25 Z M86.4265848,76.25 L85.544907,76.7135255 L85.7132924,75.7317628 L85,75.0364745 L85.985746,74.8932372 L86.4265848,74 L86.8674239,74.8932374 L87.8531698,75.0364753 L87.1398771,75.731763 L87.3082626,76.7135256 L86.4265848,76.25 Z M75.4265848,72.25 L74.544907,72.7135255 L74.7132924,71.7317628 L74,71.0364745 L74.985746,70.8932372 L75.4265848,70 L75.8674239,70.8932374 L76.8531698,71.0364753 L76.1398771,71.731763 L76.3082626,72.7135256 L75.4265848,72.25 Z M93.4265848,59.25 L92.544907,59.7135255 L92.7132924,58.7317628 L92,58.0364745 L92.985746,57.8932372 L93.4265848,57 L93.8674239,57.8932374 L94.8531698,58.0364753 L94.1398771,58.731763 L94.3082626,59.7135256 L93.4265848,59.25 Z M90.9265848,78.5 L90.3387996,78.809017 L90.4510565,78.1545085 L89.9755283,77.690983 L90.6326923,77.5954914 L90.9265848,77 L91.2204775,77.5954916 L91.8776415,77.6909835 L91.402113,78.1545086 L91.51437,78.809017 L90.9265848,78.5 Z M100.926585,68.5 L100.3388,68.809017 L100.451057,68.1545085 L99.9755283,67.690983 L100.632692,67.5954914 L100.926585,67 L101.220478,67.5954916 L101.877642,67.6909835 L101.402113,68.1545086 L101.51437,68.809017 L100.926585,68.5 Z M104.926585,71.5 L104.3388,71.809017 L104.451057,71.1545085 L103.975528,70.690983 L104.632692,70.5954914 L104.926585,70 L105.220478,70.5954916 L105.877642,70.6909835 L105.402113,71.1545086 L105.51437,71.809017 L104.926585,71.5 Z M112.926585,79.5 L112.3388,79.809017 L112.451057,79.1545085 L111.975528,78.690983 L112.632692,78.5954914 L112.926585,78 L113.220478,78.5954916 L113.877642,78.6909835 L113.402113,79.1545086 L113.51437,79.809017 L112.926585,79.5 Z M117.926585,81.5 L117.3388,81.809017 L117.451057,81.1545085 L116.975528,80.690983 L117.632692,80.5954914 L117.926585,80 L118.220478,80.5954916 L118.877642,80.6909835 L118.402113,81.1545086 L118.51437,81.809017 L117.926585,81.5 Z M114.926585,85.5 L114.3388,85.809017 L114.451057,85.1545085 L113.975528,84.690983 L114.632692,84.5954914 L114.926585,84 L115.220478,84.5954916 L115.877642,84.6909835 L115.402113,85.1545086 L115.51437,85.809017 L114.926585,85.5 Z" fill="#FFFFFF" id="Star-39"/><g id="text" transform="translate(0.000000, 25.000000)"><path d="M140.545136,40.6573609 C125.647754,27.7854277 106.233069,20.0000013 85,20.0000013 C81.2880692,20.0000013 77.6317109,20.2379354 74.0453446,20.6993839 C73.2802332,22.4064057 72.6478874,24.1858915 72.1614462,26.0247023 C76.3414082,25.3504226 80.6297813,25 85,25 C105.904449,25 124.936205,33.0179479 139.18773,46.1463041 C139.782177,44.3756337 140.23889,42.5417424 140.545136,40.6573609 Z" fill="#FFFFFF" id="Shape"/><g id="Group" transform="translate(74.190476, 19.761905)"><g fill="#009B3A" id="O" transform="translate(1.216466, 3.424154) rotate(-7.000000) translate(-1.216466, -3.424154) translate(0.216466, 1.424154)"><path d="M1.08226641,3.93040925 C1.63455116,3.93040925 2.08226641,3.03497875 2.08226641,1.93040925 C2.08226641,0.825839753 1.63455116,-0.0695907465 1.08226641,-0.0695907465 C0.52998166,-0.0695907465 0.0822664135,0.825839753 0.0822664135,1.93040925 C0.0822664135,3.03497875 0.52998166,3.93040925 1.08226641,3.93040925 M1.08226641,3.18755211 C1.40662412,3.18755211 1.669568,2.62471008 1.669568,1.93040925 C1.669568,1.23610842 1.40662412,0.673266393 1.08226641,0.673266393 C0.7579087,0.673266393 0.494964827,1.23610842 0.494964827,1.93040925 C0.494964827,2.62471008 0.7579087,3.18755211 1.08226641,3.18755211" id="Shape"/></g><g fill="#009B3A" id="R" transform="translate(5.485577, 2.310557) rotate(-4.000000) translate(-5.485577, -2.310557) translate(4.485577, 0.310557)"><g id="Group" transform="translate(0.000000, -0.000000)"><path d="M1.08657719,3.00976583 L0.439229935,3.00976583 L0.439229935,4.49548012 L0.0265315203,4.49548012 L0.0582775516,0.495480123 L1.32811882,0.495480123 C1.7138415,0.495480123 2.02653152,1.05832215 2.02653152,1.75262298 C2.02653152,2.30813021 1.82636194,2.77948363 1.54877147,2.94573563 C1.74568224,3.38056866 1.83501654,4.10813815 1.88499629,4.51519056 L1.48464154,4.56434794 C1.43492517,4.15944062 1.34626794,3.43738543 1.08657719,3.00976583 Z M0.439229935,2.26690869 L1.29637279,2.26690869 C1.45416843,2.26690869 1.58208707,2.03665513 1.58208707,1.75262298 C1.58208707,1.46859082 1.45416843,1.23833726 1.29637279,1.23833726 L0.439229935,1.23833726 L0.439229935,2.26690869 Z" id="P"/></g></g><g fill="#009B3A" id="D" transform="translate(10.342155, 2.536822) rotate(-1.000000) translate(-10.342155, -2.536822) translate(8.842155, 1.036822)"><path d="M0.0238095238,3.38095238 L1.5952381,3.38095238 C2.38421631,3.38095238 3.02380952,2.74135917 3.02380952,1.95238095 L3.02380952,1.47619048 C3.02380952,1.09730978 2.87329975,0.733947044 2.60539064,0.466037932 C2.33748153,0.19812882 1.9741188,0.0476190476 1.5952381,0.0476190476 L0.0238095238,0.0476190476 L0.0238095238,3.38095238 L0.0238095238,3.38095238 Z M0.642857143,2.76190476 L1.54761905,2.76190476 C2.04730525,2.76190476 2.45238095,2.35682906 2.45238095,1.85714286 L2.45238095,1.57142857 C2.45238095,1.07174237 2.04730525,0.666666667 1.54761905,0.666666667 L0.642857143,0.666666667 L0.642857143,2.76190476 L0.642857143,2.76190476 Z" id="Shape"/></g><g fill="#009B3A" id="E" transform="translate(14.670754, 2.620956) rotate(2.000000) translate(-14.670754, -2.620956) translate(13.170754, 1.120956)"><path d="M0.0238095238,3.33333333 L3.02380952,3.33333333 L3.02380952,2.71428571 L0.595238095,2.71428571 L0.595238095,1.85714286 L2.5,1.85714286 L2.5,1.28571429 L0.595238095,1.28571429 L0.595238095,0.619047619 L2.88095238,0.619047619 L2.88095238,0 L0.0238095238,0 L0.0238095238,3.33333333 L0.0238095238,3.33333333 Z" id="Shape"/></g><g fill="#009B3A" id="M" transform="translate(18.990680, 2.883925) rotate(5.000000) translate(-18.990680, -2.883925) translate(17.490680, 1.383925)"><path d="M0.0238095238,3.33333333 L0.595238095,3.33333333 L0.595238095,1.04761905 L1.26190476,3.33333333 L1.78571429,3.33333333 L2.45238095,1.04761905 L2.45238095,3.33333333 L3.02380952,3.33333333 L3.02380952,0 L2.19047619,0 L1.52380952,2.28571429 L0.857142857,0 L0.0238095238,0 L0.0238095238,3.33333333 L0.0238095238,3.33333333 Z" id="Shape"/></g><g fill="#009B3A" id="e" transform="translate(25.963824, 4.130269) rotate(9.750000) translate(-25.963824, -4.130269) translate(24.463824, 2.630269)"><path d="M0.0357142857,3 L2.53571429,3 L2.53571429,2.42857143 L0.607142857,2.42857143 L0.607142857,1.66666667 L2.17857143,1.66666667 L2.17857143,1.0952381 L0.607142857,1.0952381 L0.607142857,0.571428571 L2.47619048,0.571428571 L2.47619048,0 L0.0357142857,0 L0.0357142857,3 L0.0357142857,3 Z" id="Shape"/></g><g fill="#009B3A" id="P" transform="translate(32.484553, 5.198595) rotate(14.500000) translate(-32.484553, -5.198595) translate(30.984553, 3.698595)"><path d="M0.0238095238,3.33333333 L0.642857143,3.33333333 L0.642857143,2.0952381 L1.97619048,2.0952381 C2.5547745,2.0952381 3.02380952,1.62620307 3.02380952,1.04761905 C3.02380952,0.469035024 2.5547745,0 1.97619048,0 L0.0714285714,0 L0.0238095238,3.33333333 L0.0238095238,3.33333333 Z M0.642857143,1.47619048 L1.92857143,1.47619048 C2.16526489,1.47619048 2.35714286,1.28431251 2.35714286,1.04761905 C2.35714286,0.810925583 2.16526489,0.619047619 1.92857143,0.619047619 L0.642857143,0.619047619 L0.642857143,1.47619048 L0.642857143,1.47619048 Z" id="Shape"/></g><g fill="#009B3A" id="R" transform="translate(36.494810, 6.867193) rotate(17.500000) translate(-36.494810, -6.867193) translate(34.994810, 4.867193)"><g id="Group"><path d="M0.0238095238,3.33333333 L0.642857143,3.33333333 L0.642857143,2.0952381 L1.97619048,2.0952381 C2.5547745,2.0952381 3.02380952,1.62620307 3.02380952,1.04761905 C3.02380952,0.469035024 2.5547745,0 1.97619048,0 L0.0714285714,0 L0.0238095238,3.33333333 L0.0238095238,3.33333333 Z M0.642857143,1.47619048 L1.92857143,1.47619048 C2.16526489,1.47619048 2.35714286,1.28431251 2.35714286,1.04761905 C2.35714286,0.810925583 2.16526489,0.619047619 1.92857143,0.619047619 L0.642857143,0.619047619 L0.642857143,1.47619048 L0.642857143,1.47619048 Z" id="P"/><path d="M2.85714286,3.33333333 C2.85714286,2.85714286 2.85714286,1.80952381 2.14285714,1.80952381 L1.23809524,1.80952381 C2.28571429,1.80952381 2.28571429,2.85714286 2.28571429,3.33333333" id="Shape"/></g></g><g fill="#009B3A" id="O" transform="translate(40.737699, 7.798189) rotate(20.500000) translate(-40.737699, -7.798189) translate(39.237699, 6.298189)"><path d="M1.52380952,3.33333333 C2.35223665,3.33333333 3.02380952,2.58714125 3.02380952,1.66666667 C3.02380952,0.746192084 2.35223665,0 1.52380952,0 C0.695382399,0 0.0238095238,0.746192084 0.0238095238,1.66666667 C0.0238095238,2.58714125 0.695382399,3.33333333 1.52380952,3.33333333 M1.52380952,2.71428571 C2.01034609,2.71428571 2.4047619,2.24525069 2.4047619,1.66666667 C2.4047619,1.08808264 2.01034609,0.619047619 1.52380952,0.619047619 C1.03727296,0.619047619 0.642857143,1.08808264 0.642857143,1.66666667 C0.642857143,2.24525069 1.03727296,2.71428571 1.52380952,2.71428571" id="Shape"/></g><g id="G" transform="translate(44.750945, 9.418301) rotate(23.500000) translate(-44.750945, -9.418301) translate(43.250945, 7.918301)"><g id="Group"><g id="Clipped"><g id="Shape"><path d="M0.0238095238,3.33333333 L0.0238095238,0 L3.02380952,0 L3.02380952,3.33333333 L0.0238095238,3.33333333 L0.0238095238,3.33333333 Z M1.52380952,1.0952381 L1.52380952,1.66666667 L3.02380952,1.66666667 L3.02380952,1.0952381 L1.52380952,1.0952381 L1.52380952,1.0952381 Z" id="path-5"/></g><path d="M1.52380952,3.33333333 C2.35223665,3.33333333 3.02380952,2.58714125 3.02380952,1.66666667 C3.02380952,0.746192084 2.35223665,0 1.52380952,0 C0.695382399,0 0.0238095238,0.746192084 0.0238095238,1.66666667 C0.0238095238,2.58714125 0.695382399,3.33333333 1.52380952,3.33333333 M1.52380952,2.71428571 C2.01034609,2.71428571 2.4047619,2.24525069 2.4047619,1.66666667 C2.4047619,1.08808264 2.01034609,0.619047619 1.52380952,0.619047619 C1.03727296,0.619047619 0.642857143,1.08808264 0.642857143,1.66666667 C0.642857143,2.24525069 1.03727296,2.71428571 1.52380952,2.71428571" fill="#009B3A" id="O"/></g><rect fill="#009B3A" height="0.476190476" id="Rectangle" width="1.26190476" x="0" y="0"/><rect fill="#009B3A" height="1.66666667" id="Rectangle" width="0.476190476" x="0" y="0"/></g></g><g fill="#009B3A" id="R" transform="translate(48.450803, 11.693699) rotate(26.500000) translate(-48.450803, -11.693699) translate(46.950803, 9.693699)"><g id="Group"><path d="M0.0238095238,3.33333333 L0.642857143,3.33333333 L0.642857143,2.0952381 L1.97619048,2.0952381 C2.5547745,2.0952381 3.02380952,1.62620307 3.02380952,1.04761905 C3.02380952,0.469035024 2.5547745,0 1.97619048,0 L0.0714285714,0 L0.0238095238,3.33333333 L0.0238095238,3.33333333 Z M0.642857143,1.47619048 L1.92857143,1.47619048 C2.16526489,1.47619048 2.35714286,1.28431251 2.35714286,1.04761905 C2.35714286,0.810925583 2.16526489,0.619047619 1.92857143,0.619047619 L0.642857143,0.619047619 L0.642857143,1.47619048 L0.642857143,1.47619048 Z" id="P"/><path d="M2.85714286,3.33333333 C2.85714286,2.85714286 2.85714286,1.80952381 2.14285714,1.80952381 L1.23809524,1.80952381 C2.28571429,1.80952381 2.28571429,2.85714286 2.28571429,3.33333333" id="Shape"/></g></g><g fill="#009B3A" id="E" transform="translate(52.495815, 13.276967) rotate(29.500000) translate(-52.495815, -13.276967) translate(50.995815, 11.776967)"><path d="M0.0238095238,3.33333333 L3.02380952,3.33333333 L3.02380952,2.71428571 L0.595238095,2.71428571 L0.595238095,1.85714286 L2.5,1.85714286 L2.5,1.28571429 L0.595238095,1.28571429 L0.595238095,0.619047619 L2.88095238,0.619047619 L2.88095238,0 L0.0238095238,0 L0.0238095238,3.33333333 L0.0238095238,3.33333333 Z" id="Shape"/></g><g fill="#009B3A" id="S" transform="translate(56.231796, 15.464782) rotate(32.500000) translate(-56.231796, -15.464782) translate(54.731796, 13.964782)"><path d="M0.773809524,2.33333333 C0.773809524,2.66666667 1.0952381,2.83333333 1.57142857,2.83333333 C2.04761905,2.83333333 2.27333333,2.67857143 2.27380952,2.46428571 C2.27380952,1.78571429 0.0476190476,2.21428571 0.0595238095,1.02380952 C0.0714285714,-1.2490009e-15 1.23809524,0.0476190476 1.66666667,0.0476190476 C2.0952381,0.0476190476 2.9047619,0.238095238 2.89285714,1.05952381 L2.16666667,1.05952381 C2.16666667,0.702380952 1.83333333,0.571428571 1.45238095,0.571428571 C1.08333333,0.571428571 0.821428571,0.630952381 0.821428571,0.976190476 C0.80952381,1.53571429 3.02380952,1.16666667 3.02380952,2.3452381 C3.02380952,3.21428571 2.16666667,3.38095238 1.52380952,3.38095238 C0.976190476,3.38095238 0.0214285714,3.16666667 0.0238095238,2.33333333 C0.0238095238,2.33333333 0.0214285714,3.16666667 0.0238095238,2.33333333 L0.773809524,2.33333333 L0.773809524,2.33333333 Z" id="Shape"/></g><g fill="#009B3A" id="S" transform="translate(59.822570, 17.885285) rotate(35.500000) translate(-59.822570, -17.885285) translate(58.322570, 16.385285)"><path d="M0.773809524,2.33333333 C0.773809524,2.66666667 1.0952381,2.83333333 1.57142857,2.83333333 C2.04761905,2.83333333 2.27333333,2.67857143 2.27380952,2.46428571 C2.27380952,1.78571429 0.0476190476,2.21428571 0.0595238095,1.02380952 C0.0714285714,-1.2490009e-15 1.23809524,0.0476190476 1.66666667,0.0476190476 C2.0952381,0.0476190476 2.9047619,0.238095238 2.89285714,1.05952381 L2.16666667,1.05952381 C2.16666667,0.702380952 1.83333333,0.571428571 1.45238095,0.571428571 C1.08333333,0.571428571 0.821428571,0.630952381 0.821428571,0.976190476 C0.80952381,1.53571429 3.02380952,1.16666667 3.02380952,2.3452381 C3.02380952,3.21428571 2.16666667,3.38095238 1.52380952,3.38095238 C0.976190476,3.38095238 0.0214285714,3.16666667 0.0238095238,2.33333333 C0.0238095238,2.33333333 0.0214285714,3.16666667 0.0238095238,2.33333333 L0.773809524,2.33333333 L0.773809524,2.33333333 Z" id="Shape"/></g><g fill="#009B3A" id="O" transform="translate(63.256957, 20.526204) rotate(38.500000) translate(-63.256957, -20.526204) translate(61.756957, 19.026204)"><path d="M1.52091881,3.33750152 C2.34934594,3.33750152 3.02091881,2.59130944 3.02091881,1.67083485 C3.02091881,0.750360269 2.34934594,0.00416818541 1.52091881,0.00416818541 C0.692491686,0.00416818541 0.0209188105,0.750360269 0.0209188105,1.67083485 C0.0209188105,2.59130944 0.692491686,3.33750152 1.52091881,3.33750152 M1.52091881,2.7184539 C2.00745538,2.7184539 2.40187119,2.24941888 2.40187119,1.67083485 C2.40187119,1.09225083 2.00745538,0.623215804 1.52091881,0.623215804 C1.03438225,0.623215804 0.63996643,1.09225083 0.63996643,1.67083485 C0.63996643,2.24941888 1.03438225,2.7184539 1.52091881,2.7184539" id="Shape"/></g></g></g></g></g></svg>