<?xml version="1.0" encoding="UTF-8" standalone="no"?>
<!-- Generator: Adobe Illustrator 19.1.0, SVG Export Plug-In . SVG Version: 6.00 Build 0)  -->

<svg
   xmlns:dc="http://purl.org/dc/elements/1.1/"
   xmlns:cc="http://creativecommons.org/ns#"
   xmlns:rdf="http://www.w3.org/1999/02/22-rdf-syntax-ns#"
   xmlns:svg="http://www.w3.org/2000/svg"
   xmlns="http://www.w3.org/2000/svg"
   xmlns:sodipodi="http://sodipodi.sourceforge.net/DTD/sodipodi-0.dtd"
   xmlns:inkscape="http://www.inkscape.org/namespaces/inkscape"
   version="1.1"
   id="Layer_1"
   x="0px"
   y="0px"
   viewBox="0 0 12 12"
   enable-background="new 0 0 12 12"
   xml:space="preserve"
   inkscape:version="0.91 r13725"
   sodipodi:docname="close-icon.svg"><metadata
     id="metadata9"><rdf:RDF><cc:Work
         rdf:about=""><dc:format>image/svg+xml</dc:format><dc:type
           rdf:resource="http://purl.org/dc/dcmitype/StillImage" /><dc:title></dc:title></cc:Work></rdf:RDF></metadata><defs
     id="defs7" /><sodipodi:namedview
     pagecolor="#ffffff"
     bordercolor="#666666"
     borderopacity="1"
     objecttolerance="10"
     gridtolerance="10"
     guidetolerance="10"
     inkscape:pageopacity="0"
     inkscape:pageshadow="2"
     inkscape:window-width="1318"
     inkscape:window-height="780"
     id="namedview5"
     showgrid="false"
     inkscape:zoom="19.666667"
     inkscape:cx="-1.6779661"
     inkscape:cy="6"
     inkscape:window-x="288"
     inkscape:window-y="106"
     inkscape:window-maximized="0"
     inkscape:current-layer="Layer_1" /><path
     fill="#FFFFFF"
     d="M11.7489,10.5362L7.2125,5.9998l4.5363-4.5364c0.3343-0.3343,0.3343-0.8782,0.0001-1.2125  c-0.3343-0.3343-0.8783-0.3344-1.2126,0L6,4.7873L1.4636,0.2509c-0.3343-0.3342-0.8781-0.3342-1.2125,0  c-0.3343,0.3343-0.3343,0.8782,0,1.2125l4.5364,4.5364l-4.5364,4.5364C0.0892,10.6981,0,10.9135,0,11.1424  c0,0.229,0.0892,0.4444,0.2511,0.6062c0.1619,0.1619,0.3772,0.2511,0.6063,0.2511c0.2289,0,0.4442-0.0892,0.6062-0.2511L6,7.2123  l4.5365,4.5364c0.162,0.1619,0.3773,0.2511,0.6062,0.2511c0.2289,0,0.4441-0.0891,0.6062-0.2511  C11.9108,11.5868,12,11.3714,12,11.1424C12,10.9135,11.9108,10.6981,11.7489,10.5362z"
     id="path3"
     style="fill:#d5d5d5;fill-opacity:0.83529413" /></svg>