<?xml version="1.0" encoding="UTF-8" standalone="no"?>
<!-- Generator: Adobe Illustrator 19.0.0, SVG Export Plug-In . SVG Version: 6.00 Build 0)  -->

<svg
   xmlns:dc="http://purl.org/dc/elements/1.1/"
   xmlns:cc="http://creativecommons.org/ns#"
   xmlns:rdf="http://www.w3.org/1999/02/22-rdf-syntax-ns#"
   xmlns:svg="http://www.w3.org/2000/svg"
   xmlns="http://www.w3.org/2000/svg"
   xmlns:sodipodi="http://sodipodi.sourceforge.net/DTD/sodipodi-0.dtd"
   xmlns:inkscape="http://www.inkscape.org/namespaces/inkscape"
   version="1.1"
   id="Layer_1"
   x="0px"
   y="0px"
   viewBox="0 0 24 24"
   enable-background="new 0 0 75 75"
   xml:space="preserve"
   inkscape:version="0.91 r13725"
   width="100%"
   height="100%"
   sodipodi:docname="globe_dark.svg"><metadata
     id="metadata8"><rdf:RDF><cc:Work
         rdf:about=""><dc:format>image/svg+xml</dc:format><dc:type
           rdf:resource="http://purl.org/dc/dcmitype/StillImage" /><dc:title></dc:title></cc:Work></rdf:RDF></metadata><defs
     id="defs6" /><sodipodi:namedview
     pagecolor="#ffffff"
     bordercolor="#666666"
     borderopacity="1"
     objecttolerance="10"
     gridtolerance="10"
     guidetolerance="10"
     inkscape:pageopacity="0"
     inkscape:pageshadow="2"
     inkscape:window-width="1275"
     inkscape:window-height="841"
     id="namedview4"
     showgrid="false"
     inkscape:zoom="8.9001176"
     inkscape:cx="6.7505471"
     inkscape:cy="-5.1056279"
     inkscape:window-x="75"
     inkscape:window-y="34"
     inkscape:window-maximized="0"
     inkscape:current-layer="Layer_1" /><path
     id="XMLID_12_"
     d="M 12,0 C 5.372608,0 0,5.372608 0,12 0,18.627392 5.372608,24 12,24 18.627392,24 24,18.627392 24,12 24,5.372608 18.627392,0 12,0 z m 0.37568,21.825856 c -0.136928,0.122784 -0.279072,0.148608 -0.374464,0.148608 -0.09632,0 -0.24,-0.02614 -0.379072,-0.151072 -1.688928,-1.519392 -2.932,-3.461856 -3.639392,-5.61232 2.636,-0.673536 5.404928,-0.682784 8.044928,-0.028 -0.706144,2.162784 -1.954464,4.116608 -3.652,5.642784 z M 7.530464,14.421536 C 7.386144,13.629536 7.30768,12.82 7.30768,12 c 0,-0.82 0.078464,-1.629536 0.222464,-2.421536 1.485216,0.378784 3.008,0.568928 4.531392,0.568928 1.483072,0 2.965856,-0.180608 4.413856,-0.53968 0.140608,0.782784 0.217216,1.582464 0.217216,2.39232 0,0.809856 -0.07661,1.609536 -0.217216,2.39232 C 13.54,13.66432 10.461536,13.673536 7.530464,14.421536 z M 11.624608,2.174144 c 0.136608,-0.122784 0.279072,-0.148608 0.374144,-0.148608 0.09632,0 0.24,0.02646 0.379072,0.151072 1.69632,1.525856 2.943392,3.478784 3.649216,5.64032 -2.64,0.654464 -5.408928,0.645536 -8.044928,-0.028 C 8.689856,5.637536 9.934144,3.693856 11.624608,2.174144 z M 18.25168,9.06832 C 19.263072,8.704928 20.248288,8.248928 21.196,7.701856 21.809216,9.008 22.153856,10.46432 22.153856,12 c 0,1.53568 -0.344608,2.992 -0.957536,4.298144 C 20.24864,15.750752 19.263392,15.295072 18.252,14.93168 18.437856,13.976 18.538784,12.99536 18.538784,12 18.538464,11.004608 18.437856,10.02432 18.25168,9.06832 z m 2.011104,-2.959104 c -0.796928,0.45968 -1.623072,0.848928 -2.470464,1.16368 -0.589856,-1.817536 -1.518144,-3.499392 -2.728,-4.953536 2.116608,0.671712 3.933216,2.02032 5.198464,3.789856 z M 8.936,2.31968 C 7.73568,3.762464 6.813216,5.429536 6.223072,7.230752 5.382464,6.91168 4.562752,6.521536 3.772928,6.05936 5.03632,4.314464 6.839072,2.984928 8.936,2.31968 z M 2.828608,7.646144 C 3.770464,8.197824 4.749824,8.659072 5.75568,9.028 5.564608,9.996608 5.461536,10.990784 5.461536,12 c 0,1.009216 0.102784,2.003392 0.294144,2.972 C 4.749824,15.341248 3.770464,15.802144 2.828608,16.353856 2.199392,15.033536 1.846144,13.557536 1.846144,12 c 0,-1.557536 0.353248,-3.033536 0.982464,-4.353856 z M 3.772928,17.94032 C 4.562464,17.478464 5.382144,17.088 6.223072,16.768928 6.813216,18.570144 7.73568,20.237536 8.936,21.68032 6.839072,21.015072 5.03632,19.685536 3.772928,17.94032 z m 11.291392,3.74 c 1.209856,-1.454464 2.137856,-3.136 2.72768,-4.953536 0.847392,0.314784 1.673536,0.70432 2.470464,1.16368 C 18.997536,19.66 17.180928,21.008608 15.06432,21.68032 z"
     inkscape:connector-curvature="0"
     style="fill:#4d4d4d;fill-opacity:1;opacity:0.99999999" /></svg>