<?xml version="1.0" encoding="utf-8"?>
<!-- Generator: Adobe Illustrator 19.2.1, SVG Export Plug-In . SVG Version: 6.00 Build 0)  -->
<!DOCTYPE svg PUBLIC "-//W3C//DTD SVG 1.1//EN" "http://www.w3.org/Graphics/SVG/1.1/DTD/svg11.dtd">
<svg version="1.1" id="Layer_1" xmlns="http://www.w3.org/2000/svg" xmlns:xlink="http://www.w3.org/1999/xlink" x="0px" y="0px"
	 viewBox="0 0 22 15" style="enable-background:new 0 0 22 15;" xml:space="preserve">
<style type="text/css">
	.st0{fill:#FFFFFF;}
</style>
<path class="st0" d="M18.301,5.357c-0.44-1.42-1.326-2.695-2.511-3.61c-1.28-0.988-2.812-1.51-4.429-1.51
	c-1.472,0-2.89,0.44-4.101,1.272c-1.124,0.771-2,1.829-2.547,3.067C3.47,4.67,2.315,5.212,1.439,6.115C0.511,7.073,0,8.333,0,9.663
	c0,1.337,0.515,2.601,1.451,3.56c0.934,0.957,2.182,1.504,3.513,1.539l0.009,0c0,0,11.959-0.003,12.478-0.004l0.016,0
	c1.222-0.059,2.362-0.58,3.212-1.468c0.852-0.891,1.321-2.06,1.321-3.29C22,7.77,20.457,5.85,18.301,5.357z"/>
</svg>
