<?xml version="1.0" encoding="utf-8"?>
<!-- Generator: Adobe Illustrator 19.2.1, SVG Export Plug-In . SVG Version: 6.00 Build 0)  -->
<!DOCTYPE svg PUBLIC "-//W3C//DTD SVG 1.1//EN" "http://www.w3.org/Graphics/SVG/1.1/DTD/svg11.dtd">
<svg version="1.1" id="Layer_1" xmlns="http://www.w3.org/2000/svg" xmlns:xlink="http://www.w3.org/1999/xlink" x="0px" y="0px"
	 viewBox="0 0 84.9999084 50.0559769" style="enable-background:new 0 0 84.9999084 50.0559769;" xml:space="preserve">
<style type="text/css">
	.st0{fill:#74A345;}
	.st1{fill:#FFFFFF;}
	.st2{fill:#396FC9;}
</style>
<g>
	<circle class="st0" cx="72.1277924" cy="30.161726" r="2.7543488"/>
	<circle class="st0" cx="65.4585876" cy="30.161726" r="2.7543335"/>
	<circle class="st0" cx="58.7893982" cy="30.161726" r="2.7543335"/>
	<path class="st1" d="M72.8530579,15.4633608h-13.366272c-0.0011597,0.005188-0.0025024,0.010376-0.0036621,0.015625h-1.4189453
		c-2.036377,0-3.9403076,0.5192261-5.6230469,1.4021006v6.6485596c0,0.8534546-0.0693359,1.6904297-0.1958618,2.508606
		c-0.3398438,2.1976929-1.117981,4.2501221-2.2442627,6.065733c-0.973877,1.5700684-2.2122192,2.9555664-3.6455688,4.1102295
		c1.0725708,3.8145752,3.9672852,6.8661499,7.682373,8.1670532l-0.006958,0.0188599l-1.9229126,5.2058105
		c-0.046875,0.125061-0.015625,0.2813721,0.093811,0.3751831s0.2657471,0.093811,0.3751831,0.03125l8.0041504-4.9400024
		l0.0253296-0.015625h12.2466431c6.706543,0,12.1468506-5.4403076,12.1468506-12.1469116v-5.2996197
		C84.9999084,20.9036083,79.5596008,15.4633608,72.8530579,15.4633608z M56.0350647,30.161726
		c0-1.5211792,1.2331543-2.7543335,2.7543335-2.7543335s2.7543335,1.2331543,2.7543335,2.7543335
		s-1.2331543,2.7543316-2.7543335,2.7543316S56.0350647,31.6829052,56.0350647,30.161726z M62.7042542,30.161726
		c0-1.5211792,1.2331543-2.7543335,2.7543335-2.7543335s2.7543335,1.2331543,2.7543335,2.7543335
		s-1.2331543,2.7543316-2.7543335,2.7543316S62.7042542,31.6829052,62.7042542,30.161726z M72.1277771,32.9160576
		c-1.5211792,0-2.7543335-1.2331524-2.7543335-2.7543316s1.2331543-2.7543335,2.7543335-2.7543335
		c1.5212402,0,2.7543945,1.2331543,2.7543945,2.7543335S73.6490173,32.9160576,72.1277771,32.9160576z"/>
	<circle class="st1" cx="15.3614655" cy="19.4769726" r="4.0136261"/>
	<circle class="st1" cx="34.7980652" cy="19.4769726" r="4.0136108"/>
	<circle class="st1" cx="25.0797882" cy="19.4769726" r="4.0136261"/>
	<path class="st2" d="M36.1494141,0.122961H16.291748C7.2839355,0.122961,0,7.4238033,0,16.4147091v7.1149292
		c0,9.0078106,7.3008423,16.2917461,16.291687,16.2917461h16.4420776l10.9699707,6.7769775
		c0.1183472,0.0675659,0.2872925,0.0675659,0.4056396-0.0338135c0.1182861-0.1013794,0.1520996-0.2703857,0.1013794-0.4055786
		l-2.6970825-7.2418823c1.7770996-0.6192017,3.4059448-1.5462036,4.8417969-2.7028809
		c1.4333496-1.1546631,2.6716919-2.5401611,3.6455688-4.1102295c1.1262817-1.8156109,1.9044189-3.8680401,2.2442627-6.065733
		c0.1265259-0.8181763,0.1958618-1.6551514,0.1958618-2.508606v-6.6485596v-0.4663696
		C52.4411621,7.4068966,45.1402588,0.122961,36.1494141,0.122961z M15.3615112,23.4905758
		c-2.2166748,0-4.0136719-1.7969971-4.0136719-4.0136108c0-2.2166748,1.7969971-4.0136108,4.0136719-4.0136108
		c2.2166138,0,4.0136108,1.796936,4.0136108,4.0136108C19.3751221,21.6935787,17.578125,23.4905758,15.3615112,23.4905758z
		 M25.079834,23.4905758c-2.2166748,0-4.0136719-1.7969971-4.0136719-4.0136108
		c0-2.2166748,1.7969971-4.0136108,4.0136719-4.0136108c2.2166138,0,4.0136108,1.796936,4.0136108,4.0136108
		C29.0934448,21.6935787,27.2964478,23.4905758,25.079834,23.4905758z M34.7980957,23.4905758
		c-2.2166138,0-4.0136108-1.7969971-4.0136108-4.0136108c0-2.2166748,1.7969971-4.0136108,4.0136108-4.0136108
		c2.2166748,0,4.0136108,1.796936,4.0136108,4.0136108C38.8117065,21.6935787,37.0147705,23.4905758,34.7980957,23.4905758z"/>
</g>
</svg>
