<?xml version="1.0" encoding="utf-8"?>
<!-- Generator: Adobe Illustrator 19.1.0, SVG Export Plug-In . SVG Version: 6.00 Build 0)  -->
<!DOCTYPE svg PUBLIC "-//W3C//DTD SVG 1.1//EN" "http://www.w3.org/Graphics/SVG/1.1/DTD/svg11.dtd">
<svg version="1.1" id="Layer_1" xmlns="http://www.w3.org/2000/svg" xmlns:xlink="http://www.w3.org/1999/xlink" x="0px" y="0px"
	 viewBox="-25 55 20 20" enable-background="new -25 55 20 20" xml:space="preserve">
<path d="M-14.185,55.4626l-10.3562,10.3562c-0.6117,0.6117-0.6117,1.6035,0,2.2151l5.18,5.18l1.3272,1.3272
	c0.6117,0.6117,1.6035,0.6117,2.2152,0L-5.4626,64.185c0.2935-0.2935,0.4585-0.6915,0.4588-1.1066L-5,56.5673
	C-4.9995,55.7015-5.7015,54.9995-6.5673,55l-6.5111,0.0039C-13.4935,55.0041-13.8915,55.1691-14.185,55.4626z M-10.414,62.2615
	c-1.0304,0-1.8658-0.8353-1.8658-1.8658s0.8353-1.8658,1.8658-1.8658s1.8658,0.8353,1.8658,1.8658S-9.3835,62.2615-10.414,62.2615z"
	/>
</svg>
