<?xml version="1.0" encoding="UTF-8" standalone="no"?>
<!-- Generator: Adobe Illustrator 19.1.0, SVG Export Plug-In . SVG Version: 6.00 Build 0)  -->

<svg
   xmlns:dc="http://purl.org/dc/elements/1.1/"
   xmlns:cc="http://creativecommons.org/ns#"
   xmlns:rdf="http://www.w3.org/1999/02/22-rdf-syntax-ns#"
   xmlns:svg="http://www.w3.org/2000/svg"
   xmlns="http://www.w3.org/2000/svg"
   xmlns:sodipodi="http://sodipodi.sourceforge.net/DTD/sodipodi-0.dtd"
   xmlns:inkscape="http://www.inkscape.org/namespaces/inkscape"
   version="1.1"
   id="Layer_1"
   x="0px"
   y="0px"
   viewBox="-25 55 20 20"
   enable-background="new -25 55 20 20"
   xml:space="preserve"
   inkscape:version="0.91 r"
   sodipodi:docname="category_active.svg"><metadata
     id="metadata9"><rdf:RDF><cc:Work
         rdf:about=""><dc:format>image/svg+xml</dc:format><dc:type
           rdf:resource="http://purl.org/dc/dcmitype/StillImage" /><dc:title></dc:title></cc:Work></rdf:RDF></metadata><defs
     id="defs7" /><sodipodi:namedview
     pagecolor="#ffffff"
     bordercolor="#666666"
     borderopacity="1"
     objecttolerance="10"
     gridtolerance="10"
     guidetolerance="10"
     inkscape:pageopacity="0"
     inkscape:pageshadow="2"
     inkscape:window-width="1227"
     inkscape:window-height="732"
     id="namedview5"
     showgrid="false"
     inkscape:zoom="11.8"
     inkscape:cx="-2.5423729"
     inkscape:cy="10"
     inkscape:window-x="478"
     inkscape:window-y="191"
     inkscape:window-maximized="0"
     inkscape:current-layer="Layer_1" /><path
     d="M-14.185,55.4626l-10.3562,10.3562c-0.6117,0.6117-0.6117,1.6035,0,2.2151l5.18,5.18l1.3272,1.3272  c0.6117,0.6117,1.6035,0.6117,2.2152,0L-5.4626,64.185c0.2935-0.2935,0.4585-0.6915,0.4588-1.1066L-5,56.5673  C-4.9995,55.7015-5.7015,54.9995-6.5673,55l-6.5111,0.0039C-13.4935,55.0041-13.8915,55.1691-14.185,55.4626z M-10.414,62.2615  c-1.0304,0-1.8658-0.8353-1.8658-1.8658s0.8353-1.8658,1.8658-1.8658s1.8658,0.8353,1.8658,1.8658S-9.3835,62.2615-10.414,62.2615z"
     id="path3"
     style="fill:#74a345;fill-opacity:1" /></svg>