<?xml version="1.0" encoding="UTF-8" standalone="no"?>
<svg width="40px" height="40px" viewBox="0 0 40 40" version="1.1" xmlns="http://www.w3.org/2000/svg" xmlns:xlink="http://www.w3.org/1999/xlink">
    <!-- Generator: Sketch 42 (36781) - http://www.bohemiancoding.com/sketch -->
    <title>Group 3</title>
    <desc>Created with Sketch.</desc>
    <defs>
        <radialGradient cx="49.5549832%" cy="-66.0748755%" fx="49.5549832%" fy="-66.0748755%" r="130.248221%" id="radialGradient-1">
            <stop stop-color="#B0B4C4" offset="29.09%"></stop>
            <stop stop-color="#212A31" offset="100%"></stop>
        </radialGradient>
        <radialGradient cx="46.0467418%" cy="30.1703633%" fx="46.0467418%" fy="30.1703633%" r="130.248134%" id="radialGradient-2">
            <stop stop-color="#212A31" offset="20.61%"></stop>
            <stop stop-color="#B0B4C4" offset="94.67%"></stop>
        </radialGradient>
        <radialGradient cx="46.6547462%" cy="-7.82292945%" fx="46.6547462%" fy="-7.82292945%" r="130.248079%" id="radialGradient-3">
            <stop stop-color="#F26B6A" offset="0%"></stop>
            <stop stop-color="#E76363" offset="9.99%"></stop>
            <stop stop-color="#D25355" offset="25.8%"></stop>
            <stop stop-color="#B23A3F" offset="45.43%"></stop>
            <stop stop-color="#891823" offset="67.93%"></stop>
            <stop stop-color="#70000F" offset="81.21%"></stop>
        </radialGradient>
        <radialGradient cx="49.1913879%" cy="35.83286%" fx="49.1913879%" fy="35.83286%" r="72.316345%" id="radialGradient-4">
            <stop stop-color="#ED1B2F" offset="25.29%"></stop>
            <stop stop-color="#E91B2E" offset="42.18%"></stop>
            <stop stop-color="#DF1B2D" offset="53.94%"></stop>
            <stop stop-color="#D0192A" offset="64.14%"></stop>
            <stop stop-color="#BD1726" offset="73.45%"></stop>
            <stop stop-color="#A61220" offset="82.15%"></stop>
            <stop stop-color="#890916" offset="90.41%"></stop>
            <stop stop-color="#6C0006" offset="98.17%"></stop>
            <stop stop-color="#640002" offset="100%"></stop>
        </radialGradient>
        <linearGradient x1="49.9999535%" y1="-22.3453138%" x2="49.9999535%" y2="112.420022%" id="linearGradient-5">
            <stop stop-color="#ED1B32" offset="0%"></stop>
            <stop stop-color="#CC142F" offset="100%"></stop>
        </linearGradient>
        <linearGradient x1="-6.51276066%" y1="34.3791315%" x2="102.119899%" y2="57.320768%" id="linearGradient-6">
            <stop stop-color="#B3E4FA" offset="0%"></stop>
            <stop stop-color="#BCE6FB" offset="11.28%"></stop>
            <stop stop-color="#D3EFFC" offset="28.76%"></stop>
            <stop stop-color="#F9FDFF" offset="50.16%"></stop>
            <stop stop-color="#FFFFFF" offset="52.12%"></stop>
            <stop stop-color="#F1F1F9" offset="62.68%"></stop>
            <stop stop-color="#E3E4F3" offset="82.21%"></stop>
            <stop stop-color="#DEE0F1" offset="100%"></stop>
        </linearGradient>
        <linearGradient x1="35.2122888%" y1="98.1510595%" x2="67.7057837%" y2="-10.334574%" id="linearGradient-7">
            <stop stop-color="#B3E4FA" offset="0%"></stop>
            <stop stop-color="#AFDAF3" offset="6.15%"></stop>
            <stop stop-color="#A6C9E5" offset="13.08%"></stop>
            <stop stop-color="#98B0D1" offset="20.4%"></stop>
            <stop stop-color="#8791B7" offset="27.93%"></stop>
            <stop stop-color="#8084AB" offset="30.91%"></stop>
            <stop stop-color="#FFFFFF" stop-opacity="0.5" offset="63.19%"></stop>
            <stop stop-color="#F6F9FD" stop-opacity="0.4694" offset="65.45%"></stop>
            <stop stop-color="#D5E3F4" stop-opacity="0.2756" offset="79.71%"></stop>
            <stop stop-color="#C1D8F0" stop-opacity="0.1122" offset="91.74%"></stop>
            <stop stop-color="#BAD3EE" stop-opacity="0" offset="100%"></stop>
        </linearGradient>
        <linearGradient x1="87.5753845%" y1="11.7459183%" x2="12.8852106%" y2="95.7636842%" id="linearGradient-8">
            <stop stop-color="#B3E4FA" stop-opacity="0" offset="0%"></stop>
            <stop stop-color="#AFDAF3" stop-opacity="0.1094" offset="6.15%"></stop>
            <stop stop-color="#A6C9E5" stop-opacity="0.2328" offset="13.08%"></stop>
            <stop stop-color="#98B0D1" stop-opacity="0.3629" offset="20.4%"></stop>
            <stop stop-color="#8791B7" stop-opacity="0.4969" offset="27.93%"></stop>
            <stop stop-color="#8084AB" stop-opacity="0.55" offset="30.91%"></stop>
            <stop stop-color="#FFFFFF" stop-opacity="0.5" offset="63.19%"></stop>
            <stop stop-color="#F6F9FD" stop-opacity="0.4694" offset="65.45%"></stop>
            <stop stop-color="#D5E3F4" stop-opacity="0.2756" offset="79.71%"></stop>
            <stop stop-color="#C1D8F0" stop-opacity="0.1122" offset="91.74%"></stop>
            <stop stop-color="#BAD3EE" stop-opacity="0" offset="100%"></stop>
        </linearGradient>
        <radialGradient cx="51.3602494%" cy="-14.7940655%" fx="51.3602494%" fy="-14.7940655%" r="85.1284275%" id="radialGradient-9">
            <stop stop-color="#FFFFFF" offset="0%"></stop>
            <stop stop-color="#FFFFFF" stop-opacity="0" offset="100%"></stop>
        </radialGradient>
        <radialGradient cx="52.8915511%" cy="42.4635703%" fx="52.8915511%" fy="42.4635703%" r="85.1284275%" id="radialGradient-10">
            <stop stop-color="#FFFFFF" offset="0%"></stop>
            <stop stop-color="#FFFFFF" stop-opacity="0" offset="100%"></stop>
        </radialGradient>
    </defs>
    <g id="Page-1" stroke="none" stroke-width="1" fill="none" fill-rule="evenodd">
        <g id="Office-365---CP---frontpage-Pricebox" transform="translate(-940.000000, -683.000000)" fill-rule="nonzero">
            <g id="Group-3" transform="translate(940.000000, 683.000000)">
                <path d="M39.9162832,34.7106195 C39.9162832,37.6238938 37.5545133,39.9856637 34.6412389,39.9856637 L5.36831858,39.9856637 C2.45504425,39.9856637 0.0932743363,37.6238938 0.0932743363,34.7106195 L0.0932743363,5.43769912 C0.0932743363,2.52442478 2.45504425,0.162654867 5.36831858,0.162654867 L34.6414159,0.162654867 C37.5546903,0.162654867 39.9164602,2.52424779 39.9164602,5.43769912 L39.9164602,34.7106195 L39.9162832,34.7106195 Z" id="Shape" fill="url(#radialGradient-1)"></path>
                <path d="M5.36831858,37.7279646 C3.70460177,37.7279646 2.35097345,36.3745133 2.35097345,34.7106195 L2.35097345,5.43769912 C2.35097345,3.7739823 3.70460177,2.42035398 5.36831858,2.42035398 L34.6414159,2.42035398 C36.3051327,2.42035398 37.6587611,3.77380531 37.6587611,5.43769912 L37.6587611,34.7107965 C37.6587611,36.3745133 36.3053097,37.7281416 34.6414159,37.7281416 L5.36831858,37.7281416 L5.36831858,37.7279646 Z" id="Shape" fill="url(#radialGradient-2)"></path>
                <path d="M5.36831858,35.4702655 C4.94938053,35.4702655 4.60867257,35.1295575 4.60867257,34.7106195 L4.60867257,5.43769912 C4.60867257,5.01876106 4.94938053,4.6780531 5.36831858,4.6780531 L34.6414159,4.6780531 C35.060354,4.6780531 35.4010619,5.01876106 35.4010619,5.43769912 L35.4010619,34.7107965 C35.4010619,35.1297345 35.060354,35.4704425 34.6414159,35.4704425 L5.36831858,35.4704425 L5.36831858,35.4702655 Z" id="Shape" fill="url(#radialGradient-3)"></path>
                <path d="M6.04141593,34.7623009 C5.64159292,34.7623009 5.31663717,34.4373451 5.31663717,34.0375221 L5.31663717,6.11061947 C5.31663717,5.71097345 5.64159292,5.38584071 6.04141593,5.38584071 L33.9683186,5.38584071 C34.3681416,5.38584071 34.6930973,5.71097345 34.6930973,6.11061947 L34.6930973,34.0375221 C34.6930973,34.4373451 34.3681416,34.7623009 33.9683186,34.7623009 L6.04141593,34.7623009 L6.04141593,34.7623009 Z" id="Shape" fill="url(#radialGradient-4)"></path>
                <path d="M5.36389381,34.6371681 C5.03380531,34.7543363 4.87168142,34.5823009 4.99752212,34.2483186 C8.33681416,24.6704425 8.33752212,15.4083186 4.99752212,5.83044248 C4.87168142,5.49681416 5.03380531,5.32460177 5.36389381,5.44159292 C15.2357522,8.6959292 24.8545133,8.6959292 34.7260177,5.44159292 C35.0564602,5.32477876 35.2182301,5.49681416 35.0927434,5.83044248 C31.7520354,15.4074336 31.7534513,24.6715044 35.0923894,34.2483186 C35.2182301,34.5823009 35.0564602,34.7543363 34.7260177,34.6371681 C24.8538053,31.3831858 15.2361062,31.3831858 5.36389381,34.6371681 Z" id="Shape" fill="url(#linearGradient-5)"></path>
                <path d="M21.0235398,10.0840708 C20.099646,10.0840708 19.2630088,10.1619469 18.4706195,10.2814159 C13.8638938,10.9670796 11.3842478,13.4810619 10.7976991,17.7382301 L10.3840708,20.9738053 C10.1182301,23.2024779 10.5153982,24.8707965 11.5934513,26.0826549 C12.8446018,27.4837168 14.9849558,28.6189381 18.1638938,28.6189381 L23.7507965,28.6189381 C26.9890265,28.6189381 27.3746903,25.2322124 27.3746903,25.2322124 L19.9693805,25.2322124 C18.9644248,25.2235398 17.9941593,25.1447788 17.3074336,24.8923894 C16.3759292,24.5492035 15.8115044,23.9490265 15.6184071,22.8548673 C15.5421239,22.4237168 15.5640708,21.4683186 15.6449558,20.860531 L16.0125664,18.0293805 C16.1231858,17.3047788 16.3440708,16.4973451 16.4504425,16.2368142 C16.7246018,15.5614159 17.1633628,14.8644248 17.8870796,14.3568142 C18.3081416,14.0623009 19.299646,13.4585841 21.8051327,13.4585841 L25.9120354,13.4585841 C28.7695575,13.4585841 29.2941593,10.0823009 29.2941593,10.0837168 L21.0235398,10.0837168 L21.0235398,10.0840708 Z" id="Shape" fill="url(#linearGradient-6)"></path>
                <path d="M18.1640708,28.2677876 C15.4890265,28.2677876 13.2484956,27.4086726 11.8555752,25.8488496 C10.8476106,24.7155752 10.48,23.1343363 10.7329204,21.0153982 L11.1460177,17.7826549 C11.719115,13.6233628 14.1320354,11.2821239 18.5223009,10.6284956 C19.3869027,10.4984071 20.2047788,10.4350442 21.0235398,10.4350442 L28.8541593,10.4350442 C28.6210619,11.2745133 27.8856637,13.1074336 25.9123894,13.1074336 L21.8054867,13.1074336 C19.0612389,13.1074336 18.0261947,13.8311504 17.6863717,14.0690265 C17.0047788,14.5469027 16.479823,15.2318584 16.1254867,16.1047788 C16.0120354,16.3824779 15.7830088,17.2093805 15.6658407,17.9762832 L15.2971681,20.8152212 C15.2152212,21.4311504 15.1858407,22.4230088 15.2729204,22.9159292 C15.479115,24.0838938 16.0870796,24.8166372 17.1861947,25.2217699 C17.8281416,25.4575221 18.7115044,25.5722124 19.9667257,25.5831858 L26.9504425,25.5831858 C26.7456637,26.4141593 26.0329204,28.2674336 23.7509735,28.2674336 L18.1640708,28.2674336 L18.1640708,28.2677876 Z" id="Shape" fill="url(#linearGradient-7)" opacity="0.59"></path>
                <path d="M18.1640708,28.2677876 C15.4890265,28.2677876 13.2484956,27.4086726 11.8555752,25.8488496 C10.8476106,24.7155752 10.48,23.1343363 10.7329204,21.0153982 L11.1460177,17.7826549 C11.719115,13.6233628 14.1320354,11.2821239 18.5223009,10.6284956 C19.3869027,10.4984071 20.2047788,10.4350442 21.0235398,10.4350442 L28.8541593,10.4350442 C28.6210619,11.2745133 27.8856637,13.1074336 25.9123894,13.1074336 L21.8054867,13.1074336 C19.0612389,13.1074336 18.0261947,13.8311504 17.6863717,14.0690265 C17.0047788,14.5469027 16.479823,15.2318584 16.1254867,16.1047788 C16.0120354,16.3824779 15.7830088,17.2093805 15.6658407,17.9762832 L15.2971681,20.8152212 C15.2152212,21.4311504 15.1858407,22.4230088 15.2729204,22.9159292 C15.479115,24.0838938 16.0870796,24.8166372 17.1861947,25.2217699 C17.8281416,25.4575221 18.7115044,25.5722124 19.9667257,25.5831858 L26.9504425,25.5831858 C26.7456637,26.4141593 26.0329204,28.2674336 23.7509735,28.2674336 L18.1640708,28.2674336 L18.1640708,28.2677876 Z" id="Shape" fill="url(#linearGradient-8)" opacity="0.59"></path>
                <path d="M34.6343363,4.66938053 L5.37539823,4.66938053 C4.94955752,4.66938053 4.59345133,5.04654867 4.59345133,5.45575221 L4.59345133,21.3959292 C9.51451327,22.5700885 15.4099115,23.2157522 21.0256637,23.2157522 C26.0715044,23.2157522 30.9143363,22.6929204 35.4155752,21.9125664 L35.4155752,5.43716814 C35.4155752,4.93451327 34.9615929,4.66938053 34.6343363,4.66938053 Z" id="Shape" fill="url(#radialGradient-9)" opacity="0.75"></path>
                <path d="M34.6343363,4.66938053 L5.37539823,4.66938053 C4.94955752,4.66938053 4.59345133,5.04654867 4.59345133,5.45575221 L4.59345133,21.3959292 C9.51451327,22.5700885 15.4099115,23.2157522 21.0256637,23.2157522 C26.0715044,23.2157522 30.9143363,22.6929204 35.4155752,21.9125664 L35.4155752,5.43716814 C35.4155752,4.93451327 34.9615929,4.66938053 34.6343363,4.66938053 Z" id="Shape" fill="url(#radialGradient-10)" opacity="0.3"></path>
            </g>
        </g>
    </g>
</svg>