<?xml version="1.0" encoding="UTF-8" standalone="no"?>
<!-- Generator: Adobe Illustrator 19.1.0, SVG Export Plug-In . SVG Version: 6.00 Build 0)  -->

<svg
   xmlns:dc="http://purl.org/dc/elements/1.1/"
   xmlns:cc="http://creativecommons.org/ns#"
   xmlns:rdf="http://www.w3.org/1999/02/22-rdf-syntax-ns#"
   xmlns:svg="http://www.w3.org/2000/svg"
   xmlns="http://www.w3.org/2000/svg"
   xmlns:sodipodi="http://sodipodi.sourceforge.net/DTD/sodipodi-0.dtd"
   xmlns:inkscape="http://www.inkscape.org/namespaces/inkscape"
   version="1.1"
   id="Layer_1"
   x="0px"
   y="0px"
   viewBox="-23.6211 55 17.2422 20"
   enable-background="new -23.6211 55 17.2422 20"
   xml:space="preserve"
   inkscape:version="0.91 r"
   sodipodi:docname="country_active.svg"><metadata
     id="metadata18"><rdf:RDF><cc:Work
         rdf:about=""><dc:format>image/svg+xml</dc:format><dc:type
           rdf:resource="http://purl.org/dc/dcmitype/StillImage" /><dc:title></dc:title></cc:Work></rdf:RDF></metadata><defs
     id="defs16" /><sodipodi:namedview
     pagecolor="#ffffff"
     bordercolor="#666666"
     borderopacity="1"
     objecttolerance="10"
     gridtolerance="10"
     guidetolerance="10"
     inkscape:pageopacity="0"
     inkscape:pageshadow="2"
     inkscape:window-width="1282"
     inkscape:window-height="823"
     id="namedview14"
     showgrid="false"
     inkscape:zoom="11.8"
     inkscape:cx="-3.9212725"
     inkscape:cy="10"
     inkscape:window-x="53"
     inkscape:window-y="24"
     inkscape:window-maximized="0"
     inkscape:current-layer="Layer_1" /><path
     d="M-7.1388,56.6198c-0.4606-0.1909-0.9902-0.085-1.3424,0.2673c-1.5567,1.5555-4.0901,1.5567-5.648,0  c-2.5186-2.5161-6.6136-2.5161-9.131,0c-0.2315,0.2303-0.3609,0.5444-0.3609,0.8707v16.0106c0,0.6798,0.5505,1.2316,1.2316,1.2316  c0.6811,0,1.2316-0.5518,1.2316-1.2316V68.161c1.5653-1.2279,3.8438-1.122,5.2872,0.3202c2.5186,2.5161,6.6148,2.5161,9.131,0  c0.2315-0.2315,0.3609-0.5444,0.3609-0.8707v-9.8527C-6.3789,57.259-6.6794,56.8107-7.1388,56.6198z"
     id="path12"
     style="fill:#74a345;fill-opacity:1" /></svg>