<?xml version="1.0" encoding="utf-8"?>
<!-- Generator: Adobe Illustrator 19.1.0, SVG Export Plug-In . SVG Version: 6.00 Build 0)  -->
<!DOCTYPE svg PUBLIC "-//W3C//DTD SVG 1.1//EN" "http://www.w3.org/Graphics/SVG/1.1/DTD/svg11.dtd">
<svg version="1.1" id="Layer_1" xmlns="http://www.w3.org/2000/svg" xmlns:xlink="http://www.w3.org/1999/xlink" x="0px" y="0px"
	 viewBox="-23.6211 55 17.2422 20" enable-background="new -23.6211 55 17.2422 20" xml:space="preserve">
<path d="M-7.1388,56.6198c-0.4606-0.1909-0.9902-0.085-1.3424,0.2673c-1.5567,1.5555-4.0901,1.5567-5.648,0
	c-2.5186-2.5161-6.6136-2.5161-9.131,0c-0.2315,0.2303-0.3609,0.5444-0.3609,0.8707v16.0106c0,0.6798,0.5505,1.2316,1.2316,1.2316
	c0.6811,0,1.2316-0.5518,1.2316-1.2316V68.161c1.5653-1.2279,3.8438-1.122,5.2872,0.3202c2.5186,2.5161,6.6148,2.5161,9.131,0
	c0.2315-0.2315,0.3609-0.5444,0.3609-0.8707v-9.8527C-6.3789,57.259-6.6794,56.8107-7.1388,56.6198z"/>
</svg>
