<?xml version="1.0" encoding="utf-8"?>
<!-- Generator: Adobe Illustrator 21.0.0, SVG Export Plug-In . SVG Version: 6.00 Build 0)  -->
<svg version="1.1" id="Layer_1" xmlns="http://www.w3.org/2000/svg" xmlns:xlink="http://www.w3.org/1999/xlink" x="0px" y="0px"
	 viewBox="0 0 80 80" style="enable-background:new 0 0 80 80;" xml:space="preserve">
<style type="text/css">
	.st0{fill:#016FB3;}
	.st1{fill:#F2F2F2;}
	.st2{fill:#37AC68;}
</style>
<g>
	<path class="st0" d="M74.642,40.529c-2.121-2.984-4.741-5.587-7.737-7.692c-1.142,1.358-2.428,2.597-3.835,3.676
		c-4.291,3.291-9.422,5.031-14.838,5.031s-10.547-1.74-14.838-5.031c-1.324-1.015-2.537-2.175-3.628-3.44
		c-2.862,2.065-5.371,4.59-7.415,7.468c-0.743,1.047-1.406,2.152-2.022,3.286C21.968,43.304,23.666,43,25.407,43
		c13.592,0,24.611,18.219,24.611,18.219s-2.57,4.352-6.751,8.857c1.704,0.276,3.451,0.423,5.233,0.423
		c7.431,0,14.277-2.497,19.751-6.694c3.72-2.853,6.803-6.494,9.005-10.672c0.665-1.262,1.247-2.575,1.744-3.929
		C77.987,46.074,76.508,43.154,74.642,40.529z"/>
	<path class="st0" d="M37.809,30.756c2.888,2.215,6.502,3.533,10.423,3.533s7.535-1.318,10.423-3.533
		c0.591-0.453,1.148-0.948,1.675-1.474c3.115-3.104,5.047-7.393,5.047-12.138c0-2.895-0.72-5.62-1.987-8.012
		C60.512,3.701,54.806,0,48.232,0c-6.731,0-12.553,3.881-15.358,9.525c-1.141,2.296-1.786,4.881-1.786,7.619
		c0,4.823,1.994,9.179,5.2,12.294C36.769,29.906,37.276,30.347,37.809,30.756z"/>
	<path class="st1" d="M25.407,55.33c3.398,0,6.153,2.755,6.153,6.153c0,0.678-0.111,1.331-0.314,1.941l5.091,3.687
		c0.878-1.693,1.376-3.614,1.376-5.653c0-6.796-5.51-12.306-12.306-12.306c-3.438,0-6.545,1.411-8.777,3.684l5.113,3.703
		C22.767,55.78,24.034,55.33,25.407,55.33z"/>
	<path class="st1" d="M25.407,67.636c-3.398,0-6.153-2.755-6.153-6.153c0-0.693,0.116-1.359,0.328-1.98l-5.104-3.697
		c-0.878,1.693-1.376,3.614-1.376,5.653c0,6.796,5.51,12.306,12.306,12.306c3.438,0,6.544-1.411,8.777-3.684l-5.08-3.679
		C28.076,67.176,26.795,67.636,25.407,67.636z"/>
	<path class="st2" d="M25.407,43c-1.741,0-3.439,0.304-5.078,0.826c-3.281,1.044-6.322,2.974-8.98,5.186l-7.186-5.205
		c-0.82-0.594-1.966-0.411-2.56,0.409s-0.411,1.966,0.409,2.56l6.567,4.757c-4.789,4.738-7.783,9.686-7.783,9.686
		s11.02,18.698,24.611,18.698c5.183,0,9.991-2.72,13.958-6.085l7.286,5.278c0.325,0.235,0.701,0.349,1.074,0.349
		c0.568,0,1.128-0.263,1.486-0.758c0.594-0.82,0.411-1.966-0.409-2.56l-6.696-4.85c0.401-0.404,0.785-0.81,1.161-1.215
		c4.181-4.505,6.751-8.857,6.751-8.857S38.999,43,25.407,43z M25.407,49.153c6.796,0,12.306,5.51,12.306,12.306
		c0,2.039-0.499,3.96-1.376,5.653l-5.091-3.687c0.203-0.61,0.314-1.262,0.314-1.941c0-3.398-2.755-6.153-6.153-6.153
		c-1.373,0-2.641,0.45-3.664,1.21l-5.113-3.703C18.863,50.564,21.97,49.153,25.407,49.153z M25.407,73.764
		c-6.796,0-12.306-5.51-12.306-12.306c0-2.039,0.499-3.96,1.376-5.653l5.104,3.697c-0.211,0.622-0.328,1.287-0.328,1.98
		c0,3.398,2.755,6.153,6.153,6.153c1.388,0,2.668-0.46,3.698-1.235l5.08,3.679C31.952,72.353,28.845,73.764,25.407,73.764z"/>
</g>
</svg>
