<?xml version="1.0" encoding="UTF-8" standalone="no"?>
<svg width="48px" height="48px" viewBox="0 0 48 48" version="1.1" xmlns="http://www.w3.org/2000/svg" xmlns:xlink="http://www.w3.org/1999/xlink">
    <!-- Generator: Sketch 48.1 (47250) - http://www.bohemiancoding.com/sketch -->
    <title>Email-in-use-icon</title>
    <desc>Created with Sketch.</desc>
    <defs></defs>
    <g id="Orderflow-email-in-use" stroke="none" stroke-width="1" fill="none" fill-rule="evenodd" transform="translate(-200.000000, -664.000000)">
        <g id="Group-6" transform="translate(200.000000, 664.000000)">
            <g id="Email-in-use-icon">
                <circle id="Oval-8" fill="#FFDF96" cx="24" cy="24" r="24"></circle>
                <path d="M22.5117188,25.5976562 L21.8867188,16.2421875 C21.7695307,14.4192617 21.7109375,13.1106811 21.7109375,12.3164062 C21.7109375,11.2356717 21.9941378,10.3925812 22.5605469,9.78710938 C23.126956,9.1816376 23.8723912,8.87890625 24.796875,8.87890625 C25.9166723,8.87890625 26.6653627,9.26627217 27.0429688,10.0410156 C27.4205748,10.8157591 27.609375,11.9322844 27.609375,13.390625 C27.609375,14.2500043 27.5638025,15.1223914 27.4726562,16.0078125 L26.6328125,25.6367187 C26.5416662,26.7825578 26.3463557,27.6614553 26.046875,28.2734375 C25.7473943,28.8854197 25.2526076,29.1914062 24.5625,29.1914062 C23.8593715,29.1914062 23.3710951,28.8951853 23.0976562,28.3027344 C22.8242174,27.7102835 22.6289068,26.8085998 22.5117188,25.5976562 Z M24.6796875,38.4492188 C23.8854127,38.4492188 23.1920603,38.1920599 22.5996094,37.6777344 C22.0071585,37.1634089 21.7109375,36.444015 21.7109375,35.5195312 C21.7109375,34.7122355 21.9941378,34.0253935 22.5605469,33.4589844 C23.126956,32.8925753 23.8203084,32.609375 24.640625,32.609375 C25.4609416,32.609375 26.1608044,32.8925753 26.7402344,33.4589844 C27.3196644,34.0253935 27.609375,34.7122355 27.609375,35.5195312 C27.609375,36.4309941 27.3164092,37.1471328 26.7304688,37.6679688 C26.1445283,38.1888047 25.4609414,38.4492188 24.6796875,38.4492188 Z" id="!" fill="#FF9800"></path>
            </g>
        </g>
    </g>
</svg>