<svg id="Layer_1" data-name="Layer 1" xmlns="http://www.w3.org/2000/svg" viewBox="0 0 48 48"><defs><style>.cls-1{fill:#fff;}.cls-2,.cls-3{fill:#217346;}.cls-3{fill-rule:evenodd;}</style></defs><title>Excel_48x1</title><g id="_48" data-name="48"><rect class="cls-1" x="24" y="9" width="19" height="29"/><path class="cls-2" d="M43,9V38H24V9H43m0-2H24a2,2,0,0,0-2,2V38a2,2,0,0,0,2,2H43a2,2,0,0,0,2-2V9a2,2,0,0,0-2-2Z"/><rect class="cls-2" x="33" y="12" width="7" height="3"/><rect class="cls-2" x="33" y="17" width="7" height="3"/><rect class="cls-2" x="33" y="22" width="7" height="3"/><rect class="cls-2" x="33" y="27" width="7" height="3"/><rect class="cls-2" x="33" y="32" width="7" height="3"/><rect class="cls-2" x="24" y="12" width="7" height="3"/><rect class="cls-2" x="24" y="17" width="7" height="3"/><rect class="cls-2" x="24" y="22" width="7" height="3"/><rect class="cls-2" x="24" y="27" width="7" height="3"/><rect class="cls-2" x="24" y="32" width="7" height="3"/><path class="cls-3" d="M28,3,3,7.38V40.62L28,45Z"/><path class="cls-1" d="M20.86,15l-3.49.21-2.13,5-.14.45L15,21l-.09.33-.07.27h0q0-.2-.09-.38l-.09-.35-.1-.33-.11-.3-1.83-4.75-3.37.21,3.59,7.78L8.87,31.26l3.29.2,2.21-5.1.1-.35.08-.31.07-.26,0-.21h0l.07.37.07.31.06.24.06.17,2.3,5.44L21,32,16.7,23.43,20.86,15"/></g></svg>