<?xml version="1.0" encoding="UTF-8" standalone="no"?>
<svg width="17px" height="17px" viewBox="0 0 17 17" version="1.1" xmlns="http://www.w3.org/2000/svg" xmlns:xlink="http://www.w3.org/1999/xlink">
    <!-- Generator: Sketch 47.1 (45422) - http://www.bohemiancoding.com/sketch -->
    <title>svg-search</title>
    <desc>Created with Sketch.</desc>
    <defs></defs>
    <g id="Page-1" stroke="none" stroke-width="1" fill="none" fill-rule="evenodd">
        <g id="Verticals-Frontpage-Desktop" transform="translate(-964.000000, -42.000000)" fill-rule="nonzero" fill="#244C5B">
            <g id="Group-12" transform="translate(728.000000, 28.000000)">
                <path d="M241.152006,27.6117776 L238.566725,30.201041 C238.078946,30.689572 237.28749,30.6901813 236.798959,30.2024018 C236.310428,29.7146224 236.309819,28.9231664 236.797598,28.4346354 L239.384908,25.8433396 C238.512839,24.6177456 238,23.1187628 238,21.5 C238,17.3578644 241.357864,14 245.5,14 C249.642136,14 253,17.3578644 253,21.5 C253,25.6421356 249.642136,29 245.5,29 C243.879187,29 242.378458,28.4858614 241.152006,27.6117776 Z M245.5,27 C248.537566,27 251,24.5375661 251,21.5 C251,18.4624339 248.537566,16 245.5,16 C242.462434,16 240,18.4624339 240,21.5 C240,24.5375661 242.462434,27 245.5,27 Z" id="svg-search"></path>
            </g>
        </g>
    </g>
</svg>