<?xml version="1.0" encoding="UTF-8" standalone="no"?>
<!-- Generator: Adobe Illustrator 19.1.0, SVG Export Plug-In . SVG Version: 6.00 Build 0)  -->

<svg
   xmlns:dc="http://purl.org/dc/elements/1.1/"
   xmlns:cc="http://creativecommons.org/ns#"
   xmlns:rdf="http://www.w3.org/1999/02/22-rdf-syntax-ns#"
   xmlns:svg="http://www.w3.org/2000/svg"
   xmlns="http://www.w3.org/2000/svg"
   xmlns:sodipodi="http://sodipodi.sourceforge.net/DTD/sodipodi-0.dtd"
   xmlns:inkscape="http://www.inkscape.org/namespaces/inkscape"
   version="1.1"
   id="Layer_1"
   x="0px"
   y="0px"
   viewBox="192 -192 512 512"
   style="enable-background:new 192 -192 512 512;"
   xml:space="preserve"
   inkscape:version="0.48.4 r9939"
   width="100%"
   height="100%"
   sodipodi:docname="find (copy).svg"><metadata
     id="metadata3001"><rdf:RDF><cc:Work
         rdf:about=""><dc:format>image/svg+xml</dc:format><dc:type
           rdf:resource="http://purl.org/dc/dcmitype/StillImage" /></cc:Work></rdf:RDF></metadata><defs
     id="defs2999" /><sodipodi:namedview
     pagecolor="#ffffff"
     bordercolor="#666666"
     borderopacity="1"
     objecttolerance="10"
     gridtolerance="10"
     guidetolerance="10"
     inkscape:pageopacity="0"
     inkscape:pageshadow="2"
     inkscape:window-width="640"
     inkscape:window-height="480"
     id="namedview2997"
     showgrid="false"
     inkscape:zoom="0.4609375"
     inkscape:cx="256"
     inkscape:cy="256"
     inkscape:window-x="1950"
     inkscape:window-y="138"
     inkscape:window-maximized="0"
     inkscape:current-layer="g2991" /><style
     type="text/css"
     id="style2989">
	.st0{fill:none;}
</style><g
     id="g2991"><path
       class="st0"
       d="M399.6-162.8c-98.3,0-178.3,80-178.3,178.3c0,98.3,80,178.3,178.3,178.3c98.3,0,178.3-80,178.3-178.3   S497.9-162.8,399.6-162.8z"
       id="path2993" /><path
       d="M552.8,142.9c28.7-34.5,46-78.9,46-127.3c0-110.1-89.2-199.3-199.3-199.3c-110.1,0-199.3,89.2-199.3,199.3   c0,110.1,89.2,199.3,199.3,199.3c48.4,0,92.8-17.3,127.3-46l142.9,142.9l26-26L552.8,142.9z M399.6,193.9   c-98.3,0-178.3-80-178.3-178.3c0-98.3,80-178.3,178.3-178.3c98.3,0,178.3,80,178.3,178.3S497.9,193.9,399.6,193.9z"
       id="path2995"
       style="fill:#ffffff;fill-opacity:1" /></g></svg>