<?xml version="1.0" encoding="UTF-8" standalone="no"?>
<!-- Generator: Adobe Illustrator 19.1.0, SVG Export Plug-In . SVG Version: 6.00 Build 0)  -->

<svg
   xmlns:dc="http://purl.org/dc/elements/1.1/"
   xmlns:cc="http://creativecommons.org/ns#"
   xmlns:rdf="http://www.w3.org/1999/02/22-rdf-syntax-ns#"
   xmlns:svg="http://www.w3.org/2000/svg"
   xmlns="http://www.w3.org/2000/svg"
   xmlns:sodipodi="http://sodipodi.sourceforge.net/DTD/sodipodi-0.dtd"
   xmlns:inkscape="http://www.inkscape.org/namespaces/inkscape"
   version="1.1"
   id="Layer_1"
   x="0px"
   y="0px"
   viewBox="-28.1579 55 26.3158 20"
   enable-background="new -28.1579 55 26.3158 20"
   xml:space="preserve"
   inkscape:version="0.91 r"
   sodipodi:docname="full-list_active.svg"><metadata
     id="metadata39"><rdf:RDF><cc:Work
         rdf:about=""><dc:format>image/svg+xml</dc:format><dc:type
           rdf:resource="http://purl.org/dc/dcmitype/StillImage" /><dc:title></dc:title></cc:Work></rdf:RDF></metadata><defs
     id="defs37" /><sodipodi:namedview
     pagecolor="#ffffff"
     bordercolor="#666666"
     borderopacity="1"
     objecttolerance="10"
     gridtolerance="10"
     guidetolerance="10"
     inkscape:pageopacity="0"
     inkscape:pageshadow="2"
     inkscape:window-width="1341"
     inkscape:window-height="814"
     id="namedview35"
     showgrid="false"
     inkscape:zoom="11.8"
     inkscape:cx="0.61552698"
     inkscape:cy="10"
     inkscape:window-x="53"
     inkscape:window-y="24"
     inkscape:window-maximized="0"
     inkscape:current-layer="Layer_1" /><g
     id="g21"><path
       d="M-25.6821,59.7158h-0.2358c-1.2371,0-2.24-1.0029-2.24-2.24V57.24c0-1.2371,1.0029-2.24,2.24-2.24h0.2358   c1.2371,0,2.24,1.0029,2.24,2.24v0.2358C-23.442,58.713-24.4449,59.7158-25.6821,59.7158z"
       id="path23" /><path
       d="M-25.6821,67.3579h-0.2358c-1.2371,0-2.24-1.0029-2.24-2.24v-0.2358c0-1.2371,1.0029-2.24,2.24-2.24h0.2358   c1.2371,0,2.24,1.0029,2.24,2.24v0.2358C-23.442,66.355-24.4449,67.3579-25.6821,67.3579z"
       id="path25" /><path
       d="M-25.6821,75h-0.2358c-1.2371,0-2.24-1.0029-2.24-2.24v-0.2358c0-1.2371,1.0029-2.24,2.24-2.24h0.2358   c1.2371,0,2.24,1.0029,2.24,2.24V72.76C-23.442,73.9971-24.4449,75-25.6821,75z"
       id="path27" /><path
       d="M-3.5821,59.1895h-16.0146c-0.961,0-1.74-0.779-1.74-1.74v-0.1832c0-0.961,0.779-1.74,1.74-1.74h16.0146   c0.961,0,1.74,0.779,1.74,1.74v0.1832C-1.8421,58.4105-2.6211,59.1895-3.5821,59.1895z"
       id="path29" /><path
       d="M-3.5821,66.8316h-16.0146c-0.961,0-1.74-0.779-1.74-1.74v-0.1832c0-0.961,0.779-1.74,1.74-1.74h16.0146   c0.961,0,1.74,0.779,1.74,1.74v0.1832C-1.8421,66.0526-2.6211,66.8316-3.5821,66.8316z"
       id="path31" /><path
       d="M-3.5821,74.4737h-16.0146c-0.961,0-1.74-0.779-1.74-1.74v-0.1832c0-0.961,0.779-1.74,1.74-1.74h16.0146   c0.961,0,1.74,0.779,1.74,1.74v0.1832C-1.8421,73.6946-2.6211,74.4737-3.5821,74.4737z"
       id="path33" /></g><path
     style="fill:#d4ff2a"
     d="M 7.8443405,3.9780638 C 7.1461204,3.6106204 6.8256209,3.0066115 6.885993,2.1719753 6.9309408,1.5505782 7.2470702,1.0464073 7.7595948,0.77873379 8.0958697,0.6031093 8.1656785,0.60151603 16.497611,0.57930356 l 8.399033,-0.0223914 0.453989,0.23716637 C 26.602796,1.4482165 26.588609,3.310168 25.32653,3.9573998 25.023532,4.1127865 24.704898,4.1185208 16.555344,4.115251 9.0188252,4.1122273 8.0709122,4.0972988 7.8443405,3.9780638 Z"
     id="path4760"
     inkscape:connector-curvature="0"
     transform="translate(-28.1579,55)" /><path
     style="fill:#d4ff2a"
     d="M 1.7850185,4.6227782 C 1.0139053,4.4640397 0.2641364,3.7067765 0.09438309,2.9152442 -0.10301212,1.9948219 0.22727348,1.0278695 0.91851477,0.50249537 1.8346268,-0.19379048 3.2660437,-0.0853008 4.0471729,0.73962205 4.8324746,1.5689512 4.8810795,3.0026435 4.1538057,3.8849527 3.6652987,4.4775964 2.6364684,4.7980546 1.7850185,4.6227782 Z"
     id="path4762"
     inkscape:connector-curvature="0"
     transform="translate(-28.1579,55)" /><path
     style="fill:#d4ff2a"
     d="m 8.0254643,19.33349 c -1.558802,-0.555697 -1.5134169,-2.926396 0.064997,-3.395134 0.6292275,-0.186861 16.3361575,-0.186861 16.9653845,0 1.303778,0.38718 1.648727,2.150302 0.600724,3.07046 -0.169178,0.14854 -0.451647,0.310077 -0.62771,0.35897 -0.213582,0.05931 -3.04165,0.08782 -8.498079,0.08565 -6.7235096,-0.0027 -8.2361855,-0.024 -8.5053167,-0.119945 z"
     id="path4764"
     inkscape:connector-curvature="0"
     transform="translate(-28.1579,55)" /><path
     style="fill:#d4ff2a"
     d="M 8.1148384,11.70952 C 7.3050517,11.491807 6.8180515,10.738376 6.8853882,9.8074547 6.9402794,9.0485922 7.4055323,8.4821017 8.1490074,8.2688758 8.5575134,8.1517178 24.605663,8.1587592 25.02886,8.2762821 c 0.176063,0.048893 0.458532,0.2104293 0.62771,0.3589699 1.100442,0.9662002 0.653841,2.804535 -0.754713,3.106616 -0.651743,0.139774 -16.2586705,0.1097 -16.7870186,-0.03235 z"
     id="path4766"
     inkscape:connector-curvature="0"
     transform="translate(-28.1579,55)" /><path
     style="fill:#d4ff2a"
     d="M 1.7426456,12.25974 C 0.3440375,11.919251 -0.37273203,10.278229 0.28762325,8.9285115 0.7119052,8.0613105 1.5109827,7.623349 2.5348411,7.6968477 c 0.6454157,0.046332 1.1160838,0.2563864 1.507639,0.6728448 0.4784892,0.5089214 0.5808435,0.7975255 0.5811991,1.6387825 2.881e-4,0.679698 -0.025034,0.805845 -0.2326445,1.159015 -0.5395724,0.917874 -1.5882028,1.350351 -2.6483891,1.09225 z"
     id="path4768"
     inkscape:connector-curvature="0"
     transform="translate(-28.1579,55)" /><path
     style="fill:#74a345;fill-opacity:1"
     d="M 1.59033,19.849018 C 0.74558214,19.534177 0.2572487,18.96399 0.08108214,18.086792 -0.19120699,16.730964 0.72420198,15.480394 2.0937277,15.33725 c 0.9731447,-0.101714 1.8124509,0.314532 2.297307,1.139328 0.2076107,0.35317 0.2329318,0.479317 0.2326445,1.159015 -2.451e-4,0.579925 -0.038061,0.833796 -0.1577926,1.059322 -0.2225621,0.419217 -0.6324326,0.832853 -1.0283257,1.037773 -0.4336534,0.224465 -1.3947066,0.284988 -1.8472309,0.11633 z"
     id="path4770"
     inkscape:connector-curvature="0"
     transform="translate(-28.1579,55)" /><path
     style="fill:#74a345;fill-opacity:1"
     d="m 7.9121371,19.212708 c -1.2638172,-0.583289 -1.314955,-2.470376 -0.084746,-3.127281 0.3090331,-0.165017 3.4404006,-0.257332 8.7288136,-0.257332 5.296331,0 8.41987,0.09226 8.728814,0.257818 0.293094,0.157067 0.650415,0.52295 0.809933,0.829341 0.154104,0.295992 0.139144,1.172323 -0.02532,1.483051 -0.177773,0.335878 -0.640908,0.772459 -0.938439,0.884633 -0.162445,0.06124 -2.893545,0.08935 -8.559322,0.08808 -7.9084392,-0.0018 -8.3375513,-0.0096 -8.6597369,-0.158312 z"
     id="path5312"
     inkscape:connector-curvature="0"
     transform="translate(-28.1579,55)" /><path
     style="fill:#74a345;fill-opacity:1"
     d="M 11.768069,11.752488 C 7.7140952,11.698495 7.8011393,11.710176 7.3362941,11.157739 7.033997,10.798479 6.9127534,10.366413 6.9540459,9.7955511 6.9951009,9.2279706 7.2193962,8.8397561 7.6904672,8.520939 L 7.9968829,8.3135593 11.217222,8.2588888 c 4.170694,-0.070804 13.562454,0.00276 13.912686,0.1089766 0.373949,0.1134091 0.928288,0.7412927 1.048454,1.1875524 0.215718,0.8011172 -0.28122,1.7789032 -1.042546,2.0513372 -0.299941,0.107331 -1.129003,0.134034 -5.020289,0.161697 -2.563559,0.01822 -6.319915,0.01104 -8.347458,-0.01596 z"
     id="path5314"
     inkscape:connector-curvature="0"
     transform="translate(-28.1579,55)" /><path
     style="fill:#74a345;fill-opacity:1"
     d="M 1.3834331,12.095045 C 1.1951882,12.009536 0.87982969,11.756283 0.68263633,11.532259 0.01841532,10.777664 -0.09808511,9.7390284 0.38246098,8.8561069 0.79662367,8.0951536 1.4068901,7.761639 2.3797542,7.7645731 c 0.7379428,0.00223 1.1674225,0.1719046 1.6309479,0.6443558 0.4542458,0.4629931 0.5540282,0.7545955 0.5536606,1.6180101 -3.389e-4,0.797215 -0.094318,1.05327 -0.5803575,1.581237 -0.5594402,0.607701 -1.8164754,0.843038 -2.6005721,0.486869 z"
     id="path5316"
     inkscape:connector-curvature="0"
     transform="translate(-28.1579,55)" /><path
     style="fill:#74a345;fill-opacity:1"
     d="M 1.3657279,4.4142071 C 0.50115525,3.975271 2.8543284e-4,3.0694992 0.09809438,2.1218217 0.17336663,1.3925037 0.62195865,0.67189412 1.1769591,0.38875402 2.381496,-0.22575486 3.7731507,0.15171023 4.333601,1.244945 5.1556151,2.8483953 4.2090157,4.4961521 2.4036626,4.6044118 1.8875593,4.6353604 1.7526306,4.6106347 1.3657279,4.4142071 Z"
     id="path5318"
     inkscape:connector-curvature="0"
     transform="translate(-28.1579,55)" /><path
     style="fill:#74a345;fill-opacity:1"
     d="M 7.8275803,3.9003896 C 7.4454685,3.701151 7.2687616,3.5182318 7.0969449,3.1440678 6.739952,2.3666474 6.9889612,1.3453247 7.6406832,0.91389968 l 0.3436056,-0.227459 8.4385002,-0.0477555 c 7.848704,-0.0444177 8.459232,-0.0376228 8.735111,0.0972177 1.11393,0.54445161 1.430004,1.87767631 0.654537,2.76088401 -0.498596,0.5678701 0.03215,0.5371639 -9.274696,0.5365893 C 9.0350446,4.032913 8.052985,4.0179189 7.8275803,3.9003896 Z"
     id="path5320"
     inkscape:connector-curvature="0"
     transform="translate(-28.1579,55)" /></svg>