<?xml version="1.0" encoding="utf-8"?>
<!-- Generator: Adobe Illustrator 19.1.0, SVG Export Plug-In . SVG Version: 6.00 Build 0)  -->
<!DOCTYPE svg PUBLIC "-//W3C//DTD SVG 1.1//EN" "http://www.w3.org/Graphics/SVG/1.1/DTD/svg11.dtd">
<svg version="1.1" id="Layer_1" xmlns="http://www.w3.org/2000/svg" xmlns:xlink="http://www.w3.org/1999/xlink" x="0px" y="0px"
	 viewBox="-28.1579 55 26.3158 20" enable-background="new -28.1579 55 26.3158 20" xml:space="preserve">
<g>
	<path d="M-25.6821,59.7158h-0.2358c-1.2371,0-2.24-1.0029-2.24-2.24V57.24c0-1.2371,1.0029-2.24,2.24-2.24h0.2358
		c1.2371,0,2.24,1.0029,2.24,2.24v0.2358C-23.442,58.713-24.4449,59.7158-25.6821,59.7158z"/>
	<path d="M-25.6821,67.3579h-0.2358c-1.2371,0-2.24-1.0029-2.24-2.24v-0.2358c0-1.2371,1.0029-2.24,2.24-2.24h0.2358
		c1.2371,0,2.24,1.0029,2.24,2.24v0.2358C-23.442,66.355-24.4449,67.3579-25.6821,67.3579z"/>
	<path d="M-25.6821,75h-0.2358c-1.2371,0-2.24-1.0029-2.24-2.24v-0.2358c0-1.2371,1.0029-2.24,2.24-2.24h0.2358
		c1.2371,0,2.24,1.0029,2.24,2.24V72.76C-23.442,73.9971-24.4449,75-25.6821,75z"/>
	<path d="M-3.5821,59.1895h-16.0146c-0.961,0-1.74-0.779-1.74-1.74v-0.1832c0-0.961,0.779-1.74,1.74-1.74h16.0146
		c0.961,0,1.74,0.779,1.74,1.74v0.1832C-1.8421,58.4105-2.6211,59.1895-3.5821,59.1895z"/>
	<path d="M-3.5821,66.8316h-16.0146c-0.961,0-1.74-0.779-1.74-1.74v-0.1832c0-0.961,0.779-1.74,1.74-1.74h16.0146
		c0.961,0,1.74,0.779,1.74,1.74v0.1832C-1.8421,66.0526-2.6211,66.8316-3.5821,66.8316z"/>
	<path d="M-3.5821,74.4737h-16.0146c-0.961,0-1.74-0.779-1.74-1.74v-0.1832c0-0.961,0.779-1.74,1.74-1.74h16.0146
		c0.961,0,1.74,0.779,1.74,1.74v0.1832C-1.8421,73.6946-2.6211,74.4737-3.5821,74.4737z"/>
</g>
</svg>
