<?xml version="1.0" encoding="utf-8"?>
<!-- Generator: Adobe Illustrator 19.1.0, SVG Export Plug-In . SVG Version: 6.00 Build 0)  -->
<!DOCTYPE svg PUBLIC "-//W3C//DTD SVG 1.1//EN" "http://www.w3.org/Graphics/SVG/1.1/DTD/svg11.dtd">
<svg version="1.1" id="Layer_1" xmlns="http://www.w3.org/2000/svg" xmlns:xlink="http://www.w3.org/1999/xlink" x="0px" y="0px"
	 viewBox="0 0 80 80" enable-background="new 0 0 80 80" xml:space="preserve">
<path fill="#4DB1E0" d="M64.5969,35.7716c-2.8193,0.3246-3.9819,0.9543-5.7161,7.2275c-1.7293,6.278-7.0967,7.1887-8.2205,7.0579
	c-1.1238-0.1308-4.8054-0.9107-3.42-8.1818s6.2538-9.0634,8.2254-9.8676c1.5986-0.6491,3.294-1.6228,4.04-2.0394
	c1.5307-0.8574,3.357-3.1923,3.7252-5.7306c0.3391-2.364-0.1744-4.9362-1.4436-7.2469c-1.9619-3.5653-5.5708-5.8663-8.8067-5.8663
	c-1.4775,0-2.766,0.5183-3.9625,1.2207c-2.4366,1.429-6.0067,5.4691-11.0156,5.6192c-5.2607,0.1598-6.0504-2.7709-6.9029-3.5992
	c-0.7072-0.6879-1.4484-1.7003-3.9819-1.6567c-2.7757,0.0485-5.4787,1.9183-6.8836,4.8878c-1.865,3.9432-0.7266,8.3998,2.5287,9.945
	c0.683,0.3197,2.0442,0.6685,3.0663,1.5647c2.2089,1.9377,1.1142,16.32,0.9979,17.0127c-0.1163,0.6927-0.1259,9.48-4.6165,8.5935
	c-6.1763-1.211-0.1211-17.1241-6.8642-17.8556c-2.9162-0.3197-3.2311,0.4602-3.2311,1.1529
	c-0.0048,1.5017,2.4415,0.9882,2.8532,3.3473c0.591,3.3764-2.4511,20.9946,7.8475,21.324c0,0,3.231,0.3246,10.1146-3.6719
	c6.8787-3.9964,10.0371,3.7494,12.3332,6.433c2.2961,2.6837,7.1403,4.8442,10.5167,2.2962
	c2.8387-2.1508-6.278-4.0207-7.5908-10.3956C65.5754,59.009,61.1334,44.772,63.4683,40.577
	c1.337-2.3979,3.7252-0.8671,4.2435-1.8166C68.2301,37.8061,67.6923,35.418,64.5969,35.7716z M50.5925,13.784
	c2.9985-1.6519,7.2033,0.2277,9.388,4.1999c2.1896,3.9722,1.5308,8.5257-1.4678,10.1776c-3.0034,1.6518-7.2033-0.2277-9.3928-4.195
	C46.9351,19.9942,47.5939,15.4358,50.5925,13.784z M30.1937,22.3097c-1.3806,2.9162-4.3113,4.4276-6.5493,3.3667
	c-2.2332-1.056-2.9307-4.2823-1.5453-7.1984c1.3806-2.921,4.3113-4.4276,6.5493-3.3715
	C30.8816,16.1673,31.5743,19.3887,30.1937,22.3097z"/>
<path fill="#4DB1E0" d="M40,80.0002c-22.0559,0-40-17.9446-40-40.0005s17.9441-40,40-40c22.0564,0,40,17.9441,40,40
	S62.0564,80.0002,40,80.0002z M40,3.8093c-19.9554,0-36.1905,16.2351-36.1905,36.1905c0,19.9558,16.2351,36.1909,36.1905,36.1909
	s36.1905-16.2351,36.1905-36.1909C76.1905,20.0444,59.9554,3.8093,40,3.8093z"/>
<path fill="#4DB1E0" d="M56.42,19.9364c-0.2344-1.8169-1.6898-3.1356-3.2723-2.9402c-1.5824,0.1954-2.6765,1.8364-2.442,3.6532
	c0.2246,1.8168,1.6898,3.1356,3.2625,2.9402C55.5507,23.3845,56.6447,21.7533,56.42,19.9364z"/>
<path fill="#4DB1E0" d="M27.3676,19.8914c-0.1749-1.3559-1.2611-2.34-2.4421-2.1942c-1.1809,0.1458-1.9974,1.3705-1.8224,2.7264
	c0.1677,1.3559,1.2611,2.34,2.4348,2.1942C26.7188,22.4646,27.5353,21.2473,27.3676,19.8914z"/>
</svg>
