<svg id="Layer_1" data-name="Layer 1" xmlns="http://www.w3.org/2000/svg" viewBox="0 0 48 48"><defs><style>.cls-1{fill:#fff;}.cls-2{fill:#813a7c;}.cls-3{fill:#80397b;fill-rule:evenodd;}</style></defs><title>OneNote_48x1</title><g id="one_48" data-name="one 48"><path class="cls-1" d="M38,39a1,1,0,0,1-1-1V30a1,1,0,0,1,1-1h4a2,2,0,0,1,2,2v6a2,2,0,0,1-2,2Z"/><path class="cls-2" d="M42,30a1,1,0,0,1,1,1v6a1,1,0,0,1-1,1H38V30h4m0-2H38a2,2,0,0,0-2,2v8a2,2,0,0,0,2,2h4a3,3,0,0,0,3-3V31a3,3,0,0,0-3-3Z"/><path class="cls-1" d="M38,28.94a.94.94,0,0,1-.94-.94V21a.94.94,0,0,1,.94-.94h4.06a1.87,1.87,0,0,1,1.87,1.87v5.13a1.87,1.87,0,0,1-1.87,1.87Z"/><path class="cls-2" d="M42.06,21a.94.94,0,0,1,.94.94v5.13a.94.94,0,0,1-.94.94H38V21h4.06m0-1.87H38A1.87,1.87,0,0,0,36.13,21v7A1.87,1.87,0,0,0,38,29.87h4.06a2.81,2.81,0,0,0,2.81-2.81V21.94a2.81,2.81,0,0,0-2.81-2.81Z"/><path class="cls-1" d="M20,40a1,1,0,0,1-1-1V9a1,1,0,0,1,1-1H39a1,1,0,0,1,1,1v1h2a2,2,0,0,1,2,2v6a2,2,0,0,1-2,2H40V39a1,1,0,0,1-1,1Z"/><path class="cls-2" d="M39,9v2h3a1,1,0,0,1,1,1v6a1,1,0,0,1-1,1H39V39H20V9H39m0-2H20a2,2,0,0,0-2,2V39a2,2,0,0,0,2,2H39a2,2,0,0,0,2-2V21h1a3,3,0,0,0,3-3V12a3,3,0,0,0-3-3H41a2,2,0,0,0-2-2Z"/><rect class="cls-2" x="23" y="13" width="12" height="2"/><rect class="cls-2" x="23" y="17" width="12" height="2"/><rect class="cls-2" x="23" y="21" width="12" height="2"/><rect class="cls-2" x="23" y="25" width="12" height="2"/><rect class="cls-2" x="23" y="29" width="12" height="2"/><rect class="cls-2" x="23" y="33" width="12" height="2"/><path class="cls-3" d="M28,3,3,7.38V40.62L28,45Z"/><path class="cls-1" d="M21,15l-3,.19v9.4q0,.43,0,.79T18,26q0,.29,0,.52t0,.38h0l-.2-.42-.18-.37-.16-.33-.15-.28-5.21-10-3.06.19L9,31.65l2.93.16L12,22.89q0-.43,0-.81t0-.71q0-.33,0-.6t0-.5h0l.11.26.14.31c.05.11-.14.23-.08.36l.21.4,5.44,10.58,3.2.2V15"/></g></svg>