<?xml version="1.0" encoding="utf-8"?>
<!-- Generator: Adobe Illustrator 19.1.0, SVG Export Plug-In . SVG Version: 6.00 Build 0)  -->
<!DOCTYPE svg PUBLIC "-//W3C//DTD SVG 1.1//EN" "http://www.w3.org/Graphics/SVG/1.1/DTD/svg11.dtd">
<svg version="1.1" id="Layer_1" xmlns="http://www.w3.org/2000/svg" xmlns:xlink="http://www.w3.org/1999/xlink" x="0px" y="0px"
	 viewBox="-25.4836 54.7947 20.9672 20" enable-background="new -25.4836 54.7947 20.9672 20" xml:space="preserve">
<g>
	<g>
		<path d="M-18.3109,61.2275c0,0-3.9671,0.4394-6.6135,0.7332c-0.2385,0.0289-0.4494,0.1883-0.5285,0.4306
			c-0.0791,0.2423,0,0.4946,0.1758,0.6541c1.966,1.794,4.92,4.4806,4.92,4.4806c-0.0025,0-0.811,3.9081-1.3483,6.5156
			c-0.0452,0.236,0.0402,0.4858,0.2461,0.6352c0.2046,0.1494,0.4683,0.1519,0.6754,0.0351c2.315-1.3157,5.7824-3.2942,5.7824-3.2942
			s3.4687,1.9785,5.7799,3.2955c0.2109,0.1155,0.4745,0.113,0.6792-0.0364c0.2059-0.1494,0.2913-0.3992,0.2448-0.634
			c-0.5373-2.6087-1.3445-6.5168-1.3445-6.5168s2.954-2.6866,4.92-4.4768c0.1758-0.1645,0.2536-0.4168,0.1758-0.6578
			c-0.0778-0.241-0.2887-0.4005-0.5273-0.4281c-2.6464-0.2963-6.6148-0.7357-6.6148-0.7357s-1.6446-3.6382-2.7406-6.0636
			c-0.1029-0.2172-0.3189-0.3691-0.5725-0.3691s-0.4708,0.1532-0.5687,0.3691C-16.6675,57.5893-18.3109,61.2275-18.3109,61.2275z"/>
	</g>
</g>
</svg>
