<?xml version="1.0" encoding="UTF-8" standalone="no"?>
<!-- Generator: Adobe Illustrator 19.1.0, SVG Export Plug-In . SVG Version: 6.00 Build 0)  -->

<svg
   xmlns:dc="http://purl.org/dc/elements/1.1/"
   xmlns:cc="http://creativecommons.org/ns#"
   xmlns:rdf="http://www.w3.org/1999/02/22-rdf-syntax-ns#"
   xmlns:svg="http://www.w3.org/2000/svg"
   xmlns="http://www.w3.org/2000/svg"
   xmlns:sodipodi="http://sodipodi.sourceforge.net/DTD/sodipodi-0.dtd"
   xmlns:inkscape="http://www.inkscape.org/namespaces/inkscape"
   version="1.1"
   id="Layer_1"
   x="0px"
   y="0px"
   viewBox="-25.4836 54.7947 20.9672 20"
   enable-background="new -25.4836 54.7947 20.9672 20"
   xml:space="preserve"
   inkscape:version="0.91 r"
   sodipodi:docname="premium_active.svg"><metadata
     id="metadata52"><rdf:RDF><cc:Work
         rdf:about=""><dc:format>image/svg+xml</dc:format><dc:type
           rdf:resource="http://purl.org/dc/dcmitype/StillImage" /><dc:title></dc:title></cc:Work></rdf:RDF></metadata><defs
     id="defs50" /><sodipodi:namedview
     pagecolor="#ffffff"
     bordercolor="#666666"
     borderopacity="1"
     objecttolerance="10"
     gridtolerance="10"
     guidetolerance="10"
     inkscape:pageopacity="0"
     inkscape:pageshadow="2"
     inkscape:window-width="1437"
     inkscape:window-height="731"
     id="namedview48"
     showgrid="false"
     inkscape:zoom="11.8"
     inkscape:cx="-3.4570783"
     inkscape:cy="10"
     inkscape:window-x="53"
     inkscape:window-y="24"
     inkscape:window-maximized="0"
     inkscape:current-layer="Layer_1" /><g
     id="g42"><g
       id="g44"><path
         d="M-18.3109,61.2275c0,0-3.9671,0.4394-6.6135,0.7332c-0.2385,0.0289-0.4494,0.1883-0.5285,0.4306    c-0.0791,0.2423,0,0.4946,0.1758,0.6541c1.966,1.794,4.92,4.4806,4.92,4.4806c-0.0025,0-0.811,3.9081-1.3483,6.5156    c-0.0452,0.236,0.0402,0.4858,0.2461,0.6352c0.2046,0.1494,0.4683,0.1519,0.6754,0.0351c2.315-1.3157,5.7824-3.2942,5.7824-3.2942    s3.4687,1.9785,5.7799,3.2955c0.2109,0.1155,0.4745,0.113,0.6792-0.0364c0.2059-0.1494,0.2913-0.3992,0.2448-0.634    c-0.5373-2.6087-1.3445-6.5168-1.3445-6.5168s2.954-2.6866,4.92-4.4768c0.1758-0.1645,0.2536-0.4168,0.1758-0.6578    c-0.0778-0.241-0.2887-0.4005-0.5273-0.4281c-2.6464-0.2963-6.6148-0.7357-6.6148-0.7357s-1.6446-3.6382-2.7406-6.0636    c-0.1029-0.2172-0.3189-0.3691-0.5725-0.3691s-0.4708,0.1532-0.5687,0.3691C-16.6675,57.5893-18.3109,61.2275-18.3109,61.2275z"
         id="path46" /></g></g><path
     style="fill:#74a345;fill-opacity:1"
     d="m 3.9882597,19.760276 c -0.077139,-0.08524 -0.1402533,-0.271323 -0.1402533,-0.413524 0,-0.1422 0.286017,-1.638088 0.6355933,-3.324195 0.3495762,-1.686106 0.6355932,-3.132575 0.6355932,-3.214374 0,-0.08708 -1.0369459,-1.091554 -2.5015365,-2.423213 C 1.2003178,9.0962746 0.09529761,8.0275208 0.06807742,7.919067 0.0111303,7.6921716 0.1451941,7.4102838 0.36633894,7.2919307 0.45352265,7.2452714 1.9113351,7.0534059 3.6059221,6.8655631 5.3005092,6.6777201 6.8054214,6.5045815 6.9501717,6.4808107 7.206287,6.4387514 7.250356,6.3558258 8.5913912,3.3924954 9.3493115,1.7176929 10.034729,0.28830275 10.114543,0.21607285 c 0.194456,-0.17598054 0.626269,-0.16661454 0.782758,0.016978 0.06953,0.0815678 0.733276,1.49722445 1.474999,3.14590375 0.957822,2.1290167 1.3977,3.0174535 1.518079,3.0661207 0.09322,0.037687 1.618644,0.22587 3.389831,0.4181842 2.051596,0.2227608 3.285435,0.3920863 3.399706,0.4665571 0.229186,0.1493633 0.289054,0.3818172 0.169353,0.6575706 -0.05196,0.1197134 -1.211562,1.2347111 -2.57688,2.4777728 -1.770546,1.612004 -2.470994,2.300718 -2.442636,2.401714 0.02187,0.07788 0.33543,1.586328 0.696803,3.352106 0.932697,4.557426 1.123251,4.431063 -3.079204,2.041907 -2.473946,-1.406475 -2.958663,-1.653213 -3.111199,-1.583713 -0.09938,0.04528 -1.4289516,0.79237 -2.95461,1.660203 -1.7949142,1.020992 -2.8584705,1.577877 -3.0134772,1.577877 -0.1317542,0 -0.3026669,-0.06974 -0.3798061,-0.154978 z"
     id="path4199"
     inkscape:connector-curvature="0"
     transform="translate(-25.483601,54.794701)" /></svg>