<?xml version="1.0" encoding="utf-8"?>
<!-- Generator: Adobe Illustrator 21.0.0, SVG Export Plug-In . SVG Version: 6.00 Build 0)  -->
<svg version="1.1" id="Layer_1" xmlns="http://www.w3.org/2000/svg" xmlns:xlink="http://www.w3.org/1999/xlink" x="0px" y="0px"
	 viewBox="0 0 48 48" style="enable-background:new 0 0 48 48;" xml:space="preserve">
<style type="text/css">
	.st0{fill:none;}
	.st1{fill:#007266;}
</style>
<title>Access_48x1</title>
<g>
	<path class="st0" d="M10.59,16.189c0,5.115,0.055,10.175,0,15.235c0.935,0.11,1.87,0.165,2.86,0.275c0-1.87,0-3.63,0-5.5
		c1.21,0.055,2.805,0.055,3.905-0.44c2.805-1.32,2.915-6.655,1.155-8.69C16.365,15.144,11.415,16.189,10.59,16.189z M16.31,22.569
		c-0.55,0.99-1.485,0.99-2.75,0.99c-0.055-1.595-0.055-3.19-0.055-4.785c0.935-0.055,2.09-0.22,2.75,0.66
		C16.805,20.369,16.75,21.634,16.31,22.569z"/>
	<path class="st0" d="M31.325,13.604h-3.52c0,0.77,0,1.595,0,2.365h8.085v6.71h-8.085c0,0.77,0,1.595,0,2.365h8.085
		c0,0.66,0,1.265,0,1.925h-8.085c0,0.77,0,1.595,0,2.365h8.085c0,0.66,0,1.265,0,1.925h-8.085c0,0.77,0,1.595,0,2.365h7.865h0.22
		c0,0.66,0,1.265,0,1.925h-0.275h-7.81c0,0.935,0,1.925,0,2.86h7.865h3.08v-6.215v-18.59h-2.86
		C35.89,13.604,31.325,13.604,31.325,13.604z"/>
	<path class="st0" d="M36.11,8.489h-2.64l2.64,1.375l4.51,2.31c0,0,0,12.375,0,18.095h3.355h0.055v-0.715v-19.14V8.489h-6.655
		C37.375,8.489,36.11,8.489,36.11,8.489z"/>
	<path class="st1" d="M13.505,18.774c0,1.595,0,3.19,0.055,4.785c1.265,0,2.2,0,2.75-0.99c0.44-0.935,0.495-2.2-0.055-3.135
		C15.595,18.554,14.44,18.719,13.505,18.774z"/>
	<path class="st1" d="M43.92,6.949h-0.825h-8.8h-0.22h-1.21c-0.99,0-1.815,0.825-1.815,1.815v3.465h-3.3v-5.28V3.106L3,7.389v33.385
		l24.805,4.332v-5.322c3.355,0,6.655,0,10.01,0h0.055h0.99c0.55,0,1.045-0.275,1.375-0.66c0.055-0.055,0.055-0.055,0.11-0.11
		c0.22-0.275,0.33-0.66,0.33-1.045v-1.54v-0.495v-0.44v-1.43c0-0.495-0.055-1.375,0-1.87h3.905h0.055H44.8
		c0.33,0,0.55-0.275,0.55-0.55v-0.11V9.699c0.055-0.275,0.055-0.495,0.055-0.77V8.434C45.405,7.389,45.13,6.949,43.92,6.949z
		 M17.355,25.759c-1.1,0.495-2.695,0.495-3.905,0.44c0,1.87,0,3.63,0,5.5c-0.99-0.11-1.925-0.165-2.86-0.275
		c0.055-5.06,0-10.12,0-15.235c0.825,0,5.775-1.045,7.92,0.88C20.27,19.104,20.16,24.439,17.355,25.759z M38.75,32.194v6.215h-3.08
		h-7.865c0-0.935,0-1.925,0-2.86h7.81h0.275c0-0.66,0-1.265,0-1.925h-0.22h-7.865c0-0.77,0-1.595,0-2.365h8.085
		c0-0.66,0-1.265,0-1.925h-8.085c0-0.77,0-1.595,0-2.365h8.085c0-0.66,0-1.265,0-1.925h-8.085c0-0.77,0-1.595,0-2.365h8.085v-6.71
		h-8.085c0-0.77,0-1.595,0-2.365h3.52h4.565h2.86V32.194z M44.03,10.414v19.14v0.715h-0.055H40.62c0-5.72,0-18.095,0-18.095
		l-4.51-2.31l-2.64-1.375h2.64h1.265h6.655V10.414z"/>
</g>
</svg>
