<?xml version="1.0" encoding="utf-8"?>
<!-- Generator: Adobe Illustrator 19.2.1, SVG Export Plug-In . SVG Version: 6.00 Build 0)  -->
<!DOCTYPE svg PUBLIC "-//W3C//DTD SVG 1.1//EN" "http://www.w3.org/Graphics/SVG/1.1/DTD/svg11.dtd">
<svg version="1.1" id="Layer_1" xmlns="http://www.w3.org/2000/svg" xmlns:xlink="http://www.w3.org/1999/xlink" x="0px" y="0px"
	 viewBox="0 0 60 60" style="enable-background:new 0 0 60 60;" xml:space="preserve">
<style type="text/css">
	.st0{fill:#FFFFFF;}
	.st1{fill:#669834;}
</style>
<circle class="st0" cx="30" cy="30" r="28.9680958"/>
<g transform="translate(48 144)">
	<path class="st1" d="M-18-139.7142792c14.179287,0,25.7142868,11.5349884,25.7142868,25.7142792
		S-3.820713-88.2857132-18-88.2857132S-43.7142868-99.8207245-43.7142868-114
		C-43.7142868-128.1792908-32.181427-139.7142792-18-139.7142792z M-18-144c-16.5685692,0-30,13.4314423-30,30
		c0,16.5642929,13.4314308,30,30,30s30-13.4357071,30-30C12-130.5685577-1.4357153-144-18-144L-18-144z M-26.5714283-129
		c-2.367857,0-4.2857151,2.8799896-4.2857151,6.4285736c0,3.5528641,1.9178581,6.428566,4.2857151,6.428566
		s4.2857132-2.8757019,4.2857132-6.428566C-22.2857151-126.1200104-24.2057133-129-26.5714283-129z M-9.4285717-129
		c-2.367856,0-4.2857141,2.8799896-4.2857141,6.4285736c0,3.5528641,1.9178581,6.428566,4.2857141,6.428566
		s4.2857146-2.8757019,4.2857146-6.428566C-5.1428571-126.1200104-7.0628572-129-9.4285717-129z M1.199998-109.1164322
		c0.3299986-1.1335678-0.319286-2.3228531-1.4635726-2.6592789c-1.1314284-0.338562-2.3228564,0.3235779-2.6550007,1.4592896
		C-4.8600039-103.6542816-11.0657187-99-18.0021496-99c-6.93857,0-13.1421413-4.6542816-15.0857182-11.3164215
		c-0.329998-1.1292877-1.506424-1.7978516-2.6571465-1.4592896c-1.1357117,0.3364258-1.7871399,1.5257111-1.4571419,2.6592789
		c2.4728546,8.4750061,10.3692875,14.4021454,19.1999989,14.4021454S-1.2749994-100.6414261,1.199998-109.1164322z"/>
</g>
</svg>
