<svg id="Layer_1" data-name="Layer 1" xmlns="http://www.w3.org/2000/svg" viewBox="0 0 153.09 36.1"><defs><style>.cls-1{isolation:isolate;}.cls-2{fill:#fff;}.cls-3{fill:#77a240;}</style></defs><title>Trustpilot Stars</title><g class="cls-1"><circle class="cls-2" cx="18" cy="18.1" r="17"/></g><g class="cls-1"><path class="cls-3" d="M18,.1a18,18,0,1,0,18,18A18,18,0,0,0,18,.1Zm7.1,29.07-7.57-5.32L9.72,28.74,12.63,20,5.56,14.19l9.31-.06,3.55-8.5,2.86,8.68,9.25.57L23,20.33Z"/></g><g class="cls-1"><circle class="cls-2" cx="57" cy="18.1" r="17"/></g><g class="cls-1"><path class="cls-3" d="M57,.1a18,18,0,1,0,18,18A18,18,0,0,0,57,.1Zm7.1,29.07-7.57-5.32-7.87,4.89L51.63,20l-7.08-5.84,9.31-.06,3.55-8.5,2.86,8.68,9.25.57L62,20.33Z"/></g><g class="cls-1"><circle class="cls-2" cx="96" cy="18" r="17"/></g><g class="cls-1"><path class="cls-3" d="M96,0a18,18,0,1,0,18,18A18,18,0,0,0,96,0Zm7.1,29.07-7.57-5.32-7.87,4.89,2.92-8.7L83.56,14.1,92.87,14l3.55-8.5,2.86,8.68,9.25.57L101,20.23Z"/></g><g class="cls-1"><circle class="cls-2" cx="135" cy="18" r="17"/></g><g class="cls-1"><path class="cls-3" d="M135,0a18,18,0,1,0,18,18A18,18,0,0,0,135,0Zm7.1,29.07-7.57-5.32-7.87,4.89,2.92-8.7-7.08-5.84,9.31-.06,3.55-8.5,2.86,8.68,9.25.57L140,20.23Z"/></g></svg>