<?xml version="1.0" encoding="UTF-8" standalone="no"?>
<svg width="75px" height="75px" viewBox="0 0 75 75" version="1.1" xmlns="http://www.w3.org/2000/svg" xmlns:xlink="http://www.w3.org/1999/xlink">
    <!-- Generator: Sketch 48.2 (47327) - http://www.bohemiancoding.com/sketch -->
    <title>cp-users</title>
    <desc>Created with Sketch.</desc>
    <defs>
        <circle id="path-1" cx="37.5" cy="37.5" r="37.5"></circle>
    </defs>
    <g id="Page-1" stroke="none" stroke-width="1" fill="none" fill-rule="evenodd">
        <g id="cp-users">
            <mask id="mask-2" fill="white">
                <use xlink:href="#path-1"></use>
            </mask>
            <use id="path-1" fill="#FFFFFF" xlink:href="#path-1"></use>
            <path d="M10.5297631,63.5549215 C4.01073275,56.8083279 0,47.6225424 0,37.5 C0,16.7893219 16.7893219,0 37.5,0 C58.2106781,0 75,16.7893219 75,37.5 C75,48.1032271 70.5993114,57.6786182 63.5247304,64.4993772 C61.4910323,57.5474 57.0824344,51.6957815 51.2993103,48 C47.4292414,51.3611572 42.3895172,53.401761 36.8805517,53.401761 C31.3718621,53.401761 26.3324138,51.3611572 22.462069,48 C16.9429537,51.5271839 12.675558,57.0179971 10.5297631,63.5549215 Z" id="Combined-Shape" fill="#69A328" fill-rule="nonzero" mask="url(#mask-2)"></path>
            <path d="M21.1329655,33.7107925 C21.1547586,33.8837484 21.1793103,34.0561509 21.2066207,34.2274465 C21.4242759,35.5980881 21.8091034,36.9131069 22.3395862,38.1500881 C22.406069,38.3047799 22.4744828,38.4583648 22.5453793,38.610566 C22.6871724,38.9146918 22.8377931,39.2141132 22.9969655,39.508 C23.2515862,39.9784403 23.5282759,40.435044 23.8256552,40.8764277 C24.8662069,42.4216855 26.1594483,43.7818113 27.6457931,44.8967547 C27.9809655,45.1483019 28.3285517,45.3832453 28.6824828,45.6090566 C28.7773793,45.6693836 28.8697931,45.7327547 28.9657931,45.7911447 C29.1933793,45.9297862 29.4242759,46.0631698 29.6584828,46.1907421 C30.361931,46.5740126 31.096,46.9074717 31.8562759,47.1869686 C32.078069,47.268327 32.3017931,47.3452579 32.528,47.4172075 C34.1103448,47.9216855 35.7958621,48.1939874 37.5448276,48.1939874 C39.294069,48.1939874 40.9793103,47.9216855 42.561931,47.4172075 C42.7878621,47.3452579 43.0121379,47.268327 43.2336552,47.1869686 C43.993931,46.9074717 44.728,46.5740126 45.4311724,46.1907421 C45.7644138,46.0092075 46.0882759,45.8124528 46.4071724,45.6090566 C46.7611034,45.3832453 47.1089655,45.1483019 47.4441379,44.8967547 C47.8686897,44.578239 48.2775172,44.239522 48.6692414,43.8822642 C49.0612414,43.525283 49.4358621,43.1494843 49.792,42.7565283 C49.969931,42.5600503 50.1431724,42.3591447 50.3117241,42.1540881 C50.9862069,41.3344151 51.5837241,40.4488805 52.0929655,39.508 C52.2524138,39.2141132 52.4030345,38.9146918 52.5445517,38.610566 C53.536,36.4800252 54.089931,34.103195 54.089931,31.5968553 C54.089931,29.0905157 53.536,26.7139623 52.5445517,24.5834214 C52.4030345,24.2790189 52.2524138,23.9795975 52.0929655,23.6857107 C51.5837241,22.7451069 50.9862069,21.8592956 50.3117241,21.0396226 C49.4689655,20.0151698 48.505931,19.0936604 47.4441379,18.2972327 C47.2317241,18.1378365 47.0154483,17.9834214 46.7953103,17.8342642 C46.1351724,17.3870692 45.4411034,16.9860881 44.7177931,16.6365786 C44.2355862,16.4035723 43.7404138,16.1932579 43.2336552,16.0070189 C41.4598621,15.3553208 39.5437241,15 37.5448276,15 C36.9737931,15 36.4093793,15.0290566 35.8532414,15.0855094 C35.2971034,15.142239 34.7489655,15.2266415 34.2104828,15.3370566 C32.864,15.6135094 31.5773793,16.0537862 30.3718621,16.6365786 C29.8896552,16.8695849 29.4206897,17.1255597 28.9657931,17.402566 C28.5108966,17.6798491 28.0703448,17.9784403 27.6457931,18.2972327 C27.0088276,18.7751447 26.4071724,19.2978868 25.8457931,19.8610314 C25.4717241,20.2365535 25.1153103,20.6297862 24.777931,21.0396226 C24.4408276,21.4494591 24.1230345,21.8758994 23.8256552,22.3175597 C23.5282759,22.7589434 23.2515862,23.2155472 22.9969655,23.6857107 C22.5194483,24.5670943 22.1233103,25.4980126 21.8096552,26.466566 C21.769931,26.5891572 21.7313103,26.7117484 21.6943448,26.8357233 C21.2446897,28.3441761 21,29.9414591 21,31.5968553 C21,31.9549434 21.0113103,32.3102642 21.0336552,32.6628176 C21.056,33.0153711 21.0891034,33.3648805 21.1329655,33.7107925" id="Combined-Shape" fill="#FFFFFF" fill-rule="nonzero" mask="url(#mask-2)"></path>
        </g>
    </g>
</svg>