<?xml version="1.0" encoding="UTF-8"?>
<svg width="625px" height="273px" viewBox="0 0 625 273" version="1.1" xmlns="http://www.w3.org/2000/svg" xmlns:xlink="http://www.w3.org/1999/xlink">
    <!-- Generator: Sketch 45 (43475) - http://www.bohemiancoding.com/sketch -->
    <title>WP-Full-Width-Img</title>
    <desc>Created with Sketch.</desc>
    <defs></defs>
    <g id="Main" stroke="none" stroke-width="1" fill="none" fill-rule="evenodd">
        <g id="Desktop-WP" transform="translate(-397.000000, -1888.000000)">
            <g id="WP-Full-Width-Img" transform="translate(397.000000, 1888.000000)">
                <g id="Group-10">
                    <g id="Page-1" transform="translate(73.000000, 0.000000)">
                        <path d="M408.461487,0 L41.4359257,0 C35.0769979,0 29.9228802,5.14008649 29.9228802,11.4812414 L29.9228802,249.726823 L419.973597,249.726823 L419.973597,11.4821768 C419.974532,5.14008649 414.820414,0 408.461487,0 L408.461487,0 Z" id="Fill-1" fill="#1F1F1F"></path>
                        <polygon id="az" fill="#2075CF" points="49 230.403011 401.650156 230.403011 401.650156 19 49 19"></polygon>
                        <polygon id="Fill-3" fill="#E8EBF0" points="0 271.254384 448.997546 271.254384 448.997546 249.739919 0 249.739919"></polygon>
                        <polygon id="Fill-4" fill="#D0D3D8" points="147.795026 262.83568 300.267109 262.83568 300.267109 258.18762 147.795026 258.18762"></polygon>
                        <path d="M225.229517,7.14766677 C226.391298,7.14766677 227.334193,8.11581773 227.334193,9.31033829 C227.334193,10.5048588 226.391298,11.4730098 225.229517,11.4730098 C224.0668,11.4730098 223.124841,10.5048588 223.124841,9.31033829 C223.124841,8.11581773 224.0668,7.14766677 225.229517,7.14766677" id="Fill-5" fill="#E8EBF0"></path>
                    </g>
                    <g id="Group-2" transform="translate(0.000000, 171.000000)">
                        <g id="Page-1">
                            <path d="M51.8807311,0 L7.97157727,0 C2.10186976,0 0,2.11028847 0,8.00244585 L0,93.0098417 C0,98.9029345 2.10093435,101.013223 7.97157727,101.013223 L51.8807311,101.013223 C57.7504386,101.013223 59.8523083,98.9029345 59.8523083,93.0098417 L59.8523083,8.00244585 C59.8523083,2.11028847 57.7504386,0 51.8807311,0 L51.8807311,0 Z" id="Fill-1" fill="#393939"></path>
                            <polygon id="Path" fill="#2075CF" points="3 82.4432182 57.2538702 82.4432182 57.2538702 16 3 16"></polygon>
                            <path d="M39.2872853,88.851002 L20.5790542,88.851002 C19.5454244,88.851002 18.7082311,89.6881953 18.7082311,90.7218251 L18.7082311,92.5926482 C18.7082311,93.6262779 19.5454244,94.4634713 20.5790542,94.4634713 L39.2872853,94.4634713 C40.3209151,94.4634713 41.1581084,93.6262779 41.1581084,92.5926482 L41.1581084,90.7218251 C41.1581084,89.6881953 40.3209151,88.851002 39.2872853,88.851002" id="Fill-3" fill="#FFFFFF"></path>
                            <path d="M41.1695204,7.47019668 L18.6681955,7.47019668 C18.3520264,7.47019668 18.0947882,7.72649944 18.0947882,8.04360396 L18.0947882,8.73861475 C18.0947882,9.05478385 18.351091,9.31202203 18.6681955,9.31202203 L41.1704559,9.31202203 C41.486625,9.31202203 41.7438631,9.05571926 41.7438631,8.73861475 L41.7438631,8.04360396 C41.7429277,7.72649944 41.486625,7.47019668 41.1695204,7.47019668" id="Fill-4" fill="#FFFFFF"></path>
                        </g>
                    </g>
                    <g id="Group-2" transform="translate(446.000000, 153.000000)">
                        <rect id="Rectangle-5" fill="#FFFFFF" x="6.20162357" y="1.5461348" width="167.443836" height="116.733178"></rect>
                        <g id="Page-1">
                            <path d="M166.916698,0 L11.3807545,0 C3.0000354,0 0,3.00568605 0,11.401198 L0,107.64577 C0,116.040509 3.0000354,119.046195 11.3807545,119.046195 L166.916698,119.046195 C175.297417,119.046195 178.296678,116.040509 178.296678,107.64577 L178.296678,11.401198 C178.295902,3.00568605 175.296642,0 166.916698,0 L166.916698,0 Z" id="Fill-1" fill="#2C4A58"></path>
                            <polygon id="Path" fill="#2075CF" points="23 116.094773 159.435719 116.094773 159.435719 4 23 4"></polygon>
                            <path d="M11.9551023,54.8562443 C15.1458376,54.8562443 17.7326899,57.4189627 17.7326899,60.5815815 C17.7326899,63.7434271 15.1458376,66.3069186 11.9551023,66.3069186 C8.76436699,66.3069186 6.17751476,63.7434271 6.17751476,60.5815815 C6.17751476,57.4189627 8.76436699,54.8562443 11.9551023,54.8562443" id="Fill-3" fill="#FFFFFF"></path>
                            <path d="M166.993366,44.3470114 L166.294908,44.3470114 C166.060022,44.3470114 165.869322,44.537186 165.869322,44.7714255 L165.869322,74.3134231 C165.869322,74.5476625 166.060022,74.7378371 166.294908,74.7378371 L166.993366,74.7378371 C167.228252,74.7378371 167.418952,74.5476625 167.418952,74.3134231 L167.418952,44.7714255 C167.419728,44.537186 167.229028,44.3470114 166.993366,44.3470114" id="Fill-4" fill="#FFFFFF"></path>
                        </g>
                    </g>
                </g>
                <g id="Group-7" transform="translate(260.000000, 62.000000)" fill-rule="nonzero" fill="#FFFFFF">
                    <path d="M5.31069536,37.5577561 C5.31069536,50.2202146 12.6594436,61.186808 23.3622358,66.3874606 L8.09945108,24.5184388 C6.32821434,28.513143 5.31069536,32.9223919 5.31069536,37.5577561 Z" id="Shape"></path>
                    <path d="M58.9754001,35.9372629 C58.9754001,31.9802447 57.5433363,29.2291749 56.3373879,27.1187651 C54.7168947,24.4807529 53.2094592,22.2572855 53.2094592,19.6192734 C53.2094592,16.6797741 55.4329266,13.9287043 58.5985412,13.9287043 C58.7492848,13.9287043 58.8623424,13.9287043 59.013086,13.9663902 C53.3225169,8.76573759 45.7099675,5.56243709 37.3813862,5.56243709 C26.1886774,5.56243709 16.3526606,11.2906921 10.6244056,19.9961323 C11.3781234,20.0338181 12.0941552,20.0338181 12.6971294,20.0338181 C16.0134876,19.9961323 21.1764543,19.6192734 21.1764543,19.6192734 C22.9100051,19.5062157 23.0984346,22.0688561 21.3648837,22.2572855 C21.3648837,22.2572855 19.6313329,22.445715 17.7093526,22.5587727 L29.354292,57.2297898 L36.3638672,36.2010642 L31.38933,22.5210868 C29.6557791,22.4080291 28.0352859,22.2195997 28.0352859,22.2195997 C26.3017351,22.106542 26.5278504,19.4685298 28.2237154,19.5815875 C28.2237154,19.5815875 33.4997397,19.9961323 36.6653543,19.9961323 C40.0193984,19.9961323 45.182365,19.5815875 45.182365,19.5815875 C46.9159159,19.4685298 47.1043453,22.0311702 45.3707945,22.2195997 C45.3707945,22.2195997 43.6372436,22.4080291 41.7152633,22.5210868 L53.284831,56.9283027 L56.4881315,46.2631963 C57.9201952,41.8539474 58.9754001,38.6883328 58.9754001,35.9372629 Z" id="Shape"></path>
                    <path d="M37.9089886,40.3465119 L28.2990871,68.271755 C31.1632146,69.1008445 34.2157716,69.5907611 37.3437003,69.5907611 C41.0746032,69.5907611 44.6547626,68.950101 47.9711208,67.7818384 C47.895749,67.6310949 47.8203772,67.4803513 47.7450054,67.3296078 L37.9089886,40.3465119 Z" id="Shape"></path>
                    <path d="M65.4573729,22.1819138 C65.6081164,23.1994328 65.6834882,24.2923235 65.6834882,25.460586 C65.6834882,28.7015724 65.080514,32.3571036 63.2339055,36.917096 L53.4355745,65.1815122 C62.9701042,59.6416866 69.3390193,49.3157532 69.3390193,37.5200703 C69.3767052,31.9802447 67.9446415,26.7419062 65.4573729,22.1819138 Z" id="Shape"></path>
                    <path d="M37.3437003,0.248726862 C16.7672054,0.248726862 0.0346710171,16.9812612 0.0346710171,37.5577561 C0.0346710171,58.1342511 16.7672054,74.8667854 37.3437003,74.8667854 C57.9201952,74.8667854 74.6527296,58.1342511 74.6527296,37.5577561 C74.6904155,16.9812612 57.9201952,0.248726862 37.3437003,0.248726862 Z M37.3437003,73.1709204 C17.7093526,73.1709204 1.73053598,57.1921039 1.73053598,37.5577561 C1.73053598,17.9234084 17.7093526,1.94459183 37.3437003,1.94459183 C56.978048,1.94459183 72.9568646,17.9234084 72.9568646,37.5577561 C72.9568646,57.1921039 56.978048,73.1709204 37.3437003,73.1709204 Z" id="Shape"></path>
                </g>
                <g id="Group-7-Copy" transform="translate(509.000000, 185.000000)" fill-rule="nonzero" fill="#FFFFFF">
                    <path d="M4.03170289,28.5125965 C4.03170289,38.1255129 9.61062756,46.4509851 17.7358307,50.3991472 L6.14883328,18.6135815 C4.80416939,21.6462277 4.03170289,24.9935825 4.03170289,28.5125965 Z" id="Shape"></path>
                    <path d="M44.7721579,27.2823721 C44.7721579,24.2783358 43.6849828,22.1898152 42.769467,20.5876625 C41.5392426,18.5849716 40.3948478,16.8969893 40.3948478,14.8942984 C40.3948478,12.6627285 42.0828301,10.574208 44.4860592,10.574208 C44.6004987,10.574208 44.6863283,10.574208 44.8007678,10.6028179 C40.4806774,6.65465578 34.7014836,4.22281683 28.3787023,4.22281683 C19.8815709,4.22281683 12.4143948,8.57151708 8.06569458,15.1803971 C8.63789198,15.2090069 9.18147951,15.2090069 9.63923743,15.2090069 C12.156906,15.1803971 16.0764582,14.8942984 16.0764582,14.8942984 C17.3925122,14.8084688 17.5355616,16.7539399 16.2195076,16.8969893 C16.2195076,16.8969893 14.9034535,17.0400386 13.4443502,17.1258682 L22.2848,43.4469487 L27.6062359,27.4826412 L23.829733,17.0972584 C22.513679,17.0114288 21.2834546,16.8683794 21.2834546,16.8683794 C19.9674005,16.7825498 20.1390598,14.7798589 21.4265039,14.8656885 C21.4265039,14.8656885 25.4318857,15.1803971 27.8351148,15.1803971 C30.3813933,15.1803971 34.3009455,14.8656885 34.3009455,14.8656885 C35.6169995,14.7798589 35.7600488,16.7253301 34.4439948,16.8683794 C34.4439948,16.8683794 33.1279408,17.0114288 31.6688374,17.0972584 L40.4520675,43.2180698 L42.8839065,35.1214765 C43.9710815,31.7741217 44.7721579,29.3708926 44.7721579,27.2823721 Z" id="Shape"></path>
                    <path d="M28.7792405,30.6297269 L21.4837237,51.8296407 C23.6580738,52.4590578 25.9754733,52.8309861 28.3500925,52.8309861 C31.1824696,52.8309861 33.9004073,52.3446183 36.4180758,51.4577124 C36.3608561,51.3432729 36.3036364,51.2288334 36.2464166,51.1143939 L28.7792405,30.6297269 Z" id="Shape"></path>
                    <path d="M49.6930556,16.8397695 C49.807495,17.612236 49.8647148,18.4419223 49.8647148,19.3288282 C49.8647148,21.7892771 49.4069569,24.5644345 48.0050732,28.0262287 L40.566507,49.4836313 C47.8048041,45.2779804 52.6398722,37.438876 52.6398722,28.4839867 C52.6684821,24.2783358 51.581307,20.3015638 49.6930556,16.8397695 Z" id="Shape"></path>
                    <path d="M28.3500925,0.188825143 C12.7291034,0.188825143 0.0263210805,12.8916075 0.0263210805,28.5125965 C0.0263210805,44.1335856 12.7291034,56.8363679 28.3500925,56.8363679 C43.9710815,56.8363679 56.6738639,44.1335856 56.6738639,28.5125965 C56.7024737,12.8916075 43.9710815,0.188825143 28.3500925,0.188825143 Z M28.3500925,55.5489238 C13.4443502,55.5489238 1.31376523,43.4183389 1.31376523,28.5125965 C1.31376523,13.6068542 13.4443502,1.4762693 28.3500925,1.4762693 C43.2558348,1.4762693 55.3864197,13.6068542 55.3864197,28.5125965 C55.3864197,43.4183389 43.2558348,55.5489238 28.3500925,55.5489238 Z" id="Shape"></path>
                </g>
                <g id="Group-7-Copy-2" transform="translate(13.000000, 203.000000)" fill-rule="nonzero" fill="#FFFFFF">
                    <path d="M2.42918941,17.1794647 C2.42918941,22.9714576 5.79061387,27.9877372 10.6862269,30.3665914 L3.70480689,11.215091 C2.89461741,13.0423269 2.42918941,15.0591816 2.42918941,17.1794647 Z" id="Shape"></path>
                    <path d="M26.976207,16.4382275 C26.976207,14.6282297 26.3211602,13.3698503 25.7695418,12.4045182 C25.0283046,11.197853 24.3387816,10.1808066 24.3387816,8.9741414 C24.3387816,7.62957161 25.355828,6.3711922 26.8038262,6.3711922 C26.8727785,6.3711922 26.9244928,6.3711922 26.9934451,6.38843028 C24.3904959,4.00957605 20.9084049,2.54433974 17.0987905,2.54433974 C11.9790825,2.54433974 7.47994513,5.16452701 4.85975786,9.14652214 C5.20451934,9.16376021 5.53204275,9.16376021 5.80785194,9.16376021 C7.32480246,9.14652214 9.68641862,8.9741414 9.68641862,8.9741414 C10.47937,8.92242718 10.5655604,10.0946162 9.77260899,10.1808066 C9.77260899,10.1808066 8.97965758,10.266997 8.1005158,10.3187112 L13.4270807,26.1777394 L16.6333625,16.558894 L14.3579367,10.3014731 C13.5649853,10.2497589 12.8237481,10.1635685 12.8237481,10.1635685 C12.0307967,10.1118543 12.1342251,8.9051891 12.9099385,8.95690332 C12.9099385,8.95690332 15.3232689,9.14652214 16.7712671,9.14652214 C18.3054557,9.14652214 20.6670718,8.95690332 20.6670718,8.95690332 C21.4600233,8.9051891 21.5462136,10.0773781 20.7532622,10.1635685 C20.7532622,10.1635685 19.9603108,10.2497589 19.081169,10.3014731 L24.3732578,26.0398348 L25.8384941,21.1614598 C26.4935409,19.1446051 26.976207,17.6966069 26.976207,16.4382275 Z" id="Shape"></path>
                    <path d="M17.3401235,18.4550822 L12.9444146,31.2284951 C14.2545083,31.6077327 15.6507923,31.8318277 17.0815524,31.8318277 C18.7881218,31.8318277 20.4257388,31.5387804 21.9426893,31.0044002 C21.9082132,30.9354479 21.873737,30.8664956 21.8392609,30.7975433 L17.3401235,18.4550822 Z" id="Shape"></path>
                    <path d="M29.9411557,10.1463304 C30.010108,10.6117584 30.0445842,11.1116626 30.0445842,11.6460429 C30.0445842,13.1285173 29.768775,14.8006105 28.9241094,16.8864174 L24.4422101,29.814973 C28.8034428,27.2809761 31.7166774,22.5577438 31.7166774,17.1622266 C31.7339154,14.6282297 31.0788686,12.2321374 29.9411557,10.1463304 Z" id="Shape"></path>
                    <path d="M17.0815524,0.113771289 C7.66956395,0.113771289 0.0158590282,7.76747621 0.0158590282,17.1794647 C0.0158590282,26.5914532 7.66956395,34.2451581 17.0815524,34.2451581 C26.4935409,34.2451581 34.1472458,26.5914532 34.1472458,17.1794647 C34.1644839,7.76747621 26.4935409,0.113771289 17.0815524,0.113771289 Z M17.0815524,33.4694448 C8.1005158,33.4694448 0.791572365,26.1605013 0.791572365,17.1794647 C0.791572365,8.19842806 8.1005158,0.889484626 17.0815524,0.889484626 C26.0625891,0.889484626 33.3715325,8.19842806 33.3715325,17.1794647 C33.3715325,26.1605013 26.0625891,33.4694448 17.0815524,33.4694448 Z" id="Shape"></path>
                </g>
                <g id="Group-11" transform="translate(183.000000, 148.000000)" fill="#FFFFFF">
                    <path d="M103.329124,27.2883439 L102.867117,27.2883439 C100.493194,27.2883439 100.164413,26.6946685 100.164413,23.6616261 L100.164413,9.3526468 L103.329124,9.3526468 C110.186776,9.3526468 111.439571,14.3630489 111.439571,18.2538821 C111.439571,22.2763835 110.186776,27.2883439 103.329124,27.2883439 L103.329124,27.2883439 Z M75.5019533,18.1214349 L75.5019533,9.3526468 L78.2054357,9.3526468 C81.1730336,9.3526468 82.4920525,11.3962302 82.4920525,13.7693736 C82.4920525,16.0778515 81.1730336,18.1214349 78.2054357,18.1214349 L75.5019533,18.1214349 Z M103.131232,7.37372883 L91.3278434,7.37372883 L91.3278434,8.62652414 C95.0200057,8.62652414 95.6136811,9.41809133 95.6136811,14.0997126 L95.6136811,22.5404989 C95.6136811,27.2221202 95.0200057,28.0799111 91.3278434,28.0799111 C88.4926928,27.6841275 86.5799984,26.1672167 83.9419605,23.2658425 L80.9096973,19.9686847 C84.9976432,19.2433411 87.1736738,16.6715269 87.1736738,13.7693736 C87.1736738,10.1434349 84.0744078,7.37372883 78.2716594,7.37372883 L66.6653834,7.37372883 L66.6653834,8.62652414 C70.3583248,8.62652414 70.9512211,9.41809133 70.9512211,14.0997126 L70.9512211,22.5404989 C70.9512211,27.2221202 70.3583248,28.0799111 66.6653834,28.0799111 L66.6653834,29.3319273 L79.787791,29.3319273 L79.787791,28.0799111 C76.0956287,28.0799111 75.5019533,27.2221202 75.5019533,22.5404989 L75.5019533,20.1665765 L76.6230805,20.1665765 L83.9419605,29.3319273 L103.131232,29.3319273 C112.561477,29.3319273 116.649423,24.320746 116.649423,18.3193267 C116.649423,12.3194655 112.561477,7.37372883 103.131232,7.37372883 L103.131232,7.37372883 Z" id="Fill-1"></path>
                    <path d="M29.9376008,20.562438 L34.4875539,7.10891221 C35.8065729,3.21885811 35.2128975,2.09851006 30.9925043,2.09851006 L30.9925043,0.778712012 L43.3903475,0.778712012 L43.3903475,2.09851006 C39.236178,2.09851006 38.246719,3.08718994 36.5981401,7.9012585 L29.07981,30.4531323 L28.2235774,30.4531323 L21.4968145,9.81317373 L14.6391625,30.4531323 L13.7821508,30.4531323 L6.46249164,7.9012585 C4.88013637,3.08718994 3.82445375,2.09851006 -0.000155820313,2.09851006 L-0.000155820313,0.778712012 L14.6391625,0.778712012 L14.6391625,2.09851006 C10.7483293,2.09851006 9.69342582,3.02096631 11.0786684,7.10891221 L15.4961743,20.562438 L22.1567135,0.778712012 L23.4095088,0.778712012 L29.9376008,20.562438 Z" id="Fill-3"></path>
                    <path d="M52.3565599,8.56092379 C46.2904752,8.56092379 44.179889,14.0333332 44.179889,18.3191709 C44.179889,22.6720113 46.2904752,28.0797552 52.3565599,28.0797552 C58.4896474,28.0797552 60.5994545,22.6720113 60.5994545,18.3191709 C60.5994545,14.0333332 58.4896474,8.56092379 52.3565599,8.56092379 M52.3565599,30.1895623 C45.1031244,30.1895623 39.1679287,24.848042 39.1679287,18.3191709 C39.1679287,11.8573025 45.1031244,6.51578219 52.3565599,6.51578219 C59.6107746,6.51578219 65.5451912,11.8573025 65.5451912,18.3191709 C65.5451912,24.848042 59.6107746,30.1895623 52.3565599,30.1895623" id="Fill-6"></path>
                    <path d="M131.484841,3.1528682 L127.726456,3.1528682 L127.726456,14.627476 L131.484841,14.627476 C135.177783,14.627476 136.891806,12.0556618 136.891806,8.95639574 C136.891806,5.7916852 135.177783,3.1528682 131.484841,3.1528682 M132.935529,28.01322 L132.935529,29.3322389 L117.834982,29.3322389 L117.834982,28.01322 C122.253267,28.01322 123.044834,26.8928719 123.044834,20.2977772 L123.044834,9.74796293 C123.044834,3.1528682 122.253267,2.09796469 117.834982,2.09796469 L117.834982,0.778945742 L131.484841,0.778945742 C138.277049,0.778945742 142.036214,4.27399535 142.036214,8.95639574 C142.036214,13.5063489 138.277049,17.066843 131.484841,17.066843 L127.726456,17.066843 L127.726456,20.2977772 C127.726456,26.8928719 128.517244,28.01322 132.935529,28.01322" id="Fill-8"></path>
                    <path d="M152.388915,18.1216686 L152.388915,9.35210143 L155.092398,9.35210143 C158.059217,9.35210143 159.379015,11.3956848 159.379015,13.7696073 C159.379015,16.0780852 158.059217,18.1216686 155.092398,18.1216686 L152.388915,18.1216686 Z M187.336295,23.1344081 L187.007514,24.3209797 C186.413839,26.4970104 185.687716,27.2885776 181.006095,27.2885776 L180.08286,27.2885776 C176.654813,27.2885776 176.061137,26.4970104 176.061137,21.81461 L176.061137,18.7823467 C181.203987,18.7823467 181.59977,19.2427958 181.59977,22.6724008 L182.853345,22.6724008 L182.853345,12.8463719 L181.59977,12.8463719 C181.59977,16.275977 181.203987,16.7372051 176.061137,16.7372051 L176.061137,9.35210143 L179.687076,9.35210143 C184.369476,9.35210143 185.09482,10.1436686 185.687716,12.3196993 L186.018055,13.5717155 L187.072959,13.5717155 L186.611731,7.37396256 L167.224567,7.37396256 L167.224567,8.62597877 C170.91673,8.62597877 171.510405,9.41754596 171.510405,14.0999463 L171.510405,22.5407327 C171.510405,26.823454 171.006326,27.9025096 168.094824,28.0559926 C165.327455,27.6337196 163.428006,26.1238208 160.828923,23.2660762 L157.795101,19.9689184 C161.884605,19.2427958 164.059857,16.6717606 164.059857,13.7696073 C164.059857,10.1436686 160.96137,7.37396256 155.158622,7.37396256 L143.552346,7.37396256 L143.552346,8.62597877 C147.244508,8.62597877 147.838183,9.41754596 147.838183,14.0999463 L147.838183,22.5407327 C147.838183,27.222354 147.244508,28.0793657 143.552346,28.0793657 L143.552346,29.332161 L156.674753,29.332161 L156.674753,28.0793657 C152.982591,28.0793657 152.388915,27.222354 152.388915,22.5407327 L152.388915,20.1668102 L153.509264,20.1668102 L160.828923,29.332161 L187.929971,29.332161 L188.325754,23.1344081 L187.336295,23.1344081 Z" id="Fill-11"></path>
                    <path d="M200.722974,30.1894064 C198.084936,30.1894064 195.776458,28.804943 194.787778,27.9471521 C194.458218,28.2774912 193.864543,29.2661711 193.732875,30.1894064 L192.48008,30.1894064 L192.48008,21.0895002 L193.798319,21.0895002 C194.32655,25.4415615 197.359593,28.0133758 201.250426,28.0133758 C203.360233,28.0133758 205.075035,26.8268041 205.075035,24.8486652 C205.075035,23.1338627 203.558125,21.8148437 200.854642,20.5628275 L197.096256,18.7818014 C194.458218,17.528227 192.48008,15.3521963 192.48008,12.4508221 C192.48008,9.28611152 195.447677,6.5826291 199.536402,6.5826291 C201.712433,6.5826291 203.558125,7.37419629 204.679252,8.29665254 C205.008812,8.03331621 205.338372,7.30719355 205.537043,6.51562637 L206.789059,6.51562637 L206.789059,14.2980719 L205.404595,14.2980719 C204.942588,11.1980268 203.228565,8.6262125 199.733515,8.6262125 C197.887044,8.6262125 196.172242,9.68189512 196.172242,11.330474 C196.172242,13.0444975 197.557484,13.9677328 200.722974,15.4184199 L204.348913,17.198667 C207.515181,18.7147986 208.767198,21.1557238 208.767198,23.1338627 C208.767198,27.2880322 205.14048,30.1894064 200.722974,30.1894064" id="Fill-13"></path>
                    <path d="M221.032048,30.1894064 C218.39401,30.1894064 216.085532,28.804943 215.096853,27.9471521 C214.767293,28.2774912 214.173617,29.2661711 214.041949,30.1894064 L212.789154,30.1894064 L212.789154,21.0895002 L214.107394,21.0895002 C214.635624,25.4415615 217.668667,28.0133758 221.5595,28.0133758 C223.669307,28.0133758 225.38411,26.8268041 225.38411,24.8486652 C225.38411,23.1338627 223.867199,21.8148437 221.163716,20.5628275 L217.40533,18.7818014 C214.767293,17.528227 212.789154,15.3521963 212.789154,12.4508221 C212.789154,9.28611152 215.756752,6.5826291 219.845477,6.5826291 C222.021507,6.5826291 223.867199,7.37419629 224.988326,8.29665254 C225.317886,8.03331621 225.647446,7.30719355 225.845338,6.51562637 L227.098133,6.51562637 L227.098133,14.2980719 L225.713669,14.2980719 C225.251662,11.1980268 223.537639,8.6262125 220.042589,8.6262125 C218.196119,8.6262125 216.481316,9.68189512 216.481316,11.330474 C216.481316,13.0444975 217.866559,13.9677328 221.032048,15.4184199 L224.657987,17.198667 C227.824256,18.7147986 229.076272,21.1557238 229.076272,23.1338627 C229.076272,27.2880322 225.449554,30.1894064 221.032048,30.1894064" id="Fill-15"></path>
                </g>
            </g>
        </g>
    </g>
</svg>