<svg id="Layer_1" data-name="Layer 1" xmlns="http://www.w3.org/2000/svg" viewBox="0 0 48 48"><defs><style>.cls-1{fill:#a4373a;}.cls-2{fill:#fff;}</style></defs><title>Access_48x1</title><path class="cls-1" d="M33,9c-2,0-11.6.2-12,4.6V34.3c.3,4.5,10,4.7,12,4.7s12-.2,12-4.9V13.9C45,9.2,35,9,33,9Z"/><path class="cls-2" d="M42.8,29.9h0c-1,1.3-5,2.3-9.8,2.3-5.5,0-10-1.3-10-2.9v4.8c0,1.6,4.5,2.9,10,2.9s10-1.3,10-2.9V29.9C43,29.8,42.9,29.8,42.8,29.9Zm0-6.7h0c-1,1.3-5,2.3-9.8,2.3-5.5,0-10-1.3-10-2.9v4.8c0,1.6,4.5,2.9,10,2.9S43,29,43,27.4V23.2C43,23.1,42.9,23.1,42.8,23.2Zm0-6.8c-.9,1.3-5,2.3-9.8,2.3-5.5,0-10-1.3-10-2.9v4.8c0,1.6,4.5,2.9,10,2.9s10-1.3,10-2.9V16.4a.14.14,0,0,0-.2,0Zm-9.8.4c5.5,0,10-1.3,10-2.9S38.5,11,33,11s-10,1.3-10,2.9S27.5,16.8,33,16.8Z"/><path class="cls-1" d="M28,3,3,7.4V40.6L28,45Z"/><path class="cls-2" d="M13.4,25.1l1.4-5.6c0-.1.1-.2.1-.3a.76.76,0,0,1,.1-.4V18h.1v.8a.76.76,0,0,0,.1.4.37.37,0,0,0,.1.3l1.4,5.6H13.4M17,14.9l-3.5.2L8.9,31.3l3,.2.9-3.6,4.7.2,1,3.8,3.5.2L17,14.9"/></svg>