<svg id="Layer_1" data-name="Layer 1" xmlns="http://www.w3.org/2000/svg" viewBox="0 0 52.18 37.11"><defs><style>.cls-1{fill:#da3b01;}</style></defs><title>computers and mobiles</title><path class="cls-1" d="M52,.52a.7.7,0,0,0-.29-.29A1.11,1.11,0,0,0,51,0H1.16A1.17,1.17,0,0,0,.52.17.7.7,0,0,0,.23.46a1.11,1.11,0,0,0-.23.7V27.83A1.16,1.16,0,0,0,1.16,29H2.32V15.07a1.16,1.16,0,0,1,1.16-1.16H18a1.16,1.16,0,0,1,1.16,1.16V29h5.8v5.8h-5.8v2.32h15.6a1.24,1.24,0,0,0,1.22-1,1.15,1.15,0,0,0-1.16-1.33H27.25V29h8.7V19.71a1.16,1.16,0,0,1,1.16-1.16H48.7a1.16,1.16,0,0,1,1.16,1.16V29H51a1.16,1.16,0,0,0,1.16-1.16V1.16A1.17,1.17,0,0,0,52,.52Z"/><path class="cls-1" d="M16.81,15.07H4.64a1.16,1.16,0,0,0-1.16,1.16V35.95a1.16,1.16,0,0,0,1.16,1.16H16.81A1.16,1.16,0,0,0,18,35.95V16.23A1.16,1.16,0,0,0,16.81,15.07Z"/><path class="cls-1" d="M47.77,19.71H38a.92.92,0,0,0-.93.93V36.18a.92.92,0,0,0,.93.93h9.74a.92.92,0,0,0,.93-.93V20.64A.92.92,0,0,0,47.77,19.71Z"/></svg>