<svg id="Layer_1" data-name="Layer 1" xmlns="http://www.w3.org/2000/svg" viewBox="0 0 49.41 47.95"><defs><style>.cls-1{fill:#da3b01;}.cls-2{fill:#fff;}</style></defs><title>contracts</title><path class="cls-1" d="M19.71,49.13l14.55-3,18.9,3L60,4,41.06,1.18,43.14,12.5l-4.28,1.87.3,3s3.43,6.4-1.89,9.37c-1.21,4.81-3.25,2.73-1.21,4.81a32.42,32.42,0,0,0,3.76,3.31l-6.06,10,.15-9.89s-4.44-3.15-1.42-12.32c-.16-2.13-.6-2.91-3.39-5.3a37.74,37.74,0,0,1-1.55-5.6l3.62-3.63L26,1.31,10.59,4.46Z" transform="translate(-10.59 -1.18)"/><path class="cls-2" d="M31.12,7.72A3.46,3.46,0,0,0,31,7.24L22.82,8.91l-.45-2.18,7.24-1.48c-.24-.24-.5-.48-.77-.71L21.37,6.06l.79,3.85,9-1.84A2.28,2.28,0,0,0,31.12,7.72Z" transform="translate(-10.59 -1.18)"/><path class="cls-2" d="M43.14,5.25c.14.31.26.61.37.92l4.84.73L48,9.1l-4.08-.62a4.18,4.18,0,0,1-.11.85l4.91.75.59-3.89Z" transform="translate(-10.59 -1.18)"/><rect class="cls-2" x="15.63" y="12.91" width="12.1" height="0.85" transform="translate(-12.82 3.42) rotate(-11.54)"/><path class="cls-2" d="M28.05,14.56,16.25,17l.17.84,11.72-2.39A4.21,4.21,0,0,1,28.05,14.56Z" transform="translate(-10.59 -1.18)"/><path class="cls-2" d="M38.85,14.37a2.15,2.15,0,0,0-.35.81l15.58,2.36.13-.84Z" transform="translate(-10.59 -1.18)"/><path class="cls-2" d="M29.08,17.3,16.83,19.8l.17.84L29.83,18A5.67,5.67,0,0,1,29.08,17.3Z" transform="translate(-10.59 -1.18)"/><path class="cls-2" d="M39.15,17.34c.21.33.45.65.65,1l13.85,2.1.13-.84Z" transform="translate(-10.59 -1.18)"/><path class="cls-2" d="M31.8,19.7,17.41,22.64l.17.84,14.73-3A3.4,3.4,0,0,0,31.8,19.7Z" transform="translate(-10.59 -1.18)"/><path class="cls-2" d="M40.67,20.5a4.65,4.65,0,0,1,.05.87l12.49,1.89.13-.84Z" transform="translate(-10.59 -1.18)"/><path class="cls-2" d="M32.47,22.6v-.08l-14.5,3,.17.84,14.05-2.87A6.13,6.13,0,0,0,32.47,22.6Z" transform="translate(-10.59 -1.18)"/><path class="cls-2" d="M40.26,23.37l-.07.18a3.75,3.75,0,0,1-.37.61l13,2,.13-.84Z" transform="translate(-10.59 -1.18)"/><path class="cls-2" d="M31,25.95l.09-.19L18.56,28.32l.17.84,12-2.44C30.8,26.44,30.9,26.18,31,25.95Z" transform="translate(-10.59 -1.18)"/><path class="cls-2" d="M38.07,26c-.27.25-.55.49-.81.74L52.35,29l.13-.84Z" transform="translate(-10.59 -1.18)"/><path class="cls-2" d="M30.26,28.89,19.14,31.15l.17.84,11-2.24A4.74,4.74,0,0,1,30.26,28.89Z" transform="translate(-10.59 -1.18)"/><path class="cls-2" d="M35.83,28.56a2.88,2.88,0,0,0-.23.83l16.31,2.47L52,31Z" transform="translate(-10.59 -1.18)"/><path class="cls-2" d="M31.19,31.65,19.72,34l.17.84L31.81,32.4A7.6,7.6,0,0,1,31.19,31.65Z" transform="translate(-10.59 -1.18)"/><path class="cls-2" d="M36.05,31.52c.15.32.33.63.51.94l14.92,2.26.13-.84Z" transform="translate(-10.59 -1.18)"/><path class="cls-2" d="M33.49,34.14,20.3,36.83l.17.84L33.9,34.93A3.6,3.6,0,0,0,33.49,34.14Z" transform="translate(-10.59 -1.18)"/><path class="cls-2" d="M43.55,41c-.58.28-1.13.62-1.69.95-.45-.46-.9-.92-1.39-1.34s-.94.19-.57.57l1.2,1.23c-.5.31-1,.62-1.48,1s0,1,.41.7l1.7-1,1.38,1.42c.37.38.9-.18.57-.57s-.78-.88-1.19-1.31L44,41.67A.4.4,0,0,0,43.55,41Z" transform="translate(-10.59 -1.18)"/></svg>