<?xml version="1.0" encoding="UTF-8" standalone="no"?>
<svg width="60px" height="60px" viewBox="0 0 60 60" version="1.1" xmlns="http://www.w3.org/2000/svg" xmlns:xlink="http://www.w3.org/1999/xlink">
    <!-- Generator: Sketch 43.1 (39012) - http://www.bohemiancoding.com/sketch -->
    <title>Email - grey</title>
    <desc>Created with Sketch.</desc>
    <defs></defs>
    <g id="Page-1" stroke="none" stroke-width="1" fill="none" fill-rule="evenodd">
        <g id="Email---grey">
            <ellipse id="Oval-4-Copy-2" fill="#CBCBCB" cx="30" cy="30" rx="30" ry="30"></ellipse>
            <path d="M39.58,36.604 L20.239,36.604 L20.239,26.506 C20.239,26.506 20.252,25.807 21.519,26.506 C21.534,26.514 21.542,26.517 21.556,26.524 C23.604,27.694 25.918,28.803 29.239,30.191 C29.464,30.266 29.934,30.356 30.616,30.183 C33.913,29.209 36.695,27.897 38.816,26.696 C38.816,26.696 39.58,26.234 39.58,26.696 L39.58,36.604 Z M17,39.848 L43.42,39.848 L43.42,21 L17,21 L17,39.848 Z" id="Fill-1" fill="#FFFFFF"></path>
        </g>
    </g>
</svg>