<?xml version="1.0" encoding="UTF-8" standalone="no"?>
<svg width="60px" height="60px" viewBox="0 0 60 60" version="1.1" xmlns="http://www.w3.org/2000/svg" xmlns:xlink="http://www.w3.org/1999/xlink">
    <!-- Generator: Sketch 43.1 (39012) - http://www.bohemiancoding.com/sketch -->
    <title>New user - grey</title>
    <desc>Created with Sketch.</desc>
    <defs></defs>
    <g id="Page-1" stroke="none" stroke-width="1" fill="none" fill-rule="evenodd">
        <g id="New-user---grey">
            <ellipse id="Oval-4" fill="#CBCBCB" cx="30" cy="30" rx="30" ry="30"></ellipse>
            <path d="M17.6937151,39.3240479 C22.8138762,40.0362249 27.9340373,40.7484018 33.1155552,41.4693711 L33.1155552,19.700872 C31.9748199,19.9734335 30.8603803,20.2409709 29.7459407,20.5072522 C27.5871837,21.0234863 25.4321831,21.5610732 23.2659129,22.0396259 C22.6398233,22.1777908 22.4156832,22.4089029 22.4206919,23.0884227 C22.455753,27.5297944 22.4319615,31.9711661 22.4494921,36.4125378 C22.4519964,36.8860664 22.3167611,37.1209467 21.8672287,37.2892566 C20.2707001,37.8883896 18.6904498,38.5314841 17.0438341,39.1808589 C17.0325645,38.9158336 17.0137818,38.7035622 17.0137818,38.4912907 C17.0125296,32.8893343 17.0212949,27.2873779 17.0000078,21.6854215 C16.9987556,21.1779797 17.147765,20.9619402 17.6210887,20.786094 C22.6548495,18.9095642 27.6785927,17.0041454 32.7085969,15.1137991 C32.9064413,15.0396925 33.1543727,14.9643299 33.3421996,15.0183398 C36.2409947,15.8473289 39.1335288,16.6976707 42.0423413,17.5480125 L42.0423413,42.6023228 C40.1816029,43.148702 38.3133514,43.6988493 36.4463521,44.2452284 C36.0631852,44.3570163 35.6537226,44.4135383 35.2981037,44.5818482 C33.8242887,45.2776966 32.4606654,45.0189516 30.9793373,44.433635 C26.7882933,42.778169 22.5409011,41.267148 18.3160482,39.697093 C18.0956647,39.6154501 17.8802898,39.5162226 17.6636628,39.4245314 C17.6736803,39.3918743 17.6836977,39.3579611 17.6937151,39.3240479 Z" id="Shape" fill="#FFFFFF"></path>
        </g>
    </g>
</svg>