<?xml version="1.0" encoding="UTF-8" standalone="no"?>
<!-- Generator: Adobe Illustrator 21.0.0, SVG Export Plug-In . SVG Version: 6.00 Build 0)  -->

<svg
   xmlns:dc="http://purl.org/dc/elements/1.1/"
   xmlns:cc="http://creativecommons.org/ns#"
   xmlns:rdf="http://www.w3.org/1999/02/22-rdf-syntax-ns#"
   xmlns:svg="http://www.w3.org/2000/svg"
   xmlns="http://www.w3.org/2000/svg"
   xmlns:xlink="http://www.w3.org/1999/xlink"
   xmlns:sodipodi="http://sodipodi.sourceforge.net/DTD/sodipodi-0.dtd"
   xmlns:inkscape="http://www.inkscape.org/namespaces/inkscape"
   version="1.1"
   id="Layer_1"
   x="0px"
   y="0px"
   viewBox="0 0 181.057 58.99"
   style="enable-background:new 0 0 181.057 58.99;"
   xml:space="preserve"
   inkscape:version="0.91 r13725"
   sodipodi:docname="office-logo-red.svg"><metadata
     id="metadata105"><rdf:RDF><cc:Work
         rdf:about=""><dc:format>image/svg+xml</dc:format><dc:type
           rdf:resource="http://purl.org/dc/dcmitype/StillImage" /><dc:title></dc:title></cc:Work></rdf:RDF></metadata><defs
     id="defs103" /><sodipodi:namedview
     pagecolor="#ffffff"
     bordercolor="#666666"
     borderopacity="1"
     objecttolerance="10"
     gridtolerance="10"
     guidetolerance="10"
     inkscape:pageopacity="0"
     inkscape:pageshadow="2"
     inkscape:window-width="1855"
     inkscape:window-height="1056"
     id="namedview101"
     showgrid="false"
     inkscape:zoom="1.6403673"
     inkscape:cx="90.528503"
     inkscape:cy="29.495001"
     inkscape:window-x="65"
     inkscape:window-y="24"
     inkscape:window-maximized="1"
     inkscape:current-layer="Layer_1" /><style
     type="text/css"
     id="style3">
	.st0{clip-path:url(#SVGID_2_);}
	.st1{clip-path:url(#SVGID_4_);fill:#FFFFFF;}
	.st2{clip-path:url(#SVGID_6_);}
	.st3{clip-path:url(#SVGID_8_);fill:#FFFFFF;}
	.st4{clip-path:url(#SVGID_10_);}
	.st5{clip-path:url(#SVGID_12_);fill:#FFFFFF;}
	.st6{clip-path:url(#SVGID_14_);}
	.st7{clip-path:url(#SVGID_16_);fill:#FFFFFF;}
	.st8{clip-path:url(#SVGID_18_);}
	.st9{clip-path:url(#SVGID_20_);fill:#FFFFFF;}
	.st10{fill:#FFFFFF;}
</style><g
     id="g5"
     style="fill:#e23a1b;fill-opacity:1"><g
       id="g7"
       style="fill:#e23a1b;fill-opacity:1"><defs
         id="defs9"><path
           id="SVGID_1_"
           d="M81.208,48.258c-4.889,0-8.804-1.613-11.744-4.838c-2.942-3.225-4.412-7.422-4.412-12.589     c0-5.551,1.498-9.98,4.496-13.286c2.997-3.306,7.075-4.959,12.237-4.959c4.76,0,8.596,1.605,11.505,4.815     c2.909,3.209,4.362,7.405,4.362,12.587c0,5.634-1.49,10.086-4.47,13.359C90.2,46.621,86.209,48.258,81.208,48.258z      M81.495,16.245c-3.623,0-6.562,1.308-8.823,3.924c-2.26,2.615-3.39,6.049-3.39,10.302c0,4.252,1.102,7.674,3.305,10.265     c2.204,2.592,5.076,3.888,8.619,3.888c3.782,0,6.764-1.236,8.943-3.707c2.18-2.471,3.271-5.93,3.271-10.374     c0-4.557-1.058-8.079-3.174-10.566C88.132,17.489,85.214,16.245,81.495,16.245z" /></defs><clipPath
         id="SVGID_2_"><use
           xlink:href="#SVGID_1_"
           style="overflow:visible;"
           id="use13" /></clipPath><g
         class="st0"
         id="g15"
         clip-path="url(#SVGID_2_)"
         style="fill:#e23a1b;fill-opacity:1"><defs
           id="defs17"><rect
             id="SVGID_3_"
             x="-1140.471"
             y="-293.5"
             width="1440"
             height="1380" /></defs><clipPath
           id="SVGID_4_"><use
             xlink:href="#SVGID_3_"
             style="overflow:visible;"
             id="use21" /></clipPath><rect
           x="60.051"
           y="7.586"
           class="st1"
           width="42.601"
           height="45.672"
           id="rect23"
           clip-path="url(#SVGID_4_)"
           style="fill:#e23a1b;fill-opacity:1" /></g></g><g
       id="g25"
       style="fill:#e23a1b;fill-opacity:1"><defs
         id="defs27"><path
           id="SVGID_5_"
           d="M125.61,14.007c0.977,0,1.852,0.216,2.62,0.65v-3.563c-0.705-0.289-1.659-0.433-2.86-0.433     c-2.228,0-4.088,0.751-5.578,2.251c-1.492,1.501-2.236,3.543-2.236,6.126v3.996h-9.869V19.23c0-3.482,1.38-5.223,4.136-5.223     c0.978,0,1.852,0.216,2.62,0.65v-3.563c-0.706-0.289-1.659-0.433-2.861-0.433c-2.227,0-4.085,0.751-5.577,2.251     c-1.492,1.501-2.236,3.543-2.236,6.126v3.996h-4.207v3.37h4.207V47.68h3.918V26.403h9.869V47.68h3.919V26.403h5.769v-3.37h-5.769     V19.23C121.475,15.748,122.853,14.007,125.61,14.007" /></defs><clipPath
         id="SVGID_6_"><use
           xlink:href="#SVGID_5_"
           style="overflow:visible;"
           id="use31" /></clipPath><g
         class="st2"
         id="g33"
         clip-path="url(#SVGID_6_)"
         style="fill:#e23a1b;fill-opacity:1"><defs
           id="defs35"><rect
             id="SVGID_7_"
             x="-1140.471"
             y="-293.5"
             width="1440"
             height="1380" /></defs><clipPath
           id="SVGID_8_"><use
             xlink:href="#SVGID_7_"
             style="overflow:visible;"
             id="use39" /></clipPath><rect
           x="94.563"
           y="5.661"
           class="st3"
           width="38.668"
           height="47.019"
           id="rect41"
           clip-path="url(#SVGID_8_)"
           style="fill:#e23a1b;fill-opacity:1" /></g></g><g
       id="g43"
       style="fill:#e23a1b;fill-opacity:1"><defs
         id="defs45"><path
           id="SVGID_9_"
           d="M132.95,16.774c-0.705,0-1.305-0.24-1.803-0.722c-0.498-0.481-0.745-1.091-0.745-1.83     c0-0.737,0.247-1.351,0.745-1.841c0.497-0.489,1.098-0.734,1.803-0.734c0.723,0,1.335,0.245,1.84,0.734     c0.504,0.49,0.757,1.104,0.757,1.841c0,0.707-0.252,1.308-0.757,1.806C134.286,16.526,133.673,16.774,132.95,16.774z      M130.933,47.68h3.942V23.033h-3.942V47.68z" /></defs><clipPath
         id="SVGID_10_"><use
           xlink:href="#SVGID_9_"
           style="overflow:visible;"
           id="use49" /></clipPath><g
         class="st4"
         id="g51"
         clip-path="url(#SVGID_10_)"
         style="fill:#e23a1b;fill-opacity:1"><defs
           id="defs53"><rect
             id="SVGID_11_"
             x="-1140.471"
             y="-293.5"
             width="1440"
             height="1380" /></defs><clipPath
           id="SVGID_12_"><use
             xlink:href="#SVGID_11_"
             style="overflow:visible;"
             id="use57" /></clipPath><rect
           x="125.402"
           y="6.648"
           class="st5"
           width="15.145"
           height="46.033"
           id="rect59"
           clip-path="url(#SVGID_12_)"
           style="fill:#e23a1b;fill-opacity:1" /></g></g><g
       id="g61"
       style="fill:#e23a1b;fill-opacity:1"><defs
         id="defs63"><path
           id="SVGID_13_"
           d="M156.933,46.549c-1.891,1.139-4.136,1.708-6.732,1.708c-3.509,0-6.342-1.144-8.498-3.43     c-2.156-2.287-3.234-5.252-3.234-8.894c0-4.06,1.161-7.321,3.487-9.784c2.324-2.463,5.425-3.695,9.305-3.695     c2.163,0,4.069,0.402,5.721,1.203v4.044c-1.828-1.284-3.783-1.925-5.866-1.925c-2.516,0-4.579,0.902-6.191,2.707     c-1.611,1.806-2.415,4.176-2.415,7.113c0,2.888,0.757,5.167,2.271,6.836c1.513,1.668,3.546,2.503,6.093,2.503     c2.149,0,4.168-0.714,6.059-2.143V46.549" /></defs><clipPath
         id="SVGID_14_"><use
           xlink:href="#SVGID_13_"
           style="overflow:visible;"
           id="use67" /></clipPath><g
         class="st6"
         id="g69"
         clip-path="url(#SVGID_14_)"
         style="fill:#e23a1b;fill-opacity:1"><defs
           id="defs71"><rect
             id="SVGID_15_"
             x="-1140.471"
             y="-293.5"
             width="1440"
             height="1380" /></defs><clipPath
           id="SVGID_16_"><use
             xlink:href="#SVGID_15_"
             style="overflow:visible;"
             id="use75" /></clipPath><rect
           x="133.468"
           y="17.455"
           class="st7"
           width="28.513"
           height="35.803"
           id="rect77"
           clip-path="url(#SVGID_16_)"
           style="fill:#e23a1b;fill-opacity:1" /></g></g><g
       id="g79"
       style="fill:#e23a1b;fill-opacity:1"><defs
         id="defs81"><path
           id="SVGID_17_"
           d="M181.057,36.343h-17.383c0.064,2.743,0.803,4.862,2.213,6.355c1.41,1.491,3.35,2.239,5.818,2.239     c2.773,0,5.321-0.915,7.646-2.744v3.707c-2.163,1.573-5.026,2.359-8.583,2.359c-3.479,0-6.21-1.119-8.198-3.357     c-1.989-2.239-2.981-5.389-2.981-9.448c0-3.836,1.085-6.96,3.257-9.376c2.172-2.415,4.87-3.622,8.091-3.622     c3.221,0,5.715,1.044,7.477,3.13c1.762,2.086,2.644,4.982,2.644,8.689V36.343z M177.018,32.998     c-0.016-2.279-0.565-4.052-1.647-5.32c-1.082-1.268-2.583-1.901-4.508-1.901c-1.861,0-3.438,0.665-4.736,1.997     c-1.298,1.332-2.099,3.073-2.403,5.223H177.018z" /></defs><clipPath
         id="SVGID_18_"><use
           xlink:href="#SVGID_17_"
           style="overflow:visible;"
           id="use85" /></clipPath><g
         class="st8"
         id="g87"
         clip-path="url(#SVGID_18_)"
         style="fill:#e23a1b;fill-opacity:1"><defs
           id="defs89"><rect
             id="SVGID_19_"
             x="-1140.471"
             y="-293.5"
             width="1440"
             height="1380" /></defs><clipPath
           id="SVGID_20_"><use
             xlink:href="#SVGID_19_"
             style="overflow:visible;"
             id="use93" /></clipPath><rect
           x="154.588"
           y="17.455"
           class="st9"
           width="31.469"
           height="35.803"
           id="rect95"
           clip-path="url(#SVGID_20_)"
           style="fill:#e23a1b;fill-opacity:1" /></g></g><polygon
       class="st10"
       points="31.152,1.01 17.933,6.119 0,13.05 0,47.829 0.016,47.835 11.162,43.178 11.162,15.782 31.346,11.119    31.346,51.922 0.053,47.848 25.38,56.922 31.152,58.99 48.425,53.409 48.425,6.832  "
       id="polygon97"
       style="fill:#e23a1b;fill-opacity:1" /></g><polygon
     class="st10"
     points="-229.702,278.341 -229.648,278.348 -229.686,278.335 "
     id="polygon99"
     style="fill:#e23a1b;fill-opacity:1" /></svg>