<svg id="Layer_1" data-name="Layer 1" xmlns="http://www.w3.org/2000/svg" viewBox="0 0 46.23 40.73"><defs><style>.cls-1{fill:#da3b01;}.cls-2{fill:#fff;}</style></defs><title>On your desktops</title><path class="cls-1" d="M1.1,0A1.1,1.1,0,0,0,0,1.1V28.62a1.1,1.1,0,0,0,1.1,1.1H29.72V28.48a7.71,7.71,0,0,1,15.41,0v1.24a1.1,1.1,0,0,0,1.1-1.1V1.1A1.1,1.1,0,0,0,45.13,0ZM37.42,23.11a5.4,5.4,0,0,0-5.5,5.37v5.76a5.5,5.5,0,0,0,11,0V28.48A5.4,5.4,0,0,0,37.42,23.11ZM37.3,25.3a1.1,1.1,0,0,1,1.22,1.12v3.2a1.1,1.1,0,0,1-2.2,0s0,0,0,0v-3.2A1.1,1.1,0,0,1,37.3,25.3ZM18.71,31.92v1.65a2.48,2.48,0,0,1-2.2,2.75H12.66v4.4H33.43A7.62,7.62,0,0,1,30,36.32h-.29c-1.18,0-2.18-1.14-2.2-2.75V31.92Z"/><polygon class="cls-2" points="27.76 6.2 20.6 15.35 17.55 13.38 15.18 16.17 21.27 21.3 30.8 8.45 27.76 6.2"/></svg>