<svg id="Layer_1" data-name="Layer 1" xmlns="http://www.w3.org/2000/svg" viewBox="0 0 44 28.49"><defs><style>.cls-1{fill:#da3b01;}</style></defs><title>on your mobile</title><path class="cls-1" d="M41.29,0H2.71A3,3,0,0,0,0,3.25v22a3,3,0,0,0,2.71,3.25H41.29A3,3,0,0,0,44,25.23v-22A3,3,0,0,0,41.29,0ZM32.85,22.52a2.27,2.27,0,0,1-2,2.45H5.66a2.28,2.28,0,0,1-2-2.45V6a2.28,2.28,0,0,1,2-2.45H30.81a2.27,2.27,0,0,1,2,2.45Zm5.59-4.2a3.42,3.42,0,1,1,3.42-3.43A3.42,3.42,0,0,1,38.44,18.32Z"/><polygon class="cls-1" points="24 6.62 16.71 15.93 13.6 13.93 11.2 16.77 17.39 21.99 27.09 8.91 24 6.62"/></svg>