<svg id="Layer_1" data-name="Layer 1" xmlns="http://www.w3.org/2000/svg" viewBox="0 0 48 48"><defs><style>.cls-1{fill:#094ab2;}</style></defs><title>OneDrive_48x1</title><path class="cls-1" d="M43.1,27.5S48,28.6,48,33a5.09,5.09,0,0,1-5.1,5H17.6c-5.1,0-7.6-3.4-7.6-6.8,0-4.2,7.4-6,7.4-6s.5-6.3,6.1-7.6a8.33,8.33,0,0,1,9.2,3.5A7.06,7.06,0,0,1,39,21,6.49,6.49,0,0,1,43.1,27.5Z"/><path class="cls-1" d="M15.5,23.5c.6-2.4,2.5-6.8,7.5-8a14.07,14.07,0,0,1,2.8-.3,10.38,10.38,0,0,1,7.6,3.6,11.93,11.93,0,0,1,2.9-.4h.1a10.41,10.41,0,0,0-6.5-7.7,9.84,9.84,0,0,0-12.5,4.5,7.65,7.65,0,0,0-7.4-.1,8.16,8.16,0,0,0-4.2,8.1S0,23.9,0,29.8c0,3.2,3.7,5.9,6.5,5.9H9.9a8.45,8.45,0,0,1-1.4-4.3C8.5,26.4,12.1,24.2,15.5,23.5Z"/></svg>