<svg id="Layer_1" data-name="Layer 1" xmlns="http://www.w3.org/2000/svg" viewBox="0 0 48 48"><defs><style>.cls-1{fill:#fff;}.cls-2,.cls-3{fill:#008372;}.cls-3{fill-rule:evenodd;}</style></defs><title>Sway-Color-M-48</title><rect class="cls-1" x="26" y="9" width="17" height="30"/><path class="cls-2" d="M43,7H26a2,2,0,0,0-2,2V39a2,2,0,0,0,2,2H43a2,2,0,0,0,2-2V9A2,2,0,0,0,43,7Zm0,32H26V24H43Zm0-17.91-.24-.47-5-5.11a.71.71,0,0,0-1,0l-1.23,1.3L40.61,22H39l-6.83-7a.91.91,0,0,0-1.09,0c-.77.63-4.13,3.75-5.08,4.64V9H43ZM27,26h5v2H27Zm7,0h7v2H34Zm-7,4h5v2H27Zm7,0h7v2H34Zm0,4h7v2H34Zm-7,0h5v2H27ZM38,12.5A1.59,1.59,0,0,1,39.5,11,1.53,1.53,0,1,1,38,12.5Z"/><path class="cls-3" d="M28,3,3,7.38V40.64L28,45Z"/><path class="cls-1" d="M15.85,15.57a6.66,6.66,0,0,0-1.08.15,5.36,5.36,0,0,0-1,.31,4.65,4.65,0,0,0-2.11,1.83,4.62,4.62,0,0,0-.4.84,5.17,5.17,0,0,0-.24.94,6.54,6.54,0,0,0-.08,1,5.27,5.27,0,0,0,.18,1.41,4.73,4.73,0,0,0,.56,1.26,5.5,5.5,0,0,0,.94,1.11,7.83,7.83,0,0,0,1.33,1l.63.38.52.34.42.31.31.28a2.87,2.87,0,0,1,.29.35,2.28,2.28,0,0,1,.21.36,1.94,1.94,0,0,1,.12.38,2,2,0,0,1,0,.73,1.59,1.59,0,0,1-.09.3,1.43,1.43,0,0,1-.14.27,1.48,1.48,0,0,1-.2.24,1.45,1.45,0,0,1-.3.23,1.66,1.66,0,0,1-.36.16,2.27,2.27,0,0,1-.42.09,3.2,3.2,0,0,1-.48,0,4.41,4.41,0,0,1-1-.14,4.52,4.52,0,0,1-.9-.35,5.2,5.2,0,0,1-.85-.55,6.67,6.67,0,0,1-.79-.75v3.61a5.08,5.08,0,0,0,.71.44,5.73,5.73,0,0,0,.8.33,6.82,6.82,0,0,0,.9.23,8.63,8.63,0,0,0,1,.12,8.18,8.18,0,0,0,1.32,0,5.72,5.72,0,0,0,1.16-.23,4.37,4.37,0,0,0,1-.45,3.89,3.89,0,0,0,.81-.67,4.09,4.09,0,0,0,.52-.69,4.4,4.4,0,0,0,.37-.8,5.18,5.18,0,0,0,.22-.91,6.64,6.64,0,0,0,.08-1,6,6,0,0,0-.06-.88,5.06,5.06,0,0,0-.19-.81,4.55,4.55,0,0,0-.75-1.41,5.45,5.45,0,0,0-.48-.52,7.71,7.71,0,0,0-.61-.53q-.34-.26-.74-.53t-.86-.53l-.57-.34-.47-.31-.36-.28a2.67,2.67,0,0,1-.26-.26,1.81,1.81,0,0,1-.2-.28,1.9,1.9,0,0,1-.14-.31,1.94,1.94,0,0,1-.08-.35,2.38,2.38,0,0,1,0-.38,1.91,1.91,0,0,1,0-.36,1.59,1.59,0,0,1,.1-.32,1.53,1.53,0,0,1,.16-.29,1.63,1.63,0,0,1,.22-.26,1.8,1.8,0,0,1,.28-.21,1.87,1.87,0,0,1,.33-.16,2.26,2.26,0,0,1,.37-.1,3,3,0,0,1,.42,0,5.15,5.15,0,0,1,.88,0,4.74,4.74,0,0,1,.84.19,4.79,4.79,0,0,1,.8.34,5.31,5.31,0,0,1,.75.5V16a5.5,5.5,0,0,0-.74-.24,6.91,6.91,0,0,0-.82-.15,8.82,8.82,0,0,0-.9-.07c-.31,0-.64,0-1,0"/></svg>