<svg id="Layer_1" data-name="Layer 1" xmlns="http://www.w3.org/2000/svg" viewBox="0 0 46.98 35.07"><defs><style>.cls-1{fill:#da3b01;}.cls-2{fill:#da3b01;}</style></defs><title>work anywhere</title><path class="cls-1" d="M47,33.75a1.32,1.32,0,0,1-1.32,1.32H1.32A1.32,1.32,0,0,1,0,33.75V1.32A1.32,1.32,0,0,1,1.32,0H45.66A1.32,1.32,0,0,1,47,1.32Zm-45.66,0H45.66V7.28H1.32ZM13.23,3.64,8.6,6V1.32ZM6,1.32,1.32,3.64M14.56,6V1.32h31.1V6"/><path class="cls-2" d="M46.24,19.88h-.09a.66.66,0,0,1-.47-1A.67.67,0,0,1,46,18.6l.15,0,.09,0h.09a.67.67,0,0,1,.34.11.68.68,0,0,1,.14.12.67.67,0,0,1,.12.68.66.66,0,0,1-.09.16.67.67,0,0,1-.28.22,1.2,1.2,0,0,1-.23.06Z"/><rect class="cls-1" x="1.32" y="5.5" width="44.33" height="5.82"/></svg>