<?xml version="1.0"?>
<!--Icons from directory ""-->
<svg xmlns="http://www.w3.org/2000/svg" width="100" height="200" viewBox="0 0 100 200"><svg xmlns:rdf="http://www.w3.org/1999/02/22-rdf-syntax-ns#" xmlns:cc="http://creativecommons.org/ns#" xmlns:dc="http://purl.org/dc/elements/1.1/" id="find" style="enable-background:new 192 -192 512 512" xml:space="preserve" viewBox="192 -192 512 512" height="100" width="100" version="1.1" y="0" x="0px"><style id="find-style2989" type="text/css">	.st0{fill:none;}</style><g id="find-g2991"><path id="find-path2993" class="st0" d="m399.6-162.8c-98.3 0-178.3 80-178.3 178.3s80 178.3 178.3 178.3 178.3-80 178.3-178.3-80-178.3-178.3-178.3z"/><path id="find-path2995" fill="#76a13f" d="m552.8 142.9c28.7-34.5 46-78.9 46-127.3 0-110.1-89.2-199.3-199.3-199.3s-199.3 89.2-199.3 199.3 89.2 199.3 199.3 199.3c48.4 0 92.8-17.3 127.3-46l142.9 142.9 26-26-142.9-142.9zm-153.2 51c-98.3 0-178.3-80-178.3-178.3s80-178.3 178.3-178.3 178.3 80 178.3 178.3-80 178.3-178.3 178.3z"/></g></svg><svg xmlns:rdf="http://www.w3.org/1999/02/22-rdf-syntax-ns#" xmlns:cc="http://creativecommons.org/ns#" xmlns:dc="http://purl.org/dc/elements/1.1/" id="fix" style="enable-background:new 192 -192 512 512" xml:space="preserve" viewBox="192 -192 512 512" height="100" width="100" version="1.1" y="100" x="0px"><path id="fix-path3" fill="#76a13f" d="m448-185c-137.5 0-249 111.5-249 249s111.5 249 249 249 249-111.5 249-249c0-137.5-111.5-249-249-249zm0 478.1c-126.3 0-229.1-102.8-229.1-229.1s102.8-229.1 229.1-229.1c126.3 0 229.1 102.8 229.1 229.1s-102.8 229.1-229.1 229.1z"/><polygon id="fix-polygon5" points="576.2 -33.8 408.9 133.5 319.9 44.5 305.7 58.6 408.9 161.8 590.3 -19.7" fill="#76a13f"/></svg></svg>
