<?xml version="1.0" encoding="UTF-8" standalone="no"?>
<svg width="330px" height="300px" viewBox="0 0 330 300" version="1.1" xmlns="http://www.w3.org/2000/svg" xmlns:xlink="http://www.w3.org/1999/xlink">
    <!-- Generator: Sketch 45.1 (43504) - http://www.bohemiancoding.com/sketch -->
    <title>Translations-Domains-pl</title>
    <desc>Created with Sketch.</desc>
    <defs></defs>
    <g id="SVG" stroke="none" stroke-width="1" fill="none" fill-rule="evenodd">
        <g id="Translations-Domains-PL" transform="translate(-220.000000, 0.000000)">
            <g id="Translations-Domains-pl" transform="translate(100.000000, 0.000000)">
                <g id="Domains-SVG">
                    <g id="Clouds" transform="translate(130.449438, 0.000000)" fill="#FFFFFF">
                        <path d="M88.7323253,8.41673731 C81.5584234,2.91036647 72.9774073,0 63.9169189,0 C55.6714209,0 47.7247028,2.45112932 40.9363655,7.08824983 C34.6411837,11.3880744 29.7276241,17.2811516 26.6670992,24.184998 C19.7040676,24.7078161 13.2285682,27.725021 8.32325602,32.7592893 C3.12328773,38.0961731 0.259387661,45.1189775 0.259387661,52.5342683 C0.259387661,59.9844261 3.14634288,67.031283 8.38848524,72.3769302 C13.6206933,77.7125088 20.6120283,80.7595463 28.0740259,80.9564422 C28.1229479,80.957188 95.1290998,80.9404071 98.0392976,80.9376103 C104.973276,80.6092641 111.364427,77.7033725 116.123161,72.7530087 C120.897827,67.7860504 123.52724,61.2739446 123.52724,54.4165253 C123.52724,41.9843064 114.879682,31.2803331 102.803092,28.5353517 C100.336191,20.622787 95.3718349,13.5129085 88.7323253,8.41673731 Z" id="Cloud" transform="translate(61.893314, 40.478233) scale(-1, 1) translate(-61.893314, -40.478233) "></path>
                        <path d="M275.960372,19.2809476 C271.459221,15.826063 266.0752,14 260.390341,14 C255.216835,14 250.230793,15.537922 245.971559,18.4474093 C242.021748,21.1452656 238.938813,24.8427829 237.018536,29.1744912 C232.649692,29.5025251 228.586744,31.3956221 225.508984,34.5542935 C222.246347,37.9028361 220.449438,42.3091827 220.449438,46.9617886 C220.449438,51.6362713 222.260812,56.0577093 225.549911,59.4117503 C228.832776,62.759474 233.219378,64.6712891 237.901289,64.7948282 C237.931985,64.7952962 279.973926,64.7847673 281.799883,64.7830125 C286.150497,64.5769969 290.160523,62.7537416 293.146315,59.6477148 C296.142103,56.531276 297.791886,52.4453591 297.791886,48.1427807 C297.791886,40.3423833 292.366114,33.6263461 284.78885,31.9040512 C283.241032,26.9394388 280.126226,22.4784589 275.960372,19.2809476 Z" id="Cloud" transform="translate(259.120662, 39.397422) scale(-1, 1) translate(-259.120662, -39.397422) "></path>
                    </g>
                    <g id="DOMAINS-TOP-IMG-EN" transform="translate(120.337079, 0.000000)">
                        <g id="domains">
                            <g id="Layer_1">
                                <ellipse id="Oval" fill="#F8F2EA" fill-rule="nonzero" cx="92.0918639" cy="208.209777" rx="54.6761336" ry="53.2097767"></ellipse>
                                <g id="flexible" transform="translate(63.707865, 179.000000)" fill-rule="nonzero" fill="#77A240">
                                    <path d="M30.64467,13.1561719 L31.8954729,14.3930769 L21.6047766,14.3930769 C21.1499392,14.3930769 20.7519565,14.7866376 20.7519565,15.2364213 C20.7519565,15.6862049 21.1499392,16.0797656 21.6047766,16.0797656 L31.8954729,16.0797656 L30.64467,17.3166707 C30.303542,17.6540084 30.303542,18.160015 30.64467,18.4973528 C30.815234,18.6660216 31.0426527,18.7222446 31.2700714,18.7222446 C31.4974901,18.7222446 31.7249088,18.6660216 31.8954729,18.4973528 L35.193044,15.2364213 L31.8954729,11.9754898 C31.5543448,11.638152 31.0426527,11.638152 30.7015247,11.9754898 C30.3603966,12.3128275 30.303542,12.8750571 30.64467,13.1561719 Z" id="Shape"></path>
                                    <path d="M53.1022668,11.9754898 C52.7611387,11.638152 52.2494466,11.638152 51.9083186,11.9754898 C51.5671905,12.3128275 51.5671905,12.8188341 51.9083186,13.1561719 L53.1591214,14.3930769 L48.6107474,14.3930769 C45.9385777,14.3930769 43.7781,12.2566046 43.7781,9.6141256 C43.7781,6.07207933 40.8785116,3.14848558 37.2398124,3.14848558 L35.6478814,3.14848558 C35.193044,3.14848558 34.7950613,3.54204627 34.7950613,3.99182993 C34.7950613,4.44161358 35.193044,4.83517428 35.6478814,4.83517428 L37.2398124,4.83517428 C39.9119821,4.83517428 42.0724598,6.97164663 42.0724598,9.6141256 C42.0724598,11.5257061 42.9252799,13.2123948 44.2329374,14.3930769 L42.9821346,14.3930769 C39.40029,14.3930769 36.4438469,17.2604477 36.4438469,20.8587169 C36.4438469,23.5011959 34.2833692,25.6376683 31.6111995,25.6376683 L29.8487046,25.6376683 C29.3938672,25.6376683 28.9958844,26.031229 28.9958844,26.4810126 C28.9958844,26.9307963 29.3938672,27.324357 29.8487046,27.324357 L31.6111995,27.324357 C35.193044,27.324357 38.1494872,24.4569862 38.1494872,20.8587169 C38.1494872,18.216238 40.3099648,16.0797656 42.9821346,16.0797656 L48.6107474,16.0797656 L53.1591214,16.0797656 L51.9083186,17.3166707 C51.5671905,17.6540084 51.5671905,18.160015 51.9083186,18.4973528 C52.0788826,18.6660216 52.3063013,18.7222446 52.53372,18.7222446 C52.7611387,18.7222446 52.9885574,18.6660216 53.1591214,18.4973528 L56.4566926,15.2364213 L53.1022668,11.9754898 Z" id="Shape"></path>
                                    <path d="M9.89271351,16.0797656 L12.8491566,16.0797656 C16.4310012,16.0797656 19.3874443,13.2123948 19.3874443,9.6141256 C19.3874443,6.97164663 21.547922,4.83517428 24.2200917,4.83517428 L27.7450816,4.83517428 L26.4942787,6.07207933 C26.1531507,6.40941707 26.1531507,6.91542368 26.4942787,7.25276142 C26.6648427,7.42143029 26.8922614,7.47765325 27.1196801,7.47765325 C27.3470988,7.47765325 27.5745175,7.42143029 27.7450816,7.25276142 L31.0426527,3.99182993 L27.7450816,0.730898438 C27.4039535,0.393560697 26.8922614,0.393560697 26.5511334,0.730898438 C26.2100053,1.06823618 26.2100053,1.57424279 26.5511334,1.91158053 L27.8019362,3.14848558 L24.2769464,3.14848558 C20.6951018,3.14848558 17.7386587,6.01585637 17.7386587,9.6141256 C17.7386587,12.2566046 15.578181,14.3930769 12.9060113,14.3930769 L9.94956819,14.3930769 C9.49473078,14.3930769 9.09674806,14.7866376 9.09674806,15.2364213 C9.09674806,15.6862049 9.43787611,16.0797656 9.89271351,16.0797656 Z" id="Shape"></path>
                                    <path d="M20.9793752,23.2200811 C20.6382472,23.5574189 20.6382472,24.0634255 20.9793752,24.4007632 L22.2301781,25.6376683 L12.8491566,25.6376683 C10.1769869,25.6376683 8.01650922,23.5011959 8.01650922,20.8587169 C8.01650922,17.3166707 5.11692078,14.3930769 1.47822156,14.3930769 L1.30765753,14.3930769 C0.85282013,14.3930769 0.454837403,14.7866376 0.454837403,15.2364213 C0.454837403,15.6862049 0.85282013,16.0797656 1.30765753,16.0797656 L1.47822156,16.0797656 C4.1503913,16.0797656 6.31086896,18.216238 6.31086896,20.8587169 C6.31086896,24.4007632 9.21045741,27.324357 12.8491566,27.324357 L22.2301781,27.324357 L20.9793752,28.561262 C20.6382472,28.8985998 20.6382472,29.4046064 20.9793752,29.7419441 C21.1499392,29.910613 21.3773579,29.9668359 21.6047766,29.9668359 C21.8321953,29.9668359 22.059614,29.910613 22.2301781,29.7419441 L25.5277492,26.4810126 L22.1733234,23.2200811 C21.8321953,22.8827434 21.3205033,22.8827434 20.9793752,23.2200811 Z" id="Shape"></path>
                                </g>
                                <ellipse id="Oval" fill="#F8F2EA" fill-rule="nonzero" cx="237.709841" cy="208.209777" rx="54.6761336" ry="53.2097767"></ellipse>
                                <g id="trusted" transform="translate(214.382022, 181.000000)" fill-rule="nonzero" fill="#77A240">
                                    <path d="M37.7662878,17.2620338 C37.7874014,17.2363871 37.7950488,17.2212622 37.7950488,17.2212622 L36.1945732,16.1987675 C36.3180959,16.0097059 36.8395348,15.3481545 38.3619567,14.7742291 C39.4293561,14.3718566 40.5768042,14.3527038 42.0294848,14.3283724 C42.5591529,14.3194947 43.1593937,14.3094662 43.805519,14.2788054 C44.3308647,14.2532409 44.7776579,14.6547914 44.8029277,15.1744644 C44.8282806,15.6942195 44.4227171,16.1358017 43.8972051,16.1607908 C43.2214875,16.1929312 42.6052869,16.2032885 42.0618201,16.2123306 C40.7462947,16.2342782 39.7958512,16.2502251 39.0407499,16.5348862 C38.0699409,16.900926 37.7692803,17.2584991 37.7662878,17.2620338 Z" id="Shape"></path>
                                    <path d="M15.5077562,15.9422191 C14.3886535,15.9422191 13.3146873,15.412682 12.5092126,14.4491253 C12.2087182,14.0895793 12.2195244,13.5667828 12.5343993,13.2196491 C13.7823447,11.8442668 13.9004644,10.0790064 13.9864149,8.79009915 C14.0472619,7.88087703 14.0951415,7.16285377 14.527388,6.66956728 C15.0597993,6.06218618 15.7873864,5.62323436 16.6300177,5.11506953 C17.1826281,4.78182783 17.8089699,4.40395114 18.5009798,3.91066464 C19.0938225,3.48807076 19.5878303,3.05511959 20.0656289,2.63655354 C20.9649509,1.84849527 21.7415814,1.16787334 22.7490482,0.982510728 C25.2370422,0.525145943 30.3728783,1.42302437 35.2528577,3.16806337 C36.0447,3.34183568 37.3805078,2.71415101 39.0646897,1.92190051 C39.6912808,1.62721094 40.4015781,1.29314723 41.1734705,0.957603911 C41.6546772,0.748320887 42.2171795,0.964755373 42.4290634,1.44110852 C42.6406979,1.91737947 42.4218316,2.47330292 41.9401261,2.68275034 C41.1943347,3.00678556 40.4976698,3.33451982 39.8830486,3.62361974 C37.7428467,4.63024971 36.1963188,5.35772605 34.7376532,4.98330178 C34.7087259,4.97590372 34.6800481,4.96710824 34.6520352,4.95699755 C29.5151185,3.11348209 24.9507621,2.4940175 23.0975885,2.83506827 C22.6097318,2.92483145 22.0447358,3.42000856 21.3292848,4.04687123 C20.8401813,4.47538356 20.2857421,4.96118979 19.6151782,5.43918696 C18.8637344,5.97488902 18.204226,6.37265829 17.6222727,6.72373755 C16.9129728,7.15151007 16.3474781,7.49264305 16.0048396,7.86197086 C15.946237,8.03886681 15.9125716,8.54177079 15.8876344,8.91430443 C15.8017669,10.2003346 15.6775792,12.0594682 14.5284686,13.7475421 C14.836943,13.9518109 15.2352747,14.1028136 15.7065896,14.0458485 C16.7931907,13.9136698 17.9396413,12.7267736 18.9432012,10.6987176 C19.064064,10.2706984 19.5066179,10.0790886 20.039611,9.84818677 C20.3406042,9.71781643 20.7592182,9.54108489 21.2834833,9.32292419 C22.1826391,8.94866433 23.0824598,8.58188474 23.0824598,8.58188474 C23.5688202,8.38386321 24.1259194,8.61295661 24.3263322,9.0938308 C24.526828,9.57486939 24.2950774,10.125532 23.8085508,10.3238823 C22.5413205,10.8405138 21.1420057,11.4224949 20.5824959,11.6706588 C18.9436168,14.9028732 17.1611821,15.7671315 15.9392546,15.9158326 C15.7949507,15.9335058 15.6509794,15.9422191 15.5077562,15.9422191 Z" id="Shape"></path>
                                    <path d="M34.248716,21.3805362 C33.4429919,21.3805362 32.5234707,21.2515633 31.4850817,20.9517773 C28.647633,20.1324006 26.8373516,18.9287355 26.7616254,18.8779354 C26.3264695,18.5855475 26.2132542,17.9995386 26.5089274,17.5692178 C26.8043513,17.1391437 27.3957808,17.0269397 27.8312691,17.3185879 C27.8577026,17.3361788 29.495418,18.4144056 32.0190723,19.1430327 C34.6609295,19.9061842 36.303466,19.2943643 36.7113571,18.4034729 C36.7671335,18.2817336 36.9064498,17.8985139 36.6186734,17.611469 C30.7260735,16.8186431 28.801413,14.6644089 27.2507289,12.9287408 C26.1731883,11.7224453 25.3219121,10.769739 23.2654996,10.3782992 C22.7488819,10.2798227 22.4106491,9.78587863 22.5100658,9.27500118 C22.6096487,8.76412372 23.1091428,8.43071762 23.6257604,8.52796107 C26.3199858,9.04089354 27.5191373,10.3832312 28.6788047,11.6811805 C30.180778,13.3623496 31.7338728,15.1007303 37.1148425,15.7755982 C37.2539926,15.7930248 37.3875734,15.840619 37.5058593,15.9150106 C38.6198914,16.6150319 39.0070845,17.9577806 38.4474085,19.1805163 C37.9245565,20.322202 36.5550833,21.3805362 34.248716,21.3805362 Z" id="Shape"></path>
                                    <path d="M31.8775116,25.2163505 C31.4059474,25.2163505 30.8946497,25.1549465 30.3443667,25.0173425 C27.1246293,24.2120221 24.619096,22.4182381 24.5139438,22.3422846 C24.0891785,22.0352649 23.996578,21.4457214 24.3071304,21.0256758 C24.6175998,20.6058767 25.2129362,20.5143051 25.6377014,20.820585 L25.6377014,20.820585 C25.6606437,20.8370251 27.9618574,22.4778336 30.8116085,23.190596 C32.3886431,23.5848306 33.375495,23.0795428 33.7731617,22.4749566 C34.0576963,22.0424164 34.0562832,21.5684471 33.7695874,21.2071749 C33.4447375,20.7978154 33.5169726,20.2055592 33.9308486,19.8843188 C34.345057,19.5632428 34.9438846,19.6345108 35.2685682,20.0437882 C36.0579168,21.0385813 36.0979827,22.3960439 35.3705618,23.5021367 C34.7770541,24.404865 33.5919507,25.2163505 31.8775116,25.2163505 Z" id="Shape"></path>
                                    <path d="M28.4662558,28.0934577 C28.1685045,28.0934577 27.8664307,28.0636189 27.5643569,28.0026259 C25.6106029,27.6081447 23.2477941,26.3094556 23.1482112,26.2542989 C22.6889493,26.0002987 22.5248619,25.4262089 22.7816329,24.9722143 C23.0384871,24.5181376 23.6185286,24.3558734 24.0778736,24.609627 L24.0778736,24.609627 C24.0997353,24.6216283 26.2844086,25.8211833 27.9454819,26.1564801 C28.7562765,26.3202239 29.5541038,26.0940897 30.0785351,25.5518116 C30.4062112,25.2128158 30.5688023,24.800497 30.4927436,24.5010398 C30.3644827,23.9964096 30.674204,23.4845458 31.1846704,23.3577923 C31.6940562,23.2309566 32.2125857,23.5372364 32.3407635,24.042031 C32.5797459,24.9824072 32.2489111,26.0336722 31.4557388,26.8539531 C30.6790252,27.6572185 29.6041446,28.0934577 28.4662558,28.0934577 Z" id="Shape"></path>
                                    <path d="M24.1502749,29.6599568 C22.6714101,29.6599568 20.960961,29.1398728 19.4932348,28.1800973 C19.0544216,27.8931346 18.9338913,27.3086053 19.2241614,26.8745033 C19.5145147,26.4405657 20.1053623,26.3213747 20.544425,26.6084196 C22.117719,27.6371616 24.1949126,28.0632079 25.2738663,27.578388 C25.6605606,27.4046157 25.8583965,27.1395184 25.9153367,26.7188974 C25.9852442,26.2030879 26.4654534,25.8402539 26.986061,25.9102067 C27.5074999,25.9793375 27.8736625,26.453389 27.8038381,26.9690341 C27.6604486,28.0277794 27.0419206,28.8533211 26.0624667,29.2937526 C25.5128487,29.5407657 24.8579122,29.6599568 24.1502749,29.6599568 Z" id="Shape"></path>
                                    <path d="M5.6728192,18.301133 C5.42037064,18.301133 5.1683377,18.2025744 4.98089236,18.0069367 C3.81050194,16.7848586 2.59281378,15.9771544 0.637480408,15.1262948 C0.155858099,14.9166007 -0.0627588614,14.3606773 0.149291278,13.8844063 C0.361341418,13.4080532 0.923594316,13.1918653 1.4051335,13.4016415 C3.58473629,14.3502378 5.02145703,15.3091913 6.36441354,16.7112068 C6.72608745,17.0890013 6.70987821,17.6853674 6.32775571,18.0431872 C6.14363535,18.2155621 5.9079779,18.301133 5.6728192,18.301133 Z" id="Shape"></path>
                                    <path d="M11.9038182,5.04043128 C10.1511419,5.04051348 8.17527684,3.98357667 5.85669019,2.6321147 C5.40341328,2.3679216 5.25245951,1.79046157 5.5197042,1.34213886 C5.78686577,0.893898356 6.37106348,0.744704056 6.82417415,1.00889716 C9.05315278,2.30791508 11.1596893,3.44532638 12.4368945,3.08726007 C14.9009487,2.39850026 19.3352986,1.37255313 21.3490684,2.2421545 C21.8312726,2.45036892 22.051552,3.00579916 21.8409981,3.48256331 C21.6303611,3.95932746 21.0685238,4.17732376 20.5866521,3.96902715 C19.8071123,3.63241521 17.34098,3.67441978 12.9552577,4.90060786 C12.6135336,4.99596069 12.2632478,5.04043128 11.9038182,5.04043128 Z" id="Shape"></path>
                                    <path d="M18.371389,29.0502741 C18.2598362,29.0502741 18.1464546,29.0452598 18.0316599,29.0350669 C16.5414903,28.9028882 15.3981152,27.9553605 15.2511514,26.7310631 C15.1892238,26.2144316 15.562452,25.7458875 16.0850546,25.6844835 C16.6076572,25.6248058 17.0814658,25.9923252 17.1433934,26.5091211 C17.179885,26.8132638 17.6645829,27.1107482 18.2019817,27.1583424 C18.5102898,27.1853864 19.2520081,27.1675489 19.4862524,26.4113023 C19.6901564,25.7527923 19.606367,25.1551109 19.2727891,24.8886984 C18.9859271,24.6595228 18.5148616,24.6980749 17.9798735,24.9935043 C17.520861,25.2470113 16.9401545,25.0846649 16.6834666,24.6304238 C16.4268618,24.1762648 16.5911986,23.6022572 17.0506267,23.3484214 C18.2814485,22.6686215 19.5597343,22.6961587 20.4697794,23.4225664 C21.4267065,24.1865399 21.7478989,25.5431805 21.3082544,26.9628691 C20.9074289,28.256955 19.7742782,29.0502741 18.371389,29.0502741 Z" id="Shape"></path>
                                    <path d="M6.81910357,22.0655148 C5.81737239,22.0655148 4.81913244,21.4568185 4.26976381,20.508551 C3.7358563,19.587081 3.73610567,18.5118957 4.27051193,17.6324302 C4.98712669,16.4531787 6.00631397,15.7328538 7.29989463,15.4915947 C8.58325101,15.2522263 9.84524443,15.6949593 10.5948595,16.6465148 C11.2408186,17.4666313 11.3646739,18.5150193 10.9264425,19.4512032 L10.0618664,19.0552424 L10.9264425,19.4512032 C10.1461545,21.1169185 8.69696507,22.0453756 6.84562023,22.0654326 C6.83672592,22.0655148 6.82791475,22.0655148 6.81910357,22.0655148 Z M7.98118156,17.3120118 C7.87702678,17.3120118 7.76746893,17.3217115 7.65308987,17.3430837 C6.89599356,17.4843867 6.34022436,17.884622 5.90373856,18.6028918 C5.67431544,18.9803575 5.78769701,19.3381772 5.92294028,19.5717917 C6.12825735,19.9260768 6.50389615,20.1812278 6.8185217,20.1812278 C6.82059981,20.1812278 6.82259479,20.1812278 6.82475602,20.1812278 C7.94726684,20.1692265 8.72331548,19.6713368 9.19720723,18.6592815 C9.37226705,18.2857615 9.23627566,17.9883593 9.09155622,17.8044763 C8.89879092,17.5595182 8.50760787,17.3120118 7.98118156,17.3120118 Z" id="Shape"></path>
                                    <path d="M14.2335435,28.1634927 C13.5604859,28.1634927 12.8666472,27.9856104 12.278127,27.6245026 C11.0793081,26.888724 10.6053332,25.60442 11.010398,24.1890059 C11.1536212,23.6884035 11.6802969,23.3971664 12.186524,23.5390448 C12.6928342,23.6806767 12.9870112,24.2014182 12.843788,24.7021028 C12.6714713,25.304223 12.8151101,25.7363522 13.2828507,26.0234793 C13.8743633,26.3865599 14.7017828,26.3378148 15.018819,26.054058 C15.8275355,25.3301163 16.3285257,24.3419814 16.5080743,23.1167798 C16.5813068,22.6171638 16.3396644,22.0601718 15.9333527,21.792444 C15.6363495,21.5963953 15.321059,21.6021494 14.9695262,21.8101172 C14.5178287,22.0769407 13.9327997,21.9315276 13.6629782,21.484849 C13.3929904,21.0382525 13.5403698,20.459806 13.9919011,20.1928181 C14.9804987,19.608371 16.0731678,19.6202079 16.9903616,20.2246298 C18.0087176,20.895963 18.5727161,22.1668683 18.3939157,23.3871379 C18.1490315,25.0577853 17.4437216,26.4250298 16.2976035,27.4509769 C15.7700966,27.92322 15.0158265,28.1634927 14.2335435,28.1634927 Z" id="Shape"></path>
                                    <path d="M10.6585328,25.7532033 C9.9435805,25.7532033 9.18997541,25.4991209 8.51400845,24.8951923 C7.92873011,24.3721491 7.55633316,23.6764022 7.46539515,22.9361026 C7.36265349,22.1004501 7.6159333,21.2636468 8.19772041,20.5163601 C9.04492348,19.428187 9.80393164,18.6131669 10.968919,17.9123236 L10.968919,17.9123236 C12.1508637,17.2013696 13.5917406,17.3642093 14.5551515,18.3167512 C15.5730088,19.3232989 15.7074208,20.824284 14.8977068,22.1407285 L14.8144994,22.2763596 C14.3751042,22.9942185 13.7732842,23.9774213 12.7584193,24.9261819 C12.2173631,25.4321273 11.4624281,25.7532033 10.6585328,25.7532033 Z M11.959179,19.5221425 C11.0426503,20.0735449 10.4395833,20.7257253 9.70759055,21.6658549 C8.95930543,22.6269457 9.58257158,23.3106091 9.79137987,23.4971225 C10.1184741,23.7894282 10.8356707,24.1306434 11.4493775,23.557129 C12.276797,22.7835381 12.7800317,21.9613665 13.1844315,21.3007193 L13.2695508,21.1618001 C13.7845891,20.3244214 13.3525088,19.7924184 13.2077063,19.649307 C12.9407941,19.3852783 12.4726379,19.2133144 11.959179,19.5221425 L11.959179,19.5221425 Z" id="Shape"></path>
                                </g>
                                <path d="M91.9063362,299.288084 C41.1447743,299.284079 -0.00269880905,258.563324 0,208.334859 C0.00269880905,158.106394 41.1545476,117.389969 91.9161097,117.391304 C142.677672,117.39264 183.827333,158.111229 183.827333,208.339694 C183.770769,258.548733 142.64827,299.236119 91.9063362,299.288084 L91.9063362,299.288084 Z M91.9063362,155.673911 C62.5070704,155.673911 38.6742566,179.256432 38.6742566,208.346947 C38.6742566,237.437462 62.5070704,261.019984 91.9063362,261.019984 C121.305602,261.019984 145.138416,237.437462 145.138416,208.346947 C145.110136,179.266857 121.295063,155.698644 91.9063362,155.666657 L91.9063362,155.673911 Z" id="Shape" fill="#65C9D5" fill-rule="nonzero"></path>
                                <path d="M237.004043,299.288085 C186.241526,299.288085 145.090376,258.569103 145.090376,208.339694 C145.090376,158.110286 186.241526,117.391304 237.004043,117.391304 C287.766559,117.391304 328.917709,158.110286 328.917709,208.339694 C328.861153,258.545905 287.743114,299.232122 237.004043,299.288085 L237.004043,299.288085 Z M237.004043,155.673911 C207.604777,155.673911 183.771963,179.256433 183.771963,208.346948 C183.771963,237.437463 207.604777,261.019985 237.004043,261.019985 C266.403309,261.019985 290.236122,237.437463 290.236122,208.346948 C290.207843,179.266857 266.39277,155.698644 237.004043,155.666658 L237.004043,155.673911 Z" id="Shape" fill="#6E7F89" fill-rule="nonzero"></path>
                                <ellipse id="Oval" fill="#F8F2EA" fill-rule="nonzero" cx="162.254977" cy="87.4844526" rx="53.0414939" ry="52.4844526"></ellipse>
                                <g id="simple" transform="translate(147.640449, 58.000000)" fill-rule="nonzero" fill="#77A240">
                                    <path d="M4.20362047,0.326381238 C3.9245459,0.329223807 3.65821312,0.442325381 3.46395815,0.640488168 C3.26970319,0.838650956 3.16366384,1.1054125 3.16946452,1.38134127 L3.16946452,16.3445498 C1.56860189,16.7991162 0.382686361,18.2611003 0.382686361,19.9830855 C0.382686361,21.704834 1.56893631,23.1668391 3.16946452,23.6216211 L3.16946452,28.2505273 C3.1641345,28.6232194 3.36214441,28.9698788 3.68767238,29.157763 C4.01320034,29.3456472 4.41581231,29.3456472 4.74134027,29.157763 C5.06686824,28.9698788 5.26487815,28.6232194 5.25954813,28.2505273 L5.25954813,23.6216211 C6.86007634,23.1668391 8.04632629,21.704834 8.04632629,19.9830855 C8.04632629,18.2611003 6.8604111,16.7991162 5.25954813,16.3445498 L5.25954813,1.38134127 C5.26542799,1.10167863 5.15642596,0.831602039 4.95743782,0.632796242 C4.75844967,0.433990445 4.48647081,0.323435278 4.20362047,0.326381238 Z M15.3507331,0.326381238 C15.0716585,0.329223807 14.8053257,0.442325381 14.6110708,0.640488168 C14.4168158,0.838650956 14.3107765,1.1054125 14.3165771,1.38134127 L14.3165771,6.01024752 C12.7157145,6.46481386 11.529799,7.92679797 11.529799,9.64878313 C11.529799,11.3705316 12.7160489,12.8325368 14.3165771,13.2873187 L14.3165771,28.2505273 C14.3112471,28.6232194 14.509257,28.9698788 14.834785,29.157763 C15.160313,29.3456472 15.5629249,29.3456472 15.8884529,29.157763 C16.2139809,28.9698788 16.4119908,28.6232194 16.4066608,28.2505273 L16.4066608,13.2873187 C18.007189,12.8325368 19.1934389,11.3705316 19.1934389,9.64878313 C19.1934389,7.92679797 18.0075237,6.46481386 16.4066608,6.01024752 L16.4066608,1.38134127 C16.4125406,1.10167863 16.3035386,0.831602039 16.1045504,0.632796242 C15.9055623,0.433990445 15.6335834,0.323435278 15.3507331,0.326381238 Z M26.4978457,0.326381238 C26.2187711,0.329223807 25.9524384,0.442325381 25.7581834,0.640488168 C25.5639284,0.838650956 25.4578891,1.1054125 25.4636898,1.38134127 L25.4636898,16.3445498 C23.8628324,16.799109 22.6769116,18.2610717 22.6769116,19.9830855 C22.6769116,21.704834 23.8631616,23.1668391 25.4636898,23.6216211 L25.4636898,28.2505273 C25.4583597,28.6232194 25.6563697,28.9698788 25.9818976,29.157763 C26.3074256,29.3456472 26.7100375,29.3456472 27.0355655,29.157763 C27.3610935,28.9698788 27.5591034,28.6232194 27.5537734,28.2505273 L27.5537734,23.6216211 C29.1543016,23.1668391 30.3405515,21.704834 30.3405515,19.9830855 C30.3405515,18.2610717 29.1546311,16.799109 27.5537734,16.3445498 L27.5537734,1.38134127 C27.5596532,1.10167863 27.4506512,0.831602039 27.2516631,0.632796242 C27.0526749,0.433990445 26.7806961,0.323435278 26.4978457,0.326381238 Z M15.3616189,7.92639941 C16.3359212,7.92639941 17.1033553,8.68528167 17.1033553,9.64878313 C17.1033553,10.6122846 16.3359212,11.3711668 15.3616189,11.3711668 C14.3873171,11.3711668 13.6198826,10.6122846 13.6198826,9.64878313 C13.6198826,8.68528167 14.3873171,7.92639941 15.3616189,7.92639941 Z M4.21450632,18.2607017 C5.18880856,18.2607017 5.95624267,19.019584 5.95624267,19.9830855 C5.95624267,20.9465869 5.18880856,21.7054692 4.21450632,21.7054692 C3.24020444,21.7054692 2.47276998,20.9465869 2.47276998,19.9830855 C2.47276998,19.019584 3.24020444,18.2607017 4.21450632,18.2607017 Z M26.5087316,18.2607017 C27.4830495,18.2607017 28.2504679,19.0195496 28.2504679,19.9830855 C28.2504679,20.9465869 27.4830338,21.7054692 26.5087316,21.7054692 C25.5344297,21.7054692 24.7669952,20.9465869 24.7669952,19.9830855 C24.7669952,19.0195496 25.534414,18.2607017 26.5087316,18.2607017 Z" id="Shape" transform="translate(15.361619, 14.812500) rotate(-270.000000) translate(-15.361619, -14.812500) "></path>
                                </g>
                                <path d="M162.517799,176.036161 C113.392734,176.02815 73.5748062,136.617566 73.5802036,88.0084114 C73.585601,39.3992565 113.412279,-0.00266869756 162.537346,1.32820617e-06 C211.662412,0.00267135397 251.484715,39.4089256 251.484716,88.0180807 C251.428148,136.611583 211.627055,175.988196 162.517799,176.036161 Z M162.517799,38.2753533 C134.754075,38.2753533 112.24713,60.545931 112.24713,88.0180807 C112.24713,115.490231 134.754075,137.760808 162.517799,137.760808 C190.281523,137.760808 212.788469,115.490231 212.788469,88.0180807 C212.756154,60.5591865 190.268127,38.3073287 162.517799,38.2753533 L162.517799,38.2753533 Z" id="Shape" fill="#F98D1B" fill-rule="nonzero"></path>
                                <path d="M134.428384,129.209237 L115.978213,163.045607" id="Shape" stroke="#65C9D5"></path>
                                <path d="M183.819427,205.302989 L144.434139,205.448054" id="Shape" stroke="#65C9D5"></path>
                                <path d="M192.256514,128.193783 L211.769568,161.319335" id="Shape"></path>
                                <path d="M193.792041,126.421405 C196.328586,130.936455 209.032119,152.920142 214.59171,160.535117 C213.007715,161.406722 185.026299,176.435083 184.15317,206.688963 C184.112336,206.764205 144.075758,206.688963 144.075758,206.688963 C143.913495,204.922816 142.526148,178.046529 114.493289,163.015159 C114.467382,162.984084 133.408515,127.73808 133.408515,127.73808 C135.239768,128.288568 168.788091,144.159338 193.792041,126.421405 Z" id="Shape" fill="#FFFFFF" fill-rule="nonzero"></path>
                                <path d="M137.007125,153.778626 L140.18719,164.608016 L143.389649,164.608016 L144.486996,160.798905 C144.778128,159.78019 145.002077,158.78362 145.20363,157.432715 L145.24842,157.432715 C145.472368,158.761474 145.673921,159.735898 145.942659,160.798905 L146.972821,164.608016 L150.17528,164.608016 L153.534504,153.778626 L150.197675,153.778626 L149.257093,158.074948 C149.01075,159.315124 148.786802,160.533153 148.630038,161.773329 L148.585248,161.773329 C148.3613,160.533153 148.070167,159.315124 147.779035,158.097094 L146.681688,153.778626 L143.99431,153.778626 L142.829779,158.22997 C142.561041,159.292978 142.247514,160.533153 142.023565,161.773329 L141.978776,161.773329 C141.799617,160.533153 141.575669,159.33727 141.351721,158.207824 L140.478323,153.778626 L137.007125,153.778626 Z" id="w" fill="#77A240"></path>
                                <path d="M154.736359,153.778626 L157.916424,164.608016 L161.118883,164.608016 L162.21623,160.798905 C162.507362,159.78019 162.731311,158.78362 162.932864,157.432715 L162.977654,157.432715 C163.201602,158.761474 163.403155,159.735898 163.671893,160.798905 L164.702055,164.608016 L167.904515,164.608016 L171.263738,153.778626 L167.926909,153.778626 L166.986327,158.074948 C166.739984,159.315124 166.516036,160.533153 166.359272,161.773329 L166.314482,161.773329 C166.090534,160.533153 165.799401,159.315124 165.508269,158.097094 L164.410922,153.778626 L161.723544,153.778626 L160.559013,158.22997 C160.290275,159.292978 159.976748,160.533153 159.752799,161.773329 L159.70801,161.773329 C159.528851,160.533153 159.304903,159.33727 159.080955,158.207824 L158.207557,153.778626 L154.736359,153.778626 Z" id="w" fill="#77A240"></path>
                                <path d="M172.465593,153.778626 L175.645658,164.608016 L178.848118,164.608016 L179.945464,160.798905 C180.236596,159.78019 180.460545,158.78362 180.662098,157.432715 L180.706888,157.432715 C180.930836,158.761474 181.132389,159.735898 181.401127,160.798905 L182.431289,164.608016 L185.633749,164.608016 L188.992972,153.778626 L185.656143,153.778626 L184.715561,158.074948 C184.469218,159.315124 184.24527,160.533153 184.088506,161.773329 L184.043716,161.773329 C183.819768,160.533153 183.528635,159.315124 183.237503,158.097094 L182.140156,153.778626 L179.452778,153.778626 L178.288247,158.22997 C178.019509,159.292978 177.705982,160.533153 177.482033,161.773329 L177.437244,161.773329 C177.258085,160.533153 177.034137,159.33727 176.810189,158.207824 L175.936791,153.778626 L172.465593,153.778626 Z" id="w" fill="#77A240"></path>
                            </g>
                        </g>
                    </g>
                </g>
                <path d="M269.894531,102.464844 L270.492188,102.464844 C271.050784,102.464844 271.468749,102.354493 271.746094,102.133789 C272.023439,101.913085 272.162109,101.591799 272.162109,101.169922 C272.162109,100.744138 272.0459,100.429689 271.813477,100.226562 C271.581054,100.023436 271.216799,99.921875 270.720703,99.921875 L269.894531,99.921875 L269.894531,102.464844 Z M273.996094,101.105469 C273.996094,102.027348 273.708011,102.732419 273.131836,103.220703 C272.555661,103.708987 271.736333,103.953125 270.673828,103.953125 L269.894531,103.953125 L269.894531,107 L268.078125,107 L268.078125,98.4335938 L270.814453,98.4335938 C271.853521,98.4335938 272.643552,98.6572243 273.18457,99.1044922 C273.725589,99.55176 273.996094,100.218746 273.996094,101.105469 Z M278.667368,100.326172 C278.909556,100.326172 279.110726,100.34375 279.270883,100.378906 L279.136118,102.054688 C278.991586,102.015625 278.815806,101.996094 278.608774,101.996094 C278.038459,101.996094 277.594127,102.142577 277.275766,102.435547 C276.957405,102.728517 276.798227,103.138669 276.798227,103.666016 L276.798227,107 L275.011118,107 L275.011118,100.449219 L276.364633,100.449219 L276.628305,101.550781 L276.716196,101.550781 C276.919322,101.183592 277.193733,100.887696 277.539438,100.663086 C277.885143,100.438475 278.261116,100.326172 278.667368,100.326172 Z M281.182392,103.712891 C281.182392,104.361331 281.288836,104.851561 281.501728,105.183594 C281.714619,105.515627 282.061296,105.681641 282.541767,105.681641 C283.018332,105.681641 283.361102,105.516603 283.570087,105.186523 C283.779072,104.856444 283.883564,104.365238 283.883564,103.712891 C283.883564,103.06445 283.778096,102.578127 283.567157,102.253906 C283.356219,101.929686 283.010519,101.767578 282.530048,101.767578 C282.053483,101.767578 281.709737,101.928709 281.498798,102.250977 C281.287859,102.573244 281.182392,103.060544 281.182392,103.712891 Z M285.711689,103.712891 C285.711689,104.779302 285.430441,105.613278 284.867939,106.214844 C284.305436,106.816409 283.522241,107.117188 282.518329,107.117188 C281.88942,107.117188 281.334738,106.979494 280.854267,106.704102 C280.373796,106.42871 280.004659,106.033206 279.746845,105.517578 C279.489031,105.001951 279.360126,104.400394 279.360126,103.712891 C279.360126,102.642573 279.63942,101.81055 280.198017,101.216797 C280.756613,100.623044 281.541762,100.326172 282.553486,100.326172 C283.182395,100.326172 283.737077,100.462889 284.217548,100.736328 C284.698019,101.009767 285.067156,101.402341 285.32497,101.914062 C285.582784,102.425784 285.711689,103.025387 285.711689,103.712891 Z M291.297025,105.054688 C291.297025,105.726566 291.063629,106.238279 290.59683,106.589844 C290.130031,106.941408 289.431795,107.117188 288.502103,107.117188 C288.025538,107.117188 287.619292,107.084961 287.283353,107.020508 C286.947414,106.956054 286.632964,106.861329 286.339994,106.736328 L286.339994,105.259766 C286.672027,105.416016 287.046046,105.546874 287.462064,105.652344 C287.878082,105.757813 288.244289,105.810547 288.560697,105.810547 C289.209138,105.810547 289.533353,105.623049 289.533353,105.248047 C289.533353,105.107421 289.490385,104.993165 289.404447,104.905273 C289.318509,104.817382 289.170073,104.717774 288.959135,104.606445 C288.748196,104.495117 288.466949,104.365235 288.115385,104.216797 C287.611476,104.005858 287.241362,103.810548 287.005033,103.630859 C286.768704,103.451171 286.59683,103.245118 286.489408,103.012695 C286.381986,102.780272 286.328275,102.494142 286.328275,102.154297 C286.328275,101.572263 286.553859,101.122072 287.005033,100.803711 C287.456207,100.48535 288.095849,100.326172 288.923978,100.326172 C289.713045,100.326172 290.480615,100.498045 291.226713,100.841797 L290.68765,102.130859 C290.359523,101.990234 290.052886,101.875 289.767728,101.785156 C289.482571,101.695312 289.191558,101.650391 288.894681,101.650391 C288.367335,101.650391 288.103666,101.792967 288.103666,102.078125 C288.103666,102.238282 288.188626,102.376953 288.358549,102.494141 C288.528471,102.611329 288.900538,102.785155 289.47476,103.015625 C289.986481,103.222657 290.361477,103.416015 290.59976,103.595703 C290.838042,103.775392 291.013821,103.982421 291.127103,104.216797 C291.240385,104.451173 291.297025,104.730467 291.297025,105.054688 Z M294.989783,105.693359 C295.302285,105.693359 295.677281,105.625001 296.114783,105.488281 L296.114783,106.818359 C295.669469,107.017579 295.122599,107.117188 294.474158,107.117188 C293.759311,107.117188 293.238809,106.936525 292.912635,106.575195 C292.586462,106.213865 292.423377,105.671879 292.423377,104.949219 L292.423377,101.791016 L291.567908,101.791016 L291.567908,101.035156 L292.552283,100.4375 L293.067908,99.0546875 L294.210487,99.0546875 L294.210487,100.449219 L296.044471,100.449219 L296.044471,101.791016 L294.210487,101.791016 L294.210487,104.949219 C294.210487,105.203126 294.281775,105.390624 294.424354,105.511719 C294.566933,105.632813 294.755407,105.693359 294.989783,105.693359 Z M301.13762,107 L300.791917,106.109375 L300.745042,106.109375 C300.444259,106.488283 300.134692,106.750976 299.816331,106.897461 C299.49797,107.043946 299.082935,107.117188 298.571214,107.117188 C297.942304,107.117188 297.447192,106.937502 297.085862,106.578125 C296.724532,106.218748 296.54387,105.707035 296.54387,105.042969 C296.54387,104.347653 296.787032,103.834963 297.273362,103.504883 C297.759693,103.174803 298.493084,102.992188 299.473557,102.957031 L300.610276,102.921875 L300.610276,102.634766 C300.610276,101.9707 300.270436,101.638672 299.590745,101.638672 C299.067305,101.638672 298.452077,101.796873 297.745042,102.113281 L297.153245,100.90625 C297.907155,100.511717 298.743084,100.314453 299.661057,100.314453 C300.539968,100.314453 301.21379,100.505857 301.682542,100.888672 C302.151294,101.271486 302.385667,101.853512 302.385667,102.634766 L302.385667,107 L301.13762,107 Z M300.610276,103.964844 L299.91887,103.988281 C299.399336,104.003906 299.012621,104.097655 298.758714,104.269531 C298.504806,104.441407 298.377854,104.703123 298.377854,105.054688 C298.377854,105.558596 298.666914,105.810547 299.245042,105.810547 C299.659106,105.810547 299.990158,105.691407 300.238206,105.453125 C300.486254,105.214843 300.610276,104.898439 300.610276,104.503906 L300.610276,103.964844 Z" id="Prosta" fill="#4E4E4E"></path>
                <path d="M191.011719,230 L186.078125,230 L186.078125,221.433594 L191.011719,221.433594 L191.011719,222.921875 L187.894531,222.921875 L187.894531,224.802734 L190.794922,224.802734 L190.794922,226.291016 L187.894531,226.291016 L187.894531,228.5 L191.011719,228.5 L191.011719,230 Z M193.983774,230 L192.196665,230 L192.196665,220.882812 L193.983774,220.882812 L193.983774,230 Z M199.557392,230 L199.211689,229.109375 L199.164814,229.109375 C198.864031,229.488283 198.554464,229.750976 198.236103,229.897461 C197.917742,230.043946 197.502707,230.117188 196.990986,230.117188 C196.362076,230.117188 195.866964,229.937502 195.505634,229.578125 C195.144304,229.218748 194.963642,228.707035 194.963642,228.042969 C194.963642,227.347653 195.206803,226.834963 195.693134,226.504883 C196.179464,226.174803 196.912856,225.992188 197.893329,225.957031 L199.030048,225.921875 L199.030048,225.634766 C199.030048,224.9707 198.690208,224.638672 198.010517,224.638672 C197.487077,224.638672 196.871848,224.796873 196.164814,225.113281 L195.573017,223.90625 C196.326927,223.511717 197.162856,223.314453 198.080829,223.314453 C198.95974,223.314453 199.633561,223.505857 200.102314,223.888672 C200.571066,224.271486 200.805439,224.853512 200.805439,225.634766 L200.805439,230 L199.557392,230 Z M199.030048,226.964844 L198.338642,226.988281 C197.819108,227.003906 197.432393,227.097655 197.178486,227.269531 C196.924578,227.441407 196.797626,227.703123 196.797626,228.054688 C196.797626,228.558596 197.086686,228.810547 197.664814,228.810547 C198.078878,228.810547 198.40993,228.691407 198.657978,228.453125 C198.906026,228.214843 199.030048,227.898439 199.030048,227.503906 L199.030048,226.964844 Z M206.754056,228.054688 C206.754056,228.726566 206.52066,229.238279 206.053861,229.589844 C205.587062,229.941408 204.888827,230.117188 203.959135,230.117188 C203.48257,230.117188 203.076324,230.084961 202.740385,230.020508 C202.404445,229.956054 202.089995,229.861329 201.797025,229.736328 L201.797025,228.259766 C202.129058,228.416016 202.503078,228.546874 202.919095,228.652344 C203.335113,228.757813 203.70132,228.810547 204.017728,228.810547 C204.666169,228.810547 204.990385,228.623049 204.990385,228.248047 C204.990385,228.107421 204.947416,227.993165 204.861478,227.905273 C204.77554,227.817382 204.627104,227.717774 204.416166,227.606445 C204.205227,227.495117 203.92398,227.365235 203.572416,227.216797 C203.068507,227.005858 202.698393,226.810548 202.462064,226.630859 C202.225735,226.451171 202.053862,226.245118 201.946439,226.012695 C201.839017,225.780272 201.785306,225.494142 201.785306,225.154297 C201.785306,224.572263 202.01089,224.122072 202.462064,223.803711 C202.913238,223.48535 203.55288,223.326172 204.38101,223.326172 C205.170076,223.326172 205.937646,223.498045 206.683744,223.841797 L206.144681,225.130859 C205.816555,224.990234 205.509917,224.875 205.22476,224.785156 C204.939602,224.695312 204.648589,224.650391 204.351713,224.650391 C203.824366,224.650391 203.560697,224.792967 203.560697,225.078125 C203.560697,225.238282 203.645657,225.376953 203.81558,225.494141 C203.985503,225.611329 204.357569,225.785155 204.931791,226.015625 C205.443512,226.222657 205.818508,226.416015 206.056791,226.595703 C206.295073,226.775392 206.470853,226.982421 206.584135,227.216797 C206.697416,227.451173 206.754056,227.730467 206.754056,228.054688 Z M210.446815,228.693359 C210.759316,228.693359 211.134313,228.625001 211.571815,228.488281 L211.571815,229.818359 C211.1265,230.017579 210.57963,230.117188 209.93119,230.117188 C209.216342,230.117188 208.69584,229.936525 208.369666,229.575195 C208.043493,229.213865 207.880408,228.671879 207.880408,227.949219 L207.880408,224.791016 L207.02494,224.791016 L207.02494,224.035156 L208.009315,223.4375 L208.52494,222.054688 L209.667518,222.054688 L209.667518,223.449219 L211.501502,223.449219 L211.501502,224.791016 L209.667518,224.791016 L209.667518,227.949219 C209.667518,228.203126 209.738806,228.390624 209.881385,228.511719 C210.023964,228.632813 210.212439,228.693359 210.446815,228.693359 Z M211.496995,223.449219 L213.454026,223.449219 L214.690354,227.134766 C214.795824,227.45508 214.868089,227.833982 214.907151,228.271484 L214.942307,228.271484 C214.985276,227.869139 215.06926,227.490236 215.194261,227.134766 L216.407151,223.449219 L218.323167,223.449219 L215.551682,230.837891 C215.297775,231.521488 214.935474,232.033201 214.464768,232.373047 C213.994063,232.712892 213.444264,232.882812 212.815354,232.882812 C212.506759,232.882812 212.204028,232.84961 211.907151,232.783203 L211.907151,231.365234 C212.121996,231.416016 212.356369,231.441406 212.610276,231.441406 C212.926684,231.441406 213.203049,231.344728 213.439378,231.151367 C213.675707,230.958007 213.860276,230.666018 213.993089,230.275391 L214.098557,229.953125 L211.496995,223.449219 Z M221.459285,230.117188 C219.420212,230.117188 218.400691,228.998058 218.400691,226.759766 C218.400691,225.646479 218.678032,224.795901 219.232722,224.208008 C219.787412,223.620114 220.582326,223.326172 221.617488,223.326172 C222.375304,223.326172 223.054985,223.474608 223.65655,223.771484 L223.129207,225.154297 C222.847955,225.041015 222.586239,224.948243 222.34405,224.875977 C222.101862,224.803711 221.859676,224.767578 221.617488,224.767578 C220.687796,224.767578 220.222957,225.427728 220.222957,226.748047 C220.222957,228.029303 220.687796,228.669922 221.617488,228.669922 C221.961239,228.669922 222.279596,228.624024 222.572566,228.532227 C222.865536,228.440429 223.158502,228.296876 223.451472,228.101562 L223.451472,229.630859 C223.162408,229.814454 222.870419,229.941406 222.575496,230.011719 C222.280572,230.082032 221.908506,230.117188 221.459285,230.117188 Z M229.066105,230 L223.892277,230 L223.892277,228.945312 L226.927434,224.814453 L224.073918,224.814453 L224.073918,223.449219 L228.960637,223.449219 L228.960637,224.609375 L226.007512,228.634766 L229.066105,228.634766 L229.066105,230 Z M235.946364,230 L234.159254,230 L234.159254,226.173828 C234.159254,225.70117 234.075271,225.346681 233.907301,225.110352 C233.739332,224.874022 233.471756,224.755859 233.104567,224.755859 C232.604564,224.755859 232.24324,224.92285 232.020583,225.256836 C231.797925,225.590822 231.686598,226.144527 231.686598,226.917969 L231.686598,230 L229.899489,230 L229.899489,223.449219 L231.264723,223.449219 L231.504958,224.287109 L231.604567,224.287109 C231.803787,223.970702 232.078198,223.731446 232.427809,223.569336 C232.77742,223.407226 233.174877,223.326172 233.620192,223.326172 C234.381915,223.326172 234.960034,223.532225 235.354567,223.944336 C235.7491,224.356447 235.946364,224.951168 235.946364,225.728516 L235.946364,230 Z M241.484825,230 L241.139122,229.109375 L241.092247,229.109375 C240.791464,229.488283 240.481897,229.750976 240.163536,229.897461 C239.845175,230.043946 239.43014,230.117188 238.918419,230.117188 C238.28951,230.117188 237.794397,229.937502 237.433068,229.578125 C237.071738,229.218748 236.891075,228.707035 236.891075,228.042969 C236.891075,227.347653 237.134237,226.834963 237.620568,226.504883 C238.106898,226.174803 238.840289,225.992188 239.820763,225.957031 L240.957482,225.921875 L240.957482,225.634766 C240.957482,224.9707 240.617641,224.638672 239.93795,224.638672 C239.41451,224.638672 238.799282,224.796873 238.092247,225.113281 L237.50045,223.90625 C238.25436,223.511717 239.09029,223.314453 240.008263,223.314453 C240.887174,223.314453 241.560995,223.505857 242.029747,223.888672 C242.4985,224.271486 242.732872,224.853512 242.732872,225.634766 L242.732872,230 L241.484825,230 Z M240.957482,226.964844 L240.266075,226.988281 C239.746542,227.003906 239.359827,227.097655 239.105919,227.269531 C238.852012,227.441407 238.72506,227.703123 238.72506,228.054688 C238.72506,228.558596 239.014119,228.810547 239.592247,228.810547 C240.006312,228.810547 240.337363,228.691407 240.585411,228.453125 C240.833459,228.214843 240.957482,227.898439 240.957482,227.503906 L240.957482,226.964844 Z" id="Elastyczna" fill="#4E4E4E"></path>
                <path d="M342.662109,230 L336.287109,230 L336.287109,228.822266 L340.394531,222.933594 L336.398438,222.933594 L336.398438,221.433594 L342.550781,221.433594 L342.550781,222.605469 L338.449219,228.5 L342.662109,228.5 L342.662109,230 Z M347.585336,230 L347.239633,229.109375 L347.192758,229.109375 C346.891976,229.488283 346.582408,229.750976 346.264047,229.897461 C345.945686,230.043946 345.530652,230.117188 345.01893,230.117188 C344.390021,230.117188 343.894909,229.937502 343.533579,229.578125 C343.172249,229.218748 342.991586,228.707035 342.991586,228.042969 C342.991586,227.347653 343.234748,226.834963 343.721079,226.504883 C344.207409,226.174803 344.9408,225.992188 345.921274,225.957031 L347.057993,225.921875 L347.057993,225.634766 C347.057993,224.9707 346.718152,224.638672 346.038461,224.638672 C345.515021,224.638672 344.899793,224.796873 344.192758,225.113281 L343.600961,223.90625 C344.354872,223.511717 345.190801,223.314453 346.108774,223.314453 C346.987685,223.314453 347.661506,223.505857 348.130258,223.888672 C348.599011,224.271486 348.833383,224.853512 348.833383,225.634766 L348.833383,230 L347.585336,230 Z M347.057993,226.964844 L346.366586,226.988281 C345.847053,227.003906 345.460338,227.097655 345.20643,227.269531 C344.952523,227.441407 344.825571,227.703123 344.825571,228.054688 C344.825571,228.558596 345.11463,228.810547 345.692758,228.810547 C346.106823,228.810547 346.437874,228.691407 346.685922,228.453125 C346.933971,228.214843 347.057993,227.898439 347.057993,227.503906 L347.057993,226.964844 Z M354.852314,230 L354.612079,229.162109 L354.518329,229.162109 C354.326922,229.466798 354.05544,229.702148 353.703876,229.868164 C353.352312,230.034181 352.951925,230.117188 352.502704,230.117188 C351.733169,230.117188 351.153097,229.911135 350.76247,229.499023 C350.371843,229.086912 350.176532,228.494144 350.176532,227.720703 L350.176532,223.449219 L351.963642,223.449219 L351.963642,227.275391 C351.963642,227.748049 352.047625,228.102538 352.215595,228.338867 C352.383564,228.575196 352.65114,228.693359 353.018329,228.693359 C353.518332,228.693359 353.879656,228.526369 354.102314,228.192383 C354.324971,227.858397 354.436298,227.304691 354.436298,226.53125 L354.436298,223.449219 L356.223407,223.449219 L356.223407,230 L354.852314,230 Z M361.257963,224.791016 L359.711088,224.791016 L359.711088,230 L357.923978,230 L357.923978,224.791016 L356.939603,224.791016 L356.939603,223.929688 L357.923978,223.449219 L357.923978,222.96875 C357.923978,222.222653 358.10757,221.677736 358.47476,221.333984 C358.841949,220.990233 359.429834,220.818359 360.238431,220.818359 C360.855622,220.818359 361.404445,220.910155 361.884916,221.09375 L361.427885,222.40625 C361.068508,222.292968 360.73648,222.236328 360.431791,222.236328 C360.177883,222.236328 359.994291,222.311523 359.88101,222.461914 C359.767728,222.612305 359.711088,222.804686 359.711088,223.039062 L359.711088,223.449219 L361.257963,223.449219 L361.257963,224.791016 Z M365.981971,230 L365.636268,229.109375 L365.589393,229.109375 C365.28861,229.488283 364.979043,229.750976 364.660682,229.897461 C364.342321,230.043946 363.927286,230.117188 363.415565,230.117188 C362.786655,230.117188 362.291543,229.937502 361.930213,229.578125 C361.568883,229.218748 361.388221,228.707035 361.388221,228.042969 C361.388221,227.347653 361.631383,226.834963 362.117713,226.504883 C362.604044,226.174803 363.337435,225.992188 364.317908,225.957031 L365.454627,225.921875 L365.454627,225.634766 C365.454627,224.9707 365.114787,224.638672 364.435096,224.638672 C363.911656,224.638672 363.296428,224.796873 362.589393,225.113281 L361.997596,223.90625 C362.751506,223.511717 363.587435,223.314453 364.505408,223.314453 C365.384319,223.314453 366.058141,223.505857 366.526893,223.888672 C366.995645,224.271486 367.230018,224.853512 367.230018,225.634766 L367.230018,230 L365.981971,230 Z M365.454627,226.964844 L364.763221,226.988281 C364.243687,227.003906 363.856972,227.097655 363.603065,227.269531 C363.349157,227.441407 363.222205,227.703123 363.222205,228.054688 C363.222205,228.558596 363.511265,228.810547 364.089393,228.810547 C364.503457,228.810547 364.834509,228.691407 365.082557,228.453125 C365.330605,228.214843 365.454627,227.898439 365.454627,227.503906 L365.454627,226.964844 Z M374.655198,230 L372.868089,230 L372.868089,226.173828 C372.868089,225.70117 372.784105,225.346681 372.616136,225.110352 C372.448166,224.874022 372.180591,224.755859 371.813401,224.755859 C371.313399,224.755859 370.952074,224.92285 370.729417,225.256836 C370.50676,225.590822 370.395432,226.144527 370.395432,226.917969 L370.395432,230 L368.608323,230 L368.608323,223.449219 L369.973557,223.449219 L370.213792,224.287109 L370.313401,224.287109 C370.512621,223.970702 370.787032,223.731446 371.136643,223.569336 C371.486255,223.407226 371.883712,223.326172 372.329026,223.326172 C373.090749,223.326172 373.668868,223.532225 374.063401,223.944336 C374.457934,224.356447 374.655198,224.951168 374.655198,225.728516 L374.655198,230 Z M380.19366,230 L379.847957,229.109375 L379.801082,229.109375 C379.500299,229.488283 379.190732,229.750976 378.872371,229.897461 C378.55401,230.043946 378.138975,230.117188 377.627253,230.117188 C376.998344,230.117188 376.503232,229.937502 376.141902,229.578125 C375.780572,229.218748 375.59991,228.707035 375.59991,228.042969 C375.59991,227.347653 375.843071,226.834963 376.329402,226.504883 C376.815732,226.174803 377.549123,225.992188 378.529597,225.957031 L379.666316,225.921875 L379.666316,225.634766 C379.666316,224.9707 379.326476,224.638672 378.646785,224.638672 C378.123345,224.638672 377.508116,224.796873 376.801082,225.113281 L376.209285,223.90625 C376.963195,223.511717 377.799124,223.314453 378.717097,223.314453 C379.596008,223.314453 380.269829,223.505857 380.738582,223.888672 C381.207334,224.271486 381.441707,224.853512 381.441707,225.634766 L381.441707,230 L380.19366,230 Z M379.666316,226.964844 L378.97491,226.988281 C378.455376,227.003906 378.068661,227.097655 377.814753,227.269531 C377.560846,227.441407 377.433894,227.703123 377.433894,228.054688 C377.433894,228.558596 377.722954,228.810547 378.301082,228.810547 C378.715146,228.810547 379.046197,228.691407 379.294246,228.453125 C379.542294,228.214843 379.666316,227.898439 379.666316,227.503906 L379.666316,226.964844 Z" id="Zaufana" fill="#4E4E4E"></path>
            </g>
        </g>
    </g>
</svg>