<?xml version="1.0" encoding="UTF-8" standalone="no"?>
<svg width="330px" height="300px" viewBox="0 0 330 300" version="1.1" xmlns="http://www.w3.org/2000/svg" xmlns:xlink="http://www.w3.org/1999/xlink">
    <!-- Generator: Sketch 45.1 (43504) - http://www.bohemiancoding.com/sketch -->
    <title>Translations-Domains-no</title>
    <desc>Created with Sketch.</desc>
    <defs></defs>
    <g id="SVG" stroke="none" stroke-width="1" fill="none" fill-rule="evenodd">
        <g id="Translations-Domains-NO" transform="translate(-220.000000, 0.000000)">
            <g id="Translations-Domains-no" transform="translate(100.000000, 0.000000)">
                <g id="Domains-SVG">
                    <g id="Clouds" transform="translate(130.449438, 0.000000)" fill="#FFFFFF">
                        <path d="M88.7323253,8.41673731 C81.5584234,2.91036647 72.9774073,0 63.9169189,0 C55.6714209,0 47.7247028,2.45112932 40.9363655,7.08824983 C34.6411837,11.3880744 29.7276241,17.2811516 26.6670992,24.184998 C19.7040676,24.7078161 13.2285682,27.725021 8.32325602,32.7592893 C3.12328773,38.0961731 0.259387661,45.1189775 0.259387661,52.5342683 C0.259387661,59.9844261 3.14634288,67.031283 8.38848524,72.3769302 C13.6206933,77.7125088 20.6120283,80.7595463 28.0740259,80.9564422 C28.1229479,80.957188 95.1290998,80.9404071 98.0392976,80.9376103 C104.973276,80.6092641 111.364427,77.7033725 116.123161,72.7530087 C120.897827,67.7860504 123.52724,61.2739446 123.52724,54.4165253 C123.52724,41.9843064 114.879682,31.2803331 102.803092,28.5353517 C100.336191,20.622787 95.3718349,13.5129085 88.7323253,8.41673731 Z" id="Cloud" transform="translate(61.893314, 40.478233) scale(-1, 1) translate(-61.893314, -40.478233) "></path>
                        <path d="M275.960372,19.2809476 C271.459221,15.826063 266.0752,14 260.390341,14 C255.216835,14 250.230793,15.537922 245.971559,18.4474093 C242.021748,21.1452656 238.938813,24.8427829 237.018536,29.1744912 C232.649692,29.5025251 228.586744,31.3956221 225.508984,34.5542935 C222.246347,37.9028361 220.449438,42.3091827 220.449438,46.9617886 C220.449438,51.6362713 222.260812,56.0577093 225.549911,59.4117503 C228.832776,62.759474 233.219378,64.6712891 237.901289,64.7948282 C237.931985,64.7952962 279.973926,64.7847673 281.799883,64.7830125 C286.150497,64.5769969 290.160523,62.7537416 293.146315,59.6477148 C296.142103,56.531276 297.791886,52.4453591 297.791886,48.1427807 C297.791886,40.3423833 292.366114,33.6263461 284.78885,31.9040512 C283.241032,26.9394388 280.126226,22.4784589 275.960372,19.2809476 Z" id="Cloud" transform="translate(259.120662, 39.397422) scale(-1, 1) translate(-259.120662, -39.397422) "></path>
                    </g>
                    <g id="DOMAINS-TOP-IMG-EN" transform="translate(120.337079, 0.000000)">
                        <g id="domains">
                            <g id="Layer_1">
                                <ellipse id="Oval" fill="#F8F2EA" fill-rule="nonzero" cx="92.0918639" cy="208.209777" rx="54.6761336" ry="53.2097767"></ellipse>
                                <g id="flexible" transform="translate(63.707865, 179.000000)" fill-rule="nonzero" fill="#77A240">
                                    <path d="M30.64467,13.1561719 L31.8954729,14.3930769 L21.6047766,14.3930769 C21.1499392,14.3930769 20.7519565,14.7866376 20.7519565,15.2364213 C20.7519565,15.6862049 21.1499392,16.0797656 21.6047766,16.0797656 L31.8954729,16.0797656 L30.64467,17.3166707 C30.303542,17.6540084 30.303542,18.160015 30.64467,18.4973528 C30.815234,18.6660216 31.0426527,18.7222446 31.2700714,18.7222446 C31.4974901,18.7222446 31.7249088,18.6660216 31.8954729,18.4973528 L35.193044,15.2364213 L31.8954729,11.9754898 C31.5543448,11.638152 31.0426527,11.638152 30.7015247,11.9754898 C30.3603966,12.3128275 30.303542,12.8750571 30.64467,13.1561719 Z" id="Shape"></path>
                                    <path d="M53.1022668,11.9754898 C52.7611387,11.638152 52.2494466,11.638152 51.9083186,11.9754898 C51.5671905,12.3128275 51.5671905,12.8188341 51.9083186,13.1561719 L53.1591214,14.3930769 L48.6107474,14.3930769 C45.9385777,14.3930769 43.7781,12.2566046 43.7781,9.6141256 C43.7781,6.07207933 40.8785116,3.14848558 37.2398124,3.14848558 L35.6478814,3.14848558 C35.193044,3.14848558 34.7950613,3.54204627 34.7950613,3.99182993 C34.7950613,4.44161358 35.193044,4.83517428 35.6478814,4.83517428 L37.2398124,4.83517428 C39.9119821,4.83517428 42.0724598,6.97164663 42.0724598,9.6141256 C42.0724598,11.5257061 42.9252799,13.2123948 44.2329374,14.3930769 L42.9821346,14.3930769 C39.40029,14.3930769 36.4438469,17.2604477 36.4438469,20.8587169 C36.4438469,23.5011959 34.2833692,25.6376683 31.6111995,25.6376683 L29.8487046,25.6376683 C29.3938672,25.6376683 28.9958844,26.031229 28.9958844,26.4810126 C28.9958844,26.9307963 29.3938672,27.324357 29.8487046,27.324357 L31.6111995,27.324357 C35.193044,27.324357 38.1494872,24.4569862 38.1494872,20.8587169 C38.1494872,18.216238 40.3099648,16.0797656 42.9821346,16.0797656 L48.6107474,16.0797656 L53.1591214,16.0797656 L51.9083186,17.3166707 C51.5671905,17.6540084 51.5671905,18.160015 51.9083186,18.4973528 C52.0788826,18.6660216 52.3063013,18.7222446 52.53372,18.7222446 C52.7611387,18.7222446 52.9885574,18.6660216 53.1591214,18.4973528 L56.4566926,15.2364213 L53.1022668,11.9754898 Z" id="Shape"></path>
                                    <path d="M9.89271351,16.0797656 L12.8491566,16.0797656 C16.4310012,16.0797656 19.3874443,13.2123948 19.3874443,9.6141256 C19.3874443,6.97164663 21.547922,4.83517428 24.2200917,4.83517428 L27.7450816,4.83517428 L26.4942787,6.07207933 C26.1531507,6.40941707 26.1531507,6.91542368 26.4942787,7.25276142 C26.6648427,7.42143029 26.8922614,7.47765325 27.1196801,7.47765325 C27.3470988,7.47765325 27.5745175,7.42143029 27.7450816,7.25276142 L31.0426527,3.99182993 L27.7450816,0.730898438 C27.4039535,0.393560697 26.8922614,0.393560697 26.5511334,0.730898438 C26.2100053,1.06823618 26.2100053,1.57424279 26.5511334,1.91158053 L27.8019362,3.14848558 L24.2769464,3.14848558 C20.6951018,3.14848558 17.7386587,6.01585637 17.7386587,9.6141256 C17.7386587,12.2566046 15.578181,14.3930769 12.9060113,14.3930769 L9.94956819,14.3930769 C9.49473078,14.3930769 9.09674806,14.7866376 9.09674806,15.2364213 C9.09674806,15.6862049 9.43787611,16.0797656 9.89271351,16.0797656 Z" id="Shape"></path>
                                    <path d="M20.9793752,23.2200811 C20.6382472,23.5574189 20.6382472,24.0634255 20.9793752,24.4007632 L22.2301781,25.6376683 L12.8491566,25.6376683 C10.1769869,25.6376683 8.01650922,23.5011959 8.01650922,20.8587169 C8.01650922,17.3166707 5.11692078,14.3930769 1.47822156,14.3930769 L1.30765753,14.3930769 C0.85282013,14.3930769 0.454837403,14.7866376 0.454837403,15.2364213 C0.454837403,15.6862049 0.85282013,16.0797656 1.30765753,16.0797656 L1.47822156,16.0797656 C4.1503913,16.0797656 6.31086896,18.216238 6.31086896,20.8587169 C6.31086896,24.4007632 9.21045741,27.324357 12.8491566,27.324357 L22.2301781,27.324357 L20.9793752,28.561262 C20.6382472,28.8985998 20.6382472,29.4046064 20.9793752,29.7419441 C21.1499392,29.910613 21.3773579,29.9668359 21.6047766,29.9668359 C21.8321953,29.9668359 22.059614,29.910613 22.2301781,29.7419441 L25.5277492,26.4810126 L22.1733234,23.2200811 C21.8321953,22.8827434 21.3205033,22.8827434 20.9793752,23.2200811 Z" id="Shape"></path>
                                </g>
                                <ellipse id="Oval" fill="#F8F2EA" fill-rule="nonzero" cx="237.709841" cy="208.209777" rx="54.6761336" ry="53.2097767"></ellipse>
                                <g id="trusted" transform="translate(214.382022, 181.000000)" fill-rule="nonzero" fill="#77A240">
                                    <path d="M37.7662878,17.2620338 C37.7874014,17.2363871 37.7950488,17.2212622 37.7950488,17.2212622 L36.1945732,16.1987675 C36.3180959,16.0097059 36.8395348,15.3481545 38.3619567,14.7742291 C39.4293561,14.3718566 40.5768042,14.3527038 42.0294848,14.3283724 C42.5591529,14.3194947 43.1593937,14.3094662 43.805519,14.2788054 C44.3308647,14.2532409 44.7776579,14.6547914 44.8029277,15.1744644 C44.8282806,15.6942195 44.4227171,16.1358017 43.8972051,16.1607908 C43.2214875,16.1929312 42.6052869,16.2032885 42.0618201,16.2123306 C40.7462947,16.2342782 39.7958512,16.2502251 39.0407499,16.5348862 C38.0699409,16.900926 37.7692803,17.2584991 37.7662878,17.2620338 Z" id="Shape"></path>
                                    <path d="M15.5077562,15.9422191 C14.3886535,15.9422191 13.3146873,15.412682 12.5092126,14.4491253 C12.2087182,14.0895793 12.2195244,13.5667828 12.5343993,13.2196491 C13.7823447,11.8442668 13.9004644,10.0790064 13.9864149,8.79009915 C14.0472619,7.88087703 14.0951415,7.16285377 14.527388,6.66956728 C15.0597993,6.06218618 15.7873864,5.62323436 16.6300177,5.11506953 C17.1826281,4.78182783 17.8089699,4.40395114 18.5009798,3.91066464 C19.0938225,3.48807076 19.5878303,3.05511959 20.0656289,2.63655354 C20.9649509,1.84849527 21.7415814,1.16787334 22.7490482,0.982510728 C25.2370422,0.525145943 30.3728783,1.42302437 35.2528577,3.16806337 C36.0447,3.34183568 37.3805078,2.71415101 39.0646897,1.92190051 C39.6912808,1.62721094 40.4015781,1.29314723 41.1734705,0.957603911 C41.6546772,0.748320887 42.2171795,0.964755373 42.4290634,1.44110852 C42.6406979,1.91737947 42.4218316,2.47330292 41.9401261,2.68275034 C41.1943347,3.00678556 40.4976698,3.33451982 39.8830486,3.62361974 C37.7428467,4.63024971 36.1963188,5.35772605 34.7376532,4.98330178 C34.7087259,4.97590372 34.6800481,4.96710824 34.6520352,4.95699755 C29.5151185,3.11348209 24.9507621,2.4940175 23.0975885,2.83506827 C22.6097318,2.92483145 22.0447358,3.42000856 21.3292848,4.04687123 C20.8401813,4.47538356 20.2857421,4.96118979 19.6151782,5.43918696 C18.8637344,5.97488902 18.204226,6.37265829 17.6222727,6.72373755 C16.9129728,7.15151007 16.3474781,7.49264305 16.0048396,7.86197086 C15.946237,8.03886681 15.9125716,8.54177079 15.8876344,8.91430443 C15.8017669,10.2003346 15.6775792,12.0594682 14.5284686,13.7475421 C14.836943,13.9518109 15.2352747,14.1028136 15.7065896,14.0458485 C16.7931907,13.9136698 17.9396413,12.7267736 18.9432012,10.6987176 C19.064064,10.2706984 19.5066179,10.0790886 20.039611,9.84818677 C20.3406042,9.71781643 20.7592182,9.54108489 21.2834833,9.32292419 C22.1826391,8.94866433 23.0824598,8.58188474 23.0824598,8.58188474 C23.5688202,8.38386321 24.1259194,8.61295661 24.3263322,9.0938308 C24.526828,9.57486939 24.2950774,10.125532 23.8085508,10.3238823 C22.5413205,10.8405138 21.1420057,11.4224949 20.5824959,11.6706588 C18.9436168,14.9028732 17.1611821,15.7671315 15.9392546,15.9158326 C15.7949507,15.9335058 15.6509794,15.9422191 15.5077562,15.9422191 Z" id="Shape"></path>
                                    <path d="M34.248716,21.3805362 C33.4429919,21.3805362 32.5234707,21.2515633 31.4850817,20.9517773 C28.647633,20.1324006 26.8373516,18.9287355 26.7616254,18.8779354 C26.3264695,18.5855475 26.2132542,17.9995386 26.5089274,17.5692178 C26.8043513,17.1391437 27.3957808,17.0269397 27.8312691,17.3185879 C27.8577026,17.3361788 29.495418,18.4144056 32.0190723,19.1430327 C34.6609295,19.9061842 36.303466,19.2943643 36.7113571,18.4034729 C36.7671335,18.2817336 36.9064498,17.8985139 36.6186734,17.611469 C30.7260735,16.8186431 28.801413,14.6644089 27.2507289,12.9287408 C26.1731883,11.7224453 25.3219121,10.769739 23.2654996,10.3782992 C22.7488819,10.2798227 22.4106491,9.78587863 22.5100658,9.27500118 C22.6096487,8.76412372 23.1091428,8.43071762 23.6257604,8.52796107 C26.3199858,9.04089354 27.5191373,10.3832312 28.6788047,11.6811805 C30.180778,13.3623496 31.7338728,15.1007303 37.1148425,15.7755982 C37.2539926,15.7930248 37.3875734,15.840619 37.5058593,15.9150106 C38.6198914,16.6150319 39.0070845,17.9577806 38.4474085,19.1805163 C37.9245565,20.322202 36.5550833,21.3805362 34.248716,21.3805362 Z" id="Shape"></path>
                                    <path d="M31.8775116,25.2163505 C31.4059474,25.2163505 30.8946497,25.1549465 30.3443667,25.0173425 C27.1246293,24.2120221 24.619096,22.4182381 24.5139438,22.3422846 C24.0891785,22.0352649 23.996578,21.4457214 24.3071304,21.0256758 C24.6175998,20.6058767 25.2129362,20.5143051 25.6377014,20.820585 L25.6377014,20.820585 C25.6606437,20.8370251 27.9618574,22.4778336 30.8116085,23.190596 C32.3886431,23.5848306 33.375495,23.0795428 33.7731617,22.4749566 C34.0576963,22.0424164 34.0562832,21.5684471 33.7695874,21.2071749 C33.4447375,20.7978154 33.5169726,20.2055592 33.9308486,19.8843188 C34.345057,19.5632428 34.9438846,19.6345108 35.2685682,20.0437882 C36.0579168,21.0385813 36.0979827,22.3960439 35.3705618,23.5021367 C34.7770541,24.404865 33.5919507,25.2163505 31.8775116,25.2163505 Z" id="Shape"></path>
                                    <path d="M28.4662558,28.0934577 C28.1685045,28.0934577 27.8664307,28.0636189 27.5643569,28.0026259 C25.6106029,27.6081447 23.2477941,26.3094556 23.1482112,26.2542989 C22.6889493,26.0002987 22.5248619,25.4262089 22.7816329,24.9722143 C23.0384871,24.5181376 23.6185286,24.3558734 24.0778736,24.609627 L24.0778736,24.609627 C24.0997353,24.6216283 26.2844086,25.8211833 27.9454819,26.1564801 C28.7562765,26.3202239 29.5541038,26.0940897 30.0785351,25.5518116 C30.4062112,25.2128158 30.5688023,24.800497 30.4927436,24.5010398 C30.3644827,23.9964096 30.674204,23.4845458 31.1846704,23.3577923 C31.6940562,23.2309566 32.2125857,23.5372364 32.3407635,24.042031 C32.5797459,24.9824072 32.2489111,26.0336722 31.4557388,26.8539531 C30.6790252,27.6572185 29.6041446,28.0934577 28.4662558,28.0934577 Z" id="Shape"></path>
                                    <path d="M24.1502749,29.6599568 C22.6714101,29.6599568 20.960961,29.1398728 19.4932348,28.1800973 C19.0544216,27.8931346 18.9338913,27.3086053 19.2241614,26.8745033 C19.5145147,26.4405657 20.1053623,26.3213747 20.544425,26.6084196 C22.117719,27.6371616 24.1949126,28.0632079 25.2738663,27.578388 C25.6605606,27.4046157 25.8583965,27.1395184 25.9153367,26.7188974 C25.9852442,26.2030879 26.4654534,25.8402539 26.986061,25.9102067 C27.5074999,25.9793375 27.8736625,26.453389 27.8038381,26.9690341 C27.6604486,28.0277794 27.0419206,28.8533211 26.0624667,29.2937526 C25.5128487,29.5407657 24.8579122,29.6599568 24.1502749,29.6599568 Z" id="Shape"></path>
                                    <path d="M5.6728192,18.301133 C5.42037064,18.301133 5.1683377,18.2025744 4.98089236,18.0069367 C3.81050194,16.7848586 2.59281378,15.9771544 0.637480408,15.1262948 C0.155858099,14.9166007 -0.0627588614,14.3606773 0.149291278,13.8844063 C0.361341418,13.4080532 0.923594316,13.1918653 1.4051335,13.4016415 C3.58473629,14.3502378 5.02145703,15.3091913 6.36441354,16.7112068 C6.72608745,17.0890013 6.70987821,17.6853674 6.32775571,18.0431872 C6.14363535,18.2155621 5.9079779,18.301133 5.6728192,18.301133 Z" id="Shape"></path>
                                    <path d="M11.9038182,5.04043128 C10.1511419,5.04051348 8.17527684,3.98357667 5.85669019,2.6321147 C5.40341328,2.3679216 5.25245951,1.79046157 5.5197042,1.34213886 C5.78686577,0.893898356 6.37106348,0.744704056 6.82417415,1.00889716 C9.05315278,2.30791508 11.1596893,3.44532638 12.4368945,3.08726007 C14.9009487,2.39850026 19.3352986,1.37255313 21.3490684,2.2421545 C21.8312726,2.45036892 22.051552,3.00579916 21.8409981,3.48256331 C21.6303611,3.95932746 21.0685238,4.17732376 20.5866521,3.96902715 C19.8071123,3.63241521 17.34098,3.67441978 12.9552577,4.90060786 C12.6135336,4.99596069 12.2632478,5.04043128 11.9038182,5.04043128 Z" id="Shape"></path>
                                    <path d="M18.371389,29.0502741 C18.2598362,29.0502741 18.1464546,29.0452598 18.0316599,29.0350669 C16.5414903,28.9028882 15.3981152,27.9553605 15.2511514,26.7310631 C15.1892238,26.2144316 15.562452,25.7458875 16.0850546,25.6844835 C16.6076572,25.6248058 17.0814658,25.9923252 17.1433934,26.5091211 C17.179885,26.8132638 17.6645829,27.1107482 18.2019817,27.1583424 C18.5102898,27.1853864 19.2520081,27.1675489 19.4862524,26.4113023 C19.6901564,25.7527923 19.606367,25.1551109 19.2727891,24.8886984 C18.9859271,24.6595228 18.5148616,24.6980749 17.9798735,24.9935043 C17.520861,25.2470113 16.9401545,25.0846649 16.6834666,24.6304238 C16.4268618,24.1762648 16.5911986,23.6022572 17.0506267,23.3484214 C18.2814485,22.6686215 19.5597343,22.6961587 20.4697794,23.4225664 C21.4267065,24.1865399 21.7478989,25.5431805 21.3082544,26.9628691 C20.9074289,28.256955 19.7742782,29.0502741 18.371389,29.0502741 Z" id="Shape"></path>
                                    <path d="M6.81910357,22.0655148 C5.81737239,22.0655148 4.81913244,21.4568185 4.26976381,20.508551 C3.7358563,19.587081 3.73610567,18.5118957 4.27051193,17.6324302 C4.98712669,16.4531787 6.00631397,15.7328538 7.29989463,15.4915947 C8.58325101,15.2522263 9.84524443,15.6949593 10.5948595,16.6465148 C11.2408186,17.4666313 11.3646739,18.5150193 10.9264425,19.4512032 L10.0618664,19.0552424 L10.9264425,19.4512032 C10.1461545,21.1169185 8.69696507,22.0453756 6.84562023,22.0654326 C6.83672592,22.0655148 6.82791475,22.0655148 6.81910357,22.0655148 Z M7.98118156,17.3120118 C7.87702678,17.3120118 7.76746893,17.3217115 7.65308987,17.3430837 C6.89599356,17.4843867 6.34022436,17.884622 5.90373856,18.6028918 C5.67431544,18.9803575 5.78769701,19.3381772 5.92294028,19.5717917 C6.12825735,19.9260768 6.50389615,20.1812278 6.8185217,20.1812278 C6.82059981,20.1812278 6.82259479,20.1812278 6.82475602,20.1812278 C7.94726684,20.1692265 8.72331548,19.6713368 9.19720723,18.6592815 C9.37226705,18.2857615 9.23627566,17.9883593 9.09155622,17.8044763 C8.89879092,17.5595182 8.50760787,17.3120118 7.98118156,17.3120118 Z" id="Shape"></path>
                                    <path d="M14.2335435,28.1634927 C13.5604859,28.1634927 12.8666472,27.9856104 12.278127,27.6245026 C11.0793081,26.888724 10.6053332,25.60442 11.010398,24.1890059 C11.1536212,23.6884035 11.6802969,23.3971664 12.186524,23.5390448 C12.6928342,23.6806767 12.9870112,24.2014182 12.843788,24.7021028 C12.6714713,25.304223 12.8151101,25.7363522 13.2828507,26.0234793 C13.8743633,26.3865599 14.7017828,26.3378148 15.018819,26.054058 C15.8275355,25.3301163 16.3285257,24.3419814 16.5080743,23.1167798 C16.5813068,22.6171638 16.3396644,22.0601718 15.9333527,21.792444 C15.6363495,21.5963953 15.321059,21.6021494 14.9695262,21.8101172 C14.5178287,22.0769407 13.9327997,21.9315276 13.6629782,21.484849 C13.3929904,21.0382525 13.5403698,20.459806 13.9919011,20.1928181 C14.9804987,19.608371 16.0731678,19.6202079 16.9903616,20.2246298 C18.0087176,20.895963 18.5727161,22.1668683 18.3939157,23.3871379 C18.1490315,25.0577853 17.4437216,26.4250298 16.2976035,27.4509769 C15.7700966,27.92322 15.0158265,28.1634927 14.2335435,28.1634927 Z" id="Shape"></path>
                                    <path d="M10.6585328,25.7532033 C9.9435805,25.7532033 9.18997541,25.4991209 8.51400845,24.8951923 C7.92873011,24.3721491 7.55633316,23.6764022 7.46539515,22.9361026 C7.36265349,22.1004501 7.6159333,21.2636468 8.19772041,20.5163601 C9.04492348,19.428187 9.80393164,18.6131669 10.968919,17.9123236 L10.968919,17.9123236 C12.1508637,17.2013696 13.5917406,17.3642093 14.5551515,18.3167512 C15.5730088,19.3232989 15.7074208,20.824284 14.8977068,22.1407285 L14.8144994,22.2763596 C14.3751042,22.9942185 13.7732842,23.9774213 12.7584193,24.9261819 C12.2173631,25.4321273 11.4624281,25.7532033 10.6585328,25.7532033 Z M11.959179,19.5221425 C11.0426503,20.0735449 10.4395833,20.7257253 9.70759055,21.6658549 C8.95930543,22.6269457 9.58257158,23.3106091 9.79137987,23.4971225 C10.1184741,23.7894282 10.8356707,24.1306434 11.4493775,23.557129 C12.276797,22.7835381 12.7800317,21.9613665 13.1844315,21.3007193 L13.2695508,21.1618001 C13.7845891,20.3244214 13.3525088,19.7924184 13.2077063,19.649307 C12.9407941,19.3852783 12.4726379,19.2133144 11.959179,19.5221425 L11.959179,19.5221425 Z" id="Shape"></path>
                                </g>
                                <path d="M91.9063362,299.288084 C41.1447743,299.284079 -0.00269880905,258.563324 0,208.334859 C0.00269880905,158.106394 41.1545476,117.389969 91.9161097,117.391304 C142.677672,117.39264 183.827333,158.111229 183.827333,208.339694 C183.770769,258.548733 142.64827,299.236119 91.9063362,299.288084 L91.9063362,299.288084 Z M91.9063362,155.673911 C62.5070704,155.673911 38.6742566,179.256432 38.6742566,208.346947 C38.6742566,237.437462 62.5070704,261.019984 91.9063362,261.019984 C121.305602,261.019984 145.138416,237.437462 145.138416,208.346947 C145.110136,179.266857 121.295063,155.698644 91.9063362,155.666657 L91.9063362,155.673911 Z" id="Shape" fill="#65C9D5" fill-rule="nonzero"></path>
                                <path d="M237.004043,299.288085 C186.241526,299.288085 145.090376,258.569103 145.090376,208.339694 C145.090376,158.110286 186.241526,117.391304 237.004043,117.391304 C287.766559,117.391304 328.917709,158.110286 328.917709,208.339694 C328.861153,258.545905 287.743114,299.232122 237.004043,299.288085 L237.004043,299.288085 Z M237.004043,155.673911 C207.604777,155.673911 183.771963,179.256433 183.771963,208.346948 C183.771963,237.437463 207.604777,261.019985 237.004043,261.019985 C266.403309,261.019985 290.236122,237.437463 290.236122,208.346948 C290.207843,179.266857 266.39277,155.698644 237.004043,155.666658 L237.004043,155.673911 Z" id="Shape" fill="#6E7F89" fill-rule="nonzero"></path>
                                <ellipse id="Oval" fill="#F8F2EA" fill-rule="nonzero" cx="162.254977" cy="87.4844526" rx="53.0414939" ry="52.4844526"></ellipse>
                                <g id="simple" transform="translate(147.640449, 58.000000)" fill-rule="nonzero" fill="#77A240">
                                    <path d="M4.20362047,0.326381238 C3.9245459,0.329223807 3.65821312,0.442325381 3.46395815,0.640488168 C3.26970319,0.838650956 3.16366384,1.1054125 3.16946452,1.38134127 L3.16946452,16.3445498 C1.56860189,16.7991162 0.382686361,18.2611003 0.382686361,19.9830855 C0.382686361,21.704834 1.56893631,23.1668391 3.16946452,23.6216211 L3.16946452,28.2505273 C3.1641345,28.6232194 3.36214441,28.9698788 3.68767238,29.157763 C4.01320034,29.3456472 4.41581231,29.3456472 4.74134027,29.157763 C5.06686824,28.9698788 5.26487815,28.6232194 5.25954813,28.2505273 L5.25954813,23.6216211 C6.86007634,23.1668391 8.04632629,21.704834 8.04632629,19.9830855 C8.04632629,18.2611003 6.8604111,16.7991162 5.25954813,16.3445498 L5.25954813,1.38134127 C5.26542799,1.10167863 5.15642596,0.831602039 4.95743782,0.632796242 C4.75844967,0.433990445 4.48647081,0.323435278 4.20362047,0.326381238 Z M15.3507331,0.326381238 C15.0716585,0.329223807 14.8053257,0.442325381 14.6110708,0.640488168 C14.4168158,0.838650956 14.3107765,1.1054125 14.3165771,1.38134127 L14.3165771,6.01024752 C12.7157145,6.46481386 11.529799,7.92679797 11.529799,9.64878313 C11.529799,11.3705316 12.7160489,12.8325368 14.3165771,13.2873187 L14.3165771,28.2505273 C14.3112471,28.6232194 14.509257,28.9698788 14.834785,29.157763 C15.160313,29.3456472 15.5629249,29.3456472 15.8884529,29.157763 C16.2139809,28.9698788 16.4119908,28.6232194 16.4066608,28.2505273 L16.4066608,13.2873187 C18.007189,12.8325368 19.1934389,11.3705316 19.1934389,9.64878313 C19.1934389,7.92679797 18.0075237,6.46481386 16.4066608,6.01024752 L16.4066608,1.38134127 C16.4125406,1.10167863 16.3035386,0.831602039 16.1045504,0.632796242 C15.9055623,0.433990445 15.6335834,0.323435278 15.3507331,0.326381238 Z M26.4978457,0.326381238 C26.2187711,0.329223807 25.9524384,0.442325381 25.7581834,0.640488168 C25.5639284,0.838650956 25.4578891,1.1054125 25.4636898,1.38134127 L25.4636898,16.3445498 C23.8628324,16.799109 22.6769116,18.2610717 22.6769116,19.9830855 C22.6769116,21.704834 23.8631616,23.1668391 25.4636898,23.6216211 L25.4636898,28.2505273 C25.4583597,28.6232194 25.6563697,28.9698788 25.9818976,29.157763 C26.3074256,29.3456472 26.7100375,29.3456472 27.0355655,29.157763 C27.3610935,28.9698788 27.5591034,28.6232194 27.5537734,28.2505273 L27.5537734,23.6216211 C29.1543016,23.1668391 30.3405515,21.704834 30.3405515,19.9830855 C30.3405515,18.2610717 29.1546311,16.799109 27.5537734,16.3445498 L27.5537734,1.38134127 C27.5596532,1.10167863 27.4506512,0.831602039 27.2516631,0.632796242 C27.0526749,0.433990445 26.7806961,0.323435278 26.4978457,0.326381238 Z M15.3616189,7.92639941 C16.3359212,7.92639941 17.1033553,8.68528167 17.1033553,9.64878313 C17.1033553,10.6122846 16.3359212,11.3711668 15.3616189,11.3711668 C14.3873171,11.3711668 13.6198826,10.6122846 13.6198826,9.64878313 C13.6198826,8.68528167 14.3873171,7.92639941 15.3616189,7.92639941 Z M4.21450632,18.2607017 C5.18880856,18.2607017 5.95624267,19.019584 5.95624267,19.9830855 C5.95624267,20.9465869 5.18880856,21.7054692 4.21450632,21.7054692 C3.24020444,21.7054692 2.47276998,20.9465869 2.47276998,19.9830855 C2.47276998,19.019584 3.24020444,18.2607017 4.21450632,18.2607017 Z M26.5087316,18.2607017 C27.4830495,18.2607017 28.2504679,19.0195496 28.2504679,19.9830855 C28.2504679,20.9465869 27.4830338,21.7054692 26.5087316,21.7054692 C25.5344297,21.7054692 24.7669952,20.9465869 24.7669952,19.9830855 C24.7669952,19.0195496 25.534414,18.2607017 26.5087316,18.2607017 Z" id="Shape" transform="translate(15.361619, 14.812500) rotate(-270.000000) translate(-15.361619, -14.812500) "></path>
                                </g>
                                <path d="M162.517799,176.036161 C113.392734,176.02815 73.5748062,136.617566 73.5802036,88.0084114 C73.585601,39.3992565 113.412279,-0.00266869756 162.537346,1.32820617e-06 C211.662412,0.00267135397 251.484715,39.4089256 251.484716,88.0180807 C251.428148,136.611583 211.627055,175.988196 162.517799,176.036161 Z M162.517799,38.2753533 C134.754075,38.2753533 112.24713,60.545931 112.24713,88.0180807 C112.24713,115.490231 134.754075,137.760808 162.517799,137.760808 C190.281523,137.760808 212.788469,115.490231 212.788469,88.0180807 C212.756154,60.5591865 190.268127,38.3073287 162.517799,38.2753533 L162.517799,38.2753533 Z" id="Shape" fill="#F98D1B" fill-rule="nonzero"></path>
                                <path d="M134.428384,129.209237 L115.978213,163.045607" id="Shape" stroke="#65C9D5"></path>
                                <path d="M183.819427,205.302989 L144.434139,205.448054" id="Shape" stroke="#65C9D5"></path>
                                <path d="M192.256514,128.193783 L211.769568,161.319335" id="Shape"></path>
                                <path d="M193.792041,126.421405 C196.328586,130.936455 209.032119,152.920142 214.59171,160.535117 C213.007715,161.406722 185.026299,176.435083 184.15317,206.688963 C184.112336,206.764205 144.075758,206.688963 144.075758,206.688963 C143.913495,204.922816 142.526148,178.046529 114.493289,163.015159 C114.467382,162.984084 133.408515,127.73808 133.408515,127.73808 C135.239768,128.288568 168.788091,144.159338 193.792041,126.421405 Z" id="Shape" fill="#FFFFFF" fill-rule="nonzero"></path>
                                <path d="M137.007125,153.778626 L140.18719,164.608016 L143.389649,164.608016 L144.486996,160.798905 C144.778128,159.78019 145.002077,158.78362 145.20363,157.432715 L145.24842,157.432715 C145.472368,158.761474 145.673921,159.735898 145.942659,160.798905 L146.972821,164.608016 L150.17528,164.608016 L153.534504,153.778626 L150.197675,153.778626 L149.257093,158.074948 C149.01075,159.315124 148.786802,160.533153 148.630038,161.773329 L148.585248,161.773329 C148.3613,160.533153 148.070167,159.315124 147.779035,158.097094 L146.681688,153.778626 L143.99431,153.778626 L142.829779,158.22997 C142.561041,159.292978 142.247514,160.533153 142.023565,161.773329 L141.978776,161.773329 C141.799617,160.533153 141.575669,159.33727 141.351721,158.207824 L140.478323,153.778626 L137.007125,153.778626 Z" id="w" fill="#77A240"></path>
                                <path d="M154.736359,153.778626 L157.916424,164.608016 L161.118883,164.608016 L162.21623,160.798905 C162.507362,159.78019 162.731311,158.78362 162.932864,157.432715 L162.977654,157.432715 C163.201602,158.761474 163.403155,159.735898 163.671893,160.798905 L164.702055,164.608016 L167.904515,164.608016 L171.263738,153.778626 L167.926909,153.778626 L166.986327,158.074948 C166.739984,159.315124 166.516036,160.533153 166.359272,161.773329 L166.314482,161.773329 C166.090534,160.533153 165.799401,159.315124 165.508269,158.097094 L164.410922,153.778626 L161.723544,153.778626 L160.559013,158.22997 C160.290275,159.292978 159.976748,160.533153 159.752799,161.773329 L159.70801,161.773329 C159.528851,160.533153 159.304903,159.33727 159.080955,158.207824 L158.207557,153.778626 L154.736359,153.778626 Z" id="w" fill="#77A240"></path>
                                <path d="M172.465593,153.778626 L175.645658,164.608016 L178.848118,164.608016 L179.945464,160.798905 C180.236596,159.78019 180.460545,158.78362 180.662098,157.432715 L180.706888,157.432715 C180.930836,158.761474 181.132389,159.735898 181.401127,160.798905 L182.431289,164.608016 L185.633749,164.608016 L188.992972,153.778626 L185.656143,153.778626 L184.715561,158.074948 C184.469218,159.315124 184.24527,160.533153 184.088506,161.773329 L184.043716,161.773329 C183.819768,160.533153 183.528635,159.315124 183.237503,158.097094 L182.140156,153.778626 L179.452778,153.778626 L178.288247,158.22997 C178.019509,159.292978 177.705982,160.533153 177.482033,161.773329 L177.437244,161.773329 C177.258085,160.533153 177.034137,159.33727 176.810189,158.207824 L175.936791,153.778626 L172.465593,153.778626 Z" id="w" fill="#77A240"></path>
                            </g>
                        </g>
                    </g>
                </g>
                <path d="M274.011719,107 L269.078125,107 L269.078125,98.4335938 L274.011719,98.4335938 L274.011719,99.921875 L270.894531,99.921875 L270.894531,101.802734 L273.794922,101.802734 L273.794922,103.291016 L270.894531,103.291016 L270.894531,105.5 L274.011719,105.5 L274.011719,107 Z M281.24354,107 L279.45643,107 L279.45643,103.173828 C279.45643,102.70117 279.372447,102.346681 279.204477,102.110352 C279.036508,101.874022 278.768932,101.755859 278.401743,101.755859 C277.90174,101.755859 277.540416,101.92285 277.317758,102.256836 C277.095101,102.590822 276.983774,103.144527 276.983774,103.917969 L276.983774,107 L275.196665,107 L275.196665,100.449219 L276.561899,100.449219 L276.802133,101.287109 L276.901743,101.287109 C277.100962,100.970702 277.375374,100.731446 277.724985,100.569336 C278.074596,100.407226 278.472053,100.326172 278.917368,100.326172 C279.67909,100.326172 280.25721,100.532225 280.651743,100.944336 C281.046276,101.356447 281.24354,101.951168 281.24354,102.728516 L281.24354,107 Z M284.338642,103.4375 L285.117939,102.441406 L286.951923,100.449219 L288.967548,100.449219 L286.365986,103.291016 L289.125751,107 L287.063251,107 L285.176532,104.345703 L284.408954,104.960938 L284.408954,107 L282.621845,107 L282.621845,97.8828125 L284.408954,97.8828125 L284.408954,101.949219 L284.315204,103.4375 L284.338642,103.4375 Z M292.074369,101.597656 C291.695461,101.597656 291.398589,101.717772 291.183744,101.958008 C290.968899,102.198243 290.845853,102.53906 290.814603,102.980469 L293.322416,102.980469 C293.314603,102.53906 293.19937,102.198243 292.976713,101.958008 C292.754055,101.717772 292.453277,101.597656 292.074369,101.597656 Z M292.326322,107.117188 C291.271629,107.117188 290.447419,106.826175 289.853666,106.244141 C289.259913,105.662106 288.963041,104.837896 288.963041,103.771484 C288.963041,102.673823 289.237452,101.825198 289.786283,101.225586 C290.335114,100.625974 291.093895,100.326172 292.06265,100.326172 C292.988436,100.326172 293.709132,100.589841 294.22476,101.117188 C294.740387,101.644534 294.998197,102.373042 294.998197,103.302734 L294.998197,104.169922 L290.773588,104.169922 C290.793119,104.677737 290.943508,105.074217 291.22476,105.359375 C291.506011,105.644533 291.900538,105.787109 292.408353,105.787109 C292.802886,105.787109 293.17593,105.746094 293.527494,105.664062 C293.879058,105.582031 294.246242,105.451173 294.629056,105.271484 L294.629056,106.654297 C294.316555,106.810548 293.982574,106.926757 293.627103,107.00293 C293.271633,107.079102 292.838043,107.117188 292.326322,107.117188 Z M297.776893,107 L295.989783,107 L295.989783,97.8828125 L297.776893,97.8828125 L297.776893,107 Z" id="Enkel" fill="#4E4E4E"></path>
                <path d="M191.865234,230 L190.078125,230 L190.078125,221.433594 L194.988281,221.433594 L194.988281,222.921875 L191.865234,222.921875 L191.865234,225.130859 L194.771484,225.130859 L194.771484,226.613281 L191.865234,226.613281 L191.865234,230 Z M197.849008,230 L196.061899,230 L196.061899,220.882812 L197.849008,220.882812 L197.849008,230 Z M201.975361,224.597656 C201.596452,224.597656 201.29958,224.717772 201.084736,224.958008 C200.869891,225.198243 200.746845,225.53906 200.715595,225.980469 L203.223407,225.980469 C203.215595,225.53906 203.100362,225.198243 202.877704,224.958008 C202.655047,224.717772 202.354269,224.597656 201.975361,224.597656 Z M202.227314,230.117188 C201.172621,230.117188 200.34841,229.826175 199.754657,229.244141 C199.160904,228.662106 198.864032,227.837896 198.864032,226.771484 C198.864032,225.673823 199.138444,224.825198 199.687275,224.225586 C200.236105,223.625974 200.994887,223.326172 201.963642,223.326172 C202.889428,223.326172 203.610124,223.589841 204.125751,224.117188 C204.641379,224.644534 204.899189,225.373042 204.899189,226.302734 L204.899189,227.169922 L200.674579,227.169922 C200.694111,227.677737 200.8445,228.074217 201.125751,228.359375 C201.407003,228.644533 201.80153,228.787109 202.309345,228.787109 C202.703878,228.787109 203.076921,228.746094 203.428486,228.664062 C203.78005,228.582031 204.147234,228.451173 204.530048,228.271484 L204.530048,229.654297 C204.217546,229.810548 203.883565,229.926757 203.528095,230.00293 C203.172624,230.079102 202.739035,230.117188 202.227314,230.117188 Z M207.607572,226.4375 L208.386869,225.441406 L210.220853,223.449219 L212.236478,223.449219 L209.634916,226.291016 L212.394681,230 L210.332181,230 L208.445463,227.345703 L207.677885,227.960938 L207.677885,230 L205.890775,230 L205.890775,220.882812 L207.677885,220.882812 L207.677885,224.949219 L207.584135,226.4375 L207.607572,226.4375 Z M217.440955,228.054688 C217.440955,228.726566 217.207559,229.238279 216.74076,229.589844 C216.273961,229.941408 215.575726,230.117188 214.646033,230.117188 C214.169469,230.117188 213.763223,230.084961 213.427283,230.020508 C213.091344,229.956054 212.776894,229.861329 212.483924,229.736328 L212.483924,228.259766 C212.815957,228.416016 213.189977,228.546874 213.605994,228.652344 C214.022012,228.757813 214.388219,228.810547 214.704627,228.810547 C215.353068,228.810547 215.677283,228.623049 215.677283,228.248047 C215.677283,228.107421 215.634315,227.993165 215.548377,227.905273 C215.462439,227.817382 215.314003,227.717774 215.103065,227.606445 C214.892126,227.495117 214.610879,227.365235 214.259315,227.216797 C213.755406,227.005858 213.385292,226.810548 213.148963,226.630859 C212.912634,226.451171 212.740761,226.245118 212.633338,226.012695 C212.525916,225.780272 212.472205,225.494142 212.472205,225.154297 C212.472205,224.572263 212.697789,224.122072 213.148963,223.803711 C213.600137,223.48535 214.239779,223.326172 215.067908,223.326172 C215.856975,223.326172 216.624545,223.498045 217.370643,223.841797 L216.83158,225.130859 C216.503454,224.990234 216.196816,224.875 215.911658,224.785156 C215.626501,224.695312 215.335488,224.650391 215.038612,224.650391 C214.511265,224.650391 214.247596,224.792967 214.247596,225.078125 C214.247596,225.238282 214.332556,225.376953 214.502479,225.494141 C214.672402,225.611329 215.044468,225.785155 215.61869,226.015625 C216.130411,226.222657 216.505407,226.416015 216.74369,226.595703 C216.981972,226.775392 217.157752,226.982421 217.271033,227.216797 C217.384315,227.451173 217.440955,227.730467 217.440955,228.054688 Z M218.297776,221.755859 C218.297776,221.173825 218.621992,220.882812 219.270433,220.882812 C219.918873,220.882812 220.243089,221.173825 220.243089,221.755859 C220.243089,222.033205 220.162035,222.249023 219.999925,222.40332 C219.837815,222.557618 219.594653,222.634766 219.270433,222.634766 C218.621992,222.634766 218.297776,222.3418 218.297776,221.755859 Z M220.161058,230 L218.373948,230 L218.373948,223.449219 L220.161058,223.449219 L220.161058,230 Z M225.21905,223.326172 C225.992492,223.326172 226.597954,223.627927 227.035457,224.231445 C227.472959,224.834964 227.691707,225.662104 227.691707,226.712891 C227.691707,227.794927 227.466123,228.63281 227.014949,229.226562 C226.563775,229.820315 225.949523,230.117188 225.172175,230.117188 C224.40264,230.117188 223.799131,229.837893 223.361628,229.279297 L223.238582,229.279297 L222.939753,230 L221.574519,230 L221.574519,220.882812 L223.361628,220.882812 L223.361628,223.003906 C223.361628,223.273439 223.338191,223.705075 223.291316,224.298828 L223.361628,224.298828 C223.779599,223.650387 224.398734,223.326172 225.21905,223.326172 Z M224.644832,224.755859 C224.203423,224.755859 223.881161,224.8916 223.678035,225.163086 C223.474909,225.434572 223.369441,225.882809 223.361628,226.507812 L223.361628,226.701172 C223.361628,227.4043 223.46612,227.908202 223.675105,228.212891 C223.88409,228.51758 224.215142,228.669922 224.668269,228.669922 C225.035458,228.669922 225.327448,228.500978 225.544246,228.163086 C225.761044,227.825194 225.869441,227.333988 225.869441,226.689453 C225.869441,226.044919 225.760067,225.561525 225.541316,225.239258 C225.322565,224.916991 225.02374,224.755859 224.644832,224.755859 Z M231.419621,224.597656 C231.040713,224.597656 230.743841,224.717772 230.528996,224.958008 C230.314151,225.198243 230.191106,225.53906 230.159855,225.980469 L232.667668,225.980469 C232.659855,225.53906 232.544622,225.198243 232.321965,224.958008 C232.099308,224.717772 231.798529,224.597656 231.419621,224.597656 Z M231.671574,230.117188 C230.616881,230.117188 229.792671,229.826175 229.198918,229.244141 C228.605165,228.662106 228.308293,227.837896 228.308293,226.771484 C228.308293,225.673823 228.582704,224.825198 229.131535,224.225586 C229.680366,223.625974 230.439148,223.326172 231.407902,223.326172 C232.333688,223.326172 233.054384,223.589841 233.570012,224.117188 C234.085639,224.644534 234.343449,225.373042 234.343449,226.302734 L234.343449,227.169922 L230.11884,227.169922 C230.138371,227.677737 230.28876,228.074217 230.570012,228.359375 C230.851263,228.644533 231.24579,228.787109 231.753605,228.787109 C232.148139,228.787109 232.521182,228.746094 232.872746,228.664062 C233.22431,228.582031 233.591494,228.451173 233.974309,228.271484 L233.974309,229.654297 C233.661807,229.810548 233.327826,229.926757 232.972355,230.00293 C232.616885,230.079102 232.183296,230.117188 231.671574,230.117188 Z M237.122145,230 L235.335036,230 L235.335036,220.882812 L237.122145,220.882812 L237.122145,230 Z" id="Fleksibel" fill="#4E4E4E"></path>
                <path d="M338.078125,221.433594 L340.744141,221.433594 C341.95899,221.433594 342.840818,221.606444 343.389648,221.952148 C343.938479,222.297853 344.212891,222.847652 344.212891,223.601562 C344.212891,224.113284 344.092775,224.533201 343.852539,224.861328 C343.612303,225.189455 343.292971,225.386718 342.894531,225.453125 L342.894531,225.511719 C343.437503,225.632813 343.8291,225.859373 344.069336,226.191406 C344.309572,226.523439 344.429688,226.964841 344.429688,227.515625 C344.429688,228.296879 344.147464,228.906248 343.583008,229.34375 C343.018552,229.781252 342.251958,230 341.283203,230 L338.078125,230 L338.078125,221.433594 Z M339.894531,224.826172 L340.949219,224.826172 C341.441409,224.826172 341.79785,224.750001 342.018555,224.597656 C342.239259,224.445312 342.349609,224.193361 342.349609,223.841797 C342.349609,223.51367 342.229493,223.278321 341.989258,223.135742 C341.749022,222.993163 341.369143,222.921875 340.849609,222.921875 L339.894531,222.921875 L339.894531,224.826172 Z M339.894531,226.267578 L339.894531,228.5 L341.078125,228.5 C341.578127,228.5 341.947264,228.404298 342.185547,228.212891 C342.423829,228.021483 342.542969,227.728518 342.542969,227.333984 C342.542969,226.623043 342.035161,226.267578 341.019531,226.267578 L339.894531,226.267578 Z M348.251352,224.597656 C347.872444,224.597656 347.575572,224.717772 347.360727,224.958008 C347.145882,225.198243 347.022837,225.53906 346.991586,225.980469 L349.499399,225.980469 C349.491586,225.53906 349.376353,225.198243 349.153696,224.958008 C348.931039,224.717772 348.63026,224.597656 348.251352,224.597656 Z M348.503305,230.117188 C347.448612,230.117188 346.624402,229.826175 346.030649,229.244141 C345.436896,228.662106 345.140024,227.837896 345.140024,226.771484 C345.140024,225.673823 345.414435,224.825198 345.963266,224.225586 C346.512097,223.625974 347.270879,223.326172 348.239633,223.326172 C349.165419,223.326172 349.886115,223.589841 350.401743,224.117188 C350.91737,224.644534 351.17518,225.373042 351.17518,226.302734 L351.17518,227.169922 L346.950571,227.169922 C346.970102,227.677737 347.120491,228.074217 347.401743,228.359375 C347.682994,228.644533 348.077521,228.787109 348.585336,228.787109 C348.97987,228.787109 349.352913,228.746094 349.704477,228.664062 C350.056041,228.582031 350.423225,228.451173 350.80604,228.271484 L350.80604,229.654297 C350.493538,229.810548 350.159557,229.926757 349.804086,230.00293 C349.448616,230.079102 349.015027,230.117188 348.503305,230.117188 Z M354.926532,228.693359 C355.239034,228.693359 355.61403,228.625001 356.051532,228.488281 L356.051532,229.818359 C355.606218,230.017579 355.059348,230.117188 354.410907,230.117188 C353.69606,230.117188 353.175557,229.936525 352.849384,229.575195 C352.52321,229.213865 352.360126,228.671879 352.360126,227.949219 L352.360126,224.791016 L351.504657,224.791016 L351.504657,224.035156 L352.489032,223.4375 L353.004657,222.054688 L354.147236,222.054688 L354.147236,223.449219 L355.98122,223.449219 L355.98122,224.791016 L354.147236,224.791016 L354.147236,227.949219 C354.147236,228.203126 354.218524,228.390624 354.361103,228.511719 C354.503682,228.632813 354.692156,228.693359 354.926532,228.693359 Z M360.570463,223.326172 C360.812651,223.326172 361.013821,223.34375 361.173978,223.378906 L361.039213,225.054688 C360.894681,225.015625 360.718901,224.996094 360.511869,224.996094 C359.941554,224.996094 359.497222,225.142577 359.178861,225.435547 C358.8605,225.728517 358.701322,226.138669 358.701322,226.666016 L358.701322,230 L356.914213,230 L356.914213,223.449219 L358.267728,223.449219 L358.5314,224.550781 L358.619291,224.550781 C358.822417,224.183592 359.096828,223.887696 359.442533,223.663086 C359.788238,223.438475 360.164211,223.326172 360.570463,223.326172 Z M363.085487,226.712891 C363.085487,227.361331 363.191931,227.851561 363.404823,228.183594 C363.617714,228.515627 363.96439,228.681641 364.444862,228.681641 C364.921427,228.681641 365.264197,228.516603 365.473182,228.186523 C365.682167,227.856444 365.786658,227.365238 365.786658,226.712891 C365.786658,226.06445 365.681191,225.578127 365.470252,225.253906 C365.259314,224.929686 364.913614,224.767578 364.433143,224.767578 C363.956578,224.767578 363.612831,224.928709 363.401893,225.250977 C363.190954,225.573244 363.085487,226.060544 363.085487,226.712891 Z M367.614783,226.712891 C367.614783,227.779302 367.333536,228.613278 366.771033,229.214844 C366.208531,229.816409 365.425335,230.117188 364.421424,230.117188 C363.792515,230.117188 363.237833,229.979494 362.757362,229.704102 C362.27689,229.42871 361.907754,229.033206 361.64994,228.517578 C361.392126,228.001951 361.263221,227.400394 361.263221,226.712891 C361.263221,225.642573 361.542515,224.81055 362.101112,224.216797 C362.659708,223.623044 363.444857,223.326172 364.45658,223.326172 C365.08549,223.326172 365.640172,223.462889 366.120643,223.736328 C366.601114,224.009767 366.970251,224.402341 367.228065,224.914062 C367.485879,225.425784 367.614783,226.025387 367.614783,226.712891 Z M370.704026,230.117188 C369.934491,230.117188 369.330005,229.818362 368.89055,229.220703 C368.451094,228.623044 368.23137,227.794927 368.23137,226.736328 C368.23137,225.662104 368.455001,224.825198 368.902268,224.225586 C369.349536,223.625974 369.965741,223.326172 370.750901,223.326172 C371.575124,223.326172 372.204024,223.646481 372.63762,224.287109 L372.696214,224.287109 C372.60637,223.798826 372.561448,223.363283 372.561448,222.980469 L372.561448,220.882812 L374.354417,220.882812 L374.354417,230 L372.983323,230 L372.63762,229.150391 L372.561448,229.150391 C372.155196,229.794925 371.536062,230.117188 370.704026,230.117188 Z M371.330979,228.693359 C371.788013,228.693359 372.12297,228.560548 372.335862,228.294922 C372.548754,228.029296 372.664964,227.578128 372.684495,226.941406 L372.684495,226.748047 C372.684495,226.044918 372.576098,225.541017 372.3593,225.236328 C372.142502,224.931639 371.789966,224.779297 371.301682,224.779297 C370.903243,224.779297 370.593676,224.94824 370.372972,225.286133 C370.152267,225.624025 370.041917,226.115231 370.041917,226.759766 C370.041917,227.4043 370.153244,227.887694 370.375901,228.209961 C370.598559,228.532228 370.916915,228.693359 371.330979,228.693359 Z M377.836238,230.117188 C377.066703,230.117188 376.462217,229.818362 376.022761,229.220703 C375.583306,228.623044 375.363582,227.794927 375.363582,226.736328 C375.363582,225.662104 375.587212,224.825198 376.03448,224.225586 C376.481748,223.625974 377.097953,223.326172 377.883113,223.326172 C378.707336,223.326172 379.336236,223.646481 379.769832,224.287109 L379.828425,224.287109 C379.738581,223.798826 379.69366,223.363283 379.69366,222.980469 L379.69366,220.882812 L381.486628,220.882812 L381.486628,230 L380.115535,230 L379.769832,229.150391 L379.69366,229.150391 C379.287408,229.794925 378.668273,230.117188 377.836238,230.117188 Z M378.463191,228.693359 C378.920224,228.693359 379.255182,228.560548 379.468074,228.294922 C379.680965,228.029296 379.797175,227.578128 379.816707,226.941406 L379.816707,226.748047 C379.816707,226.044918 379.708309,225.541017 379.491511,225.236328 C379.274713,224.931639 378.922178,224.779297 378.433894,224.779297 C378.035455,224.779297 377.725887,224.94824 377.505183,225.286133 C377.284479,225.624025 377.174128,226.115231 377.174128,226.759766 C377.174128,227.4043 377.285455,227.887694 377.508113,228.209961 C377.73077,228.532228 378.049126,228.693359 378.463191,228.693359 Z" id="Betrodd" fill="#4E4E4E"></path>
            </g>
        </g>
    </g>
</svg>