<?xml version="1.0" encoding="UTF-8" standalone="no"?>
<svg width="330px" height="300px" viewBox="0 0 330 300" version="1.1" xmlns="http://www.w3.org/2000/svg" xmlns:xlink="http://www.w3.org/1999/xlink">
    <!-- Generator: Sketch 45.1 (43504) - http://www.bohemiancoding.com/sketch -->
    <title>Translations-Domains-da</title>
    <desc>Created with Sketch.</desc>
    <defs></defs>
    <g id="SVG" stroke="none" stroke-width="1" fill="none" fill-rule="evenodd">
        <g id="Translations-Domains-DA" transform="translate(-220.000000, 0.000000)">
            <g id="Translations-Domains-da" transform="translate(100.000000, 0.000000)">
                <g id="Domains-SVG">
                    <g id="Clouds" transform="translate(130.449438, 0.000000)" fill="#FFFFFF">
                        <path d="M88.7323253,8.41673731 C81.5584234,2.91036647 72.9774073,0 63.9169189,0 C55.6714209,0 47.7247028,2.45112932 40.9363655,7.08824983 C34.6411837,11.3880744 29.7276241,17.2811516 26.6670992,24.184998 C19.7040676,24.7078161 13.2285682,27.725021 8.32325602,32.7592893 C3.12328773,38.0961731 0.259387661,45.1189775 0.259387661,52.5342683 C0.259387661,59.9844261 3.14634288,67.031283 8.38848524,72.3769302 C13.6206933,77.7125088 20.6120283,80.7595463 28.0740259,80.9564422 C28.1229479,80.957188 95.1290998,80.9404071 98.0392976,80.9376103 C104.973276,80.6092641 111.364427,77.7033725 116.123161,72.7530087 C120.897827,67.7860504 123.52724,61.2739446 123.52724,54.4165253 C123.52724,41.9843064 114.879682,31.2803331 102.803092,28.5353517 C100.336191,20.622787 95.3718349,13.5129085 88.7323253,8.41673731 Z" id="Cloud" transform="translate(61.893314, 40.478233) scale(-1, 1) translate(-61.893314, -40.478233) "></path>
                        <path d="M275.960372,19.2809476 C271.459221,15.826063 266.0752,14 260.390341,14 C255.216835,14 250.230793,15.537922 245.971559,18.4474093 C242.021748,21.1452656 238.938813,24.8427829 237.018536,29.1744912 C232.649692,29.5025251 228.586744,31.3956221 225.508984,34.5542935 C222.246347,37.9028361 220.449438,42.3091827 220.449438,46.9617886 C220.449438,51.6362713 222.260812,56.0577093 225.549911,59.4117503 C228.832776,62.759474 233.219378,64.6712891 237.901289,64.7948282 C237.931985,64.7952962 279.973926,64.7847673 281.799883,64.7830125 C286.150497,64.5769969 290.160523,62.7537416 293.146315,59.6477148 C296.142103,56.531276 297.791886,52.4453591 297.791886,48.1427807 C297.791886,40.3423833 292.366114,33.6263461 284.78885,31.9040512 C283.241032,26.9394388 280.126226,22.4784589 275.960372,19.2809476 Z" id="Cloud" transform="translate(259.120662, 39.397422) scale(-1, 1) translate(-259.120662, -39.397422) "></path>
                    </g>
                    <g id="DOMAINS-TOP-IMG-EN" transform="translate(120.337079, 0.000000)">
                        <g id="domains">
                            <g id="Layer_1">
                                <ellipse id="Oval" fill="#F8F2EA" fill-rule="nonzero" cx="92.0918639" cy="208.209777" rx="54.6761336" ry="53.2097767"></ellipse>
                                <g id="flexible" transform="translate(63.707865, 179.000000)" fill-rule="nonzero" fill="#77A240">
                                    <path d="M30.64467,13.1561719 L31.8954729,14.3930769 L21.6047766,14.3930769 C21.1499392,14.3930769 20.7519565,14.7866376 20.7519565,15.2364213 C20.7519565,15.6862049 21.1499392,16.0797656 21.6047766,16.0797656 L31.8954729,16.0797656 L30.64467,17.3166707 C30.303542,17.6540084 30.303542,18.160015 30.64467,18.4973528 C30.815234,18.6660216 31.0426527,18.7222446 31.2700714,18.7222446 C31.4974901,18.7222446 31.7249088,18.6660216 31.8954729,18.4973528 L35.193044,15.2364213 L31.8954729,11.9754898 C31.5543448,11.638152 31.0426527,11.638152 30.7015247,11.9754898 C30.3603966,12.3128275 30.303542,12.8750571 30.64467,13.1561719 Z" id="Shape"></path>
                                    <path d="M53.1022668,11.9754898 C52.7611387,11.638152 52.2494466,11.638152 51.9083186,11.9754898 C51.5671905,12.3128275 51.5671905,12.8188341 51.9083186,13.1561719 L53.1591214,14.3930769 L48.6107474,14.3930769 C45.9385777,14.3930769 43.7781,12.2566046 43.7781,9.6141256 C43.7781,6.07207933 40.8785116,3.14848558 37.2398124,3.14848558 L35.6478814,3.14848558 C35.193044,3.14848558 34.7950613,3.54204627 34.7950613,3.99182993 C34.7950613,4.44161358 35.193044,4.83517428 35.6478814,4.83517428 L37.2398124,4.83517428 C39.9119821,4.83517428 42.0724598,6.97164663 42.0724598,9.6141256 C42.0724598,11.5257061 42.9252799,13.2123948 44.2329374,14.3930769 L42.9821346,14.3930769 C39.40029,14.3930769 36.4438469,17.2604477 36.4438469,20.8587169 C36.4438469,23.5011959 34.2833692,25.6376683 31.6111995,25.6376683 L29.8487046,25.6376683 C29.3938672,25.6376683 28.9958844,26.031229 28.9958844,26.4810126 C28.9958844,26.9307963 29.3938672,27.324357 29.8487046,27.324357 L31.6111995,27.324357 C35.193044,27.324357 38.1494872,24.4569862 38.1494872,20.8587169 C38.1494872,18.216238 40.3099648,16.0797656 42.9821346,16.0797656 L48.6107474,16.0797656 L53.1591214,16.0797656 L51.9083186,17.3166707 C51.5671905,17.6540084 51.5671905,18.160015 51.9083186,18.4973528 C52.0788826,18.6660216 52.3063013,18.7222446 52.53372,18.7222446 C52.7611387,18.7222446 52.9885574,18.6660216 53.1591214,18.4973528 L56.4566926,15.2364213 L53.1022668,11.9754898 Z" id="Shape"></path>
                                    <path d="M9.89271351,16.0797656 L12.8491566,16.0797656 C16.4310012,16.0797656 19.3874443,13.2123948 19.3874443,9.6141256 C19.3874443,6.97164663 21.547922,4.83517428 24.2200917,4.83517428 L27.7450816,4.83517428 L26.4942787,6.07207933 C26.1531507,6.40941707 26.1531507,6.91542368 26.4942787,7.25276142 C26.6648427,7.42143029 26.8922614,7.47765325 27.1196801,7.47765325 C27.3470988,7.47765325 27.5745175,7.42143029 27.7450816,7.25276142 L31.0426527,3.99182993 L27.7450816,0.730898438 C27.4039535,0.393560697 26.8922614,0.393560697 26.5511334,0.730898438 C26.2100053,1.06823618 26.2100053,1.57424279 26.5511334,1.91158053 L27.8019362,3.14848558 L24.2769464,3.14848558 C20.6951018,3.14848558 17.7386587,6.01585637 17.7386587,9.6141256 C17.7386587,12.2566046 15.578181,14.3930769 12.9060113,14.3930769 L9.94956819,14.3930769 C9.49473078,14.3930769 9.09674806,14.7866376 9.09674806,15.2364213 C9.09674806,15.6862049 9.43787611,16.0797656 9.89271351,16.0797656 Z" id="Shape"></path>
                                    <path d="M20.9793752,23.2200811 C20.6382472,23.5574189 20.6382472,24.0634255 20.9793752,24.4007632 L22.2301781,25.6376683 L12.8491566,25.6376683 C10.1769869,25.6376683 8.01650922,23.5011959 8.01650922,20.8587169 C8.01650922,17.3166707 5.11692078,14.3930769 1.47822156,14.3930769 L1.30765753,14.3930769 C0.85282013,14.3930769 0.454837403,14.7866376 0.454837403,15.2364213 C0.454837403,15.6862049 0.85282013,16.0797656 1.30765753,16.0797656 L1.47822156,16.0797656 C4.1503913,16.0797656 6.31086896,18.216238 6.31086896,20.8587169 C6.31086896,24.4007632 9.21045741,27.324357 12.8491566,27.324357 L22.2301781,27.324357 L20.9793752,28.561262 C20.6382472,28.8985998 20.6382472,29.4046064 20.9793752,29.7419441 C21.1499392,29.910613 21.3773579,29.9668359 21.6047766,29.9668359 C21.8321953,29.9668359 22.059614,29.910613 22.2301781,29.7419441 L25.5277492,26.4810126 L22.1733234,23.2200811 C21.8321953,22.8827434 21.3205033,22.8827434 20.9793752,23.2200811 Z" id="Shape"></path>
                                </g>
                                <ellipse id="Oval" fill="#F8F2EA" fill-rule="nonzero" cx="237.709841" cy="208.209777" rx="54.6761336" ry="53.2097767"></ellipse>
                                <g id="trusted" transform="translate(214.382022, 181.000000)" fill-rule="nonzero" fill="#77A240">
                                    <path d="M37.7662878,17.2620338 C37.7874014,17.2363871 37.7950488,17.2212622 37.7950488,17.2212622 L36.1945732,16.1987675 C36.3180959,16.0097059 36.8395348,15.3481545 38.3619567,14.7742291 C39.4293561,14.3718566 40.5768042,14.3527038 42.0294848,14.3283724 C42.5591529,14.3194947 43.1593937,14.3094662 43.805519,14.2788054 C44.3308647,14.2532409 44.7776579,14.6547914 44.8029277,15.1744644 C44.8282806,15.6942195 44.4227171,16.1358017 43.8972051,16.1607908 C43.2214875,16.1929312 42.6052869,16.2032885 42.0618201,16.2123306 C40.7462947,16.2342782 39.7958512,16.2502251 39.0407499,16.5348862 C38.0699409,16.900926 37.7692803,17.2584991 37.7662878,17.2620338 Z" id="Shape"></path>
                                    <path d="M15.5077562,15.9422191 C14.3886535,15.9422191 13.3146873,15.412682 12.5092126,14.4491253 C12.2087182,14.0895793 12.2195244,13.5667828 12.5343993,13.2196491 C13.7823447,11.8442668 13.9004644,10.0790064 13.9864149,8.79009915 C14.0472619,7.88087703 14.0951415,7.16285377 14.527388,6.66956728 C15.0597993,6.06218618 15.7873864,5.62323436 16.6300177,5.11506953 C17.1826281,4.78182783 17.8089699,4.40395114 18.5009798,3.91066464 C19.0938225,3.48807076 19.5878303,3.05511959 20.0656289,2.63655354 C20.9649509,1.84849527 21.7415814,1.16787334 22.7490482,0.982510728 C25.2370422,0.525145943 30.3728783,1.42302437 35.2528577,3.16806337 C36.0447,3.34183568 37.3805078,2.71415101 39.0646897,1.92190051 C39.6912808,1.62721094 40.4015781,1.29314723 41.1734705,0.957603911 C41.6546772,0.748320887 42.2171795,0.964755373 42.4290634,1.44110852 C42.6406979,1.91737947 42.4218316,2.47330292 41.9401261,2.68275034 C41.1943347,3.00678556 40.4976698,3.33451982 39.8830486,3.62361974 C37.7428467,4.63024971 36.1963188,5.35772605 34.7376532,4.98330178 C34.7087259,4.97590372 34.6800481,4.96710824 34.6520352,4.95699755 C29.5151185,3.11348209 24.9507621,2.4940175 23.0975885,2.83506827 C22.6097318,2.92483145 22.0447358,3.42000856 21.3292848,4.04687123 C20.8401813,4.47538356 20.2857421,4.96118979 19.6151782,5.43918696 C18.8637344,5.97488902 18.204226,6.37265829 17.6222727,6.72373755 C16.9129728,7.15151007 16.3474781,7.49264305 16.0048396,7.86197086 C15.946237,8.03886681 15.9125716,8.54177079 15.8876344,8.91430443 C15.8017669,10.2003346 15.6775792,12.0594682 14.5284686,13.7475421 C14.836943,13.9518109 15.2352747,14.1028136 15.7065896,14.0458485 C16.7931907,13.9136698 17.9396413,12.7267736 18.9432012,10.6987176 C19.064064,10.2706984 19.5066179,10.0790886 20.039611,9.84818677 C20.3406042,9.71781643 20.7592182,9.54108489 21.2834833,9.32292419 C22.1826391,8.94866433 23.0824598,8.58188474 23.0824598,8.58188474 C23.5688202,8.38386321 24.1259194,8.61295661 24.3263322,9.0938308 C24.526828,9.57486939 24.2950774,10.125532 23.8085508,10.3238823 C22.5413205,10.8405138 21.1420057,11.4224949 20.5824959,11.6706588 C18.9436168,14.9028732 17.1611821,15.7671315 15.9392546,15.9158326 C15.7949507,15.9335058 15.6509794,15.9422191 15.5077562,15.9422191 Z" id="Shape"></path>
                                    <path d="M34.248716,21.3805362 C33.4429919,21.3805362 32.5234707,21.2515633 31.4850817,20.9517773 C28.647633,20.1324006 26.8373516,18.9287355 26.7616254,18.8779354 C26.3264695,18.5855475 26.2132542,17.9995386 26.5089274,17.5692178 C26.8043513,17.1391437 27.3957808,17.0269397 27.8312691,17.3185879 C27.8577026,17.3361788 29.495418,18.4144056 32.0190723,19.1430327 C34.6609295,19.9061842 36.303466,19.2943643 36.7113571,18.4034729 C36.7671335,18.2817336 36.9064498,17.8985139 36.6186734,17.611469 C30.7260735,16.8186431 28.801413,14.6644089 27.2507289,12.9287408 C26.1731883,11.7224453 25.3219121,10.769739 23.2654996,10.3782992 C22.7488819,10.2798227 22.4106491,9.78587863 22.5100658,9.27500118 C22.6096487,8.76412372 23.1091428,8.43071762 23.6257604,8.52796107 C26.3199858,9.04089354 27.5191373,10.3832312 28.6788047,11.6811805 C30.180778,13.3623496 31.7338728,15.1007303 37.1148425,15.7755982 C37.2539926,15.7930248 37.3875734,15.840619 37.5058593,15.9150106 C38.6198914,16.6150319 39.0070845,17.9577806 38.4474085,19.1805163 C37.9245565,20.322202 36.5550833,21.3805362 34.248716,21.3805362 Z" id="Shape"></path>
                                    <path d="M31.8775116,25.2163505 C31.4059474,25.2163505 30.8946497,25.1549465 30.3443667,25.0173425 C27.1246293,24.2120221 24.619096,22.4182381 24.5139438,22.3422846 C24.0891785,22.0352649 23.996578,21.4457214 24.3071304,21.0256758 C24.6175998,20.6058767 25.2129362,20.5143051 25.6377014,20.820585 L25.6377014,20.820585 C25.6606437,20.8370251 27.9618574,22.4778336 30.8116085,23.190596 C32.3886431,23.5848306 33.375495,23.0795428 33.7731617,22.4749566 C34.0576963,22.0424164 34.0562832,21.5684471 33.7695874,21.2071749 C33.4447375,20.7978154 33.5169726,20.2055592 33.9308486,19.8843188 C34.345057,19.5632428 34.9438846,19.6345108 35.2685682,20.0437882 C36.0579168,21.0385813 36.0979827,22.3960439 35.3705618,23.5021367 C34.7770541,24.404865 33.5919507,25.2163505 31.8775116,25.2163505 Z" id="Shape"></path>
                                    <path d="M28.4662558,28.0934577 C28.1685045,28.0934577 27.8664307,28.0636189 27.5643569,28.0026259 C25.6106029,27.6081447 23.2477941,26.3094556 23.1482112,26.2542989 C22.6889493,26.0002987 22.5248619,25.4262089 22.7816329,24.9722143 C23.0384871,24.5181376 23.6185286,24.3558734 24.0778736,24.609627 L24.0778736,24.609627 C24.0997353,24.6216283 26.2844086,25.8211833 27.9454819,26.1564801 C28.7562765,26.3202239 29.5541038,26.0940897 30.0785351,25.5518116 C30.4062112,25.2128158 30.5688023,24.800497 30.4927436,24.5010398 C30.3644827,23.9964096 30.674204,23.4845458 31.1846704,23.3577923 C31.6940562,23.2309566 32.2125857,23.5372364 32.3407635,24.042031 C32.5797459,24.9824072 32.2489111,26.0336722 31.4557388,26.8539531 C30.6790252,27.6572185 29.6041446,28.0934577 28.4662558,28.0934577 Z" id="Shape"></path>
                                    <path d="M24.1502749,29.6599568 C22.6714101,29.6599568 20.960961,29.1398728 19.4932348,28.1800973 C19.0544216,27.8931346 18.9338913,27.3086053 19.2241614,26.8745033 C19.5145147,26.4405657 20.1053623,26.3213747 20.544425,26.6084196 C22.117719,27.6371616 24.1949126,28.0632079 25.2738663,27.578388 C25.6605606,27.4046157 25.8583965,27.1395184 25.9153367,26.7188974 C25.9852442,26.2030879 26.4654534,25.8402539 26.986061,25.9102067 C27.5074999,25.9793375 27.8736625,26.453389 27.8038381,26.9690341 C27.6604486,28.0277794 27.0419206,28.8533211 26.0624667,29.2937526 C25.5128487,29.5407657 24.8579122,29.6599568 24.1502749,29.6599568 Z" id="Shape"></path>
                                    <path d="M5.6728192,18.301133 C5.42037064,18.301133 5.1683377,18.2025744 4.98089236,18.0069367 C3.81050194,16.7848586 2.59281378,15.9771544 0.637480408,15.1262948 C0.155858099,14.9166007 -0.0627588614,14.3606773 0.149291278,13.8844063 C0.361341418,13.4080532 0.923594316,13.1918653 1.4051335,13.4016415 C3.58473629,14.3502378 5.02145703,15.3091913 6.36441354,16.7112068 C6.72608745,17.0890013 6.70987821,17.6853674 6.32775571,18.0431872 C6.14363535,18.2155621 5.9079779,18.301133 5.6728192,18.301133 Z" id="Shape"></path>
                                    <path d="M11.9038182,5.04043128 C10.1511419,5.04051348 8.17527684,3.98357667 5.85669019,2.6321147 C5.40341328,2.3679216 5.25245951,1.79046157 5.5197042,1.34213886 C5.78686577,0.893898356 6.37106348,0.744704056 6.82417415,1.00889716 C9.05315278,2.30791508 11.1596893,3.44532638 12.4368945,3.08726007 C14.9009487,2.39850026 19.3352986,1.37255313 21.3490684,2.2421545 C21.8312726,2.45036892 22.051552,3.00579916 21.8409981,3.48256331 C21.6303611,3.95932746 21.0685238,4.17732376 20.5866521,3.96902715 C19.8071123,3.63241521 17.34098,3.67441978 12.9552577,4.90060786 C12.6135336,4.99596069 12.2632478,5.04043128 11.9038182,5.04043128 Z" id="Shape"></path>
                                    <path d="M18.371389,29.0502741 C18.2598362,29.0502741 18.1464546,29.0452598 18.0316599,29.0350669 C16.5414903,28.9028882 15.3981152,27.9553605 15.2511514,26.7310631 C15.1892238,26.2144316 15.562452,25.7458875 16.0850546,25.6844835 C16.6076572,25.6248058 17.0814658,25.9923252 17.1433934,26.5091211 C17.179885,26.8132638 17.6645829,27.1107482 18.2019817,27.1583424 C18.5102898,27.1853864 19.2520081,27.1675489 19.4862524,26.4113023 C19.6901564,25.7527923 19.606367,25.1551109 19.2727891,24.8886984 C18.9859271,24.6595228 18.5148616,24.6980749 17.9798735,24.9935043 C17.520861,25.2470113 16.9401545,25.0846649 16.6834666,24.6304238 C16.4268618,24.1762648 16.5911986,23.6022572 17.0506267,23.3484214 C18.2814485,22.6686215 19.5597343,22.6961587 20.4697794,23.4225664 C21.4267065,24.1865399 21.7478989,25.5431805 21.3082544,26.9628691 C20.9074289,28.256955 19.7742782,29.0502741 18.371389,29.0502741 Z" id="Shape"></path>
                                    <path d="M6.81910357,22.0655148 C5.81737239,22.0655148 4.81913244,21.4568185 4.26976381,20.508551 C3.7358563,19.587081 3.73610567,18.5118957 4.27051193,17.6324302 C4.98712669,16.4531787 6.00631397,15.7328538 7.29989463,15.4915947 C8.58325101,15.2522263 9.84524443,15.6949593 10.5948595,16.6465148 C11.2408186,17.4666313 11.3646739,18.5150193 10.9264425,19.4512032 L10.0618664,19.0552424 L10.9264425,19.4512032 C10.1461545,21.1169185 8.69696507,22.0453756 6.84562023,22.0654326 C6.83672592,22.0655148 6.82791475,22.0655148 6.81910357,22.0655148 Z M7.98118156,17.3120118 C7.87702678,17.3120118 7.76746893,17.3217115 7.65308987,17.3430837 C6.89599356,17.4843867 6.34022436,17.884622 5.90373856,18.6028918 C5.67431544,18.9803575 5.78769701,19.3381772 5.92294028,19.5717917 C6.12825735,19.9260768 6.50389615,20.1812278 6.8185217,20.1812278 C6.82059981,20.1812278 6.82259479,20.1812278 6.82475602,20.1812278 C7.94726684,20.1692265 8.72331548,19.6713368 9.19720723,18.6592815 C9.37226705,18.2857615 9.23627566,17.9883593 9.09155622,17.8044763 C8.89879092,17.5595182 8.50760787,17.3120118 7.98118156,17.3120118 Z" id="Shape"></path>
                                    <path d="M14.2335435,28.1634927 C13.5604859,28.1634927 12.8666472,27.9856104 12.278127,27.6245026 C11.0793081,26.888724 10.6053332,25.60442 11.010398,24.1890059 C11.1536212,23.6884035 11.6802969,23.3971664 12.186524,23.5390448 C12.6928342,23.6806767 12.9870112,24.2014182 12.843788,24.7021028 C12.6714713,25.304223 12.8151101,25.7363522 13.2828507,26.0234793 C13.8743633,26.3865599 14.7017828,26.3378148 15.018819,26.054058 C15.8275355,25.3301163 16.3285257,24.3419814 16.5080743,23.1167798 C16.5813068,22.6171638 16.3396644,22.0601718 15.9333527,21.792444 C15.6363495,21.5963953 15.321059,21.6021494 14.9695262,21.8101172 C14.5178287,22.0769407 13.9327997,21.9315276 13.6629782,21.484849 C13.3929904,21.0382525 13.5403698,20.459806 13.9919011,20.1928181 C14.9804987,19.608371 16.0731678,19.6202079 16.9903616,20.2246298 C18.0087176,20.895963 18.5727161,22.1668683 18.3939157,23.3871379 C18.1490315,25.0577853 17.4437216,26.4250298 16.2976035,27.4509769 C15.7700966,27.92322 15.0158265,28.1634927 14.2335435,28.1634927 Z" id="Shape"></path>
                                    <path d="M10.6585328,25.7532033 C9.9435805,25.7532033 9.18997541,25.4991209 8.51400845,24.8951923 C7.92873011,24.3721491 7.55633316,23.6764022 7.46539515,22.9361026 C7.36265349,22.1004501 7.6159333,21.2636468 8.19772041,20.5163601 C9.04492348,19.428187 9.80393164,18.6131669 10.968919,17.9123236 L10.968919,17.9123236 C12.1508637,17.2013696 13.5917406,17.3642093 14.5551515,18.3167512 C15.5730088,19.3232989 15.7074208,20.824284 14.8977068,22.1407285 L14.8144994,22.2763596 C14.3751042,22.9942185 13.7732842,23.9774213 12.7584193,24.9261819 C12.2173631,25.4321273 11.4624281,25.7532033 10.6585328,25.7532033 Z M11.959179,19.5221425 C11.0426503,20.0735449 10.4395833,20.7257253 9.70759055,21.6658549 C8.95930543,22.6269457 9.58257158,23.3106091 9.79137987,23.4971225 C10.1184741,23.7894282 10.8356707,24.1306434 11.4493775,23.557129 C12.276797,22.7835381 12.7800317,21.9613665 13.1844315,21.3007193 L13.2695508,21.1618001 C13.7845891,20.3244214 13.3525088,19.7924184 13.2077063,19.649307 C12.9407941,19.3852783 12.4726379,19.2133144 11.959179,19.5221425 L11.959179,19.5221425 Z" id="Shape"></path>
                                </g>
                                <path d="M91.9063362,299.288084 C41.1447743,299.284079 -0.00269880905,258.563324 0,208.334859 C0.00269880905,158.106394 41.1545476,117.389969 91.9161097,117.391304 C142.677672,117.39264 183.827333,158.111229 183.827333,208.339694 C183.770769,258.548733 142.64827,299.236119 91.9063362,299.288084 L91.9063362,299.288084 Z M91.9063362,155.673911 C62.5070704,155.673911 38.6742566,179.256432 38.6742566,208.346947 C38.6742566,237.437462 62.5070704,261.019984 91.9063362,261.019984 C121.305602,261.019984 145.138416,237.437462 145.138416,208.346947 C145.110136,179.266857 121.295063,155.698644 91.9063362,155.666657 L91.9063362,155.673911 Z" id="Shape" fill="#65C9D5" fill-rule="nonzero"></path>
                                <path d="M237.004043,299.288085 C186.241526,299.288085 145.090376,258.569103 145.090376,208.339694 C145.090376,158.110286 186.241526,117.391304 237.004043,117.391304 C287.766559,117.391304 328.917709,158.110286 328.917709,208.339694 C328.861153,258.545905 287.743114,299.232122 237.004043,299.288085 L237.004043,299.288085 Z M237.004043,155.673911 C207.604777,155.673911 183.771963,179.256433 183.771963,208.346948 C183.771963,237.437463 207.604777,261.019985 237.004043,261.019985 C266.403309,261.019985 290.236122,237.437463 290.236122,208.346948 C290.207843,179.266857 266.39277,155.698644 237.004043,155.666658 L237.004043,155.673911 Z" id="Shape" fill="#6E7F89" fill-rule="nonzero"></path>
                                <ellipse id="Oval" fill="#F8F2EA" fill-rule="nonzero" cx="162.254977" cy="87.4844526" rx="53.0414939" ry="52.4844526"></ellipse>
                                <g id="simple" transform="translate(147.640449, 58.000000)" fill-rule="nonzero" fill="#77A240">
                                    <path d="M4.20362047,0.326381238 C3.9245459,0.329223807 3.65821312,0.442325381 3.46395815,0.640488168 C3.26970319,0.838650956 3.16366384,1.1054125 3.16946452,1.38134127 L3.16946452,16.3445498 C1.56860189,16.7991162 0.382686361,18.2611003 0.382686361,19.9830855 C0.382686361,21.704834 1.56893631,23.1668391 3.16946452,23.6216211 L3.16946452,28.2505273 C3.1641345,28.6232194 3.36214441,28.9698788 3.68767238,29.157763 C4.01320034,29.3456472 4.41581231,29.3456472 4.74134027,29.157763 C5.06686824,28.9698788 5.26487815,28.6232194 5.25954813,28.2505273 L5.25954813,23.6216211 C6.86007634,23.1668391 8.04632629,21.704834 8.04632629,19.9830855 C8.04632629,18.2611003 6.8604111,16.7991162 5.25954813,16.3445498 L5.25954813,1.38134127 C5.26542799,1.10167863 5.15642596,0.831602039 4.95743782,0.632796242 C4.75844967,0.433990445 4.48647081,0.323435278 4.20362047,0.326381238 Z M15.3507331,0.326381238 C15.0716585,0.329223807 14.8053257,0.442325381 14.6110708,0.640488168 C14.4168158,0.838650956 14.3107765,1.1054125 14.3165771,1.38134127 L14.3165771,6.01024752 C12.7157145,6.46481386 11.529799,7.92679797 11.529799,9.64878313 C11.529799,11.3705316 12.7160489,12.8325368 14.3165771,13.2873187 L14.3165771,28.2505273 C14.3112471,28.6232194 14.509257,28.9698788 14.834785,29.157763 C15.160313,29.3456472 15.5629249,29.3456472 15.8884529,29.157763 C16.2139809,28.9698788 16.4119908,28.6232194 16.4066608,28.2505273 L16.4066608,13.2873187 C18.007189,12.8325368 19.1934389,11.3705316 19.1934389,9.64878313 C19.1934389,7.92679797 18.0075237,6.46481386 16.4066608,6.01024752 L16.4066608,1.38134127 C16.4125406,1.10167863 16.3035386,0.831602039 16.1045504,0.632796242 C15.9055623,0.433990445 15.6335834,0.323435278 15.3507331,0.326381238 Z M26.4978457,0.326381238 C26.2187711,0.329223807 25.9524384,0.442325381 25.7581834,0.640488168 C25.5639284,0.838650956 25.4578891,1.1054125 25.4636898,1.38134127 L25.4636898,16.3445498 C23.8628324,16.799109 22.6769116,18.2610717 22.6769116,19.9830855 C22.6769116,21.704834 23.8631616,23.1668391 25.4636898,23.6216211 L25.4636898,28.2505273 C25.4583597,28.6232194 25.6563697,28.9698788 25.9818976,29.157763 C26.3074256,29.3456472 26.7100375,29.3456472 27.0355655,29.157763 C27.3610935,28.9698788 27.5591034,28.6232194 27.5537734,28.2505273 L27.5537734,23.6216211 C29.1543016,23.1668391 30.3405515,21.704834 30.3405515,19.9830855 C30.3405515,18.2610717 29.1546311,16.799109 27.5537734,16.3445498 L27.5537734,1.38134127 C27.5596532,1.10167863 27.4506512,0.831602039 27.2516631,0.632796242 C27.0526749,0.433990445 26.7806961,0.323435278 26.4978457,0.326381238 Z M15.3616189,7.92639941 C16.3359212,7.92639941 17.1033553,8.68528167 17.1033553,9.64878313 C17.1033553,10.6122846 16.3359212,11.3711668 15.3616189,11.3711668 C14.3873171,11.3711668 13.6198826,10.6122846 13.6198826,9.64878313 C13.6198826,8.68528167 14.3873171,7.92639941 15.3616189,7.92639941 Z M4.21450632,18.2607017 C5.18880856,18.2607017 5.95624267,19.019584 5.95624267,19.9830855 C5.95624267,20.9465869 5.18880856,21.7054692 4.21450632,21.7054692 C3.24020444,21.7054692 2.47276998,20.9465869 2.47276998,19.9830855 C2.47276998,19.019584 3.24020444,18.2607017 4.21450632,18.2607017 Z M26.5087316,18.2607017 C27.4830495,18.2607017 28.2504679,19.0195496 28.2504679,19.9830855 C28.2504679,20.9465869 27.4830338,21.7054692 26.5087316,21.7054692 C25.5344297,21.7054692 24.7669952,20.9465869 24.7669952,19.9830855 C24.7669952,19.0195496 25.534414,18.2607017 26.5087316,18.2607017 Z" id="Shape" transform="translate(15.361619, 14.812500) rotate(-270.000000) translate(-15.361619, -14.812500) "></path>
                                </g>
                                <path d="M162.517799,176.036161 C113.392734,176.02815 73.5748062,136.617566 73.5802036,88.0084114 C73.585601,39.3992565 113.412279,-0.00266869756 162.537346,1.32820617e-06 C211.662412,0.00267135397 251.484715,39.4089256 251.484716,88.0180807 C251.428148,136.611583 211.627055,175.988196 162.517799,176.036161 Z M162.517799,38.2753533 C134.754075,38.2753533 112.24713,60.545931 112.24713,88.0180807 C112.24713,115.490231 134.754075,137.760808 162.517799,137.760808 C190.281523,137.760808 212.788469,115.490231 212.788469,88.0180807 C212.756154,60.5591865 190.268127,38.3073287 162.517799,38.2753533 L162.517799,38.2753533 Z" id="Shape" fill="#F98D1B" fill-rule="nonzero"></path>
                                <path d="M134.428384,129.209237 L115.978213,163.045607" id="Shape" stroke="#65C9D5"></path>
                                <path d="M183.819427,205.302989 L144.434139,205.448054" id="Shape" stroke="#65C9D5"></path>
                                <path d="M192.256514,128.193783 L211.769568,161.319335" id="Shape"></path>
                                <path d="M193.792041,126.421405 C196.328586,130.936455 209.032119,152.920142 214.59171,160.535117 C213.007715,161.406722 185.026299,176.435083 184.15317,206.688963 C184.112336,206.764205 144.075758,206.688963 144.075758,206.688963 C143.913495,204.922816 142.526148,178.046529 114.493289,163.015159 C114.467382,162.984084 133.408515,127.73808 133.408515,127.73808 C135.239768,128.288568 168.788091,144.159338 193.792041,126.421405 Z" id="Shape" fill="#FFFFFF" fill-rule="nonzero"></path>
                                <path d="M137.007125,153.778626 L140.18719,164.608016 L143.389649,164.608016 L144.486996,160.798905 C144.778128,159.78019 145.002077,158.78362 145.20363,157.432715 L145.24842,157.432715 C145.472368,158.761474 145.673921,159.735898 145.942659,160.798905 L146.972821,164.608016 L150.17528,164.608016 L153.534504,153.778626 L150.197675,153.778626 L149.257093,158.074948 C149.01075,159.315124 148.786802,160.533153 148.630038,161.773329 L148.585248,161.773329 C148.3613,160.533153 148.070167,159.315124 147.779035,158.097094 L146.681688,153.778626 L143.99431,153.778626 L142.829779,158.22997 C142.561041,159.292978 142.247514,160.533153 142.023565,161.773329 L141.978776,161.773329 C141.799617,160.533153 141.575669,159.33727 141.351721,158.207824 L140.478323,153.778626 L137.007125,153.778626 Z" id="w" fill="#77A240"></path>
                                <path d="M154.736359,153.778626 L157.916424,164.608016 L161.118883,164.608016 L162.21623,160.798905 C162.507362,159.78019 162.731311,158.78362 162.932864,157.432715 L162.977654,157.432715 C163.201602,158.761474 163.403155,159.735898 163.671893,160.798905 L164.702055,164.608016 L167.904515,164.608016 L171.263738,153.778626 L167.926909,153.778626 L166.986327,158.074948 C166.739984,159.315124 166.516036,160.533153 166.359272,161.773329 L166.314482,161.773329 C166.090534,160.533153 165.799401,159.315124 165.508269,158.097094 L164.410922,153.778626 L161.723544,153.778626 L160.559013,158.22997 C160.290275,159.292978 159.976748,160.533153 159.752799,161.773329 L159.70801,161.773329 C159.528851,160.533153 159.304903,159.33727 159.080955,158.207824 L158.207557,153.778626 L154.736359,153.778626 Z" id="w" fill="#77A240"></path>
                                <path d="M172.465593,153.778626 L175.645658,164.608016 L178.848118,164.608016 L179.945464,160.798905 C180.236596,159.78019 180.460545,158.78362 180.662098,157.432715 L180.706888,157.432715 C180.930836,158.761474 181.132389,159.735898 181.401127,160.798905 L182.431289,164.608016 L185.633749,164.608016 L188.992972,153.778626 L185.656143,153.778626 L184.715561,158.074948 C184.469218,159.315124 184.24527,160.533153 184.088506,161.773329 L184.043716,161.773329 C183.819768,160.533153 183.528635,159.315124 183.237503,158.097094 L182.140156,153.778626 L179.452778,153.778626 L178.288247,158.22997 C178.019509,159.292978 177.705982,160.533153 177.482033,161.773329 L177.437244,161.773329 C177.258085,160.533153 177.034137,159.33727 176.810189,158.207824 L175.936791,153.778626 L172.465593,153.778626 Z" id="w" fill="#77A240"></path>
                            </g>
                        </g>
                    </g>
                </g>
                <path d="M273.011719,107 L268.078125,107 L268.078125,98.4335938 L273.011719,98.4335938 L273.011719,99.921875 L269.894531,99.921875 L269.894531,101.802734 L272.794922,101.802734 L272.794922,103.291016 L269.894531,103.291016 L269.894531,105.5 L273.011719,105.5 L273.011719,107 Z M280.24354,107 L278.45643,107 L278.45643,103.173828 C278.45643,102.70117 278.372447,102.346681 278.204477,102.110352 C278.036508,101.874022 277.768932,101.755859 277.401743,101.755859 C276.90174,101.755859 276.540416,101.92285 276.317758,102.256836 C276.095101,102.590822 275.983774,103.144527 275.983774,103.917969 L275.983774,107 L274.196665,107 L274.196665,100.449219 L275.561899,100.449219 L275.802133,101.287109 L275.901743,101.287109 C276.100962,100.970702 276.375374,100.731446 276.724985,100.569336 C277.074596,100.407226 277.472053,100.326172 277.917368,100.326172 C278.67909,100.326172 279.25721,100.532225 279.651743,100.944336 C280.046276,101.356447 280.24354,101.951168 280.24354,102.728516 L280.24354,107 Z M283.338642,103.4375 L284.117939,102.441406 L285.951923,100.449219 L287.967548,100.449219 L285.365986,103.291016 L288.125751,107 L286.063251,107 L284.176532,104.345703 L283.408954,104.960938 L283.408954,107 L281.621845,107 L281.621845,97.8828125 L283.408954,97.8828125 L283.408954,101.949219 L283.315204,103.4375 L283.338642,103.4375 Z M291.074369,101.597656 C290.695461,101.597656 290.398589,101.717772 290.183744,101.958008 C289.968899,102.198243 289.845853,102.53906 289.814603,102.980469 L292.322416,102.980469 C292.314603,102.53906 292.19937,102.198243 291.976713,101.958008 C291.754055,101.717772 291.453277,101.597656 291.074369,101.597656 Z M291.326322,107.117188 C290.271629,107.117188 289.447419,106.826175 288.853666,106.244141 C288.259913,105.662106 287.963041,104.837896 287.963041,103.771484 C287.963041,102.673823 288.237452,101.825198 288.786283,101.225586 C289.335114,100.625974 290.093895,100.326172 291.06265,100.326172 C291.988436,100.326172 292.709132,100.589841 293.22476,101.117188 C293.740387,101.644534 293.998197,102.373042 293.998197,103.302734 L293.998197,104.169922 L289.773588,104.169922 C289.793119,104.677737 289.943508,105.074217 290.22476,105.359375 C290.506011,105.644533 290.900538,105.787109 291.408353,105.787109 C291.802886,105.787109 292.17593,105.746094 292.527494,105.664062 C292.879058,105.582031 293.246242,105.451173 293.629056,105.271484 L293.629056,106.654297 C293.316555,106.810548 292.982574,106.926757 292.627103,107.00293 C292.271633,107.079102 291.838043,107.117188 291.326322,107.117188 Z M296.776893,107 L294.989783,107 L294.989783,97.8828125 L296.776893,97.8828125 L296.776893,107 Z M300.95012,105.693359 C301.262622,105.693359 301.637618,105.625001 302.07512,105.488281 L302.07512,106.818359 C301.629805,107.017579 301.082936,107.117188 300.434495,107.117188 C299.719648,107.117188 299.199145,106.936525 298.872972,106.575195 C298.546798,106.213865 298.383714,105.671879 298.383714,104.949219 L298.383714,101.791016 L297.528245,101.791016 L297.528245,101.035156 L298.51262,100.4375 L299.028245,99.0546875 L300.170823,99.0546875 L300.170823,100.449219 L302.004808,100.449219 L302.004808,101.791016 L300.170823,101.791016 L300.170823,104.949219 C300.170823,105.203126 300.242111,105.390624 300.38469,105.511719 C300.527269,105.632813 300.715744,105.693359 300.95012,105.693359 Z" id="Enkelt" fill="#4E4E4E"></path>
                <path d="M333.382812,230 L331.566406,230 L331.566406,222.945312 L329.240234,222.945312 L329.240234,221.433594 L335.708984,221.433594 L335.708984,222.945312 L333.382812,222.945312 L333.382812,230 Z M339.483774,223.326172 C339.725963,223.326172 339.927133,223.34375 340.08729,223.378906 L339.952524,225.054688 C339.807992,225.015625 339.632213,224.996094 339.42518,224.996094 C338.854865,224.996094 338.410533,225.142577 338.092172,225.435547 C337.773811,225.728517 337.614633,226.138669 337.614633,226.666016 L337.614633,230 L335.827524,230 L335.827524,223.449219 L337.18104,223.449219 L337.444711,224.550781 L337.532602,224.550781 C337.735728,224.183592 338.010139,223.887696 338.355844,223.663086 C338.701549,223.438475 339.077522,223.326172 339.483774,223.326172 Z M341.998798,226.712891 C341.998798,227.361331 342.105242,227.851561 342.318134,228.183594 C342.531026,228.515627 342.877702,228.681641 343.358173,228.681641 C343.834738,228.681641 344.177508,228.516603 344.386493,228.186523 C344.595479,227.856444 344.69997,227.365238 344.69997,226.712891 C344.69997,226.06445 344.594502,225.578127 344.383564,225.253906 C344.172625,224.929686 343.826925,224.767578 343.346454,224.767578 C342.869889,224.767578 342.526143,224.928709 342.315204,225.250977 C342.104266,225.573244 341.998798,226.060544 341.998798,226.712891 Z M346.528095,226.712891 C346.528095,227.779302 346.246848,228.613278 345.684345,229.214844 C345.121842,229.816409 344.338647,230.117188 343.334736,230.117188 C342.705826,230.117188 342.151144,229.979494 341.670673,229.704102 C341.190202,229.42871 340.821065,229.033206 340.563251,228.517578 C340.305437,228.001951 340.176532,227.400394 340.176532,226.712891 C340.176532,225.642573 340.455826,224.81055 341.014423,224.216797 C341.57302,223.623044 342.358168,223.326172 343.369892,223.326172 C343.998801,223.326172 344.553483,223.462889 345.033954,223.736328 C345.514425,224.009767 345.883562,224.402341 346.141376,224.914062 C346.39919,225.425784 346.528095,226.025387 346.528095,226.712891 Z M348.861478,230 L346.365385,223.449219 L348.234525,223.449219 L349.50015,227.181641 C349.640776,227.654299 349.728666,228.10156 349.763822,228.523438 L349.798978,228.523438 C349.81851,228.148436 349.906399,227.701174 350.06265,227.181641 L351.322416,223.449219 L353.191556,223.449219 L350.695463,230 L348.861478,230 Z M360.517127,230.117188 C359.981968,230.117188 359.494669,230.018556 359.055213,229.821289 C358.615758,229.624022 358.25541,229.320315 357.974158,228.910156 C357.591344,229.36719 357.207559,229.682616 356.822791,229.856445 C356.438024,230.030274 355.937052,230.117188 355.319862,230.117188 C354.690952,230.117188 354.186074,229.932619 353.805213,229.563477 C353.424352,229.194334 353.233924,228.687503 353.233924,228.042969 C353.233924,227.347653 353.47025,226.834963 353.942908,226.504883 C354.415567,226.174803 355.122591,225.992188 356.064002,225.957031 L357.183143,225.921875 L357.183143,225.429688 C357.183143,225.160155 357.09623,224.960938 356.922401,224.832031 C356.748572,224.703124 356.511269,224.638672 356.210487,224.638672 C355.663609,224.638672 355.067912,224.789061 354.423377,225.089844 L353.843299,223.90625 C354.581584,223.511717 355.405795,223.314453 356.315955,223.314453 C357.202679,223.314453 357.870641,223.57031 358.319862,224.082031 C358.577675,223.83203 358.875524,223.643555 359.213416,223.516602 C359.551309,223.389648 359.954625,223.326172 360.423377,223.326172 C361.286663,223.326172 361.968297,223.594724 362.468299,224.131836 C362.968302,224.668948 363.218299,225.392574 363.218299,226.302734 L363.218299,227.169922 L358.981971,227.169922 C359.001502,227.677737 359.151891,228.074217 359.433143,228.359375 C359.714394,228.644533 360.108922,228.787109 360.616737,228.787109 C361.382365,228.787109 362.124546,228.615236 362.843299,228.271484 L362.843299,229.654297 C362.534704,229.806641 362.200723,229.921875 361.841346,230 C361.481969,230.078125 361.040567,230.117188 360.517127,230.117188 Z M357.183143,226.964844 L356.521033,226.988281 C356.036656,227.003906 355.673378,227.096679 355.43119,227.266602 C355.189001,227.436524 355.067908,227.699217 355.067908,228.054688 C355.067908,228.558596 355.341343,228.810547 355.888221,228.810547 C356.282754,228.810547 356.597204,228.691407 356.83158,228.453125 C357.065957,228.214843 357.183143,227.898439 357.183143,227.503906 L357.183143,226.964844 Z M360.388221,224.597656 C359.540561,224.597656 359.083534,225.058589 359.017127,225.980469 L361.536658,225.980469 C361.528846,225.542967 361.421425,225.203126 361.214393,224.960938 C361.007361,224.718749 360.731973,224.597656 360.388221,224.597656 Z M367.866136,223.326172 C368.108324,223.326172 368.309494,223.34375 368.469651,223.378906 L368.334886,225.054688 C368.190354,225.015625 368.014574,224.996094 367.807542,224.996094 C367.237227,224.996094 366.792895,225.142577 366.474534,225.435547 C366.156173,225.728517 365.996995,226.138669 365.996995,226.666016 L365.996995,230 L364.209886,230 L364.209886,223.449219 L365.563401,223.449219 L365.827073,224.550781 L365.914964,224.550781 C366.11809,224.183592 366.392501,223.887696 366.738206,223.663086 C367.083911,223.438475 367.459884,223.326172 367.866136,223.326172 Z M371.03155,230.117188 C370.262015,230.117188 369.657529,229.818362 369.218074,229.220703 C368.778618,228.623044 368.558894,227.794927 368.558894,226.736328 C368.558894,225.662104 368.782525,224.825198 369.229792,224.225586 C369.67706,223.625974 370.293265,223.326172 371.078425,223.326172 C371.902648,223.326172 372.531548,223.646481 372.965144,224.287109 L373.023738,224.287109 C372.933894,223.798826 372.888972,223.363283 372.888972,222.980469 L372.888972,220.882812 L374.681941,220.882812 L374.681941,230 L373.310847,230 L372.965144,229.150391 L372.888972,229.150391 C372.48272,229.794925 371.863586,230.117188 371.03155,230.117188 Z M371.658503,228.693359 C372.115537,228.693359 372.450494,228.560548 372.663386,228.294922 C372.876278,228.029296 372.992488,227.578128 373.012019,226.941406 L373.012019,226.748047 C373.012019,226.044918 372.903622,225.541017 372.686824,225.236328 C372.470026,224.931639 372.11749,224.779297 371.629207,224.779297 C371.230767,224.779297 370.9212,224.94824 370.700496,225.286133 C370.479791,225.624025 370.369441,226.115231 370.369441,226.759766 C370.369441,227.4043 370.480768,227.887694 370.703425,228.209961 C370.926083,228.532228 371.244439,228.693359 371.658503,228.693359 Z M376.013371,221.755859 C376.013371,221.173825 376.337587,220.882812 376.986027,220.882812 C377.634468,220.882812 377.958684,221.173825 377.958684,221.755859 C377.958684,222.033205 377.87763,222.249023 377.71552,222.40332 C377.553409,222.557618 377.310248,222.634766 376.986027,222.634766 C376.337587,222.634766 376.013371,222.3418 376.013371,221.755859 Z M377.876652,230 L376.089543,230 L376.089543,223.449219 L377.876652,223.449219 L377.876652,230 Z M384.991286,223.449219 L384.991286,224.357422 L383.965895,224.621094 C384.153396,224.914064 384.247145,225.242186 384.247145,225.605469 C384.247145,226.308597 384.00203,226.856443 383.511794,227.249023 C383.021557,227.641604 382.340899,227.837891 381.469801,227.837891 L381.147536,227.820312 L380.883864,227.791016 C380.700269,227.931641 380.608473,228.08789 380.608473,228.259766 C380.608473,228.517579 380.936595,228.646484 381.592848,228.646484 L382.706129,228.646484 C383.424883,228.646484 383.972729,228.80078 384.349684,229.109375 C384.726639,229.41797 384.915114,229.871091 384.915114,230.46875 C384.915114,231.234379 384.595781,231.828123 383.957106,232.25 C383.318431,232.671877 382.401448,232.882812 381.206129,232.882812 C380.292062,232.882812 379.593827,232.723634 379.111403,232.405273 C378.628979,232.086912 378.38777,231.640628 378.38777,231.066406 C378.38777,230.671873 378.510816,230.341798 378.756911,230.076172 C379.003006,229.810546 379.36433,229.621094 379.840895,229.507812 C379.6573,229.429687 379.497146,229.301759 379.360426,229.124023 C379.223707,228.946288 379.155348,228.757813 379.155348,228.558594 C379.155348,228.308593 379.227613,228.100587 379.372145,227.93457 C379.516677,227.768554 379.725659,227.60547 379.999098,227.445312 C379.655347,227.296874 379.382888,227.058595 379.181715,226.730469 C378.980543,226.402342 378.879958,226.015627 378.879958,225.570312 C378.879958,224.855465 379.112377,224.302736 379.577223,223.912109 C380.042069,223.521482 380.706125,223.326172 381.569411,223.326172 C381.753005,223.326172 381.970777,223.342773 382.222731,223.375977 C382.474685,223.40918 382.635817,223.433594 382.706129,223.449219 L384.991286,223.449219 Z M379.934645,230.925781 C379.934645,231.171876 380.052808,231.365234 380.289137,231.505859 C380.525467,231.646485 380.856518,231.716797 381.282301,231.716797 C381.92293,231.716797 382.424878,231.628907 382.788161,231.453125 C383.151444,231.277343 383.333083,231.037111 383.333083,230.732422 C383.333083,230.486327 383.225662,230.316407 383.010817,230.222656 C382.795972,230.128906 382.463944,230.082031 382.014723,230.082031 L381.088942,230.082031 C380.760815,230.082031 380.486404,230.159179 380.2657,230.313477 C380.044996,230.467774 379.934645,230.671874 379.934645,230.925781 Z M380.585036,225.59375 C380.585036,225.949221 380.66609,226.230468 380.8282,226.4375 C380.99031,226.644532 381.237378,226.748047 381.569411,226.748047 C381.90535,226.748047 382.151441,226.644532 382.307692,226.4375 C382.463943,226.230468 382.542067,225.949221 382.542067,225.59375 C382.542067,224.804684 382.217851,224.410156 381.569411,224.410156 C380.913157,224.410156 380.585036,224.804684 380.585036,225.59375 Z M388.367638,228.693359 C388.680139,228.693359 389.055136,228.625001 389.492638,228.488281 L389.492638,229.818359 C389.047323,230.017579 388.500454,230.117188 387.852013,230.117188 C387.137166,230.117188 386.616663,229.936525 386.290489,229.575195 C385.964316,229.213865 385.801232,228.671879 385.801232,227.949219 L385.801232,224.791016 L384.945763,224.791016 L384.945763,224.035156 L385.930138,223.4375 L386.445763,222.054688 L387.588341,222.054688 L387.588341,223.449219 L389.422325,223.449219 L389.422325,224.791016 L387.588341,224.791016 L387.588341,227.949219 C387.588341,228.203126 387.659629,228.390624 387.802208,228.511719 C387.944787,228.632813 388.133262,228.693359 388.367638,228.693359 Z" id="Troværdigt" fill="#4E4E4E"></path>
                <path d="M188.865234,230 L187.078125,230 L187.078125,221.433594 L191.988281,221.433594 L191.988281,222.921875 L188.865234,222.921875 L188.865234,225.130859 L191.771484,225.130859 L191.771484,226.613281 L188.865234,226.613281 L188.865234,230 Z M194.849008,230 L193.061899,230 L193.061899,220.882812 L194.849008,220.882812 L194.849008,230 Z M198.975361,224.597656 C198.596452,224.597656 198.29958,224.717772 198.084736,224.958008 C197.869891,225.198243 197.746845,225.53906 197.715595,225.980469 L200.223407,225.980469 C200.215595,225.53906 200.100362,225.198243 199.877704,224.958008 C199.655047,224.717772 199.354269,224.597656 198.975361,224.597656 Z M199.227314,230.117188 C198.172621,230.117188 197.34841,229.826175 196.754657,229.244141 C196.160904,228.662106 195.864032,227.837896 195.864032,226.771484 C195.864032,225.673823 196.138444,224.825198 196.687275,224.225586 C197.236105,223.625974 197.994887,223.326172 198.963642,223.326172 C199.889428,223.326172 200.610124,223.589841 201.125751,224.117188 C201.641379,224.644534 201.899189,225.373042 201.899189,226.302734 L201.899189,227.169922 L197.674579,227.169922 C197.694111,227.677737 197.8445,228.074217 198.125751,228.359375 C198.407003,228.644533 198.80153,228.787109 199.309345,228.787109 C199.703878,228.787109 200.076921,228.746094 200.428486,228.664062 C200.78005,228.582031 201.147234,228.451173 201.530048,228.271484 L201.530048,229.654297 C201.217546,229.810548 200.883565,229.926757 200.528095,230.00293 C200.172624,230.079102 199.739035,230.117188 199.227314,230.117188 Z M204.607572,226.4375 L205.386869,225.441406 L207.220853,223.449219 L209.236478,223.449219 L206.634916,226.291016 L209.394681,230 L207.332181,230 L205.445463,227.345703 L204.677885,227.960938 L204.677885,230 L202.890775,230 L202.890775,220.882812 L204.677885,220.882812 L204.677885,224.949219 L204.584135,226.4375 L204.607572,226.4375 Z M214.440955,228.054688 C214.440955,228.726566 214.207559,229.238279 213.74076,229.589844 C213.273961,229.941408 212.575726,230.117188 211.646033,230.117188 C211.169469,230.117188 210.763223,230.084961 210.427283,230.020508 C210.091344,229.956054 209.776894,229.861329 209.483924,229.736328 L209.483924,228.259766 C209.815957,228.416016 210.189977,228.546874 210.605994,228.652344 C211.022012,228.757813 211.388219,228.810547 211.704627,228.810547 C212.353068,228.810547 212.677283,228.623049 212.677283,228.248047 C212.677283,228.107421 212.634315,227.993165 212.548377,227.905273 C212.462439,227.817382 212.314003,227.717774 212.103065,227.606445 C211.892126,227.495117 211.610879,227.365235 211.259315,227.216797 C210.755406,227.005858 210.385292,226.810548 210.148963,226.630859 C209.912634,226.451171 209.740761,226.245118 209.633338,226.012695 C209.525916,225.780272 209.472205,225.494142 209.472205,225.154297 C209.472205,224.572263 209.697789,224.122072 210.148963,223.803711 C210.600137,223.48535 211.239779,223.326172 212.067908,223.326172 C212.856975,223.326172 213.624545,223.498045 214.370643,223.841797 L213.83158,225.130859 C213.503454,224.990234 213.196816,224.875 212.911658,224.785156 C212.626501,224.695312 212.335488,224.650391 212.038612,224.650391 C211.511265,224.650391 211.247596,224.792967 211.247596,225.078125 C211.247596,225.238282 211.332556,225.376953 211.502479,225.494141 C211.672402,225.611329 212.044468,225.785155 212.61869,226.015625 C213.130411,226.222657 213.505407,226.416015 213.74369,226.595703 C213.981972,226.775392 214.157752,226.982421 214.271033,227.216797 C214.384315,227.451173 214.440955,227.730467 214.440955,228.054688 Z M215.297776,221.755859 C215.297776,221.173825 215.621992,220.882812 216.270432,220.882812 C216.918873,220.882812 217.243089,221.173825 217.243089,221.755859 C217.243089,222.033205 217.162035,222.249023 216.999925,222.40332 C216.837815,222.557618 216.594653,222.634766 216.270432,222.634766 C215.621992,222.634766 215.297776,222.3418 215.297776,221.755859 Z M217.161057,230 L215.373948,230 L215.373948,223.449219 L217.161057,223.449219 L217.161057,230 Z M222.21905,223.326172 C222.992492,223.326172 223.597954,223.627927 224.035457,224.231445 C224.472959,224.834964 224.691707,225.662104 224.691707,226.712891 C224.691707,227.794927 224.466123,228.63281 224.014949,229.226562 C223.563775,229.820315 222.949523,230.117188 222.172175,230.117188 C221.40264,230.117188 220.799131,229.837893 220.361628,229.279297 L220.238582,229.279297 L219.939753,230 L218.574519,230 L218.574519,220.882812 L220.361628,220.882812 L220.361628,223.003906 C220.361628,223.273439 220.338191,223.705075 220.291316,224.298828 L220.361628,224.298828 C220.779599,223.650387 221.398734,223.326172 222.21905,223.326172 Z M221.644832,224.755859 C221.203423,224.755859 220.881161,224.8916 220.678035,225.163086 C220.474909,225.434572 220.369441,225.882809 220.361628,226.507812 L220.361628,226.701172 C220.361628,227.4043 220.46612,227.908202 220.675105,228.212891 C220.88409,228.51758 221.215142,228.669922 221.668269,228.669922 C222.035458,228.669922 222.327448,228.500978 222.544246,228.163086 C222.761044,227.825194 222.869441,227.333988 222.869441,226.689453 C222.869441,226.044919 222.760067,225.561525 222.541316,225.239258 C222.322565,224.916991 222.02374,224.755859 221.644832,224.755859 Z M228.419621,224.597656 C228.040713,224.597656 227.743841,224.717772 227.528996,224.958008 C227.314151,225.198243 227.191106,225.53906 227.159855,225.980469 L229.667668,225.980469 C229.659855,225.53906 229.544622,225.198243 229.321965,224.958008 C229.099308,224.717772 228.798529,224.597656 228.419621,224.597656 Z M228.671574,230.117188 C227.616881,230.117188 226.792671,229.826175 226.198918,229.244141 C225.605165,228.662106 225.308293,227.837896 225.308293,226.771484 C225.308293,225.673823 225.582704,224.825198 226.131535,224.225586 C226.680366,223.625974 227.439148,223.326172 228.407902,223.326172 C229.333688,223.326172 230.054384,223.589841 230.570012,224.117188 C231.085639,224.644534 231.343449,225.373042 231.343449,226.302734 L231.343449,227.169922 L227.11884,227.169922 C227.138371,227.677737 227.28876,228.074217 227.570012,228.359375 C227.851263,228.644533 228.24579,228.787109 228.753605,228.787109 C229.148139,228.787109 229.521182,228.746094 229.872746,228.664062 C230.22431,228.582031 230.591494,228.451173 230.974309,228.271484 L230.974309,229.654297 C230.661807,229.810548 230.327826,229.926757 229.972355,230.00293 C229.616885,230.079102 229.183296,230.117188 228.671574,230.117188 Z M234.122145,230 L232.335036,230 L232.335036,220.882812 L234.122145,220.882812 L234.122145,230 Z M238.295372,228.693359 C238.607874,228.693359 238.98287,228.625001 239.420372,228.488281 L239.420372,229.818359 C238.975058,230.017579 238.428188,230.117188 237.779747,230.117188 C237.0649,230.117188 236.544397,229.936525 236.218224,229.575195 C235.89205,229.213865 235.728966,228.671879 235.728966,227.949219 L235.728966,224.791016 L234.873497,224.791016 L234.873497,224.035156 L235.857872,223.4375 L236.373497,222.054688 L237.516075,222.054688 L237.516075,223.449219 L239.35006,223.449219 L239.35006,224.791016 L237.516075,224.791016 L237.516075,227.949219 C237.516075,228.203126 237.587364,228.390624 237.729943,228.511719 C237.872521,228.632813 238.060996,228.693359 238.295372,228.693359 Z" id="Fleksibelt" fill="#4E4E4E"></path>
            </g>
        </g>
    </g>
</svg>