<?xml version="1.0" encoding="UTF-8" standalone="no"?>
<svg width="330px" height="300px" viewBox="0 0 330 300" version="1.1" xmlns="http://www.w3.org/2000/svg" xmlns:xlink="http://www.w3.org/1999/xlink">
    <!-- Generator: Sketch 45.1 (43504) - http://www.bohemiancoding.com/sketch -->
    <title>Translations-Domains-cs</title>
    <desc>Created with Sketch.</desc>
    <defs></defs>
    <g id="SVG" stroke="none" stroke-width="1" fill="none" fill-rule="evenodd">
        <g id="Translations-Domains-CS" transform="translate(-220.000000, 0.000000)">
            <g id="Translations-Domains-cs" transform="translate(100.000000, 0.000000)">
                <g id="Domains-SVG">
                    <g id="Clouds" transform="translate(130.449438, 0.000000)" fill="#FFFFFF">
                        <path d="M88.7323253,8.41673731 C81.5584234,2.91036647 72.9774073,0 63.9169189,0 C55.6714209,0 47.7247028,2.45112932 40.9363655,7.08824983 C34.6411837,11.3880744 29.7276241,17.2811516 26.6670992,24.184998 C19.7040676,24.7078161 13.2285682,27.725021 8.32325602,32.7592893 C3.12328773,38.0961731 0.259387661,45.1189775 0.259387661,52.5342683 C0.259387661,59.9844261 3.14634288,67.031283 8.38848524,72.3769302 C13.6206933,77.7125088 20.6120283,80.7595463 28.0740259,80.9564422 C28.1229479,80.957188 95.1290998,80.9404071 98.0392976,80.9376103 C104.973276,80.6092641 111.364427,77.7033725 116.123161,72.7530087 C120.897827,67.7860504 123.52724,61.2739446 123.52724,54.4165253 C123.52724,41.9843064 114.879682,31.2803331 102.803092,28.5353517 C100.336191,20.622787 95.3718349,13.5129085 88.7323253,8.41673731 Z" id="Cloud" transform="translate(61.893314, 40.478233) scale(-1, 1) translate(-61.893314, -40.478233) "></path>
                        <path d="M275.960372,19.2809476 C271.459221,15.826063 266.0752,14 260.390341,14 C255.216835,14 250.230793,15.537922 245.971559,18.4474093 C242.021748,21.1452656 238.938813,24.8427829 237.018536,29.1744912 C232.649692,29.5025251 228.586744,31.3956221 225.508984,34.5542935 C222.246347,37.9028361 220.449438,42.3091827 220.449438,46.9617886 C220.449438,51.6362713 222.260812,56.0577093 225.549911,59.4117503 C228.832776,62.759474 233.219378,64.6712891 237.901289,64.7948282 C237.931985,64.7952962 279.973926,64.7847673 281.799883,64.7830125 C286.150497,64.5769969 290.160523,62.7537416 293.146315,59.6477148 C296.142103,56.531276 297.791886,52.4453591 297.791886,48.1427807 C297.791886,40.3423833 292.366114,33.6263461 284.78885,31.9040512 C283.241032,26.9394388 280.126226,22.4784589 275.960372,19.2809476 Z" id="Cloud" transform="translate(259.120662, 39.397422) scale(-1, 1) translate(-259.120662, -39.397422) "></path>
                    </g>
                    <g id="DOMAINS-TOP-IMG-EN" transform="translate(120.337079, 0.000000)">
                        <g id="domains">
                            <g id="Layer_1">
                                <ellipse id="Oval" fill="#F8F2EA" fill-rule="nonzero" cx="92.0918639" cy="208.209777" rx="54.6761336" ry="53.2097767"></ellipse>
                                <g id="flexible" transform="translate(63.707865, 179.000000)" fill-rule="nonzero" fill="#77A240">
                                    <path d="M30.64467,13.1561719 L31.8954729,14.3930769 L21.6047766,14.3930769 C21.1499392,14.3930769 20.7519565,14.7866376 20.7519565,15.2364213 C20.7519565,15.6862049 21.1499392,16.0797656 21.6047766,16.0797656 L31.8954729,16.0797656 L30.64467,17.3166707 C30.303542,17.6540084 30.303542,18.160015 30.64467,18.4973528 C30.815234,18.6660216 31.0426527,18.7222446 31.2700714,18.7222446 C31.4974901,18.7222446 31.7249088,18.6660216 31.8954729,18.4973528 L35.193044,15.2364213 L31.8954729,11.9754898 C31.5543448,11.638152 31.0426527,11.638152 30.7015247,11.9754898 C30.3603966,12.3128275 30.303542,12.8750571 30.64467,13.1561719 Z" id="Shape"></path>
                                    <path d="M53.1022668,11.9754898 C52.7611387,11.638152 52.2494466,11.638152 51.9083186,11.9754898 C51.5671905,12.3128275 51.5671905,12.8188341 51.9083186,13.1561719 L53.1591214,14.3930769 L48.6107474,14.3930769 C45.9385777,14.3930769 43.7781,12.2566046 43.7781,9.6141256 C43.7781,6.07207933 40.8785116,3.14848558 37.2398124,3.14848558 L35.6478814,3.14848558 C35.193044,3.14848558 34.7950613,3.54204627 34.7950613,3.99182993 C34.7950613,4.44161358 35.193044,4.83517428 35.6478814,4.83517428 L37.2398124,4.83517428 C39.9119821,4.83517428 42.0724598,6.97164663 42.0724598,9.6141256 C42.0724598,11.5257061 42.9252799,13.2123948 44.2329374,14.3930769 L42.9821346,14.3930769 C39.40029,14.3930769 36.4438469,17.2604477 36.4438469,20.8587169 C36.4438469,23.5011959 34.2833692,25.6376683 31.6111995,25.6376683 L29.8487046,25.6376683 C29.3938672,25.6376683 28.9958844,26.031229 28.9958844,26.4810126 C28.9958844,26.9307963 29.3938672,27.324357 29.8487046,27.324357 L31.6111995,27.324357 C35.193044,27.324357 38.1494872,24.4569862 38.1494872,20.8587169 C38.1494872,18.216238 40.3099648,16.0797656 42.9821346,16.0797656 L48.6107474,16.0797656 L53.1591214,16.0797656 L51.9083186,17.3166707 C51.5671905,17.6540084 51.5671905,18.160015 51.9083186,18.4973528 C52.0788826,18.6660216 52.3063013,18.7222446 52.53372,18.7222446 C52.7611387,18.7222446 52.9885574,18.6660216 53.1591214,18.4973528 L56.4566926,15.2364213 L53.1022668,11.9754898 Z" id="Shape"></path>
                                    <path d="M9.89271351,16.0797656 L12.8491566,16.0797656 C16.4310012,16.0797656 19.3874443,13.2123948 19.3874443,9.6141256 C19.3874443,6.97164663 21.547922,4.83517428 24.2200917,4.83517428 L27.7450816,4.83517428 L26.4942787,6.07207933 C26.1531507,6.40941707 26.1531507,6.91542368 26.4942787,7.25276142 C26.6648427,7.42143029 26.8922614,7.47765325 27.1196801,7.47765325 C27.3470988,7.47765325 27.5745175,7.42143029 27.7450816,7.25276142 L31.0426527,3.99182993 L27.7450816,0.730898438 C27.4039535,0.393560697 26.8922614,0.393560697 26.5511334,0.730898438 C26.2100053,1.06823618 26.2100053,1.57424279 26.5511334,1.91158053 L27.8019362,3.14848558 L24.2769464,3.14848558 C20.6951018,3.14848558 17.7386587,6.01585637 17.7386587,9.6141256 C17.7386587,12.2566046 15.578181,14.3930769 12.9060113,14.3930769 L9.94956819,14.3930769 C9.49473078,14.3930769 9.09674806,14.7866376 9.09674806,15.2364213 C9.09674806,15.6862049 9.43787611,16.0797656 9.89271351,16.0797656 Z" id="Shape"></path>
                                    <path d="M20.9793752,23.2200811 C20.6382472,23.5574189 20.6382472,24.0634255 20.9793752,24.4007632 L22.2301781,25.6376683 L12.8491566,25.6376683 C10.1769869,25.6376683 8.01650922,23.5011959 8.01650922,20.8587169 C8.01650922,17.3166707 5.11692078,14.3930769 1.47822156,14.3930769 L1.30765753,14.3930769 C0.85282013,14.3930769 0.454837403,14.7866376 0.454837403,15.2364213 C0.454837403,15.6862049 0.85282013,16.0797656 1.30765753,16.0797656 L1.47822156,16.0797656 C4.1503913,16.0797656 6.31086896,18.216238 6.31086896,20.8587169 C6.31086896,24.4007632 9.21045741,27.324357 12.8491566,27.324357 L22.2301781,27.324357 L20.9793752,28.561262 C20.6382472,28.8985998 20.6382472,29.4046064 20.9793752,29.7419441 C21.1499392,29.910613 21.3773579,29.9668359 21.6047766,29.9668359 C21.8321953,29.9668359 22.059614,29.910613 22.2301781,29.7419441 L25.5277492,26.4810126 L22.1733234,23.2200811 C21.8321953,22.8827434 21.3205033,22.8827434 20.9793752,23.2200811 Z" id="Shape"></path>
                                </g>
                                <ellipse id="Oval" fill="#F8F2EA" fill-rule="nonzero" cx="237.709841" cy="208.209777" rx="54.6761336" ry="53.2097767"></ellipse>
                                <g id="trusted" transform="translate(214.382022, 181.000000)" fill-rule="nonzero" fill="#77A240">
                                    <path d="M37.7662878,17.2620338 C37.7874014,17.2363871 37.7950488,17.2212622 37.7950488,17.2212622 L36.1945732,16.1987675 C36.3180959,16.0097059 36.8395348,15.3481545 38.3619567,14.7742291 C39.4293561,14.3718566 40.5768042,14.3527038 42.0294848,14.3283724 C42.5591529,14.3194947 43.1593937,14.3094662 43.805519,14.2788054 C44.3308647,14.2532409 44.7776579,14.6547914 44.8029277,15.1744644 C44.8282806,15.6942195 44.4227171,16.1358017 43.8972051,16.1607908 C43.2214875,16.1929312 42.6052869,16.2032885 42.0618201,16.2123306 C40.7462947,16.2342782 39.7958512,16.2502251 39.0407499,16.5348862 C38.0699409,16.900926 37.7692803,17.2584991 37.7662878,17.2620338 Z" id="Shape"></path>
                                    <path d="M15.5077562,15.9422191 C14.3886535,15.9422191 13.3146873,15.412682 12.5092126,14.4491253 C12.2087182,14.0895793 12.2195244,13.5667828 12.5343993,13.2196491 C13.7823447,11.8442668 13.9004644,10.0790064 13.9864149,8.79009915 C14.0472619,7.88087703 14.0951415,7.16285377 14.527388,6.66956728 C15.0597993,6.06218618 15.7873864,5.62323436 16.6300177,5.11506953 C17.1826281,4.78182783 17.8089699,4.40395114 18.5009798,3.91066464 C19.0938225,3.48807076 19.5878303,3.05511959 20.0656289,2.63655354 C20.9649509,1.84849527 21.7415814,1.16787334 22.7490482,0.982510728 C25.2370422,0.525145943 30.3728783,1.42302437 35.2528577,3.16806337 C36.0447,3.34183568 37.3805078,2.71415101 39.0646897,1.92190051 C39.6912808,1.62721094 40.4015781,1.29314723 41.1734705,0.957603911 C41.6546772,0.748320887 42.2171795,0.964755373 42.4290634,1.44110852 C42.6406979,1.91737947 42.4218316,2.47330292 41.9401261,2.68275034 C41.1943347,3.00678556 40.4976698,3.33451982 39.8830486,3.62361974 C37.7428467,4.63024971 36.1963188,5.35772605 34.7376532,4.98330178 C34.7087259,4.97590372 34.6800481,4.96710824 34.6520352,4.95699755 C29.5151185,3.11348209 24.9507621,2.4940175 23.0975885,2.83506827 C22.6097318,2.92483145 22.0447358,3.42000856 21.3292848,4.04687123 C20.8401813,4.47538356 20.2857421,4.96118979 19.6151782,5.43918696 C18.8637344,5.97488902 18.204226,6.37265829 17.6222727,6.72373755 C16.9129728,7.15151007 16.3474781,7.49264305 16.0048396,7.86197086 C15.946237,8.03886681 15.9125716,8.54177079 15.8876344,8.91430443 C15.8017669,10.2003346 15.6775792,12.0594682 14.5284686,13.7475421 C14.836943,13.9518109 15.2352747,14.1028136 15.7065896,14.0458485 C16.7931907,13.9136698 17.9396413,12.7267736 18.9432012,10.6987176 C19.064064,10.2706984 19.5066179,10.0790886 20.039611,9.84818677 C20.3406042,9.71781643 20.7592182,9.54108489 21.2834833,9.32292419 C22.1826391,8.94866433 23.0824598,8.58188474 23.0824598,8.58188474 C23.5688202,8.38386321 24.1259194,8.61295661 24.3263322,9.0938308 C24.526828,9.57486939 24.2950774,10.125532 23.8085508,10.3238823 C22.5413205,10.8405138 21.1420057,11.4224949 20.5824959,11.6706588 C18.9436168,14.9028732 17.1611821,15.7671315 15.9392546,15.9158326 C15.7949507,15.9335058 15.6509794,15.9422191 15.5077562,15.9422191 Z" id="Shape"></path>
                                    <path d="M34.248716,21.3805362 C33.4429919,21.3805362 32.5234707,21.2515633 31.4850817,20.9517773 C28.647633,20.1324006 26.8373516,18.9287355 26.7616254,18.8779354 C26.3264695,18.5855475 26.2132542,17.9995386 26.5089274,17.5692178 C26.8043513,17.1391437 27.3957808,17.0269397 27.8312691,17.3185879 C27.8577026,17.3361788 29.495418,18.4144056 32.0190723,19.1430327 C34.6609295,19.9061842 36.303466,19.2943643 36.7113571,18.4034729 C36.7671335,18.2817336 36.9064498,17.8985139 36.6186734,17.611469 C30.7260735,16.8186431 28.801413,14.6644089 27.2507289,12.9287408 C26.1731883,11.7224453 25.3219121,10.769739 23.2654996,10.3782992 C22.7488819,10.2798227 22.4106491,9.78587863 22.5100658,9.27500118 C22.6096487,8.76412372 23.1091428,8.43071762 23.6257604,8.52796107 C26.3199858,9.04089354 27.5191373,10.3832312 28.6788047,11.6811805 C30.180778,13.3623496 31.7338728,15.1007303 37.1148425,15.7755982 C37.2539926,15.7930248 37.3875734,15.840619 37.5058593,15.9150106 C38.6198914,16.6150319 39.0070845,17.9577806 38.4474085,19.1805163 C37.9245565,20.322202 36.5550833,21.3805362 34.248716,21.3805362 Z" id="Shape"></path>
                                    <path d="M31.8775116,25.2163505 C31.4059474,25.2163505 30.8946497,25.1549465 30.3443667,25.0173425 C27.1246293,24.2120221 24.619096,22.4182381 24.5139438,22.3422846 C24.0891785,22.0352649 23.996578,21.4457214 24.3071304,21.0256758 C24.6175998,20.6058767 25.2129362,20.5143051 25.6377014,20.820585 L25.6377014,20.820585 C25.6606437,20.8370251 27.9618574,22.4778336 30.8116085,23.190596 C32.3886431,23.5848306 33.375495,23.0795428 33.7731617,22.4749566 C34.0576963,22.0424164 34.0562832,21.5684471 33.7695874,21.2071749 C33.4447375,20.7978154 33.5169726,20.2055592 33.9308486,19.8843188 C34.345057,19.5632428 34.9438846,19.6345108 35.2685682,20.0437882 C36.0579168,21.0385813 36.0979827,22.3960439 35.3705618,23.5021367 C34.7770541,24.404865 33.5919507,25.2163505 31.8775116,25.2163505 Z" id="Shape"></path>
                                    <path d="M28.4662558,28.0934577 C28.1685045,28.0934577 27.8664307,28.0636189 27.5643569,28.0026259 C25.6106029,27.6081447 23.2477941,26.3094556 23.1482112,26.2542989 C22.6889493,26.0002987 22.5248619,25.4262089 22.7816329,24.9722143 C23.0384871,24.5181376 23.6185286,24.3558734 24.0778736,24.609627 L24.0778736,24.609627 C24.0997353,24.6216283 26.2844086,25.8211833 27.9454819,26.1564801 C28.7562765,26.3202239 29.5541038,26.0940897 30.0785351,25.5518116 C30.4062112,25.2128158 30.5688023,24.800497 30.4927436,24.5010398 C30.3644827,23.9964096 30.674204,23.4845458 31.1846704,23.3577923 C31.6940562,23.2309566 32.2125857,23.5372364 32.3407635,24.042031 C32.5797459,24.9824072 32.2489111,26.0336722 31.4557388,26.8539531 C30.6790252,27.6572185 29.6041446,28.0934577 28.4662558,28.0934577 Z" id="Shape"></path>
                                    <path d="M24.1502749,29.6599568 C22.6714101,29.6599568 20.960961,29.1398728 19.4932348,28.1800973 C19.0544216,27.8931346 18.9338913,27.3086053 19.2241614,26.8745033 C19.5145147,26.4405657 20.1053623,26.3213747 20.544425,26.6084196 C22.117719,27.6371616 24.1949126,28.0632079 25.2738663,27.578388 C25.6605606,27.4046157 25.8583965,27.1395184 25.9153367,26.7188974 C25.9852442,26.2030879 26.4654534,25.8402539 26.986061,25.9102067 C27.5074999,25.9793375 27.8736625,26.453389 27.8038381,26.9690341 C27.6604486,28.0277794 27.0419206,28.8533211 26.0624667,29.2937526 C25.5128487,29.5407657 24.8579122,29.6599568 24.1502749,29.6599568 Z" id="Shape"></path>
                                    <path d="M5.6728192,18.301133 C5.42037064,18.301133 5.1683377,18.2025744 4.98089236,18.0069367 C3.81050194,16.7848586 2.59281378,15.9771544 0.637480408,15.1262948 C0.155858099,14.9166007 -0.0627588614,14.3606773 0.149291278,13.8844063 C0.361341418,13.4080532 0.923594316,13.1918653 1.4051335,13.4016415 C3.58473629,14.3502378 5.02145703,15.3091913 6.36441354,16.7112068 C6.72608745,17.0890013 6.70987821,17.6853674 6.32775571,18.0431872 C6.14363535,18.2155621 5.9079779,18.301133 5.6728192,18.301133 Z" id="Shape"></path>
                                    <path d="M11.9038182,5.04043128 C10.1511419,5.04051348 8.17527684,3.98357667 5.85669019,2.6321147 C5.40341328,2.3679216 5.25245951,1.79046157 5.5197042,1.34213886 C5.78686577,0.893898356 6.37106348,0.744704056 6.82417415,1.00889716 C9.05315278,2.30791508 11.1596893,3.44532638 12.4368945,3.08726007 C14.9009487,2.39850026 19.3352986,1.37255313 21.3490684,2.2421545 C21.8312726,2.45036892 22.051552,3.00579916 21.8409981,3.48256331 C21.6303611,3.95932746 21.0685238,4.17732376 20.5866521,3.96902715 C19.8071123,3.63241521 17.34098,3.67441978 12.9552577,4.90060786 C12.6135336,4.99596069 12.2632478,5.04043128 11.9038182,5.04043128 Z" id="Shape"></path>
                                    <path d="M18.371389,29.0502741 C18.2598362,29.0502741 18.1464546,29.0452598 18.0316599,29.0350669 C16.5414903,28.9028882 15.3981152,27.9553605 15.2511514,26.7310631 C15.1892238,26.2144316 15.562452,25.7458875 16.0850546,25.6844835 C16.6076572,25.6248058 17.0814658,25.9923252 17.1433934,26.5091211 C17.179885,26.8132638 17.6645829,27.1107482 18.2019817,27.1583424 C18.5102898,27.1853864 19.2520081,27.1675489 19.4862524,26.4113023 C19.6901564,25.7527923 19.606367,25.1551109 19.2727891,24.8886984 C18.9859271,24.6595228 18.5148616,24.6980749 17.9798735,24.9935043 C17.520861,25.2470113 16.9401545,25.0846649 16.6834666,24.6304238 C16.4268618,24.1762648 16.5911986,23.6022572 17.0506267,23.3484214 C18.2814485,22.6686215 19.5597343,22.6961587 20.4697794,23.4225664 C21.4267065,24.1865399 21.7478989,25.5431805 21.3082544,26.9628691 C20.9074289,28.256955 19.7742782,29.0502741 18.371389,29.0502741 Z" id="Shape"></path>
                                    <path d="M6.81910357,22.0655148 C5.81737239,22.0655148 4.81913244,21.4568185 4.26976381,20.508551 C3.7358563,19.587081 3.73610567,18.5118957 4.27051193,17.6324302 C4.98712669,16.4531787 6.00631397,15.7328538 7.29989463,15.4915947 C8.58325101,15.2522263 9.84524443,15.6949593 10.5948595,16.6465148 C11.2408186,17.4666313 11.3646739,18.5150193 10.9264425,19.4512032 L10.0618664,19.0552424 L10.9264425,19.4512032 C10.1461545,21.1169185 8.69696507,22.0453756 6.84562023,22.0654326 C6.83672592,22.0655148 6.82791475,22.0655148 6.81910357,22.0655148 Z M7.98118156,17.3120118 C7.87702678,17.3120118 7.76746893,17.3217115 7.65308987,17.3430837 C6.89599356,17.4843867 6.34022436,17.884622 5.90373856,18.6028918 C5.67431544,18.9803575 5.78769701,19.3381772 5.92294028,19.5717917 C6.12825735,19.9260768 6.50389615,20.1812278 6.8185217,20.1812278 C6.82059981,20.1812278 6.82259479,20.1812278 6.82475602,20.1812278 C7.94726684,20.1692265 8.72331548,19.6713368 9.19720723,18.6592815 C9.37226705,18.2857615 9.23627566,17.9883593 9.09155622,17.8044763 C8.89879092,17.5595182 8.50760787,17.3120118 7.98118156,17.3120118 Z" id="Shape"></path>
                                    <path d="M14.2335435,28.1634927 C13.5604859,28.1634927 12.8666472,27.9856104 12.278127,27.6245026 C11.0793081,26.888724 10.6053332,25.60442 11.010398,24.1890059 C11.1536212,23.6884035 11.6802969,23.3971664 12.186524,23.5390448 C12.6928342,23.6806767 12.9870112,24.2014182 12.843788,24.7021028 C12.6714713,25.304223 12.8151101,25.7363522 13.2828507,26.0234793 C13.8743633,26.3865599 14.7017828,26.3378148 15.018819,26.054058 C15.8275355,25.3301163 16.3285257,24.3419814 16.5080743,23.1167798 C16.5813068,22.6171638 16.3396644,22.0601718 15.9333527,21.792444 C15.6363495,21.5963953 15.321059,21.6021494 14.9695262,21.8101172 C14.5178287,22.0769407 13.9327997,21.9315276 13.6629782,21.484849 C13.3929904,21.0382525 13.5403698,20.459806 13.9919011,20.1928181 C14.9804987,19.608371 16.0731678,19.6202079 16.9903616,20.2246298 C18.0087176,20.895963 18.5727161,22.1668683 18.3939157,23.3871379 C18.1490315,25.0577853 17.4437216,26.4250298 16.2976035,27.4509769 C15.7700966,27.92322 15.0158265,28.1634927 14.2335435,28.1634927 Z" id="Shape"></path>
                                    <path d="M10.6585328,25.7532033 C9.9435805,25.7532033 9.18997541,25.4991209 8.51400845,24.8951923 C7.92873011,24.3721491 7.55633316,23.6764022 7.46539515,22.9361026 C7.36265349,22.1004501 7.6159333,21.2636468 8.19772041,20.5163601 C9.04492348,19.428187 9.80393164,18.6131669 10.968919,17.9123236 L10.968919,17.9123236 C12.1508637,17.2013696 13.5917406,17.3642093 14.5551515,18.3167512 C15.5730088,19.3232989 15.7074208,20.824284 14.8977068,22.1407285 L14.8144994,22.2763596 C14.3751042,22.9942185 13.7732842,23.9774213 12.7584193,24.9261819 C12.2173631,25.4321273 11.4624281,25.7532033 10.6585328,25.7532033 Z M11.959179,19.5221425 C11.0426503,20.0735449 10.4395833,20.7257253 9.70759055,21.6658549 C8.95930543,22.6269457 9.58257158,23.3106091 9.79137987,23.4971225 C10.1184741,23.7894282 10.8356707,24.1306434 11.4493775,23.557129 C12.276797,22.7835381 12.7800317,21.9613665 13.1844315,21.3007193 L13.2695508,21.1618001 C13.7845891,20.3244214 13.3525088,19.7924184 13.2077063,19.649307 C12.9407941,19.3852783 12.4726379,19.2133144 11.959179,19.5221425 L11.959179,19.5221425 Z" id="Shape"></path>
                                </g>
                                <path d="M91.9063362,299.288084 C41.1447743,299.284079 -0.00269880905,258.563324 0,208.334859 C0.00269880905,158.106394 41.1545476,117.389969 91.9161097,117.391304 C142.677672,117.39264 183.827333,158.111229 183.827333,208.339694 C183.770769,258.548733 142.64827,299.236119 91.9063362,299.288084 L91.9063362,299.288084 Z M91.9063362,155.673911 C62.5070704,155.673911 38.6742566,179.256432 38.6742566,208.346947 C38.6742566,237.437462 62.5070704,261.019984 91.9063362,261.019984 C121.305602,261.019984 145.138416,237.437462 145.138416,208.346947 C145.110136,179.266857 121.295063,155.698644 91.9063362,155.666657 L91.9063362,155.673911 Z" id="Shape" fill="#65C9D5" fill-rule="nonzero"></path>
                                <path d="M237.004043,299.288085 C186.241526,299.288085 145.090376,258.569103 145.090376,208.339694 C145.090376,158.110286 186.241526,117.391304 237.004043,117.391304 C287.766559,117.391304 328.917709,158.110286 328.917709,208.339694 C328.861153,258.545905 287.743114,299.232122 237.004043,299.288085 L237.004043,299.288085 Z M237.004043,155.673911 C207.604777,155.673911 183.771963,179.256433 183.771963,208.346948 C183.771963,237.437463 207.604777,261.019985 237.004043,261.019985 C266.403309,261.019985 290.236122,237.437463 290.236122,208.346948 C290.207843,179.266857 266.39277,155.698644 237.004043,155.666658 L237.004043,155.673911 Z" id="Shape" fill="#6E7F89" fill-rule="nonzero"></path>
                                <ellipse id="Oval" fill="#F8F2EA" fill-rule="nonzero" cx="162.254977" cy="87.4844526" rx="53.0414939" ry="52.4844526"></ellipse>
                                <g id="simple" transform="translate(147.640449, 58.000000)" fill-rule="nonzero" fill="#77A240">
                                    <path d="M4.20362047,0.326381238 C3.9245459,0.329223807 3.65821312,0.442325381 3.46395815,0.640488168 C3.26970319,0.838650956 3.16366384,1.1054125 3.16946452,1.38134127 L3.16946452,16.3445498 C1.56860189,16.7991162 0.382686361,18.2611003 0.382686361,19.9830855 C0.382686361,21.704834 1.56893631,23.1668391 3.16946452,23.6216211 L3.16946452,28.2505273 C3.1641345,28.6232194 3.36214441,28.9698788 3.68767238,29.157763 C4.01320034,29.3456472 4.41581231,29.3456472 4.74134027,29.157763 C5.06686824,28.9698788 5.26487815,28.6232194 5.25954813,28.2505273 L5.25954813,23.6216211 C6.86007634,23.1668391 8.04632629,21.704834 8.04632629,19.9830855 C8.04632629,18.2611003 6.8604111,16.7991162 5.25954813,16.3445498 L5.25954813,1.38134127 C5.26542799,1.10167863 5.15642596,0.831602039 4.95743782,0.632796242 C4.75844967,0.433990445 4.48647081,0.323435278 4.20362047,0.326381238 Z M15.3507331,0.326381238 C15.0716585,0.329223807 14.8053257,0.442325381 14.6110708,0.640488168 C14.4168158,0.838650956 14.3107765,1.1054125 14.3165771,1.38134127 L14.3165771,6.01024752 C12.7157145,6.46481386 11.529799,7.92679797 11.529799,9.64878313 C11.529799,11.3705316 12.7160489,12.8325368 14.3165771,13.2873187 L14.3165771,28.2505273 C14.3112471,28.6232194 14.509257,28.9698788 14.834785,29.157763 C15.160313,29.3456472 15.5629249,29.3456472 15.8884529,29.157763 C16.2139809,28.9698788 16.4119908,28.6232194 16.4066608,28.2505273 L16.4066608,13.2873187 C18.007189,12.8325368 19.1934389,11.3705316 19.1934389,9.64878313 C19.1934389,7.92679797 18.0075237,6.46481386 16.4066608,6.01024752 L16.4066608,1.38134127 C16.4125406,1.10167863 16.3035386,0.831602039 16.1045504,0.632796242 C15.9055623,0.433990445 15.6335834,0.323435278 15.3507331,0.326381238 Z M26.4978457,0.326381238 C26.2187711,0.329223807 25.9524384,0.442325381 25.7581834,0.640488168 C25.5639284,0.838650956 25.4578891,1.1054125 25.4636898,1.38134127 L25.4636898,16.3445498 C23.8628324,16.799109 22.6769116,18.2610717 22.6769116,19.9830855 C22.6769116,21.704834 23.8631616,23.1668391 25.4636898,23.6216211 L25.4636898,28.2505273 C25.4583597,28.6232194 25.6563697,28.9698788 25.9818976,29.157763 C26.3074256,29.3456472 26.7100375,29.3456472 27.0355655,29.157763 C27.3610935,28.9698788 27.5591034,28.6232194 27.5537734,28.2505273 L27.5537734,23.6216211 C29.1543016,23.1668391 30.3405515,21.704834 30.3405515,19.9830855 C30.3405515,18.2610717 29.1546311,16.799109 27.5537734,16.3445498 L27.5537734,1.38134127 C27.5596532,1.10167863 27.4506512,0.831602039 27.2516631,0.632796242 C27.0526749,0.433990445 26.7806961,0.323435278 26.4978457,0.326381238 Z M15.3616189,7.92639941 C16.3359212,7.92639941 17.1033553,8.68528167 17.1033553,9.64878313 C17.1033553,10.6122846 16.3359212,11.3711668 15.3616189,11.3711668 C14.3873171,11.3711668 13.6198826,10.6122846 13.6198826,9.64878313 C13.6198826,8.68528167 14.3873171,7.92639941 15.3616189,7.92639941 Z M4.21450632,18.2607017 C5.18880856,18.2607017 5.95624267,19.019584 5.95624267,19.9830855 C5.95624267,20.9465869 5.18880856,21.7054692 4.21450632,21.7054692 C3.24020444,21.7054692 2.47276998,20.9465869 2.47276998,19.9830855 C2.47276998,19.019584 3.24020444,18.2607017 4.21450632,18.2607017 Z M26.5087316,18.2607017 C27.4830495,18.2607017 28.2504679,19.0195496 28.2504679,19.9830855 C28.2504679,20.9465869 27.4830338,21.7054692 26.5087316,21.7054692 C25.5344297,21.7054692 24.7669952,20.9465869 24.7669952,19.9830855 C24.7669952,19.0195496 25.534414,18.2607017 26.5087316,18.2607017 Z" id="Shape" transform="translate(15.361619, 14.812500) rotate(-270.000000) translate(-15.361619, -14.812500) "></path>
                                </g>
                                <path d="M162.517799,176.036161 C113.392734,176.02815 73.5748062,136.617566 73.5802036,88.0084114 C73.585601,39.3992565 113.412279,-0.00266869756 162.537346,1.32820617e-06 C211.662412,0.00267135397 251.484715,39.4089256 251.484716,88.0180807 C251.428148,136.611583 211.627055,175.988196 162.517799,176.036161 Z M162.517799,38.2753533 C134.754075,38.2753533 112.24713,60.545931 112.24713,88.0180807 C112.24713,115.490231 134.754075,137.760808 162.517799,137.760808 C190.281523,137.760808 212.788469,115.490231 212.788469,88.0180807 C212.756154,60.5591865 190.268127,38.3073287 162.517799,38.2753533 L162.517799,38.2753533 Z" id="Shape" fill="#F98D1B" fill-rule="nonzero"></path>
                                <path d="M134.428384,129.209237 L115.978213,163.045607" id="Shape" stroke="#65C9D5"></path>
                                <path d="M183.819427,205.302989 L144.434139,205.448054" id="Shape" stroke="#65C9D5"></path>
                                <path d="M192.256514,128.193783 L211.769568,161.319335" id="Shape"></path>
                                <path d="M193.792041,126.421405 C196.328586,130.936455 209.032119,152.920142 214.59171,160.535117 C213.007715,161.406722 185.026299,176.435083 184.15317,206.688963 C184.112336,206.764205 144.075758,206.688963 144.075758,206.688963 C143.913495,204.922816 142.526148,178.046529 114.493289,163.015159 C114.467382,162.984084 133.408515,127.73808 133.408515,127.73808 C135.239768,128.288568 168.788091,144.159338 193.792041,126.421405 Z" id="Shape" fill="#FFFFFF" fill-rule="nonzero"></path>
                                <path d="M137.007125,153.778626 L140.18719,164.608016 L143.389649,164.608016 L144.486996,160.798905 C144.778128,159.78019 145.002077,158.78362 145.20363,157.432715 L145.24842,157.432715 C145.472368,158.761474 145.673921,159.735898 145.942659,160.798905 L146.972821,164.608016 L150.17528,164.608016 L153.534504,153.778626 L150.197675,153.778626 L149.257093,158.074948 C149.01075,159.315124 148.786802,160.533153 148.630038,161.773329 L148.585248,161.773329 C148.3613,160.533153 148.070167,159.315124 147.779035,158.097094 L146.681688,153.778626 L143.99431,153.778626 L142.829779,158.22997 C142.561041,159.292978 142.247514,160.533153 142.023565,161.773329 L141.978776,161.773329 C141.799617,160.533153 141.575669,159.33727 141.351721,158.207824 L140.478323,153.778626 L137.007125,153.778626 Z" id="w" fill="#77A240"></path>
                                <path d="M154.736359,153.778626 L157.916424,164.608016 L161.118883,164.608016 L162.21623,160.798905 C162.507362,159.78019 162.731311,158.78362 162.932864,157.432715 L162.977654,157.432715 C163.201602,158.761474 163.403155,159.735898 163.671893,160.798905 L164.702055,164.608016 L167.904515,164.608016 L171.263738,153.778626 L167.926909,153.778626 L166.986327,158.074948 C166.739984,159.315124 166.516036,160.533153 166.359272,161.773329 L166.314482,161.773329 C166.090534,160.533153 165.799401,159.315124 165.508269,158.097094 L164.410922,153.778626 L161.723544,153.778626 L160.559013,158.22997 C160.290275,159.292978 159.976748,160.533153 159.752799,161.773329 L159.70801,161.773329 C159.528851,160.533153 159.304903,159.33727 159.080955,158.207824 L158.207557,153.778626 L154.736359,153.778626 Z" id="w" fill="#77A240"></path>
                                <path d="M172.465593,153.778626 L175.645658,164.608016 L178.848118,164.608016 L179.945464,160.798905 C180.236596,159.78019 180.460545,158.78362 180.662098,157.432715 L180.706888,157.432715 C180.930836,158.761474 181.132389,159.735898 181.401127,160.798905 L182.431289,164.608016 L185.633749,164.608016 L188.992972,153.778626 L185.656143,153.778626 L184.715561,158.074948 C184.469218,159.315124 184.24527,160.533153 184.088506,161.773329 L184.043716,161.773329 C183.819768,160.533153 183.528635,159.315124 183.237503,158.097094 L182.140156,153.778626 L179.452778,153.778626 L178.288247,158.22997 C178.019509,159.292978 177.705982,160.533153 177.482033,161.773329 L177.437244,161.773329 C177.258085,160.533153 177.034137,159.33727 176.810189,158.207824 L175.936791,153.778626 L172.465593,153.778626 Z" id="w" fill="#77A240"></path>
                            </g>
                        </g>
                    </g>
                </g>
                <path d="M252.181641,109.519531 C251.771482,109.519531 251.414064,109.476563 251.109375,109.390625 L251.109375,107.878906 C251.421877,107.957032 251.70703,107.996094 251.964844,107.996094 C252.363283,107.996094 252.648437,107.872072 252.820312,107.624023 C252.992188,107.375975 253.078125,106.988284 253.078125,106.460938 L253.078125,98.4335938 L254.894531,98.4335938 L254.894531,106.449219 C254.894531,107.449224 254.666018,108.210935 254.208984,108.734375 C253.751951,109.257815 253.076176,109.519531 252.181641,109.519531 Z M259.161508,101.597656 C258.7826,101.597656 258.485728,101.717772 258.270883,101.958008 C258.056039,102.198243 257.932993,102.53906 257.901743,102.980469 L260.409555,102.980469 C260.401743,102.53906 260.286509,102.198243 260.063852,101.958008 C259.841195,101.717772 259.540417,101.597656 259.161508,101.597656 Z M259.413461,107.117188 C258.358769,107.117188 257.534558,106.826175 256.940805,106.244141 C256.347052,105.662106 256.05018,104.837896 256.05018,103.771484 C256.05018,102.673823 256.324592,101.825198 256.873422,101.225586 C257.422253,100.625974 258.181035,100.326172 259.14979,100.326172 C260.075576,100.326172 260.796271,100.589841 261.311899,101.117188 C261.827527,101.644534 262.085336,102.373042 262.085336,103.302734 L262.085336,104.169922 L257.860727,104.169922 C257.880258,104.677737 258.030648,105.074217 258.311899,105.359375 C258.59315,105.644533 258.987678,105.787109 259.495493,105.787109 C259.890026,105.787109 260.263069,105.746094 260.614633,105.664062 C260.966198,105.582031 261.333381,105.451173 261.716196,105.271484 L261.716196,106.654297 C261.403694,106.810548 261.069713,106.926757 260.714243,107.00293 C260.358772,107.079102 259.925183,107.117188 259.413461,107.117188 Z M265.151142,107.117188 C264.381607,107.117188 263.777121,106.818362 263.337665,106.220703 C262.89821,105.623044 262.678486,104.794927 262.678486,103.736328 C262.678486,102.662104 262.902116,101.825198 263.349384,101.225586 C263.796652,100.625974 264.412857,100.326172 265.198017,100.326172 C266.02224,100.326172 266.65114,100.646481 267.084736,101.287109 L267.143329,101.287109 C267.053485,100.798826 267.008564,100.363283 267.008564,99.9804688 L267.008564,97.8828125 L268.801532,97.8828125 L268.801532,107 L267.430439,107 L267.084736,106.150391 L267.008564,106.150391 C266.602312,106.794925 265.983177,107.117188 265.151142,107.117188 Z M265.778095,105.693359 C266.235128,105.693359 266.570086,105.560548 266.782978,105.294922 C266.995869,105.029296 267.112079,104.578128 267.131611,103.941406 L267.131611,103.748047 C267.131611,103.044918 267.023213,102.541017 266.806415,102.236328 C266.589617,101.931639 266.237082,101.779297 265.748798,101.779297 C265.350359,101.779297 265.040791,101.94824 264.820087,102.286133 C264.599383,102.624025 264.489032,103.115231 264.489032,103.759766 C264.489032,104.4043 264.600359,104.887694 264.823017,105.209961 C265.045674,105.532228 265.36403,105.693359 265.778095,105.693359 Z M276.25601,107 L274.4689,107 L274.4689,103.173828 C274.4689,102.70117 274.384917,102.346681 274.216947,102.110352 C274.048977,101.874022 273.781402,101.755859 273.414213,101.755859 C272.91421,101.755859 272.552886,101.92285 272.330228,102.256836 C272.107571,102.590822 271.996244,103.144527 271.996244,103.917969 L271.996244,107 L270.209135,107 L270.209135,100.449219 L271.574369,100.449219 L271.814603,101.287109 L271.914213,101.287109 C272.113432,100.970702 272.387844,100.731446 272.737455,100.569336 C273.087066,100.407226 273.484523,100.326172 273.929838,100.326172 C274.69156,100.326172 275.269679,100.532225 275.664213,100.944336 C276.058746,101.356447 276.25601,101.951168 276.25601,102.728516 L276.25601,107 Z M279.058143,103.712891 C279.058143,104.361331 279.164587,104.851561 279.377479,105.183594 C279.590371,105.515627 279.937047,105.681641 280.417518,105.681641 C280.894083,105.681641 281.236853,105.516603 281.445838,105.186523 C281.654824,104.856444 281.759315,104.365238 281.759315,103.712891 C281.759315,103.06445 281.653847,102.578127 281.442908,102.253906 C281.23197,101.929686 280.88627,101.767578 280.405799,101.767578 C279.929234,101.767578 279.585488,101.928709 279.374549,102.250977 C279.163611,102.573244 279.058143,103.060544 279.058143,103.712891 Z M283.58744,103.712891 C283.58744,104.779302 283.306193,105.613278 282.74369,106.214844 C282.181187,106.816409 281.397992,107.117188 280.39408,107.117188 C279.765171,107.117188 279.210489,106.979494 278.730018,106.704102 C278.249547,106.42871 277.88041,106.033206 277.622596,105.517578 C277.364782,105.001951 277.235877,104.400394 277.235877,103.712891 C277.235877,102.642573 277.515171,101.81055 278.073768,101.216797 C278.632364,100.623044 279.417513,100.326172 280.429237,100.326172 C281.058146,100.326172 281.612828,100.462889 282.093299,100.736328 C282.57377,101.009767 282.942907,101.402341 283.200721,101.914062 C283.458535,102.425784 283.58744,103.025387 283.58744,103.712891 Z M286.676682,107.117188 C285.907147,107.117188 285.302661,106.818362 284.863206,106.220703 C284.423751,105.623044 284.204026,104.794927 284.204026,103.736328 C284.204026,102.662104 284.427657,101.825198 284.874925,101.225586 C285.322193,100.625974 285.938397,100.326172 286.723557,100.326172 C287.54778,100.326172 288.17668,100.646481 288.610276,101.287109 L288.66887,101.287109 C288.579026,100.798826 288.534104,100.363283 288.534104,99.9804688 L288.534104,97.8828125 L290.327073,97.8828125 L290.327073,107 L288.955979,107 L288.610276,106.150391 L288.534104,106.150391 C288.127852,106.794925 287.508718,107.117188 286.676682,107.117188 Z M287.303636,105.693359 C287.760669,105.693359 288.095627,105.560548 288.308518,105.294922 C288.52141,105.029296 288.63762,104.578128 288.657151,103.941406 L288.657151,103.748047 C288.657151,103.044918 288.548754,102.541017 288.331956,102.236328 C288.115158,101.931639 287.762622,101.779297 287.274339,101.779297 C286.875899,101.779297 286.566332,101.94824 286.345628,102.286133 C286.124924,102.624025 286.014573,103.115231 286.014573,103.759766 C286.014573,104.4043 286.1259,104.887694 286.348557,105.209961 C286.571215,105.532228 286.889571,105.693359 287.303636,105.693359 Z M296.3753,107 L296.135066,106.162109 L296.041316,106.162109 C295.849909,106.466798 295.578427,106.702148 295.226863,106.868164 C294.875298,107.034181 294.474912,107.117188 294.025691,107.117188 C293.256156,107.117188 292.676083,106.911135 292.285457,106.499023 C291.89483,106.086912 291.699519,105.494144 291.699519,104.720703 L291.699519,100.449219 L293.486628,100.449219 L293.486628,104.275391 C293.486628,104.748049 293.570612,105.102538 293.738582,105.338867 C293.906551,105.575196 294.174127,105.693359 294.541316,105.693359 C295.041318,105.693359 295.402643,105.526369 295.6253,105.192383 C295.847958,104.858397 295.959285,104.304691 295.959285,103.53125 L295.959285,100.449219 L297.746394,100.449219 L297.746394,107 L296.3753,107 Z M301.820012,107.117188 C299.780939,107.117188 298.761418,105.998058 298.761418,103.759766 C298.761418,102.646479 299.038759,101.795901 299.593449,101.208008 C300.14814,100.620114 300.943053,100.326172 301.978215,100.326172 C302.736031,100.326172 303.415712,100.474608 304.017277,100.771484 L303.489934,102.154297 C303.208682,102.041015 302.946966,101.948243 302.704777,101.875977 C302.462589,101.803711 302.220404,101.767578 301.978215,101.767578 C301.048523,101.767578 300.583684,102.427728 300.583684,103.748047 C300.583684,105.029303 301.048523,105.669922 301.978215,105.669922 C302.321967,105.669922 302.640323,105.624024 302.933293,105.532227 C303.226263,105.440429 303.519229,105.296876 303.812199,105.101562 L303.812199,106.630859 C303.523135,106.814454 303.231146,106.941406 302.936223,107.011719 C302.641299,107.082032 302.269233,107.117188 301.820012,107.117188 Z M310.915114,107 L309.128004,107 L309.128004,103.173828 C309.128004,102.228511 308.776446,101.755859 308.073317,101.755859 C307.573314,101.755859 307.21199,101.92578 306.989333,102.265625 C306.766675,102.60547 306.655348,103.156246 306.655348,103.917969 L306.655348,107 L304.868239,107 L304.868239,97.8828125 L306.655348,97.8828125 L306.655348,99.7402344 C306.655348,99.8847663 306.641677,100.224607 306.614333,100.759766 L306.573317,101.287109 L306.667067,101.287109 C307.065506,100.646481 307.698313,100.326172 308.565504,100.326172 C309.33504,100.326172 309.919018,100.533201 310.317458,100.947266 C310.715897,101.36133 310.915114,101.955074 310.915114,102.728516 L310.915114,107 Z M315.00631,101.597656 C314.627402,101.597656 314.33053,101.717772 314.115685,101.958008 C313.90084,102.198243 313.777794,102.53906 313.746544,102.980469 L316.254357,102.980469 C316.246544,102.53906 316.131311,102.198243 315.908654,101.958008 C315.685996,101.717772 315.385218,101.597656 315.00631,101.597656 Z M315.258263,107.117188 C314.20357,107.117188 313.37936,106.826175 312.785607,106.244141 C312.191854,105.662106 311.894982,104.837896 311.894982,103.771484 C311.894982,102.673823 312.169393,101.825198 312.718224,101.225586 C313.267055,100.625974 314.025836,100.326172 314.994591,100.326172 C315.920377,100.326172 316.641073,100.589841 317.1567,101.117188 C317.672328,101.644534 317.930138,102.373042 317.930138,103.302734 L317.930138,104.169922 L313.705529,104.169922 C313.72506,104.677737 313.875449,105.074217 314.1567,105.359375 C314.437952,105.644533 314.832479,105.787109 315.340294,105.787109 C315.734827,105.787109 316.10787,105.746094 316.459435,105.664062 C316.810999,105.582031 317.178183,105.451173 317.560997,105.271484 L317.560997,106.654297 C317.248496,106.810548 316.914515,106.926757 316.559044,107.00293 C316.203574,107.079102 315.769984,107.117188 315.258263,107.117188 Z M313.97506,99.7285156 L313.97506,99.5703125 C314.646938,98.7890586 315.105918,98.2011738 315.352013,97.8066406 L317.355919,97.8066406 L317.355919,97.9296875 C317.152793,98.1328135 316.806117,98.4345683 316.31588,98.8349609 C315.825643,99.2353536 315.441858,99.5332021 315.164513,99.7285156 L313.97506,99.7285156 Z" id="Jednoduché" fill="#4E4E4E"></path>
                <path d="M190.865234,230 L189.078125,230 L189.078125,221.433594 L193.988281,221.433594 L193.988281,222.921875 L190.865234,222.921875 L190.865234,225.130859 L193.771484,225.130859 L193.771484,226.613281 L190.865234,226.613281 L190.865234,230 Z M196.849008,230 L195.061899,230 L195.061899,220.882812 L196.849008,220.882812 L196.849008,230 Z M200.975361,224.597656 C200.596452,224.597656 200.29958,224.717772 200.084736,224.958008 C199.869891,225.198243 199.746845,225.53906 199.715595,225.980469 L202.223407,225.980469 C202.215595,225.53906 202.100362,225.198243 201.877704,224.958008 C201.655047,224.717772 201.354269,224.597656 200.975361,224.597656 Z M201.227314,230.117188 C200.172621,230.117188 199.34841,229.826175 198.754657,229.244141 C198.160904,228.662106 197.864032,227.837896 197.864032,226.771484 C197.864032,225.673823 198.138444,224.825198 198.687275,224.225586 C199.236105,223.625974 199.994887,223.326172 200.963642,223.326172 C201.889428,223.326172 202.610124,223.589841 203.125751,224.117188 C203.641379,224.644534 203.899189,225.373042 203.899189,226.302734 L203.899189,227.169922 L199.674579,227.169922 C199.694111,227.677737 199.8445,228.074217 200.125751,228.359375 C200.407003,228.644533 200.80153,228.787109 201.309345,228.787109 C201.703878,228.787109 202.076921,228.746094 202.428486,228.664062 C202.78005,228.582031 203.147234,228.451173 203.530048,228.271484 L203.530048,229.654297 C203.217546,229.810548 202.883565,229.926757 202.528095,230.00293 C202.172624,230.079102 201.739035,230.117188 201.227314,230.117188 Z M205.992338,226.654297 L203.882963,223.449219 L205.910306,223.449219 L207.181791,225.535156 L208.464994,223.449219 L210.492338,223.449219 L208.359525,226.654297 L210.591947,230 L208.558744,230 L207.181791,227.755859 L205.798978,230 L203.771635,230 L205.992338,226.654297 Z M211.05033,221.755859 C211.05033,221.173825 211.374546,220.882812 212.022987,220.882812 C212.671427,220.882812 212.995643,221.173825 212.995643,221.755859 C212.995643,222.033205 212.914589,222.249023 212.752479,222.40332 C212.590369,222.557618 212.347207,222.634766 212.022987,222.634766 C211.374546,222.634766 211.05033,222.3418 211.05033,221.755859 Z M212.913612,230 L211.126502,230 L211.126502,223.449219 L212.913612,223.449219 L212.913612,230 Z M217.971604,223.326172 C218.745046,223.326172 219.350508,223.627927 219.788011,224.231445 C220.225513,224.834964 220.444261,225.662104 220.444261,226.712891 C220.444261,227.794927 220.218677,228.63281 219.767503,229.226562 C219.316329,229.820315 218.702077,230.117188 217.924729,230.117188 C217.155194,230.117188 216.551685,229.837893 216.114182,229.279297 L215.991136,229.279297 L215.692307,230 L214.327073,230 L214.327073,220.882812 L216.114182,220.882812 L216.114182,223.003906 C216.114182,223.273439 216.090745,223.705075 216.04387,224.298828 L216.114182,224.298828 C216.532153,223.650387 217.151288,223.326172 217.971604,223.326172 Z M217.397386,224.755859 C216.955977,224.755859 216.633715,224.8916 216.430589,225.163086 C216.227463,225.434572 216.121995,225.882809 216.114182,226.507812 L216.114182,226.701172 C216.114182,227.4043 216.218674,227.908202 216.427659,228.212891 C216.636644,228.51758 216.967696,228.669922 217.420823,228.669922 C217.788012,228.669922 218.080002,228.500978 218.2968,228.163086 C218.513598,227.825194 218.621995,227.333988 218.621995,226.689453 C218.621995,226.044919 218.512621,225.561525 218.29387,225.239258 C218.075119,224.916991 217.776294,224.755859 217.397386,224.755859 Z M221.383113,221.755859 C221.383113,221.173825 221.707328,220.882812 222.355769,220.882812 C223.00421,220.882812 223.328425,221.173825 223.328425,221.755859 C223.328425,222.033205 223.247371,222.249023 223.085261,222.40332 C222.923151,222.557618 222.679989,222.634766 222.355769,222.634766 C221.707328,222.634766 221.383113,222.3418 221.383113,221.755859 Z M223.246394,230 L221.459285,230 L221.459285,223.449219 L223.246394,223.449219 L223.246394,230 Z M226.446965,230 L224.659855,230 L224.659855,220.882812 L226.446965,220.882812 L226.446965,230 Z M233.907301,230 L232.120192,230 L232.120192,226.173828 C232.120192,225.70117 232.036208,225.346681 231.868239,225.110352 C231.700269,224.874022 231.432694,224.755859 231.065504,224.755859 C230.565502,224.755859 230.204177,224.92285 229.98152,225.256836 C229.758863,225.590822 229.647536,226.144527 229.647536,226.917969 L229.647536,230 L227.860426,230 L227.860426,223.449219 L229.225661,223.449219 L229.465895,224.287109 L229.565504,224.287109 C229.764724,223.970702 230.039136,223.731446 230.388747,223.569336 C230.738358,223.407226 231.135815,223.326172 231.581129,223.326172 C232.342852,223.326172 232.920971,223.532225 233.315504,223.944336 C233.710038,224.356447 233.907301,224.951168 233.907301,225.728516 L233.907301,230 Z M237.072716,230 L235.285607,230 L235.285607,223.449219 L237.072716,223.449219 L237.072716,230 Z M235.197716,222.728516 L235.197716,222.570312 C235.869594,221.789059 236.328574,221.201174 236.574669,220.806641 L238.578575,220.806641 L238.578575,220.929688 C238.375449,221.132814 238.028773,221.434568 237.538536,221.834961 C237.048299,222.235354 236.664514,222.533202 236.387169,222.728516 L235.197716,222.728516 Z" id="Flexibilní" fill="#4E4E4E"></path>
                <path d="M328.185547,225.634766 C328.185547,227.044929 327.784184,228.124996 326.981445,228.875 C326.178707,229.625004 325.019539,230 323.503906,230 L321.078125,230 L321.078125,221.433594 L323.767578,221.433594 C325.166023,221.433594 326.251949,221.802731 327.025391,222.541016 C327.798832,223.279301 328.185547,224.31054 328.185547,225.634766 Z M326.298828,225.681641 C326.298828,223.841788 325.486336,222.921875 323.861328,222.921875 L322.894531,222.921875 L322.894531,228.5 L323.673828,228.5 C325.423837,228.5 326.298828,227.560556 326.298828,225.681641 Z M333.999399,230 L333.759165,229.162109 L333.665415,229.162109 C333.474007,229.466798 333.202526,229.702148 332.850961,229.868164 C332.499397,230.034181 332.099011,230.117188 331.64979,230.117188 C330.880255,230.117188 330.300182,229.911135 329.909555,229.499023 C329.518928,229.086912 329.323618,228.494144 329.323618,227.720703 L329.323618,223.449219 L331.110727,223.449219 L331.110727,227.275391 C331.110727,227.748049 331.194711,228.102538 331.36268,228.338867 C331.53065,228.575196 331.798225,228.693359 332.165415,228.693359 C332.665417,228.693359 333.026742,228.526369 333.249399,228.192383 C333.472056,227.858397 333.583383,227.304691 333.583383,226.53125 L333.583383,223.449219 L335.370493,223.449219 L335.370493,230 L333.999399,230 Z M333.811899,221.333984 C333.811899,221.755861 333.673229,222.095702 333.395883,222.353516 C333.118538,222.611329 332.76112,222.740234 332.323618,222.740234 C331.886116,222.740234 331.534557,222.615236 331.26893,222.365234 C331.003304,222.115233 330.870493,221.775393 330.870493,221.345703 C330.870493,220.923826 331.002327,220.586915 331.266001,220.334961 C331.529674,220.083007 331.882209,219.957031 332.323618,219.957031 C332.753307,219.957031 333.108773,220.085936 333.390024,220.34375 C333.671275,220.601564 333.811899,220.931639 333.811899,221.333984 Z M332.886118,221.345703 C332.886118,221.169921 332.833384,221.032227 332.727915,220.932617 C332.622445,220.833007 332.487681,220.783203 332.323618,220.783203 C332.159554,220.783203 332.02479,220.833007 331.919321,220.932617 C331.813852,221.032227 331.761118,221.169921 331.761118,221.345703 C331.761118,221.521485 331.807992,221.660156 331.901743,221.761719 C331.995493,221.863282 332.136117,221.914062 332.323618,221.914062 C332.487681,221.914062 332.622445,221.863282 332.727915,221.761719 C332.833384,221.660156 332.886118,221.521485 332.886118,221.345703 Z M338.342548,230 L335.846454,223.449219 L337.715595,223.449219 L338.98122,227.181641 C339.121846,227.654299 339.209735,228.10156 339.244892,228.523438 L339.280048,228.523438 C339.299579,228.148436 339.387469,227.701174 339.54372,227.181641 L340.803486,223.449219 L342.672626,223.449219 L340.176532,230 L338.342548,230 Z M345.861478,224.597656 C345.48257,224.597656 345.185698,224.717772 344.970853,224.958008 C344.756008,225.198243 344.632963,225.53906 344.601713,225.980469 L347.109525,225.980469 C347.101713,225.53906 346.986479,225.198243 346.763822,224.958008 C346.541165,224.717772 346.240386,224.597656 345.861478,224.597656 Z M346.113431,230.117188 C345.058739,230.117188 344.234528,229.826175 343.640775,229.244141 C343.047022,228.662106 342.75015,227.837896 342.75015,226.771484 C342.75015,225.673823 343.024561,224.825198 343.573392,224.225586 C344.122223,223.625974 344.881005,223.326172 345.84976,223.326172 C346.775545,223.326172 347.496241,223.589841 348.011869,224.117188 C348.527496,224.644534 348.785306,225.373042 348.785306,226.302734 L348.785306,227.169922 L344.560697,227.169922 C344.580228,227.677737 344.730617,228.074217 345.011869,228.359375 C345.29312,228.644533 345.687648,228.787109 346.195463,228.787109 C346.589996,228.787109 346.963039,228.746094 347.314603,228.664062 C347.666168,228.582031 348.033351,228.451173 348.416166,228.271484 L348.416166,229.654297 C348.103664,229.810548 347.769683,229.926757 347.414213,230.00293 C347.058742,230.079102 346.625153,230.117188 346.113431,230.117188 Z M348.404447,220.806641 L348.404447,220.964844 C348.07632,221.29297 347.774566,221.620116 347.499174,221.946289 C347.223782,222.272463 347.025541,222.533202 346.904447,222.728516 L344.81265,222.728516 C344.699368,222.544921 344.537261,222.325197 344.326322,222.069336 C344.115383,221.813475 343.777496,221.445315 343.31265,220.964844 L343.31265,220.806641 L344.502103,220.806641 C345.076325,221.169924 345.523586,221.51367 345.8439,221.837891 C346.172027,221.498045 346.629053,221.154299 347.214994,220.806641 L348.404447,220.806641 Z M353.433143,223.326172 C353.675332,223.326172 353.876501,223.34375 354.036658,223.378906 L353.901893,225.054688 C353.757361,225.015625 353.581581,224.996094 353.374549,224.996094 C352.804234,224.996094 352.359902,225.142577 352.041541,225.435547 C351.72318,225.728517 351.564002,226.138669 351.564002,226.666016 L351.564002,230 L349.776893,230 L349.776893,223.449219 L351.130408,223.449219 L351.39408,224.550781 L351.481971,224.550781 C351.685097,224.183592 351.959508,223.887696 352.305213,223.663086 C352.650918,223.438475 353.026891,223.326172 353.433143,223.326172 Z M353.827073,223.449219 L355.784104,223.449219 L357.020432,227.134766 C357.125902,227.45508 357.198167,227.833982 357.237229,228.271484 L357.272386,228.271484 C357.315355,227.869139 357.399338,227.490236 357.524339,227.134766 L358.737229,223.449219 L360.653245,223.449219 L357.881761,230.837891 C357.627853,231.521488 357.265552,232.033201 356.794847,232.373047 C356.324141,232.712892 355.774342,232.882812 355.145432,232.882812 C354.836837,232.882812 354.534106,232.84961 354.237229,232.783203 L354.237229,231.365234 C354.452074,231.416016 354.686447,231.441406 354.940354,231.441406 C355.256762,231.441406 355.533127,231.344728 355.769456,231.151367 C356.005785,230.958007 356.190354,230.666018 356.323167,230.275391 L356.428636,229.953125 L353.827073,223.449219 Z M367.176082,230 L365.388972,230 L365.388972,226.173828 C365.388972,225.228511 365.037413,224.755859 364.334285,224.755859 C363.834282,224.755859 363.472958,224.92578 363.2503,225.265625 C363.027643,225.60547 362.916316,226.156246 362.916316,226.917969 L362.916316,230 L361.129207,230 L361.129207,220.882812 L362.916316,220.882812 L362.916316,222.740234 C362.916316,222.884766 362.902644,223.224607 362.8753,223.759766 L362.834285,224.287109 L362.928035,224.287109 C363.326474,223.646481 363.95928,223.326172 364.826472,223.326172 C365.596007,223.326172 366.179986,223.533201 366.578425,223.947266 C366.976865,224.36133 367.176082,224.955074 367.176082,225.728516 L367.176082,230 Z M369.978215,226.712891 C369.978215,227.361331 370.084659,227.851561 370.297551,228.183594 C370.510443,228.515627 370.857119,228.681641 371.33759,228.681641 C371.814155,228.681641 372.156925,228.516603 372.36591,228.186523 C372.574896,227.856444 372.679387,227.365238 372.679387,226.712891 C372.679387,226.06445 372.573919,225.578127 372.36298,225.253906 C372.152042,224.929686 371.806342,224.767578 371.325871,224.767578 C370.849306,224.767578 370.50556,224.928709 370.294621,225.250977 C370.083683,225.573244 369.978215,226.060544 369.978215,226.712891 Z M374.507512,226.712891 C374.507512,227.779302 374.226265,228.613278 373.663762,229.214844 C373.101259,229.816409 372.318064,230.117188 371.314152,230.117188 C370.685243,230.117188 370.130561,229.979494 369.65009,229.704102 C369.169619,229.42871 368.800482,229.033206 368.542668,228.517578 C368.284854,228.001951 368.155949,227.400394 368.155949,226.712891 C368.155949,225.642573 368.435243,224.81055 368.99384,224.216797 C369.552436,223.623044 370.337585,223.326172 371.349309,223.326172 C371.978218,223.326172 372.5329,223.462889 373.013371,223.736328 C373.493842,224.009767 373.862979,224.402341 374.120793,224.914062 C374.378607,225.425784 374.507512,226.025387 374.507512,226.712891 Z M377.596754,230.117188 C376.827219,230.117188 376.222733,229.818362 375.783278,229.220703 C375.343823,228.623044 375.124098,227.794927 375.124098,226.736328 C375.124098,225.662104 375.347729,224.825198 375.794997,224.225586 C376.242265,223.625974 376.858469,223.326172 377.643629,223.326172 C378.467852,223.326172 379.096752,223.646481 379.530348,224.287109 L379.588942,224.287109 C379.499098,223.798826 379.454176,223.363283 379.454176,222.980469 L379.454176,220.882812 L381.247145,220.882812 L381.247145,230 L379.876051,230 L379.530348,229.150391 L379.454176,229.150391 C379.047924,229.794925 378.42879,230.117188 377.596754,230.117188 Z M378.223708,228.693359 C378.680741,228.693359 379.015699,228.560548 379.22859,228.294922 C379.441482,228.029296 379.557692,227.578128 379.577223,226.941406 L379.577223,226.748047 C379.577223,226.044918 379.468826,225.541017 379.252028,225.236328 C379.03523,224.931639 378.682694,224.779297 378.194411,224.779297 C377.795971,224.779297 377.486404,224.94824 377.2657,225.286133 C377.044996,225.624025 376.934645,226.115231 376.934645,226.759766 C376.934645,227.4043 377.045972,227.887694 377.268629,228.209961 C377.491287,228.532228 377.809643,228.693359 378.223708,228.693359 Z M388.701622,230 L386.914513,230 L386.914513,226.173828 C386.914513,225.70117 386.830529,225.346681 386.66256,225.110352 C386.49459,224.874022 386.227015,224.755859 385.859825,224.755859 C385.359823,224.755859 384.998498,224.92285 384.775841,225.256836 C384.553184,225.590822 384.441857,226.144527 384.441857,226.917969 L384.441857,230 L382.654747,230 L382.654747,223.449219 L384.019982,223.449219 L384.260216,224.287109 L384.359825,224.287109 C384.559045,223.970702 384.833456,223.731446 385.183068,223.569336 C385.532679,223.407226 385.930136,223.326172 386.37545,223.326172 C387.137173,223.326172 387.715292,223.532225 388.109825,223.944336 C388.504359,224.356447 388.701622,224.951168 388.701622,225.728516 L388.701622,230 Z M392.792818,224.597656 C392.41391,224.597656 392.117038,224.717772 391.902193,224.958008 C391.687348,225.198243 391.564303,225.53906 391.533052,225.980469 L394.040865,225.980469 C394.033052,225.53906 393.917819,225.198243 393.695162,224.958008 C393.472505,224.717772 393.171726,224.597656 392.792818,224.597656 Z M393.044771,230.117188 C391.990078,230.117188 391.165868,229.826175 390.572115,229.244141 C389.978362,228.662106 389.68149,227.837896 389.68149,226.771484 C389.68149,225.673823 389.955901,224.825198 390.504732,224.225586 C391.053563,223.625974 391.812345,223.326172 392.781099,223.326172 C393.706885,223.326172 394.427581,223.589841 394.943209,224.117188 C395.458836,224.644534 395.716646,225.373042 395.716646,226.302734 L395.716646,227.169922 L391.492037,227.169922 C391.511568,227.677737 391.661957,228.074217 391.943209,228.359375 C392.22446,228.644533 392.618987,228.787109 393.126802,228.787109 C393.521336,228.787109 393.894379,228.746094 394.245943,228.664062 C394.597507,228.582031 394.964691,228.451173 395.347506,228.271484 L395.347506,229.654297 C395.035004,229.810548 394.701023,229.926757 394.345552,230.00293 C393.990082,230.079102 393.556493,230.117188 393.044771,230.117188 Z M391.761568,222.728516 L391.761568,222.570312 C392.433446,221.789059 392.892426,221.201174 393.138521,220.806641 L395.142427,220.806641 L395.142427,220.929688 C394.939301,221.132814 394.592625,221.434568 394.102388,221.834961 C393.612152,222.235354 393.228366,222.533202 392.951021,222.728516 L391.761568,222.728516 Z" id="Důvěryhodné" fill="#4E4E4E"></path>
            </g>
        </g>
    </g>
</svg>