<?xml version="1.0" encoding="UTF-8" standalone="no"?>
<svg width="330px" height="300px" viewBox="0 0 330 300" version="1.1" xmlns="http://www.w3.org/2000/svg" xmlns:xlink="http://www.w3.org/1999/xlink">
    <!-- Generator: Sketch 45.1 (43504) - http://www.bohemiancoding.com/sketch -->
    <title>Translations-Domains-fi</title>
    <desc>Created with Sketch.</desc>
    <defs></defs>
    <g id="SVG" stroke="none" stroke-width="1" fill="none" fill-rule="evenodd">
        <g id="Translations-Domains-FI" transform="translate(-220.000000, 0.000000)">
            <g id="Translations-Domains-fi" transform="translate(100.000000, 0.000000)">
                <g id="Domains-SVG">
                    <g id="Clouds" transform="translate(130.449438, 0.000000)" fill="#FFFFFF">
                        <path d="M88.7323253,8.41673731 C81.5584234,2.91036647 72.9774073,0 63.9169189,0 C55.6714209,0 47.7247028,2.45112932 40.9363655,7.08824983 C34.6411837,11.3880744 29.7276241,17.2811516 26.6670992,24.184998 C19.7040676,24.7078161 13.2285682,27.725021 8.32325602,32.7592893 C3.12328773,38.0961731 0.259387661,45.1189775 0.259387661,52.5342683 C0.259387661,59.9844261 3.14634288,67.031283 8.38848524,72.3769302 C13.6206933,77.7125088 20.6120283,80.7595463 28.0740259,80.9564422 C28.1229479,80.957188 95.1290998,80.9404071 98.0392976,80.9376103 C104.973276,80.6092641 111.364427,77.7033725 116.123161,72.7530087 C120.897827,67.7860504 123.52724,61.2739446 123.52724,54.4165253 C123.52724,41.9843064 114.879682,31.2803331 102.803092,28.5353517 C100.336191,20.622787 95.3718349,13.5129085 88.7323253,8.41673731 Z" id="Cloud" transform="translate(61.893314, 40.478233) scale(-1, 1) translate(-61.893314, -40.478233) "></path>
                        <path d="M275.960372,19.2809476 C271.459221,15.826063 266.0752,14 260.390341,14 C255.216835,14 250.230793,15.537922 245.971559,18.4474093 C242.021748,21.1452656 238.938813,24.8427829 237.018536,29.1744912 C232.649692,29.5025251 228.586744,31.3956221 225.508984,34.5542935 C222.246347,37.9028361 220.449438,42.3091827 220.449438,46.9617886 C220.449438,51.6362713 222.260812,56.0577093 225.549911,59.4117503 C228.832776,62.759474 233.219378,64.6712891 237.901289,64.7948282 C237.931985,64.7952962 279.973926,64.7847673 281.799883,64.7830125 C286.150497,64.5769969 290.160523,62.7537416 293.146315,59.6477148 C296.142103,56.531276 297.791886,52.4453591 297.791886,48.1427807 C297.791886,40.3423833 292.366114,33.6263461 284.78885,31.9040512 C283.241032,26.9394388 280.126226,22.4784589 275.960372,19.2809476 Z" id="Cloud" transform="translate(259.120662, 39.397422) scale(-1, 1) translate(-259.120662, -39.397422) "></path>
                    </g>
                    <g id="DOMAINS-TOP-IMG-EN" transform="translate(120.337079, 0.000000)">
                        <g id="domains">
                            <g id="Layer_1">
                                <ellipse id="Oval" fill="#F8F2EA" fill-rule="nonzero" cx="92.0918639" cy="208.209777" rx="54.6761336" ry="53.2097767"></ellipse>
                                <g id="flexible" transform="translate(63.707865, 179.000000)" fill-rule="nonzero" fill="#77A240">
                                    <path d="M30.64467,13.1561719 L31.8954729,14.3930769 L21.6047766,14.3930769 C21.1499392,14.3930769 20.7519565,14.7866376 20.7519565,15.2364213 C20.7519565,15.6862049 21.1499392,16.0797656 21.6047766,16.0797656 L31.8954729,16.0797656 L30.64467,17.3166707 C30.303542,17.6540084 30.303542,18.160015 30.64467,18.4973528 C30.815234,18.6660216 31.0426527,18.7222446 31.2700714,18.7222446 C31.4974901,18.7222446 31.7249088,18.6660216 31.8954729,18.4973528 L35.193044,15.2364213 L31.8954729,11.9754898 C31.5543448,11.638152 31.0426527,11.638152 30.7015247,11.9754898 C30.3603966,12.3128275 30.303542,12.8750571 30.64467,13.1561719 Z" id="Shape"></path>
                                    <path d="M53.1022668,11.9754898 C52.7611387,11.638152 52.2494466,11.638152 51.9083186,11.9754898 C51.5671905,12.3128275 51.5671905,12.8188341 51.9083186,13.1561719 L53.1591214,14.3930769 L48.6107474,14.3930769 C45.9385777,14.3930769 43.7781,12.2566046 43.7781,9.6141256 C43.7781,6.07207933 40.8785116,3.14848558 37.2398124,3.14848558 L35.6478814,3.14848558 C35.193044,3.14848558 34.7950613,3.54204627 34.7950613,3.99182993 C34.7950613,4.44161358 35.193044,4.83517428 35.6478814,4.83517428 L37.2398124,4.83517428 C39.9119821,4.83517428 42.0724598,6.97164663 42.0724598,9.6141256 C42.0724598,11.5257061 42.9252799,13.2123948 44.2329374,14.3930769 L42.9821346,14.3930769 C39.40029,14.3930769 36.4438469,17.2604477 36.4438469,20.8587169 C36.4438469,23.5011959 34.2833692,25.6376683 31.6111995,25.6376683 L29.8487046,25.6376683 C29.3938672,25.6376683 28.9958844,26.031229 28.9958844,26.4810126 C28.9958844,26.9307963 29.3938672,27.324357 29.8487046,27.324357 L31.6111995,27.324357 C35.193044,27.324357 38.1494872,24.4569862 38.1494872,20.8587169 C38.1494872,18.216238 40.3099648,16.0797656 42.9821346,16.0797656 L48.6107474,16.0797656 L53.1591214,16.0797656 L51.9083186,17.3166707 C51.5671905,17.6540084 51.5671905,18.160015 51.9083186,18.4973528 C52.0788826,18.6660216 52.3063013,18.7222446 52.53372,18.7222446 C52.7611387,18.7222446 52.9885574,18.6660216 53.1591214,18.4973528 L56.4566926,15.2364213 L53.1022668,11.9754898 Z" id="Shape"></path>
                                    <path d="M9.89271351,16.0797656 L12.8491566,16.0797656 C16.4310012,16.0797656 19.3874443,13.2123948 19.3874443,9.6141256 C19.3874443,6.97164663 21.547922,4.83517428 24.2200917,4.83517428 L27.7450816,4.83517428 L26.4942787,6.07207933 C26.1531507,6.40941707 26.1531507,6.91542368 26.4942787,7.25276142 C26.6648427,7.42143029 26.8922614,7.47765325 27.1196801,7.47765325 C27.3470988,7.47765325 27.5745175,7.42143029 27.7450816,7.25276142 L31.0426527,3.99182993 L27.7450816,0.730898438 C27.4039535,0.393560697 26.8922614,0.393560697 26.5511334,0.730898438 C26.2100053,1.06823618 26.2100053,1.57424279 26.5511334,1.91158053 L27.8019362,3.14848558 L24.2769464,3.14848558 C20.6951018,3.14848558 17.7386587,6.01585637 17.7386587,9.6141256 C17.7386587,12.2566046 15.578181,14.3930769 12.9060113,14.3930769 L9.94956819,14.3930769 C9.49473078,14.3930769 9.09674806,14.7866376 9.09674806,15.2364213 C9.09674806,15.6862049 9.43787611,16.0797656 9.89271351,16.0797656 Z" id="Shape"></path>
                                    <path d="M20.9793752,23.2200811 C20.6382472,23.5574189 20.6382472,24.0634255 20.9793752,24.4007632 L22.2301781,25.6376683 L12.8491566,25.6376683 C10.1769869,25.6376683 8.01650922,23.5011959 8.01650922,20.8587169 C8.01650922,17.3166707 5.11692078,14.3930769 1.47822156,14.3930769 L1.30765753,14.3930769 C0.85282013,14.3930769 0.454837403,14.7866376 0.454837403,15.2364213 C0.454837403,15.6862049 0.85282013,16.0797656 1.30765753,16.0797656 L1.47822156,16.0797656 C4.1503913,16.0797656 6.31086896,18.216238 6.31086896,20.8587169 C6.31086896,24.4007632 9.21045741,27.324357 12.8491566,27.324357 L22.2301781,27.324357 L20.9793752,28.561262 C20.6382472,28.8985998 20.6382472,29.4046064 20.9793752,29.7419441 C21.1499392,29.910613 21.3773579,29.9668359 21.6047766,29.9668359 C21.8321953,29.9668359 22.059614,29.910613 22.2301781,29.7419441 L25.5277492,26.4810126 L22.1733234,23.2200811 C21.8321953,22.8827434 21.3205033,22.8827434 20.9793752,23.2200811 Z" id="Shape"></path>
                                </g>
                                <ellipse id="Oval" fill="#F8F2EA" fill-rule="nonzero" cx="237.709841" cy="208.209777" rx="54.6761336" ry="53.2097767"></ellipse>
                                <g id="trusted" transform="translate(214.382022, 181.000000)" fill-rule="nonzero" fill="#77A240">
                                    <path d="M37.7662878,17.2620338 C37.7874014,17.2363871 37.7950488,17.2212622 37.7950488,17.2212622 L36.1945732,16.1987675 C36.3180959,16.0097059 36.8395348,15.3481545 38.3619567,14.7742291 C39.4293561,14.3718566 40.5768042,14.3527038 42.0294848,14.3283724 C42.5591529,14.3194947 43.1593937,14.3094662 43.805519,14.2788054 C44.3308647,14.2532409 44.7776579,14.6547914 44.8029277,15.1744644 C44.8282806,15.6942195 44.4227171,16.1358017 43.8972051,16.1607908 C43.2214875,16.1929312 42.6052869,16.2032885 42.0618201,16.2123306 C40.7462947,16.2342782 39.7958512,16.2502251 39.0407499,16.5348862 C38.0699409,16.900926 37.7692803,17.2584991 37.7662878,17.2620338 Z" id="Shape"></path>
                                    <path d="M15.5077562,15.9422191 C14.3886535,15.9422191 13.3146873,15.412682 12.5092126,14.4491253 C12.2087182,14.0895793 12.2195244,13.5667828 12.5343993,13.2196491 C13.7823447,11.8442668 13.9004644,10.0790064 13.9864149,8.79009915 C14.0472619,7.88087703 14.0951415,7.16285377 14.527388,6.66956728 C15.0597993,6.06218618 15.7873864,5.62323436 16.6300177,5.11506953 C17.1826281,4.78182783 17.8089699,4.40395114 18.5009798,3.91066464 C19.0938225,3.48807076 19.5878303,3.05511959 20.0656289,2.63655354 C20.9649509,1.84849527 21.7415814,1.16787334 22.7490482,0.982510728 C25.2370422,0.525145943 30.3728783,1.42302437 35.2528577,3.16806337 C36.0447,3.34183568 37.3805078,2.71415101 39.0646897,1.92190051 C39.6912808,1.62721094 40.4015781,1.29314723 41.1734705,0.957603911 C41.6546772,0.748320887 42.2171795,0.964755373 42.4290634,1.44110852 C42.6406979,1.91737947 42.4218316,2.47330292 41.9401261,2.68275034 C41.1943347,3.00678556 40.4976698,3.33451982 39.8830486,3.62361974 C37.7428467,4.63024971 36.1963188,5.35772605 34.7376532,4.98330178 C34.7087259,4.97590372 34.6800481,4.96710824 34.6520352,4.95699755 C29.5151185,3.11348209 24.9507621,2.4940175 23.0975885,2.83506827 C22.6097318,2.92483145 22.0447358,3.42000856 21.3292848,4.04687123 C20.8401813,4.47538356 20.2857421,4.96118979 19.6151782,5.43918696 C18.8637344,5.97488902 18.204226,6.37265829 17.6222727,6.72373755 C16.9129728,7.15151007 16.3474781,7.49264305 16.0048396,7.86197086 C15.946237,8.03886681 15.9125716,8.54177079 15.8876344,8.91430443 C15.8017669,10.2003346 15.6775792,12.0594682 14.5284686,13.7475421 C14.836943,13.9518109 15.2352747,14.1028136 15.7065896,14.0458485 C16.7931907,13.9136698 17.9396413,12.7267736 18.9432012,10.6987176 C19.064064,10.2706984 19.5066179,10.0790886 20.039611,9.84818677 C20.3406042,9.71781643 20.7592182,9.54108489 21.2834833,9.32292419 C22.1826391,8.94866433 23.0824598,8.58188474 23.0824598,8.58188474 C23.5688202,8.38386321 24.1259194,8.61295661 24.3263322,9.0938308 C24.526828,9.57486939 24.2950774,10.125532 23.8085508,10.3238823 C22.5413205,10.8405138 21.1420057,11.4224949 20.5824959,11.6706588 C18.9436168,14.9028732 17.1611821,15.7671315 15.9392546,15.9158326 C15.7949507,15.9335058 15.6509794,15.9422191 15.5077562,15.9422191 Z" id="Shape"></path>
                                    <path d="M34.248716,21.3805362 C33.4429919,21.3805362 32.5234707,21.2515633 31.4850817,20.9517773 C28.647633,20.1324006 26.8373516,18.9287355 26.7616254,18.8779354 C26.3264695,18.5855475 26.2132542,17.9995386 26.5089274,17.5692178 C26.8043513,17.1391437 27.3957808,17.0269397 27.8312691,17.3185879 C27.8577026,17.3361788 29.495418,18.4144056 32.0190723,19.1430327 C34.6609295,19.9061842 36.303466,19.2943643 36.7113571,18.4034729 C36.7671335,18.2817336 36.9064498,17.8985139 36.6186734,17.611469 C30.7260735,16.8186431 28.801413,14.6644089 27.2507289,12.9287408 C26.1731883,11.7224453 25.3219121,10.769739 23.2654996,10.3782992 C22.7488819,10.2798227 22.4106491,9.78587863 22.5100658,9.27500118 C22.6096487,8.76412372 23.1091428,8.43071762 23.6257604,8.52796107 C26.3199858,9.04089354 27.5191373,10.3832312 28.6788047,11.6811805 C30.180778,13.3623496 31.7338728,15.1007303 37.1148425,15.7755982 C37.2539926,15.7930248 37.3875734,15.840619 37.5058593,15.9150106 C38.6198914,16.6150319 39.0070845,17.9577806 38.4474085,19.1805163 C37.9245565,20.322202 36.5550833,21.3805362 34.248716,21.3805362 Z" id="Shape"></path>
                                    <path d="M31.8775116,25.2163505 C31.4059474,25.2163505 30.8946497,25.1549465 30.3443667,25.0173425 C27.1246293,24.2120221 24.619096,22.4182381 24.5139438,22.3422846 C24.0891785,22.0352649 23.996578,21.4457214 24.3071304,21.0256758 C24.6175998,20.6058767 25.2129362,20.5143051 25.6377014,20.820585 L25.6377014,20.820585 C25.6606437,20.8370251 27.9618574,22.4778336 30.8116085,23.190596 C32.3886431,23.5848306 33.375495,23.0795428 33.7731617,22.4749566 C34.0576963,22.0424164 34.0562832,21.5684471 33.7695874,21.2071749 C33.4447375,20.7978154 33.5169726,20.2055592 33.9308486,19.8843188 C34.345057,19.5632428 34.9438846,19.6345108 35.2685682,20.0437882 C36.0579168,21.0385813 36.0979827,22.3960439 35.3705618,23.5021367 C34.7770541,24.404865 33.5919507,25.2163505 31.8775116,25.2163505 Z" id="Shape"></path>
                                    <path d="M28.4662558,28.0934577 C28.1685045,28.0934577 27.8664307,28.0636189 27.5643569,28.0026259 C25.6106029,27.6081447 23.2477941,26.3094556 23.1482112,26.2542989 C22.6889493,26.0002987 22.5248619,25.4262089 22.7816329,24.9722143 C23.0384871,24.5181376 23.6185286,24.3558734 24.0778736,24.609627 L24.0778736,24.609627 C24.0997353,24.6216283 26.2844086,25.8211833 27.9454819,26.1564801 C28.7562765,26.3202239 29.5541038,26.0940897 30.0785351,25.5518116 C30.4062112,25.2128158 30.5688023,24.800497 30.4927436,24.5010398 C30.3644827,23.9964096 30.674204,23.4845458 31.1846704,23.3577923 C31.6940562,23.2309566 32.2125857,23.5372364 32.3407635,24.042031 C32.5797459,24.9824072 32.2489111,26.0336722 31.4557388,26.8539531 C30.6790252,27.6572185 29.6041446,28.0934577 28.4662558,28.0934577 Z" id="Shape"></path>
                                    <path d="M24.1502749,29.6599568 C22.6714101,29.6599568 20.960961,29.1398728 19.4932348,28.1800973 C19.0544216,27.8931346 18.9338913,27.3086053 19.2241614,26.8745033 C19.5145147,26.4405657 20.1053623,26.3213747 20.544425,26.6084196 C22.117719,27.6371616 24.1949126,28.0632079 25.2738663,27.578388 C25.6605606,27.4046157 25.8583965,27.1395184 25.9153367,26.7188974 C25.9852442,26.2030879 26.4654534,25.8402539 26.986061,25.9102067 C27.5074999,25.9793375 27.8736625,26.453389 27.8038381,26.9690341 C27.6604486,28.0277794 27.0419206,28.8533211 26.0624667,29.2937526 C25.5128487,29.5407657 24.8579122,29.6599568 24.1502749,29.6599568 Z" id="Shape"></path>
                                    <path d="M5.6728192,18.301133 C5.42037064,18.301133 5.1683377,18.2025744 4.98089236,18.0069367 C3.81050194,16.7848586 2.59281378,15.9771544 0.637480408,15.1262948 C0.155858099,14.9166007 -0.0627588614,14.3606773 0.149291278,13.8844063 C0.361341418,13.4080532 0.923594316,13.1918653 1.4051335,13.4016415 C3.58473629,14.3502378 5.02145703,15.3091913 6.36441354,16.7112068 C6.72608745,17.0890013 6.70987821,17.6853674 6.32775571,18.0431872 C6.14363535,18.2155621 5.9079779,18.301133 5.6728192,18.301133 Z" id="Shape"></path>
                                    <path d="M11.9038182,5.04043128 C10.1511419,5.04051348 8.17527684,3.98357667 5.85669019,2.6321147 C5.40341328,2.3679216 5.25245951,1.79046157 5.5197042,1.34213886 C5.78686577,0.893898356 6.37106348,0.744704056 6.82417415,1.00889716 C9.05315278,2.30791508 11.1596893,3.44532638 12.4368945,3.08726007 C14.9009487,2.39850026 19.3352986,1.37255313 21.3490684,2.2421545 C21.8312726,2.45036892 22.051552,3.00579916 21.8409981,3.48256331 C21.6303611,3.95932746 21.0685238,4.17732376 20.5866521,3.96902715 C19.8071123,3.63241521 17.34098,3.67441978 12.9552577,4.90060786 C12.6135336,4.99596069 12.2632478,5.04043128 11.9038182,5.04043128 Z" id="Shape"></path>
                                    <path d="M18.371389,29.0502741 C18.2598362,29.0502741 18.1464546,29.0452598 18.0316599,29.0350669 C16.5414903,28.9028882 15.3981152,27.9553605 15.2511514,26.7310631 C15.1892238,26.2144316 15.562452,25.7458875 16.0850546,25.6844835 C16.6076572,25.6248058 17.0814658,25.9923252 17.1433934,26.5091211 C17.179885,26.8132638 17.6645829,27.1107482 18.2019817,27.1583424 C18.5102898,27.1853864 19.2520081,27.1675489 19.4862524,26.4113023 C19.6901564,25.7527923 19.606367,25.1551109 19.2727891,24.8886984 C18.9859271,24.6595228 18.5148616,24.6980749 17.9798735,24.9935043 C17.520861,25.2470113 16.9401545,25.0846649 16.6834666,24.6304238 C16.4268618,24.1762648 16.5911986,23.6022572 17.0506267,23.3484214 C18.2814485,22.6686215 19.5597343,22.6961587 20.4697794,23.4225664 C21.4267065,24.1865399 21.7478989,25.5431805 21.3082544,26.9628691 C20.9074289,28.256955 19.7742782,29.0502741 18.371389,29.0502741 Z" id="Shape"></path>
                                    <path d="M6.81910357,22.0655148 C5.81737239,22.0655148 4.81913244,21.4568185 4.26976381,20.508551 C3.7358563,19.587081 3.73610567,18.5118957 4.27051193,17.6324302 C4.98712669,16.4531787 6.00631397,15.7328538 7.29989463,15.4915947 C8.58325101,15.2522263 9.84524443,15.6949593 10.5948595,16.6465148 C11.2408186,17.4666313 11.3646739,18.5150193 10.9264425,19.4512032 L10.0618664,19.0552424 L10.9264425,19.4512032 C10.1461545,21.1169185 8.69696507,22.0453756 6.84562023,22.0654326 C6.83672592,22.0655148 6.82791475,22.0655148 6.81910357,22.0655148 Z M7.98118156,17.3120118 C7.87702678,17.3120118 7.76746893,17.3217115 7.65308987,17.3430837 C6.89599356,17.4843867 6.34022436,17.884622 5.90373856,18.6028918 C5.67431544,18.9803575 5.78769701,19.3381772 5.92294028,19.5717917 C6.12825735,19.9260768 6.50389615,20.1812278 6.8185217,20.1812278 C6.82059981,20.1812278 6.82259479,20.1812278 6.82475602,20.1812278 C7.94726684,20.1692265 8.72331548,19.6713368 9.19720723,18.6592815 C9.37226705,18.2857615 9.23627566,17.9883593 9.09155622,17.8044763 C8.89879092,17.5595182 8.50760787,17.3120118 7.98118156,17.3120118 Z" id="Shape"></path>
                                    <path d="M14.2335435,28.1634927 C13.5604859,28.1634927 12.8666472,27.9856104 12.278127,27.6245026 C11.0793081,26.888724 10.6053332,25.60442 11.010398,24.1890059 C11.1536212,23.6884035 11.6802969,23.3971664 12.186524,23.5390448 C12.6928342,23.6806767 12.9870112,24.2014182 12.843788,24.7021028 C12.6714713,25.304223 12.8151101,25.7363522 13.2828507,26.0234793 C13.8743633,26.3865599 14.7017828,26.3378148 15.018819,26.054058 C15.8275355,25.3301163 16.3285257,24.3419814 16.5080743,23.1167798 C16.5813068,22.6171638 16.3396644,22.0601718 15.9333527,21.792444 C15.6363495,21.5963953 15.321059,21.6021494 14.9695262,21.8101172 C14.5178287,22.0769407 13.9327997,21.9315276 13.6629782,21.484849 C13.3929904,21.0382525 13.5403698,20.459806 13.9919011,20.1928181 C14.9804987,19.608371 16.0731678,19.6202079 16.9903616,20.2246298 C18.0087176,20.895963 18.5727161,22.1668683 18.3939157,23.3871379 C18.1490315,25.0577853 17.4437216,26.4250298 16.2976035,27.4509769 C15.7700966,27.92322 15.0158265,28.1634927 14.2335435,28.1634927 Z" id="Shape"></path>
                                    <path d="M10.6585328,25.7532033 C9.9435805,25.7532033 9.18997541,25.4991209 8.51400845,24.8951923 C7.92873011,24.3721491 7.55633316,23.6764022 7.46539515,22.9361026 C7.36265349,22.1004501 7.6159333,21.2636468 8.19772041,20.5163601 C9.04492348,19.428187 9.80393164,18.6131669 10.968919,17.9123236 L10.968919,17.9123236 C12.1508637,17.2013696 13.5917406,17.3642093 14.5551515,18.3167512 C15.5730088,19.3232989 15.7074208,20.824284 14.8977068,22.1407285 L14.8144994,22.2763596 C14.3751042,22.9942185 13.7732842,23.9774213 12.7584193,24.9261819 C12.2173631,25.4321273 11.4624281,25.7532033 10.6585328,25.7532033 Z M11.959179,19.5221425 C11.0426503,20.0735449 10.4395833,20.7257253 9.70759055,21.6658549 C8.95930543,22.6269457 9.58257158,23.3106091 9.79137987,23.4971225 C10.1184741,23.7894282 10.8356707,24.1306434 11.4493775,23.557129 C12.276797,22.7835381 12.7800317,21.9613665 13.1844315,21.3007193 L13.2695508,21.1618001 C13.7845891,20.3244214 13.3525088,19.7924184 13.2077063,19.649307 C12.9407941,19.3852783 12.4726379,19.2133144 11.959179,19.5221425 L11.959179,19.5221425 Z" id="Shape"></path>
                                </g>
                                <path d="M91.9063362,299.288084 C41.1447743,299.284079 -0.00269880905,258.563324 0,208.334859 C0.00269880905,158.106394 41.1545476,117.389969 91.9161097,117.391304 C142.677672,117.39264 183.827333,158.111229 183.827333,208.339694 C183.770769,258.548733 142.64827,299.236119 91.9063362,299.288084 L91.9063362,299.288084 Z M91.9063362,155.673911 C62.5070704,155.673911 38.6742566,179.256432 38.6742566,208.346947 C38.6742566,237.437462 62.5070704,261.019984 91.9063362,261.019984 C121.305602,261.019984 145.138416,237.437462 145.138416,208.346947 C145.110136,179.266857 121.295063,155.698644 91.9063362,155.666657 L91.9063362,155.673911 Z" id="Shape" fill="#65C9D5" fill-rule="nonzero"></path>
                                <path d="M237.004043,299.288085 C186.241526,299.288085 145.090376,258.569103 145.090376,208.339694 C145.090376,158.110286 186.241526,117.391304 237.004043,117.391304 C287.766559,117.391304 328.917709,158.110286 328.917709,208.339694 C328.861153,258.545905 287.743114,299.232122 237.004043,299.288085 L237.004043,299.288085 Z M237.004043,155.673911 C207.604777,155.673911 183.771963,179.256433 183.771963,208.346948 C183.771963,237.437463 207.604777,261.019985 237.004043,261.019985 C266.403309,261.019985 290.236122,237.437463 290.236122,208.346948 C290.207843,179.266857 266.39277,155.698644 237.004043,155.666658 L237.004043,155.673911 Z" id="Shape" fill="#6E7F89" fill-rule="nonzero"></path>
                                <ellipse id="Oval" fill="#F8F2EA" fill-rule="nonzero" cx="162.254977" cy="87.4844526" rx="53.0414939" ry="52.4844526"></ellipse>
                                <g id="simple" transform="translate(147.640449, 58.000000)" fill-rule="nonzero" fill="#77A240">
                                    <path d="M4.20362047,0.326381238 C3.9245459,0.329223807 3.65821312,0.442325381 3.46395815,0.640488168 C3.26970319,0.838650956 3.16366384,1.1054125 3.16946452,1.38134127 L3.16946452,16.3445498 C1.56860189,16.7991162 0.382686361,18.2611003 0.382686361,19.9830855 C0.382686361,21.704834 1.56893631,23.1668391 3.16946452,23.6216211 L3.16946452,28.2505273 C3.1641345,28.6232194 3.36214441,28.9698788 3.68767238,29.157763 C4.01320034,29.3456472 4.41581231,29.3456472 4.74134027,29.157763 C5.06686824,28.9698788 5.26487815,28.6232194 5.25954813,28.2505273 L5.25954813,23.6216211 C6.86007634,23.1668391 8.04632629,21.704834 8.04632629,19.9830855 C8.04632629,18.2611003 6.8604111,16.7991162 5.25954813,16.3445498 L5.25954813,1.38134127 C5.26542799,1.10167863 5.15642596,0.831602039 4.95743782,0.632796242 C4.75844967,0.433990445 4.48647081,0.323435278 4.20362047,0.326381238 Z M15.3507331,0.326381238 C15.0716585,0.329223807 14.8053257,0.442325381 14.6110708,0.640488168 C14.4168158,0.838650956 14.3107765,1.1054125 14.3165771,1.38134127 L14.3165771,6.01024752 C12.7157145,6.46481386 11.529799,7.92679797 11.529799,9.64878313 C11.529799,11.3705316 12.7160489,12.8325368 14.3165771,13.2873187 L14.3165771,28.2505273 C14.3112471,28.6232194 14.509257,28.9698788 14.834785,29.157763 C15.160313,29.3456472 15.5629249,29.3456472 15.8884529,29.157763 C16.2139809,28.9698788 16.4119908,28.6232194 16.4066608,28.2505273 L16.4066608,13.2873187 C18.007189,12.8325368 19.1934389,11.3705316 19.1934389,9.64878313 C19.1934389,7.92679797 18.0075237,6.46481386 16.4066608,6.01024752 L16.4066608,1.38134127 C16.4125406,1.10167863 16.3035386,0.831602039 16.1045504,0.632796242 C15.9055623,0.433990445 15.6335834,0.323435278 15.3507331,0.326381238 Z M26.4978457,0.326381238 C26.2187711,0.329223807 25.9524384,0.442325381 25.7581834,0.640488168 C25.5639284,0.838650956 25.4578891,1.1054125 25.4636898,1.38134127 L25.4636898,16.3445498 C23.8628324,16.799109 22.6769116,18.2610717 22.6769116,19.9830855 C22.6769116,21.704834 23.8631616,23.1668391 25.4636898,23.6216211 L25.4636898,28.2505273 C25.4583597,28.6232194 25.6563697,28.9698788 25.9818976,29.157763 C26.3074256,29.3456472 26.7100375,29.3456472 27.0355655,29.157763 C27.3610935,28.9698788 27.5591034,28.6232194 27.5537734,28.2505273 L27.5537734,23.6216211 C29.1543016,23.1668391 30.3405515,21.704834 30.3405515,19.9830855 C30.3405515,18.2610717 29.1546311,16.799109 27.5537734,16.3445498 L27.5537734,1.38134127 C27.5596532,1.10167863 27.4506512,0.831602039 27.2516631,0.632796242 C27.0526749,0.433990445 26.7806961,0.323435278 26.4978457,0.326381238 Z M15.3616189,7.92639941 C16.3359212,7.92639941 17.1033553,8.68528167 17.1033553,9.64878313 C17.1033553,10.6122846 16.3359212,11.3711668 15.3616189,11.3711668 C14.3873171,11.3711668 13.6198826,10.6122846 13.6198826,9.64878313 C13.6198826,8.68528167 14.3873171,7.92639941 15.3616189,7.92639941 Z M4.21450632,18.2607017 C5.18880856,18.2607017 5.95624267,19.019584 5.95624267,19.9830855 C5.95624267,20.9465869 5.18880856,21.7054692 4.21450632,21.7054692 C3.24020444,21.7054692 2.47276998,20.9465869 2.47276998,19.9830855 C2.47276998,19.019584 3.24020444,18.2607017 4.21450632,18.2607017 Z M26.5087316,18.2607017 C27.4830495,18.2607017 28.2504679,19.0195496 28.2504679,19.9830855 C28.2504679,20.9465869 27.4830338,21.7054692 26.5087316,21.7054692 C25.5344297,21.7054692 24.7669952,20.9465869 24.7669952,19.9830855 C24.7669952,19.0195496 25.534414,18.2607017 26.5087316,18.2607017 Z" id="Shape" transform="translate(15.361619, 14.812500) rotate(-270.000000) translate(-15.361619, -14.812500) "></path>
                                </g>
                                <path d="M162.517799,176.036161 C113.392734,176.02815 73.5748062,136.617566 73.5802036,88.0084114 C73.585601,39.3992565 113.412279,-0.00266869756 162.537346,1.32820617e-06 C211.662412,0.00267135397 251.484715,39.4089256 251.484716,88.0180807 C251.428148,136.611583 211.627055,175.988196 162.517799,176.036161 Z M162.517799,38.2753533 C134.754075,38.2753533 112.24713,60.545931 112.24713,88.0180807 C112.24713,115.490231 134.754075,137.760808 162.517799,137.760808 C190.281523,137.760808 212.788469,115.490231 212.788469,88.0180807 C212.756154,60.5591865 190.268127,38.3073287 162.517799,38.2753533 L162.517799,38.2753533 Z" id="Shape" fill="#F98D1B" fill-rule="nonzero"></path>
                                <path d="M134.428384,129.209237 L115.978213,163.045607" id="Shape" stroke="#65C9D5"></path>
                                <path d="M183.819427,205.302989 L144.434139,205.448054" id="Shape" stroke="#65C9D5"></path>
                                <path d="M192.256514,128.193783 L211.769568,161.319335" id="Shape"></path>
                                <path d="M193.792041,126.421405 C196.328586,130.936455 209.032119,152.920142 214.59171,160.535117 C213.007715,161.406722 185.026299,176.435083 184.15317,206.688963 C184.112336,206.764205 144.075758,206.688963 144.075758,206.688963 C143.913495,204.922816 142.526148,178.046529 114.493289,163.015159 C114.467382,162.984084 133.408515,127.73808 133.408515,127.73808 C135.239768,128.288568 168.788091,144.159338 193.792041,126.421405 Z" id="Shape" fill="#FFFFFF" fill-rule="nonzero"></path>
                                <path d="M137.007125,153.778626 L140.18719,164.608016 L143.389649,164.608016 L144.486996,160.798905 C144.778128,159.78019 145.002077,158.78362 145.20363,157.432715 L145.24842,157.432715 C145.472368,158.761474 145.673921,159.735898 145.942659,160.798905 L146.972821,164.608016 L150.17528,164.608016 L153.534504,153.778626 L150.197675,153.778626 L149.257093,158.074948 C149.01075,159.315124 148.786802,160.533153 148.630038,161.773329 L148.585248,161.773329 C148.3613,160.533153 148.070167,159.315124 147.779035,158.097094 L146.681688,153.778626 L143.99431,153.778626 L142.829779,158.22997 C142.561041,159.292978 142.247514,160.533153 142.023565,161.773329 L141.978776,161.773329 C141.799617,160.533153 141.575669,159.33727 141.351721,158.207824 L140.478323,153.778626 L137.007125,153.778626 Z" id="w" fill="#77A240"></path>
                                <path d="M154.736359,153.778626 L157.916424,164.608016 L161.118883,164.608016 L162.21623,160.798905 C162.507362,159.78019 162.731311,158.78362 162.932864,157.432715 L162.977654,157.432715 C163.201602,158.761474 163.403155,159.735898 163.671893,160.798905 L164.702055,164.608016 L167.904515,164.608016 L171.263738,153.778626 L167.926909,153.778626 L166.986327,158.074948 C166.739984,159.315124 166.516036,160.533153 166.359272,161.773329 L166.314482,161.773329 C166.090534,160.533153 165.799401,159.315124 165.508269,158.097094 L164.410922,153.778626 L161.723544,153.778626 L160.559013,158.22997 C160.290275,159.292978 159.976748,160.533153 159.752799,161.773329 L159.70801,161.773329 C159.528851,160.533153 159.304903,159.33727 159.080955,158.207824 L158.207557,153.778626 L154.736359,153.778626 Z" id="w" fill="#77A240"></path>
                                <path d="M172.465593,153.778626 L175.645658,164.608016 L178.848118,164.608016 L179.945464,160.798905 C180.236596,159.78019 180.460545,158.78362 180.662098,157.432715 L180.706888,157.432715 C180.930836,158.761474 181.132389,159.735898 181.401127,160.798905 L182.431289,164.608016 L185.633749,164.608016 L188.992972,153.778626 L185.656143,153.778626 L184.715561,158.074948 C184.469218,159.315124 184.24527,160.533153 184.088506,161.773329 L184.043716,161.773329 C183.819768,160.533153 183.528635,159.315124 183.237503,158.097094 L182.140156,153.778626 L179.452778,153.778626 L178.288247,158.22997 C178.019509,159.292978 177.705982,160.533153 177.482033,161.773329 L177.437244,161.773329 C177.258085,160.533153 177.034137,159.33727 176.810189,158.207824 L175.936791,153.778626 L172.465593,153.778626 Z" id="w" fill="#77A240"></path>
                            </g>
                        </g>
                    </g>
                </g>
                <path d="M272.097656,107 L270.287109,107 L270.287109,103.302734 L266.894531,103.302734 L266.894531,107 L265.078125,107 L265.078125,98.4335938 L266.894531,98.4335938 L266.894531,101.791016 L270.287109,101.791016 L270.287109,98.4335938 L272.097656,98.4335938 L272.097656,107 Z M276.370493,101.597656 C275.991585,101.597656 275.694713,101.717772 275.479868,101.958008 C275.265023,102.198243 275.141977,102.53906 275.110727,102.980469 L277.61854,102.980469 C277.610727,102.53906 277.495494,102.198243 277.272836,101.958008 C277.050179,101.717772 276.749401,101.597656 276.370493,101.597656 Z M276.622446,107.117188 C275.567753,107.117188 274.743543,106.826175 274.14979,106.244141 C273.556037,105.662106 273.259165,104.837896 273.259165,103.771484 C273.259165,102.673823 273.533576,101.825198 274.082407,101.225586 C274.631238,100.625974 275.390019,100.326172 276.358774,100.326172 C277.28456,100.326172 278.005256,100.589841 278.520883,101.117188 C279.036511,101.644534 279.294321,102.373042 279.294321,103.302734 L279.294321,104.169922 L275.069711,104.169922 C275.089243,104.677737 275.239632,105.074217 275.520883,105.359375 C275.802135,105.644533 276.196662,105.787109 276.704477,105.787109 C277.09901,105.787109 277.472053,105.746094 277.823618,105.664062 C278.175182,105.582031 278.542366,105.451173 278.92518,105.271484 L278.92518,106.654297 C278.612679,106.810548 278.278698,106.926757 277.923227,107.00293 C277.567757,107.079102 277.134167,107.117188 276.622446,107.117188 Z M282.073017,107 L280.285907,107 L280.285907,97.8828125 L282.073017,97.8828125 L282.073017,107 Z M287.084135,107.117188 C286.314599,107.117188 285.71109,106.837893 285.273588,106.279297 L285.179838,106.279297 C285.242338,106.826175 285.273588,107.142578 285.273588,107.228516 L285.273588,109.882812 L283.486478,109.882812 L283.486478,100.449219 L284.939603,100.449219 L285.191556,101.298828 L285.273588,101.298828 C285.691558,100.650387 286.310693,100.326172 287.13101,100.326172 C287.904451,100.326172 288.509914,100.624997 288.947416,101.222656 C289.384918,101.820315 289.603666,102.650385 289.603666,103.712891 C289.603666,104.412113 289.501128,105.019529 289.296049,105.535156 C289.090969,106.050784 288.79898,106.443358 288.420072,106.712891 C288.041164,106.982423 287.595856,107.117188 287.084135,107.117188 Z M286.556791,101.755859 C286.115382,101.755859 285.79312,101.8916 285.589994,102.163086 C285.386868,102.434572 285.2814,102.882809 285.273588,103.507812 L285.273588,103.701172 C285.273588,104.4043 285.378079,104.908202 285.587064,105.212891 C285.79605,105.51758 286.127101,105.669922 286.580228,105.669922 C287.381014,105.669922 287.7814,105.009772 287.7814,103.689453 C287.7814,103.044919 287.682768,102.561525 287.485502,102.239258 C287.288235,101.916991 286.978668,101.755859 286.556791,101.755859 Z M294.216346,107.117188 C293.446811,107.117188 292.843301,106.837893 292.405799,106.279297 L292.312049,106.279297 C292.374549,106.826175 292.405799,107.142578 292.405799,107.228516 L292.405799,109.882812 L290.61869,109.882812 L290.61869,100.449219 L292.071815,100.449219 L292.323768,101.298828 L292.405799,101.298828 C292.82377,100.650387 293.442904,100.326172 294.263221,100.326172 C295.036662,100.326172 295.642125,100.624997 296.079627,101.222656 C296.517129,101.820315 296.735877,102.650385 296.735877,103.712891 C296.735877,104.412113 296.633339,105.019529 296.42826,105.535156 C296.223181,106.050784 295.931192,106.443358 295.552283,106.712891 C295.173375,106.982423 294.728067,107.117188 294.216346,107.117188 Z M293.689002,101.755859 C293.247594,101.755859 292.925331,101.8916 292.722205,102.163086 C292.519079,102.434572 292.413612,102.882809 292.405799,103.507812 L292.405799,103.701172 C292.405799,104.4043 292.51029,104.908202 292.719276,105.212891 C292.928261,105.51758 293.259312,105.669922 293.71244,105.669922 C294.513225,105.669922 294.913612,105.009772 294.913612,103.689453 C294.913612,103.044919 294.81498,102.561525 294.617713,102.239258 C294.420447,101.916991 294.110879,101.755859 293.689002,101.755859 Z M299.174729,103.712891 C299.174729,104.361331 299.281174,104.851561 299.494065,105.183594 C299.706957,105.515627 300.053633,105.681641 300.534104,105.681641 C301.010669,105.681641 301.353439,105.516603 301.562425,105.186523 C301.77141,104.856444 301.875901,104.365238 301.875901,103.712891 C301.875901,103.06445 301.770434,102.578127 301.559495,102.253906 C301.348556,101.929686 301.002857,101.767578 300.522386,101.767578 C300.045821,101.767578 299.702074,101.928709 299.491136,102.250977 C299.280197,102.573244 299.174729,103.060544 299.174729,103.712891 Z M303.704026,103.712891 C303.704026,104.779302 303.422779,105.613278 302.860276,106.214844 C302.297773,106.816409 301.514578,107.117188 300.510667,107.117188 C299.881757,107.117188 299.327076,106.979494 298.846604,106.704102 C298.366133,106.42871 297.996996,106.033206 297.739182,105.517578 C297.481369,105.001951 297.352464,104.400394 297.352464,103.712891 C297.352464,102.642573 297.631758,101.81055 298.190354,101.216797 C298.748951,100.623044 299.534099,100.326172 300.545823,100.326172 C301.174733,100.326172 301.729414,100.462889 302.209886,100.736328 C302.690357,101.009767 303.059494,101.402341 303.317307,101.914062 C303.575121,102.425784 303.704026,103.025387 303.704026,103.712891 Z" id="Helppo" fill="#4E4E4E"></path>
                <path d="M189.181641,232.519531 C188.771482,232.519531 188.414064,232.476563 188.109375,232.390625 L188.109375,230.878906 C188.421877,230.957032 188.70703,230.996094 188.964844,230.996094 C189.363283,230.996094 189.648437,230.872072 189.820312,230.624023 C189.992188,230.375975 190.078125,229.988284 190.078125,229.460938 L190.078125,221.433594 L191.894531,221.433594 L191.894531,229.449219 C191.894531,230.449224 191.666018,231.210935 191.208984,231.734375 C190.751951,232.257815 190.076176,232.519531 189.181641,232.519531 Z M194.872446,226.712891 C194.872446,227.361331 194.97889,227.851561 195.191782,228.183594 C195.404674,228.515627 195.75135,228.681641 196.231821,228.681641 C196.708386,228.681641 197.051156,228.516603 197.260141,228.186523 C197.469127,227.856444 197.573618,227.365238 197.573618,226.712891 C197.573618,226.06445 197.46815,225.578127 197.257211,225.253906 C197.046273,224.929686 196.700573,224.767578 196.220102,224.767578 C195.743537,224.767578 195.399791,224.928709 195.188852,225.250977 C194.977914,225.573244 194.872446,226.060544 194.872446,226.712891 Z M199.401743,226.712891 C199.401743,227.779302 199.120496,228.613278 198.557993,229.214844 C197.99549,229.816409 197.212295,230.117188 196.208383,230.117188 C195.579474,230.117188 195.024792,229.979494 194.544321,229.704102 C194.06385,229.42871 193.694713,229.033206 193.436899,228.517578 C193.179085,228.001951 193.05018,227.400394 193.05018,226.712891 C193.05018,225.642573 193.329474,224.81055 193.888071,224.216797 C194.446667,223.623044 195.231816,223.326172 196.24354,223.326172 C196.872449,223.326172 197.427131,223.462889 197.907602,223.736328 C198.388073,224.009767 198.75721,224.402341 199.015024,224.914062 C199.272838,225.425784 199.401743,226.025387 199.401743,226.712891 Z M205.057392,230 L204.817157,229.162109 L204.723407,229.162109 C204.532,229.466798 204.260519,229.702148 203.908954,229.868164 C203.55739,230.034181 203.157003,230.117188 202.707782,230.117188 C201.938247,230.117188 201.358175,229.911135 200.967548,229.499023 C200.576921,229.086912 200.381611,228.494144 200.381611,227.720703 L200.381611,223.449219 L202.16872,223.449219 L202.16872,227.275391 C202.16872,227.748049 202.252703,228.102538 202.420673,228.338867 C202.588643,228.575196 202.856218,228.693359 203.223407,228.693359 C203.72341,228.693359 204.084734,228.526369 204.307392,228.192383 C204.530049,227.858397 204.641376,227.304691 204.641376,226.53125 L204.641376,223.449219 L206.428486,223.449219 L206.428486,230 L205.057392,230 Z M212.41226,228.054688 C212.41226,228.726566 212.178863,229.238279 211.712064,229.589844 C211.245265,229.941408 210.54703,230.117188 209.617338,230.117188 C209.140773,230.117188 208.734527,230.084961 208.398588,230.020508 C208.062648,229.956054 207.748198,229.861329 207.455228,229.736328 L207.455228,228.259766 C207.787261,228.416016 208.161281,228.546874 208.577299,228.652344 C208.993316,228.757813 209.359524,228.810547 209.675931,228.810547 C210.324372,228.810547 210.648588,228.623049 210.648588,228.248047 C210.648588,228.107421 210.605619,227.993165 210.519681,227.905273 C210.433743,227.817382 210.285307,227.717774 210.074369,227.606445 C209.86343,227.495117 209.582183,227.365235 209.230619,227.216797 C208.72671,227.005858 208.356597,226.810548 208.120267,226.630859 C207.883938,226.451171 207.712065,226.245118 207.604642,226.012695 C207.49722,225.780272 207.44351,225.494142 207.44351,225.154297 C207.44351,224.572263 207.669093,224.122072 208.120267,223.803711 C208.571441,223.48535 209.211083,223.326172 210.039213,223.326172 C210.828279,223.326172 211.59585,223.498045 212.341947,223.841797 L211.802885,225.130859 C211.474758,224.990234 211.16812,224.875 210.882963,224.785156 C210.597805,224.695312 210.306792,224.650391 210.009916,224.650391 C209.482569,224.650391 209.2189,224.792967 209.2189,225.078125 C209.2189,225.238282 209.30386,225.376953 209.473783,225.494141 C209.643706,225.611329 210.015772,225.785155 210.589994,226.015625 C211.101715,226.222657 211.476711,226.416015 211.714994,226.595703 C211.953276,226.775392 212.129056,226.982421 212.242338,227.216797 C212.355619,227.451173 212.41226,227.730467 212.41226,228.054688 Z M216.105018,228.693359 C216.417519,228.693359 216.792516,228.625001 217.230018,228.488281 L217.230018,229.818359 C216.784703,230.017579 216.237834,230.117188 215.589393,230.117188 C214.874546,230.117188 214.354043,229.936525 214.027869,229.575195 C213.701696,229.213865 213.538612,228.671879 213.538612,227.949219 L213.538612,224.791016 L212.683143,224.791016 L212.683143,224.035156 L213.667518,223.4375 L214.183143,222.054688 L215.325721,222.054688 L215.325721,223.449219 L217.159705,223.449219 L217.159705,224.791016 L215.325721,224.791016 L215.325721,227.949219 C215.325721,228.203126 215.397009,228.390624 215.539588,228.511719 C215.682167,228.632813 215.870642,228.693359 216.105018,228.693359 Z M222.252854,230 L221.907151,229.109375 L221.860276,229.109375 C221.559493,229.488283 221.249926,229.750976 220.931565,229.897461 C220.613204,230.043946 220.198169,230.117188 219.686448,230.117188 C219.057539,230.117188 218.562426,229.937502 218.201097,229.578125 C217.839767,229.218748 217.659104,228.707035 217.659104,228.042969 C217.659104,227.347653 217.902266,226.834963 218.388597,226.504883 C218.874927,226.174803 219.608318,225.992188 220.588792,225.957031 L221.725511,225.921875 L221.725511,225.634766 C221.725511,224.9707 221.38567,224.638672 220.705979,224.638672 C220.182539,224.638672 219.567311,224.796873 218.860276,225.113281 L218.268479,223.90625 C219.022389,223.511717 219.858319,223.314453 220.776292,223.314453 C221.655203,223.314453 222.329024,223.505857 222.797776,223.888672 C223.266529,224.271486 223.500901,224.853512 223.500901,225.634766 L223.500901,230 L222.252854,230 Z M221.725511,226.964844 L221.034104,226.988281 C220.514571,227.003906 220.127856,227.097655 219.873948,227.269531 C219.620041,227.441407 219.493089,227.703123 219.493089,228.054688 C219.493089,228.558596 219.782148,228.810547 220.360276,228.810547 C220.774341,228.810547 221.105392,228.691407 221.35344,228.453125 C221.601488,228.214843 221.725511,227.898439 221.725511,227.503906 L221.725511,226.964844 Z M226.4378,230 L223.941707,223.449219 L225.810847,223.449219 L227.076472,227.181641 C227.217098,227.654299 227.304988,228.10156 227.340144,228.523438 L227.3753,228.523438 C227.394832,228.148436 227.482721,227.701174 227.638972,227.181641 L228.898738,223.449219 L230.767878,223.449219 L228.271785,230 L226.4378,230 Z M235.403996,230 L235.058293,229.109375 L235.011418,229.109375 C234.710635,229.488283 234.401068,229.750976 234.082707,229.897461 C233.764346,230.043946 233.349311,230.117188 232.83759,230.117188 C232.20868,230.117188 231.713568,229.937502 231.352238,229.578125 C230.990908,229.218748 230.810246,228.707035 230.810246,228.042969 C230.810246,227.347653 231.053408,226.834963 231.539738,226.504883 C232.026069,226.174803 232.75946,225.992188 233.739934,225.957031 L234.876652,225.921875 L234.876652,225.634766 C234.876652,224.9707 234.536812,224.638672 233.857121,224.638672 C233.333681,224.638672 232.718453,224.796873 232.011418,225.113281 L231.419621,223.90625 C232.173531,223.511717 233.00946,223.314453 233.927434,223.314453 C234.806344,223.314453 235.480166,223.505857 235.948918,223.888672 C236.41767,224.271486 236.652043,224.853512 236.652043,225.634766 L236.652043,230 L235.403996,230 Z M234.876652,226.964844 L234.185246,226.988281 C233.665712,227.003906 233.278997,227.097655 233.02509,227.269531 C232.771182,227.441407 232.64423,227.703123 232.64423,228.054688 C232.64423,228.558596 232.93329,228.810547 233.511418,228.810547 C233.925483,228.810547 234.256534,228.691407 234.504582,228.453125 C234.75263,228.214843 234.876652,227.898439 234.876652,227.503906 L234.876652,226.964844 Z" id="Joustava" fill="#4E4E4E"></path>
                <path d="M336.078125,230 L336.078125,221.433594 L337.894531,221.433594 L337.894531,228.5 L341.369141,228.5 L341.369141,230 L336.078125,230 Z M346.895883,230 L346.655649,229.162109 L346.561899,229.162109 C346.370492,229.466798 346.09901,229.702148 345.747446,229.868164 C345.395882,230.034181 344.995495,230.117188 344.546274,230.117188 C343.776739,230.117188 343.196667,229.911135 342.80604,229.499023 C342.415413,229.086912 342.220102,228.494144 342.220102,227.720703 L342.220102,223.449219 L344.007211,223.449219 L344.007211,227.275391 C344.007211,227.748049 344.091195,228.102538 344.259165,228.338867 C344.427134,228.575196 344.69471,228.693359 345.061899,228.693359 C345.561901,228.693359 345.923226,228.526369 346.145883,228.192383 C346.368541,227.858397 346.479868,227.304691 346.479868,226.53125 L346.479868,223.449219 L348.266977,223.449219 L348.266977,230 L346.895883,230 Z M351.104267,226.712891 C351.104267,227.361331 351.210711,227.851561 351.423603,228.183594 C351.636494,228.515627 351.983171,228.681641 352.463642,228.681641 C352.940207,228.681641 353.282977,228.516603 353.491962,228.186523 C353.700947,227.856444 353.805439,227.365238 353.805439,226.712891 C353.805439,226.06445 353.699971,225.578127 353.489032,225.253906 C353.278094,224.929686 352.932394,224.767578 352.451923,224.767578 C351.975358,224.767578 351.631612,224.928709 351.420673,225.250977 C351.209734,225.573244 351.104267,226.060544 351.104267,226.712891 Z M355.633564,226.712891 C355.633564,227.779302 355.352316,228.613278 354.789814,229.214844 C354.227311,229.816409 353.444116,230.117188 352.440204,230.117188 C351.811295,230.117188 351.256613,229.979494 350.776142,229.704102 C350.295671,229.42871 349.926534,229.033206 349.66872,228.517578 C349.410906,228.001951 349.282001,227.400394 349.282001,226.712891 C349.282001,225.642573 349.561295,224.81055 350.119892,224.216797 C350.678488,223.623044 351.463637,223.326172 352.475361,223.326172 C353.10427,223.326172 353.658952,223.462889 354.139423,223.736328 C354.619894,224.009767 354.989031,224.402341 355.246845,224.914062 C355.504659,225.425784 355.633564,226.025387 355.633564,226.712891 Z M359.408353,228.693359 C359.720855,228.693359 360.095851,228.625001 360.533353,228.488281 L360.533353,229.818359 C360.088039,230.017579 359.541169,230.117188 358.892728,230.117188 C358.177881,230.117188 357.657378,229.936525 357.331205,229.575195 C357.005031,229.213865 356.841947,228.671879 356.841947,227.949219 L356.841947,224.791016 L355.986478,224.791016 L355.986478,224.035156 L356.970853,223.4375 L357.486478,222.054688 L358.629056,222.054688 L358.629056,223.449219 L360.463041,223.449219 L360.463041,224.791016 L358.629056,224.791016 L358.629056,227.949219 C358.629056,228.203126 358.700345,228.390624 358.842924,228.511719 C358.985502,228.632813 359.173977,228.693359 359.408353,228.693359 Z M364.108924,224.597656 C363.730016,224.597656 363.433144,224.717772 363.218299,224.958008 C363.003454,225.198243 362.880409,225.53906 362.849158,225.980469 L365.356971,225.980469 C365.349158,225.53906 365.233925,225.198243 365.011268,224.958008 C364.788611,224.717772 364.487832,224.597656 364.108924,224.597656 Z M364.360877,230.117188 C363.306184,230.117188 362.481974,229.826175 361.888221,229.244141 C361.294468,228.662106 360.997596,227.837896 360.997596,226.771484 C360.997596,225.673823 361.272007,224.825198 361.820838,224.225586 C362.369669,223.625974 363.128451,223.326172 364.097205,223.326172 C365.022991,223.326172 365.743687,223.589841 366.259315,224.117188 C366.774942,224.644534 367.032752,225.373042 367.032752,226.302734 L367.032752,227.169922 L362.808143,227.169922 C362.827674,227.677737 362.978063,228.074217 363.259315,228.359375 C363.540566,228.644533 363.935093,228.787109 364.442908,228.787109 C364.837442,228.787109 365.210485,228.746094 365.562049,228.664062 C365.913613,228.582031 366.280797,228.451173 366.663612,228.271484 L366.663612,229.654297 C366.35111,229.810548 366.017129,229.926757 365.661658,230.00293 C365.306188,230.079102 364.872599,230.117188 364.360877,230.117188 Z M370.784104,228.693359 C371.096606,228.693359 371.471602,228.625001 371.909104,228.488281 L371.909104,229.818359 C371.46379,230.017579 370.91692,230.117188 370.268479,230.117188 C369.553632,230.117188 369.033129,229.936525 368.706956,229.575195 C368.380782,229.213865 368.217698,228.671879 368.217698,227.949219 L368.217698,224.791016 L367.362229,224.791016 L367.362229,224.035156 L368.346604,223.4375 L368.862229,222.054688 L370.004807,222.054688 L370.004807,223.449219 L371.838792,223.449219 L371.838792,224.791016 L370.004807,224.791016 L370.004807,227.949219 C370.004807,228.203126 370.076096,228.390624 370.218675,228.511719 C370.361254,228.632813 370.549728,228.693359 370.784104,228.693359 Z M375.53155,228.693359 C375.844052,228.693359 376.219048,228.625001 376.65655,228.488281 L376.65655,229.818359 C376.211236,230.017579 375.664366,230.117188 375.015925,230.117188 C374.301078,230.117188 373.780575,229.936525 373.454402,229.575195 C373.128228,229.213865 372.965144,228.671879 372.965144,227.949219 L372.965144,224.791016 L372.109675,224.791016 L372.109675,224.035156 L373.09405,223.4375 L373.609675,222.054688 L374.752253,222.054688 L374.752253,223.449219 L376.586238,223.449219 L376.586238,224.791016 L374.752253,224.791016 L374.752253,227.949219 C374.752253,228.203126 374.823542,228.390624 374.966121,228.511719 C375.108699,228.632813 375.297174,228.693359 375.53155,228.693359 Z M382.159855,230 L381.919621,229.162109 L381.825871,229.162109 C381.634464,229.466798 381.362982,229.702148 381.011418,229.868164 C380.659854,230.034181 380.259467,230.117188 379.810246,230.117188 C379.040711,230.117188 378.460639,229.911135 378.070012,229.499023 C377.679385,229.086912 377.484074,228.494144 377.484074,227.720703 L377.484074,223.449219 L379.271184,223.449219 L379.271184,227.275391 C379.271184,227.748049 379.355167,228.102538 379.523137,228.338867 C379.691106,228.575196 379.958682,228.693359 380.325871,228.693359 C380.825874,228.693359 381.187198,228.526369 381.409855,228.192383 C381.632513,227.858397 381.74384,227.304691 381.74384,226.53125 L381.74384,223.449219 L383.530949,223.449219 L383.530949,230 L382.159855,230 Z" id="Luotettu" fill="#4E4E4E"></path>
            </g>
        </g>
    </g>
</svg>