<?xml version="1.0" encoding="UTF-8" standalone="no"?>
<svg width="550px" height="300px" viewBox="0 0 550 300" version="1.1" xmlns="http://www.w3.org/2000/svg" xmlns:xlink="http://www.w3.org/1999/xlink">
    <!-- Generator: Sketch 45.1 (43504) - http://www.bohemiancoding.com/sketch -->
    <title>Translations-WSB-FI</title>
    <desc>Created with Sketch.</desc>
    <defs>
        <linearGradient x1="49.9967656%" y1="57.312253%" x2="49.9967656%" y2="-32.8063241%" id="linearGradient-1">
            <stop stop-color="#FFFFFF" offset="0%"></stop>
            <stop stop-color="#FFFFFF" offset="100%"></stop>
        </linearGradient>
    </defs>
    <g id="SVG" stroke="none" stroke-width="1" fill="none" fill-rule="evenodd">
        <g id="Translations-WSB-FI">
            <g transform="translate(10.000000, 0.000000)">
                <g id="WSB-SVG">
                    <path d="M212.438835,9.85485997 C204.132496,3.40764514 194.196924,0 183.706192,0 C174.159101,0 164.957953,2.86994061 157.098043,8.29938098 C149.809135,13.3338934 144.119945,20.2338891 140.576301,28.3173586 C132.51412,28.9295079 125.016431,32.4622463 119.33679,38.356693 C113.315981,44.6054614 110,52.8282146 110,61.5105163 C110,70.2336425 113.342676,78.484558 119.412316,84.7435872 C125.470455,90.9908275 133.565407,94.5584959 142.205318,94.7890343 C142.261963,94.7899075 219.845372,94.7702594 223.214959,94.7669847 C231.243501,94.3825358 238.643528,90.9801301 244.153451,85.1839242 C249.681823,79.3682884 252.726301,71.7434941 252.726301,63.7143844 C252.726301,49.1579391 242.713683,36.6250355 228.730743,33.4110339 C225.874429,24.1464918 220.126424,15.8217865 212.438835,9.85485997 Z" id="Cloud" fill="#FFFFFF" transform="translate(181.363150, 47.394531) scale(-1, 1) translate(-181.363150, -47.394531) "></path>
                    <path d="M465.483391,41.7352496 C461.492204,38.6373698 456.718172,37 451.677387,37 C447.09002,37 442.668878,38.3790034 438.8922,40.9878437 C435.389887,43.4069215 432.656238,46.722362 430.95352,50.6064605 C427.079651,50.9005975 423.477019,52.5980745 420.747958,55.4303498 C417.854966,58.4328764 416.26164,62.3839005 416.26164,66.5557371 C416.26164,70.7471899 417.867792,74.711746 420.784248,77.7192028 C423.695177,80.720995 427.584793,82.4352559 431.736261,82.5460293 C431.763479,82.5464489 469.042224,82.537008 470.661307,82.5354345 C474.519013,82.3507072 478.074717,80.715855 480.72223,77.9307842 C483.378606,75.1363775 484.841475,71.472672 484.841475,67.6146934 C484.841475,60.620337 480.030423,54.5982903 473.311635,53.0539659 C471.939179,48.6023634 469.177269,44.6023515 465.483391,41.7352496 Z" id="Cloud" fill="#FFFFFF" transform="translate(450.551558, 59.773021) scale(-1, 1) translate(-450.551558, -59.773021) "></path>
                    <path d="M71.2349985,94.1927943 C67.1616518,91.0311435 62.2893446,89.3600678 57.1447927,89.3600678 C52.4629929,89.3600678 47.9508405,90.7674585 44.0964177,93.4300027 C40.5220088,95.8988781 37.7320861,99.2825682 35.9943179,103.246622 C32.0407035,103.546814 28.3639102,105.279235 25.5786703,108.169813 C22.6261245,111.234148 21,115.266505 21,119.524221 C21,123.801956 22.6392153,127.848124 25.6157075,130.917491 C28.5865591,133.981076 32.5562442,135.730625 36.7931719,135.843679 C36.8209498,135.844107 74.8670917,135.834472 76.5195042,135.832866 C80.4566221,135.644336 84.0855225,133.97583 86.787535,131.133428 C89.498594,128.281497 90.9915762,124.542373 90.9915762,120.604976 C90.9915762,113.466638 86.0814869,107.320625 79.2243903,105.744511 C77.8236818,101.20127 75.0049169,97.1189165 71.2349985,94.1927943 Z" id="Cloud" fill="#FFFFFF" opacity="0.5"></path>
                    <g id="Idea" stroke-width="1" transform="translate(0.000000, 141.000000)">
                        <ellipse id="Oval" fill="#E2F4F7" fill-rule="nonzero" cx="55.1973118" cy="117.687001" rx="35.8757929" ry="35.8826083"></ellipse>
                        <path d="M109.632094,98.0411021 C109.632094,95.0926074 107.242321,92.7023801 104.294386,92.7023801 L96.373916,92.7023801 C93.5288416,92.8390922 91.2923525,95.1860545 91.2923525,98.0349515 C91.2923525,100.883849 93.5288416,103.230811 96.373916,103.367523 L104.294386,103.367523 C107.237524,103.367531 109.625312,100.984792 109.632094,98.0411021 L109.632094,98.0411021 Z M86.633214,121.278074 L92.241497,126.875121 C94.3301835,128.957411 97.7111068,128.951903 99.7930007,126.86282 C101.874895,124.773737 101.869388,121.392171 99.780702,119.309882 L99.780702,119.309882 L94.1847179,113.737437 C92.8626493,112.275647 90.8428366,111.661406 88.9309865,112.139736 C87.0191365,112.618067 85.5263552,114.111131 85.0481158,116.023345 C84.5698764,117.935558 85.1840005,119.955754 86.6455128,121.278074 L86.633214,121.278074 Z M90.4089659,83.9193214 C91.8143939,83.9339495 93.1680978,83.3897102 94.172419,82.4062735 L99.7684031,76.7477202 C101.263354,75.4355592 101.904882,73.4008724 101.432971,71.4683327 C100.96106,69.535793 99.453992,68.0259758 97.5225924,67.5508206 C95.5911928,67.0756654 93.5558478,67.7139923 92.241497,69.207083 L86.6455128,74.8164314 C85.1265119,76.3444832 84.6748586,78.636068 85.5004162,80.6263892 C86.3259737,82.6167105 88.2668728,83.9155208 90.4212648,83.9193214 L90.4089659,83.9193214 Z M0,98.0411021 C0.033687617,100.965549 2.41362225,103.318512 5.33770796,103.318318 L13.2581778,103.318318 C16.2027163,103.460987 18.7053705,101.18917 18.8480125,98.244072 C18.9906546,95.2989741 16.7192687,92.7958444 13.7747302,92.6531753 L5.33770796,92.6531753 C2.38977325,92.6531753 3.6101788e-16,95.0434026 0,97.9918973 L0,98.0411021 Z M17.4028958,69.207083 C15.3210018,67.1179998 11.9400783,67.1124923 9.85139188,69.1947818 C7.76270542,71.2770713 7.75719903,74.658637 9.83909301,76.7477202 L15.4350772,82.4062735 C17.5442831,84.3146012 20.7790661,84.2336132 22.7901705,82.2221268 C24.8012748,80.2106404 24.8822475,76.9752429 22.9742822,74.8656362 L17.4028958,69.207083 Z M15.4596749,113.737437 L9.83909301,119.309882 C7.75040656,121.398965 7.75040656,124.786038 9.83909301,126.875121 C11.9277795,128.964204 15.3142093,128.964204 17.4028958,126.875121 L22.9988799,121.278074 C24.813521,119.157247 24.6883265,115.996242 22.7116402,114.025631 C20.734954,112.05502 17.574158,111.940132 15.4596749,113.762039 L15.4596749,113.737437 Z M52.5530555,71.4582031 C64.7047751,70.6035518 75.9374667,77.9507198 80.0260925,89.4279848 C84.1147184,100.90525 80.0577589,113.701226 70.1035377,120.72452 C69.6929887,121.003107 69.437759,121.458961 69.4148012,121.95464 L69.4148012,126.96123 C69.3914614,130.640739 66.7687503,133.789621 63.1546783,134.477264 L63.1546783,137.109722 C63.1546783,139.147852 61.5027613,140.800083 59.4650184,140.800083 L49.4291435,140.800083 C47.3914006,140.800083 45.7394836,139.147852 45.7394836,137.109722 L45.7394836,134.477264 C42.1228019,133.794058 39.497866,130.642505 39.4793607,126.96123 L39.4793607,121.95464 C39.44697,121.455597 39.1830314,121.000444 38.7660265,120.72452 C29.3333394,114.144682 25.0896714,102.320069 28.18532,91.2422992 C31.2809686,80.1645294 41.0394854,72.2542708 52.5161589,71.5197091 L52.5530555,71.4582031 Z" id="Shape" fill="#FFBD35" fill-rule="nonzero"></path>
                        <path d="M58.1490397,116.394497 C58.1490397,114.356367 56.4971227,112.704136 54.4593798,112.704136 C52.4216369,112.704136 50.7697199,114.356367 50.7697199,116.394497 C50.7697199,118.432627 52.4216369,120.084857 54.4593798,120.084857 C56.4971227,120.084857 58.1490397,118.432627 58.1490397,116.394497 Z" id="Path" fill="#FFFFFF"></path>
                        <path d="M51.2493757,86.7978028 C50.4243623,87.7022429 50.0181215,88.9122668 50.1301789,90.1314288 L50.8435131,104.179402 C51.0310742,106.032569 52.5909466,107.442775 54.4532304,107.442775 C56.3155141,107.442775 57.8753866,106.032569 58.0629476,104.179402 L58.7762819,90.1314288 C58.9567921,88.2677747 57.9226164,86.4982615 56.2104459,85.7411875 C54.4982754,84.9841136 52.493729,85.4099887 51.2370769,86.7978028 L51.2493757,86.7978028 Z" id="Path" fill="#FFFFFF"></path>
                        <path d="M57.7876574,53.029508 C58.5079608,53.217544 59.2727671,53.1252222 59.9276601,52.7711827 C60.7816924,52.2803653 61.3419702,51.4030425 61.4281218,50.421653 C63.2880987,39.6404762 69.86391,30.2530532 79.3598688,24.8228502 C86.8252806,20.7019473 96.2093156,19.0043814 107.253697,19.7793571 L101.817599,26.7787415 C100.763871,28.3442613 101.032077,30.4482401 102.444841,31.6992225 C103.052633,32.3212059 103.892911,32.66044 104.762088,32.6347337 C105.631264,32.6090274 106.450033,32.2207261 107.020019,31.5639093 L117.20348,18.4508272 C118.263194,16.8912193 118.005598,14.7879985 116.600836,13.5303462 L116.600836,13.5303462 L103.564038,1.30295069 C102.595873,0.324171868 101.11153,0.0717856889 99.8743777,0.675589349 C99.5468518,0.854558498 99.2583407,1.09712122 99.025756,1.38905911 C97.9630328,2.9457109 98.2153273,5.04856424 99.6161015,6.30954018 L106.429673,12.7061656 C94.4751754,11.943491 84.2302198,13.9362859 75.9284851,18.4631284 L75.9284851,18.4631284 C64.7484421,24.8870625 57.0654874,36.0159024 55.0204125,48.7486895 C54.7802927,50.6586002 55.9477898,52.4646721 57.7876574,53.029508 L57.7876574,53.029508 Z" id="Shape" fill="#2D4959" fill-rule="nonzero"></path>
                    </g>
                    <g id="WSB" stroke-width="1" transform="translate(141.000000, 34.000000)">
                        <ellipse id="Oval" fill="#4DACE8" fill-rule="nonzero" cx="132.378178" cy="135.957548" rx="129.923476" ry="129.948158"></ellipse>
                        <rect id="Rectangle-path" fill="url(#linearGradient-1)" fill-rule="nonzero" opacity="0.2" style="mix-blend-mode: multiply;" x="21.528496" y="240.419361" width="190.128174" height="3.11220428"></rect>
                        <path d="M220.794727,228.351881 L20.7167708,228.351881 L20.7167708,102.375264 C20.7167708,97.001395 25.0723253,92.6450131 30.445174,92.6450131 L211.066324,92.6450131 C216.439173,92.6450131 220.794727,97.001395 220.794727,102.375264 L220.794727,228.351881 Z" id="Shape" fill="#003D54" fill-rule="nonzero"></path>
                        <path d="M28.4281599,218.609329 L28.4281599,102.375264 C28.4281599,101.261087 29.3312079,100.357867 30.445174,100.357867 L211.066324,100.357867 C212.165855,100.377988 213.046625,101.275341 213.046441,102.375264 L213.046441,218.609329 L28.4281599,218.609329 Z" id="Shape" fill="#DFF5F7" fill-rule="nonzero"></path>
                        <rect id="Rectangle-path" fill="#2EAEB7" fill-rule="nonzero" x="48.2908289" y="158.800881" width="40.6846496" height="39.5975715"></rect>
                        <rect id="Rectangle-path" fill="#FFFFFF" fill-rule="nonzero" x="40.4441523" y="108.907203" width="158.470892" height="98.4219227"></rect>
                        <polygon id="Shape" fill="#A3C2CF" fill-rule="nonzero" points="51.8083047 131.627524 50.8366943 131.627524 50.8366943 127.887959 54.5632507 127.887959 54.5632507 128.872055 51.8083047 128.872055"></polygon>
                        <path d="M178.609616,128.872055 L172.460183,128.872055 L172.460183,127.90026 L178.609616,127.90026 L178.609616,128.872055 Z M166.20006,128.872055 L160.050627,128.872055 L160.050627,127.90026 L166.20006,127.90026 L166.20006,128.872055 Z M153.790504,128.872055 L147.641071,128.872055 L147.641071,127.90026 L153.790504,127.90026 L153.790504,128.872055 Z M141.380948,128.872055 L135.231515,128.872055 L135.231515,127.90026 L141.380948,127.90026 L141.380948,128.872055 Z M128.971392,128.872055 L122.821959,128.872055 L122.821959,127.90026 L128.971392,127.90026 L128.971392,128.872055 Z M116.561836,128.872055 L110.412402,128.872055 L110.412402,127.90026 L116.561836,127.90026 L116.561836,128.872055 Z M104.15228,128.872055 L98.0028464,128.872055 L98.0028464,127.90026 L104.15228,127.90026 L104.15228,128.872055 Z M91.7427235,128.872055 L85.5932903,128.872055 L85.5932903,127.90026 L91.7427235,127.90026 L91.7427235,128.872055 Z M79.3331674,128.872055 L73.1837343,128.872055 L73.1837343,127.90026 L79.3331674,127.90026 L79.3331674,128.872055 Z M66.9236113,128.872055 L60.7741782,128.872055 L60.7741782,127.90026 L66.9236113,127.90026 L66.9236113,128.872055 Z" id="Shape" fill="#A3C2CF" fill-rule="nonzero"></path>
                        <polygon id="Shape" fill="#A3C2CF" fill-rule="nonzero" points="188.5471 131.627524 187.575489 131.627524 187.575489 128.872055 184.820543 128.872055 184.820543 127.887959 188.5471 127.887959"></polygon>
                        <rect id="Rectangle-path" fill="#A3C2CF" fill-rule="nonzero" x="187.575489" y="137.778126" width="1" height="6.15060135"></rect>
                        <polygon id="Shape" fill="#A3C2CF" fill-rule="nonzero" points="188.5471 153.806593 184.820543 153.806593 184.820543 152.834798 187.575489 152.834798 187.575489 150.079328 188.5471 150.079328"></polygon>
                        <path d="M178.609616,153.806593 L172.460183,153.806593 L172.460183,152.834798 L178.609616,152.834798 L178.609616,153.806593 Z M166.20006,153.806593 L160.050627,153.806593 L160.050627,152.834798 L166.20006,152.834798 L166.20006,153.806593 Z M153.790504,153.806593 L147.641071,153.806593 L147.641071,152.834798 L153.790504,152.834798 L153.790504,153.806593 Z M141.380948,153.806593 L135.231515,153.806593 L135.231515,152.834798 L141.380948,152.834798 L141.380948,153.806593 Z M128.971392,153.806593 L122.821959,153.806593 L122.821959,152.834798 L128.971392,152.834798 L128.971392,153.806593 Z M116.561836,153.806593 L110.412402,153.806593 L110.412402,152.834798 L116.561836,152.834798 L116.561836,153.806593 Z M104.15228,153.806593 L98.0028464,153.806593 L98.0028464,152.834798 L104.15228,152.834798 L104.15228,153.806593 Z M91.7427235,153.806593 L85.5932903,153.806593 L85.5932903,152.834798 L91.7427235,152.834798 L91.7427235,153.806593 Z M79.3331674,153.806593 L73.1837343,153.806593 L73.1837343,152.834798 L79.3331674,152.834798 L79.3331674,153.806593 Z M66.9236113,153.806593 L60.7741782,153.806593 L60.7741782,152.834798 L66.9236113,152.834798 L66.9236113,153.806593 Z" id="Shape" fill="#A3C2CF" fill-rule="nonzero"></path>
                        <polygon id="Shape" fill="#A3C2CF" fill-rule="nonzero" points="54.5632507 153.806593 50.8366943 153.806593 50.8366943 150.079328 51.8083047 150.079328 51.8083047 152.834798 54.5632507 152.834798"></polygon>
                        <rect id="Rectangle-path" fill="#A3C2CF" fill-rule="nonzero" x="50.8366943" y="137.778126" width="1" height="6.15060135"></rect>
                        <rect id="Rectangle-path" fill="#2290BF" fill-rule="nonzero" x="50.6522113" y="114.959395" width="25.200377" height="6.95017952"></rect>
                        <rect id="Rectangle-path" fill="#809FAA" fill-rule="nonzero" x="121.235405" y="114.159817" width="16.7141593" height="1.70986717"></rect>
                        <rect id="Rectangle-path" fill="#FFDA8E" fill-rule="nonzero" x="138.85968" y="114.159817" width="16.7264581" height="1.70986717"></rect>
                        <rect id="Rectangle-path" fill="#809FAA" fill-rule="nonzero" x="156.483955" y="114.159817" width="16.7264581" height="1.70986717"></rect>
                        <rect id="Rectangle-path" fill="#809FAA" fill-rule="nonzero" x="174.108231" y="114.159817" width="16.7264581" height="1.70986717"></rect>
                        <rect id="Rectangle-path" fill="#2290BF" fill-rule="nonzero" x="50.8366943" y="162.737266" width="36.1094714" height="32.0569342"></rect>
                        <rect id="Rectangle-path" fill="#FFBD35" fill-rule="nonzero" x="101.717104" y="162.737266" width="36.1094714" height="32.0569342"></rect>
                        <rect id="Rectangle-path" fill="#F15A29" fill-rule="nonzero" x="152.609813" y="162.737266" width="36.1094714" height="32.0569342"></rect>
                        <rect id="Rectangle-path" fill="#98DFE5" fill-rule="nonzero" x="50.5538203" y="200.981705" width="21.5968092" height="1.64836116"></rect>
                        <rect id="Rectangle-path" fill="#B6C8CE" fill-rule="nonzero" x="72.7040785" y="200.981705" width="115.929113" height="1.64836116"></rect>
                        <rect id="Rectangle-path" fill="#FFFFFF" fill-rule="nonzero" opacity="0.5" x="54.1450893" y="166.821265" width="21.523016" height="1.41463831"></rect>
                        <rect id="Rectangle-path" fill="#227792" fill-rule="nonzero" x="54.1450893" y="173.254794" width="28.3119901" height="1"></rect>
                        <rect id="Rectangle-path" fill="#227792" fill-rule="nonzero" x="54.1450893" y="176.649926" width="28.3119901" height="1"></rect>
                        <rect id="Rectangle-path" fill="#227792" fill-rule="nonzero" x="54.1450893" y="180.032757" width="28.3119901" height="1"></rect>
                        <rect id="Rectangle-path" fill="#227792" fill-rule="nonzero" x="54.1450893" y="183.427889" width="19.5674962" height="1"></rect>
                        <rect id="Rectangle-path" fill="#98DFE5" fill-rule="nonzero" x="54.1450893" y="189.06184" width="6.18632973" height="1.41463831"></rect>
                        <rect id="Rectangle-path" fill="#FFFFFF" fill-rule="nonzero" opacity="0.5" x="105.332971" y="166.821265" width="21.523016" height="1.41463831"></rect>
                        <rect id="Rectangle-path" fill="#FF9A00" fill-rule="nonzero" x="105.332971" y="173.254794" width="28.3119901" height="1"></rect>
                        <rect id="Rectangle-path" fill="#FF9A00" fill-rule="nonzero" x="105.332971" y="176.649926" width="28.3119901" height="1"></rect>
                        <rect id="Rectangle-path" fill="#FF9A00" fill-rule="nonzero" x="105.332971" y="180.032757" width="28.3119901" height="1"></rect>
                        <rect id="Rectangle-path" fill="#FF9A00" fill-rule="nonzero" x="105.332971" y="183.427889" width="19.5674962" height="1"></rect>
                        <rect id="Rectangle-path" fill="#FFFFFF" fill-rule="nonzero" x="105.332971" y="189.06184" width="6.18632973" height="1.41463831"></rect>
                        <rect id="Rectangle-path" fill="#FFFFFF" fill-rule="nonzero" opacity="0.5" x="156.508553" y="166.821265" width="21.523016" height="1.41463831"></rect>
                        <rect id="Rectangle-path" fill="#D63B13" fill-rule="nonzero" x="156.508553" y="173.254794" width="28.3119901" height="1"></rect>
                        <rect id="Rectangle-path" fill="#D63B13" fill-rule="nonzero" x="156.508553" y="176.649926" width="28.3119901" height="1"></rect>
                        <rect id="Rectangle-path" fill="#D63B13" fill-rule="nonzero" x="156.508553" y="180.032757" width="28.3119901" height="1"></rect>
                        <rect id="Rectangle-path" fill="#D63B13" fill-rule="nonzero" x="156.508553" y="183.427889" width="19.5674962" height="1"></rect>
                        <rect id="Rectangle-path" fill="#FFFFFF" fill-rule="nonzero" x="156.508553" y="189.06184" width="6.18632973" height="1.41463831"></rect>
                        <path d="M101.532621,228.105857 L134.063122,228.105857 C134.063122,228.105857 134.063122,231.181158 130.373462,231.181158 L105.455959,231.181158 C105.455959,231.181158 101.532621,231.550194 101.532621,228.105857 Z" id="Shape" fill="#003D54" fill-rule="nonzero"></path>
                        <path d="M235.012217,228.105857 L134.075421,228.105857 C134.102856,229.792875 132.761083,231.184404 131.074498,231.218061 L104.545843,231.218061 C103.733606,231.205116 102.959789,230.869925 102.394678,230.286251 C101.829567,229.702576 101.519468,228.918246 101.532621,228.105857 L0.608124438,228.105857 L0.608124438,234.711603 L235.012217,234.711603 L235.012217,228.105857 Z" id="Shape" fill="#FFFFFF" fill-rule="nonzero"></path>
                        <path d="M0.608124438,234.711603 L0.608124438,234.834615 L14.1368773,238.647988 C17.9349263,239.718893 21.8624178,240.261147 25.8085014,240.259445 L210.291495,240.259445 C214.387483,240.260122 218.462602,239.676076 222.39358,238.524976 L234.97532,234.834615 L234.97532,234.711603 L0.608124438,234.711603 Z" id="Shape" fill="#ADC0C8" fill-rule="nonzero"></path>
                        <rect id="Rectangle-path" fill="#003D54" fill-rule="nonzero" opacity="0.200000003" x="0.878699496" y="227.638411" width="100.985991" height="1.94359003"></rect>
                        <polygon id="Shape" fill="#003D54" fill-rule="nonzero" opacity="0.200000003" points="142.992099 148.430967 220.708635 141.320872 220.708635 147.754401"></polygon>
                        <polygon id="Shape" fill="#F8BA00" fill-rule="nonzero" points="92.2100804 92.6450131 111.617691 92.6450131 110.805966 17.3862551 107.817342 16.6112793 101.987679 18.8131946 96.1580164 16.4759661 92.2100804 17.9029056"></polygon>
                        <polygon id="Shape" fill="#F15A29" fill-rule="nonzero" opacity="0.400000006" points="105.874121 92.7188203 111.605392 92.7188203 110.793667 17.263243 107.94033 16.2545444 105.874121 17.263243"></polygon>
                        <polygon id="Shape" fill="#F15A29" fill-rule="nonzero" opacity="0.200000003" points="93.1939897 92.7188203 98.9129625 92.7188203 99.0605489 17.3862551 96.01043 16.3775564 92.7143339 17.9029056"></polygon>
                        <polygon id="Shape" fill="#F8BA00" fill-rule="nonzero" points="231.261062 44.1044673 231.261062 24.8038803 67.0220023 24.9145911 67.0466 44.2397805"></polygon>
                        <rect id="Rectangle-path" fill="#003D54" fill-rule="nonzero" x="208.208386" y="44.1290697" width="1" height="19.3128882"></rect>
                        <rect id="Rectangle-path" fill="#003D54" fill-rule="nonzero" x="204.223554" y="44.1290697" width="1" height="19.3128882"></rect>
                        <ellipse id="Oval" fill="#FFBD35" fill-rule="nonzero" cx="206.55264" cy="63.4788615" rx="4.21851113" ry="4.21931252"></ellipse>
                        <polygon id="Shape" fill="#F15A29" fill-rule="nonzero" opacity="0.200000003" points="231.457844 38.6181309 68.1166014 38.6181309 68.1166014 25.1606152 231.261062 25.1606152"></polygon>
                        <rect id="Rectangle-path" fill="#F15A29" fill-rule="nonzero" opacity="0.200000003" x="92.2100804" y="44.2397805" width="19.3953121" height="2.09120446"></rect>
                        <path d="M74.8686789,42.9973591 C74.6716971,42.9973591 74.5120118,42.8376434 74.5120118,42.6406242 L74.5120118,40.1803836 C74.5120118,39.9833644 74.6716971,39.8236488 74.8686789,39.8236488 C75.0656608,39.8236488 75.2253461,39.9833644 75.2253461,40.1803836 L75.2253461,42.6406242 C75.2253461,42.8376434 75.0656608,42.9973591 74.8686789,42.9973591 L74.8686789,42.9973591 Z" id="Shape" fill="#FFFFFF" fill-rule="nonzero"></path>
                        <path d="M86.4419121,42.9973591 C86.2449303,42.9973591 86.085245,42.8376434 86.085245,42.6406242 L86.085245,40.1803836 C86.085245,39.9833644 86.2449303,39.8236488 86.4419121,39.8236488 C86.6388939,39.8236488 86.7985792,39.9833644 86.7985792,40.1803836 L86.7985792,42.6406242 C86.7985792,42.7352361 86.7610019,42.8259731 86.6941138,42.8928738 C86.6272258,42.9597746 86.5365061,42.9973591 86.4419121,42.9973591 L86.4419121,42.9973591 Z" id="Shape" fill="#FFFFFF" fill-rule="nonzero"></path>
                        <path d="M98.0151452,42.9973591 C97.8181634,42.9973591 97.6584781,42.8376434 97.6584781,42.6406242 L97.6584781,40.1803836 C97.6584781,39.9833644 97.8181634,39.8236488 98.0151452,39.8236488 C98.2121271,39.8236488 98.3718124,39.9833644 98.3718124,40.1803836 L98.3718124,42.6406242 C98.3718124,42.8376434 98.2121271,42.9973591 98.0151452,42.9973591 L98.0151452,42.9973591 Z" id="Shape" fill="#FFFFFF" fill-rule="nonzero"></path>
                        <path d="M109.588378,42.9973591 C109.391397,42.9973591 109.231711,42.8376434 109.231711,42.6406242 L109.231711,40.1803836 C109.231711,39.9833644 109.391397,39.8236488 109.588378,39.8236488 C109.78536,39.8236488 109.945046,39.9833644 109.945046,40.1803836 L109.945046,42.6406242 C109.945046,42.8376434 109.78536,42.9973591 109.588378,42.9973591 L109.588378,42.9973591 Z" id="Shape" fill="#FFFFFF" fill-rule="nonzero"></path>
                        <path d="M121.161612,42.9973591 C120.96463,42.9973591 120.804944,42.8376434 120.804944,42.6406242 L120.804944,40.1803836 C120.804944,39.9833644 120.96463,39.8236488 121.161612,39.8236488 C121.358593,39.8236488 121.518279,39.9833644 121.518279,40.1803836 L121.518279,42.6406242 C121.518279,42.8376434 121.358593,42.9973591 121.161612,42.9973591 L121.161612,42.9973591 Z" id="Shape" fill="#FFFFFF" fill-rule="nonzero"></path>
                        <path d="M132.734845,42.9973591 C132.537863,42.9973591 132.378178,42.8376434 132.378178,42.6406242 L132.378178,40.1803836 C132.378178,39.9833644 132.537863,39.8236488 132.734845,39.8236488 C132.931827,39.8236488 133.091512,39.9833644 133.091512,40.1803836 L133.091512,42.6406242 C133.091512,42.7352361 133.053935,42.8259731 132.987046,42.8928738 C132.920158,42.9597746 132.829439,42.9973591 132.734845,42.9973591 L132.734845,42.9973591 Z" id="Shape" fill="#FFFFFF" fill-rule="nonzero"></path>
                        <path d="M144.308078,42.9973591 C144.111096,42.9973591 143.951411,42.8376434 143.951411,42.6406242 L143.951411,40.1803836 C143.951411,39.9833644 144.111096,39.8236488 144.308078,39.8236488 C144.50506,39.8236488 144.664745,39.9833644 144.664745,40.1803836 L144.664745,42.6406242 C144.664745,42.7352361 144.627168,42.8259731 144.56028,42.8928738 C144.493392,42.9597746 144.402672,42.9973591 144.308078,42.9973591 L144.308078,42.9973591 Z" id="Shape" fill="#FFFFFF" fill-rule="nonzero"></path>
                        <path d="M155.881311,42.9973591 C155.684329,42.9973591 155.524644,42.8376434 155.524644,42.6406242 L155.524644,40.1803836 C155.524644,39.9833644 155.684329,39.8236488 155.881311,39.8236488 C156.078293,39.8236488 156.237978,39.9833644 156.237978,40.1803836 L156.237978,42.6406242 C156.237978,42.8376434 156.078293,42.9973591 155.881311,42.9973591 L155.881311,42.9973591 Z" id="Shape" fill="#FFFFFF" fill-rule="nonzero"></path>
                        <path d="M167.454544,42.9973591 C167.35995,42.9973591 167.26923,42.9597746 167.202342,42.8928738 C167.135454,42.8259731 167.097877,42.7352361 167.097877,42.6406242 L167.097877,40.1803836 C167.097877,39.9833644 167.257562,39.8236488 167.454544,39.8236488 C167.651526,39.8236488 167.811211,39.9833644 167.811211,40.1803836 L167.811211,42.6406242 C167.811211,42.8376434 167.651526,42.9973591 167.454544,42.9973591 L167.454544,42.9973591 Z" id="Shape" fill="#FFFFFF" fill-rule="nonzero"></path>
                        <path d="M179.027777,42.9973591 C178.830796,42.9973591 178.67111,42.8376434 178.67111,42.6406242 L178.67111,40.1803836 C178.67111,40.0529345 178.739091,39.9351666 178.849444,39.8714421 C178.959797,39.8077175 179.095758,39.8077175 179.206111,39.8714421 C179.316464,39.9351666 179.384444,40.0529345 179.384444,40.1803836 L179.384444,42.6406242 C179.384444,42.8376434 179.224759,42.9973591 179.027777,42.9973591 L179.027777,42.9973591 Z" id="Shape" fill="#FFFFFF" fill-rule="nonzero"></path>
                        <path d="M190.60101,42.9973591 C190.506416,42.9973591 190.415697,42.9597746 190.348809,42.8928738 C190.281921,42.8259731 190.244343,42.7352361 190.244343,42.6406242 L190.244343,40.1803836 C190.244343,39.9833644 190.404029,39.8236488 190.60101,39.8236488 C190.797992,39.8236488 190.957678,39.9833644 190.957678,40.1803836 L190.957678,42.6406242 C190.957678,42.8376434 190.797992,42.9973591 190.60101,42.9973591 L190.60101,42.9973591 Z" id="Shape" fill="#FFFFFF" fill-rule="nonzero"></path>
                        <path d="M202.174244,42.9973591 C202.07965,42.9973591 201.98893,42.9597746 201.922042,42.8928738 C201.855154,42.8259731 201.817577,42.7352361 201.817577,42.6406242 L201.817577,40.1803836 C201.817577,39.9833644 201.977262,39.8236488 202.174244,39.8236488 C202.371225,39.8236488 202.530911,39.9833644 202.530911,40.1803836 L202.530911,42.6406242 C202.530911,42.8376434 202.371225,42.9973591 202.174244,42.9973591 L202.174244,42.9973591 Z" id="Shape" fill="#FFFFFF" fill-rule="nonzero"></path>
                        <path d="M213.747477,42.9973591 C213.652883,42.9973591 213.562163,42.9597746 213.495275,42.8928738 C213.428387,42.8259731 213.39081,42.7352361 213.39081,42.6406242 L213.39081,40.1803836 C213.39081,39.9833644 213.550495,39.8236488 213.747477,39.8236488 C213.944459,39.8236488 214.104144,39.9833644 214.104144,40.1803836 L214.104144,42.6406242 C214.104144,42.8376434 213.944459,42.9973591 213.747477,42.9973591 L213.747477,42.9973591 Z" id="Shape" fill="#FFFFFF" fill-rule="nonzero"></path>
                        <path d="M225.345308,42.9973591 C225.148326,42.9973591 224.988641,42.8376434 224.988641,42.6406242 L224.988641,40.1803836 C224.988641,39.9833644 225.148326,39.8236488 225.345308,39.8236488 C225.542289,39.8236488 225.701975,39.9833644 225.701975,40.1803836 L225.701975,42.6406242 C225.701975,42.8376434 225.542289,42.9973591 225.345308,42.9973591 L225.345308,42.9973591 Z" id="Shape" fill="#FFFFFF" fill-rule="nonzero"></path>
                        <ellipse id="Oval" fill="#F7F1E3" fill-rule="nonzero" cx="73.8109764" cy="32.8242644" rx="2.25069253" ry="2.25112009"></ellipse>
                        <path d="M102.258254,19.4897607 C96.6253734,16.6850865 95.6045675,16.9188094 95.0880151,17.1648334 L91.878011,18.3949537 L97.7322713,8.0004374 L106.120098,8.0004374 L111.937462,18.1366284 L108.862745,17.1771346 L108.862745,17.1771346 C108.223204,16.8450021 107.583663,16.5374721 102.258254,19.4897607 Z" id="Shape" fill="#FFFFFF" fill-rule="nonzero"></path>
                        <path d="M101.963081,0.700012207 L101.963081,0.798421829 L106.144696,8.09303502 L97.7814668,8.09303502 C99.7615843,4.66099947 101.335839,1.84402406 101.963081,0.700012207 Z" id="Shape" fill="#003D54" fill-rule="nonzero"></path>
                        <rect id="Rectangle-path" fill="#F15A29" fill-rule="nonzero" x="99.3557217" y="88.8931463" width="6.26012293" height="1"></rect>
                        <rect id="Rectangle-path" fill="#F15A29" fill-rule="nonzero" x="99.3557217" y="83.1361834" width="6.26012293" height="1"></rect>
                        <rect id="Rectangle-path" fill="#F15A29" fill-rule="nonzero" x="99.3557217" y="77.3915218" width="6.26012293" height="1"></rect>
                        <rect id="Rectangle-path" fill="#F15A29" fill-rule="nonzero" x="99.3557217" y="71.6345589" width="6.26012293" height="1"></rect>
                        <rect id="Rectangle-path" fill="#F15A29" fill-rule="nonzero" x="99.3557217" y="65.8775961" width="6.26012293" height="1"></rect>
                        <rect id="Rectangle-path" fill="#F15A29" fill-rule="nonzero" x="99.3557217" y="60.1329344" width="6.26012293" height="1"></rect>
                        <rect id="Rectangle-path" fill="#F15A29" fill-rule="nonzero" x="99.3557217" y="54.3759715" width="6.26012293" height="1"></rect>
                        <rect id="Rectangle-path" fill="#F15A29" fill-rule="nonzero" x="99.3557217" y="48.6190087" width="6.26012293" height="1"></rect>
                        <path d="M155.377058,121.491333 C154.886526,121.424833 154.483664,121.070672 154.35478,120.592637 C154.225896,120.114602 154.396113,119.605873 154.786712,119.301719 L206.048387,89.7788329 C206.586681,89.6167507 207.166339,89.840352 207.456419,90.3219771 C207.7465,90.8036022 207.673161,91.4206502 207.278273,91.8208325 L156.016599,121.343719 C155.820724,121.44996 155.599671,121.500982 155.377058,121.491333 L155.377058,121.491333 Z" id="Shape" fill="#003D54" fill-rule="nonzero"></path>
                        <path d="M206.687928,96.1631571 C199.585527,96.2841516 193.579348,90.932673 192.882075,83.8622039 C192.184802,76.7917348 197.029907,70.3697217 204.019074,69.1005112 L204.019074,65.1149215 C204.019074,63.6406743 205.21396,62.445561 206.687928,62.445561 C208.161895,62.445561 209.356781,63.6406743 209.356782,65.1149215 L209.356782,71.5607517 C209.356782,73.0349991 208.161895,74.2301127 206.687928,74.2301127 C203.181442,74.2302999 200.053198,76.43401 198.871911,79.7361519 C197.690624,83.0382938 198.711063,86.7266913 201.421511,88.9517291 C204.131958,91.176767 207.947849,91.4585692 210.955634,89.6558209 C212.21359,88.9617557 213.795136,89.3882182 214.533805,90.6206714 C215.272474,91.8531246 214.903174,93.4492683 213.698281,94.2318683 C211.579767,95.4994018 209.156554,96.1669751 206.687928,96.1631571 L206.687928,96.1631571 Z" id="Shape" fill="#FFBD35" fill-rule="nonzero"></path>
                        <path d="M252.11994,113.655467 C251.945917,113.654661 251.774046,113.616926 251.615686,113.544756 L205.261259,90.7998327 C204.670913,90.5169051 204.904592,90.5169051 205.187466,89.9387485 C205.487047,89.3784513 206.163971,89.1385508 206.749422,89.3851944 L252.624193,111.416648 C253.046419,111.699561 253.251182,112.213086 253.139492,112.708972 C253.027803,113.204859 252.622668,113.580963 252.11994,113.655467 L252.11994,113.655467 Z" id="Shape" fill="#003D54" fill-rule="nonzero"></path>
                        <rect id="Rectangle-path" fill="#003D54" fill-rule="nonzero" transform="translate(207.954791, 128.409279) rotate(-5.180000) translate(-207.954791, -128.409279) " x="141.645454" y="114.361306" width="132.618675" height="28.0959469"></rect>
                    </g>
                    <g id="Launch" stroke-width="1" transform="translate(428.000000, 35.000000)">
                        <path d="M0.787575074,142.416557 C0.949793855,141.678039 1.39026308,141.030426 2.0174617,140.60828 C2.83438405,140.060116 3.86740326,139.945314 4.78470661,140.30075 C15.2716806,143.404126 26.5962992,141.662934 35.6671598,135.552486 C42.6652147,130.632005 48.3349921,123.01756 52.5289054,112.758357 L43.8582047,114.52973 C41.9756295,114.793092 40.1922543,113.610986 39.7011879,111.774261 C39.4156127,110.95411 39.4856542,110.051916 39.8943875,109.285688 C40.3031207,108.519459 41.0133628,107.958901 41.8534895,107.739467 L58.1125907,104.418142 C59.9799582,104.158005 61.7516139,105.320053 62.2573087,107.136708 L62.2573087,107.136708 L67.4474302,124.235379 C67.911552,125.554344 67.4688296,127.022074 66.3528311,127.864234 C66.0455539,128.078567 65.6984531,128.229145 65.3320252,128.307078 C63.4560264,128.580575 61.6695031,127.415688 61.1627096,125.588512 L58.4446601,116.645537 C53.8325853,127.71662 47.5724623,136.044534 39.78728,141.457063 L39.78728,141.457063 C29.0794059,148.64961 15.6965569,150.620576 3.37033699,146.820388 C1.55219824,146.177231 0.46160238,144.317672 0.787575074,142.416557 L0.787575074,142.416557 Z" id="Shape" fill="#2D4959" fill-rule="nonzero"></path>
                        <rect id="Rectangle-path" fill="#DFF5F7" fill-rule="nonzero" x="33.2679575" y="18.6382529" width="76.0930856" height="69.0466507" rx="10"></rect>
                        <path d="M78.8229582,0.518581369 C74.1616878,7.33344766 71.0869713,16.940687 71.0869713,27.6673357 C71.0889708,31.9991894 71.5882956,36.3164866 72.5751341,40.5343937 L65.3065041,50.2400426 L65.3065041,53.9304035 L76.1295064,50.3876571 C76.4984724,51.0396208 76.7813464,51.6915846 77.1503123,52.3435483 L76.4000815,53.9304035 L77.3224965,53.9304035 L77.3224965,84.9663378 L81.9837668,84.9663378 L81.9837668,53.8688974 L82.9184806,53.8688974 L82.242043,52.2820423 C82.6186083,51.6496821 82.9594123,50.9966926 83.2628489,50.3261511 L94.0858512,53.8688974 L94.0858512,50.1785366 L86.8172212,40.4728877 C87.8438797,36.2620163 88.3437588,31.9399263 88.305384,27.6058297 C88.305384,16.8791809 85.3167595,7.27194165 80.5693972,0.457075355" id="Shape" fill="#FFBD35" fill-rule="nonzero"></path>
                        <path d="M77.0519214,77.3395922 L77.0519214,77.9177487 C74.7046496,75.7189467 71.5969047,74.5152934 68.3812207,74.5595204 C67.1859601,74.5712952 65.996556,74.7282603 64.8391472,75.0269661 C64.5869541,71.3337131 62.3108451,68.0837822 58.9266703,66.5848653 C55.5424955,65.0859483 51.6067324,65.5845199 48.7030347,67.8799673 C45.0168459,65.4614453 40.7019803,64.1782881 36.2934786,64.1896065 L35.1742818,64.1896065 L35.1742818,33.9778527 L68.0983468,33.9778527 C67.8034205,31.4707533 67.6473965,28.9492542 67.6309899,26.4249142 C67.6089384,23.4884467 67.8269445,20.5550907 68.2828298,17.6541567 L39.6510691,17.6541567 C37.0128812,17.5565842 34.4531874,18.5620295 32.5864319,20.4291396 C30.7196765,22.2962497 29.7144221,24.8564298 29.8119761,27.4951189 L29.8119761,78.9510497 C29.687482,82.7188075 31.8144413,86.1999476 35.2234772,87.8079157 C36.6481031,88.492193 38.2198457,88.8133627 39.7986555,88.7428071 L102.375287,88.7428071 C106.58773,88.7844745 110.301857,85.9882558 111.427253,81.9279408 C111.72626,80.9592791 111.883674,79.952467 111.89461,78.9387485 L111.89461,27.2859984 C111.92555,24.6789073 110.894394,22.1714813 109.038407,20.3406661 C107.18242,18.5098509 104.661434,17.5133126 102.055517,17.5803495 L90.6790652,17.5803495 C91.1314552,20.4816864 91.3494401,23.4147578 91.3309051,26.351107 C91.3202781,28.8756412 91.1642339,31.3974662 90.8635482,33.9040455 L106.433913,33.9040455 L106.433913,56.0462103 C101.918506,57.7425037 98.9156673,62.0470638 98.882409,66.8712687 C98.8775967,68.5129615 99.2257316,70.1365012 99.9032149,71.6318341 C97.7693107,73.5364003 96.0884166,75.8943021 94.9836684,78.5328088 C92.7540355,76.7822431 89.9960344,75.8410483 87.1615895,75.8634479 C85.263059,75.8831044 83.3899238,76.3022299 81.6639963,77.0935681 L81.6639963,77.3518934 L77.0519214,77.3395922 Z M58.4929322,23.0666859 C59.9329372,23.0666859 61.1002919,24.2342623 61.1002919,25.6745409 C61.1002919,27.1148194 59.9329372,28.2823958 58.4929322,28.2823958 C57.0529272,28.2823958 55.8855726,27.1148194 55.8855726,25.6745409 C55.8685331,24.9778098 56.1377609,24.3045434 56.630478,23.8117328 C57.123195,23.3189222 57.7963335,23.0496432 58.4929322,23.0666859 Z M49.3548746,23.0666859 C50.7982758,23.0666859 51.9683837,24.2370161 51.9683837,25.6806915 C51.9683837,27.1243669 50.7982758,28.294697 49.3548746,28.294697 C47.9285497,28.262188 46.7800178,27.113438 46.7475149,25.6868421 C46.7270427,24.988006 46.9947532,24.3114919 47.4878587,23.8159662 C47.9809643,23.3204406 48.6560826,23.0494986 49.3548746,23.0666859 Z M40.118426,23.0666859 C41.5618272,23.0666859 42.7319351,24.2370161 42.7319351,25.6806915 C42.7319351,27.1243669 41.5618272,28.294697 40.118426,28.294697 C38.6750248,28.294697 37.5049169,27.1243669 37.5049169,25.6806915 C37.5049169,24.2370161 38.6750248,23.0666859 40.118426,23.0666859 Z" id="Shape" fill="#2D4959" fill-rule="nonzero"></path>
                    </g>
                </g>
                <path d="M305.986272,160.481695 L301.294213,160.481695 L301.294213,157.832951 L306.270066,157.832951 L306.270066,155.468002 L298.399514,155.468002 L298.399514,168.21981 L306.534941,168.21981 L306.534941,165.85486 L301.294213,165.85486 L301.294213,162.827725 L305.986272,162.827725 L305.986272,160.481695 Z M311.283759,168.21981 L311.283759,158.968127 L308.407981,158.968127 L308.407981,168.21981 L311.283759,168.21981 Z M309.84587,154.938253 C308.91881,154.938253 308.313383,155.5626 308.332302,156.395062 C308.313383,157.189685 308.91881,157.832951 309.82695,157.832951 C310.77293,157.832951 311.378357,157.189685 311.378357,156.395062 C311.359438,155.5626 310.77293,154.938253 309.84587,154.938253 Z M320.289487,154.786896 L317.413708,154.786896 L317.413708,168.21981 L320.289487,168.21981 L320.289487,165.325111 L321.027351,164.416971 L323.259864,168.21981 L326.797828,168.21981 L323.013909,162.714207 L326.324838,158.968127 L322.862552,158.968127 L320.989512,161.749308 C320.762477,162.10878 320.535442,162.487172 320.327326,162.865564 L320.289487,162.865564 L320.289487,154.786896 Z M331.811521,158.760012 C334.649461,158.760012 336.54142,160.70873 336.54142,163.489911 C336.54142,166.876518 334.138631,168.427925 331.660164,168.427925 C328.954662,168.427925 326.873507,166.649483 326.873507,163.660187 C326.873507,160.670891 328.841145,158.760012 331.811521,158.760012 Z M331.735843,160.803328 C330.354712,160.803328 329.843883,162.222298 329.843883,163.584509 C329.843883,165.173755 330.506069,166.365689 331.735843,166.365689 C332.852099,166.365689 333.571044,165.249433 333.571044,163.584509 C333.571044,162.203378 333.041295,160.803328 331.735843,160.803328 Z M342.784887,158.760012 C345.622826,158.760012 347.514786,160.70873 347.514786,163.489911 C347.514786,166.876518 345.111997,168.427925 342.63353,168.427925 C339.928028,168.427925 337.846872,166.649483 337.846872,163.660187 C337.846872,160.670891 339.81451,158.760012 342.784887,158.760012 Z M342.709208,160.803328 C341.328078,160.803328 340.817249,162.222298 340.817249,163.584509 C340.817249,165.173755 341.479435,166.365689 342.709208,166.365689 C343.825465,166.365689 344.544409,165.249433 344.544409,163.584509 C344.544409,162.203378 344.014661,160.803328 342.709208,160.803328 Z M355.442097,154.786896 L358.317875,154.786896 L358.317875,165.457549 C358.317875,166.498126 358.355714,167.595463 358.393554,168.21981 L355.839408,168.21981 L355.706971,166.857599 L355.669132,166.857599 C355.082624,167.898176 353.966368,168.427925 352.774434,168.427925 C350.57976,168.427925 348.820238,166.554885 348.820238,163.679107 C348.801318,160.557373 350.750037,158.760012 352.96363,158.760012 C354.098805,158.760012 354.988026,159.157323 355.404257,159.800589 L355.442097,159.800589 L355.442097,154.786896 Z M355.442097,164.095338 L355.442097,162.884484 C355.442097,162.733127 355.423177,162.525011 355.404257,162.373654 C355.233981,161.597951 354.609634,160.954685 353.720413,160.954685 C352.414961,160.954685 351.733856,162.1277 351.733856,163.584509 C351.733856,165.154835 352.509559,166.138654 353.701494,166.138654 C354.533956,166.138654 355.196142,165.571066 355.366418,164.757524 C355.423177,164.549408 355.442097,164.341292 355.442097,164.095338 Z M368.477698,168.21981 L365.885714,168.21981 L365.715437,167.292749 L365.658678,167.292749 C365.053251,168.030614 364.107272,168.427925 363.009935,168.427925 C361.136895,168.427925 360.020639,167.065714 360.020639,165.589986 C360.020639,163.187197 362.177473,162.033102 365.450563,162.052021 L365.450563,161.919584 C365.450563,161.427675 365.185689,160.72765 363.766719,160.72765 C362.820739,160.72765 361.818,161.049283 361.212573,161.427675 L360.682825,159.573554 C361.326091,159.214082 362.593704,158.760012 364.277548,158.760012 C367.361442,158.760012 368.345261,160.576293 368.345261,162.752046 L368.345261,165.968378 C368.345261,166.857599 368.3831,167.708981 368.477698,168.21981 Z M365.545161,164.852122 L365.545161,163.849383 C364.031593,163.830463 362.858578,164.189936 362.858578,165.306192 C362.858578,166.044056 363.350488,166.403528 363.993754,166.403528 C364.712699,166.403528 365.299206,165.930538 365.488402,165.344031 C365.526241,165.192674 365.545161,165.022398 365.545161,164.852122 Z M379.337546,158.968127 L376.442848,158.968127 L376.442848,164.47373 C376.442848,164.700765 376.423929,164.9278 376.34825,165.098076 C376.159054,165.552147 375.704984,166.100815 374.910361,166.100815 C373.907622,166.100815 373.472472,165.287272 373.472472,163.943981 L373.472472,158.968127 L370.577773,158.968127 L370.577773,164.398051 C370.577773,167.25491 371.958904,168.427925 373.831944,168.427925 C375.496868,168.427925 376.36717,167.481945 376.726642,166.914357 L376.783401,166.914357 L376.915838,168.21981 L379.413225,168.21981 C379.375386,167.444106 379.337546,166.460287 379.337546,165.249433 L379.337546,158.968127 Z M381.115988,167.765739 C381.816014,168.144131 382.89443,168.409006 384.105285,168.409006 C386.754028,168.409006 388.116239,167.141393 388.116239,165.419709 C388.097319,164.057498 387.359455,163.168277 385.599933,162.56285 C384.464757,162.165539 384.105285,161.938504 384.105285,161.503353 C384.105285,161.030363 384.502596,160.746569 385.202621,160.746569 C385.997244,160.746569 386.791867,161.049283 387.208098,161.276318 L387.718927,159.28976 C387.15134,159.005966 386.18644,158.760012 385.108023,158.760012 C382.818752,158.760012 381.343024,160.065464 381.343024,161.787147 C381.324104,162.884484 382.061968,163.925061 383.972847,164.568328 C385.051264,164.9278 385.335058,165.154835 385.335058,165.627825 C385.335058,166.100815 384.975586,166.403528 384.105285,166.403528 C383.253903,166.403528 382.156566,166.025136 381.626818,165.703503 L381.115988,167.765739 Z M390.254153,156.96265 L390.254153,158.968127 L389.02438,158.968127 L389.02438,161.087122 L390.254153,161.087122 L390.254153,164.871041 C390.254153,166.176493 390.519028,167.065714 391.048776,167.614383 C391.502847,168.087372 392.27855,168.409006 393.20561,168.409006 C394.019153,168.409006 394.700258,168.314408 395.07865,168.163051 L395.059731,165.987297 C394.851615,166.025136 394.567821,166.062976 394.208349,166.062976 C393.338048,166.062976 393.073173,165.552147 393.073173,164.43589 L393.073173,161.087122 L395.135409,161.087122 L395.135409,158.968127 L393.073173,158.968127 L393.073173,156.319384 L390.254153,156.96265 Z M404.651966,168.21981 L402.059981,168.21981 L401.889705,167.292749 L401.832946,167.292749 C401.227519,168.030614 400.281539,168.427925 399.184203,168.427925 C397.311163,168.427925 396.194907,167.065714 396.194907,165.589986 C396.194907,163.187197 398.35174,162.033102 401.624831,162.052021 L401.624831,161.919584 C401.624831,161.427675 401.359956,160.72765 399.940987,160.72765 C398.995007,160.72765 397.992268,161.049283 397.386841,161.427675 L396.857092,159.573554 C397.500359,159.214082 398.767972,158.760012 400.451816,158.760012 C403.53571,158.760012 404.519529,160.576293 404.519529,162.752046 L404.519529,165.968378 C404.519529,166.857599 404.557368,167.708981 404.651966,168.21981 Z M401.719429,164.852122 L401.719429,163.849383 C400.205861,163.830463 399.032846,164.189936 399.032846,165.306192 C399.032846,166.044056 399.524755,166.403528 400.168022,166.403528 C400.886966,166.403528 401.473474,165.930538 401.66267,165.344031 C401.700509,165.192674 401.719429,165.022398 401.719429,164.852122 Z" id="Ei-koodausta" fill="#FFFFFF" transform="translate(351.525740, 161.607411) rotate(-5.200000) translate(-351.525740, -161.607411) "></path>
            </g>
        </g>
    </g>
</svg>