<?xml version="1.0" encoding="UTF-8" standalone="no"?>
<svg width="330px" height="300px" viewBox="0 0 330 300" version="1.1" xmlns="http://www.w3.org/2000/svg" xmlns:xlink="http://www.w3.org/1999/xlink">
    <!-- Generator: Sketch 45.1 (43504) - http://www.bohemiancoding.com/sketch -->
    <title>Translations-Domains-pt-br</title>
    <desc>Created with Sketch.</desc>
    <defs></defs>
    <g id="SVG" stroke="none" stroke-width="1" fill="none" fill-rule="evenodd">
        <g id="Translations-Domains-PT-BR" transform="translate(-220.000000, 0.000000)">
            <g id="Translations-Domains-pt-br" transform="translate(100.000000, 0.000000)">
                <g id="Domains-SVG">
                    <g id="Clouds" transform="translate(130.449438, 0.000000)" fill="#FFFFFF">
                        <path d="M88.7323253,8.41673731 C81.5584234,2.91036647 72.9774073,0 63.9169189,0 C55.6714209,0 47.7247028,2.45112932 40.9363655,7.08824983 C34.6411837,11.3880744 29.7276241,17.2811516 26.6670992,24.184998 C19.7040676,24.7078161 13.2285682,27.725021 8.32325602,32.7592893 C3.12328773,38.0961731 0.259387661,45.1189775 0.259387661,52.5342683 C0.259387661,59.9844261 3.14634288,67.031283 8.38848524,72.3769302 C13.6206933,77.7125088 20.6120283,80.7595463 28.0740259,80.9564422 C28.1229479,80.957188 95.1290998,80.9404071 98.0392976,80.9376103 C104.973276,80.6092641 111.364427,77.7033725 116.123161,72.7530087 C120.897827,67.7860504 123.52724,61.2739446 123.52724,54.4165253 C123.52724,41.9843064 114.879682,31.2803331 102.803092,28.5353517 C100.336191,20.622787 95.3718349,13.5129085 88.7323253,8.41673731 Z" id="Cloud" transform="translate(61.893314, 40.478233) scale(-1, 1) translate(-61.893314, -40.478233) "></path>
                        <path d="M275.960372,19.2809476 C271.459221,15.826063 266.0752,14 260.390341,14 C255.216835,14 250.230793,15.537922 245.971559,18.4474093 C242.021748,21.1452656 238.938813,24.8427829 237.018536,29.1744912 C232.649692,29.5025251 228.586744,31.3956221 225.508984,34.5542935 C222.246347,37.9028361 220.449438,42.3091827 220.449438,46.9617886 C220.449438,51.6362713 222.260812,56.0577093 225.549911,59.4117503 C228.832776,62.759474 233.219378,64.6712891 237.901289,64.7948282 C237.931985,64.7952962 279.973926,64.7847673 281.799883,64.7830125 C286.150497,64.5769969 290.160523,62.7537416 293.146315,59.6477148 C296.142103,56.531276 297.791886,52.4453591 297.791886,48.1427807 C297.791886,40.3423833 292.366114,33.6263461 284.78885,31.9040512 C283.241032,26.9394388 280.126226,22.4784589 275.960372,19.2809476 Z" id="Cloud" transform="translate(259.120662, 39.397422) scale(-1, 1) translate(-259.120662, -39.397422) "></path>
                    </g>
                    <g id="DOMAINS-TOP-IMG-EN" transform="translate(120.337079, 0.000000)">
                        <g id="domains">
                            <g id="Layer_1">
                                <ellipse id="Oval" fill="#F8F2EA" fill-rule="nonzero" cx="92.0918639" cy="208.209777" rx="54.6761336" ry="53.2097767"></ellipse>
                                <g id="flexible" transform="translate(63.707865, 179.000000)" fill-rule="nonzero" fill="#77A240">
                                    <path d="M30.64467,13.1561719 L31.8954729,14.3930769 L21.6047766,14.3930769 C21.1499392,14.3930769 20.7519565,14.7866376 20.7519565,15.2364213 C20.7519565,15.6862049 21.1499392,16.0797656 21.6047766,16.0797656 L31.8954729,16.0797656 L30.64467,17.3166707 C30.303542,17.6540084 30.303542,18.160015 30.64467,18.4973528 C30.815234,18.6660216 31.0426527,18.7222446 31.2700714,18.7222446 C31.4974901,18.7222446 31.7249088,18.6660216 31.8954729,18.4973528 L35.193044,15.2364213 L31.8954729,11.9754898 C31.5543448,11.638152 31.0426527,11.638152 30.7015247,11.9754898 C30.3603966,12.3128275 30.303542,12.8750571 30.64467,13.1561719 Z" id="Shape"></path>
                                    <path d="M53.1022668,11.9754898 C52.7611387,11.638152 52.2494466,11.638152 51.9083186,11.9754898 C51.5671905,12.3128275 51.5671905,12.8188341 51.9083186,13.1561719 L53.1591214,14.3930769 L48.6107474,14.3930769 C45.9385777,14.3930769 43.7781,12.2566046 43.7781,9.6141256 C43.7781,6.07207933 40.8785116,3.14848558 37.2398124,3.14848558 L35.6478814,3.14848558 C35.193044,3.14848558 34.7950613,3.54204627 34.7950613,3.99182993 C34.7950613,4.44161358 35.193044,4.83517428 35.6478814,4.83517428 L37.2398124,4.83517428 C39.9119821,4.83517428 42.0724598,6.97164663 42.0724598,9.6141256 C42.0724598,11.5257061 42.9252799,13.2123948 44.2329374,14.3930769 L42.9821346,14.3930769 C39.40029,14.3930769 36.4438469,17.2604477 36.4438469,20.8587169 C36.4438469,23.5011959 34.2833692,25.6376683 31.6111995,25.6376683 L29.8487046,25.6376683 C29.3938672,25.6376683 28.9958844,26.031229 28.9958844,26.4810126 C28.9958844,26.9307963 29.3938672,27.324357 29.8487046,27.324357 L31.6111995,27.324357 C35.193044,27.324357 38.1494872,24.4569862 38.1494872,20.8587169 C38.1494872,18.216238 40.3099648,16.0797656 42.9821346,16.0797656 L48.6107474,16.0797656 L53.1591214,16.0797656 L51.9083186,17.3166707 C51.5671905,17.6540084 51.5671905,18.160015 51.9083186,18.4973528 C52.0788826,18.6660216 52.3063013,18.7222446 52.53372,18.7222446 C52.7611387,18.7222446 52.9885574,18.6660216 53.1591214,18.4973528 L56.4566926,15.2364213 L53.1022668,11.9754898 Z" id="Shape"></path>
                                    <path d="M9.89271351,16.0797656 L12.8491566,16.0797656 C16.4310012,16.0797656 19.3874443,13.2123948 19.3874443,9.6141256 C19.3874443,6.97164663 21.547922,4.83517428 24.2200917,4.83517428 L27.7450816,4.83517428 L26.4942787,6.07207933 C26.1531507,6.40941707 26.1531507,6.91542368 26.4942787,7.25276142 C26.6648427,7.42143029 26.8922614,7.47765325 27.1196801,7.47765325 C27.3470988,7.47765325 27.5745175,7.42143029 27.7450816,7.25276142 L31.0426527,3.99182993 L27.7450816,0.730898438 C27.4039535,0.393560697 26.8922614,0.393560697 26.5511334,0.730898438 C26.2100053,1.06823618 26.2100053,1.57424279 26.5511334,1.91158053 L27.8019362,3.14848558 L24.2769464,3.14848558 C20.6951018,3.14848558 17.7386587,6.01585637 17.7386587,9.6141256 C17.7386587,12.2566046 15.578181,14.3930769 12.9060113,14.3930769 L9.94956819,14.3930769 C9.49473078,14.3930769 9.09674806,14.7866376 9.09674806,15.2364213 C9.09674806,15.6862049 9.43787611,16.0797656 9.89271351,16.0797656 Z" id="Shape"></path>
                                    <path d="M20.9793752,23.2200811 C20.6382472,23.5574189 20.6382472,24.0634255 20.9793752,24.4007632 L22.2301781,25.6376683 L12.8491566,25.6376683 C10.1769869,25.6376683 8.01650922,23.5011959 8.01650922,20.8587169 C8.01650922,17.3166707 5.11692078,14.3930769 1.47822156,14.3930769 L1.30765753,14.3930769 C0.85282013,14.3930769 0.454837403,14.7866376 0.454837403,15.2364213 C0.454837403,15.6862049 0.85282013,16.0797656 1.30765753,16.0797656 L1.47822156,16.0797656 C4.1503913,16.0797656 6.31086896,18.216238 6.31086896,20.8587169 C6.31086896,24.4007632 9.21045741,27.324357 12.8491566,27.324357 L22.2301781,27.324357 L20.9793752,28.561262 C20.6382472,28.8985998 20.6382472,29.4046064 20.9793752,29.7419441 C21.1499392,29.910613 21.3773579,29.9668359 21.6047766,29.9668359 C21.8321953,29.9668359 22.059614,29.910613 22.2301781,29.7419441 L25.5277492,26.4810126 L22.1733234,23.2200811 C21.8321953,22.8827434 21.3205033,22.8827434 20.9793752,23.2200811 Z" id="Shape"></path>
                                </g>
                                <ellipse id="Oval" fill="#F8F2EA" fill-rule="nonzero" cx="237.709841" cy="208.209777" rx="54.6761336" ry="53.2097767"></ellipse>
                                <g id="trusted" transform="translate(214.382022, 181.000000)" fill-rule="nonzero" fill="#77A240">
                                    <path d="M37.7662878,17.2620338 C37.7874014,17.2363871 37.7950488,17.2212622 37.7950488,17.2212622 L36.1945732,16.1987675 C36.3180959,16.0097059 36.8395348,15.3481545 38.3619567,14.7742291 C39.4293561,14.3718566 40.5768042,14.3527038 42.0294848,14.3283724 C42.5591529,14.3194947 43.1593937,14.3094662 43.805519,14.2788054 C44.3308647,14.2532409 44.7776579,14.6547914 44.8029277,15.1744644 C44.8282806,15.6942195 44.4227171,16.1358017 43.8972051,16.1607908 C43.2214875,16.1929312 42.6052869,16.2032885 42.0618201,16.2123306 C40.7462947,16.2342782 39.7958512,16.2502251 39.0407499,16.5348862 C38.0699409,16.900926 37.7692803,17.2584991 37.7662878,17.2620338 Z" id="Shape"></path>
                                    <path d="M15.5077562,15.9422191 C14.3886535,15.9422191 13.3146873,15.412682 12.5092126,14.4491253 C12.2087182,14.0895793 12.2195244,13.5667828 12.5343993,13.2196491 C13.7823447,11.8442668 13.9004644,10.0790064 13.9864149,8.79009915 C14.0472619,7.88087703 14.0951415,7.16285377 14.527388,6.66956728 C15.0597993,6.06218618 15.7873864,5.62323436 16.6300177,5.11506953 C17.1826281,4.78182783 17.8089699,4.40395114 18.5009798,3.91066464 C19.0938225,3.48807076 19.5878303,3.05511959 20.0656289,2.63655354 C20.9649509,1.84849527 21.7415814,1.16787334 22.7490482,0.982510728 C25.2370422,0.525145943 30.3728783,1.42302437 35.2528577,3.16806337 C36.0447,3.34183568 37.3805078,2.71415101 39.0646897,1.92190051 C39.6912808,1.62721094 40.4015781,1.29314723 41.1734705,0.957603911 C41.6546772,0.748320887 42.2171795,0.964755373 42.4290634,1.44110852 C42.6406979,1.91737947 42.4218316,2.47330292 41.9401261,2.68275034 C41.1943347,3.00678556 40.4976698,3.33451982 39.8830486,3.62361974 C37.7428467,4.63024971 36.1963188,5.35772605 34.7376532,4.98330178 C34.7087259,4.97590372 34.6800481,4.96710824 34.6520352,4.95699755 C29.5151185,3.11348209 24.9507621,2.4940175 23.0975885,2.83506827 C22.6097318,2.92483145 22.0447358,3.42000856 21.3292848,4.04687123 C20.8401813,4.47538356 20.2857421,4.96118979 19.6151782,5.43918696 C18.8637344,5.97488902 18.204226,6.37265829 17.6222727,6.72373755 C16.9129728,7.15151007 16.3474781,7.49264305 16.0048396,7.86197086 C15.946237,8.03886681 15.9125716,8.54177079 15.8876344,8.91430443 C15.8017669,10.2003346 15.6775792,12.0594682 14.5284686,13.7475421 C14.836943,13.9518109 15.2352747,14.1028136 15.7065896,14.0458485 C16.7931907,13.9136698 17.9396413,12.7267736 18.9432012,10.6987176 C19.064064,10.2706984 19.5066179,10.0790886 20.039611,9.84818677 C20.3406042,9.71781643 20.7592182,9.54108489 21.2834833,9.32292419 C22.1826391,8.94866433 23.0824598,8.58188474 23.0824598,8.58188474 C23.5688202,8.38386321 24.1259194,8.61295661 24.3263322,9.0938308 C24.526828,9.57486939 24.2950774,10.125532 23.8085508,10.3238823 C22.5413205,10.8405138 21.1420057,11.4224949 20.5824959,11.6706588 C18.9436168,14.9028732 17.1611821,15.7671315 15.9392546,15.9158326 C15.7949507,15.9335058 15.6509794,15.9422191 15.5077562,15.9422191 Z" id="Shape"></path>
                                    <path d="M34.248716,21.3805362 C33.4429919,21.3805362 32.5234707,21.2515633 31.4850817,20.9517773 C28.647633,20.1324006 26.8373516,18.9287355 26.7616254,18.8779354 C26.3264695,18.5855475 26.2132542,17.9995386 26.5089274,17.5692178 C26.8043513,17.1391437 27.3957808,17.0269397 27.8312691,17.3185879 C27.8577026,17.3361788 29.495418,18.4144056 32.0190723,19.1430327 C34.6609295,19.9061842 36.303466,19.2943643 36.7113571,18.4034729 C36.7671335,18.2817336 36.9064498,17.8985139 36.6186734,17.611469 C30.7260735,16.8186431 28.801413,14.6644089 27.2507289,12.9287408 C26.1731883,11.7224453 25.3219121,10.769739 23.2654996,10.3782992 C22.7488819,10.2798227 22.4106491,9.78587863 22.5100658,9.27500118 C22.6096487,8.76412372 23.1091428,8.43071762 23.6257604,8.52796107 C26.3199858,9.04089354 27.5191373,10.3832312 28.6788047,11.6811805 C30.180778,13.3623496 31.7338728,15.1007303 37.1148425,15.7755982 C37.2539926,15.7930248 37.3875734,15.840619 37.5058593,15.9150106 C38.6198914,16.6150319 39.0070845,17.9577806 38.4474085,19.1805163 C37.9245565,20.322202 36.5550833,21.3805362 34.248716,21.3805362 Z" id="Shape"></path>
                                    <path d="M31.8775116,25.2163505 C31.4059474,25.2163505 30.8946497,25.1549465 30.3443667,25.0173425 C27.1246293,24.2120221 24.619096,22.4182381 24.5139438,22.3422846 C24.0891785,22.0352649 23.996578,21.4457214 24.3071304,21.0256758 C24.6175998,20.6058767 25.2129362,20.5143051 25.6377014,20.820585 L25.6377014,20.820585 C25.6606437,20.8370251 27.9618574,22.4778336 30.8116085,23.190596 C32.3886431,23.5848306 33.375495,23.0795428 33.7731617,22.4749566 C34.0576963,22.0424164 34.0562832,21.5684471 33.7695874,21.2071749 C33.4447375,20.7978154 33.5169726,20.2055592 33.9308486,19.8843188 C34.345057,19.5632428 34.9438846,19.6345108 35.2685682,20.0437882 C36.0579168,21.0385813 36.0979827,22.3960439 35.3705618,23.5021367 C34.7770541,24.404865 33.5919507,25.2163505 31.8775116,25.2163505 Z" id="Shape"></path>
                                    <path d="M28.4662558,28.0934577 C28.1685045,28.0934577 27.8664307,28.0636189 27.5643569,28.0026259 C25.6106029,27.6081447 23.2477941,26.3094556 23.1482112,26.2542989 C22.6889493,26.0002987 22.5248619,25.4262089 22.7816329,24.9722143 C23.0384871,24.5181376 23.6185286,24.3558734 24.0778736,24.609627 L24.0778736,24.609627 C24.0997353,24.6216283 26.2844086,25.8211833 27.9454819,26.1564801 C28.7562765,26.3202239 29.5541038,26.0940897 30.0785351,25.5518116 C30.4062112,25.2128158 30.5688023,24.800497 30.4927436,24.5010398 C30.3644827,23.9964096 30.674204,23.4845458 31.1846704,23.3577923 C31.6940562,23.2309566 32.2125857,23.5372364 32.3407635,24.042031 C32.5797459,24.9824072 32.2489111,26.0336722 31.4557388,26.8539531 C30.6790252,27.6572185 29.6041446,28.0934577 28.4662558,28.0934577 Z" id="Shape"></path>
                                    <path d="M24.1502749,29.6599568 C22.6714101,29.6599568 20.960961,29.1398728 19.4932348,28.1800973 C19.0544216,27.8931346 18.9338913,27.3086053 19.2241614,26.8745033 C19.5145147,26.4405657 20.1053623,26.3213747 20.544425,26.6084196 C22.117719,27.6371616 24.1949126,28.0632079 25.2738663,27.578388 C25.6605606,27.4046157 25.8583965,27.1395184 25.9153367,26.7188974 C25.9852442,26.2030879 26.4654534,25.8402539 26.986061,25.9102067 C27.5074999,25.9793375 27.8736625,26.453389 27.8038381,26.9690341 C27.6604486,28.0277794 27.0419206,28.8533211 26.0624667,29.2937526 C25.5128487,29.5407657 24.8579122,29.6599568 24.1502749,29.6599568 Z" id="Shape"></path>
                                    <path d="M5.6728192,18.301133 C5.42037064,18.301133 5.1683377,18.2025744 4.98089236,18.0069367 C3.81050194,16.7848586 2.59281378,15.9771544 0.637480408,15.1262948 C0.155858099,14.9166007 -0.0627588614,14.3606773 0.149291278,13.8844063 C0.361341418,13.4080532 0.923594316,13.1918653 1.4051335,13.4016415 C3.58473629,14.3502378 5.02145703,15.3091913 6.36441354,16.7112068 C6.72608745,17.0890013 6.70987821,17.6853674 6.32775571,18.0431872 C6.14363535,18.2155621 5.9079779,18.301133 5.6728192,18.301133 Z" id="Shape"></path>
                                    <path d="M11.9038182,5.04043128 C10.1511419,5.04051348 8.17527684,3.98357667 5.85669019,2.6321147 C5.40341328,2.3679216 5.25245951,1.79046157 5.5197042,1.34213886 C5.78686577,0.893898356 6.37106348,0.744704056 6.82417415,1.00889716 C9.05315278,2.30791508 11.1596893,3.44532638 12.4368945,3.08726007 C14.9009487,2.39850026 19.3352986,1.37255313 21.3490684,2.2421545 C21.8312726,2.45036892 22.051552,3.00579916 21.8409981,3.48256331 C21.6303611,3.95932746 21.0685238,4.17732376 20.5866521,3.96902715 C19.8071123,3.63241521 17.34098,3.67441978 12.9552577,4.90060786 C12.6135336,4.99596069 12.2632478,5.04043128 11.9038182,5.04043128 Z" id="Shape"></path>
                                    <path d="M18.371389,29.0502741 C18.2598362,29.0502741 18.1464546,29.0452598 18.0316599,29.0350669 C16.5414903,28.9028882 15.3981152,27.9553605 15.2511514,26.7310631 C15.1892238,26.2144316 15.562452,25.7458875 16.0850546,25.6844835 C16.6076572,25.6248058 17.0814658,25.9923252 17.1433934,26.5091211 C17.179885,26.8132638 17.6645829,27.1107482 18.2019817,27.1583424 C18.5102898,27.1853864 19.2520081,27.1675489 19.4862524,26.4113023 C19.6901564,25.7527923 19.606367,25.1551109 19.2727891,24.8886984 C18.9859271,24.6595228 18.5148616,24.6980749 17.9798735,24.9935043 C17.520861,25.2470113 16.9401545,25.0846649 16.6834666,24.6304238 C16.4268618,24.1762648 16.5911986,23.6022572 17.0506267,23.3484214 C18.2814485,22.6686215 19.5597343,22.6961587 20.4697794,23.4225664 C21.4267065,24.1865399 21.7478989,25.5431805 21.3082544,26.9628691 C20.9074289,28.256955 19.7742782,29.0502741 18.371389,29.0502741 Z" id="Shape"></path>
                                    <path d="M6.81910357,22.0655148 C5.81737239,22.0655148 4.81913244,21.4568185 4.26976381,20.508551 C3.7358563,19.587081 3.73610567,18.5118957 4.27051193,17.6324302 C4.98712669,16.4531787 6.00631397,15.7328538 7.29989463,15.4915947 C8.58325101,15.2522263 9.84524443,15.6949593 10.5948595,16.6465148 C11.2408186,17.4666313 11.3646739,18.5150193 10.9264425,19.4512032 L10.0618664,19.0552424 L10.9264425,19.4512032 C10.1461545,21.1169185 8.69696507,22.0453756 6.84562023,22.0654326 C6.83672592,22.0655148 6.82791475,22.0655148 6.81910357,22.0655148 Z M7.98118156,17.3120118 C7.87702678,17.3120118 7.76746893,17.3217115 7.65308987,17.3430837 C6.89599356,17.4843867 6.34022436,17.884622 5.90373856,18.6028918 C5.67431544,18.9803575 5.78769701,19.3381772 5.92294028,19.5717917 C6.12825735,19.9260768 6.50389615,20.1812278 6.8185217,20.1812278 C6.82059981,20.1812278 6.82259479,20.1812278 6.82475602,20.1812278 C7.94726684,20.1692265 8.72331548,19.6713368 9.19720723,18.6592815 C9.37226705,18.2857615 9.23627566,17.9883593 9.09155622,17.8044763 C8.89879092,17.5595182 8.50760787,17.3120118 7.98118156,17.3120118 Z" id="Shape"></path>
                                    <path d="M14.2335435,28.1634927 C13.5604859,28.1634927 12.8666472,27.9856104 12.278127,27.6245026 C11.0793081,26.888724 10.6053332,25.60442 11.010398,24.1890059 C11.1536212,23.6884035 11.6802969,23.3971664 12.186524,23.5390448 C12.6928342,23.6806767 12.9870112,24.2014182 12.843788,24.7021028 C12.6714713,25.304223 12.8151101,25.7363522 13.2828507,26.0234793 C13.8743633,26.3865599 14.7017828,26.3378148 15.018819,26.054058 C15.8275355,25.3301163 16.3285257,24.3419814 16.5080743,23.1167798 C16.5813068,22.6171638 16.3396644,22.0601718 15.9333527,21.792444 C15.6363495,21.5963953 15.321059,21.6021494 14.9695262,21.8101172 C14.5178287,22.0769407 13.9327997,21.9315276 13.6629782,21.484849 C13.3929904,21.0382525 13.5403698,20.459806 13.9919011,20.1928181 C14.9804987,19.608371 16.0731678,19.6202079 16.9903616,20.2246298 C18.0087176,20.895963 18.5727161,22.1668683 18.3939157,23.3871379 C18.1490315,25.0577853 17.4437216,26.4250298 16.2976035,27.4509769 C15.7700966,27.92322 15.0158265,28.1634927 14.2335435,28.1634927 Z" id="Shape"></path>
                                    <path d="M10.6585328,25.7532033 C9.9435805,25.7532033 9.18997541,25.4991209 8.51400845,24.8951923 C7.92873011,24.3721491 7.55633316,23.6764022 7.46539515,22.9361026 C7.36265349,22.1004501 7.6159333,21.2636468 8.19772041,20.5163601 C9.04492348,19.428187 9.80393164,18.6131669 10.968919,17.9123236 L10.968919,17.9123236 C12.1508637,17.2013696 13.5917406,17.3642093 14.5551515,18.3167512 C15.5730088,19.3232989 15.7074208,20.824284 14.8977068,22.1407285 L14.8144994,22.2763596 C14.3751042,22.9942185 13.7732842,23.9774213 12.7584193,24.9261819 C12.2173631,25.4321273 11.4624281,25.7532033 10.6585328,25.7532033 Z M11.959179,19.5221425 C11.0426503,20.0735449 10.4395833,20.7257253 9.70759055,21.6658549 C8.95930543,22.6269457 9.58257158,23.3106091 9.79137987,23.4971225 C10.1184741,23.7894282 10.8356707,24.1306434 11.4493775,23.557129 C12.276797,22.7835381 12.7800317,21.9613665 13.1844315,21.3007193 L13.2695508,21.1618001 C13.7845891,20.3244214 13.3525088,19.7924184 13.2077063,19.649307 C12.9407941,19.3852783 12.4726379,19.2133144 11.959179,19.5221425 L11.959179,19.5221425 Z" id="Shape"></path>
                                </g>
                                <path d="M91.9063362,299.288084 C41.1447743,299.284079 -0.00269880905,258.563324 0,208.334859 C0.00269880905,158.106394 41.1545476,117.389969 91.9161097,117.391304 C142.677672,117.39264 183.827333,158.111229 183.827333,208.339694 C183.770769,258.548733 142.64827,299.236119 91.9063362,299.288084 L91.9063362,299.288084 Z M91.9063362,155.673911 C62.5070704,155.673911 38.6742566,179.256432 38.6742566,208.346947 C38.6742566,237.437462 62.5070704,261.019984 91.9063362,261.019984 C121.305602,261.019984 145.138416,237.437462 145.138416,208.346947 C145.110136,179.266857 121.295063,155.698644 91.9063362,155.666657 L91.9063362,155.673911 Z" id="Shape" fill="#65C9D5" fill-rule="nonzero"></path>
                                <path d="M237.004043,299.288085 C186.241526,299.288085 145.090376,258.569103 145.090376,208.339694 C145.090376,158.110286 186.241526,117.391304 237.004043,117.391304 C287.766559,117.391304 328.917709,158.110286 328.917709,208.339694 C328.861153,258.545905 287.743114,299.232122 237.004043,299.288085 L237.004043,299.288085 Z M237.004043,155.673911 C207.604777,155.673911 183.771963,179.256433 183.771963,208.346948 C183.771963,237.437463 207.604777,261.019985 237.004043,261.019985 C266.403309,261.019985 290.236122,237.437463 290.236122,208.346948 C290.207843,179.266857 266.39277,155.698644 237.004043,155.666658 L237.004043,155.673911 Z" id="Shape" fill="#6E7F89" fill-rule="nonzero"></path>
                                <ellipse id="Oval" fill="#F8F2EA" fill-rule="nonzero" cx="162.254977" cy="87.4844526" rx="53.0414939" ry="52.4844526"></ellipse>
                                <g id="simple" transform="translate(147.640449, 58.000000)" fill-rule="nonzero" fill="#77A240">
                                    <path d="M4.20362047,0.326381238 C3.9245459,0.329223807 3.65821312,0.442325381 3.46395815,0.640488168 C3.26970319,0.838650956 3.16366384,1.1054125 3.16946452,1.38134127 L3.16946452,16.3445498 C1.56860189,16.7991162 0.382686361,18.2611003 0.382686361,19.9830855 C0.382686361,21.704834 1.56893631,23.1668391 3.16946452,23.6216211 L3.16946452,28.2505273 C3.1641345,28.6232194 3.36214441,28.9698788 3.68767238,29.157763 C4.01320034,29.3456472 4.41581231,29.3456472 4.74134027,29.157763 C5.06686824,28.9698788 5.26487815,28.6232194 5.25954813,28.2505273 L5.25954813,23.6216211 C6.86007634,23.1668391 8.04632629,21.704834 8.04632629,19.9830855 C8.04632629,18.2611003 6.8604111,16.7991162 5.25954813,16.3445498 L5.25954813,1.38134127 C5.26542799,1.10167863 5.15642596,0.831602039 4.95743782,0.632796242 C4.75844967,0.433990445 4.48647081,0.323435278 4.20362047,0.326381238 Z M15.3507331,0.326381238 C15.0716585,0.329223807 14.8053257,0.442325381 14.6110708,0.640488168 C14.4168158,0.838650956 14.3107765,1.1054125 14.3165771,1.38134127 L14.3165771,6.01024752 C12.7157145,6.46481386 11.529799,7.92679797 11.529799,9.64878313 C11.529799,11.3705316 12.7160489,12.8325368 14.3165771,13.2873187 L14.3165771,28.2505273 C14.3112471,28.6232194 14.509257,28.9698788 14.834785,29.157763 C15.160313,29.3456472 15.5629249,29.3456472 15.8884529,29.157763 C16.2139809,28.9698788 16.4119908,28.6232194 16.4066608,28.2505273 L16.4066608,13.2873187 C18.007189,12.8325368 19.1934389,11.3705316 19.1934389,9.64878313 C19.1934389,7.92679797 18.0075237,6.46481386 16.4066608,6.01024752 L16.4066608,1.38134127 C16.4125406,1.10167863 16.3035386,0.831602039 16.1045504,0.632796242 C15.9055623,0.433990445 15.6335834,0.323435278 15.3507331,0.326381238 Z M26.4978457,0.326381238 C26.2187711,0.329223807 25.9524384,0.442325381 25.7581834,0.640488168 C25.5639284,0.838650956 25.4578891,1.1054125 25.4636898,1.38134127 L25.4636898,16.3445498 C23.8628324,16.799109 22.6769116,18.2610717 22.6769116,19.9830855 C22.6769116,21.704834 23.8631616,23.1668391 25.4636898,23.6216211 L25.4636898,28.2505273 C25.4583597,28.6232194 25.6563697,28.9698788 25.9818976,29.157763 C26.3074256,29.3456472 26.7100375,29.3456472 27.0355655,29.157763 C27.3610935,28.9698788 27.5591034,28.6232194 27.5537734,28.2505273 L27.5537734,23.6216211 C29.1543016,23.1668391 30.3405515,21.704834 30.3405515,19.9830855 C30.3405515,18.2610717 29.1546311,16.799109 27.5537734,16.3445498 L27.5537734,1.38134127 C27.5596532,1.10167863 27.4506512,0.831602039 27.2516631,0.632796242 C27.0526749,0.433990445 26.7806961,0.323435278 26.4978457,0.326381238 Z M15.3616189,7.92639941 C16.3359212,7.92639941 17.1033553,8.68528167 17.1033553,9.64878313 C17.1033553,10.6122846 16.3359212,11.3711668 15.3616189,11.3711668 C14.3873171,11.3711668 13.6198826,10.6122846 13.6198826,9.64878313 C13.6198826,8.68528167 14.3873171,7.92639941 15.3616189,7.92639941 Z M4.21450632,18.2607017 C5.18880856,18.2607017 5.95624267,19.019584 5.95624267,19.9830855 C5.95624267,20.9465869 5.18880856,21.7054692 4.21450632,21.7054692 C3.24020444,21.7054692 2.47276998,20.9465869 2.47276998,19.9830855 C2.47276998,19.019584 3.24020444,18.2607017 4.21450632,18.2607017 Z M26.5087316,18.2607017 C27.4830495,18.2607017 28.2504679,19.0195496 28.2504679,19.9830855 C28.2504679,20.9465869 27.4830338,21.7054692 26.5087316,21.7054692 C25.5344297,21.7054692 24.7669952,20.9465869 24.7669952,19.9830855 C24.7669952,19.0195496 25.534414,18.2607017 26.5087316,18.2607017 Z" id="Shape" transform="translate(15.361619, 14.812500) rotate(-270.000000) translate(-15.361619, -14.812500) "></path>
                                </g>
                                <path d="M162.517799,176.036161 C113.392734,176.02815 73.5748062,136.617566 73.5802036,88.0084114 C73.585601,39.3992565 113.412279,-0.00266869756 162.537346,1.32820617e-06 C211.662412,0.00267135397 251.484715,39.4089256 251.484716,88.0180807 C251.428148,136.611583 211.627055,175.988196 162.517799,176.036161 Z M162.517799,38.2753533 C134.754075,38.2753533 112.24713,60.545931 112.24713,88.0180807 C112.24713,115.490231 134.754075,137.760808 162.517799,137.760808 C190.281523,137.760808 212.788469,115.490231 212.788469,88.0180807 C212.756154,60.5591865 190.268127,38.3073287 162.517799,38.2753533 L162.517799,38.2753533 Z" id="Shape" fill="#F98D1B" fill-rule="nonzero"></path>
                                <path d="M134.428384,129.209237 L115.978213,163.045607" id="Shape" stroke="#65C9D5"></path>
                                <path d="M183.819427,205.302989 L144.434139,205.448054" id="Shape" stroke="#65C9D5"></path>
                                <path d="M192.256514,128.193783 L211.769568,161.319335" id="Shape"></path>
                                <path d="M193.792041,126.421405 C196.328586,130.936455 209.032119,152.920142 214.59171,160.535117 C213.007715,161.406722 185.026299,176.435083 184.15317,206.688963 C184.112336,206.764205 144.075758,206.688963 144.075758,206.688963 C143.913495,204.922816 142.526148,178.046529 114.493289,163.015159 C114.467382,162.984084 133.408515,127.73808 133.408515,127.73808 C135.239768,128.288568 168.788091,144.159338 193.792041,126.421405 Z" id="Shape" fill="#FFFFFF" fill-rule="nonzero"></path>
                                <path d="M137.007125,153.778626 L140.18719,164.608016 L143.389649,164.608016 L144.486996,160.798905 C144.778128,159.78019 145.002077,158.78362 145.20363,157.432715 L145.24842,157.432715 C145.472368,158.761474 145.673921,159.735898 145.942659,160.798905 L146.972821,164.608016 L150.17528,164.608016 L153.534504,153.778626 L150.197675,153.778626 L149.257093,158.074948 C149.01075,159.315124 148.786802,160.533153 148.630038,161.773329 L148.585248,161.773329 C148.3613,160.533153 148.070167,159.315124 147.779035,158.097094 L146.681688,153.778626 L143.99431,153.778626 L142.829779,158.22997 C142.561041,159.292978 142.247514,160.533153 142.023565,161.773329 L141.978776,161.773329 C141.799617,160.533153 141.575669,159.33727 141.351721,158.207824 L140.478323,153.778626 L137.007125,153.778626 Z" id="w" fill="#77A240"></path>
                                <path d="M154.736359,153.778626 L157.916424,164.608016 L161.118883,164.608016 L162.21623,160.798905 C162.507362,159.78019 162.731311,158.78362 162.932864,157.432715 L162.977654,157.432715 C163.201602,158.761474 163.403155,159.735898 163.671893,160.798905 L164.702055,164.608016 L167.904515,164.608016 L171.263738,153.778626 L167.926909,153.778626 L166.986327,158.074948 C166.739984,159.315124 166.516036,160.533153 166.359272,161.773329 L166.314482,161.773329 C166.090534,160.533153 165.799401,159.315124 165.508269,158.097094 L164.410922,153.778626 L161.723544,153.778626 L160.559013,158.22997 C160.290275,159.292978 159.976748,160.533153 159.752799,161.773329 L159.70801,161.773329 C159.528851,160.533153 159.304903,159.33727 159.080955,158.207824 L158.207557,153.778626 L154.736359,153.778626 Z" id="w" fill="#77A240"></path>
                                <path d="M172.465593,153.778626 L175.645658,164.608016 L178.848118,164.608016 L179.945464,160.798905 C180.236596,159.78019 180.460545,158.78362 180.662098,157.432715 L180.706888,157.432715 C180.930836,158.761474 181.132389,159.735898 181.401127,160.798905 L182.431289,164.608016 L185.633749,164.608016 L188.992972,153.778626 L185.656143,153.778626 L184.715561,158.074948 C184.469218,159.315124 184.24527,160.533153 184.088506,161.773329 L184.043716,161.773329 C183.819768,160.533153 183.528635,159.315124 183.237503,158.097094 L182.140156,153.778626 L179.452778,153.778626 L178.288247,158.22997 C178.019509,159.292978 177.705982,160.533153 177.482033,161.773329 L177.437244,161.773329 C177.258085,160.533153 177.034137,159.33727 176.810189,158.207824 L175.936791,153.778626 L172.465593,153.778626 Z" id="w" fill="#77A240"></path>
                            </g>
                        </g>
                    </g>
                </g>
                <path d="M336.019531,223.015625 C335.335934,223.015625 334.806643,223.272458 334.431641,223.786133 C334.056639,224.299807 333.869141,225.01562 333.869141,225.933594 C333.869141,227.84376 334.58593,228.798828 336.019531,228.798828 C336.621097,228.798828 337.349605,228.648439 338.205078,228.347656 L338.205078,229.871094 C337.50195,230.164064 336.716801,230.310547 335.849609,230.310547 C334.603509,230.310547 333.650394,229.932621 332.990234,229.176758 C332.330075,228.420895 332,227.335945 332,225.921875 C332,225.031246 332.162108,224.25098 332.486328,223.581055 C332.810548,222.911129 333.276364,222.397463 333.883789,222.040039 C334.491214,221.682615 335.203121,221.503906 336.019531,221.503906 C336.851567,221.503906 337.687496,221.705076 338.527344,222.107422 L337.941406,223.583984 C337.621092,223.43164 337.29883,223.298829 336.974609,223.185547 C336.650389,223.072265 336.332033,223.015625 336.019531,223.015625 Z M340.849008,226.90625 C340.849008,227.554691 340.955453,228.04492 341.168344,228.376953 C341.381236,228.708986 341.727912,228.875 342.208383,228.875 C342.684948,228.875 343.027718,228.709963 343.236704,228.379883 C343.445689,228.049803 343.55018,227.558597 343.55018,226.90625 C343.55018,226.257809 343.444713,225.771486 343.233774,225.447266 C343.022835,225.123045 342.677136,224.960938 342.196665,224.960938 C341.7201,224.960938 341.376353,225.122069 341.165415,225.444336 C340.954476,225.766603 340.849008,226.253903 340.849008,226.90625 Z M345.378305,226.90625 C345.378305,227.972662 345.097058,228.806638 344.534555,229.408203 C343.972052,230.009769 343.188857,230.310547 342.184946,230.310547 C341.556036,230.310547 341.001355,230.172853 340.520883,229.897461 C340.040412,229.622069 339.671275,229.226565 339.413461,228.710938 C339.155648,228.19531 339.026743,227.593753 339.026743,226.90625 C339.026743,225.835932 339.306037,225.003909 339.864633,224.410156 C340.42323,223.816403 341.208378,223.519531 342.220102,223.519531 C342.849012,223.519531 343.403693,223.656249 343.884165,223.929688 C344.364636,224.203126 344.733773,224.595701 344.991586,225.107422 C345.2494,225.619143 345.378305,226.218747 345.378305,226.90625 Z M352.440204,230.193359 L350.653095,230.193359 L350.653095,226.367188 C350.653095,225.894529 350.569111,225.54004 350.401142,225.303711 C350.233172,225.067382 349.965597,224.949219 349.598407,224.949219 C349.098405,224.949219 348.73708,225.116209 348.514423,225.450195 C348.291766,225.784181 348.180439,226.337887 348.180439,227.111328 L348.180439,230.193359 L346.393329,230.193359 L346.393329,223.642578 L347.758564,223.642578 L347.998798,224.480469 L348.098407,224.480469 C348.297627,224.164061 348.572038,223.924805 348.92165,223.762695 C349.271261,223.600585 349.668718,223.519531 350.114032,223.519531 C350.875755,223.519531 351.453874,223.725584 351.848407,224.137695 C352.242941,224.549807 352.440204,225.144527 352.440204,225.921875 L352.440204,230.193359 Z M357.439603,224.984375 L355.892728,224.984375 L355.892728,230.193359 L354.105619,230.193359 L354.105619,224.984375 L353.121244,224.984375 L353.121244,224.123047 L354.105619,223.642578 L354.105619,223.162109 C354.105619,222.416012 354.289211,221.871095 354.6564,221.527344 C355.023589,221.183592 355.611474,221.011719 356.420072,221.011719 C357.037263,221.011719 357.586085,221.103515 358.066556,221.287109 L357.609525,222.599609 C357.250148,222.486328 356.91812,222.429688 356.613431,222.429688 C356.359524,222.429688 356.175932,222.504882 356.06265,222.655273 C355.949368,222.805665 355.892728,222.998046 355.892728,223.232422 L355.892728,223.642578 L357.439603,223.642578 L357.439603,224.984375 Z M358.388822,221.949219 C358.388822,221.367185 358.713038,221.076172 359.361478,221.076172 C360.009919,221.076172 360.334135,221.367185 360.334135,221.949219 C360.334135,222.226564 360.253081,222.442382 360.09097,222.59668 C359.92886,222.750977 359.685699,222.828125 359.361478,222.828125 C358.713038,222.828125 358.388822,222.535159 358.388822,221.949219 Z M360.252103,230.193359 L358.464994,230.193359 L358.464994,223.642578 L360.252103,223.642578 L360.252103,230.193359 Z M365.819862,230.193359 L365.474158,229.302734 L365.427283,229.302734 C365.126501,229.681643 364.816934,229.944335 364.498573,230.09082 C364.180212,230.237305 363.765177,230.310547 363.253455,230.310547 C362.624546,230.310547 362.129434,230.130861 361.768104,229.771484 C361.406774,229.412108 361.226112,228.900394 361.226112,228.236328 C361.226112,227.541012 361.469273,227.028322 361.955604,226.698242 C362.441934,226.368162 363.175325,226.185547 364.155799,226.150391 L365.292518,226.115234 L365.292518,225.828125 C365.292518,225.164059 364.952678,224.832031 364.272987,224.832031 C363.749547,224.832031 363.134318,224.990233 362.427283,225.306641 L361.835487,224.099609 C362.589397,223.705076 363.425326,223.507812 364.343299,223.507812 C365.22221,223.507812 365.896031,223.699217 366.364783,224.082031 C366.833536,224.464846 367.067908,225.046871 367.067908,225.828125 L367.067908,230.193359 L365.819862,230.193359 Z M365.292518,227.158203 L364.601112,227.181641 C364.081578,227.197266 363.694863,227.291015 363.440955,227.462891 C363.187048,227.634766 363.060096,227.896483 363.060096,228.248047 C363.060096,228.751956 363.349156,229.003906 363.927283,229.003906 C364.341348,229.003906 364.672399,228.884767 364.920448,228.646484 C365.168496,228.408202 365.292518,228.091799 365.292518,227.697266 L365.292518,227.158203 Z M363.30619,222.921875 L363.30619,222.763672 C363.978068,221.982418 364.437048,221.394533 364.683143,221 L366.687049,221 L366.687049,221.123047 C366.483923,221.326173 366.137247,221.627928 365.64701,222.02832 C365.156773,222.428713 364.772988,222.726562 364.495643,222.921875 L363.30619,222.921875 Z M370.004807,230.193359 L367.508714,223.642578 L369.377854,223.642578 L370.643479,227.375 C370.784105,227.847659 370.871995,228.29492 370.907151,228.716797 L370.942307,228.716797 C370.961839,228.341795 371.049729,227.894534 371.205979,227.375 L372.465745,223.642578 L374.334886,223.642578 L371.838792,230.193359 L370.004807,230.193359 Z M377.523738,224.791016 C377.14483,224.791016 376.847958,224.911132 376.633113,225.151367 C376.418268,225.391603 376.295222,225.73242 376.263972,226.173828 L378.771785,226.173828 C378.763972,225.73242 378.648739,225.391603 378.426082,225.151367 C378.203424,224.911132 377.902646,224.791016 377.523738,224.791016 Z M377.775691,230.310547 C376.720998,230.310547 375.896788,230.019534 375.303035,229.4375 C374.709282,228.855466 374.41241,228.031255 374.41241,226.964844 C374.41241,225.867182 374.686821,225.018558 375.235652,224.418945 C375.784483,223.819333 376.543264,223.519531 377.512019,223.519531 C378.437805,223.519531 379.158501,223.7832 379.674128,224.310547 C380.189756,224.837893 380.447566,225.566402 380.447566,226.496094 L380.447566,227.363281 L376.222957,227.363281 C376.242488,227.871096 376.392877,228.267577 376.674128,228.552734 C376.95538,228.837892 377.349907,228.980469 377.857722,228.980469 C378.252255,228.980469 378.625298,228.939454 378.976863,228.857422 C379.328427,228.77539 379.695611,228.644532 380.078425,228.464844 L380.078425,229.847656 C379.765924,230.003907 379.431943,230.120117 379.076472,230.196289 C378.721002,230.272461 378.287412,230.310547 377.775691,230.310547 Z M383.226262,230.193359 L381.439152,230.193359 L381.439152,221.076172 L383.226262,221.076172 L383.226262,230.193359 Z" id="Confiável" fill="#4E4E4E"></path>
                <path d="M269.134766,104.621094 C269.134766,105.394535 268.856448,106.003904 268.299805,106.449219 C267.743161,106.894533 266.968755,107.117188 265.976562,107.117188 C265.062495,107.117188 264.25391,106.945314 263.550781,106.601562 L263.550781,104.914062 C264.128909,105.171876 264.618162,105.353515 265.018555,105.458984 C265.418947,105.564454 265.785155,105.617188 266.117188,105.617188 C266.515627,105.617188 266.821288,105.541016 267.03418,105.388672 C267.247071,105.236327 267.353516,105.009767 267.353516,104.708984 C267.353516,104.541015 267.306641,104.391602 267.212891,104.260742 C267.11914,104.129882 266.981446,104.003907 266.799805,103.882812 C266.618163,103.761718 266.24805,103.568361 265.689453,103.302734 C265.166013,103.056639 264.773439,102.820314 264.511719,102.59375 C264.249999,102.367186 264.041016,102.103517 263.884766,101.802734 C263.728515,101.501952 263.650391,101.150393 263.650391,100.748047 C263.650391,99.9902306 263.907224,99.3945334 264.420898,98.9609375 C264.934573,98.5273416 265.644527,98.3105469 266.550781,98.3105469 C266.996096,98.3105469 267.420896,98.3632807 267.825195,98.46875 C268.229494,98.5742193 268.652342,98.7226553 269.09375,98.9140625 L268.507812,100.326172 C268.050779,100.138671 267.672853,100.007813 267.374023,99.9335938 C267.075194,99.8593746 266.781251,99.8222656 266.492188,99.8222656 C266.148436,99.8222656 265.884767,99.9023429 265.701172,100.0625 C265.517577,100.222657 265.425781,100.431639 265.425781,100.689453 C265.425781,100.84961 265.46289,100.989257 265.537109,101.108398 C265.611328,101.22754 265.729491,101.342773 265.891602,101.454102 C266.053712,101.56543 266.437497,101.765624 267.042969,102.054688 C267.843754,102.437502 268.392577,102.821287 268.689453,103.206055 C268.98633,103.590822 269.134766,104.062497 269.134766,104.621094 Z M270.009165,98.7558594 C270.009165,98.1738252 270.33338,97.8828125 270.981821,97.8828125 C271.630262,97.8828125 271.954477,98.1738252 271.954477,98.7558594 C271.954477,99.0332045 271.873423,99.2490227 271.711313,99.4033203 C271.549203,99.557618 271.306041,99.6347656 270.981821,99.6347656 C270.33338,99.6347656 270.009165,99.3417998 270.009165,98.7558594 Z M271.872446,107 L270.085336,107 L270.085336,100.449219 L271.872446,100.449219 L271.872446,107 Z M279.151142,107 L277.364032,107 L277.364032,103.173828 C277.364032,102.70117 277.284932,102.346681 277.126728,102.110352 C276.968524,101.874022 276.719503,101.755859 276.379657,101.755859 C275.922624,101.755859 275.590596,101.923826 275.383564,102.259766 C275.176531,102.595705 275.073017,103.148434 275.073017,103.917969 L275.073017,107 L273.285907,107 L273.285907,100.449219 L274.651142,100.449219 L274.891376,101.287109 L274.990986,101.287109 C275.166768,100.986327 275.420671,100.750977 275.752704,100.581055 C276.084737,100.411132 276.465593,100.326172 276.895282,100.326172 C277.875756,100.326172 278.539812,100.646481 278.88747,101.287109 L279.045673,101.287109 C279.221455,100.98242 279.480242,100.746095 279.82204,100.578125 C280.163839,100.410155 280.549577,100.326172 280.979267,100.326172 C281.721458,100.326172 282.282976,100.5166 282.663837,100.897461 C283.044698,101.278322 283.235126,101.888668 283.235126,102.728516 L283.235126,107 L281.442157,107 L281.442157,103.173828 C281.442157,102.70117 281.363057,102.346681 281.204853,102.110352 C281.046649,101.874022 280.797628,101.755859 280.457782,101.755859 C280.02028,101.755859 279.693135,101.912108 279.476337,102.224609 C279.259539,102.537111 279.151142,103.0332 279.151142,103.712891 L279.151142,107 Z M288.205228,107.117188 C287.435693,107.117188 286.832184,106.837893 286.394681,106.279297 L286.300931,106.279297 C286.363432,106.826175 286.394681,107.142578 286.394681,107.228516 L286.394681,109.882812 L284.607572,109.882812 L284.607572,100.449219 L286.060697,100.449219 L286.31265,101.298828 L286.394681,101.298828 C286.812652,100.650387 287.431787,100.326172 288.252103,100.326172 C289.025545,100.326172 289.631007,100.624997 290.06851,101.222656 C290.506012,101.820315 290.72476,102.650385 290.72476,103.712891 C290.72476,104.412113 290.622221,105.019529 290.417142,105.535156 C290.212063,106.050784 289.920074,106.443358 289.541166,106.712891 C289.162258,106.982423 288.71695,107.117188 288.205228,107.117188 Z M287.677885,101.755859 C287.236476,101.755859 286.914214,101.8916 286.711088,102.163086 C286.507962,102.434572 286.402494,102.882809 286.394681,103.507812 L286.394681,103.701172 C286.394681,104.4043 286.499173,104.908202 286.708158,105.212891 C286.917143,105.51758 287.248195,105.669922 287.701322,105.669922 C288.502107,105.669922 288.902494,105.009772 288.902494,103.689453 C288.902494,103.044919 288.803862,102.561525 288.606595,102.239258 C288.409329,101.916991 288.099762,101.755859 287.677885,101.755859 Z M293.526893,107 L291.739783,107 L291.739783,97.8828125 L293.526893,97.8828125 L293.526893,107 Z M297.653245,101.597656 C297.274337,101.597656 296.977465,101.717772 296.76262,101.958008 C296.547775,102.198243 296.42473,102.53906 296.393479,102.980469 L298.901292,102.980469 C298.893479,102.53906 298.778246,102.198243 298.555589,101.958008 C298.332931,101.717772 298.032153,101.597656 297.653245,101.597656 Z M297.905198,107.117188 C296.850505,107.117188 296.026295,106.826175 295.432542,106.244141 C294.838789,105.662106 294.541917,104.837896 294.541917,103.771484 C294.541917,102.673823 294.816328,101.825198 295.365159,101.225586 C295.91399,100.625974 296.672771,100.326172 297.641526,100.326172 C298.567312,100.326172 299.288008,100.589841 299.803636,101.117188 C300.319263,101.644534 300.577073,102.373042 300.577073,103.302734 L300.577073,104.169922 L296.352464,104.169922 C296.371995,104.677737 296.522384,105.074217 296.803636,105.359375 C297.084887,105.644533 297.479414,105.787109 297.987229,105.787109 C298.381763,105.787109 298.754806,105.746094 299.10637,105.664062 C299.457934,105.582031 299.825118,105.451173 300.207932,105.271484 L300.207932,106.654297 C299.895431,106.810548 299.56145,106.926757 299.205979,107.00293 C298.850509,107.079102 298.416919,107.117188 297.905198,107.117188 Z M306.138972,105.054688 C306.138972,105.726566 305.905576,106.238279 305.438777,106.589844 C304.971978,106.941408 304.273742,107.117188 303.34405,107.117188 C302.867485,107.117188 302.461239,107.084961 302.1253,107.020508 C301.789361,106.956054 301.474911,106.861329 301.181941,106.736328 L301.181941,105.259766 C301.513974,105.416016 301.887993,105.546874 302.304011,105.652344 C302.720029,105.757813 303.086236,105.810547 303.402644,105.810547 C304.051085,105.810547 304.3753,105.623049 304.3753,105.248047 C304.3753,105.107421 304.332332,104.993165 304.246394,104.905273 C304.160456,104.817382 304.01202,104.717774 303.801082,104.606445 C303.590143,104.495117 303.308896,104.365235 302.957332,104.216797 C302.453423,104.005858 302.083309,103.810548 301.84698,103.630859 C301.610651,103.451171 301.438777,103.245118 301.331355,103.012695 C301.223933,102.780272 301.170222,102.494142 301.170222,102.154297 C301.170222,101.572263 301.395806,101.122072 301.84698,100.803711 C302.298154,100.48535 302.937796,100.326172 303.765925,100.326172 C304.554992,100.326172 305.322562,100.498045 306.06866,100.841797 L305.529597,102.130859 C305.20147,101.990234 304.894833,101.875 304.609675,101.785156 C304.324518,101.695312 304.033505,101.650391 303.736628,101.650391 C303.209282,101.650391 302.945613,101.792967 302.945613,102.078125 C302.945613,102.238282 303.030573,102.376953 303.200496,102.494141 C303.370418,102.611329 303.742485,102.785155 304.316707,103.015625 C304.828428,103.222657 305.203424,103.416015 305.441707,103.595703 C305.679989,103.775392 305.855768,103.982421 305.96905,104.216797 C306.082332,104.451173 306.138972,104.730467 306.138972,105.054688 Z" id="Simples" fill="#4E4E4E"></path>
                <path d="M194.787109,230.193359 L193,230.193359 L193,221.626953 L197.910156,221.626953 L197.910156,223.115234 L194.787109,223.115234 L194.787109,225.324219 L197.693359,225.324219 L197.693359,226.806641 L194.787109,226.806641 L194.787109,230.193359 Z M200.770883,230.193359 L198.983774,230.193359 L198.983774,221.076172 L200.770883,221.076172 L200.770883,230.193359 Z M204.897236,224.791016 C204.518327,224.791016 204.221455,224.911132 204.006611,225.151367 C203.791766,225.391603 203.66872,225.73242 203.63747,226.173828 L206.145282,226.173828 C206.13747,225.73242 206.022237,225.391603 205.799579,225.151367 C205.576922,224.911132 205.276144,224.791016 204.897236,224.791016 Z M205.149189,230.310547 C204.094496,230.310547 203.270285,230.019534 202.676532,229.4375 C202.082779,228.855466 201.785907,228.031255 201.785907,226.964844 C201.785907,225.867182 202.060319,225.018558 202.60915,224.418945 C203.15798,223.819333 203.916762,223.519531 204.885517,223.519531 C205.811303,223.519531 206.531999,223.7832 207.047626,224.310547 C207.563254,224.837893 207.821064,225.566402 207.821064,226.496094 L207.821064,227.363281 L203.596454,227.363281 C203.615986,227.871096 203.766375,228.267577 204.047626,228.552734 C204.328878,228.837892 204.723405,228.980469 205.23122,228.980469 C205.625753,228.980469 205.998796,228.939454 206.350361,228.857422 C206.701925,228.77539 207.069109,228.644532 207.451923,228.464844 L207.451923,229.847656 C207.139421,230.003907 206.80544,230.120117 206.44997,230.196289 C206.094499,230.272461 205.66091,230.310547 205.149189,230.310547 Z M209.914213,226.847656 L207.804838,223.642578 L209.832181,223.642578 L211.103666,225.728516 L212.386869,223.642578 L214.414213,223.642578 L212.2814,226.847656 L214.513822,230.193359 L212.480619,230.193359 L211.103666,227.949219 L209.720853,230.193359 L207.69351,230.193359 L209.914213,226.847656 Z M216.835487,230.193359 L215.048377,230.193359 L215.048377,223.642578 L216.835487,223.642578 L216.835487,230.193359 Z M214.960487,222.921875 L214.960487,222.763672 C215.632365,221.982418 216.091345,221.394533 216.33744,221 L218.341346,221 L218.341346,221.123047 C218.13822,221.326173 217.791544,221.627928 217.301307,222.02832 C216.81107,222.428713 216.427285,222.726562 216.14994,222.921875 L214.960487,222.921875 Z M219.807542,230.193359 L217.311448,223.642578 L219.180589,223.642578 L220.446214,227.375 C220.586839,227.847659 220.674729,228.29492 220.709886,228.716797 L220.745042,228.716797 C220.764573,228.341795 220.852463,227.894534 221.008714,227.375 L222.268479,223.642578 L224.13762,223.642578 L221.641526,230.193359 L219.807542,230.193359 Z M227.326472,224.791016 C226.947564,224.791016 226.650692,224.911132 226.435847,225.151367 C226.221002,225.391603 226.097957,225.73242 226.066707,226.173828 L228.574519,226.173828 C228.566706,225.73242 228.451473,225.391603 228.228816,225.151367 C228.006159,224.911132 227.70538,224.791016 227.326472,224.791016 Z M227.578425,230.310547 C226.523732,230.310547 225.699522,230.019534 225.105769,229.4375 C224.512016,228.855466 224.215144,228.031255 224.215144,226.964844 C224.215144,225.867182 224.489555,225.018558 225.038386,224.418945 C225.587217,223.819333 226.345999,223.519531 227.314753,223.519531 C228.240539,223.519531 228.961235,223.7832 229.476863,224.310547 C229.99249,224.837893 230.2503,225.566402 230.2503,226.496094 L230.2503,227.363281 L226.025691,227.363281 C226.045222,227.871096 226.195611,228.267577 226.476863,228.552734 C226.758114,228.837892 227.152641,228.980469 227.660457,228.980469 C228.05499,228.980469 228.428033,228.939454 228.779597,228.857422 C229.131161,228.77539 229.498345,228.644532 229.88116,228.464844 L229.88116,229.847656 C229.568658,230.003907 229.234677,230.120117 228.879207,230.196289 C228.523736,230.272461 228.090147,230.310547 227.578425,230.310547 Z M233.028996,230.193359 L231.241887,230.193359 L231.241887,221.076172 L233.028996,221.076172 L233.028996,230.193359 Z" id="Flexível" fill="#4E4E4E"></path>
            </g>
        </g>
    </g>
</svg>