<?xml version="1.0" encoding="UTF-8" standalone="no"?>
<svg width="538px" height="300px" viewBox="0 0 538 300" version="1.1" xmlns="http://www.w3.org/2000/svg" xmlns:xlink="http://www.w3.org/1999/xlink">
    <!-- Generator: Sketch 45.1 (43504) - http://www.bohemiancoding.com/sketch -->
    <title>Translations-Webshop-DE</title>
    <desc>Created with Sketch.</desc>
    <defs>
        <linearGradient x1="4349%" y1="25471%" x2="4349%" y2="25057%" id="linearGradient-1">
            <stop stop-color="#FFFFFF" offset="0%"></stop>
            <stop stop-color="#FFFFFF" offset="100%"></stop>
        </linearGradient>
    </defs>
    <g id="SVG" stroke="none" stroke-width="1" fill="none" fill-rule="evenodd">
        <g id="Translations-Webshop-DE" transform="translate(-11.000000, 0.000000)">
            <g transform="translate(11.000000, 0.000000)">
                <g id="Webshop">
                    <g>
                        <g id="Clouds" fill="#FFFFFF">
                            <path d="M186.746411,8.41673731 C179.652219,2.91036647 171.166547,0 162.206731,0 C154.05285,0 146.194428,2.45112932 139.481517,7.08824983 C133.256282,11.3880744 128.397317,17.2811516 125.370798,24.184998 C118.485134,24.7078161 112.081584,27.725021 107.230775,32.7592893 C102.088585,38.0961731 99.2565056,45.1189775 99.2565056,52.5342683 C99.2565056,59.9844261 102.111384,67.031283 107.29528,72.3769302 C112.469352,77.7125088 119.383006,80.7595463 126.762092,80.9564422 C126.810471,80.957188 193.07211,80.9404071 195.949972,80.9376103 C202.806906,80.6092641 209.127045,77.7033725 213.832904,72.7530087 C218.554518,67.7860504 221.154715,61.2739446 221.154715,54.4165253 C221.154715,41.9843064 212.603241,31.2803331 200.660836,28.5353517 C198.221344,20.622787 193.312148,13.5129085 186.746411,8.41673731 Z" id="Cloud" transform="translate(160.205610, 40.478233) scale(-1, 1) translate(-160.205610, -40.478233) "></path>
                            <path d="M470.894145,89.2809476 C466.443008,85.826063 461.118809,84 455.497115,84 C450.381092,84 445.450451,85.537922 441.238542,88.4474093 C437.332617,91.1452656 434.283937,94.8427829 432.384996,99.1744912 C428.064696,99.5025251 424.046891,101.395622 421.003328,104.554294 C417.776943,107.902836 416,112.309183 416,116.961789 C416,121.636271 417.791248,126.057709 421.043801,129.41175 C424.29019,132.759474 428.628052,134.671289 433.257942,134.794828 C433.288296,134.795296 474.863104,134.784767 476.668773,134.783012 C480.971047,134.576997 484.936517,132.753742 487.889133,129.647715 C490.851635,126.531276 492.483087,122.445359 492.483087,118.142781 C492.483087,110.342383 487.117601,103.626346 479.624529,101.904051 C478.093909,96.9394388 475.013712,92.4784589 470.894145,89.2809476 Z" id="Cloud" transform="translate(454.241543, 109.397422) scale(-1, 1) translate(-454.241543, -109.397422) "></path>
                            <path d="M56.0241619,78.2819267 C51.481396,74.7559221 46.0475962,72.8922689 40.3101777,72.8922689 C35.0888397,72.8922689 30.0566995,74.4618496 25.7580866,77.4312298 C21.7717571,80.1846225 18.6603191,83.9582545 16.7222876,88.3791327 C12.3130522,88.7139193 8.21253922,90.6459864 5.10632379,93.8696802 C1.8135218,97.2871539 -3.26849658e-13,101.784207 -3.26849658e-13,106.532588 C-3.26849658e-13,111.303297 1.82812113,115.815752 5.14762922,119.238837 C8.46084654,122.655475 12.8880047,124.606646 17.6132029,124.732728 C17.6441819,124.733205 60.0748235,124.72246 61.9176626,124.720669 C66.3085005,124.510412 70.3556013,122.649625 73.3689982,119.479659 C76.3924841,116.299067 78.05752,112.12904 78.05752,107.737892 C78.05752,99.7769201 72.5815839,92.9226306 64.9342643,91.1648817 C63.3721358,86.0980709 60.2285319,81.54526 56.0241619,78.2819267 Z" id="Cloud" opacity="0.5"></path>
                        </g>
                        <g id="imac" transform="translate(133.828996, 44.609665)" fill-rule="nonzero">
                            <path d="M227.289901,5.90082603 C227.294394,3.30292393 225.173138,1.19206954 222.549035,1.18320677 L4.89946851,1.18320677 C2.27536538,1.19206954 0.154109643,3.30292393 0.158602931,5.90082603 L0.158602931,152.46046 L227.298019,152.46046 L227.289901,5.90082603 Z" id="Shape" fill="#003D54"></path>
                            <path d="M0.158602931,152.46046 L0.158602931,162.369871 C0.154109643,164.967773 2.27536538,167.078627 4.89946851,167.08749 L222.557153,167.08749 C225.181256,167.078627 227.302512,164.967773 227.298019,162.369871 L227.298019,152.46046 L0.158602931,152.46046 Z" id="Shape" fill="#EDEDED"></path>
                            <rect id="Rectangle-path" fill="#DFF5F7" x="8.92193309" y="10.0371747" width="209.093278" height="134.536536" rx="2"></rect>
                            <path d="M162.013702,196.196889 C159.115604,194.034982 154.951111,191.816816 152.605032,189.011963 C146.735776,181.987773 147.474506,167.417 147.474506,167.417 L87.4018946,167.417 C87.4018946,167.417 88.1487433,181.987773 82.2713689,189.011963 C79.9252898,191.816816 75.7770325,194.034982 72.862699,196.196889 C72.4749486,196.492862 72.2094342,196.918585 72.1158503,197.394377 L162.760551,197.394377 C162.666967,196.918585 162.401452,196.492862 162.013702,196.196889 Z" id="Shape" fill="#D2DEDE"></path>
                            <path d="M72.148322,197.41045 C72.0662193,197.758643 72.080239,198.122291 72.1889116,198.463275 C72.4679042,199.284675 73.2456374,199.837885 74.1209767,199.837573 L160.787896,199.837573 C161.398813,199.844959 161.979533,199.575079 162.364086,199.105065 C162.74864,198.63505 162.89471,198.016621 162.760551,197.426524 L72.148322,197.41045 Z" id="Shape" fill="#FFFFFF"></path>
                            <path d="M64.2495853,100.904194 L64.2495853,100.00407" id="Shape" fill="#227792"></path>
                            <path d="M90.9737796,0.0982347114 L90.9737796,0.548297196" id="Shape" fill="#C28800"></path>
                            <rect id="Rectangle-path" fill="#003D54" x="87.5480172" y="167.071417" width="59.8940175" height="2.91736932"></rect>
                            <path d="M29.6179637,9.70261584 C29.6179637,9.70261584 29.1802618,15.8591671 33.235198,19.7019017 C37.2901342,23.5446362 42.6664346,22.3836398 42.6664346,22.3836398 C42.6664346,22.3836398 46.8700243,21.2962277 48.876846,17.9604071 C50.8836678,14.6245865 51.2222674,9.70261584 51.2222674,9.70261584 L29.6179637,9.70261584 Z" id="Shape" fill="#FFBD35"></path>
                            <path d="M51.2360749,9.70261584 C51.2360749,9.70261584 50.8066316,15.5975342 54.7376899,19.2767481 C58.6687482,22.955962 63.8220684,21.8440218 63.8220684,21.8440218 C63.8220684,21.8440218 67.8852631,20.8056659 69.8260167,17.6088378 C71.7667703,14.4120097 72.0971113,9.70261584 72.0971113,9.70261584 L51.2360749,9.70261584 Z" id="Shape" fill="#F15A29"></path>
                            <path d="M72.110319,9.70261584 C72.110319,9.70261584 71.6891342,15.5811821 75.6036755,19.25222 C79.5182168,22.9232579 84.688054,21.8113177 84.688054,21.8113177 C84.688054,21.8113177 88.7429902,20.7729617 90.6754852,17.5924857 C92.6079803,14.4120097 92.9383213,9.70261584 92.9383213,9.70261584 L72.110319,9.70261584 Z" id="Shape" fill="#FFBD35"></path>
                            <path d="M92.9516677,9.70261584 C92.9516677,9.70261584 92.5304829,15.7201746 96.4202486,19.4729728 C98.8498397,21.7011625 102.195574,22.6700293 105.455076,22.0893027 C105.455076,22.0893027 109.485237,21.0264187 111.401215,17.7723584 C113.317193,14.5182981 113.647534,9.70261584 113.647534,9.70261584 L92.9516677,9.70261584 Z" id="Shape" fill="#F15A29"></path>
                            <path d="M113.686004,9.70261584 C113.686004,9.70261584 113.264819,15.5811821 117.179361,19.25222 C121.093902,22.9232579 126.263739,21.8113177 126.263739,21.8113177 C126.263739,21.8113177 130.326934,20.7729617 132.259429,17.5924857 C134.191924,14.4120097 134.530524,9.70261584 134.530524,9.70261584 L113.686004,9.70261584 Z" id="Shape" fill="#FFBD35"></path>
                            <path d="M134.460062,9.70261584 C134.460062,9.70261584 134.030618,15.5975342 137.994711,19.2767481 C141.958803,22.955962 147.211226,21.8440218 147.211226,21.8440218 C147.211226,21.8440218 151.340488,20.8056659 153.272984,17.6088378 C155.205479,14.4120097 155.568854,9.70261584 155.568854,9.70261584 L134.460062,9.70261584 Z" id="Shape" fill="#F15A29"></path>
                            <path d="M8.38001672,9.70261584 C8.38001672,9.70261584 7.95057338,15.5975342 11.9311828,19.2767481 C15.9117923,22.955962 21.1972489,21.8440218 21.1972489,21.8440218 C21.1972489,21.8440218 25.3265118,20.8056659 27.3002995,17.6088378 C29.2740872,14.4120097 29.6044282,9.70261584 29.6044282,9.70261584 L8.38001672,9.70261584 Z" id="Shape" fill="#F15A29"></path>
                            <path d="M155.582061,9.70261584 C155.582061,9.70261584 155.160877,15.5811821 159.075418,19.25222 C162.989959,22.9232579 168.159796,21.8113177 168.159796,21.8113177 C168.159796,21.8113177 172.222991,20.7729617 174.155486,17.5924857 C176.087981,14.4120097 176.418322,9.70261584 176.418322,9.70261584 L155.582061,9.70261584 Z" id="Shape" fill="#FFBD35"></path>
                            <path d="M176.481715,9.70261584 C176.481715,9.70261584 176.052271,15.5975342 180.016364,19.2767481 C183.980456,22.955962 189.241137,21.8440218 189.241137,21.8440218 C189.241137,21.8440218 193.3704,20.8056659 195.302895,17.6088378 C197.23539,14.4120097 197.598765,9.70261584 197.598765,9.70261584 L176.481715,9.70261584 Z" id="Shape" fill="#F15A29"></path>
                            <path d="M197.478119,9.70261584 C197.478119,9.70261584 197.056934,15.5811821 200.971475,19.25222 C204.886016,22.9232579 210.055854,21.8113177 210.055854,21.8113177 C210.055854,21.8113177 214.119048,20.7729617 216.051543,17.5924857 C217.984038,14.4120097 218.314379,9.70261584 218.314379,9.70261584 L197.478119,9.70261584 Z" id="Shape" fill="#FFBD35"></path>
                            <rect id="Rectangle-path" fill="#FFFFFF" x="20.0743494" y="32.3420074" width="187.848681" height="107.58325"></rect>
                            <rect id="Rectangle-path" fill="#FFBD35" x="43.4944238" y="109.29368" width="21.1796546" height="18.6132985"></rect>
                            <rect id="Rectangle-path" fill="#F15A29" x="128.615309" y="107.800846" width="55.6970526" height="18.8061824"></rect>
                            <rect id="Rectangle-path" fill="#98DFE5" x="44.8929116" y="133.019893" width="25.5958034" height="1.92883922"></rect>
                            <polygon id="Rectangle-path" fill="#B6C8CE" points="75.607233 133.019893 184.01487 133.015399 184.01487 134.944238 75.607233 134.948733"></polygon>
                            <rect id="Rectangle-path" fill="#2290BF" x="128.477304" y="95.6732698" width="56.2409533" height="8.15738254"></rect>
                            <rect id="Rectangle-path" fill="#2290BF" x="127.657394" y="65.0850945" width="56.9390944" height="9.96566931"></rect>
                            <rect id="Rectangle-path" fill="#2290BF" x="127.316442" y="44.0928943" width="56.9390944" height="17.4720686"></rect>
                            <rect id="Rectangle-path" fill="#FFBD35" x="68.3235135" y="109.070666" width="21.1796546" height="18.6132985"></rect>
                            <rect id="Rectangle-path" fill="#FFBD35" x="93.6802974" y="109.29368" width="21.1796546" height="18.6132985"></rect>
                            <rect id="Rectangle-path" fill="#FFBD35" x="128.191017" y="78.0669145" width="17.0742742" height="14.2492997"></rect>
                            <rect id="Rectangle-path" fill="#FFBD35" x="147.728942" y="78.0669145" width="17.0742742" height="14.2492997"></rect>
                            <rect id="Rectangle-path" fill="#FFBD35" x="167.266866" y="78.0669145" width="17.0742742" height="14.2492997"></rect>
                            <rect id="Rectangle-path" fill="#00B8D6" x="43" y="45" width="71.4539363" height="60.1315627"></rect>
                            <rect id="Rectangle-path" fill="#FFDA8E" x="43.4944238" y="37.9182156" width="32.471682" height="2.5637488"></rect>
                            <rect id="Rectangle-path" fill="#FFDA8E" x="84.7583643" y="37.9182156" width="99.2565056" height="2.5637488"></rect>
                        </g>
                        <g id="Mobile" transform="translate(75.836431, 131.598513)" fill-rule="nonzero">
                            <rect id="Rectangle-path" fill="url(#linearGradient-1)" opacity="0.2" style="mix-blend-mode: multiply;" x="5.64331649" y="125.738975" width="59.5124752" height="3.68890501"></rect>
                            <path d="M71.8206045,119.004111 C71.8206045,122.717127 69.109219,125.730938 65.7565178,125.730938 L6.15474548,125.730938 C2.81016223,125.730938 0.0906588619,122.717127 0.0906588619,119.004111 L0.0906588619,6.72959475 C0.0906588619,3.01657925 2.80204431,0.00276797179 6.15474548,0.00276797179 L65.7565178,0.00276797179 C69.1011011,0.00276797179 71.8206045,3.01657925 71.8206045,6.72959475 L71.8206045,119.004111 Z" id="Shape" fill="#003D54"></path>
                            <path d="M39.4219837,5.299039 C39.4219837,5.83750662 39.2352715,6.27149544 39.0079698,6.27149544 L32.4324542,6.27149544 C32.2051524,6.27149544 32.0184402,5.83750662 32.0184402,5.299039 L32.0184402,5.299039 C32.0184402,4.76057138 32.2051524,4.32658256 32.4324542,4.32658256 L39.0079698,4.32658256 C39.2352715,4.32658256 39.4219837,4.76057138 39.4219837,5.299039 Z" id="Shape" fill="#FFFFFF"></path>
                            <rect id="Rectangle-path" fill="#FFFFFF" x="5.57620818" y="10.0371747" width="60.1375551" height="95.4775414" rx="2"></rect>
                            <path d="M36.0692825,120.048899 C33.8584597,120.061918 31.8583072,118.752612 31.0046516,116.733576 C30.150996,114.714541 30.6126571,112.385062 32.1736341,110.835051 C33.734611,109.285039 36.0862034,108.821028 38.1281537,109.660116 C40.1701041,110.499205 41.4985943,112.475455 41.4920534,114.664223 C41.4787982,117.626385 39.0612793,120.026921 36.0692825,120.048899 L36.0692825,120.048899 Z M36.0692825,110.123414 C33.5526471,110.145558 31.527665,112.177795 31.5395635,114.669362 C31.5514619,117.160929 33.5957628,119.17412 36.1124973,119.172705 C38.6292317,119.17129 40.6712216,117.155802 40.6802614,114.664223 C40.6781315,113.45786 40.1903471,112.302103 39.3249107,111.452854 C38.4594742,110.603604 37.2877888,110.13093 36.0692825,110.139487 L36.0692825,110.123414 Z" id="Shape" fill="#FFFFFF" opacity="0.3"></path>
                            <ellipse id="Oval" fill="#FFFFFF" cx="36.0692825" cy="114.664223" rx="3.28775781" ry="3.25491619"></ellipse>
                            <rect id="Rectangle-path" fill="#2290BF" x="10.5221867" y="63.3651364" width="49.7547348" height="6.97596852"></rect>
                            <rect id="Rectangle-path" fill="#FFBD35" x="10.0371747" y="76.9516729" width="49.7547348" height="6.97596852"></rect>
                            <rect id="Rectangle-path" fill="#F15A29" x="10.0371747" y="86.9888476" width="49.7547348" height="6.97596852"></rect>
                            <rect id="Rectangle-path" fill="#FFFFFF" opacity="0.5" x="12.8276761" y="65.51097" width="8.65370326" height="2.2985334"></rect>
                            <rect id="Rectangle-path" fill="#FFFFFF" opacity="0.5" x="13.3828996" y="79.1821561" width="8.65370326" height="2.2985334"></rect>
                            <rect id="Rectangle-path" fill="#FFFFFF" opacity="0.5" x="13.3828996" y="89.2193309" width="8.65370326" height="2.2985334"></rect>
                            <rect id="Rectangle-path" fill="#227792" x="25.2643304" y="65.6395593" width="29.8495937" height="1"></rect>
                            <rect id="Rectangle-path" fill="#227792" x="25.2643304" y="67.4880302" width="20.627636" height="1"></rect>
                            <rect id="Rectangle-path" fill="#809FAA" x="10.5221867" y="23.7799927" width="12.0713478" height="2.5637488"></rect>
                            <rect id="Rectangle-path" fill="#FFDA8E" x="23.2429681" y="23.7799927" width="12.0713478" height="2.5637488"></rect>
                            <rect id="Rectangle-path" fill="#809FAA" x="35.9718675" y="23.7799927" width="12.0713478" height="2.5637488"></rect>
                            <polygon id="Rectangle-path" fill="#809FAA" points="48.7007669 23.7799927 59.7721147 23.7799927 59.7721147 26.3437415 48.7007669 26.3437415"></polygon>
                            <rect id="Rectangle-path" fill="#00B8D6" x="10.0371747" y="28.9962825" width="50.1119233" height="44.3070443"></rect>
                            <path d="M17.4499387,9.52158704 C17.4499387,9.52158704 17.1924177,13.1251866 19.5645817,15.3755978 C21.9367457,17.6260089 25.0864248,16.9445119 25.0864248,16.9445119 C25.0864248,16.9445119 27.5625877,16.3071405 28.7214319,14.3558036 C29.8802761,12.4044667 30.0932261,9.52158704 30.0932261,9.52158704 L17.4499387,9.52158704 Z" id="Shape" fill="#FFBD35"></path>
                            <path d="M30.0635121,9.52158704 C30.0635121,9.52158704 29.8158958,12.9535866 32.1088226,15.1255521 C34.4017494,17.2975176 37.4474297,16.6307291 37.4474297,16.6307291 C37.4474297,16.6307291 39.824546,16.0227748 40.9635809,14.1547865 C42.1026158,12.2867981 42.2908042,9.5264899 42.2908042,9.5264899 L30.0635121,9.52158704 Z" id="Shape" fill="#F15A29"></path>
                            <path d="M42.3007088,9.52158704 C42.3007088,9.52158704 42.0530925,12.9535866 44.3460193,15.1108435 C46.6389461,17.2681004 49.6747217,16.6111176 49.6747217,16.6111176 C49.6747217,16.6111176 52.0518381,16.0031634 53.1809683,14.1596894 C54.3100986,12.3162153 54.5081916,9.54119847 54.5081916,9.54119847 L42.3007088,9.52158704 Z" id="Shape" fill="#FFBD35"></path>
                            <path d="M54.4041927,9.52158704 C54.4041927,9.52158704 54.1565765,13.0418381 56.4346463,15.2383178 C57.8565466,16.5435489 59.8151192,17.1118163 61.7237301,16.7729119 C61.7237301,16.7729119 64.0810371,16.1502491 65.190358,14.2430379 C66.299679,12.3358267 66.5076767,9.52158704 66.5076767,9.52158704 L54.4041927,9.52158704 Z" id="Shape" fill="#F15A29"></path>
                            <path d="M5.09388613,9.52158704 C5.09388613,9.52158704 4.84131752,12.9535866 7.17386291,15.1255521 C9.50640829,17.2975176 12.6214211,16.6307291 12.6214211,16.6307291 C12.6214211,16.6307291 15.0381561,16.0227748 16.1920479,14.1547865 C17.3459398,12.2867981 17.5440328,9.5264899 17.5440328,9.5264899 L5.09388613,9.52158704 Z" id="Shape" fill="#F15A29"></path>
                        </g>
                        <g id="People-left" transform="translate(5.576208, 195.167286)" fill-rule="nonzero">
                            <path d="M4.73474715,91.0917475 C4.73474715,91.0917475 145.569801,102.092117 14.5796393,104.005373 L14.332756,100.946883 C14.332756,100.946883 39.508083,97.1271682 5.57009183,93.9361434 L4.73474715,91.0917475 Z" id="Shape" fill="#010101" opacity="0.100000001"></path>
                            <path d="M5.87446843,22.3436841 L3.74383221,42.9647048 C3.74383221,42.9647048 15.6179017,42.9647048 18.8104741,40.4465479 L18.0732063,19.4347201 C18.0732063,19.4347201 11.0793083,15.2004103 5.87446843,22.3436841 Z" id="Shape" fill="#353634"></path>
                            <path d="M18.4452221,69.2439324 C18.4452221,69.2439324 15.1782466,83.7955492 5.59376557,89.0493557 L3.97042368,88.2439533 C3.97042368,88.2439533 12.6586847,76.9071496 9.13129808,69.2439324 L13.8660452,66.8854966 L18.4452221,69.2439324 Z" id="Shape" fill="#CE8A78"></path>
                            <path d="M5.58023772,89.0493557 L5.13720066,91.8835567 C5.33091632,92.5522904 5.47893996,93.2335409 5.58023772,93.9225501 C5.58023772,93.9225501 2.87466791,93.1341393 2.43501282,91.4791563 L2.57705524,89.9465129 L1.56246656,90.643169 L1.254708,90.0892424 L3.9602778,88.2541483 L5.58023772,89.0493557 Z" id="Shape" fill="#3E3E3E"></path>
                            <path d="M14.3868674,69.2303391 C14.3868674,69.2303391 12.4050375,83.2212327 15.3541086,97.9053841 L13.3249313,98.8671093 C13.3249313,98.8671093 7.16299605,77.5460342 4.73474715,71.4664353 L8.9148525,66.0291194 L14.3868674,69.2303391 Z" id="Shape" fill="#EDAC98"></path>
                            <path d="M13.2403822,98.853516 L13.2403822,103.998576 L14.5931671,103.998576 L14.5931671,101.80326 L18.3809648,103.526209 C18.3809648,103.526209 21.5701552,103.033453 22.8248632,101.375071 C21.6958505,101.091039 20.521383,101.039024 19.3718798,101.222147 L15.3135251,97.8951891 L13.2403822,98.853516 Z" id="Shape" fill="#3E3E3E"></path>
                            <path d="M18.455368,32.2667857 C18.455368,32.2667857 21.8373303,48.0689851 25.0772501,56.3133154 L23.7244652,56.9284118 C23.7244652,56.9284118 13.703711,40.5756841 14.2955544,34.3057792 C14.2955544,34.3057792 12.8886581,27.390193 18.455368,32.2667857 Z" id="Shape" fill="#EDAC98"></path>
                            <path d="M25.0772501,56.3133154 C26.1057732,57.0531337 26.9345384,58.0389144 27.4885892,59.1814996 C27.4885892,59.1814996 28.8143184,61.3428327 27.0354062,60.0378769 C27.0354062,60.0378769 28.8447561,62.5832204 27.8200215,62.8245013 C26.7952869,63.0657822 24.5970115,62.484669 24.0525155,61.3088495 C23.5080196,60.1330299 23.7143193,56.9250135 23.7143193,56.9250135 C23.7143193,56.9250135 23.5080196,55.1884707 25.0772501,56.3133154 Z" id="Shape" fill="#EDAC98"></path>
                            <path d="M8.94867212,50.9847458 C8.94867212,50.4817941 4.99515825,37.2147432 5.14058262,34.7543577 C5.21498579,33.5071734 7.16975998,32.1138612 9.05689491,31.0433896 L8.92499839,31.7230541 C8.92499839,31.7230541 11.2281147,36.1408733 13.5549047,35.8452192 C15.8816947,35.5495652 18.9389886,34.7645527 17.8398509,33.5989281 C16.7407132,32.4333035 14.4781804,31.2642806 14.4781804,31.2642806 L14.4375969,30.4384882 C21.1135903,35.2301229 23.5486032,40.4737344 23.5486032,40.4737344 L20.5826223,45.3367339 C20.6299697,49.6016286 18.9389886,52.1163872 18.9389886,52.1163872 C15.5863366,53.0228607 12.0163495,52.6184746 8.94867212,50.9847458 L8.94867212,50.9847458 Z" id="Shape" fill="#F3CA46"></path>
                            <path d="M8.94867212,50.9847458 C12.0163495,52.6184746 15.5863366,53.0228607 18.9389886,52.1163872 C20.4101422,55.0355462 18.7766544,69.787664 18.7766544,69.787664 C9.0399851,76.6828603 4.73474715,72.1393032 4.73474715,72.1393032 C0.0202917735,59.9087406 8.94867212,51.4876975 8.94867212,50.9847458 Z" id="Shape" fill="#4E5050"></path>
                            <path d="M9.05689491,31.0433896 L9.6047728,28.2159853 L14.33952,28.3689098 L14.4443608,30.4316916 C13.8964829,30.0374862 13.3215493,29.6466791 12.7127961,29.2592703 C11.4623196,29.7857045 10.2418171,30.3813229 9.05689491,31.0433896 L9.05689491,31.0433896 Z" id="Shape" fill="#DE9684"></path>
                            <path d="M17.8398509,33.5989281 C18.9389886,34.7645527 15.8952226,35.5325736 13.5549047,35.8418209 C11.2145868,36.1510683 8.92838035,31.7196558 8.92838035,31.7196558 L9.06027688,31.0399913 C10.2419724,30.3794191 11.4590781,29.7849399 12.7060322,29.2592703 C13.3147854,29.6432807 13.886337,30.0374862 14.4375969,30.4316916 L14.4781804,31.2574839 C14.4781804,31.2574839 16.7305673,32.4299052 17.8398509,33.5989281 Z" id="Shape" fill="#DE9684"></path>
                            <path d="M9.38494525,37.9317892 C9.38494525,37.9317892 4.78547659,50.196335 3.56120625,59.1814996 L1.97168399,58.9062355 C1.97168399,58.9062355 1.03149849,43.7938955 4.0583547,36.7355797 C4.0583547,36.7355797 6.56438873,29.0179894 9.38494525,37.9317892 Z" id="Shape" fill="#EDAC98"></path>
                            <path d="M3.56120625,59.1814996 C3.56120625,59.1814996 5.21498579,60.9792122 4.70430949,62.9774258 C4.70430949,62.9774258 4.22745282,65.6111257 3.56120625,62.6749751 C3.56120625,62.6749751 3.25682965,65.3392599 3.25682965,65.7640502 C3.25682965,66.1888405 0.00338196225,66.552461 0.365251923,63.3852245 C0.727121884,60.2179879 1.97168399,58.8926422 1.97168399,58.8926422 C1.97168399,58.8926422 3.02347425,57.383787 3.56120625,59.1814996 Z" id="Shape" fill="#EDAC98"></path>
                            <ellipse id="Oval" fill="#EDAC98" cx="12.9326237" cy="23.7301997" rx="6.899203" ry="7.65302219"></ellipse>
                            <path d="M20.1936966,20.8280323 C20.1936966,20.8280323 15.7802359,24.6443484 11.0793083,24.8414511 C11.0793083,24.8414511 10.3521865,36.6472233 11.7557008,42.3394135 C11.7557008,42.3394135 10.2642554,43.430275 8.93514427,42.7642038 C8.93514427,42.7642038 8.00172269,32.9600435 7.35238594,28.2329769 C7.35238594,28.2329769 2.30311629,21.5178917 10.4401175,16.0941691 C10.4299716,16.0805758 17.5862037,13.7425299 20.1936966,20.8280323 Z" id="Shape" fill="#353634"></path>
                            <path d="M57.7114157,86.1440761 C57.7114157,86.1440761 154.053374,94.0723624 38.7453714,91.0410588 L35.999218,87.9825686 C35.999218,87.9825686 59.0912563,89.294321 57.7114157,86.1440761 Z" id="Shape" fill="#010101" opacity="0.100000001"></path>
                            <path d="M52.8955015,16.1930065 C52.8955015,16.1930065 56.0542542,16.7469331 54.7860183,22.394945 C53.5177825,28.042957 53.8424509,29.2255732 53.8424509,29.2255732 C53.8424509,29.2255732 48.546298,31.7709167 45.9895345,29.0556571 C45.9929165,29.0522587 45.5092959,15.1395266 52.8955015,16.1930065 Z" id="Shape" fill="#44C2CD"></path>
                            <path d="M52.3307138,85.5833529 C52.3307138,85.5833529 52.5201036,87.734491 52.8413901,88.6078599 C52.8413901,88.6078599 60.5860836,90.8337611 62.4224891,88.2102562 C62.4224891,88.2102562 62.0842929,86.5654681 56.0373444,84.6284243 C56.0373444,84.6182293 53.6395331,84.088091 52.3307138,85.5833529 Z" id="Shape" fill="#453937"></path>
                            <path d="M32.9960356,84.6386193 C32.7741209,85.4337001 32.6503145,86.2531773 32.6274017,87.0786148 C32.6274017,87.0786148 37.0848279,92.6076854 39.3676524,90.7114215 C39.3676524,90.7114215 39.5671882,89.2603378 36.3847617,84.9104851 C36.3847617,84.9104851 34.7918575,83.3064769 32.9960356,84.6386193 Z" id="Shape" fill="#453937"></path>
                            <path d="M36.3035946,51.9365622 C36.3035946,51.9365622 48.5936455,39.277811 55.5571057,45.3676049 C55.6923842,45.3676049 58.8680468,63.8238942 57.2480869,84.5128813 C57.1229543,86.1100929 52.4355546,86.9596735 52.2495467,85.026028 C50.5585655,67.4634975 50.6160589,69.0029376 47.6365501,60.7280224 C47.1427837,60.9523117 46.5847599,61.2649574 46.0909934,61.4450685 C43.3854236,74.0188616 42.4959675,74.4946267 37.8390055,84.213829 C37.1254115,85.7022942 32.4988871,86.0183382 32.8472292,84.1050826 C35.1807832,71.3137969 35.7016054,72.4454383 36.357706,62.5699132 L36.3035946,51.9365622 Z" id="Shape" fill="#3B6485"></path>
                            <path d="M48.9149319,15.7920045 C48.9149319,15.7920045 36.3035946,19.3432515 36.3035946,29.3173279 C36.3035946,38.0917965 36.6214991,48.6877659 36.3035946,51.9365622 C36.3035946,51.9365622 40.0474269,61.2853473 50.1696399,54.1012936 C52.9293211,52.1438599 56.8625432,47.9537283 55.6687105,45.8875482 C52.310422,40.0662218 58.5907259,14.6501681 48.9149319,15.7920045 Z" id="Shape" fill="#7AD0E7"></path>
                            <path d="M42.8071081,13.8991389 C42.8071081,13.8991389 43.3042565,17.0425872 42.7800524,18.7791299 C42.7800524,18.7791299 41.7079703,20.3525532 43.3313122,21.9633581 C44.9546541,23.5741629 50.0952367,27.4686405 50.5382738,21.9633581 C50.5382738,21.9633581 50.6667883,18.4596876 48.1472264,17.3518345 C47.8715997,15.9804896 47.7356202,14.5845122 47.741391,13.1854912 L42.8071081,13.8991389 Z" id="Shape" fill="#EABFB0"></path>
                            <ellipse id="Oval" fill="#FDD7C7" cx="46.7809137" cy="9.43034484" rx="7.75822141" ry="8.336085"></ellipse>
                            <path d="M41.021432,15.0137886 L42.9559144,12.699531 C42.9559144,12.699531 40.9098272,13.0801432 41.1364187,9.82115192 C41.1364187,9.82115192 41.2209678,8.75407867 42.2490843,8.80165518 C43.2772008,8.84923169 43.7675853,9.42354819 43.7912591,9.69541399 L44.1835667,11.0207597 L45.7020677,6.85441641 C45.7020677,6.85441641 49.5845604,7.68700541 51.3939102,7.30979162 C51.3939102,7.30979162 49.5845604,6.55196571 49.5845604,6.21213346 C49.5845604,6.21213346 54.0318408,6.93257783 56.2571719,6.21213346 L54.7386709,5.6887918 C54.7386709,5.6887918 56.9369463,5.03971221 58.21871,3.71436645 C58.21871,3.71436645 56.067782,3.90467251 55.1275965,3.71436645 C55.1275965,3.71436645 57.1263362,2.53854688 57.6167208,1.85888239 C57.6167208,1.85888239 52.939467,1.99141696 50.7547193,1.09086151 C48.5699717,0.190306058 42.6549197,-0.536934949 41.4847608,2.79002274 C41.4847608,2.79002274 38.3530638,3.70077316 38.3496818,7.60544567 C38.3530638,10.8032671 38.6067109,13.3961872 41.021432,15.0137886 Z" id="Shape" fill="#965842"></path>
                            <path d="M37.9675201,30.635877 C37.8390055,29.276548 38.6777321,28.0769402 39.8377452,27.917219 C40.9977582,27.7574979 42.0461665,28.7430114 42.1746811,30.0921454 C42.1983548,30.330028 43.077665,45.5341227 50.8122127,52.7419646 C50.9095018,52.7015935 51.0159112,52.6886686 51.1199713,52.7045831 L54.2144667,52.6841931 C54.552663,52.6841931 54.9754082,52.8439143 54.9754082,53.1769499 L54.9754082,53.2483147 C54.9149838,53.6302612 54.6072982,53.9241158 54.2246126,53.9653607 L53.3148648,53.9653607 L54.6676497,54.9848575 C55.1477388,55.3212664 55.4742281,55.8364175 55.5745668,56.4158366 C55.6749054,56.9952556 55.5407816,57.5909452 55.2019997,58.0705343 C54.4850237,59.0050729 53.0815094,59.1138192 52.0669207,58.3322051 L49.8618813,56.6330439 C49.4901198,56.3470523 49.207352,55.9603448 49.0468284,55.5183941 C36.7669235,45.421978 38.0757429,31.7505268 37.9675201,30.635877 Z" id="Shape" fill="#FDD7C7"></path>
                            <path d="M44.4101582,37.0994863 C44.4101582,37.0994863 43.1960337,31.5058476 43.0100258,28.4371624 C42.8240179,25.3684772 41.5929836,23.1085928 39.5096949,23.3124921 C37.4264061,23.5163914 35.7455709,25.0320433 36.4185814,31.1116422 L36.7060481,36.7460608 C36.7060481,36.7460608 39.1444429,41.4595341 44.4101582,37.0994863 Z" id="Shape" fill="#44C2CD"></path>
                        </g>
                        <g id="Tablet" transform="translate(333.945335, 112.639405)" fill-rule="nonzero">
                            <rect id="Rectangle-path" fill="#FFFFFF" x="11.2196461" y="12.3740787" width="6.0965583" height="6.0356594"></rect>
                            <path d="M112.011747,153.76603 C114.420841,153.71333 116.33163,151.738912 116.281773,149.353811 L116.281773,4.92393721 C116.33163,2.53883628 114.420841,0.564417484 112.011747,0.511717489 L5.16367744,0.511717489 C3.77484678,0.545401668 2.45646752,1.12412319 1.49878417,2.12047507 C0.541100818,3.11682695 0.0226267911,4.44912561 0.0575054453,5.82406218 L0.0575054453,148.461723 C-0.0105688462,151.32187 2.27473949,153.695855 5.16367744,153.76603 L112.011747,153.76603 Z" id="Shape" fill="#003D54"></path>
                            <rect id="Rectangle-path" fill="#DFF5F7" x="7.3230443" y="8.94235225" width="101.092464" height="136.425191" rx="2"></rect>
                            <rect id="Rectangle-path" fill="#FFFFFF" x="12.8351123" y="26.7657993" width="90.4904599" height="112.767005"></rect>
                            <path d="M26.148502,31.7669497 L26.960294,31.7669497" id="Shape" fill="#227792"></path>
                            <rect id="Rectangle-path" fill="#FFFFFF" x="78.022014" y="90.0661151" width="5.45524258" height="5.67400204"></rect>
                            <rect id="Rectangle-path" fill="#FFFFFF" x="51.3221734" y="46.9404849" width="5.45524258" height="5.67400204"></rect>
                            <ellipse id="Oval" fill="#FFFFFF" cx="80.579159" cy="49.48816" rx="1.47746153" ry="1.53503455"></ellipse>
                            <ellipse id="Oval" fill="#FFFFFF" cx="80.579159" cy="120.9838" rx="1.47746153" ry="1.53503455"></ellipse>
                            <polygon id="Rectangle-path" fill="#00B8D6" points="20.0743494 36.4572491 97.4543677 36.4572491 97.4543677 72.1449814 20.0743494 72.1449814"></polygon>
                            <rect id="Rectangle-path" fill="#FFBD35" x="21.1895911" y="74.5525006" width="22.9331254" height="18.7638296"></rect>
                            <rect id="Rectangle-path" fill="#FFBD35" x="46.8401487" y="74.5525006" width="22.9331254" height="18.7638296"></rect>
                            <rect id="Rectangle-path" fill="#FFBD35" x="72.4907063" y="74.5525006" width="22.9331254" height="18.7638296"></rect>
                            <rect id="Rectangle-path" fill="#00B8D6" x="20.2061841" y="96.3834482" width="77.3800183" height="13.5420587"></rect>
                            <polygon id="Rectangle-path" fill="#F15A29" points="20.0743494 112.29368 97.4543677 112.29368 97.4543677 124.075752 20.0743494 124.075752"></polygon>
                            <rect id="Rectangle-path" fill="#00B8D6" x="20.2061841" y="127.996135" width="21.3988385" height="3.1263269"></rect>
                            <rect id="Rectangle-path" fill="#00B8D6" x="47.8720572" y="127.996135" width="21.3988385" height="3.1263269"></rect>
                            <rect id="Rectangle-path" fill="#00B8D6" x="76.187364" y="127.996135" width="21.3988385" height="3.1263269"></rect>
                            <path d="M27.4427921,8.80268454 C27.4427921,8.80268454 27.0150636,14.7880704 30.9551009,18.5258828 C34.8951382,22.2636952 40.1265865,21.1317651 40.1265865,21.1317651 C40.1265865,21.1317651 44.2393603,20.0731254 46.1641385,16.8320593 C48.0889166,13.5909932 48.4426151,8.80268454 48.4426151,8.80268454 L27.4427921,8.80268454 Z" id="Shape" fill="#FFBD35"></path>
                            <path d="M48.3932619,8.80268454 C48.3932619,8.80268454 47.9819845,14.503052 51.790413,18.1105703 C55.5988416,21.7180886 60.6575534,20.6105886 60.6575534,20.6105886 C60.6575534,20.6105886 64.6058162,19.6008092 66.4976922,16.4981806 C68.3895681,13.3955521 68.702139,8.81082793 68.702139,8.81082793 L48.3932619,8.80268454 Z" id="Shape" fill="#F15A29"></path>
                            <path d="M68.71859,8.80268454 C68.71859,8.80268454 68.3073127,14.503052 72.1157412,18.0861402 C75.9241698,21.6692283 80.9664305,20.5780151 80.9664305,20.5780151 C80.9664305,20.5780151 84.9146933,19.5682357 86.7901182,16.506324 C88.665543,13.4444123 88.9945649,8.83525807 88.9945649,8.83525807 L68.71859,8.80268454 Z" id="Shape" fill="#FFBD35"></path>
                            <path d="M88.8218284,8.80268454 C88.8218284,8.80268454 88.4105511,14.6496329 92.194303,18.2978681 C94.5560033,20.465787 97.8090875,21.4096488 100.979188,20.8467467 C100.979188,20.8467467 104.894549,19.8125372 106.737071,16.6447615 C108.579594,13.4769859 108.925067,8.80268454 108.925067,8.80268454 L88.8218284,8.80268454 Z" id="Shape" fill="#F15A29"></path>
                            <path d="M6.92005073,8.80268454 C6.92005073,8.80268454 6.5005478,14.503052 10.3747807,18.1105703 C14.2490137,21.7180886 19.4228831,20.6105886 19.4228831,20.6105886 C19.4228831,20.6105886 23.4369504,19.6008092 25.353503,16.4981806 C27.2700556,13.3955521 27.5990775,8.81082793 27.5990775,8.81082793 L6.92005073,8.80268454 Z" id="Shape" fill="#F15A29"></path>
                        </g>
                        <g id="People-midleft" transform="translate(157.249071, 200.743494)" fill-rule="nonzero">
                            <path d="M34.1944504,84.1782747 C34.1944504,84.1782747 206.664857,97.3772004 20.8024157,99.2017685 L15.467526,98.6106085 L16.9035614,95.8810546 C16.9035614,95.8810546 84.8685943,92.9945878 29.9923113,88.312746 L34.1944504,84.1782747 Z" id="Shape" fill="#010101" opacity="0.100000001"></path>
                            <path d="M25.9071013,4.15636617 C25.9071013,4.15636617 27.277364,-2.86822108 32.6159077,2.18948174 C37.9544515,7.24718456 37.3040334,7.78725672 36.1310885,11.3123223 C34.9581435,14.8373879 42.1858229,17.0524136 36.2626337,23.5296304 C30.3394445,30.0068473 38.4258218,28.7478953 34.9691056,34.579215 C34.9691056,34.579215 34.3004174,30.0031981 31.2785313,28.313648 C28.2566451,26.624098 29.641524,23.1756642 31.6439347,19.9206347 C33.6463453,16.6656052 29.3565094,10.3598978 27.6610376,9.58263175 C25.9655658,8.80536573 25.9071013,4.15636617 25.9071013,4.15636617 Z" id="Shape" fill="#6E4528"></path>
                            <path d="M16.0229392,22.2998715 C16.0229392,22.2998715 13.5199259,38.5421769 10.0193613,47.3949814 L11.4809749,48.0554751 C11.4809749,48.0554751 22.2165269,31.1125355 21.5770709,24.3798792 C21.5770709,24.3798792 22.0374792,17.063361 16.0229392,22.2998715 Z" id="Shape" fill="#EDAC98"></path>
                            <path d="M10.0522476,47.1249453 C10.0522476,47.1249453 7.49442379,48.4240378 7.39211084,50.6463618 C7.39211084,50.6463618 8.06810713,52.2008938 10.7757463,51.0112754 C13.4833856,49.821657 11.5065532,47.8000355 11.5065532,47.8000355 L11.1886522,46.9424885 L10.0522476,47.1249453 Z" id="Shape" fill="#EDAC98"></path>
                            <path d="M6.11685296,55.9266619 C6.06704636,55.9317873 6.01684417,55.9317873 5.96703757,55.9266619 C5.80980953,55.9180888 5.66454588,55.8401204 5.57063438,55.7138976 C5.47672288,55.5876748 5.44389468,55.426277 5.48105104,55.2734665 C6.27763046,52.55486 7.91098367,48.0116854 9.93897256,48.1029138 C11.1886522,48.1613 11.9486913,49.6501476 12.4785262,53.0876339 C12.4875295,53.2400527 12.4336349,53.3895039 12.32939,53.5011929 C12.2251451,53.6128819 12.0796459,53.6770631 11.9267671,53.678794 C11.6003432,53.745677 11.2787997,53.5449816 11.1959603,53.222652 C10.6113148,49.4384977 9.86954591,49.1684616 9.84031364,49.1575142 C9.16066331,49.2523918 7.64789322,52.2884731 6.70515244,55.5252569 C6.6112743,55.7678632 6.37729158,55.9275129 6.11685296,55.9266619 L6.11685296,55.9266619 Z" id="Shape" fill="#5A4A39"></path>
                            <polygon id="Shape" fill="#177B5A" points="2.55416979 56.8097529 16.2677595 50.2595534 17.6599465 51.3506451 4.24233351 57.616212"></polygon>
                            <polygon id="Shape" fill="#1FAA7C" points="2.55416979 56.8097529 0 77.7521457 6.70149841 80.0438033 4.24233351 57.616212"></polygon>
                            <polygon id="Shape" fill="#4BBD96" points="6.70149841 80.0438033 23.298121 71.1399109 17.6599465 51.3506451 4.24233351 57.616212"></polygon>
                            <path d="M8.03887486,57.3388777 L8.00964259,57.3388777 C7.85550417,57.346818 7.70453667,57.2931823 7.59005308,57.1898059 C7.47556948,57.0864296 7.40697968,56.9418095 7.39941891,56.7878581 C7.5601964,53.6350044 8.15214992,48.3145637 10.2897598,48.0919664 C11.3055813,47.9861415 12.5041044,48.6028455 14.385932,53.784619 C14.426364,53.9290211 14.4026431,54.0838146 14.3208172,54.2095318 C14.2389914,54.335249 14.1069683,54.4197405 13.95841,54.4414635 C13.6400836,54.5326984 13.3028402,54.3774951 13.1654846,54.0765499 C11.4261644,49.2925323 10.4797696,49.1319703 10.4395752,49.1283211 C9.70876841,49.3290236 8.87199462,52.9964055 8.67467678,56.8207003 C8.63471584,57.1349425 8.35516189,57.3627784 8.03887486,57.3388777 Z" id="Shape" fill="#A38971"></path>
                            <path d="M8.98892371,48.347406 C8.98892371,48.347406 9.51510461,51.2265745 9.86589188,50.383624 C10.2166791,49.5406735 10.2787977,47.785439 10.2787977,47.785439 C10.2787977,47.785439 9.57356915,47.3110513 8.98892371,48.347406 Z" id="Shape" fill="#EDAC98"></path>
                            <path d="M15.6209955,61.8017713 C15.6209955,61.8017713 19.1471383,77.4273726 29.5063248,83.0689372 L31.2602611,82.204092 C31.2602611,82.204092 21.8584316,70.0269243 25.6768971,61.8017713 L20.5612495,59.2692707 L15.6209955,61.8017713 Z" id="Shape" fill="#CE8A78"></path>
                            <path d="M29.5209409,83.0689372 L29.9996194,86.1196151 C29.7901536,86.8376626 29.6302192,87.5692044 29.5209409,88.3090969 C29.5209409,88.3090969 32.4441681,87.4624973 32.9191926,85.6853679 L32.7657231,84.0396075 L33.8619333,84.7694347 L34.1798343,84.1527307 L31.2566071,82.1821971 L29.5209409,83.0689372 Z" id="Shape" fill="#23A6B3"></path>
                            <path d="M22.3517262,62.3053521 C22.0541558,72.4673589 20.9200168,82.5876989 18.9607826,92.5639897 L21.153203,93.5966953 C21.153203,93.5966953 30.1530888,71.2384376 32.7657231,64.7064837 L29.5209409,59.9297644 L22.3517262,62.3053521 Z" id="Shape" fill="#EDAC98"></path>
                            <path d="M20.8024157,93.5966953 L20.8024157,99.2017685 L19.3408021,99.2017685 L19.3408021,96.7641455 L15.467526,98.6106085 C15.467526,98.6106085 12.135047,98.0814837 10.7794004,96.3007052 C12.0181046,95.9974414 13.3046098,95.9416353 14.5649796,96.1364941 L18.7671188,92.5639897 L20.8024157,93.5966953 Z" id="Shape" fill="#23A6B3"></path>
                            <path d="M21.8218912,18.8733326 C21.8218912,18.8733326 29.8351878,22.1320113 29.9923113,24.7703368 C30.1494348,27.4086623 25.877869,41.6585393 25.877869,42.1986114 C25.877869,42.7386836 37.8704087,51.5768915 32.7620691,64.7101328 C32.7620691,64.7101328 25.7792101,69.7933796 15.248284,62.4002296 C15.248284,62.4002296 14.4334344,50.4712033 16.0192852,47.3365952 C16.0192852,47.3365952 14.6380603,40.9250629 14.7038329,36.3453969 L11.9450372,31.4665017 C11.9450372,31.4665017 13.1874088,24.3178439 21.8218912,18.8733326 Z" id="Shape" fill="#60CAE3"></path>
                            <path d="M25.9071013,21.508009 C25.9071013,21.508009 23.4187041,26.2737809 20.9047287,25.9344112 C18.3907533,25.5950415 15.789081,25.3286546 16.9876042,24.0770009 L19.9108314,21.0190247 L20.0716089,17.9172589 L25.1872566,17.7530478 L25.9071013,21.508009 Z" id="Shape" fill="#DE9684"></path>
                            <path d="M28.775518,59.0941122 C28.7256935,59.0988782 28.675527,59.0988782 28.6257026,59.0941122 C28.4754729,59.0786857 28.338829,59.0003948 28.2496713,58.8786628 C28.1605136,58.7569309 28.1271967,58.603165 28.1579862,58.4555133 C28.9545656,55.7369068 30.5879188,51.1937322 32.6159077,51.2849606 C33.8655874,51.3433468 34.6219724,52.8321944 35.1554614,56.2696807 C35.1644647,56.4220995 35.1105701,56.5715507 35.0063252,56.6832397 C34.9020802,56.7949287 34.7565811,56.8591099 34.6037022,56.8608408 C34.2772784,56.9277238 33.9557349,56.7270284 33.8728954,56.4046988 C33.28825,52.6205445 32.5464811,52.3505084 32.5172488,52.339561 C31.8375985,52.4380877 30.3248284,55.4705199 29.3820876,58.7073037 C29.2811484,58.9505292 29.0389333,59.1049893 28.775518,59.0941122 Z" id="Shape" fill="#28221B"></path>
                            <polygon id="Shape" fill="#155A57" points="25.2128348 59.9808523 38.9264245 53.4270036 40.3186115 54.5180953 26.9009985 60.7836623"></polygon>
                            <polygon id="Shape" fill="#1A928E" points="25.2128348 59.9808523 22.658665 80.9232451 29.3601634 83.2112536 26.9009985 60.7836623"></polygon>
                            <polygon id="Shape" fill="#43C1C4" points="29.3601634 83.2112536 45.956786 74.3110103 40.3186115 54.5180953 26.9009985 60.7836623"></polygon>
                            <path d="M30.6938858,60.5209244 L30.6683076,60.5209244 C30.5126983,60.5298611 30.360082,60.4755842 30.2451559,60.3704338 C30.1302297,60.2652833 30.0627593,60.118194 30.0580839,59.9626066 C30.2188614,56.8097529 30.8108149,51.4856631 32.9484248,51.2630658 C33.9642463,51.1572409 35.1591154,51.7739449 37.044597,56.9520692 C37.0863023,57.0965312 37.0631236,57.2519605 36.9810768,57.3780171 C36.89903,57.5040738 36.766205,57.5883284 36.617075,57.6089137 C36.297613,57.7022125 35.9580765,57.5466706 35.8204956,57.2440001 C34.0811754,52.4599825 33.1347806,52.2994205 33.0945862,52.2921222 C32.3637794,52.4928247 31.5270056,56.1675049 31.3296878,59.9917997 C31.2915765,60.3085297 31.0127142,60.5406035 30.6938858,60.5209244 Z" id="Shape" fill="#5C4B3A"></path>
                            <path d="M25.4101526,28.17863 C25.4101526,28.17863 30.3796389,41.3483627 31.7023992,50.9966789 L33.4197952,50.7010988 C33.4197952,50.7010988 34.4356167,34.47339 31.1689103,26.8795375 C31.1689103,26.8795375 28.457617,18.6105948 25.4101526,28.17863 Z" id="Shape" fill="#EDAC98"></path>
                            <path d="M33.4197952,50.7010988 C33.4197952,50.7010988 35.4770164,53.4160562 34.8448685,54.2188662 L31.9216413,55.178589 C31.9216413,55.178589 31.0958296,53.2117046 29.9850032,53.6678466 C29.9850032,53.6678466 30.496568,51.7192079 31.6914371,50.9930297 L32.5939835,50.0479035 L33.4197952,50.7010988 Z" id="Shape" fill="#EDAC98"></path>
                            <path d="M16.9839502,7.38950087 C16.9839502,7.38950087 14.2982352,8.11932812 15.03635,11.5020774 C15.7744649,14.8848267 14.9048048,15.7934616 13.9401398,18.0048382 C12.9754748,20.2162147 16.9035614,19.5995107 15.8621617,23.303384 C14.820762,27.0072573 16.7756702,27.4962415 13.9730261,31.072395 C13.9730261,31.072395 15.2409759,27.9122431 13.746476,26.5219222 C10.4578454,23.4675951 15.5406067,23.2997349 13.9437939,20.624918 C12.346981,17.9501011 11.3384676,17.8406271 13.2641435,12.5968183 C14.8792266,8.2178548 13.6295469,5.90065329 17.4589746,6.87497267 L16.9839502,7.38950087 Z" id="Shape" fill="#9A633E"></path>
                            <ellipse id="Oval" fill="#EDAC98" cx="21.580725" cy="12.9325388" rx="7.45422942" ry="8.2178548"></ellipse>
                            <path d="M17.1739599,7.60115078 C16.6592022,7.59325957 16.1482239,7.69010357 15.6721519,7.8857834 C17.4224342,4.55412202 18.6684599,3.69657501 22.7500159,3.67468019 C27.270056,3.64913623 29.0313004,7.54641373 29.0313004,7.54641373 C31.7718259,15.3665127 26.6050218,18.9974032 26.6050218,18.9974032 C25.874215,18.2894708 25.4174607,16.8079215 25.4174607,16.8079215 C25.4174607,16.8079215 26.2286563,17.866171 26.7804154,15.3117756 C27.3321745,12.7573803 25.019171,13.9032091 25.019171,13.9032091 C25.2786074,18.3806992 21.3285966,20.3512328 23.6744865,24.08065 C26.0203763,27.8100672 22.54539,27.8100672 23.199462,30.7147797 C23.8535341,33.6194921 21.8949719,34.6157063 21.8949719,34.6157063 C22.5015415,33.0100864 21.2993644,30.8862891 21.2993644,30.8862891 C19.3115698,27.5436803 25.5782382,27.6604527 22.1544083,23.7741226 C18.7305784,19.8877925 20.8937666,17.6618194 22.1544083,15.7971108 C23.4150501,13.9324021 22.7573239,12.4800459 22.7573239,12.4800459 C22.1799866,9.85266783 21.1860893,8.52803138 20.1995001,7.91132736 C19.2127292,7.65444329 18.1924115,7.54984093 17.1739599,7.60115078 L17.1739599,7.60115078 Z" id="Shape" fill="#9A633E"></path>
                        </g>
                        <g id="People-right" transform="translate(442.750929, 196.282528)" fill-rule="nonzero">
                            <path d="M14.6894397,87.861583 C14.6894397,87.861583 187.151565,106.444757 26.7268279,102.635949 L26.5392713,99.1470812 C26.5392713,99.1470812 63.6754953,98.3472315 16.8725996,91.2247605 L14.6894397,87.861583 Z" id="Shape" fill="#010101" opacity="0.100000001"></path>
                            <path d="M31.1344101,22.0910864 C31.1344101,22.0910864 34.8855438,39.8020436 38.47913,49.0422119 L36.9786765,49.7316061 C36.9786765,49.7316061 25.8828228,31.4188572 26.5392713,24.3763712 C26.5392713,24.3763712 24.9787996,16.6406822 31.1344101,22.0910864 Z" id="Shape" fill="#EDAC98"></path>
                            <path d="M36.8586402,48.2309358 C36.8586402,48.2309358 39.4844338,49.5868714 39.5894656,51.9064355 C39.5894656,51.9064355 38.8955058,53.5327965 36.1159157,52.2873163 C33.3363256,51.0418361 35.365689,48.9355652 35.365689,48.9355652 L35.6957887,48.0404954 L36.8586402,48.2309358 Z" id="Shape" fill="#EDAC98"></path>
                            <path d="M40.8873578,57.4177807 C40.9385126,57.4226196 40.9899996,57.4226196 41.0411543,57.4177807 C41.1960552,57.4026794 41.3373157,57.3213824 41.4296497,57.1941972 C41.5219838,57.0670119 41.5566724,56.9059484 41.5250506,56.7512393 C40.7073034,53.9136773 39.0305466,49.1717113 36.9486674,49.2669315 C35.6657797,49.3278725 34.889295,50.8818661 34.3416294,54.4659545 C34.3323869,54.6250425 34.3877137,54.7810331 34.4947287,54.8976092 C34.6017438,55.0141852 34.7511093,55.0811747 34.9080506,55.0829814 C35.2431486,55.1527909 35.5732366,54.9433139 35.6582774,54.6068804 C36.2584588,50.6571465 37.0199389,50.3752947 37.049948,50.3638682 C37.7476589,50.4667061 39.3006283,53.6318255 40.2684208,57.0102382 C40.3703608,57.2642566 40.6173631,57.4268965 40.8873578,57.4177807 Z" id="Shape" fill="#5A4A39"></path>
                            <polygon id="Shape" fill="#5E1111" points="44.5559666 58.3395122 30.4779617 51.5027018 29.0487797 52.6415354 42.8229428 59.1812588"></polygon>
                            <polygon id="Shape" fill="#CD5959" points="44.5559666 58.3395122 47.1780091 80.1982613 40.2984298 82.5863839 42.8229428 59.1812588"></polygon>
                            <polygon id="Shape" fill="#B72D2A" points="40.2984298 82.5863839 23.2607804 73.2967012 29.0487797 52.6415354 42.8229428 59.1812588"></polygon>
                            <path d="M38.9330171,58.8917894 L38.9630262,58.8917894 C39.1212606,58.9000771 39.2762398,58.8440945 39.3937656,58.7361948 C39.5112914,58.6282951 39.5817039,58.4773471 39.5894656,58.3166593 C39.4244157,55.0258492 38.816732,49.4726072 36.6223188,49.2402699 C35.5795036,49.1298144 34.3491317,49.773503 32.4172978,55.1820104 C32.3744843,55.3327934 32.3982789,55.4950237 32.4825059,55.6265961 C32.566733,55.7581684 32.7030876,55.8461098 32.8561805,55.8675958 C33.1841317,55.9649769 33.5326907,55.8026292 33.6739276,55.486715 C35.4594673,50.4933677 36.4310109,50.3257802 36.4722734,50.3219713 C37.2225002,50.5314558 38.0815098,54.3593078 38.284071,58.3509386 C38.3267903,58.6763717 38.6103329,58.9126845 38.9330171,58.8917894 L38.9330171,58.8917894 Z" id="Shape" fill="#A38971"></path>
                            <path d="M37.9502201,49.5145041 C37.9502201,49.5145041 37.4100568,52.5196536 37.049948,51.6398189 C36.6898392,50.7599843 36.6260699,48.9279476 36.6260699,48.9279476 C36.6260699,48.9279476 37.3500387,48.425185 37.9502201,49.5145041 Z" id="Shape" fill="#EDAC98"></path>
                            <path d="M31.1344101,63.5499615 C31.1344101,63.5499615 27.514566,79.8592774 16.8801019,85.7476946 L15.0795577,84.8450071 C15.0795577,84.8450071 24.7312248,72.1350148 20.8150412,63.5499615 L26.0666284,60.9066488 L31.1344101,63.5499615 Z" id="Shape" fill="#CE8A78"></path>
                            <path d="M16.8801019,85.7476946 L16.3887033,88.9242405 C16.6036897,89.6737187 16.7678734,90.4372666 16.8801019,91.2095253 C16.8801019,91.2095253 13.8791949,90.3258818 13.3915475,88.4709923 L13.5490951,86.7532199 L12.423755,87.5340255 L12.0974063,86.890337 L15.0983133,84.8335807 L16.8801019,85.7476946 Z" id="Shape" fill="#BC2A26"></path>
                            <path d="M24.232324,64.075577 C24.5378017,74.6822331 25.7020786,85.2453991 27.7133761,95.658213 L25.4626959,96.7361057 C25.4626959,96.7361057 16.2199023,73.399539 13.5415928,66.5817727 L16.8801019,61.596043 L24.232324,64.075577 Z" id="Shape" fill="#EDAC98"></path>
                            <path d="M25.6014878,96.7437233 L25.6014878,102.643567 L26.7268279,102.643567 L26.7268279,100.049769 L30.9993693,101.977025 C30.9993693,101.977025 34.5704486,101.424748 35.9621192,99.56605 C34.7162866,99.2473669 33.4196694,99.189055 32.1509673,99.3946537 L27.7583897,95.658213 L25.6014878,96.7437233 Z" id="Shape" fill="#BC2A26"></path>
                            <path d="M24.7762384,18.7393354 C24.7762384,18.7393354 16.5500021,22.1406009 16.3887033,24.8981779 C16.2274046,27.6557549 20.6124799,42.5253414 20.6124799,43.0890449 C20.6124799,43.6527485 8.30125898,52.8776815 13.545344,66.5855815 C13.545344,66.5855815 20.7137605,71.8912511 31.524528,64.1746061 C31.524528,64.1746061 33.4226017,51.7007598 31.7908585,48.4289938 C31.7908585,48.4289938 33.5839004,41.5388601 33.5126289,36.758806 L36.8061243,31.3007842 C36.8061243,31.3007842 33.6401674,24.4258857 24.7762384,18.7393354 Z" id="Shape" fill="#F05246"></path>
                            <path d="M20.586222,21.4931036 C20.586222,21.4931036 23.1407441,26.444554 25.7215241,26.1131877 C28.3023041,25.7818214 31.6970802,24.9057955 30.4704594,23.6146096 C29.2438387,22.3234237 26.7418325,20.9979585 26.7418325,20.9979585 L26.5767826,17.7604717 L21.3251953,17.5890754 L20.586222,21.4931036 Z" id="Shape" fill="#DE9684"></path>
                            <ellipse id="Oval" fill="#E2A94D" cx="16.6287759" cy="6.05600473" rx="5.28909858" ry="6.05600473"></ellipse>
                            <ellipse id="Oval" fill="#EDAC98" cx="25.0238132" cy="12.5385959" rx="7.65231284" ry="8.57743562"></ellipse>
                            <path d="M31.0818942,7.30148494 C31.0818942,7.30148494 23.39207,4.89431829 21.4939964,13.5517389 C21.4939964,13.5517389 19.1157776,12.359582 19.6859499,15.0219388 C20.2561222,17.6842956 21.0888739,16.58355 21.0888739,16.58355 C21.0888739,16.58355 20.6312356,18.1337349 19.8810089,18.8726437 C19.8810089,18.8726437 14.5731546,15.0904973 17.390256,6.92441295 C17.390256,6.92441295 19.1983025,2.86803243 23.8309527,2.89469408 C28.0059645,2.91754693 29.2851012,3.808808 31.0818942,7.30148494 Z" id="Shape" fill="#FFC96B"></path>
                            <path d="M25.0238132,7.95659992 C25.0238132,7.95659992 21.569019,16.4883298 24.1122877,23.2337288 C22.7563376,20.7592823 22.1753567,17.9239772 22.4467843,15.1057325 C22.9719431,10.6113391 24.1422968,6.63494354 25.0238132,7.95659992 Z" id="Shape" fill="#FFC96B"></path>
                            <path d="M30.5904957,7.17960309 C30.5904957,7.17960309 36.6410744,13.0908731 32.9612122,21.1160316 C32.9612122,21.1160316 36.7723641,16.8806371 33.7489503,8.95450762 C30.7255365,1.02837816 30.5904957,7.17960309 30.5904957,7.17960309 Z" id="Shape" fill="#FFC96B"></path>
                            <path d="M17.6303286,60.723826 C17.6814678,60.7289938 17.7329859,60.7289938 17.7841251,60.723826 C17.939026,60.7087248 18.0802865,60.6274278 18.1726205,60.5002425 C18.2649546,60.3730573 18.2996432,60.2119938 18.2680213,60.0572846 C17.4502742,57.2197226 15.7735174,52.4777567 13.6916382,52.5729769 C12.4087504,52.6339178 11.6285146,54.1879115 11.0846002,57.7758086 C11.0753577,57.9348966 11.1306844,58.0908872 11.2376995,58.2074633 C11.3447145,58.3240394 11.4940801,58.3910289 11.6510214,58.3928355 C11.9852662,58.447586 12.303866,58.2291412 12.3787414,57.8938817 C12.9789228,53.9441478 13.7404029,53.662296 13.770412,53.6508695 C14.4681229,53.7537074 16.0210922,56.9188268 16.9888847,60.2972395 C17.0872652,60.5670123 17.3474624,60.7400541 17.6303286,60.723826 Z" id="Shape" fill="#28221B"></path>
                            <polygon id="Shape" fill="#462E16" points="21.2951863 61.6455575 7.21343019 54.8087472 5.78799937 55.9475808 19.5621625 62.4873041"></polygon>
                            <polygon id="Shape" fill="#C19165" points="21.2951863 61.6455575 23.9172288 83.5081155 17.0376495 85.8962381 19.5621625 62.4873041"></polygon>
                            <polygon id="Shape" fill="#9A6933" points="17.0376495 85.8962381 0 76.6065554 5.78799937 55.9475808 19.5621625 62.4873041"></polygon>
                            <path d="M15.6722368,61.8817036 L15.7022459,61.8817036 C16.0773592,61.8817036 16.3436897,61.7712482 16.3286852,61.4665436 C16.1636353,58.1757335 15.5559516,52.7062852 13.3615384,52.4701391 C12.3187232,52.3596836 11.0921025,53.0414603 9.15651747,58.4499676 C9.11383576,58.603035 9.13729718,58.7673114 9.22104148,58.9017635 C9.30478578,59.0362156 9.4409054,59.1281478 9.59540012,59.1545971 C9.91776182,59.2587783 10.2664755,59.1061037 10.4131473,58.7965692 C12.1986869,53.8032219 13.1702306,53.6394431 13.2114931,53.6356343 C13.9617198,53.8451188 14.8207294,57.5168097 15.0232907,61.5084405 C15.0307929,61.8055275 15.3196302,61.8817036 15.6722368,61.8817036 Z" id="Shape" fill="#5C4B3A"></path>
                            <path d="M21.0926251,28.4556046 C21.0926251,28.4556046 15.9910832,42.2015927 14.6294216,52.272081 L12.8663887,51.9635676 C12.8663887,51.9635676 11.8273247,35.0410336 15.1808383,27.0996689 C15.1808383,27.0996689 17.9641795,18.4651012 21.0926251,28.4556046 Z" id="Shape" fill="#EDAC98"></path>
                            <path d="M12.8701399,51.9635676 C12.8701399,51.9635676 10.7582516,54.7973208 11.4071977,55.6352585 L14.4081047,56.6407838 C14.4081047,56.6407838 15.2558609,54.5878363 16.3962056,55.0639373 C16.3962056,55.0639373 15.8710469,53.0300338 14.6444261,52.272081 L13.7178961,51.2855998 L12.8701399,51.9635676 Z" id="Shape" fill="#EDAC98"></path>
                        </g>
                        <g id="People-midright" transform="translate(298.884758, 206.319703)" fill-rule="nonzero">
                            <path d="M26.9830971,85.8032358 C26.9830971,85.8032358 171.140059,97.7474737 7.44349733,91.6285669 L5.6455187,88.2672915 C5.6455187,88.2672915 30.4213958,88.1122572 26.9830971,85.8032358 Z" id="Shape" fill="#010101" opacity="0.100000001"></path>
                            <path d="M9.80166705,87.7626054 C9.80166705,87.7626054 10.2545161,90.0716268 9.80166705,90.8731871 C9.34881796,91.6747474 7.61121921,91.7242264 5.6455187,90.8731871 C3.67981819,90.0221478 -1.16734433,87.8384732 0.791647305,85.1929944 C0.791647305,85.1929944 2.75063894,84.3188649 7.41666183,86.8752814 L9.80166705,87.7626054 Z" id="Shape" fill="#886F59"></path>
                            <path d="M28.2141758,84.9554951 C28.2141758,84.9554951 29.4419,87.1061836 29.4821532,87.8087858 C29.4821532,87.8087858 28.3483533,89.075449 27.2816421,89.075449 C26.2149309,89.075449 22.8101766,88.2540971 22.8101766,88.2540971 C22.8101766,88.2540971 19.2779536,85.9219854 21.3442873,84.9950783 C23.4106209,84.0681711 24.8932824,85.2853553 25.0844854,84.9554951 L28.2141758,84.9554951 Z" id="Shape" fill="#886F59"></path>
                            <path d="M23.6856848,16.6909262 C23.6856848,16.6909262 20.8344128,15.7013456 19.2947258,20.820776 C17.7550389,25.9402063 16.9466194,26.7318708 16.9466194,26.7318708 C16.9466194,26.7318708 20.1266264,31.1750877 23.4810641,30.1459239 C23.4810641,30.1459239 30.2301928,19.1813708 23.6856848,16.6909262 Z" id="Shape" fill="#C98C2B"></path>
                            <path d="M8.64774047,48.8951778 C8.64774047,48.8951778 20.2205507,38.5936436 26.7784764,44.2012671 C26.9059451,44.2012671 22.3237831,67.848945 28.4556953,84.823551 C28.9588609,86.215561 24.7423327,86.1429918 24.0077109,84.4936908 C18.1475081,71.4675114 17.2887721,66.7373161 17.1411768,58.3852558 C17.0667679,57.965039 16.9347414,57.5566883 16.7487076,57.1713702 C11.5962912,64.2006911 9.75135049,72.7869522 10.0096422,87.2249332 C10.0364777,88.7488874 5.55830332,88.9006231 5.31342937,87.1259752 C2.2843721,65.4706529 8.64774047,48.8951778 8.64774047,48.8951778 Z" id="Shape" fill="#3F382F"></path>
                            <path d="M22.1795423,16.9020368 C20.2440317,16.0246086 9.09723513,17.9213048 9.76812268,28.2096445 C10.2880605,35.8426096 8.93286768,45.8967485 8.63096829,48.8951778 C8.63096829,48.8951778 12.1564823,57.5078276 21.6830855,50.874339 C24.2827747,49.0700037 28.391961,48.2783392 26.4631593,42.420022 C21.5824524,27.6257919 32.3099442,21.2693858 22.1795423,16.9020368 Z" id="Shape" fill="#F2AC2F"></path>
                            <path d="M14.383829,27.6257919 C11.0696445,24.8846536 10.2847061,29.0276978 10.2847061,29.0276978 C11.2474297,39.751453 9.61381854,46.6323368 9.21128601,48.1595895 C8.65220062,48.2577641 8.15797118,48.5758101 7.84267542,49.0403162 L5.86691159,50.6434368 C5.63408686,50.8559436 5.60986585,51.2100057 5.81164915,51.451262 C6.01343245,51.6925183 6.37139304,51.7374821 6.62836896,51.553851 L7.09128137,51.181109 L6.70887546,52.4477721 C6.54797598,52.9669925 6.60357689,53.5278135 6.86343035,54.0066967 C7.12328382,54.4855799 7.56607249,54.8432396 8.09425825,55.0008901 L8.13115706,55.0008901 C8.65916451,55.1613981 9.23042581,55.1086465 9.71881504,54.8542821 C10.2072043,54.5999177 10.5725541,54.1648605 10.7342007,53.6451647 L11.6030001,50.7984711 C11.7618456,50.2844658 11.7075851,49.7295497 11.4520504,49.2547254 C15.6652242,42.726792 14.383829,27.6257919 14.383829,27.6257919 Z" id="Shape" fill="#FDD7C7"></path>
                            <path d="M15.7121863,35.1136185 C15.7121863,35.1136185 15.4237047,29.8358553 15.7121863,27.028745 C16.000668,24.2216346 15.1922485,21.9818839 13.2299024,21.8499398 C11.2675563,21.7179957 9.47628659,22.8560134 9.18445051,28.4834285 L8.60748722,33.6457406 C8.60748722,33.6457406 10.1673008,38.2835751 15.7121863,35.1136185 Z" id="Shape" fill="#C98C2B"></path>
                            <path d="M20.6801086,16.8690507 C20.6801086,16.8690507 19.1202951,19.7520289 15.7658573,19.2275512 C15.7658573,19.2275512 13.9611698,18.9504686 14.652184,18.5678308 C15.3959598,17.0343762 15.7767174,15.3551262 15.7658573,13.6562124 L19.878398,12.6072569 L20.6801086,16.8690507 Z" id="Shape" fill="#EABFB0"></path>
                            <ellipse id="Oval" fill="#FDD7C7" cx="16.2455419" cy="8.52028902" rx="7.70849791" ry="8.10466517"></ellipse>
                            <path d="M18.261559,16.344573 L13.9443977,13.319755 C13.9443977,13.319755 15.0647799,8.90622546 12.7468634,8.9721975 L11.8478741,10.6676789 L11.472177,8.52028902 C11.472177,8.52028902 8.00704287,5.80224096 8.54039847,3.66804545 C9.07375407,1.53384994 16.591049,-2.4541599 20.928337,2.08141788 C20.928337,2.08141788 28.821329,6.09911514 21.3509962,15.6056862 C20.3621262,15.9951086 19.3218474,16.2439074 18.261559,16.344573 Z" id="Shape" fill="#7B594F"></path>
                        </g>
                    </g>
                    <g id="Group" transform="translate(184.000000, 98.000000)" fill="#FFFFFF">
                        <path d="M48.2823396,18.152837 L34.9942007,3.10784 C33.7781731,1.95376599 31.9761789,1.64618083 30.4399931,2.33047529 L12.6701274,11.6827707 L11.7882782,10.1160819 L29.6185446,0.775745865 C31.88531,-0.258959959 34.5635882,0.218792231 36.3230146,1.97169158 L49.6111535,17.0884454 L48.2823396,18.152837 Z" id="Shape" fill-rule="nonzero"></path>
                        <path d="M47.0984872,41.9999945 L5.24084978,34.3100636 C2.33973334,33.7716602 0.423226193,31.0138029 0.952404961,28.1389837 L3.70667375,13.4527704 C4.25050954,10.5806334 7.03619317,8.68327036 9.94001889,9.20716312 L51.8218166,16.897094 C54.722933,17.4354974 56.6394402,20.1933547 56.1102614,23.0681739 L53.3559926,37.7543872 C52.7945923,40.6260534 50.006278,42.5178755 47.0984872,41.9999945 L47.0984872,41.9999945 Z M9.65009586,10.9891222 C7.73554847,10.6400848 5.89734299,11.8925654 5.54285294,13.7876352 L2.78858415,28.4738485 C2.43602499,30.3692714 3.70114288,32.1891149 5.61533369,32.5400639 L47.4729711,40.2299949 C49.3875185,40.5790323 51.225724,39.3265517 51.5802141,37.4314819 L54.2378418,22.7452686 C54.590401,20.8498457 53.3252831,19.0300022 51.4110923,18.6790532 L9.65009586,10.9891222 Z" id="Shape" fill-rule="nonzero"></path>
                        <path d="M47.9440961,21.6449985 L11.764118,15.0074998 C11.0350784,14.8712553 10.2812471,15.0280396 9.66921748,15.4432044 C9.05718782,15.8583691 8.63734915,16.4977329 8.50248387,17.2199994 L6.81126619,26.2135111 C6.67364695,26.9352683 6.83201326,27.6815695 7.25136692,28.2874855 C7.67072057,28.8934016 8.31653548,29.3090464 9.04608955,29.4425645 L45.2260677,36.0800632 C45.9551073,36.2163078 46.7089385,36.0595234 47.3209681,35.6443587 C47.9329978,35.229194 48.3528365,34.5898302 48.4877018,33.8675637 L50.1668393,24.9458087 C50.3335405,24.2145091 50.1901438,23.4475251 49.7700944,22.8237448 C49.3500449,22.1999645 48.6900689,21.7739266 47.9440961,21.6449985 L47.9440961,21.6449985 Z" id="Shape" fill-rule="nonzero"></path>
                    </g>
                </g>
                <path d="M270.663298,165.238281 C270.409576,165.238281 270.188479,165.211701 270,165.158541 L270,164.2234 C270.193312,164.271727 270.369706,164.295891 270.529188,164.295891 C270.775661,164.295891 270.952055,164.219172 271.058377,164.06573 C271.164698,163.912289 271.217858,163.672465 271.217858,163.346252 L271.217858,158.380581 L272.341477,158.380581 L272.341477,163.339003 C272.341477,163.9576 272.20012,164.428791 271.917401,164.752588 C271.634683,165.076385 271.216653,165.238281 270.663298,165.238281 Z M274.981006,160.337852 C274.746615,160.337852 274.562972,160.412156 274.43007,160.560764 C274.297168,160.709372 274.221053,160.9202 274.201722,161.193253 L275.753041,161.193253 C275.748208,160.9202 275.676925,160.709372 275.539191,160.560764 C275.401456,160.412156 275.215396,160.337852 274.981006,160.337852 Z M275.136863,163.752204 C274.484436,163.752204 273.974583,163.572186 273.607291,163.212142 C273.239999,162.852099 273.056355,162.342247 273.056355,161.682571 C273.056355,161.003563 273.226105,160.478609 273.565608,160.107692 C273.905112,159.736775 274.37449,159.551319 274.973757,159.551319 C275.546443,159.551319 275.992261,159.714424 276.311226,160.040637 C276.63019,160.366851 276.78967,160.817502 276.78967,161.392605 L276.78967,161.929042 L274.17635,161.929042 C274.188432,162.243174 274.281462,162.488434 274.455442,162.664831 C274.629423,162.841228 274.873475,162.929425 275.187607,162.929425 C275.431663,162.929425 275.662425,162.904054 275.879901,162.853309 C276.097377,162.802565 276.324515,162.721617 276.561322,162.610463 L276.561322,163.465863 C276.36801,163.562519 276.161411,163.634405 275.941519,163.681525 C275.721627,163.728645 275.453411,163.752204 275.136863,163.752204 Z M279.110236,162.871432 C279.303548,162.871432 279.535519,162.829146 279.806155,162.744572 L279.806155,163.567351 C279.530686,163.690587 279.192395,163.752204 278.791273,163.752204 C278.349073,163.752204 278.027093,163.640448 277.825323,163.416931 C277.623554,163.193414 277.522671,162.858144 277.522671,162.411111 L277.522671,160.457464 L276.993483,160.457464 L276.993483,159.989893 L277.602412,159.620186 L277.921375,158.764786 L278.628167,158.764786 L278.628167,159.627435 L279.76266,159.627435 L279.76266,160.457464 L278.628167,160.457464 L278.628167,162.411111 C278.628167,162.568177 278.672266,162.684162 278.760464,162.75907 C278.848663,162.833979 278.965252,162.871432 279.110236,162.871432 Z M283.159726,163.679713 L279.959224,163.679713 L279.959224,163.027289 L281.836755,160.471962 L280.071586,160.471962 L280.071586,159.627435 L283.094483,159.627435 L283.094483,160.345102 L281.267696,162.835186 L283.159726,162.835186 L283.159726,163.679713 Z M285.382428,162.871432 C285.57574,162.871432 285.80771,162.829146 286.078347,162.744572 L286.078347,163.567351 C285.802878,163.690587 285.464587,163.752204 285.063465,163.752204 C284.621265,163.752204 284.299284,163.640448 284.097515,163.416931 C283.895746,163.193414 283.794863,162.858144 283.794863,162.411111 L283.794863,160.457464 L283.265675,160.457464 L283.265675,159.989893 L283.874604,159.620186 L284.193567,158.764786 L284.900359,158.764786 L284.900359,159.627435 L286.034852,159.627435 L286.034852,160.457464 L284.900359,160.457464 L284.900359,162.411111 C284.900359,162.568177 284.944458,162.684162 285.032656,162.75907 C285.120855,162.833979 285.237444,162.871432 285.382428,162.871432 Z M289.316768,161.47597 L289.798836,160.859792 L290.933329,159.627435 L292.180184,159.627435 L290.570871,161.385355 L292.278047,163.679713 L291.002196,163.679713 L289.835082,162.037779 L289.360262,162.41836 L289.360262,163.679713 L288.254766,163.679713 L288.254766,158.03987 L289.360262,158.03987 L289.360262,160.555327 L289.302269,161.47597 L289.316768,161.47597 Z M295.145925,163.679713 L294.932074,163.128777 L294.903078,163.128777 C294.717015,163.363168 294.525519,163.525668 294.328582,163.616283 C294.131646,163.706898 293.874908,163.752204 293.55836,163.752204 C293.16932,163.752204 292.863046,163.641052 292.639529,163.418743 C292.416013,163.196435 292.304256,162.879892 292.304256,162.469104 C292.304256,162.038985 292.454674,161.721838 292.755516,161.517652 C293.056357,161.313467 293.510029,161.200502 294.116545,161.178754 L294.819713,161.157007 L294.819713,160.979403 C294.819713,160.568615 294.609489,160.363225 294.189036,160.363225 C293.865239,160.363225 293.484662,160.461087 293.047294,160.656815 L292.681212,159.910152 C293.147577,159.666096 293.664678,159.54407 294.232531,159.54407 C294.77622,159.54407 295.193043,159.662472 295.48301,159.899279 C295.772978,160.136086 295.91796,160.496123 295.91796,160.979403 L295.91796,163.679713 L295.145925,163.679713 Z M294.819713,161.802182 L294.392012,161.81668 C294.070632,161.826346 293.831412,161.884338 293.674346,161.99066 C293.51728,162.096981 293.438749,162.258877 293.438749,162.476353 C293.438749,162.788068 293.617559,162.943924 293.975186,162.943924 C294.231324,162.943924 294.436111,162.870225 294.589552,162.722824 C294.742993,162.575424 294.819713,162.379699 294.819713,162.135643 L294.819713,161.802182 Z M299.641237,163.679713 L299.492629,163.161398 L299.434636,163.161398 C299.316233,163.349877 299.148296,163.495463 298.93082,163.59816 C298.713344,163.700857 298.465667,163.752204 298.187782,163.752204 C297.711751,163.752204 297.352922,163.624741 297.111282,163.369812 C296.869642,163.114882 296.748824,162.748199 296.748824,162.269752 L296.748824,159.627435 L297.85432,159.627435 L297.85432,161.994284 C297.85432,162.286668 297.906272,162.505953 298.010177,162.652145 C298.114082,162.798337 298.279603,162.871432 298.506744,162.871432 C298.816043,162.871432 299.039557,162.768133 299.177291,162.561531 C299.315026,162.354929 299.383892,162.01241 299.383892,161.533963 L299.383892,159.627435 L300.489388,159.627435 L300.489388,163.679713 L299.641237,163.679713 Z M303.603737,160.457464 L302.646848,160.457464 L302.646848,163.679713 L301.541352,163.679713 L301.541352,160.457464 L300.932423,160.457464 L300.932423,159.924651 L301.541352,159.627435 L301.541352,159.33022 C301.541352,158.868688 301.654921,158.531606 301.882062,158.318963 C302.109204,158.10632 302.472866,158 302.97306,158 C303.354851,158 303.69435,158.056784 303.991567,158.170355 L303.708849,158.982261 C303.486541,158.912185 303.28115,158.877148 303.092671,158.877148 C302.935605,158.877148 302.822037,158.923663 302.751961,159.016694 C302.681886,159.109725 302.646848,159.228731 302.646848,159.373715 L302.646848,159.627435 L303.603737,159.627435 L303.603737,160.457464 Z M305.630712,160.337852 C305.396321,160.337852 305.212678,160.412156 305.079776,160.560764 C304.946874,160.709372 304.870759,160.9202 304.851428,161.193253 L306.402747,161.193253 C306.397914,160.9202 306.326632,160.709372 306.188897,160.560764 C306.051162,160.412156 305.865103,160.337852 305.630712,160.337852 Z M305.786569,163.752204 C305.134142,163.752204 304.624289,163.572186 304.256997,163.212142 C303.889705,162.852099 303.706061,162.342247 303.706061,161.682571 C303.706061,161.003563 303.875811,160.478609 304.215314,160.107692 C304.554818,159.736775 305.024196,159.551319 305.623463,159.551319 C306.196149,159.551319 306.641968,159.714424 306.960932,160.040637 C307.279896,160.366851 307.439376,160.817502 307.439376,161.392605 L307.439376,161.929042 L304.826056,161.929042 C304.838138,162.243174 304.931168,162.488434 305.105148,162.664831 C305.279129,162.841228 305.523181,162.929425 305.837313,162.929425 C306.081369,162.929425 306.312131,162.904054 306.529607,162.853309 C306.747083,162.802565 306.974221,162.721617 307.211028,162.610463 L307.211028,163.465863 C307.017716,163.562519 306.811117,163.634405 306.591225,163.681525 C306.371333,163.728645 306.103117,163.752204 305.786569,163.752204 Z M311.79333,163.679713 L310.687834,163.679713 L310.687834,161.312864 C310.687834,161.02048 310.635882,160.801195 310.531977,160.655003 C310.428072,160.508811 310.262551,160.435716 310.03541,160.435716 C309.726111,160.435716 309.502598,160.539015 309.364863,160.745617 C309.227129,160.952219 309.158262,161.294739 309.158262,161.773185 L309.158262,163.679713 L308.052766,163.679713 L308.052766,159.627435 L308.897293,159.627435 L309.0459,160.14575 L309.107518,160.14575 C309.230754,159.950022 309.400504,159.80202 309.616771,159.701739 C309.833039,159.601459 310.078904,159.551319 310.354373,159.551319 C310.82557,159.551319 311.183192,159.678782 311.427248,159.933712 C311.671304,160.188642 311.79333,160.556533 311.79333,161.037396 L311.79333,163.679713 Z" id="Jetzt-kaufen-Copy-2" fill="#FFFFFF"></path>
                <path d="M197.881025,123.32908 L200.285843,123.32908 L200.285843,126.471927 C199.896095,126.599079 199.529156,126.688222 199.185017,126.73936 C198.840878,126.790497 198.489142,126.816065 198.1298,126.816065 C197.214859,126.816065 196.516225,126.547253 196.033877,126.009622 C195.551529,125.47199 195.310359,124.700107 195.310359,123.693948 C195.310359,122.715432 195.590227,121.952532 196.149972,121.405226 C196.709716,120.85792 197.485746,120.584271 198.478084,120.584271 C199.100022,120.584271 199.699839,120.708657 200.27755,120.957432 L199.850488,121.985699 C199.408221,121.764565 198.947993,121.654 198.469791,121.654 C197.914193,121.654 197.469168,121.840579 197.134703,122.213742 C196.800238,122.586905 196.633008,123.088595 196.633008,123.718826 C196.633008,124.376699 196.76776,124.879079 197.037266,125.225983 C197.306773,125.572887 197.698588,125.746336 198.212724,125.746336 C198.480849,125.746336 198.753116,125.718694 199.029533,125.663411 L199.029533,124.398809 L197.881025,124.398809 L197.881025,123.32908 Z M203.222336,122.91031 C202.954211,122.91031 202.744137,122.995307 202.592108,123.165303 C202.440078,123.3353 202.353008,123.57647 202.330895,123.888822 L204.105484,123.888822 C204.099956,123.57647 204.018414,123.3353 203.860856,123.165303 C203.703298,122.995307 203.49046,122.91031 203.222336,122.91031 Z M203.400624,126.816065 C202.654297,126.816065 202.071066,126.610137 201.650912,126.198276 C201.230758,125.786414 201.020684,125.203183 201.020684,124.448564 C201.020684,123.671831 201.214864,123.071324 201.60323,122.647024 C201.991596,122.222723 202.528528,122.010576 203.214043,122.010576 C203.869152,122.010576 204.379134,122.197155 204.744005,122.570318 C205.108875,122.943481 205.291308,123.458992 205.291308,124.116865 L205.291308,124.730508 L202.301871,124.730508 C202.315692,125.08985 202.422111,125.370409 202.621131,125.572194 C202.820152,125.773978 203.099329,125.874869 203.458671,125.874869 C203.737852,125.874869 204.001827,125.845846 204.250602,125.787798 C204.499378,125.729751 204.759206,125.637152 205.030095,125.51 L205.030095,126.488512 C204.808961,126.599079 204.572628,126.681312 204.321088,126.735213 C204.069549,126.789115 203.76273,126.816065 203.400624,126.816065 Z M207.000514,124.407101 C207.000514,124.865954 207.075837,125.212852 207.226484,125.447807 C207.377132,125.682761 207.622448,125.800237 207.962441,125.800237 C208.29967,125.800237 208.542223,125.683452 208.690106,125.44988 C208.837989,125.216307 208.91193,124.868718 208.91193,124.407101 C208.91193,123.948249 208.837298,123.604114 208.688033,123.374688 C208.538767,123.145262 208.294142,123.030551 207.954149,123.030551 C207.61692,123.030551 207.373676,123.144571 207.224411,123.372615 C207.075146,123.600659 207.000514,123.945485 207.000514,124.407101 Z M210.205555,124.407101 C210.205555,125.16172 210.006538,125.751862 209.608497,126.177544 C209.210457,126.603227 208.656248,126.816065 207.945856,126.816065 C207.500825,126.816065 207.108318,126.718629 206.768325,126.523755 C206.428332,126.328881 206.167122,126.049013 205.984686,125.684142 C205.802251,125.319272 205.711035,124.893595 205.711035,124.407101 C205.711035,123.649718 205.90867,123.060958 206.303946,122.640804 C206.699223,122.22065 207.254813,122.010576 207.970734,122.010576 C208.415765,122.010576 208.808272,122.107321 209.148265,122.300813 C209.488258,122.494305 209.749468,122.7721 209.931904,123.134206 C210.114339,123.496313 210.205555,123.920607 210.205555,124.407101 Z M206.536136,120.907677 C206.536136,120.728006 206.587963,120.5898 206.69162,120.493054 C206.795276,120.396307 206.935556,120.347935 207.112463,120.347935 C207.294898,120.347935 207.437942,120.399072 207.541598,120.501346 C207.645255,120.60362 207.697082,120.739063 207.697082,120.907677 C207.697082,121.073528 207.644564,121.206897 207.539525,121.307789 C207.434487,121.408681 207.292134,121.459127 207.112463,121.459127 C206.935556,121.459127 206.795276,121.410754 206.69162,121.314008 C206.587963,121.217262 206.536136,121.08182 206.536136,120.907677 Z M208.207069,120.907677 C208.207069,120.714185 208.263043,120.572523 208.374992,120.482688 C208.486941,120.392852 208.625838,120.347935 208.791689,120.347935 C208.97136,120.347935 209.114404,120.39769 209.220824,120.4972 C209.327245,120.59671 209.380454,120.733534 209.380454,120.907677 C209.380454,121.076292 209.326554,121.210352 209.218751,121.309862 C209.110948,121.409372 208.968596,121.459127 208.791689,121.459127 C208.625838,121.459127 208.486941,121.41421 208.374992,121.324374 C208.263043,121.234538 208.207069,121.095641 208.207069,120.907677 Z M213.486186,123.047135 L212.391579,123.047135 L212.391579,126.73314 L211.126977,126.73314 L211.126977,123.047135 L210.430409,123.047135 L210.430409,122.437639 L211.126977,122.097647 L211.126977,121.757656 C211.126977,121.229699 211.256891,120.844103 211.516723,120.600856 C211.776555,120.357609 212.192557,120.235987 212.76474,120.235987 C213.20148,120.235987 213.58984,120.300944 213.929833,120.43086 L213.606427,121.359617 C213.352123,121.279456 213.117172,121.239376 212.901566,121.239376 C212.721895,121.239376 212.591981,121.292586 212.51182,121.399006 C212.431659,121.505427 212.391579,121.64156 212.391579,121.807411 L212.391579,122.097647 L213.486186,122.097647 L213.486186,123.047135 Z M216.774152,123.047135 L215.679545,123.047135 L215.679545,126.73314 L214.414943,126.73314 L214.414943,123.047135 L213.718375,123.047135 L213.718375,122.437639 L214.414943,122.097647 L214.414943,121.757656 C214.414943,121.229699 214.544857,120.844103 214.804689,120.600856 C215.064521,120.357609 215.480523,120.235987 216.052706,120.235987 C216.489446,120.235987 216.877806,120.300944 217.217799,120.43086 L216.894393,121.359617 C216.640089,121.279456 216.405138,121.239376 216.189532,121.239376 C216.009861,121.239376 215.879947,121.292586 215.799786,121.399006 C215.719625,121.505427 215.679545,121.64156 215.679545,121.807411 L215.679545,122.097647 L216.774152,122.097647 L216.774152,123.047135 Z M221.447918,126.73314 L220.183315,126.73314 L220.183315,124.025647 C220.183315,123.691183 220.123886,123.440338 220.005027,123.273105 C219.886168,123.105873 219.696825,123.022258 219.436993,123.022258 C219.083179,123.022258 218.827497,123.140425 218.669939,123.376761 C218.512381,123.613098 218.433603,124.004914 218.433603,124.55222 L218.433603,126.73314 L217.169001,126.73314 L217.169001,122.097647 L218.135074,122.097647 L218.30507,122.690559 L218.375556,122.690559 C218.516529,122.466661 218.710709,122.297358 218.958102,122.182645 C219.205496,122.067932 219.486746,122.010576 219.801861,122.010576 C220.340875,122.010576 220.749966,122.156384 221.029148,122.448004 C221.308329,122.739624 221.447918,123.160463 221.447918,123.710533 L221.447918,126.73314 Z M224.342948,122.91031 C224.074823,122.91031 223.864749,122.995307 223.71272,123.165303 C223.56069,123.3353 223.47362,123.57647 223.451507,123.888822 L225.226096,123.888822 C225.220568,123.57647 225.139026,123.3353 224.981468,123.165303 C224.82391,122.995307 224.611072,122.91031 224.342948,122.91031 Z M224.521236,126.816065 C223.77491,126.816065 223.191678,126.610137 222.771524,126.198276 C222.35137,125.786414 222.141296,125.203183 222.141296,124.448564 C222.141296,123.671831 222.335476,123.071324 222.723842,122.647024 C223.112208,122.222723 223.649141,122.010576 224.334655,122.010576 C224.989764,122.010576 225.499746,122.197155 225.864617,122.570318 C226.229487,122.943481 226.41192,123.458992 226.41192,124.116865 L226.41192,124.730508 L223.422483,124.730508 C223.436304,125.08985 223.542723,125.370409 223.741743,125.572194 C223.940764,125.773978 224.219941,125.874869 224.579283,125.874869 C224.858465,125.874869 225.122439,125.845846 225.371215,125.787798 C225.61999,125.729751 225.879818,125.637152 226.150707,125.51 L226.150707,126.488512 C225.929573,126.599079 225.69324,126.681312 225.441701,126.735213 C225.190161,126.789115 224.883342,126.816065 224.521236,126.816065 Z M229.066469,125.808529 C229.287602,125.808529 229.552959,125.760157 229.862546,125.663411 L229.862546,126.604607 C229.54743,126.74558 229.160452,126.816065 228.7016,126.816065 C228.195756,126.816065 227.827436,126.688224 227.596628,126.432538 C227.365819,126.176852 227.250417,125.793329 227.250417,125.281957 L227.250417,123.047135 L226.645066,123.047135 L226.645066,122.512271 L227.341634,122.089355 L227.706503,121.110843 L228.515019,121.110843 L228.515019,122.097647 L229.812791,122.097647 L229.812791,123.047135 L228.515019,123.047135 L228.515019,125.281957 C228.515019,125.461628 228.565464,125.594307 228.666357,125.679996 C228.767249,125.765685 228.900618,125.808529 229.066469,125.808529 Z" id="Geffnet" fill="#00B8D6" transform="translate(212.586452, 123.526026) rotate(11.000000) translate(-212.586452, -123.526026) "></path>
            </g>
        </g>
    </g>
</svg>