<?xml version="1.0" encoding="UTF-8" standalone="no"?>
<svg width="550px" height="300px" viewBox="0 0 550 300" version="1.1" xmlns="http://www.w3.org/2000/svg" xmlns:xlink="http://www.w3.org/1999/xlink">
    <!-- Generator: Sketch 45.1 (43504) - http://www.bohemiancoding.com/sketch -->
    <title>Translations-WordPress</title>
    <desc>Created with Sketch.</desc>
    <defs></defs>
    <g id="SVG" stroke="none" stroke-width="1" fill="none" fill-rule="evenodd">
        <g id="Translations-WordPress">
            <g id="wp" transform="translate(10.000000, 0.000000)">
                <g id="Group-2" transform="translate(38.000000, 0.000000)" fill="#FFFFFF">
                    <path d="M160.449281,7.54700779 C154.088156,2.6096286 146.479337,0 138.445369,0 C131.134055,0 124.087671,2.19784596 118.068427,6.35579735 C112.486466,10.2113067 108.129594,15.4954326 105.415816,21.6858816 C99.2416697,22.1546751 93.4998204,24.8601021 89.1502619,29.3741627 C84.5394308,34.1595686 82,40.4566831 82,47.1057272 C82,53.7860354 84.5598739,60.1047171 89.2081009,64.8979807 C93.8475192,69.6822162 100.046762,72.4143932 106.663343,72.5909431 C106.706722,72.5916119 166.121325,72.576565 168.701808,72.5740572 C174.850193,72.2796402 180.51725,69.6740241 184.736837,65.2351978 C188.970551,60.7814918 191.302061,54.9423036 191.302061,48.7934843 C191.302061,37.645928 183.63424,28.048032 172.925883,25.5866987 C170.738472,18.4917657 166.336559,12.1165746 160.449281,7.54700779 Z" id="Cloud" transform="translate(136.651030, 36.295482) scale(-1, 1) translate(-136.651030, -36.295482) "></path>
                    <path d="M417.891056,15.2838232 C412.594627,11.1728406 406.259339,9 399.57006,9 C393.482482,9 387.61549,10.8299803 382.60372,14.2919923 C377.956043,17.5021837 374.328405,21.9018761 372.068846,27.0561953 C366.928101,27.4465243 362.147297,29.699129 358.525749,33.4576463 C354.686658,37.4420922 352.572266,42.6852237 352.572266,48.2213805 C352.572266,53.7835684 354.703679,59.0446573 358.573907,63.0356459 C362.4368,67.0191173 367.598441,69.2939947 373.107568,69.4409945 C373.143687,69.4415513 422.613738,69.4290229 424.762312,69.4269349 C429.881607,69.181796 434.600137,67.0122963 438.113469,63.316421 C441.638563,59.6081565 443.579835,54.7463056 443.579835,49.6266483 C443.579835,40.3449203 437.195419,32.3534774 428.279379,30.3041111 C426.458088,24.3966964 422.792947,19.0885564 417.891056,15.2838232 Z" id="Cloud" transform="translate(398.076050, 39.220506) scale(-1, 1) translate(-398.076050, -39.220506) "></path>
                    <path d="M50.2349985,69.8327265 C46.1616518,66.6710757 41.2893446,65 36.1447927,65 C31.4629929,65 26.9508405,66.4073907 23.0964177,69.0699349 C19.5220088,71.5388104 16.7320861,74.9225005 14.9943179,78.8865546 C11.0407035,79.1867465 7.36391016,80.9191667 4.57867034,83.8097455 C1.62612454,86.8740802 -3.26849658e-13,90.9064376 -3.26849658e-13,95.1641531 C-3.26849658e-13,99.4418885 1.63921528,103.488056 4.61570753,106.557423 C7.58655906,109.621008 11.5562442,111.370558 15.7931719,111.483611 C15.8209498,111.48404 53.8670917,111.474404 55.5195042,111.472799 C59.4566221,111.284269 63.0855225,109.615762 65.787535,106.77336 C68.498594,103.921429 69.9915762,100.182305 69.9915762,96.2449084 C69.9915762,89.1065706 65.0814869,82.9605577 58.2243903,81.3844429 C56.8236818,76.8412024 54.0049169,72.7588487 50.2349985,69.8327265 Z" id="Cloud" opacity="0.5"></path>
                </g>
                <g transform="translate(0.000000, 32.000000)">
                    <g id="maps" transform="translate(85.819277, 196.439166)" fill-rule="nonzero">
                        <path d="M5.17550133,0.620393157 L78.3074078,0.620393157 L78.3074078,0.620393157 C81.1657583,0.620393157 83.4829092,2.93754403 83.4829092,5.79589448 L83.4829092,50.9349592 L83.4829092,50.9349592 C83.4829092,53.7933097 81.1657583,56.1104606 78.3074078,56.1104606 L5.17550133,56.1104606 L5.17550133,56.1104606 C2.31715087,56.1104606 1.88230317e-15,53.7933097 1.5322562e-15,50.9349592 L0,5.79589448 L7.66128098e-16,5.79589448 C4.16081124e-16,2.93754403 2.31715087,0.620393157 5.17550133,0.620393157 Z" id="Rectangle-39" fill="#FFC800"></path>
                        <path d="M17.0373318,29.9993551 C14.3413394,26.2496148 8.62583554,19.9687999 8.73367524,15.8440856 C8.84151493,11.8131148 12.4002249,8.62583554 17.0373318,8.62583554 C21.566599,8.62583554 25.2331487,11.8131148 25.3409884,15.8440856 C25.448828,19.9687999 19.7333242,26.2496148 17.0373318,29.9993551 Z M17.0373318,11.7193713 C14.4491791,11.7193713 12.2923852,13.5004979 12.2923852,15.7503421 C12.2923852,18.0001862 14.4491791,19.8750563 17.0373318,19.8750563 C19.6254845,19.8750563 21.6744387,18.0001862 21.6744387,15.7503421 C21.6744387,13.5004979 19.6254845,11.7193713 17.0373318,11.7193713 Z" id="Shape" fill="#FFFFFF"></path>
                        <polygon id="Path-5" fill="#FFFFFF" points="38.8162599 0.620393157 52.6175968 0.620393157 47.8733873 19.5972313 83.6706048 32.9672764 83.6706048 48.0624886 44.8543448 32.9672764 38.8162599 56.2570324 22.4271724 56.2570324 0 44.6121544 0 32.9672764 26.7400902 44.6121544"></polygon>
                    </g>
                    <g id="imac" transform="translate(147.464110, 23.591889)">
                        <path d="M251.929393,6.54050848 C251.934374,3.6609793 249.583162,1.32129652 246.674591,1.31147298 L5.43059821,1.31147298 C2.52202767,1.32129652 0.170815987,3.6609793 0.175796373,6.54050848 L0.175796373,168.988023 L251.938391,168.988023 L251.929393,6.54050848 Z" id="Shape" fill="#003D54" fill-rule="nonzero"></path>
                        <path d="M0.175796373,168.988023 L0.175796373,179.97167 C0.170815987,182.851199 2.52202767,185.190882 5.43059821,185.200706 L246.683589,185.200706 C249.59216,185.190882 251.943372,182.851199 251.938391,179.97167 L251.938391,168.988023 L0.175796373,168.988023 Z" id="Shape" fill="#EDEDED" fill-rule="nonzero"></path>
                        <path d="M11.3007248,10.6293998 L240.461878,10.6293998 L240.461878,10.6293998 C241.566447,10.6293998 242.461878,11.5248303 242.461878,12.6293998 L242.461878,157.704501 L242.461878,157.704501 C242.461878,158.80907 241.566447,159.704501 240.461878,159.704501 L11.3007248,159.704501 L11.3007248,159.704501 C10.1961553,159.704501 9.30072481,158.80907 9.30072481,157.704501 L9.30072481,12.6293998 L9.30072481,12.6293998 C9.30072481,11.5248303 10.1961553,10.6293998 11.3007248,10.6293998 Z" id="Rectangle-path" fill="#2075CF" fill-rule="nonzero"></path>
                        <g id="Group" transform="translate(33.216874, 37.202899)" fill="#FFFFFF">
                            <g id="Group-7" transform="translate(61.984245, 0.000000)" fill-rule="nonzero">
                                <path d="M4.27505766,30.2336252 C4.27505766,40.42678 10.1907279,49.2547801 18.8063706,53.4412544 L6.51997866,19.7371027 C5.09415046,22.9528004 4.27505766,26.5022025 4.27505766,30.2336252 Z" id="Shape"></path>
                                <path d="M47.4746185,28.9291441 C47.4746185,25.7437832 46.3218212,23.529199 45.3510445,21.8303399 C44.0465634,19.7067659 42.8330926,17.9168965 42.8330926,15.7933226 C42.8330926,13.4270545 44.6229621,11.2124703 47.1712508,11.2124703 C47.2925978,11.2124703 47.3836082,11.2124703 47.5049552,11.242807 C42.9241029,7.05633275 36.7960753,4.47770729 30.0916491,4.47770729 C21.0816284,4.47770729 13.1637313,9.08889636 8.55254226,16.0966903 C9.15927767,16.1270271 9.7356763,16.1270271 10.2210646,16.1270271 C12.8907004,16.0966903 17.0468379,15.7933226 17.0468379,15.7933226 C18.4423294,15.7023123 18.5940132,17.7652126 17.1985218,17.9168965 C17.1985218,17.9168965 15.8030303,18.0685803 14.2558551,18.1595907 L23.6299171,46.0694193 L29.2725563,29.1415015 L25.2681027,18.1292539 C23.8726112,18.0382436 22.5681301,17.8865597 22.5681301,17.8865597 C21.1726387,17.7955494 21.3546593,15.6719755 22.719814,15.7629858 C22.719814,15.7629858 26.9669618,16.0966903 29.5152505,16.0966903 C32.215223,16.0966903 36.3713606,15.7629858 36.3713606,15.7629858 C37.766852,15.6719755 37.9185358,17.7348759 36.5230444,17.8865597 C36.5230444,17.8865597 35.127553,18.0382436 33.5803777,18.1292539 L42.8937662,45.8267251 L45.4723916,37.2414191 C46.6251889,33.692017 47.4746185,31.1437283 47.4746185,28.9291441 Z" id="Shape"></path>
                                <path d="M30.5163639,32.4785462 L22.7804875,54.9580929 C25.086082,55.6255019 27.5433604,56.0198799 30.0613124,56.0198799 C33.0646526,56.0198799 35.9466458,55.5041548 38.6162816,54.5637149 C38.555608,54.4423678 38.4949345,54.3210208 38.4342609,54.1996737 L30.5163639,32.4785462 Z" id="Shape"></path>
                                <path d="M52.6925429,17.856223 C52.81389,18.6753158 52.8745636,19.5550821 52.8745636,20.495522 C52.8745636,23.1044842 52.3891752,26.0471509 50.9026735,29.7179001 L43.0151132,52.4704778 C50.6903161,48.0109726 55.8172303,39.6986975 55.8172303,30.2032884 C55.847567,25.7437832 54.6947698,21.5269722 52.6925429,17.856223 Z" id="Shape"></path>
                                <path d="M30.0613124,0.200222683 C13.4974358,0.200222683 0.0279098286,13.6697487 0.0279098286,30.2336252 C0.0279098286,46.7975018 13.4974358,60.2670277 30.0613124,60.2670277 C46.6251889,60.2670277 60.0947149,46.7975018 60.0947149,30.2336252 C60.1250516,13.6697487 46.6251889,0.200222683 30.0613124,0.200222683 Z M30.0613124,58.9018731 C14.2558551,58.9018731 1.39306449,46.0390825 1.39306449,30.2336252 C1.39306449,14.4281679 14.2558551,1.56537734 30.0613124,1.56537734 C45.8667696,1.56537734 58.7295602,14.4281679 58.7295602,30.2336252 C58.7295602,46.0390825 45.8667696,58.9018731 30.0613124,58.9018731 Z" id="Shape"></path>
                            </g>
                            <g id="Group-11" transform="translate(0.000000, 69.229156)">
                                <path d="M83.1789309,21.9668491 L82.8070196,21.9668491 C80.8960353,21.9668491 80.63137,21.4889462 80.63137,19.0473769 L80.63137,7.52878891 L83.1789309,7.52878891 C88.6992734,7.52878891 89.7077614,11.5621135 89.7077614,14.694196 C89.7077614,17.9322702 88.6992734,21.9668491 83.1789309,21.9668491 L83.1789309,21.9668491 Z M60.7783317,14.5875773 L60.7783317,7.52878891 L62.9546085,7.52878891 C65.3434956,7.52878891 66.405293,9.1738535 66.405293,11.0842106 C66.405293,12.9425127 65.3434956,14.5875773 62.9546085,14.5875773 L60.7783317,14.5875773 Z M83.01963,5.93577936 L73.5180179,5.93577936 L73.5180179,6.9442673 C76.4901723,6.9442673 76.9680752,7.58147112 76.9680752,11.3501303 L76.9680752,18.1448805 C76.9680752,21.9135397 76.4901723,22.6040529 73.5180179,22.6040529 C71.2357495,22.285451 69.6960493,21.0643527 67.5724547,18.7287749 L65.1315125,16.0745953 C68.4222688,15.4907008 70.1739522,13.4204156 70.1739522,11.0842106 C70.1739522,8.16536556 67.6790734,5.93577936 63.0079179,5.93577936 L53.6649796,5.93577936 L53.6649796,6.9442673 C56.6377612,6.9442673 57.1150369,7.58147112 57.1150369,11.3501303 L57.1150369,18.1448805 C57.1150369,21.9135397 56.6377612,22.6040529 53.6649796,22.6040529 L53.6649796,23.6119137 L64.228389,23.6119137 L64.228389,22.6040529 C61.2562345,22.6040529 60.7783317,21.9135397 60.7783317,18.1448805 L60.7783317,16.2338962 L61.680828,16.2338962 L67.5724547,23.6119137 L83.01963,23.6119137 C90.6108849,23.6119137 93.9016412,19.5779619 93.9016412,14.7468782 C93.9016412,9.9170489 90.6108849,5.93577936 83.01963,5.93577936 L83.01963,5.93577936 Z" id="Fill-1"></path>
                                <path d="M24.0994749,16.5525608 L27.7621426,5.72260458 C28.8239399,2.59114919 28.346037,1.68928001 24.9486619,1.68928001 L24.9486619,0.626855529 L34.928804,0.626855529 L34.928804,1.68928001 C31.5847383,1.68928001 30.7882335,2.48515761 29.4611437,6.36043557 L23.4089617,24.5144727 L22.7197029,24.5144727 L17.3047248,7.89950857 L11.7843822,24.5144727 L11.0944962,24.5144727 L5.20224237,6.36043557 C3.9284619,2.48515761 3.07864775,1.68928001 -0.000125433823,1.68928001 L-0.000125433823,0.626855529 L11.7843822,0.626855529 L11.7843822,1.68928001 C8.65229966,1.68928001 7.80311268,2.43184824 8.91821937,5.72260458 L12.4742682,16.5525608 L17.835937,0.626855529 L18.8444249,0.626855529 L24.0994749,16.5525608 Z" id="Fill-3"></path>
                                <path d="M42.1465171,6.89145966 C37.2633783,6.89145966 35.5643772,11.2966955 35.5643772,14.7467528 C35.5643772,18.2507466 37.2633783,22.6039275 42.1465171,22.6039275 C47.0835923,22.6039275 48.7819663,18.2507466 48.7819663,14.7467528 C48.7819663,11.2966955 47.0835923,6.89145966 42.1465171,6.89145966 M42.1465171,24.3023014 C36.3075726,24.3023014 31.5297983,20.00243 31.5297983,14.7467528 C31.5297983,9.54501218 36.3075726,5.24514073 42.1465171,5.24514073 C47.9860887,5.24514073 52.7632358,9.54501218 52.7632358,14.7467528 C52.7632358,20.00243 47.9860887,24.3023014 42.1465171,24.3023014" id="Fill-6"></path>
                                <path d="M105.844007,2.53802797 L102.818544,2.53802797 L102.818544,11.7749747 L105.844007,11.7749747 C108.816789,11.7749747 110.196561,9.70468944 110.196561,7.2098107 C110.196561,4.66224976 108.816789,2.53802797 105.844007,2.53802797 M107.011796,22.5503672 L107.011796,23.6121645 L94.8560045,23.6121645 L94.8560045,22.5503672 C98.4126805,22.5503672 99.0498844,21.648498 99.0498844,16.3395115 L99.0498844,7.84701452 C99.0498844,2.53802797 98.4126805,1.68884099 94.8560045,1.68884099 L94.8560045,0.62704368 L105.844007,0.62704368 C111.311668,0.62704368 114.337759,3.44052433 114.337759,7.2098107 C114.337759,10.8724783 111.311668,13.7386412 105.844007,13.7386412 L102.818544,13.7386412 L102.818544,16.3395115 C102.818544,21.648498 103.45512,22.5503672 107.011796,22.5503672" id="Fill-8"></path>
                                <path d="M122.671582,14.5877654 L122.671582,7.52834989 L124.847859,7.52834989 C127.236119,7.52834989 128.298543,9.17341448 128.298543,11.0843988 C128.298543,12.9427009 127.236119,14.5877654 124.847859,14.5877654 L122.671582,14.5877654 Z M150.80388,18.6229715 L150.539214,19.5781501 C150.061311,21.3298334 149.47679,21.9670372 145.708131,21.9670372 L144.964935,21.9670372 C142.205391,21.9670372 141.727488,21.3298334 141.727488,17.560547 L141.727488,15.1196048 C145.867432,15.1196048 146.186033,15.4902618 146.186033,18.2510602 L147.195149,18.2510602 L147.195149,10.3412034 L146.186033,10.3412034 C146.186033,13.1020018 145.867432,13.4732859 141.727488,13.4732859 L141.727488,7.52834989 L144.646333,7.52834989 C148.41562,7.52834989 148.999514,8.16555371 149.47679,9.91723705 L149.742709,10.9250978 L150.591896,10.9250978 L150.220612,5.93596751 L134.614136,5.93596751 L134.614136,6.94382828 C137.586291,6.94382828 138.064193,7.5810321 138.064193,11.3503185 L138.064193,18.1450687 C138.064193,21.5926173 137.658415,22.4612465 135.314684,22.5847988 C133.086979,22.2448732 131.557941,21.0294194 129.465705,18.7289631 L127.023508,16.0747834 C130.315519,15.4902618 132.066575,13.4206037 132.066575,11.0843988 C132.066575,8.16555371 129.572324,5.93596751 124.901168,5.93596751 L115.55823,5.93596751 L115.55823,6.94382828 C118.530384,6.94382828 119.008287,7.5810321 119.008287,11.3503185 L119.008287,18.1450687 C119.008287,21.9137279 118.530384,22.6036139 115.55823,22.6036139 L115.55823,23.6121018 L126.121639,23.6121018 L126.121639,22.6036139 C123.149485,22.6036139 122.671582,21.9137279 122.671582,18.1450687 L122.671582,16.2340844 L123.573451,16.2340844 L129.465705,23.6121018 L151.281783,23.6121018 L151.600384,18.6229715 L150.80388,18.6229715 Z" id="Fill-11"></path>
                                <path d="M161.580025,24.302176 C159.45643,24.302176 157.598128,23.1876965 156.80225,22.4971833 C156.536958,22.763103 156.059055,23.5589806 155.953063,24.302176 L154.944576,24.302176 L154.944576,16.9768407 L156.005746,16.9768407 C156.430966,20.4802074 158.872536,22.5504927 162.004618,22.5504927 C163.702992,22.5504927 165.083391,21.5953141 165.083391,20.0029317 C165.083391,18.6225325 163.862293,17.5607352 161.686016,16.5528744 L158.660553,15.1191658 C156.536958,14.1100507 154.944576,12.3583674 154.944576,10.0227896 C154.944576,7.47522867 157.333463,5.29895184 160.624846,5.29895184 C162.37653,5.29895184 163.862293,5.93615566 164.76479,6.67872389 C165.030082,6.46674073 165.295375,5.88221912 165.455303,5.2450153 L166.463164,5.2450153 L166.463164,11.5098076 L165.348684,11.5098076 C164.976773,9.01430167 163.597001,6.94401643 160.78352,6.94401643 C159.297129,6.94401643 157.91673,7.79383058 157.91673,9.12092042 C157.91673,10.5006925 159.031837,11.2438879 161.580025,12.4116768 L164.49887,13.8447582 C167.047685,15.0652293 168.055546,17.0301501 168.055546,18.6225325 C168.055546,21.9665982 165.136074,24.302176 161.580025,24.302176" id="Fill-13"></path>
                                <path d="M177.92863,24.302176 C175.805036,24.302176 173.946734,23.1876965 173.150856,22.4971833 C172.885563,22.763103 172.407661,23.5589806 172.301669,24.302176 L171.293181,24.302176 L171.293181,16.9768407 L172.354351,16.9768407 C172.779572,20.4802074 175.221141,22.5504927 178.353224,22.5504927 C180.051598,22.5504927 181.431997,21.5953141 181.431997,20.0029317 C181.431997,18.6225325 180.210899,17.5607352 178.034622,16.5528744 L175.009158,15.1191658 C172.885563,14.1100507 171.293181,12.3583674 171.293181,10.0227896 C171.293181,7.47522867 173.682068,5.29895184 176.973452,5.29895184 C178.725135,5.29895184 180.210899,5.93615566 181.113395,6.67872389 C181.378688,6.46674073 181.64398,5.88221912 181.803281,5.2450153 L182.811769,5.2450153 L182.811769,11.5098076 L181.697289,11.5098076 C181.325378,9.01430167 179.945606,6.94401643 177.132125,6.94401643 C175.645735,6.94401643 174.265335,7.79383058 174.265335,9.12092042 C174.265335,10.5006925 175.380442,11.2438879 177.92863,12.4116768 L180.847475,13.8447582 C183.396291,15.0652293 184.404151,17.0301501 184.404151,18.6225325 C184.404151,21.9665982 181.484679,24.302176 177.92863,24.302176" id="Fill-15"></path>
                            </g>
                        </g>
                        <path d="M179.576891,217.465725 C176.364623,215.069455 171.748676,212.610829 169.148268,209.501913 C162.642752,201.716263 163.461565,185.565937 163.461565,185.565937 L96.8767473,185.565937 C96.8767473,185.565937 97.7045585,201.716263 91.1900439,209.501913 C88.5896369,212.610829 83.9916853,215.069455 80.7614218,217.465725 C80.3316371,217.793784 80.0373394,218.265657 79.9336105,218.793027 L180.404702,218.793027 C180.300973,218.265657 180.006675,217.793784 179.576891,217.465725 Z" id="Shape" fill="#D2DEDE" fill-rule="nonzero"></path>
                        <path d="M79.9696023,218.810844 C79.8785993,219.196783 79.8941388,219.599851 80.0145921,219.9778 C80.323829,220.888245 81.1858728,221.501426 82.1561038,221.50108 L178.2182,221.50108 C178.895344,221.509267 179.539018,221.210131 179.965259,220.689164 C180.391499,220.168197 180.553405,219.482726 180.404702,218.82866 L79.9696023,218.810844 Z" id="Shape" fill="#FFFFFF" fill-rule="nonzero"></path>
                        <path d="M71.2145986,111.842772 L71.2145986,110.845068" id="Shape" fill="#227792" fill-rule="nonzero"></path>
                        <path d="M100.835845,0.108883902 L100.835845,0.607735669" id="Shape" fill="#C28800" fill-rule="nonzero"></path>
                        <rect id="Rectangle-path" fill="#003D54" fill-rule="nonzero" x="97.0387104" y="185.18289" width="66.3868629" height="3.23362842"></rect>
                    </g>
                    <g id="chat" transform="translate(439.974886, 99.741388)" fill-rule="nonzero">
                        <path d="M7.25233329,0 L91.8628884,0 L91.8628884,0 C95.8682409,0 99.1152217,3.24698082 99.1152217,7.25233329 L99.1152217,61.644833 L99.1152217,61.644833 C99.1152217,65.6501855 95.8682409,68.8971663 91.8628884,68.8971663 L7.25233329,68.8971663 L7.25233329,68.8971663 C3.24698082,68.8971663 0,65.6501855 0,61.644833 L0,7.25233329 L0,7.25233329 C0,3.24698082 3.24698082,0 7.25233329,0 Z" id="Rectangle-39" fill="#0076A3"></path>
                        <path d="M29.094385,27.4262631 C29.094385,31.845764 31.9484659,35.8053099 36.1383824,37.1867479 C36.4151418,37.2787391 36.5991239,37.5547121 36.5991239,37.8306853 L36.5991239,42.7573163 L41.3873752,37.9690648 C41.5257549,37.8306853 41.7089508,37.7850828 41.8937191,37.7850828 L49.3520693,37.7850828 C55.0146287,37.7850828 59.6652866,33.1808134 59.6652866,27.4726517 C59.6652866,21.7629174 55.0610174,17.1586481 49.3520693,17.1586481 L39.3612137,17.1586481 C33.6986543,17.1130457 29.094385,21.7165288 29.094385,27.4262631 M27.7129469,27.4262631 C27.7129469,20.9806005 32.9619398,15.7316077 39.4076024,15.7316077 L49.3984579,15.7316077 C55.8433343,15.7316077 61.0923272,20.9806005 61.0923272,27.4262631 C61.0923272,33.8711394 55.7977319,39.1201322 49.3520693,39.1201322 L42.1696922,39.1201322 L37.3358384,43.9539861 C37.1054677,44.1843568 36.7831059,44.3227364 36.4607442,44.3227364 C35.7704183,44.3227364 35.2176858,43.7700039 35.2176858,43.0796781 L35.2176858,38.3378153 C30.7054075,36.6340154 27.7129469,32.3065055 27.7129469,27.4262631 M72.3718435,39.2585119 C72.3718435,42.987687 70.0704951,46.3025094 66.6628955,47.6839474 L66.6628955,51.1827518 C66.6628955,51.6434933 66.3869223,52.0122436 65.9725696,52.1954395 C65.8349761,52.241828 65.6965964,52.2874305 65.5582168,52.2874305 C65.2814574,52.2874305 65.0054843,52.1954395 64.7751136,51.965855 L61.1379295,48.3286709 L55.7513433,48.3286709 C52.2989276,48.3286709 49.2136896,46.440889 47.6490557,43.3564374 C47.4642874,43.0340757 47.6026672,42.6189367 47.9706312,42.4349545 C48.2929931,42.2509725 48.7073458,42.3885659 48.8921141,42.7573163 C50.2263773,45.3818127 52.8508738,46.9936215 55.7513433,46.9936215 L61.4146889,46.9936215 C61.5986709,46.9936215 61.7826531,47.0856126 61.9210327,47.1768173 L65.2822437,50.5388146 L65.2822437,47.2232059 C65.2822437,46.9472329 65.4662258,46.6712597 65.7421988,46.5784824 C68.8730391,45.5201925 70.9911917,42.6189367 70.9911917,39.3041142 C70.9911917,35.6213278 68.3666953,32.4448852 64.7295112,31.753773 C64.3607609,31.661782 64.0847877,31.3402065 64.1767787,30.9714561 C64.2687697,30.6027057 64.5911315,30.3259463 64.9598819,30.4187236 C69.2873919,31.1554381 72.3718435,34.8846133 72.3718435,39.2585119" id="Fill-1" fill="#FFFFFF"></path>
                        <path d="M36.429766,43.3954348 L41.4255869,38.3650189 C41.4255869,38.3650189 41.7817574,38.1519456 42.8935122,38.1519456 L50.4572198,38.1519456 C50.4572198,38.1519456 53.480344,38.0064898 55.9460183,36.2044089 C58.4109064,34.4039006 60.4417854,31.1920768 60.4417854,28.2711648 C60.4417854,25.3502528 60.7311247,22.9160284 56.4775221,18.9729938 C52.6697222,15.444312 48.2109088,16.540342 37.6736106,16.6370505 C37.6736106,16.6370505 26.5544889,18.4383451 29.1168717,30.8508451 C29.1168717,30.8508451 30.8796401,36.1375778 35.9493684,37.5426034 C35.9493684,37.5426034 36.5610694,37.7627528 36.4643609,39.4665526 C36.3676524,41.1703525 36.429766,43.3954348 36.429766,43.3954348" id="Fill-4" fill="#FFFFFF"></path>
                        <path d="M41.1169845,27.6344839 C41.1169845,29.1181342 39.9140248,30.3210939 38.4303745,30.3210939 C36.9467242,30.3210939 35.7445507,29.1181342 35.7445507,27.6344839 C35.7445507,26.1508336 36.9467242,24.9478739 38.4303745,24.9478739 C39.9140248,24.9478739 41.1169845,26.1508336 41.1169845,27.6344839" id="Fill-6" fill="#0076A3"></path>
                        <path d="M47.40697,27.6344839 C47.40697,29.1181342 46.2040102,30.3210939 44.7203599,30.3210939 C43.2367096,30.3210939 42.0345361,29.1181342 42.0345361,27.6344839 C42.0345361,26.1508336 43.2367096,24.9478739 44.7203599,24.9478739 C46.2040102,24.9478739 47.40697,26.1508336 47.40697,27.6344839" id="Fill-8" fill="#0076A3"></path>
                        <path d="M53.6969554,27.6344839 C53.6969554,29.1181342 52.4939956,30.3210939 51.0103453,30.3210939 C49.526695,30.3210939 48.3245216,29.1181342 48.3245216,27.6344839 C48.3245216,26.1508336 49.526695,24.9478739 51.0103453,24.9478739 C52.4939956,24.9478739 53.6969554,26.1508336 53.6969554,27.6344839" id="Fill-10" fill="#0076A3"></path>
                    </g>
                    <g id="profile" transform="translate(362.616665, 198.856610)">
                        <path d="M4.56677869,0 L85.2465355,0 L85.2465355,0 C87.7686974,0 89.8133142,2.04461684 89.8133142,4.56677869 L89.8133142,55.5670591 L89.8133142,55.5670591 C89.8133142,58.0892209 87.7686974,60.1338378 85.2465355,60.1338378 L4.56677869,60.1338378 L4.56677869,60.1338378 C2.04461684,60.1338378 0,58.0892209 0,55.5670591 L0,4.56677869 L0,4.56677869 C0,2.04461684 2.04461684,0 4.56677869,0 Z" id="Rectangle-39" fill="#FD9B3B" fill-rule="nonzero"></path>
                        <path d="M44.8191651,40.1648944 C53.1647649,40.1648944 59.9542687,33.3750804 59.9542687,25.0297908 C59.9542687,16.684191 53.1647649,9.89468716 44.8191651,9.89468716 C36.4735653,9.89468716 29.6840615,16.684191 29.6840615,25.0297908 C29.6840615,33.3750804 36.4735653,40.1648944 44.8191651,40.1648944 Z M44.8191651,11.1353457 C52.4805417,11.1353457 58.7136102,17.3684142 58.7136102,25.0297908 C58.7136102,29.0123047 57.0269349,32.6061823 54.3334652,35.1417781 C54.1687678,34.7866396 53.9994179,34.4336723 53.8213834,34.0853574 C52.6824589,31.8779157 51.0953464,29.9297717 49.1568174,28.3715045 C48.8683644,28.1363997 48.5581998,27.9254878 48.2334573,27.7415602 C50.9402641,25.8563795 51.6040165,22.1344039 49.7188358,19.425426 C47.8311738,16.7211006 44.1091982,16.0548669 41.4027016,17.9425289 C38.6958949,19.8270892 38.0318324,23.5515461 39.9194944,26.2558716 C40.3217779,26.8349489 40.8257955,27.3364851 41.4023915,27.74125 C41.0801304,27.9254878 40.7699658,28.1360896 40.4790314,28.3711943 C38.5429837,29.9291514 36.9558713,31.8776055 35.8169468,34.0850472 C35.6389123,34.433052 35.4695624,34.7863294 35.3039345,35.1408476 C32.6110851,32.6055619 30.92472,29.0119945 30.92472,25.0297908 C30.92472,17.3684142 37.1577885,11.1353457 44.8191651,11.1353457 Z" id="Shape" fill="#FFFFFF" fill-rule="nonzero"></path>
                        <path d="M28.1618019,44.1455273 L61.6601603,44.1455273" id="Line-2" stroke="#FFFFFF" stroke-linecap="square"></path>
                        <path d="M28.1618019,48.712306 L61.6601603,48.712306" id="Line-2" stroke="#FFFFFF" stroke-linecap="square"></path>
                    </g>
                    <g id="camera" transform="translate(24.174444, 104.576277)" fill-rule="nonzero">
                        <path d="M6.18277318,0 L78.3151269,0 L78.3151269,0 C81.7297777,0 84.4979001,2.76812235 84.4979001,6.18277318 L84.4979001,52.553572 L84.4979001,52.553572 C84.4979001,55.9682228 81.7297777,58.7363452 78.3151269,58.7363452 L6.18277318,58.7363452 L6.18277318,58.7363452 C2.76812184,58.7363452 0,55.9682228 0,52.553572 L0,6.18277318 L0,6.18277318 C0,2.76812235 2.76812184,0 6.18277318,0 Z" id="Rectangle-39" fill="#8D7DB6"></path>
                        <path d="M54.6145994,22.9333484 C54.6145994,22.7880532 54.7320721,22.66955 54.8783977,22.66955 L57.4421877,22.66955 C57.5874829,22.66955 57.705986,22.7870227 57.705986,22.9333484 L57.705986,25.4981688 C57.705986,25.6434639 57.5885133,25.7609366 57.4421877,25.7609366 L54.8783977,25.7609366 C54.7320721,25.7609366 54.6145994,25.6444944 54.6145994,25.4981688 L54.6145994,22.9333484 Z M42.2490531,37.0960208 C38.2652862,37.0960208 35.0358177,33.8665523 35.0358177,29.8827854 C35.0358177,25.900049 38.2652862,22.66955 42.2490531,22.66955 C46.2328199,22.66955 49.4622884,25.900049 49.4622884,29.8827854 C49.4622884,33.8665523 46.2328199,37.0960208 42.2490531,37.0960208 L42.2490531,37.0960208 Z M42.2490531,39.1569452 C47.3714807,39.1569452 51.5232128,35.005213 51.5232128,29.8827854 C51.5232128,24.7613883 47.3714807,20.6086256 42.2490531,20.6086256 C37.1266255,20.6086256 32.9748933,24.7613883 32.9748933,29.8827854 C32.9748933,35.005213 37.1266255,39.1569452 42.2490531,39.1569452 L42.2490531,39.1569452 Z M23.7007336,15.7098084 C23.7007336,15.5696655 23.8079016,15.4563147 23.9490749,15.4563147 L28.6047031,15.4563147 C28.7417546,15.4563147 28.8530445,15.568635 28.8530445,15.7098084 L28.8530445,17.2647758 C28.8530445,17.4049187 28.7458765,17.5172391 28.6047031,17.5172391 L23.9490749,17.5172391 C23.8120235,17.5172391 23.7007336,17.4069796 23.7007336,17.2647758 L23.7007336,15.7098084 Z M21.6398092,20.8755153 C21.6398092,19.590529 22.6846978,18.5477012 23.9521663,18.5477012 L31.170554,18.5477012 C31.5981958,18.5477012 32.207199,18.3158473 32.5225204,18.0345311 L36.0034217,14.9400531 C36.322865,14.656676 36.9328986,14.4258525 37.3605404,14.4258525 L47.1375657,14.4258525 C47.5682989,14.4258525 48.179363,14.6597674 48.4946844,14.9400531 L51.9755857,18.0345311 C52.295029,18.3179082 52.8968189,18.5477012 53.3275521,18.5477012 L60.5459398,18.5477012 C61.8226825,18.5477012 62.858297,19.5791939 62.858297,20.8755153 L62.858297,40.9520103 C62.858297,42.2369967 61.8185606,43.2787939 60.5387266,43.2787939 L23.9583491,43.2787939 C22.6785151,43.2787939 21.6398092,42.2483318 21.6398092,40.9520103 L21.6398092,20.8755153 Z" id="Fill-1" fill="#FFFFFF"></path>
                    </g>
                    <g id="connection" transform="translate(117.989711, 0.427861)" fill-rule="nonzero">
                        <path d="M4.81845583,0 L70.4959386,0 L70.4959386,0 C73.1570987,0 75.3143945,2.15729656 75.3143945,4.81845583 L75.3143945,46.8434841 L75.3143945,46.8434841 C75.3143945,49.5046442 73.1570987,51.6619399 70.4959386,51.6619399 L4.81845583,51.6619399 L4.81845583,51.6619399 C2.15729656,51.6619399 0,49.5046442 0,46.8434841 L0,4.81845583 L0,4.81845583 C0,2.15729656 2.15729656,0 4.81845583,0 Z" id="Rectangle-39" fill="#04ACF9"></path>
                        <path d="M20.0768993,16.4162376 C20.0768993,20.6015413 23.4744442,23.9986395 27.6601944,23.9986395 C29.7327503,23.9986395 31.6123857,23.1653301 32.9815856,21.8157795 C33.0249034,21.8640096 33.0735801,21.9082206 33.1276157,21.9488589 L36.7033441,24.6211655 L36.7028975,27.9910227 C32.9914103,28.4827021 30.1248434,31.6618716 30.1248434,35.5073315 C30.1248434,39.6926351 33.5223883,43.0897334 37.7081385,43.0897334 C41.8934422,43.0897334 45.2914336,39.6926351 45.2914336,35.5073315 C45.2914336,31.6618716 42.4239736,28.4827021 38.7129329,27.9905761 L38.7129329,24.6211655 L42.2882148,21.9488589 C42.3418038,21.9082206 42.3904805,21.8635631 42.4337983,21.8157795 C43.8029981,23.1653301 45.6826336,23.9986395 47.7560826,23.9986395 C51.9413863,23.9986395 55.3393777,20.6015413 55.3393777,16.4162376 C55.3393777,12.2304874 51.9413863,8.83383569 47.7560826,8.83383569 C43.5703324,8.83383569 40.1727875,12.2304874 40.1727875,16.4162376 C40.1727875,17.8166978 40.5528232,19.128736 41.2159875,20.2549989 C41.1708834,20.2791139 41.1266724,20.3072481 41.0846944,20.338955 L37.7076919,22.862552 L34.3311361,20.338955 C34.2887115,20.3072481 34.2445005,20.2795605 34.1993964,20.2554454 C34.8625607,19.1291826 35.2434895,17.8166978 35.2434895,16.4162376 C35.2434895,12.2304874 31.845498,8.83383569 27.6601944,8.83383569 C23.4744442,8.83383569 20.0768993,12.2304874 20.0768993,16.4162376 Z M27.6601944,15.4476158 C25.5443206,15.4476158 23.8258989,14.591531 23.8258989,12.4756572 L31.4944898,12.4756572 C31.4944898,14.591531 29.7760681,15.4476158 27.6601944,15.4476158 Z M47.7560826,15.4476158 C45.6402089,15.4476158 43.9217872,14.591531 43.9217872,12.4756572 L51.5903781,12.4756572 C51.5903781,14.591531 49.8719564,15.4476158 47.7560826,15.4476158 Z M29.5996709,18.4177881 C29.5996709,19.4886757 28.7306354,20.3572646 27.6601944,20.3572646 C26.5897534,20.3572646 25.7207179,19.4886757 25.7207179,18.4177881 C25.7207179,17.3473471 26.5897534,16.4783116 27.6601944,16.4783116 C28.7306354,16.4783116 29.5996709,17.3473471 29.5996709,18.4177881 Z M49.6955591,18.4177881 C49.6955591,19.4886757 48.8265236,20.3572646 47.7560826,20.3572646 C46.6856416,20.3572646 45.8166061,19.4886757 45.8166061,18.4177881 C45.8166061,17.3473471 46.6856416,16.4783116 47.7560826,16.4783116 C48.8265236,16.4783116 49.6955591,17.3473471 49.6955591,18.4177881 Z M37.7081385,34.5387097 C35.5922648,34.5387097 33.873843,33.6826248 33.873843,31.5667511 L41.542434,31.5667511 C41.542434,33.6826248 39.8240123,34.5387097 37.7081385,34.5387097 Z M39.647615,37.5088819 C39.647615,38.5797695 38.7785795,39.4483584 37.7081385,39.4483584 C36.6376975,39.4483584 35.768662,38.5797695 35.768662,37.5088819 C35.768662,36.438441 36.6376975,35.5694054 37.7081385,35.5694054 C38.7785795,35.5694054 39.647615,36.438441 39.647615,37.5088819 Z" id="Shape" fill="#FFFFFF" transform="translate(37.708139, 25.961785) scale(-1, 1) rotate(-180.000000) translate(-37.708139, -25.961785) "></path>
                    </g>
                    <g id="mail" transform="translate(0.000000, 154.133888)" fill-rule="nonzero">
                        <path d="M2.96773811,1.31781981e-15 L45.2580062,1.31781981e-15 L45.2580062,0 C46.8970427,-3.01089548e-16 48.2257443,1.32870161 48.2257443,2.96773811 L48.2257443,31.1612502 L48.2257443,31.1612502 C48.2257443,32.8002867 46.8970427,34.1289883 45.2580062,34.1289883 L2.96773811,34.1289883 L2.96773811,34.1289883 C1.32870161,34.1289883 0,32.8002867 0,31.1612502 L0,2.96773811 L0,2.96773811 C0,1.32870161 1.32870161,1.61903002e-15 2.96773811,1.31781981e-15 Z" id="Rectangle-39" fill="#14B990"></path>
                        <path d="M11.6870751,7.41934528 C10.555848,7.41934528 9.64514887,8.34509913 9.64514887,9.49502656 L9.64514887,24.0248024 C9.64514887,25.1747298 10.555848,26.1004837 11.6870751,26.1004837 L36.8708327,26.1004837 C38.0020598,26.1004837 38.912759,25.1747298 38.912759,24.0248024 L38.912759,9.49502656 C38.912759,8.34509913 38.0020598,7.41934528 36.8708327,7.41934528 L11.6870751,7.41934528 L11.6870751,7.41934528 Z M35.1479573,10.8463643 C35.4510111,10.8190671 35.7350863,10.999509 35.8438043,11.2883595 C35.9525223,11.5772101 35.8594813,11.9043231 35.6158988,12.0896282 L30.2983824,16.8464046 L35.6052468,21.4194073 C35.8262098,21.5655072 35.9443344,21.8281532 35.9084692,22.0936117 C35.872604,22.3590703 35.6891967,22.5796193 35.4376679,22.6597546 C35.186139,22.7398898 34.9117067,22.6652053 34.7332081,22.4680414 L29.2667672,17.7653088 L26.1932598,20.5112967 C25.0932401,21.4951696 23.4323372,21.4970723 22.3327259,20.5112967 L19.2804885,17.7761369 L13.8246997,22.4680414 C13.646201,22.6652053 13.3717688,22.7398898 13.1202399,22.6597546 C12.868711,22.5796193 12.6853037,22.3590703 12.6494385,22.0936117 C12.6135734,21.8281532 12.731698,21.5655072 12.952661,21.4194073 L18.2488733,16.8464046 L12.942009,12.0896282 C12.7282206,11.9080615 12.6448441,11.6123989 12.7315372,11.3432721 C12.8182303,11.0741452 13.0574938,10.8858784 13.3355222,10.8680205 C13.519746,10.8578909 13.7001244,10.9242087 13.8353517,11.0517875 L23.2367207,19.4734561 C23.8304107,20.0056608 24.7047976,20.00573 25.299917,19.4734561 L34.722556,11.0517875 C34.835795,10.9340415 34.9866292,10.8612048 35.1479573,10.8463643 L35.1479573,10.8463643 Z" id="Shape" fill="#FFFFFF"></path>
                    </g>
                    <g id="video" transform="translate(442.392331, 213.361277)" fill-rule="nonzero">
                        <path d="M4.83488886,0 L37.4703887,0 L37.4703887,0 C40.1406241,0 42.3052775,2.16465348 42.3052775,4.83488886 L42.3052775,21.7569999 L42.3052775,21.7569999 C42.3052775,24.4272353 40.1406241,26.5918887 37.4703887,26.5918887 L4.83488886,26.5918887 L4.83488886,26.5918887 C2.16465348,26.5918887 0,24.4272353 0,21.7569999 L0,4.83488886 L0,4.83488886 C0,2.16465348 2.16465348,0 4.83488886,0 Z" id="Rectangle-39" fill="#FF6223"></path>
                        <path d="M28.0597823,6.04361108 L14.3783908,6.04361108 C12.4454544,6.04361108 10.8784999,7.61056559 10.8784999,9.54350192 L10.8784999,16.8614555 C10.8784999,18.7943919 12.4454544,20.3613463 14.3783908,20.3613463 L28.0597823,20.3613463 C29.9927186,20.3613463 31.5596731,18.7943919 31.5596731,16.8614555 L31.5596731,9.54350192 C31.5596731,7.61056559 29.9927186,6.04361108 28.0597823,6.04361108 Z M22.0940593,14.7933382 L18.9918833,16.3841977 L18.9918833,10.0207598 L22.0940593,11.6116192 L25.1962352,13.2024787 L22.0940593,14.7933382 Z" id="Shape" fill="#FFFFFF"></path>
                    </g>
                    <g id="heart" transform="translate(197.021721, 232.700832)" fill-rule="nonzero">
                        <path d="M7.25233329,0 L43.1457172,0 L43.1457172,0 C47.1510703,0 50.3980505,3.24698082 50.3980505,7.25233329 L50.3980505,27.7804579 L50.3980505,27.7804579 C50.3980505,31.7858104 47.1510703,35.0327912 43.1457172,35.0327912 L7.25233329,35.0327912 L7.25233329,35.0327912 C3.24698021,35.0327912 0,31.7858104 0,27.7804579 L0,7.25233329 L0,7.25233329 C0,3.24698082 3.24698021,0 7.25233329,0 Z" id="Rectangle-39" fill="#F578AB"></path>
                        <path d="M23.095234,24.4652479 C23.6460915,25.0161057 24.3704795,25.2824544 25.0928492,25.2733741 C25.8152195,25.2834632 26.5396072,25.0161057 27.0914738,24.4652479 L33.0227776,18.5642111 C35.0577222,16.5292665 35.0577222,13.2301741 33.0227776,11.1952295 C30.9888419,9.16129378 27.6897495,9.16129378 25.6558137,11.1952295 L25.1281607,11.7148114 L24.6065612,11.1952295 C22.5726254,9.16129378 19.273533,9.16129378 17.2395973,11.1952295 C15.2046527,13.2301741 15.2046527,16.5282577 17.2395973,18.5632023 L23.095234,24.4652479 Z" id="Shape" fill="#FFFFFF"></path>
                    </g>
                    <g id="webshop" transform="translate(353.747498, 5.203028)" fill-rule="nonzero">
                        <path d="M4.30270047,0 L74.5801415,0 L74.5801415,0 C76.956457,0 78.882842,1.92638462 78.882842,4.30270047 L78.882842,46.6125884 L78.882842,46.6125884 C78.882842,48.9889039 76.956457,50.9152889 74.5801415,50.9152889 L4.30270047,50.9152889 L4.30270047,50.9152889 C1.92638498,50.9152889 0,48.9889039 0,46.6125884 L0,4.30270047 L0,4.30270047 C0,1.92638462 1.92638498,0 4.30270047,0 Z" id="Rectangle-39" fill="#83C227"></path>
                        <path d="M48.53302,41.6979187 C46.9306517,41.6979187 45.6263564,40.3945266 45.6263564,38.7921583 C45.6263564,37.1888867 46.9306517,35.8854947 48.53302,35.8854947 C50.1353884,35.8854947 51.4396837,37.1888867 51.4396837,38.7921583 C51.4396837,40.3945266 50.1353884,41.6979187 48.53302,41.6979187" id="Fill-1" fill="#FFFFFF"></path>
                        <path d="M33.8071287,41.6979187 C32.2047604,41.6979187 30.9004651,40.3945266 30.9004651,38.7921583 C30.9004651,37.1888867 32.2047604,35.8854947 33.8071287,35.8854947 C35.409497,35.8854947 36.7128891,37.1888867 36.7128891,38.7921583 C36.7128891,40.3945266 35.409497,41.6979187 33.8071287,41.6979187" id="Fill-3" fill="#FFFFFF"></path>
                        <path d="M51.0518274,27.5324949 C50.6236862,27.5324949 50.2768376,27.1865496 50.2768376,26.7575051 C50.2768376,26.3293638 50.6236862,25.9825152 51.0518274,25.9825152 C51.9072067,25.9825152 52.6018072,25.2870115 52.6018072,24.4325355 L52.6018072,15.9067437 C52.6018072,15.0522677 51.9072067,14.356764 51.0518274,14.356764 L29.4885022,14.356764 C29.0603609,14.356764 28.7144156,14.0099154 28.7144156,13.5817741 C28.7144156,13.1536328 29.0603609,12.8067842 29.4885022,12.8067842 L51.0518274,12.8067842 C52.7607794,12.8067842 54.1517869,14.1977917 54.1517869,15.9067437 L54.1517869,24.4325355 C54.1517869,26.1423907 52.7616827,27.5324949 51.0518274,27.5324949" id="Fill-5" fill="#FFFFFF"></path>
                        <path d="M51.0518274,33.7331364 L33.0319582,33.7331364 C31.3221029,33.7331364 29.9319987,32.3430322 29.9319987,30.633177 C29.9319987,28.9233217 31.3221029,27.5332175 33.0319582,27.5332175 C33.4591962,27.5332175 33.8069481,27.8800661 33.8069481,28.3082074 C33.8069481,28.7363486 33.4591962,29.0831973 33.0319582,29.0831973 C32.1765789,29.0831973 31.4810752,29.778701 31.4810752,30.633177 C31.4810752,31.487653 32.1765789,32.1831567 33.0319582,32.1831567 L51.0518274,32.1831567 C51.4799687,32.1831567 51.825914,32.5300053 51.825914,32.9581466 C51.825914,33.3862878 51.4799687,33.7331364 51.0518274,33.7331364" id="Fill-8" fill="#FFFFFF"></path>
                        <path d="M33.2249831,29.082836 C32.8853605,29.082836 32.5818679,28.8606361 32.4825103,28.530046 L27.5146265,11.8713769 C26.9220935,10.4343036 26.6827318,10.0025493 25.2077219,10.0973908 C24.7931295,10.1226818 24.4119573,9.80202749 24.3830532,9.37478949 C24.3559557,8.94755149 24.6793198,8.57902484 25.1065578,8.55102404 C27.5688216,8.39747127 28.2607123,9.61324791 28.9742811,11.3565235 L33.7886121,27.4813709 L50.9856191,25.9855862 C51.4101473,25.9458432 51.7877065,26.264691 51.8238366,26.6901225 C51.8617731,27.1173605 51.5456351,27.4931132 51.1193003,27.5301465 L33.2936302,29.0801262 C33.2701456,29.082836 33.2475643,29.082836 33.2249831,29.082836" id="Fill-10" fill="#FFFFFF"></path>
                        <polygon id="Fill-13" fill="#FFFFFF" points="28.713964 13.5819548 51.439774 13.5819548 53.0584008 14.7588916 53.3772487 23.6577262 53.0584008 25.7379147 51.8941095 26.754976 33.0315066 27.5326756"></polygon>
                    </g>
                    <g id="code" transform="translate(122.080944, 82.819277)" fill-rule="nonzero">
                        <path d="M4.83488886,0 L41.1343279,0 L41.1343279,0 C43.8045633,0 45.9692168,2.16465348 45.9692168,4.83488886 L45.9692168,25.7202864 L45.9692168,25.7202864 C45.9692168,28.3905218 43.8045633,30.5551753 41.1343279,30.5551753 L4.83488886,30.5551753 L4.83488886,30.5551753 C2.16465348,30.5551753 0,28.3905218 0,25.7202864 L0,4.83488886 L0,4.83488886 C0,2.16465348 2.16465348,0 4.83488886,0 Z" id="Rectangle-39" fill="#A5EEF5"></path>
                        <path d="M21.603549,21.7640818 L9.66977772,16.4641189 L9.66977772,14.4338427 L21.603549,8.46105551 L21.603549,11.9668225 L14.2851131,15.3073331 L21.603549,18.2819235 L21.603549,21.7640818 Z M24.7687646,18.2819235 L32.0871992,15.3073331 L24.7687646,11.9668225 L24.7687646,8.46105551 L36.7025358,14.4338427 L36.7025358,16.4641189 L24.7687646,21.7640818 L24.7687646,18.2819235 Z" id="&lt;&gt;" fill="#FFFFFF"></path>
                    </g>
                    <g id="search" transform="translate(377.121331, 82.819277)" fill-rule="nonzero">
                        <path d="M3.71295422,0.445075993 L71.164956,0.445075993 L71.164956,0.445075993 C73.2155637,0.445075993 74.8779102,2.10742253 74.8779102,4.15803022 L74.8779102,48.0946552 L74.8779102,48.0946552 C74.8779102,50.1452629 73.2155637,51.8076094 71.164956,51.8076094 L3.71295422,51.8076094 L3.71295422,51.8076094 C1.66234654,51.8076094 0,50.1452629 0,48.0946552 L0,4.15803022 L0,4.15803022 C0,2.10742253 1.66234654,0.445075993 3.71295422,0.445075993 Z" id="Rectangle-39" fill="#1B8B9A"></path>
                        <path d="M46.4330702,26.143382 C48.030437,19.9311371 44.2756186,13.5771934 38.0637684,11.9798267 C31.850734,10.3820652 25.4971851,14.1368836 23.8994237,20.3491285 C22.3020569,26.5617682 26.0564806,32.9149224 32.2691202,34.5130786 C38.4809704,36.1104453 44.8353088,32.3560217 46.4330702,26.143382 Z M33.0557651,31.4533338 C28.53009,30.2897467 25.7955813,25.6606591 26.9591684,21.1353788 C28.1231503,16.6100983 32.7514484,13.8751949 37.2763341,15.038782 C41.8020092,16.2023692 44.5369126,20.831062 43.3729308,25.3563424 C42.2089489,29.8816228 37.5814402,32.6169209 33.0557651,31.4533338 Z M52.2304814,39.5210818 C52.2312707,39.5206871 52.2316655,39.5202925 52.2320602,39.5202925 C52.226929,39.5273971 52.2202191,39.5348965 52.2146932,39.5416064 C52.2099568,39.5483164 52.205615,39.5538423 52.2008785,39.5605522 C52.2000891,39.5609469 52.1996944,39.5609469 52.198905,39.5617363 C52.1393047,39.6343618 52.0635216,39.7239596 52.0039213,39.784744 L51.7631519,40.0302499 C51.0649207,40.7422957 50.1496023,40.9767499 49.7177962,40.5536273 L42.8104777,33.7840604 C43.1834729,33.4750072 43.6764581,33.0242554 43.9010446,32.8178252 L43.9002552,32.8174305 C44.5250715,32.2522145 44.7433428,31.922242 44.8645169,31.8073832 C45.1060757,31.5792443 45.4605198,31.0870486 45.5785362,30.9599539 L52.4858548,37.7291261 C52.86556,38.1021212 52.7412282,38.8595581 52.2304814,39.5210818 Z" id="Shape" fill="#FFFFFF"></path>
                    </g>
                </g>
            </g>
        </g>
    </g>
</svg>